<?xml version="1.0" encoding="UTF-8"?>
<svg xmlns="http://www.w3.org/2000/svg" xmlns:xlink="http://www.w3.org/1999/xlink" width="100px" height="75px" viewBox="0 0 100 75" version="1.1">
<g id="surface1">
<path style="fill-rule:evenodd;fill:rgb(0%,0%,0%);fill-opacity:1;stroke-width:5.1286;stroke-linecap:butt;stroke-linejoin:miter;stroke:rgb(99.215686%,93.333333%,12.941176%);stroke-opacity:1;stroke-miterlimit:4;" d="M 597.329555 637.778125 L 597.329555 830.621875 L 644.673305 830.621875 L 644.673305 742.028125 L 654.43893 742.16875 L 654.43893 830.621875 L 702.329555 830.621875 L 702.329555 637.778125 L 654.43893 637.778125 L 654.43893 709.35625 L 644.673305 709.35625 L 644.673305 637.778125 Z M 597.329555 637.778125 " transform="matrix(0.1,0,0,0.0833333,-0.053268,5.566667)"/>
<path style="fill-rule:evenodd;fill:rgb(0%,0%,0%);fill-opacity:1;stroke-width:5.1286;stroke-linecap:butt;stroke-linejoin:miter;stroke:rgb(99.215686%,93.333333%,12.941176%);stroke-opacity:1;stroke-miterlimit:4;" d="M 761.235805 637.778125 L 715.142055 637.778125 L 715.142055 830.621875 L 761.235805 830.621875 Z M 761.235805 637.778125 " transform="matrix(0.1,0,0,0.0833333,-0.053268,5.566667)"/>
<path style="fill-rule:evenodd;fill:rgb(0%,0%,0%);fill-opacity:1;stroke-width:5.1286;stroke-linecap:butt;stroke-linejoin:miter;stroke:rgb(99.215686%,93.333333%,12.941176%);stroke-opacity:1;stroke-miterlimit:4;" d="M 768.81393 637.778125 L 805.22018 830.621875 L 860.22018 830.621875 L 896.62643 637.778125 L 847.681118 637.778125 L 835.610805 720.325 C 834.634243 723.465625 831.235805 723.465625 830.610805 720.325 L 818.540493 637.778125 Z M 768.81393 637.778125 " transform="matrix(0.1,0,0,0.0833333,-0.053268,5.566667)"/>
<path style="fill-rule:evenodd;fill:rgb(0%,0%,0%);fill-opacity:1;stroke-width:5.1286;stroke-linecap:butt;stroke-linejoin:miter;stroke:rgb(99.215686%,93.333333%,12.941176%);stroke-opacity:1;stroke-miterlimit:4;" d="M 997.954555 637.778125 L 906.431118 637.778125 L 906.431118 830.621875 L 997.954555 830.621875 L 997.954555 780.090625 L 947.056118 779.621875 L 947.056118 757.965625 L 971.31393 757.965625 L 971.31393 707.7625 L 947.056118 707.7625 L 947.056118 688.35625 L 997.954555 688.35625 Z M 997.954555 637.778125 " transform="matrix(0.1,0,0,0.0833333,-0.053268,5.566667)"/>
<path style=" stroke:none;fill-rule:evenodd;fill:rgb(99.215686%,93.333333%,12.941176%);fill-opacity:1;" d="M 50.3125 9.980469 C 49.542969 8.21875 23.019531 -0.371094 22.683594 0.570312 C 17.8125 1.628906 15.828125 6.304688 12.480469 9.269531 L 5.039062 8.914062 C 1.761719 12.425781 0.0429688 16.015625 1.214844 19.742188 C 5.414062 24.484375 10.289062 28.519531 13.328125 34.476562 C 13.570312 37.285156 27.910156 34.773438 30.984375 34.214844 C 26.785156 36.722656 23.128906 40.605469 24.699219 51.785156 C 26.136719 57.039062 27.117188 62.898438 39.839844 68.839844 C 41.515625 69.621094 44.980469 70.523438 47.125 71.179688 C 49.175781 71.964844 51.570312 72.285156 58.332031 70.5625 C 62.246094 69.15625 66.46875 68.3125 70.296875 66.910156 L 65.695312 67.089844 C 59.359375 67.203125 54.464844 67.597656 52.957031 66.121094 L 47.125 57.734375 L 50.523438 52.230469 C 55.230469 52.632812 56.792969 55.8125 60.941406 57.023438 L 65.828125 54.003906 C 80.027344 60.988281 85.675781 49.578125 87.296875 40.691406 C 87.121094 37.074219 77.902344 41.824219 78.460938 40.132812 C 78.675781 36.246094 74.875 31.160156 72.417969 27.199219 L 75.261719 18.03125 C 76.550781 17.074219 69.289062 6.875 63.359375 5.605469 C 58.15625 4.488281 50.3125 9.980469 50.3125 9.980469 Z M 50.3125 9.980469 "/>
<path style=" stroke:none;fill-rule:evenodd;fill:rgb(78.431373%,75.294118%,21.568627%);fill-opacity:1;" d="M 73.640625 29.460938 C 73.691406 30.445312 73.683594 31.644531 73.796875 32.390625 C 73.777344 32.960938 73.265625 32.980469 72.839844 33.101562 L 75.605469 33.945312 C 76.152344 34.714844 76.59375 35.484375 77.039062 36.253906 C 77.554688 38.144531 77.171875 38.199219 76.828125 38.339844 C 75.824219 38.347656 74.824219 38.347656 73.890625 38.183594 C 74.308594 38.367188 74.402344 38.5 74.445312 38.738281 C 74.527344 39.171875 74.191406 39.765625 73.640625 40.335938 C 74.457031 40.714844 75.945312 41.082031 77.054688 41.433594 L 78.316406 39.09375 C 77.742188 35.652344 76.011719 32.484375 73.640625 29.460938 Z M 73.640625 29.460938 "/>
<path style=" stroke:none;fill-rule:evenodd;fill:rgb(78.431373%,75.294118%,21.568627%);fill-opacity:1;" d="M 78.796875 41 C 80.328125 41.53125 82.445312 41.375 85.378906 40.113281 C 85.816406 39.855469 86.222656 40.011719 85.441406 40.433594 C 81.59375 43.3125 79.75 41.875 78.796875 41 Z M 78.796875 41 "/>
<path style=" stroke:none;fill-rule:evenodd;fill:rgb(78.431373%,75.294118%,21.568627%);fill-opacity:1;" d="M 85.675781 39.738281 C 86.128906 40.464844 85.855469 41.054688 85.703125 41.667969 C 85.226562 44.789062 84.058594 47.253906 81.769531 49.832031 C 74.320312 59.8125 66.800781 53.566406 60.808594 49.503906 L 58.328125 54.683594 C 58.195312 55.136719 57.648438 55.488281 61.519531 56.910156 L 65.464844 54.589844 C 80.511719 64.128906 91.175781 41.234375 85.675781 39.738281 Z M 85.675781 39.738281 "/>
<path style=" stroke:none;fill-rule:evenodd;fill:rgb(78.431373%,75.294118%,21.568627%);fill-opacity:1;" d="M 62.621094 48.652344 C 61.605469 48.714844 58.585938 49.570312 58.449219 50.066406 L 59.839844 48.339844 Z M 62.621094 48.652344 "/>
<path style=" stroke:none;fill-rule:evenodd;fill:rgb(78.431373%,75.294118%,21.568627%);fill-opacity:1;" d="M 60.648438 38.074219 C 60.832031 38.074219 61.726562 38.273438 61.628906 38.226562 C 61.492188 38.164062 61.617188 39.269531 61.894531 39.847656 L 60.808594 41.824219 C 62.894531 39.816406 66.191406 39.949219 69.253906 39.691406 L 67.792969 38.9375 C 68.046875 38.230469 67.75 37.675781 67.609375 37.074219 Z M 60.648438 38.074219 "/>
<path style=" stroke:none;fill-rule:evenodd;fill:rgb(78.431373%,75.294118%,21.568627%);fill-opacity:1;" d="M 65.773438 32.125 C 63.535156 32.699219 61.394531 33.632812 59.953125 35.625 C 61.050781 32.339844 61.277344 32.464844 61.628906 32.304688 C 63.164062 31.730469 64.421875 32.085938 65.773438 32.125 Z M 65.773438 32.125 "/>
<path style=" stroke:none;fill-rule:evenodd;fill:rgb(98.823529%,96.470588%,62.745098%);fill-opacity:1;" d="M 53.820312 70.605469 C 51.113281 73.09375 45.074219 70.414062 40.058594 69.050781 C 27.3125 62.296875 24.820312 55.9375 24.648438 49.699219 C 23.992188 40.765625 27.285156 35.574219 31.449219 34.34375 C 28.691406 38.773438 27.40625 46.71875 28.6875 52.628906 C 29.71875 55.917969 29.738281 61.464844 36.339844 64.433594 C 39.574219 65.949219 38.699219 67.128906 40.882812 68.550781 C 43.277344 70.105469 49.957031 71.585938 53.820312 70.605469 Z M 53.820312 70.605469 "/>
<path style=" stroke:none;fill-rule:evenodd;fill:rgb(98.823529%,96.470588%,62.745098%);fill-opacity:1;" d="M 57.863281 29.3125 C 53.28125 23.894531 46.835938 21.863281 39.566406 21.640625 C 41.023438 21.246094 42.480469 21.039062 43.9375 20.453125 C 44.292969 20.140625 44.175781 19.589844 44.042969 19.035156 C 37.046875 17.511719 32.628906 15.628906 27.039062 13.886719 L 42.128906 16.902344 C 52.320312 17.226562 51.445312 19.320312 57.863281 29.3125 Z M 57.863281 29.3125 "/>
<path style=" stroke:none;fill-rule:evenodd;fill:rgb(98.823529%,96.470588%,62.745098%);fill-opacity:1;" d="M 62.769531 26.699219 C 59.382812 22.671875 56.097656 17.78125 51.640625 14.671875 C 40.875 10.621094 30.226562 7.617188 17.75 4.878906 L 21.730469 0.609375 C 34.972656 3.128906 47.410156 7.34375 58.550781 14.292969 C 60.4375 18.265625 61.695312 22.242188 62.769531 26.699219 Z M 62.769531 26.699219 "/>
<path style=" stroke:none;fill-rule:evenodd;fill:rgb(98.823529%,96.470588%,62.745098%);fill-opacity:1;" d="M 69.597656 19.578125 C 69.597656 19.578125 67.699219 16.03125 66.777344 14.675781 C 64.628906 12.695312 63.546875 9.003906 59.152344 7.265625 C 60.542969 7.578125 61.492188 7.203125 64.328125 9.347656 L 68.796875 16.40625 Z M 69.597656 19.578125 "/>
<path style=" stroke:none;fill-rule:evenodd;fill:rgb(98.823529%,96.470588%,62.745098%);fill-opacity:1;" d="M 71.960938 25.730469 C 72.398438 22.65625 73.230469 17.722656 72.277344 15.773438 C 69.621094 12.804688 66.945312 9.734375 64.273438 6.886719 C 63.828125 6.542969 63.511719 6.074219 63.160156 5.710938 C 66.921875 6.523438 70.847656 8.703125 76.140625 17.304688 Z M 71.960938 25.730469 "/>
<path style=" stroke:none;fill-rule:evenodd;fill:rgb(0%,0%,0%);fill-opacity:1;" d="M 56.148438 26.09375 C 54.652344 25.109375 53.316406 21.636719 51.046875 20.914062 C 48.945312 20.765625 48.175781 20.214844 45.410156 20.683594 C 46.414062 20.265625 47.359375 19.730469 48.425781 19.445312 C 49.144531 19.304688 49.824219 19.460938 50.511719 19.539062 C 50.679688 19.472656 50.792969 19.390625 50.75 19.261719 C 47.96875 17.832031 42.265625 17.808594 38.414062 16.992188 C 42.882812 17.117188 47.828125 16.910156 51.1875 17.808594 C 53.890625 19.804688 54.765625 23.570312 56.148438 26.09375 Z M 56.148438 26.09375 "/>
<path style=" stroke:none;fill-rule:evenodd;fill:rgb(0%,0%,0%);fill-opacity:1;" d="M 64.339844 9.335938 C 64.960938 9.382812 68.296875 13.78125 68.453125 14.511719 C 68.730469 16.113281 69.414062 17.90625 69.601562 19.582031 C 69.050781 17.976562 68.453125 16.371094 67.703125 14.765625 C 67.484375 14.324219 66.929688 13.324219 65.390625 11.910156 C 64.675781 10.914062 64.519531 10.128906 64.339844 9.335938 Z M 64.339844 9.335938 "/>
<path style=" stroke:none;fill-rule:evenodd;fill:rgb(0%,0%,0%);fill-opacity:1;" d="M 75.648438 33.296875 L 74.222656 33.296875 L 75.800781 33.640625 Z M 75.648438 33.296875 "/>
<path style=" stroke:none;fill-rule:evenodd;fill:rgb(0%,0%,0%);fill-opacity:1;" d="M 65.90625 32.109375 C 64.472656 31.960938 62.996094 31.941406 61.5625 32.203125 C 60.976562 32.859375 60.9375 33.523438 60.679688 34.140625 C 62.425781 32.539062 63.117188 32.441406 65.90625 32.109375 Z M 65.90625 32.109375 "/>
<path style=" stroke:none;fill-rule:evenodd;fill:rgb(0%,0%,0%);fill-opacity:1;" d="M 85.488281 40.378906 C 84.691406 40.914062 84.609375 41.414062 82.246094 42.011719 C 80.523438 42.351562 79.550781 41.777344 78.742188 41.003906 C 79.96875 41.296875 80.167969 42.070312 83.464844 41.203125 Z M 85.488281 40.378906 "/>
<path style=" stroke:none;fill-rule:evenodd;fill:rgb(0%,0%,0%);fill-opacity:1;" d="M 78.328125 40.714844 C 77.753906 42.03125 77.132812 43.363281 76.507812 44.597656 C 75.019531 46.050781 75.65625 45.222656 73.425781 47.480469 C 74.140625 46.566406 75.066406 45.683594 75.550781 44.730469 C 75.894531 44.101562 76.316406 43.433594 76.503906 42.875 C 75.914062 42.628906 74.707031 42.609375 74.542969 42.699219 C 72.5625 43.671875 72.203125 44.703125 71.035156 45.707031 C 71.882812 44.578125 72.605469 43.347656 73.585938 42.332031 C 73.699219 42.203125 74.425781 42.175781 74.871094 42.097656 C 74.175781 42 72.890625 41.792969 72.789062 41.800781 C 71.496094 42.058594 70.773438 42.996094 69.8125 43.621094 C 70.511719 42.777344 71.15625 41.902344 72.046875 41.179688 C 72.132812 41.09375 74.535156 41.269531 75.777344 41.683594 L 75.800781 42.09375 L 76.507812 42.332031 L 77.039062 41.222656 Z M 78.328125 40.714844 "/>
<path style=" stroke:none;fill-rule:evenodd;fill:rgb(0%,0%,0%);fill-opacity:1;" d="M 62.652344 48.65625 C 62.335938 48.566406 59.519531 48.265625 59.519531 48.335938 C 58.4375 48.976562 58.273438 49.589844 58.296875 50.121094 C 60.09375 48.648438 60.027344 48.644531 62.652344 48.65625 Z M 62.652344 48.65625 "/>
<path style=" stroke:none;fill-rule:evenodd;fill:rgb(0%,0%,0%);fill-opacity:1;" d="M 60.515625 38.050781 C 60.515625 38.050781 62.546875 37.804688 62.507812 37.960938 C 62.359375 38.550781 62.757812 39.980469 62.800781 39.78125 L 61.65625 40.558594 C 64.050781 39.554688 66.570312 39.757812 69.121094 39.605469 C 69.121094 39.605469 66.972656 39.109375 67.105469 39.09375 C 67.582031 39.039062 66.976562 37.226562 66.8125 37.183594 C 67.21875 37.070312 67.621094 36.984375 68.035156 36.898438 C 64.957031 36.226562 63.179688 36.621094 60.515625 38.050781 Z M 60.515625 38.050781 "/>
<path style=" stroke:none;fill-rule:evenodd;fill:rgb(0%,0%,0%);fill-opacity:1;" d="M 78.101562 39.316406 L 77.652344 39.503906 C 77.585938 38.402344 76.164062 38.480469 74.96875 38.472656 L 73.984375 38.273438 C 74.285156 38.503906 75.207031 38.484375 74.835938 38.980469 C 74.519531 39.121094 74.375 39.722656 74.195312 40.226562 L 73.664062 40.246094 C 74.605469 40.550781 75.476562 40.820312 76.507812 41.179688 L 77.121094 41.257812 L 78.582031 40.601562 Z M 78.101562 39.316406 "/>
<path style=" stroke:none;fill-rule:evenodd;fill:rgb(100%,100%,100%);fill-opacity:1;" d="M 64.632812 38.570312 C 64.402344 38.195312 63.253906 38.25 63.003906 38.492188 C 62.804688 38.691406 62.992188 39.960938 63.25 39.746094 C 63.625 39.472656 64.113281 39.359375 64.699219 39.382812 C 64.773438 39.148438 64.746094 38.894531 64.632812 38.570312 Z M 64.632812 38.570312 "/>
<path style=" stroke:none;fill-rule:evenodd;fill:rgb(100%,100%,100%);fill-opacity:1;" d="M 75.667969 40.464844 C 75.777344 40.402344 76.003906 39.761719 75.929688 39.570312 C 75.78125 39.121094 74.710938 39.214844 74.710938 39.214844 C 74.449219 39.34375 74.21875 40.046875 74.316406 40.277344 C 74.359375 40.472656 75.496094 40.535156 75.667969 40.464844 Z M 75.667969 40.464844 "/>
<path style=" stroke:none;fill-rule:evenodd;fill:rgb(0%,0%,0%);fill-opacity:1;" d="M 29.910156 62.46875 L 30.585938 62.523438 C 34.59375 64.164062 41.191406 66.59375 50.742188 65.289062 L 52.242188 67.253906 C 48.035156 68.957031 43.511719 68.566406 39.273438 68.6875 Z M 29.910156 62.46875 "/>
<path style=" stroke:none;fill-rule:evenodd;fill:rgb(0%,0%,0%);fill-opacity:1;" d="M 24.15625 49.507812 L 26.164062 56.53125 C 31.539062 59.332031 40.71875 62.535156 48.371094 62.277344 L 46.679688 59.042969 C 30.707031 56.21875 29.355469 52.644531 24.15625 49.507812 Z M 24.15625 49.507812 "/>
<path style=" stroke:none;fill-rule:evenodd;fill:rgb(0%,0%,0%);fill-opacity:1;" d="M 29.152344 35.125 C 30.132812 40.566406 31.445312 44.691406 37.121094 48.148438 C 40.601562 50.234375 44.058594 52.308594 48.257812 54.023438 C 48.257812 54.023438 47.890625 55.621094 47.582031 55.59375 C 35.078125 54.4375 25.921875 45.796875 24.8125 41.847656 C 25.886719 38.820312 27.429688 36.929688 29.152344 35.125 Z M 29.152344 35.125 "/>
<path style=" stroke:none;fill-rule:evenodd;fill:rgb(0%,0%,0%);fill-opacity:1;" d="M 35.164062 32.039062 C 36.832031 38.070312 40.804688 44.179688 44.753906 49.722656 C 46.199219 51.253906 46.578125 51.929688 48.808594 52.859375 C 51.828125 53.65625 53.960938 53.453125 56.148438 53.332031 C 55.546875 52.410156 55.015625 51.441406 54.328125 50.570312 C 49.425781 47.339844 51.691406 44.398438 52.992188 42.539062 C 50.265625 41.964844 46.65625 40.746094 46.15625 39.140625 C 45.359375 33.949219 45.765625 32.304688 46.566406 29.640625 C 42.875 30.289062 39.132812 30.929688 35.164062 32.039062 Z M 35.164062 32.039062 "/>
<path style="fill-rule:evenodd;fill:rgb(0%,0%,0%);fill-opacity:1;stroke-width:0.11397;stroke-linecap:butt;stroke-linejoin:miter;stroke:rgb(0%,0%,0%);stroke-opacity:1;stroke-miterlimit:4;" d="M 216.78268 -66.753125 C 204.634242 -58.83125 192.954555 -47.4875 180.37643 -34.596875 C 159.517055 -13.034375 145.68893 8.0125 124.477992 23.621875 C 120.22018 27.278125 108.306117 33.184375 93.34518 34.028125 C 86.274867 34.403125 81.704555 35.575 68.735805 33.934375 C 57.329555 27.746875 46.47018 31.778125 35.84518 44.434375 C 24.243617 61.16875 9.517055 92.903125 3.423305 112.871875 C -9.193883 163.778125 22.954555 205.778125 53.774867 238.121875 C 81.196742 264.8875 97.017055 281.66875 108.267055 306.23125 C 116.821742 322.121875 123.110805 344.0125 129.985805 359.340625 C 132.446742 364.215625 131.93893 364.16875 138.540492 365.621875 C 152.87643 368.715625 172.759242 368.715625 190.454555 370.2625 C 198.149867 370.35625 208.65768 370.075 218.618617 369.04375 C 232.329555 366.41875 248.462367 363.8875 261.977993 359.2 C 275.22018 355.965625 286.977993 351.465625 297.602993 347.29375 C 296.235805 351.934375 286.118618 356.434375 282.329555 362.29375 C 246.352992 413.809375 236.509242 459.60625 242.759242 531.934375 C 246.31393 563.95 253.65768 590.528125 264.75143 620.903125 C 269.829555 634.825 280.649868 656.85625 291.00143 671.48125 C 321.78268 714.98125 390.649868 770.85625 486.548305 792.371875 C 503.267055 794.621875 522.25143 793.403125 540.142055 788.66875 C 587.446743 774.325 683.892055 740.3875 683.892055 740.3875 C 683.892055 740.3875 598.267055 747.465625 559.087368 743.575 C 549.985805 742.16875 539.985805 741.7 533.65768 735.5125 C 532.602993 734.153125 528.735805 726.371875 531.235805 726.325 C 534.634243 726.23125 544.399868 722.153125 559.43893 720.840625 C 527.290493 717.371875 527.759243 717.41875 525.415493 711.559375 C 521.78268 702.465625 516.196743 690.04375 510.454555 679.16875 C 524.556118 680.3875 555.806118 682.121875 566.431118 671.2 C 566.431118 671.2 547.915493 673.309375 531.587368 671.3875 C 526.079555 670.778125 516.704555 667.403125 513.852993 666.371875 C 506.548305 663.5125 500.493618 662.621875 499.087368 660.746875 C 496.548305 654.278125 494.790493 652.121875 491.743618 643.403125 C 487.56393 631.91875 487.25143 619.075 486.431118 607.309375 C 497.134243 620.528125 510.767055 631.590625 528.81393 637.2625 C 529.048305 636.79375 552.212368 647.340625 569.009243 641.903125 L 572.524868 640.778125 C 572.524868 641.10625 561.352993 641.7625 557.290493 639.746875 C 523.071743 625.215625 517.915493 612.465625 512.368618 606.1375 L 497.602993 584.0125 C 502.09518 575.059375 504.634243 574.684375 510.610805 574.6375 C 528.618618 576.60625 536.431118 578.153125 547.40768 575.528125 C 554.790493 590.7625 556.821743 606.090625 573.65768 617.2 C 629.829555 633.840625 642.017055 612.23125 655.649868 593.10625 C 696.040493 622.778125 761.821743 631.91875 807.524868 593.621875 C 865.610805 526.403125 884.009243 420.465625 878.852993 414.41875 C 871.587368 402.090625 862.09518 389.434375 853.892055 391.16875 C 824.790493 399.1375 814.048305 413.903125 785.181118 410.528125 C 788.618618 410.340625 794.399868 410.246875 794.43893 409.91875 C 796.665493 385.496875 794.243618 373.6375 793.18893 371.621875 C 784.43893 352.309375 772.915493 331.965625 764.90768 316.73125 C 762.837368 313.590625 756.78268 289.590625 746.587368 280.075 C 742.25143 276.371875 731.548305 266.528125 731.548305 266.528125 L 730.649868 276.98125 C 730.649868 276.98125 734.829555 277.590625 736.431118 284.059375 C 742.446743 308.575 773.110805 366.559375 775.337368 369.325 C 786.235805 386.903125 776.47018 408.746875 784.712368 421.028125 C 785.53268 422.575 801.587368 420.8875 814.048305 421.6375 C 834.517055 417.23125 833.65768 408.23125 851.31393 406.871875 C 863.227993 405.934375 864.43893 428.29375 864.28268 430.028125 C 862.056118 454.73125 854.556118 483.465625 843.03268 509.715625 C 819.12643 555.79375 792.329555 597.1375 754.360805 602.903125 C 708.03268 611.0125 683.97018 590.7625 658.852993 577.871875 L 649.243618 586.075 C 616.62643 618.559375 577.87643 615.653125 562.017055 573.23125 C 554.12643 556.73125 543.852993 546.653125 535.024868 532.496875 L 488.34518 566.153125 C 484.477993 574.121875 479.673305 586.684375 473.892055 600.7 C 469.829555 610.496875 466.47018 627.23125 466.665493 641.153125 C 460.68893 651.371875 487.40768 692.715625 504.28268 717.8875 C 509.28268 725.29375 518.579555 738.23125 518.892055 739.075 C 522.212368 747.746875 529.556118 755.3875 529.985805 756.325 C 561.352993 797.2 490.454555 787.825 475.84518 785.340625 C 446.977993 780.746875 418.696743 768.653125 392.173305 752.528125 C 390.610805 751.590625 389.087368 750.653125 387.56393 749.715625 C 356.00143 729.840625 326.977993 704.3875 302.290493 679.2625 C 287.56393 662.621875 273.579555 628.45 263.227993 604.215625 C 247.681117 545.996875 225.454555 445.075 285.727993 368.575 C 289.556118 364.215625 293.696743 356.95 297.212368 355.496875 C 315.142055 343.403125 334.59518 335.10625 355.493618 330.559375 L 353.384243 316.965625 C 342.954555 319.35625 307.759243 332.2 297.798305 337.590625 C 275.181118 344.153125 256.431118 350.996875 227.602992 358.215625 C 218.227992 359.3875 209.009242 359.3875 200.024867 358.16875 C 179.28268 355.35625 143.931117 357.8875 141.665492 355.778125 C 127.602992 336.184375 123.774867 301.121875 110.962367 282.325 L 110.649867 281.95 C 103.18893 271.91875 94.477992 263.715625 85.884242 255.23125 C 55.181117 224.715625 28.892055 195.184375 21.548305 163.91875 C 19.712367 154.73125 14.946742 145.16875 17.446742 117.840625 L 17.524867 117.7 L 17.56393 117.559375 C 24.946742 92.059375 36.977992 71.246875 57.368617 50.434375 C 78.579555 50.7625 99.59518 51.23125 115.962367 54.371875 C 123.462367 55.590625 139.087367 57.653125 155.22018 63.653125 C 196.040492 78.8875 249.985805 103.871875 249.985805 103.871875 C 209.477992 81.653125 164.204555 52.73125 135.610805 46.91875 C 131.392055 46.309375 128.774867 44.3875 127.485805 41.0125 C 170.493617 15.746875 178.34518 -14.01875 206.62643 -40.690625 C 219.556117 -46.315625 224.59518 -49.175 235.610805 -50.39375 C 337.173305 -34.315625 401.118618 6.1375 451.665493 33.184375 C 472.212368 44.340625 490.884243 52.778125 508.696743 62.95 C 524.321743 68.10625 571.47018 103.684375 585.259243 122.903125 C 599.28268 152.48125 609.517055 184.45 618.852993 215.29375 C 625.53268 246.653125 631.431118 259.403125 631.431118 259.403125 C 631.431118 259.403125 625.727993 233.153125 626.665493 228.41875 C 632.56393 230.621875 646.509243 234.98125 652.290493 234.325 C 652.290493 234.325 626.47018 220.965625 623.110805 209.153125 C 612.25143 171.325 601.352993 112.403125 598.423305 109.35625 C 590.142055 98.95 555.649868 72.5125 534.477993 60.325 C 526.47018 55.684375 522.134243 52.825 521.821743 50.809375 C 528.579555 43.965625 536.899868 34.91875 544.399868 29.2 C 551.587368 23.66875 558.110805 17.48125 568.110805 13.778125 C 612.09518 -6.05 637.212368 21.371875 643.18893 15.840625 C 643.18893 15.840625 633.735805 4.965625 637.915493 6.79375 C 642.212368 9.090625 656.235805 11.85625 657.798305 13.2625 C 673.81393 25.825 715.68893 71.621875 740.962368 119.95 C 747.017055 131.809375 749.477993 139.590625 746.665493 153.840625 C 743.852993 168.1375 741.665493 175.965625 738.579555 185.48125 C 735.806118 191.85625 720.102993 235.496875 720.142055 241.35625 C 716.977993 265.2625 730.415493 295.2625 730.415493 295.2625 C 730.53268 287.10625 729.90768 282.79375 730.649868 276.98125 L 731.548305 266.575 C 731.548305 266.575 730.962368 263.809375 731.079555 262.684375 C 731.78268 255.5125 733.540493 249.465625 734.048305 245.340625 C 739.087368 214.121875 747.87643 191.621875 757.837368 164.2 C 760.767055 157.2625 764.634243 153.41875 764.43893 148.121875 C 764.59518 138.79375 756.235805 126.23125 750.181118 113.996875 C 744.087368 101.575 736.821743 87.79375 727.25143 73.215625 C 705.415493 41.85625 686.821743 17.29375 652.759243 1.91875 C 643.227993 -2.253125 605.727993 -6.33125 592.798305 -3.89375 C 577.056118 -0.659375 563.540493 2.575 552.798305 9.465625 C 535.84518 20.340625 522.524868 37.121875 506.899868 47.059375 C 472.329555 29.7625 455.649868 16.825 452.56393 15.04375 C 432.017055 4.028125 407.368618 -8.721875 380.806118 -20.8625 C 368.110805 -32.721875 289.12643 -61.08125 216.78268 -66.753125 Z M 658.852993 577.825 C 637.56393 561.184375 619.634243 544.075 607.798305 526.403125 C 603.931118 547.16875 589.946743 561.934375 579.12643 576.5125 C 576.93893 579.8875 575.415493 584.528125 586.00143 599.3875 C 588.892055 603.325 599.204555 603.98125 606.196743 603.653125 C 599.087368 598.2625 588.306118 592.590625 586.548305 587.66875 C 599.048305 596.153125 610.610805 598.590625 621.079555 597.23125 C 623.462368 596.95 626.431118 594.41875 628.735805 590.528125 C 633.384243 580.496875 637.056118 578.10625 640.727993 575.3875 L 649.243618 586.075 Z M 658.852993 577.825 " transform="matrix(0.1,0,0,0.0833333,-0.053268,5.566667)"/>
</g>
</svg>
