<?xml version="1.0" standalone="no"?>
<!DOCTYPE svg PUBLIC "-//W3C//DTD SVG 20010904//EN"
 "http://www.w3.org/TR/2001/REC-SVG-20010904/DTD/svg10.dtd">
<svg version="1.0" xmlns="http://www.w3.org/2000/svg"
 width="261.000000pt" height="123.000000pt" viewBox="0 0 261.000000 123.000000"
 preserveAspectRatio="xMidYMid meet">

<g transform="translate(0.000000,123.000000) scale(0.100000,-0.100000)"
fill="#000000" stroke="none">
<path d="M0 615 l0 -615 120 0 120 0 0 250 0 250 330 0 330 0 0 115 0 115
-330 0 -330 0 0 135 0 135 330 0 330 0 0 115 0 115 -450 0 -450 0 0 -615z"/>
<path d="M990 615 l0 -615 125 0 125 0 0 615 0 615 -125 0 -125 0 0 -615z"/>
<path d="M1326 1208 c10 -12 24 -28 30 -35 7 -7 34 -42 60 -78 26 -36 51 -65
56 -65 4 0 8 -6 8 -14 0 -8 4 -16 8 -18 5 -1 48 -55 96 -118 48 -63 92 -116
97 -118 5 -2 9 -10 9 -18 0 -8 3 -14 8 -14 8 0 92 -105 92 -116 0 -7 -62 -86
-90 -114 -9 -9 -31 -37 -49 -63 -19 -26 -38 -47 -43 -47 -4 0 -8 -7 -8 -15 0
-8 -4 -15 -8 -15 -5 0 -28 -27 -52 -60 -24 -33 -47 -60 -52 -60 -4 0 -8 -7 -8
-15 0 -8 -4 -15 -8 -15 -4 0 -26 -23 -47 -52 -22 -28 -44 -56 -50 -62 -6 -6
-25 -30 -43 -53 l-34 -43 154 0 153 1 32 43 c18 23 42 54 54 67 11 13 37 45
57 71 20 27 40 48 44 48 4 0 8 7 8 15 0 8 4 15 8 15 5 0 28 27 52 60 24 33 47
60 52 60 4 0 8 6 8 14 0 27 32 27 56 1 13 -14 24 -30 24 -36 0 -5 4 -9 8 -9 5
0 28 -27 52 -60 24 -33 47 -60 52 -60 4 0 8 -7 8 -15 0 -8 4 -15 8 -15 5 0 28
-27 52 -60 24 -33 47 -60 52 -60 4 0 8 -4 8 -9 0 -5 12 -23 27 -40 l27 -31
148 0 c82 0 148 3 148 7 0 5 -142 186 -160 203 -3 3 -23 28 -44 55 -22 28 -44
55 -50 60 -6 6 -36 42 -66 80 -30 39 -57 72 -60 75 -3 3 -23 28 -45 55 -21 28
-45 55 -53 62 -12 10 -9 19 19 55 18 24 36 45 39 48 3 3 19 23 35 45 17 22 32
42 36 45 3 3 25 31 48 63 24 31 47 57 52 57 5 0 9 5 9 10 0 6 8 18 18 28 9 11
49 61 87 112 39 51 78 101 88 112 9 10 17 21 17 24 0 4 8 13 18 20 14 11 -7
13 -139 14 -154 0 -157 0 -172 -24 -9 -13 -22 -29 -29 -37 -7 -8 -54 -66 -103
-129 -49 -63 -95 -121 -102 -128 -7 -7 -27 -33 -44 -57 -18 -25 -36 -45 -40
-45 -4 0 -36 38 -71 85 -34 47 -66 85 -70 85 -5 0 -8 7 -8 15 0 8 -4 15 -8 15
-5 0 -39 41 -78 92 -105 140 -81 128 -256 128 l-151 0 19 -22z"/>
</g>
</svg>
