<svg xmlns="http://www.w3.org/2000/svg" xmlns:xlink="http://www.w3.org/1999/xlink" width="114" zoomAndPan="magnify" viewBox="0 0 85.5 64.499998" height="86" preserveAspectRatio="xMidYMid meet" version="1.0"><path fill="#ffffff" d="M 34.363281 35.609375 C 34.335938 36.539062 34.476562 37.441406 34.785156 38.316406 C 35.097656 39.191406 35.558594 39.984375 36.164062 40.6875 C 36.746094 41.339844 37.414062 41.882812 38.171875 42.320312 C 38.925781 42.804688 39.726562 43.191406 40.574219 43.488281 C 41.441406 43.792969 42.328125 44.023438 43.234375 44.175781 C 45.210938 44.484375 47.183594 44.46875 49.15625 44.125 C 50.160156 43.9375 51.148438 43.683594 52.121094 43.371094 C 53.085938 43.050781 54.03125 42.675781 54.957031 42.246094 L 57.832031 40.820312 L 57.832031 49.9375 C 56.773438 50.457031 55.691406 50.917969 54.582031 51.316406 L 51.324219 52.308594 C 50.222656 52.582031 49.109375 52.78125 47.980469 52.902344 C 46.8125 53.03125 45.644531 53.09375 44.46875 53.09375 C 42.886719 53.09375 41.332031 52.910156 39.796875 52.535156 C 38.320312 52.175781 36.910156 51.640625 35.5625 50.9375 C 34.25 50.242188 33.046875 49.398438 31.949219 48.398438 C 30.847656 47.402344 29.90625 46.273438 29.121094 45.011719 C 28.328125 43.738281 27.71875 42.382812 27.292969 40.941406 C 26.863281 39.410156 26.648438 37.851562 26.660156 36.261719 C 26.648438 34.53125 26.890625 32.839844 27.378906 31.183594 C 27.855469 29.601562 28.554688 28.128906 29.480469 26.761719 C 30.40625 25.398438 31.511719 24.199219 32.804688 23.175781 C 34.15625 22.113281 35.632812 21.265625 37.230469 20.636719 C 36.316406 21.550781 35.625 22.613281 35.148438 23.816406 C 34.65625 25.003906 34.332031 26.234375 34.183594 27.507812 L 49.511719 27.507812 C 49.539062 26.136719 49.378906 24.785156 49.039062 23.453125 C 48.769531 22.367188 48.261719 21.410156 47.515625 20.574219 C 46.757812 19.777344 45.855469 19.214844 44.808594 18.882812 C 43.5 18.46875 42.164062 18.277344 40.792969 18.308594 C 38.902344 18.316406 37.050781 18.601562 35.242188 19.152344 C 33.390625 19.703125 31.632812 20.464844 29.96875 21.441406 C 28.304688 22.429688 26.773438 23.589844 25.375 24.925781 C 24.007812 26.226562 22.832031 27.679688 21.84375 29.285156 C 22.042969 27.5 22.429688 25.757812 23.003906 24.054688 C 23.554688 22.425781 24.285156 20.878906 25.195312 19.417969 C 26.082031 18.007812 27.121094 16.71875 28.308594 15.558594 C 29.488281 14.386719 30.800781 13.390625 32.246094 12.570312 C 33.726562 11.738281 35.292969 11.105469 36.933594 10.671875 C 38.695312 10.269531 40.480469 10.066406 42.285156 10.0625 C 43.390625 10.066406 44.488281 10.164062 45.578125 10.359375 C 46.664062 10.570312 47.734375 10.851562 48.785156 11.207031 C 50.796875 11.886719 52.648438 12.878906 54.328125 14.175781 C 55.949219 15.410156 57.335938 16.863281 58.484375 18.542969 C 59.613281 20.246094 60.460938 22.078125 61.023438 24.039062 C 61.601562 26.074219 61.882812 28.152344 61.871094 30.265625 L 61.871094 35.609375 Z M 34.363281 35.609375 " fill-opacity="1" fill-rule="nonzero"/></svg>