<svg xmlns="http://www.w3.org/2000/svg" xmlns:xlink="http://www.w3.org/1999/xlink" width="124" zoomAndPan="magnify" viewBox="0 0 93 69.749997" height="93" preserveAspectRatio="xMidYMid meet" version="1.0"><path fill="#ffffff" d="M 12.585938 24.558594 C 1.28125 27.058594 2.300781 42.90625 13.882812 44.480469 L 14.625 44.574219 L 14.625 41.699219 L 13.605469 41.515625 C 9.710938 40.867188 7.023438 37.253906 7.671875 33.359375 C 8.324219 29.46875 11.9375 26.78125 15.828125 27.429688 C 18.980469 27.894531 21.480469 30.488281 21.851562 33.636719 L 21.945312 34.472656 L 24.816406 34.472656 L 24.816406 34.007812 C 24.816406 28.171875 18.421875 23.257812 12.585938 24.558594 M 24.816406 25.761719 L 24.816406 27.246094 L 25.742188 27.335938 C 29.726562 27.894531 32.414062 31.507812 31.953125 35.492188 C 31.765625 36.605469 31.394531 37.714844 30.65625 38.640625 C 26.761719 44.015625 18.792969 41.792969 17.679688 35.027344 L 17.589844 34.378906 L 14.808594 34.378906 L 14.902344 35.492188 C 15.457031 42.8125 24.074219 46.890625 30.375 42.90625 C 38.34375 37.714844 35.378906 25.484375 25.835938 24.371094 L 24.816406 24.277344 L 24.816406 25.761719 M 42.699219 28.355469 C 41.125 28.820312 40.011719 30.300781 40.011719 31.96875 C 40.011719 34.007812 40.847656 34.75 44.648438 35.863281 C 46.5 36.417969 46.964844 36.789062 46.964844 37.625 C 46.964844 39.199219 44.367188 39.382812 41.867188 38.085938 L 40.753906 37.53125 C 40.292969 38.179688 39.921875 38.828125 39.734375 39.660156 C 40.753906 40.308594 41.867188 40.773438 43.070312 41.050781 C 47.332031 41.980469 50.578125 39.753906 49.652344 36.417969 C 49.1875 34.9375 48.351562 34.378906 45.386719 33.453125 C 43.164062 32.804688 42.699219 32.527344 42.699219 31.601562 C 42.699219 30.210938 44.925781 29.839844 47.054688 30.859375 L 48.167969 31.414062 C 48.261719 31.414062 48.539062 31.042969 48.816406 30.488281 L 49.28125 29.46875 L 48.722656 29.097656 C 46.777344 28.171875 44.738281 27.894531 42.699219 28.355469 M 53.820312 31.230469 C 53.171875 32.988281 51.96875 35.863281 51.226562 37.714844 L 49.929688 41.050781 L 52.617188 41.050781 L 53.726562 37.902344 L 58.359375 37.902344 L 58.917969 39.382812 L 59.472656 40.867188 L 62.160156 40.867188 L 59.660156 34.472656 C 58.269531 30.949219 57.15625 28.078125 57.15625 27.984375 C 56.785156 27.894531 56.507812 27.894531 56.136719 27.894531 L 55.117188 27.894531 L 53.820312 31.230469 M 63.363281 34.566406 L 63.363281 41.050781 L 65.960938 41.050781 L 65.960938 32.898438 L 69.109375 38.828125 L 70.59375 38.828125 L 73.742188 32.898438 L 73.742188 41.050781 L 76.429688 41.050781 L 76.429688 28.078125 L 73.742188 28.078125 L 71.890625 31.691406 C 70.871094 33.636719 69.945312 35.304688 69.945312 35.304688 C 69.945312 35.304688 69.015625 33.730469 67.996094 31.691406 L 66.144531 28.078125 L 63.363281 28.078125 L 63.363281 34.566406 M 79.023438 34.566406 L 79.023438 41.050781 L 88.199219 41.050781 L 88.199219 38.921875 L 81.710938 38.921875 L 81.710938 28.078125 L 79.023438 28.078125 L 79.023438 34.566406 M 56.972656 33.453125 C 57.992188 36.324219 58.082031 36.046875 55.953125 36.046875 L 54.285156 36.046875 L 55.210938 33.546875 C 55.671875 32.15625 56.136719 31.042969 56.136719 31.042969 C 56.136719 31.042969 56.507812 32.15625 56.972656 33.453125 " fill-opacity="1" fill-rule="evenodd"/></svg>