<svg xmlns="http://www.w3.org/2000/svg" xmlns:xlink="http://www.w3.org/1999/xlink" width="105" zoomAndPan="magnify" viewBox="0 0 78.75 59.249999" height="79" preserveAspectRatio="xMidYMid meet" version="1.0"><path fill="#ffffff" d="M 47.046875 6.78125 C 46.199219 7.089844 45.351562 7.320312 44.425781 7.472656 C 43.8125 7.550781 43.273438 7.628906 42.734375 7.859375 C 41.886719 8.167969 41.578125 8.167969 40.574219 7.550781 C 39.113281 6.703125 39.1875 6.703125 37.417969 8.089844 L 35.878906 9.246094 L 34.875 8.242188 C 33.488281 6.859375 33.257812 6.933594 33.335938 8.9375 C 33.414062 10.167969 33.105469 11.402344 32.488281 12.480469 C 31.179688 15.558594 30.640625 18.871094 30.792969 22.261719 C 31.101562 26.496094 30.023438 26.34375 27.558594 21.722656 C 26.789062 20.257812 25.554688 19.410156 23.089844 18.640625 C 22.320312 18.332031 21.628906 17.792969 21.089844 17.101562 C 20.703125 16.5625 20.242188 16.175781 19.625 16.023438 C 19.238281 15.945312 18.855469 15.714844 18.546875 15.40625 C 17.699219 14.480469 17.546875 14.714844 17.621094 16.484375 L 17.699219 18.179688 L 15.542969 19.257812 L 13.386719 20.414062 L 13.386719 23.957031 L 10.613281 26.957031 C 7.453125 30.425781 7.378906 30.808594 9.378906 30.808594 C 9.84375 30.886719 10.304688 31.117188 10.613281 31.425781 C 11.460938 32.117188 12.152344 32.195312 12.382812 31.578125 C 12.847656 31.039062 13.464844 30.65625 14.15625 30.347656 C 20.164062 27.652344 22.859375 31.503906 21.472656 40.667969 L 21.164062 43.285156 L 54.980469 43.285156 L 54.824219 42.207031 C 53.054688 31.964844 58.058594 25.417969 64.144531 30.039062 C 65.300781 30.964844 65.917969 30.964844 67.226562 30.039062 C 68.765625 28.960938 68.691406 28.808594 64.609375 24.339844 C 63.144531 22.722656 63.066406 22.644531 63.222656 21.335938 L 63.453125 19.949219 L 61.449219 18.796875 C 58.136719 16.871094 58.292969 17.101562 58.984375 15.636719 C 59.984375 13.636719 59.910156 13.636719 57.597656 14.25 C 55.75 14.789062 54.980469 15.328125 54.902344 16.175781 C 54.824219 16.636719 54.441406 16.871094 53.363281 17.101562 C 49.894531 17.871094 47.894531 19.566406 46.660156 22.800781 C 45.8125 24.878906 44.65625 26.804688 44.195312 26.804688 C 44.042969 26.804688 43.117188 25.265625 42.269531 23.417969 C 39.035156 16.871094 40.269531 13.402344 46.816406 10.324219 C 49.046875 9.246094 49.355469 8.859375 49.203125 6.933594 L 48.894531 6.164062 L 47.046875 6.78125 M 39.113281 9.246094 C 39.113281 9.9375 37.339844 11.246094 36.878906 10.9375 C 36.03125 10.246094 36.492188 9.707031 39.035156 8.9375 C 39.113281 8.9375 39.113281 9.089844 39.113281 9.246094 M 59.371094 19.566406 C 60.449219 20.875 60.449219 21.257812 59.371094 20.875 C 58.058594 20.414062 57.519531 19.71875 57.828125 19.101562 C 58.136719 18.488281 58.367188 18.410156 59.371094 19.566406 M 18.085938 20.644531 C 18.160156 21.183594 16.851562 22.03125 15.929688 22.03125 C 15.542969 22.03125 15.621094 21.796875 16.3125 21.027344 C 17.160156 19.949219 17.929688 19.796875 18.085938 20.644531 " fill-opacity="1" fill-rule="evenodd"/><path fill="#ffffff" d="M 20.78125 50.140625 L 55.519531 50.140625 L 55.519531 51.835938 L 20.78125 51.835938 Z M 20.78125 50.140625 " fill-opacity="1" fill-rule="nonzero"/><path fill="#ffffff" d="M 21.320312 44.75 L 22.167969 44.75 L 22.167969 46.90625 C 22.242188 46.753906 22.398438 46.519531 22.550781 46.367188 L 23.785156 44.75 L 24.863281 44.75 L 23.246094 46.753906 L 24.941406 49.449219 L 23.9375 49.449219 L 22.628906 47.292969 L 22.167969 47.753906 L 22.167969 49.371094 L 21.320312 49.371094 Z M 21.320312 44.75 " fill-opacity="1" fill-rule="nonzero"/><path fill="#ffffff" d="M 28.328125 47.367188 L 26.558594 47.367188 L 26.558594 48.753906 L 28.484375 48.753906 L 28.484375 49.449219 L 25.710938 49.449219 L 25.710938 44.75 L 28.40625 44.75 L 28.40625 45.441406 L 26.558594 45.441406 L 26.558594 46.675781 L 28.328125 46.675781 Z M 28.328125 47.367188 " fill-opacity="1" fill-rule="nonzero"/><path fill="#ffffff" d="M 29.636719 44.828125 C 30.101562 44.75 30.484375 44.671875 30.949219 44.671875 C 31.488281 44.597656 31.949219 44.75 32.410156 45.058594 C 32.640625 45.289062 32.796875 45.675781 32.796875 45.980469 C 32.796875 46.519531 32.488281 46.984375 31.949219 47.136719 C 32.335938 47.292969 32.566406 47.675781 32.566406 48.0625 C 32.640625 48.523438 32.796875 48.910156 32.949219 49.371094 L 32.101562 49.371094 C 31.949219 48.984375 31.871094 48.679688 31.796875 48.292969 C 31.640625 47.675781 31.410156 47.523438 30.949219 47.445312 L 30.484375 47.445312 L 30.484375 49.371094 L 29.636719 49.371094 Z M 30.484375 46.828125 L 31.023438 46.828125 C 31.640625 46.828125 31.949219 46.519531 31.949219 46.058594 C 31.949219 45.597656 31.5625 45.289062 31.023438 45.289062 C 30.871094 45.289062 30.640625 45.289062 30.484375 45.289062 Z M 30.484375 46.828125 " fill-opacity="1" fill-rule="nonzero"/><path fill="#ffffff" d="M 33.953125 44.828125 C 34.335938 44.75 34.800781 44.671875 35.183594 44.671875 C 35.644531 44.671875 36.109375 44.75 36.492188 44.980469 C 36.800781 45.136719 36.957031 45.519531 36.957031 45.828125 C 36.957031 46.289062 36.648438 46.675781 36.183594 46.828125 C 36.722656 46.90625 37.109375 47.445312 37.109375 47.984375 C 37.109375 48.371094 36.957031 48.679688 36.648438 48.984375 C 36.109375 49.292969 35.492188 49.449219 34.953125 49.449219 C 34.566406 49.449219 34.257812 49.449219 33.875 49.371094 Z M 34.800781 46.675781 L 35.261719 46.675781 C 35.878906 46.675781 36.183594 46.367188 36.183594 45.980469 C 36.183594 45.597656 35.878906 45.367188 35.339844 45.367188 C 35.183594 45.367188 35.03125 45.367188 34.875 45.367188 L 34.875 46.675781 Z M 34.800781 48.753906 C 34.953125 48.753906 35.105469 48.753906 35.261719 48.753906 C 35.800781 48.753906 36.261719 48.523438 36.261719 47.984375 C 36.261719 47.445312 35.800781 47.214844 35.183594 47.214844 L 34.800781 47.214844 Z M 34.800781 48.753906 " fill-opacity="1" fill-rule="nonzero"/><path fill="#ffffff" d="M 40.960938 47.367188 L 39.1875 47.367188 L 39.1875 48.753906 L 41.191406 48.753906 L 41.191406 49.449219 L 38.34375 49.449219 L 38.34375 44.75 L 41.039062 44.75 L 41.039062 45.441406 L 39.1875 45.441406 L 39.1875 46.675781 L 40.960938 46.675781 Z M 40.960938 47.367188 " fill-opacity="1" fill-rule="nonzero"/><path fill="#ffffff" d="M 42.269531 44.828125 C 42.734375 44.75 43.117188 44.671875 43.578125 44.671875 C 44.117188 44.597656 44.582031 44.75 45.042969 45.058594 C 45.351562 45.289062 45.429688 45.675781 45.429688 45.980469 C 45.429688 46.519531 45.121094 46.984375 44.582031 47.136719 C 44.964844 47.292969 45.199219 47.675781 45.199219 48.0625 C 45.273438 48.523438 45.429688 48.910156 45.582031 49.371094 L 44.734375 49.371094 C 44.582031 48.984375 44.503906 48.679688 44.425781 48.292969 C 44.273438 47.675781 44.042969 47.523438 43.578125 47.445312 L 43.117188 47.445312 L 43.117188 49.371094 L 42.269531 49.371094 Z M 43.117188 46.828125 L 43.65625 46.828125 C 44.273438 46.828125 44.582031 46.519531 44.582031 46.058594 C 44.582031 45.597656 44.195312 45.289062 43.65625 45.289062 C 43.503906 45.289062 43.273438 45.289062 43.117188 45.289062 Z M 43.117188 46.828125 " fill-opacity="1" fill-rule="nonzero"/><path fill="#ffffff" d="M 50.742188 47.058594 C 50.898438 48.292969 50.050781 49.371094 48.816406 49.523438 C 48.742188 49.523438 48.585938 49.523438 48.507812 49.523438 C 47.355469 49.523438 46.351562 48.601562 46.351562 47.367188 C 46.351562 47.292969 46.351562 47.214844 46.351562 47.136719 C 46.277344 45.90625 47.199219 44.828125 48.433594 44.671875 C 48.507812 44.671875 48.585938 44.671875 48.585938 44.671875 C 49.742188 44.671875 50.742188 45.597656 50.742188 46.828125 C 50.742188 46.90625 50.742188 46.984375 50.742188 47.058594 Z M 47.277344 47.136719 C 47.277344 48.0625 47.738281 48.832031 48.585938 48.832031 C 49.433594 48.832031 49.894531 48.0625 49.894531 47.058594 C 49.894531 46.058594 49.433594 45.367188 48.585938 45.367188 C 47.738281 45.367188 47.277344 46.136719 47.277344 47.136719 Z M 47.277344 47.136719 " fill-opacity="1" fill-rule="nonzero"/><path fill="#ffffff" d="M 51.820312 48.523438 C 52.207031 48.679688 52.589844 48.832031 52.976562 48.832031 C 53.515625 48.832031 53.824219 48.601562 53.824219 48.214844 C 53.824219 47.832031 53.59375 47.675781 52.976562 47.445312 C 52.207031 47.136719 51.667969 46.753906 51.667969 46.058594 C 51.667969 45.367188 52.285156 44.671875 53.363281 44.671875 C 53.746094 44.671875 54.132812 44.75 54.515625 44.902344 L 54.285156 45.597656 C 53.976562 45.441406 53.671875 45.367188 53.363281 45.367188 C 52.824219 45.367188 52.589844 45.675781 52.589844 45.90625 C 52.589844 46.136719 52.824219 46.445312 53.515625 46.675781 C 54.285156 46.984375 54.75 47.367188 54.75 48.0625 C 54.75 48.753906 54.210938 49.449219 52.976562 49.449219 C 52.515625 49.449219 52.128906 49.371094 51.746094 49.140625 Z M 51.820312 48.523438 " fill-opacity="1" fill-rule="nonzero"/></svg>