<svg xmlns="http://www.w3.org/2000/svg" xmlns:xlink="http://www.w3.org/1999/xlink" width="114" zoomAndPan="magnify" viewBox="0 0 85.5 64.499998" height="86" preserveAspectRatio="xMidYMid meet" version="1.0"><path fill="#ffffff" d="M 64.035156 33.125 C 64.03125 29.695312 63.207031 26.472656 61.5625 23.460938 C 68.324219 8.25 54.347656 10.488281 53.519531 10.488281 C 50.671875 11.046875 47.933594 11.9375 45.296875 13.15625 C 35.84375 13.046875 27.621094 18.09375 24.949219 28.605469 C 29.878906 23.050781 33.378906 20.789062 35.449219 19.96875 C 35.015625 20.355469 34.582031 20.742188 34.148438 21.183594 C 31.046875 24.234375 28.304688 27.582031 25.929688 31.226562 C 24.175781 34.316406 22.230469 36.980469 21.203125 40.496094 C 15.628906 60.65625 33.128906 52.210938 35.570312 50.789062 C 38.359375 52.167969 41.308594 52.84375 44.417969 52.820312 C 45.433594 52.820312 46.445312 52.742188 47.449219 52.589844 C 48.453125 52.433594 49.441406 52.203125 50.410156 51.898438 C 51.378906 51.589844 52.320312 51.210938 53.230469 50.761719 C 54.144531 50.3125 55.015625 49.792969 55.847656 49.210938 C 56.679688 48.625 57.460938 47.980469 58.195312 47.277344 C 58.925781 46.574219 59.601562 45.816406 60.21875 45.007812 C 60.835938 44.203125 61.386719 43.351562 61.875 42.460938 C 62.363281 41.566406 62.777344 40.640625 63.121094 39.6875 L 52.636719 39.6875 C 47.703125 47.496094 35.988281 44.003906 35.570312 35.574219 L 63.949219 35.574219 C 64.050781 34.753906 64.105469 33.929688 64.113281 33.105469 Z M 60.308594 13.578125 C 62.011719 14.730469 63.402344 16.453125 61.027344 22.628906 C 59.933594 20.773438 58.554688 19.15625 56.894531 17.78125 C 55.234375 16.40625 53.390625 15.355469 51.363281 14.621094 C 53.21875 13.734375 57.738281 11.949219 60.410156 13.578125 Z M 23.921875 50.804688 C 22.523438 49.390625 22.3125 45.875 25.359375 39.5 C 26.121094 41.710938 27.246094 43.714844 28.730469 45.519531 C 30.214844 47.324219 31.96875 48.8125 33.988281 49.984375 C 31.996094 51.074219 26.792969 53.476562 23.945312 50.664062 Z M 35.449219 30.246094 C 35.601562 25.726562 39.558594 22.023438 44.496094 22.023438 C 45.058594 22.011719 45.617188 22.050781 46.175781 22.144531 C 46.730469 22.238281 47.273438 22.382812 47.800781 22.578125 C 48.328125 22.777344 48.832031 23.019531 49.316406 23.316406 C 49.796875 23.609375 50.246094 23.945312 50.664062 24.324219 C 51.078125 24.703125 51.457031 25.117188 51.792969 25.570312 C 52.132812 26.019531 52.421875 26.5 52.667969 27.007812 C 52.914062 27.515625 53.113281 28.039062 53.257812 28.585938 C 53.402344 29.128906 53.496094 29.683594 53.535156 30.246094 Z M 35.449219 30.246094 " fill-opacity="1" fill-rule="nonzero"/></svg>