<svg xmlns="http://www.w3.org/2000/svg" xmlns:xlink="http://www.w3.org/1999/xlink" width="114" zoomAndPan="magnify" viewBox="0 0 85.5 63.749998" height="85" preserveAspectRatio="xMidYMid meet" version="1.0"><path stroke-linecap="round" transform="matrix(0.842573, 0, 0, 0.845058, -0.000000000000021192, 0.0610455)" fill-opacity="1" fill="#ffffff" fill-rule="nonzero" stroke-linejoin="round" d="M 53.301228 30.200273 C 52.897887 30.399039 52.499183 30.597805 52.100478 30.898265 L 51.099081 31.600879 L 51.099081 40.499121 C 51.099081 48.500605 51.201075 49.799517 51.497785 49.799517 C 51.497785 49.799517 52.601177 49.198597 53.801927 48.398911 L 53.801927 48.301839 C 60.501089 44.10002 61.701839 43.300334 61.799197 42.999874 C 61.901191 42.500648 61.901191 41.899727 61.901191 41.298807 L 61.998549 39.999895 L 58.600289 36.001464 C 54.99804 31.697951 53.597938 30.200273 53.301228 30.200273 Z M 53.301228 30.200273 " stroke="#ffffff" stroke-width="0.19" stroke-opacity="1" stroke-miterlimit="4"/><path stroke-linecap="round" transform="matrix(0.842573, 0, 0, 0.845058, -0.000000000000021192, 0.0610455)" fill-opacity="1" fill="#ffffff" fill-rule="nonzero" stroke-linejoin="round" d="M 49.499627 31.499185 L 48.998928 30.801193 C 48.799576 30.500733 48.600224 30.301967 48.400871 30.098579 C 48.201519 30.098579 38.09946 39.301903 38.09946 39.398975 C 38.201454 39.699435 38.298812 40.101589 38.400806 40.402049 C 38.600159 40.901275 38.702153 41.502196 38.702153 42.098493 C 38.702153 42.500648 38.702153 42.999874 38.702153 43.101568 C 38.702153 43.4991 42.100413 45.597698 47.098128 48.500605 C 48.49823 49.300291 48.998928 49.499057 49.100922 49.401985 C 49.300275 49.300291 49.300275 47.502153 49.300275 40.300355 L 49.300275 40.402049 L 49.300275 31.499185 Z M 49.499627 31.499185 " stroke="#ffffff" stroke-width="0.19" stroke-opacity="1" stroke-miterlimit="4"/><path stroke-linecap="round" transform="matrix(0.842573, 0, 0, 0.845058, -0.000000000000021192, 0.0610455)" fill-opacity="1" fill="#ffffff" fill-rule="nonzero" stroke-linejoin="round" d="M 65.202093 25.799688 C 57.200187 16.300526 50.700376 8.400737 50.598382 8.299043 C 50.501024 8.201971 50.39903 8.100277 50.39903 8.100277 C 50.301672 8.100277 50.301672 8.201971 50.301672 8.299043 C 50.301672 8.400737 43.801861 16.198832 35.799955 25.697994 C 27.798048 35.201778 21.298238 42.898179 21.298238 42.999874 C 21.298238 43.101568 27.798048 48.398911 35.697961 54.898094 C 43.597873 61.401899 50.199678 66.699242 50.301672 66.898008 C 50.39903 67.101397 50.501024 67.101397 51.001723 66.699242 C 51.298433 66.500476 57.900238 61.101439 65.600798 54.801022 C 73.301358 48.500605 79.601816 43.300334 79.699174 43.300334 C 79.601816 43.198639 73.102006 35.29885 65.202093 25.799688 Z M 66.101497 46.198618 C 65.299452 46.198618 64.599401 45.999852 64.001344 45.597698 C 63.598003 45.30186 63.101941 45.098472 62.601242 45.098472 C 62.197901 45.200166 56.500136 49.101525 55.202028 50.201671 C 54.399983 50.797969 54.399983 51.098429 54.798688 51.999809 C 55.202028 53.099956 55.100034 54.301796 54.70133 55.300248 C 54.098637 56.400394 53.101876 57.20008 51.998484 57.602235 C 51.201075 57.898072 50.199678 57.898072 49.402269 57.602235 C 48.400871 57.20008 47.501468 56.400394 46.898775 55.499014 C 46.300719 54.200102 46.398077 52.697801 47.00077 51.398889 C 47.501468 50.400437 47.501468 50.400437 47.200122 50.099977 C 46.898775 49.799517 44.997975 48.801065 42.601112 47.599224 L 38.002102 45.098472 C 37.798113 45.0014 37.501403 45.098472 36.89871 45.500626 C 35.299256 46.697844 33.101745 46.499078 31.701644 45.098472 C 30.700246 44.40048 30.199548 43.198639 30.301542 42.001422 C 30.199548 40.901275 30.598252 39.801129 31.502291 39.001443 C 32.601047 37.799603 34.297859 37.402071 35.901949 37.901297 C 36.699358 38.201757 36.801352 38.201757 37.302051 37.799603 C 37.798113 37.402071 42.897822 32.798097 45.299321 30.500733 L 47.00077 28.901361 L 46.500071 27.898286 C 45.498674 25.901382 45.999372 23.40063 47.798179 22.101718 C 48.702218 21.399103 49.800973 21.001571 50.899729 21.098643 C 53.50058 21.098643 55.600733 23.298936 55.498739 25.901382 C 55.498739 26.502303 55.401381 27.001529 55.202028 27.597826 C 54.900682 28.402135 54.900682 28.499207 55.202028 28.998433 C 55.498739 29.502281 60.000391 34.901318 62.40189 37.697908 C 62.6986 38.100063 62.999947 38.400523 63.398651 38.599289 C 63.801992 38.502217 64.200696 38.400523 64.599401 38.298829 C 66.699553 37.300376 69.300405 38.298829 70.199808 40.402049 C 71.001853 42.098493 70.501154 44.10002 69.101053 45.30186 C 68.299007 45.801086 67.200252 46.300312 66.101497 46.198618 Z M 66.101497 46.198618 " stroke="#ffffff" stroke-width="0.19" stroke-opacity="1" stroke-miterlimit="4"/></svg>