<svg xmlns="http://www.w3.org/2000/svg" xmlns:xlink="http://www.w3.org/1999/xlink" width="171" zoomAndPan="magnify" viewBox="0 0 128.25 95.999999" height="128" preserveAspectRatio="xMidYMid meet" version="1.0"><defs><clipPath id="940f3b8272"><path d="M 38.707031 15.46875 L 86.085938 15.46875 L 86.085938 73.761719 L 38.707031 73.761719 Z M 38.707031 15.46875 " clip-rule="nonzero"/></clipPath></defs><g clip-path="url(#940f3b8272)"><path fill="#ffffff" d="M 70.953125 24.757812 C 72.046875 23.46875 72.859375 22.023438 73.382812 20.414062 C 73.90625 18.804688 74.105469 17.15625 73.980469 15.46875 C 72.320312 15.625 70.75 16.082031 69.269531 16.839844 C 67.785156 17.597656 66.496094 18.601562 65.402344 19.855469 C 64.300781 21.085938 63.480469 22.480469 62.945312 24.039062 C 62.410156 25.601562 62.203125 27.203125 62.320312 28.851562 C 63.148438 28.863281 63.96875 28.777344 64.777344 28.601562 C 65.589844 28.425781 66.367188 28.15625 67.117188 27.800781 C 67.863281 27.445312 68.5625 27.007812 69.210938 26.488281 C 69.859375 25.972656 70.4375 25.386719 70.953125 24.738281 M 78.277344 46.34375 C 78.28125 47.597656 78.464844 48.824219 78.832031 50.027344 C 79.195312 51.226562 79.722656 52.351562 80.417969 53.398438 C 81.113281 54.441406 81.941406 55.367188 82.90625 56.167969 C 83.871094 56.972656 84.929688 57.617188 86.085938 58.109375 C 85.144531 61.0625 83.800781 63.824219 82.0625 66.390625 C 79.625 69.933594 77.117188 73.464844 73.144531 73.539062 C 69.175781 73.617188 68 71.257812 63.550781 71.257812 C 59.097656 71.257812 57.703125 73.453125 54.019531 73.640625 C 50.332031 73.824219 47.273438 69.8125 44.828125 66.28125 C 39.828125 59.054688 36.054688 45.871094 41.144531 36.964844 C 41.746094 35.886719 42.476562 34.902344 43.335938 34.015625 C 44.195312 33.125 45.152344 32.363281 46.210938 31.722656 C 47.269531 31.085938 48.390625 30.589844 49.574219 30.242188 C 50.761719 29.894531 51.972656 29.703125 53.207031 29.671875 C 56.96875 29.59375 60.523438 32.207031 62.8125 32.207031 C 65.105469 32.207031 69.394531 29.078125 73.957031 29.53125 C 75.007812 29.566406 76.039062 29.726562 77.050781 30.003906 C 78.0625 30.28125 79.03125 30.671875 79.953125 31.171875 C 80.875 31.671875 81.730469 32.273438 82.515625 32.972656 C 83.296875 33.671875 83.992188 34.449219 84.59375 35.308594 C 83.644531 35.886719 82.78125 36.574219 82.007812 37.371094 C 81.230469 38.167969 80.566406 39.046875 80.015625 40.011719 C 79.464844 40.976562 79.039062 41.996094 78.746094 43.066406 C 78.453125 44.140625 78.296875 45.230469 78.277344 46.34375 " fill-opacity="1" fill-rule="nonzero"/></g></svg>