<svg id="Layer_1" data-name="Layer 1" xmlns="http://www.w3.org/2000/svg" viewBox="0 0 100 75"><defs><style>.cls-1,.cls-3{fill:#243353;}.cls-1{fill-rule:evenodd;}.cls-2,.cls-4{fill:none;stroke:#243353;}.cls-2{stroke-width:2.7px;}.cls-4{stroke-width:0.91px;}</style></defs><g id="layer1"><g id="g11645"><path id="path10963" class="cls-1" d="M3.53,20.33C3.59,22,4.93,23.22,6.27,24c4.11,2.25,8.89,2.61,13.4,3.52a38.8,38.8,0,0,1,6.4,1.56c.57.27-.22.05-.47,0-3.68-.89-7.48-1.09-11.21-1.74a21.56,21.56,0,0,1-6.54-2.14c-.4-.2-.22,0-.12.2A8,8,0,0,0,12,28.19a45.2,45.2,0,0,0,8.53,1.12,36.67,36.67,0,0,1,7.1.88c.2.16.26.36-.15.2-3.67-.72-7.42-.51-11.12-.69a20.31,20.31,0,0,1-4.32-.95c0,.2.45.5.7.78,1.93,1.55,4.56,1.63,6.93,1.61,2.89,0,5.8-.2,8.68,0,.35.51-.28.34-.64.28a68.63,68.63,0,0,0-8.11.3,14.71,14.71,0,0,1-5-.54c-.35,0,.13.36.27.53,1.41,1.38,3.56,1.36,5.4,1.17,2.25-.15,4.47-.56,6.72-.74h1.67c.15.57-.62.23-.95.32-2.33.09-4.6.76-6.92,1a11.26,11.26,0,0,1-4-.16c-.38-.14,0,.19.09.28a4.24,4.24,0,0,0,3.5,1.43c2.3,0,4.42-1,6.62-1.58.35-.23,2.35-.4,1.31,0-2.29.57-4.41,1.72-6.76,2.07a16.15,16.15,0,0,1-2,.06,10.57,10.57,0,0,0,1.21,1.18,3.41,3.41,0,0,0,4.17.67,27.93,27.93,0,0,0,3-2.73c.27-.33.2.09,0,.3a19.88,19.88,0,0,0-2.06,3c-.25.78-.09,1.84.65.91l3-2.35c.53-1.91,1.87-3.65,1.64-5.72a4.08,4.08,0,0,0-2.87-3.25,36.67,36.67,0,0,0-6.81-1.44C17,25.41,12.38,25,8.06,23.42a9.07,9.07,0,0,1-4.44-3l-.09-.08Z"/><path id="path10989" class="cls-1" d="M97,20.22c-1.42,2.17-4,3-6.4,3.76-4.54,1.28-9.26,1.76-13.89,2.6-2.09.38-4.35.61-6.09,1.93-1.53,1.15-1.56,3.34-.9,5,.39,1,.91,2.06,1.24,3.11l3.65,2.84c.56-1.37-.71-2.48-1.4-3.51a14.64,14.64,0,0,1-.93-1.39,15.52,15.52,0,0,1,1.37,1.29c1,1,2.3,2.47,4,2.07a6.78,6.78,0,0,0,3.16-2.12c.33-.25-.32-.13-.57-.16-2.07.06-4-.82-5.94-1.47a11.56,11.56,0,0,0-2.38-.68c-.2-.54.64-.09.94-.11,2.43.53,4.74,1.65,7.25,1.75a4.63,4.63,0,0,0,3.69-1.68c.32-.28-.84.17-1.07.11-2.33.33-4.62-.35-6.92-.65a26.42,26.42,0,0,0-4-.38c-.16-.53.5-.25.8-.32,3.43,0,6.81,1,10.24.75a4.12,4.12,0,0,0,3-1.51c.34-.51-1.12.19-1.45.13-4.09.72-8.21-.54-12.3,0-.4-.05.12-.56.43-.4,3.8-.28,7.62.25,11.41-.18a6.41,6.41,0,0,0,4.35-2.05c.24-.37-.8.16-1,.17-4.43,1.25-9.12.21-13.6,1.2a5,5,0,0,1-1.07.15c.1-.22.38-.31.73-.36,5-1.13,10.12-.55,15-1.84a7.76,7.76,0,0,0,4.49-3.11c-.65.16-1.58.78-2.36,1-3.54,1.41-7.4,1.45-11.11,2.12a36.85,36.85,0,0,0-5.23,1c.22-.23.79-.3,1.16-.48a69.77,69.77,0,0,1,7.85-1.67c3.93-.72,8-1.27,11.53-3.39A4.62,4.62,0,0,0,97,20.22Z"/><path id="path11031" class="cls-2" d="M50.25,24.38,83.08,50H17.42Z"/><g id="text11601"><path id="path11603" class="cls-3" d="M35.93,49.37l-1.06-2.46H30.1L29,49.37h-2.7L31.26,38h2.46l4.91,11.39Zm-3.44-8-1.43,3.31h2.85Z"/><path id="path11605" class="cls-3" d="M42.81,45.47l2.73-16,2.59-2-4.31,21.9h-2l-4.31-14,2.59-1.64Z"/><path id="path11607" class="cls-3" d="M58.09,35.58c0,3.31-.68,5.44-2,6.41l2.72,7.38h-3l-2.38-6.59H51.79v6.59h-2.4V25.53l4.07.82c1.63.33,2.85,2.92,3.56,4a9.78,9.78,0,0,1,1.07,5.22ZM53.54,38.8A1.78,1.78,0,0,0,55.21,38a5,5,0,0,0,.44-2.42,20.43,20.43,0,0,0-.28-3.88c-.2-1-.2-1.36-1.79-2.23l-1.79-1V38.8Z"/><path id="path11609" class="cls-3" d="M69.57,43.36a3.89,3.89,0,0,0-1-2.72,3.36,3.36,0,0,0-5,0,4.11,4.11,0,0,0,0,5.42,3.4,3.4,0,0,0,5,0A3.88,3.88,0,0,0,69.57,43.36Zm.9,4.36a6.48,6.48,0,0,1-8.86,0,6.2,6.2,0,0,1,0-8.74,6.43,6.43,0,0,1,8.86,0,6.2,6.2,0,0,1,0,8.74Z"/></g><path id="path11031-6" class="cls-4" d="M50.25,20.81,89.94,51.74H10.56Z"/><g id="text11632"><path id="path11647" class="cls-3" d="M91.1,49.69V51.1h-.28V49.69h-.51v-.26h1.3v.26Z"/><path id="path11649" class="cls-3" d="M92.19,51.1h-.28V49.43h.44l.5,1,.51-1h.44V51.1h-.29V49.79L92.93,51h-.16l-.58-1.16Z"/></g></g></g></svg>