<svg id="Layer_1" data-name="Layer 1" xmlns="http://www.w3.org/2000/svg" viewBox="0 0 100 75"><defs><style>.cls-1{fill:#0e91bb;}.cls-2{fill:#f16900;}.cls-3{fill:#77cefa;}.cls-4{fill:#fff;}</style></defs><g id="Page-1"><g id="Group"><g id="_3forge" data-name=" 3forge"><path class="cls-1" d="M44.52,60.28a4.84,4.84,0,0,1-.33,1.81,3.66,3.66,0,0,1-1.47,1.82,4.72,4.72,0,0,1-4.83,0A3.84,3.84,0,0,1,36.41,62a5.05,5.05,0,0,1-.29-1.44.28.28,0,0,1,.23-.31h2a.31.31,0,0,1,.33.27v0a2.73,2.73,0,0,0,.18.8,1.37,1.37,0,0,0,.54.73,1.48,1.48,0,0,0,.88.27,1.41,1.41,0,0,0,1.4-.89A3.06,3.06,0,0,0,42,60.21a3.23,3.23,0,0,0-.29-1.4,1.41,1.41,0,0,0-1.4-.83,1.6,1.6,0,0,0-.83.34.41.41,0,0,1-.18,0,.3.3,0,0,1-.25-.12L38,57a.41.41,0,0,1-.07-.22.29.29,0,0,1,.11-.21l2.83-2.47a.07.07,0,0,0,0-.09s0,0-.09,0H36.66a.28.28,0,0,1-.31-.23V52a.28.28,0,0,1,.24-.31h7.46a.27.27,0,0,1,.31.23V53.8a.5.5,0,0,1-.17.38l-2.38,2.18c-.07.08,0,.13.08.15a3,3,0,0,1,2.27,1.87A4.76,4.76,0,0,1,44.52,60.28Z"/><path class="cls-1" d="M50.61,55.38V56.9a.27.27,0,0,1-.23.31H48.65a.09.09,0,0,0-.1.09v6.81a.27.27,0,0,1-.22.31.21.21,0,0,1-.11,0H46.3a.27.27,0,0,1-.31-.23V57.34a.1.1,0,0,0-.08-.11h-1a.27.27,0,0,1-.31-.23V55.38a.27.27,0,0,1,.23-.3h1S46,55,46,55v-.41a3.66,3.66,0,0,1,.35-1.75A1.88,1.88,0,0,1,47.45,52a6.26,6.26,0,0,1,2.15-.23h.6a.28.28,0,0,1,.31.23v1.36a.28.28,0,0,1-.24.31h-.58a1,1,0,0,0-1.13,1.17V55a.09.09,0,0,0,.08.11h1.68a.27.27,0,0,1,.3.24A.13.13,0,0,1,50.61,55.38Z"/><path class="cls-1" d="M51.89,63.76a3.93,3.93,0,0,1-1.49-2.17,6.46,6.46,0,0,1-.26-1.85,6.06,6.06,0,0,1,.28-1.93,3.87,3.87,0,0,1,1.49-2.1A4.37,4.37,0,0,1,54.53,55a4.21,4.21,0,0,1,2.55.76,3.86,3.86,0,0,1,1.48,2.09,6.07,6.07,0,0,1,.28,1.9,7.15,7.15,0,0,1-.24,1.84,4.06,4.06,0,0,1-4.08,3A4.26,4.26,0,0,1,51.89,63.76ZM55.52,62a2,2,0,0,0,.59-1,4.22,4.22,0,0,0,.16-1.27,5.05,5.05,0,0,0-.14-1.29,1.9,1.9,0,0,0-.6-1,1.55,1.55,0,0,0-1-.35,1.53,1.53,0,0,0-1,.35,1.9,1.9,0,0,0-.6,1,5.05,5.05,0,0,0-.14,1.29A5,5,0,0,0,52.88,61a2,2,0,0,0,.61,1,1.61,1.61,0,0,0,2,0Z"/><path class="cls-1" d="M64.93,55.18a.31.31,0,0,1,.17.38l-.35,1.91a.22.22,0,0,1-.1.2.57.57,0,0,1-.26,0,2.52,2.52,0,0,0-.54-.08,1.9,1.9,0,0,0-.42,0,1.81,1.81,0,0,0-1.1.48,1.49,1.49,0,0,0-.46,1.14v4.86a.27.27,0,0,1-.23.31h-2a.29.29,0,0,1-.32-.23V55.4a.27.27,0,0,1,.23-.31h2a.27.27,0,0,1,.31.23.11.11,0,0,1,0,.08v.54c0,.05,0,.08,0,.09S62,56,62,56a2.28,2.28,0,0,1,2-1.07A1.89,1.89,0,0,1,64.93,55.18Z"/><path class="cls-1" d="M70.7,55.09h2a.27.27,0,0,1,.3.24s0,.05,0,.07v8.19A3.92,3.92,0,0,1,71.59,67a5.6,5.6,0,0,1-3.5,1,10.24,10.24,0,0,1-1.36-.09c-.18,0-.28-.12-.28-.32l.08-1.69a.29.29,0,0,1,.1-.23.24.24,0,0,1,.24,0,10.38,10.38,0,0,0,1.11.09,2.78,2.78,0,0,0,1.79-.51,2,2,0,0,0,.63-1.61s0-.06,0-.07a.08.08,0,0,0-.09,0,2.56,2.56,0,0,1-2,.72,4.26,4.26,0,0,1-2.15-.56,3.21,3.21,0,0,1-1.4-1.85,7,7,0,0,1-.27-2.14,6.73,6.73,0,0,1,.32-2.31,3.64,3.64,0,0,1,1.29-1.77A3.48,3.48,0,0,1,68.17,55a2.76,2.76,0,0,1,2.14.82s.07.05.1,0a.1.1,0,0,0,0-.09V55.4a.29.29,0,0,1,.24-.31Zm-.3,4.59a8.44,8.44,0,0,0,0-.87,4,4,0,0,0-.13-.58,1.59,1.59,0,0,0-.53-.79,1.48,1.48,0,0,0-1-.3,1.44,1.44,0,0,0-.93.3,1.68,1.68,0,0,0-.54.79A3.49,3.49,0,0,0,67,59.7a3.42,3.42,0,0,0,.22,1.45,1.57,1.57,0,0,0,1.54,1.08,1.49,1.49,0,0,0,1.46-1A6,6,0,0,0,70.4,59.68Z"/><path class="cls-1" d="M80,61.57a.38.38,0,0,1,.24-.13.26.26,0,0,1,.2.1l1,1a.28.28,0,0,1,.11.22.34.34,0,0,1-.07.22,4.18,4.18,0,0,1-1.53,1.17,5,5,0,0,1-2,.42,4.36,4.36,0,0,1-2.77-.85,4.21,4.21,0,0,1-1.48-2.34,6.43,6.43,0,0,1-.22-1.69,7,7,0,0,1,.2-1.77,3.85,3.85,0,0,1,1.46-2.15,4.22,4.22,0,0,1,2.61-.82A3.76,3.76,0,0,1,80.51,56,5.25,5.25,0,0,1,81.86,59c0,.4.09.84.11,1.32a.28.28,0,0,1-.24.32H76.09c-.07,0-.11,0-.11.1a2.77,2.77,0,0,0,.13.57,1.46,1.46,0,0,0,.72.86,2.63,2.63,0,0,0,1.29.3A2.36,2.36,0,0,0,80,61.57Zm-3.27-4.13a1.37,1.37,0,0,0-.54.79c-.06.23-.1.38-.11.45s0,.11.09.11h3.09c.06,0,.09,0,.09-.07a1.25,1.25,0,0,0-.08-.42,1.52,1.52,0,0,0-1.58-1.14A1.57,1.57,0,0,0,76.68,57.44Z"/></g><rect id="Rectangle" class="cls-2" x="20.84" y="51.85" width="3.75" height="3.75" rx="0.83"/><rect id="Rectangle-2" class="cls-2" x="25.42" y="51.85" width="3.75" height="3.75" rx="0.83"/><rect id="Rectangle-3" class="cls-1" x="20.84" y="56.44" width="3.75" height="3.75" rx="0.83"/><rect id="Rectangle-4" class="cls-3" x="20.84" y="61.02" width="3.75" height="3.75" rx="0.83"/><rect id="Rectangle-5" class="cls-1" x="25.42" y="56.44" width="3.75" height="3.75" rx="0.83"/><rect id="Rectangle-6" class="cls-2" x="30" y="51.85" width="3.75" height="3.75" rx="0.83"/></g></g><path class="cls-1" d="M86.59,22.29l-.12.08q-.52.38-1.11.75l-.2.11c-.36.22-.74.43-1.13.62L83.7,24c-.45.22-.92.44-1.42.65l-.29.12c-.44.19-.89.36-1.36.53l-.38.14c-.55.2-1.11.38-1.69.57l-.39.11c-.5.16-1,.3-1.54.44l-.41.11c-.62.17-1.25.32-1.91.47l-.46.1c-.57.12-1.15.25-1.73.36l-.41.08c-.68.14-1.38.26-2.08.38l-.52.08-1.89.28-.38.06c-.73.1-1.47.19-2.21.27l-.57.07L62,29l-.28,0c-.77.07-1.54.12-2.31.18l-.57.05-2.21.12h-.18c-.79,0-1.58.06-2.36.07l-.58,0-2.38,0-2.38,0-.58,0-2.36-.07h-.18l-2.21-.12-.57,0c-.78-.05-1.55-.11-2.32-.18l-.28,0-2.06-.2-.56-.06-2.21-.28L35,28.46l-1.89-.28-.52-.09c-.7-.11-1.4-.24-2.08-.37l-.41-.08-1.73-.36-.46-.11c-.65-.14-1.29-.3-1.91-.46l-.41-.11c-.53-.14-1-.29-1.55-.44L23.68,26c-.57-.18-1.14-.36-1.68-.56l-.38-.14c-.47-.17-.92-.35-1.36-.53L20,24.69c-.5-.21-1-.43-1.43-.65l-.32-.17c-.39-.2-.77-.41-1.13-.62l-.2-.11c-.4-.25-.77-.5-1.11-.76l-.12-.08V38.79c0,3.86,13.49,9.25,35.46,9.25s35.47-5.39,35.47-9.25Z"/><path class="cls-3" d="M86.59,17.21C86.59,12.1,70.71,8,51.13,8S15.66,12.1,15.66,17.21s15.88,9.25,35.47,9.25S86.59,22.32,86.59,17.21Z"/><path class="cls-4" d="M36.83,42.8l-.5-1.61s0-.06-.07-.06h-4a.09.09,0,0,0-.08.06l-.49,1.61a.19.19,0,0,1-.2.15H30a.15.15,0,0,1-.13-.06.15.15,0,0,1,0-.15L33.14,32.6a.18.18,0,0,1,.19-.15h1.88a.18.18,0,0,1,.19.15l3.27,10.14a.14.14,0,0,1,0,.07c0,.09-.06.14-.17.14H37A.18.18,0,0,1,36.83,42.8Zm-4.08-3h3q.09,0,.06-.09l-1.54-5s0-.06-.05-.06,0,0,0,.06l-1.53,5Q32.67,39.77,32.75,39.77Z"/><path class="cls-4" d="M47.21,32.45h1.38a.17.17,0,0,1,.13,0,.19.19,0,0,1,.05.13V42.77a.17.17,0,0,1-.05.12.18.18,0,0,1-.13.06H47.21a.18.18,0,0,1-.13-.06.17.17,0,0,1,0-.12V35.61a.05.05,0,0,0,0-.06s0,0-.05,0l-1.88,2.88a.24.24,0,0,1-.21.12h-.69a.24.24,0,0,1-.21-.12L42.06,35.6s0,0-.05,0a.07.07,0,0,0,0,.06v7.14a.13.13,0,0,1,0,.12.16.16,0,0,1-.13.06H40.41a.21.21,0,0,1-.18-.18V32.63a.16.16,0,0,1,.06-.13.13.13,0,0,1,.12,0h1.38a.24.24,0,0,1,.21.12l2.45,3.7.06,0s0,0,0,0L47,32.57A.24.24,0,0,1,47.21,32.45Z"/><path class="cls-4" d="M51,42.89a.17.17,0,0,1,0-.12V32.63a.19.19,0,0,1,0-.13.17.17,0,0,1,.13,0h1.38a.17.17,0,0,1,.13,0,.19.19,0,0,1,.05.13V42.77a.17.17,0,0,1-.05.12.18.18,0,0,1-.13.06H51.14A.18.18,0,0,1,51,42.89Z"/><path class="cls-4" d="M57.94,42.89a.17.17,0,0,1,0-.12V32.63a.19.19,0,0,1,0-.13.17.17,0,0,1,.13,0h3.66a4.4,4.4,0,0,1,1.87.37,3,3,0,0,1,1.26,1.07,3,3,0,0,1,.44,1.63v4.35a3,3,0,0,1-.44,1.63,3,3,0,0,1-1.26,1.07,4.4,4.4,0,0,1-1.87.38H58.07A.18.18,0,0,1,57.94,42.89Zm1.76-1.44h2.1a1.64,1.64,0,0,0,1.27-.51,1.9,1.9,0,0,0,.49-1.34V35.81a1.88,1.88,0,0,0-.48-1.36,1.68,1.68,0,0,0-1.29-.5H59.7c-.05,0-.07,0-.07.07v7.35C59.63,41.42,59.65,41.45,59.7,41.45Z"/><path class="cls-4" d="M73,37.56a2.84,2.84,0,0,1,.58,4.64,3.88,3.88,0,0,1-2.48.75H67.34a.18.18,0,0,1-.13-.06.17.17,0,0,1,0-.12V32.63a.19.19,0,0,1,0-.13.17.17,0,0,1,.13,0H71a4,4,0,0,1,2.52.7,2.56,2.56,0,0,1,.88,2.13A2.2,2.2,0,0,1,73,37.47Q72.93,37.52,73,37.56ZM68.9,34V36.8c0,.05,0,.07.07.07h2a1.9,1.9,0,0,0,1.25-.38,1.3,1.3,0,0,0,.46-1.06,1.36,1.36,0,0,0-.46-1.09A1.85,1.85,0,0,0,71,34H69S68.9,34,68.9,34Zm3.46,7a1.48,1.48,0,0,0,.45-1.14,1.46,1.46,0,0,0-.46-1.15,1.85,1.85,0,0,0-1.26-.41H69s-.07,0-.07.08v3s0,.07.07.07h2.15A1.77,1.77,0,0,0,72.36,41Z"/></svg>