<svg id="Layer_1" data-name="Layer 1" xmlns="http://www.w3.org/2000/svg" viewBox="0 0 100 75"><defs><style>.cls-1{fill:#f6f6f7;}.cls-2{fill:#cfd0d3;}.cls-3{fill:#679246;}.cls-4{fill:#5d87a1;}</style></defs><path class="cls-1" d="M29.07,29.69V7.91a1.57,1.57,0,0,1,1.62-1.53H65a1.57,1.57,0,0,1,1.62,1.53V40.46A1.58,1.58,0,0,1,65,42H31a1.85,1.85,0,0,1-1.89-1.8V29.69"/><path class="cls-2" d="M66.64,7.27,56.05,23.37l-4.64-4.51L42.13,31.49l-4.61-5L29.07,31l.07,9.23A1.77,1.77,0,0,0,30.93,42H65a1.61,1.61,0,0,0,1.63-1.59V7.27"/><polygon class="cls-3" points="42.32 37.75 37.4 34.95 29.07 37.55 29.07 35.77 37.65 33.02 42.12 35.56 49.6 29.35 55.62 32.36 66.64 15.28 66.64 18.84 56.28 34.7 49.87 31.5 42.32 37.75"/><polygon class="cls-4" points="42.34 32.69 37.03 27.64 29.07 31.31 29.07 29.53 37.36 25.43 42.09 29.93 50.97 17.98 55.38 21.52 65.7 6.38 66.64 7.27 55.8 24.2 51.32 20.6 42.34 32.69"/><path d="M28.07,48h7.8v2.23H30.72v2.72h4.4v2.22h-4.4v4.56H28.07Z"/><path d="M38.23,48H42.4c2.49,0,4.53.86,4.53,3.66s-2,3.85-4.53,3.85H40.89v4.22H38.23Zm4,5.41c1.4,0,2.15-.61,2.15-1.75s-.75-1.55-2.15-1.55H40.89v3.3Zm1.57-.3,3.74,6.62h-3L41.91,54.8Z"/><path d="M49.44,48h7.78v2.23H52.1v2.35h4.35V54.8H52.1v2.7h5.3v2.22h-8Z"/><path d="M59.84,48h3.25c3.4,0,5.64,1.78,5.64,5.81s-2.24,5.92-5.49,5.92h-3.4Zm3.1,9.59c1.82,0,3.07-1,3.07-3.78s-1.25-3.67-3.07-3.67H62.5v7.45Z"/><path d="M22.25,64h2.19v.63H23v.66h1.22v.63H23v.76h1.49v.62H22.25Z"/><path d="M26.09,65.69A1.56,1.56,0,0,1,27.66,64a1.42,1.42,0,0,1,1,.42l-.41.46a.85.85,0,0,0-.58-.24c-.46,0-.81.4-.81,1.06s.35,1.08.84,1.08a.82.82,0,0,0,.6-.29l.41.45a1.36,1.36,0,0,1-1.08.48A1.53,1.53,0,0,1,26.09,65.69Z"/><path d="M30,65.66c0-1.11.54-1.7,1.32-1.7s1.33.59,1.33,1.7-.54,1.72-1.33,1.72S30,66.79,30,65.66Zm1.89,0c0-.69-.22-1.06-.57-1.06s-.56.37-.56,1.06.22,1.08.56,1.08S31.93,66.37,31.93,65.66Z"/><path d="M34.21,64H35l.69,1.64.28.73h0c0-.35-.1-.81-.1-1.2V64h.71v3.3h-.77l-.69-1.64L34.84,65h0c0,.36.1.8.1,1.19v1.17h-.71Z"/><path d="M38.1,65.66c0-1.11.54-1.7,1.33-1.7s1.32.59,1.32,1.7-.54,1.72-1.32,1.72S38.1,66.79,38.1,65.66Zm1.89,0c0-.69-.22-1.06-.56-1.06s-.57.37-.57,1.06.22,1.08.57,1.08S40,66.37,40,65.66Z"/><path d="M42.23,64H43l.33,1.17.11.46h0l.11-.46L43.9,64h.79v3.3h-.64v-1c0-.37.07-1.18.1-1.53h0l-.25.88-.26.8h-.36l-.27-.8-.23-.88h0c0,.35.1,1.16.1,1.53v1h-.62Z"/><path d="M46.34,66.7h.78v-2h-.78V64h2.29v.63h-.77v2h.77v.62H46.34Z"/><path d="M50.27,65.69A1.57,1.57,0,0,1,51.85,64a1.44,1.44,0,0,1,1,.42l-.41.46a.85.85,0,0,0-.58-.24c-.47,0-.81.4-.81,1.06s.34,1.08.84,1.08a.82.82,0,0,0,.6-.29l.41.45a1.36,1.36,0,0,1-1.09.48A1.53,1.53,0,0,1,50.27,65.69Z"/><path d="M58.42,64h.91a1.65,1.65,0,0,1,0,3.3h-.95Zm.87,2.7c.51,0,.86-.27.86-1.06s-.35-1-.86-1h-.12v2.1Z"/><path d="M63.17,64h.89l1,3.3H64.3l-.43-1.67c-.08-.33-.18-.72-.26-1.06h0c-.08.34-.17.73-.26,1.06l-.43,1.67h-.76ZM62.82,66H64.4v.59H62.82Z"/><path d="M67.27,64.65h-1V64H69v.63H68v2.67h-.75Z"/><path d="M71.23,64h.89l1,3.3h-.79l-.43-1.67c-.08-.33-.18-.72-.26-1.06h0c-.08.34-.17.73-.26,1.06L71,67.32H70.2ZM70.88,66h1.58v.59H70.88Z"/></svg>