<svg id="Layer_1" data-name="Layer 1" xmlns="http://www.w3.org/2000/svg" viewBox="0 0 100 75"><defs><style>.cls-1{fill:#eceff1;}.cls-2{fill:#388e3c;}.cls-3{fill:#2e7d32;}.cls-4{fill:#fafafa;}</style></defs><path class="cls-1" d="M73,53.87H51.53A1.54,1.54,0,0,1,50,52.33V21.67a1.53,1.53,0,0,1,1.53-1.53H73a1.52,1.52,0,0,1,1.53,1.53V52.33A1.53,1.53,0,0,1,73,53.87Z"/><path class="cls-2" d="M57.67,29.33H51.53a1.53,1.53,0,0,1,0-3.06h6.14a1.53,1.53,0,0,1,0,3.06Z"/><path class="cls-2" d="M57.67,35.47H51.53a1.54,1.54,0,0,1,0-3.07h6.14a1.54,1.54,0,0,1,0,3.07Z"/><path class="cls-2" d="M57.67,41.6H51.53a1.54,1.54,0,0,1,0-3.07h6.14a1.54,1.54,0,0,1,0,3.07Z"/><path class="cls-2" d="M57.67,47.73H51.53a1.53,1.53,0,0,1,0-3.06h6.14a1.53,1.53,0,0,1,0,3.06Z"/><path class="cls-2" d="M66.87,29.33H63.8a1.53,1.53,0,0,1,0-3.06h3.07a1.53,1.53,0,1,1,0,3.06Z"/><path class="cls-2" d="M66.87,35.47H63.8a1.54,1.54,0,0,1,0-3.07h3.07a1.54,1.54,0,0,1,0,3.07Z"/><path class="cls-2" d="M66.87,41.6H63.8a1.54,1.54,0,0,1,0-3.07h3.07a1.54,1.54,0,0,1,0,3.07Z"/><path class="cls-2" d="M66.87,47.73H63.8a1.53,1.53,0,1,1,0-3.06h3.07a1.53,1.53,0,1,1,0,3.06Z"/><path class="cls-3" d="M52.51,14.35A1.52,1.52,0,0,0,51.25,14l-24.53,4.6a1.52,1.52,0,0,0-1.25,1.51V53.87a1.52,1.52,0,0,0,1.25,1.5L51.25,60a1.33,1.33,0,0,0,.28,0,1.51,1.51,0,0,0,1-.35,1.55,1.55,0,0,0,.56-1.18V15.54A1.57,1.57,0,0,0,52.51,14.35Z"/><path class="cls-4" d="M46.55,42.13l-4.84-5.55,4.9-6.3a1.54,1.54,0,0,0-2.42-1.89l-4.54,5.84-3.83-4.37a1.53,1.53,0,1,0-2.31,2l4.22,4.82-4.27,5.49a1.54,1.54,0,0,0,.26,2.16,1.6,1.6,0,0,0,1,.32,1.56,1.56,0,0,0,1.21-.59l3.91-5,4.46,5.09a1.51,1.51,0,0,0,1.15.53,1.55,1.55,0,0,0,1-.38A1.52,1.52,0,0,0,46.55,42.13Z"/></svg>