<svg id="Layer_1" data-name="Layer 1" xmlns="http://www.w3.org/2000/svg" viewBox="0 0 100 75"><defs><style>.cls-1{fill:#e95424;fill-rule:evenodd;}</style></defs><g id="Symbols"><g id="Logo"><path id="Fill-1" class="cls-1" d="M25.09,40.48l-6.72,3.88a.43.43,0,0,1-.44,0l-6.72-3.88A.44.44,0,0,1,11,40.1V32.35a.44.44,0,0,1,.21-.38l6.72-3.88a.43.43,0,0,1,.44,0L25.09,32a.44.44,0,0,1,.21.38V40.1a.44.44,0,0,1-.21.38m3.6-4.24a10.54,10.54,0,1,0-16,8.94L21,50l3.35-1.94-3-1.74a10.49,10.49,0,0,0,7.37-10.08"/><path id="Fill-4" class="cls-1" d="M32.52,46.23h9.84V32.11H39.5V43.34h-6V32.11H30.64v13a.15.15,0,0,0,.09.16l1.7,1a.15.15,0,0,0,.09,0"/><path id="Fill-6" class="cls-1" d="M68.29,32.13l1.71,1a.19.19,0,0,1,.09.15v13H67.23V35h-6V46.23H58.36V32.11H68.2a.22.22,0,0,1,.09,0"/><path id="Fill-8" class="cls-1" d="M86.48,25.72h2.86V43.34h3v2.89h-4l-.09,0-1.71-1a.15.15,0,0,1-.09-.16Z"/><path id="Fill-11" class="cls-1" d="M54.23,32.14l1.71,1a.23.23,0,0,1,.09.16V46.23H46.58a.12.12,0,0,1-.09,0l-1.71-1a.15.15,0,0,1-.09-.16v-6.7a.19.19,0,0,1,.09-.16l1.73-1,.09,0h6.56V35H46.52V32.11h7.62a.17.17,0,0,1,.09,0Zm-1.07,11.2V40h-5.6v3.35Z"/><path id="Fill-13" class="cls-1" d="M74.25,46.23l-.09,0-1.7-1a.15.15,0,0,1-.09-.16V33.27a.18.18,0,0,1,.09-.15c.05,0,1.67-1,1.7-1l.1,0h6.95V25.72H84.1V46.23Zm1-2.89h5.95V35H75.26Z"/></g></g></svg>