<svg id="Layer_1" data-name="Layer 1" xmlns="http://www.w3.org/2000/svg" viewBox="0 0 100 75"><defs><style>.cls-1{fill:#77cefa;}.cls-2{fill:#0e91bb;}.cls-3{fill:#f16900;}</style></defs><path d="M68.07,30.62l-1.35-.77a16.8,16.8,0,0,0,.34-3.36,17.29,17.29,0,0,0-.33-3.35l1.34-.77a1.79,1.79,0,0,0,.83-1.09,1.82,1.82,0,0,0-.17-1.37l-3.67-6.34a1.79,1.79,0,0,0-2.45-.66l-1.34.77a17.29,17.29,0,0,0-5.81-3.36V8.78A1.8,1.8,0,0,0,53.66,7H46.34a1.8,1.8,0,0,0-1.8,1.79v1.54a17.2,17.2,0,0,0-5.8,3.37l-1.35-.78a1.79,1.79,0,0,0-2.45.66l-3.67,6.34a1.82,1.82,0,0,0-.17,1.37,1.79,1.79,0,0,0,.83,1.09l1.35.77a16.78,16.78,0,0,0-.34,3.35,17.32,17.32,0,0,0,.33,3.36l-1.34.77a1.8,1.8,0,0,0-.66,2.45l3.67,6.35a1.8,1.8,0,0,0,2.45.66l1.34-.78a17.12,17.12,0,0,0,5.81,3.36v1.55A1.8,1.8,0,0,0,46.34,46h7.32a1.8,1.8,0,0,0,1.8-1.79V42.66a17.17,17.17,0,0,0,5.8-3.36l1.35.78a1.8,1.8,0,0,0,2.45-.66l3.67-6.35A1.8,1.8,0,0,0,68.07,30.62Zm-.34,1.88-3.66,6.35a.66.66,0,0,1-.89.24l-1.71-1a.56.56,0,0,0-.67.07,16,16,0,0,1-6.08,3.53.59.59,0,0,0-.41.55v2a.65.65,0,0,1-.65.64H46.34a.65.65,0,0,1-.65-.64v-2a.59.59,0,0,0-.41-.55,16,16,0,0,1-6.09-3.52.54.54,0,0,0-.38-.15.59.59,0,0,0-.29.07l-1.7,1a.66.66,0,0,1-.89-.24L32.27,32.5a.65.65,0,0,1,.23-.89l1.7-1a.57.57,0,0,0,.28-.62,15.51,15.51,0,0,1-.4-3.52,16.36,16.36,0,0,1,.4-3.51.56.56,0,0,0-.27-.62l-1.71-1a.63.63,0,0,1-.3-.39.65.65,0,0,1,.07-.49l3.66-6.35a.64.64,0,0,1,.4-.3.65.65,0,0,1,.49.06l1.71,1a.58.58,0,0,0,.67-.08,16.06,16.06,0,0,1,6.08-3.52.59.59,0,0,0,.41-.55v-2a.65.65,0,0,1,.65-.65h7.32a.65.65,0,0,1,.65.65v2a.59.59,0,0,0,.41.55,16,16,0,0,1,6.09,3.52.56.56,0,0,0,.67.07l1.7-1a.65.65,0,0,1,.49-.06.64.64,0,0,1,.4.3l3.66,6.35a.65.65,0,0,1,.07.49.63.63,0,0,1-.3.39l-1.7,1a.57.57,0,0,0-.28.62,15.49,15.49,0,0,1,.4,3.51,16.38,16.38,0,0,1-.4,3.52.56.56,0,0,0,.27.62l1.71,1A.65.65,0,0,1,67.73,32.5Z"/><path d="M50,14.93A11.57,11.57,0,1,0,61.57,26.49,11.58,11.58,0,0,0,50,14.93Zm0,22A10.42,10.42,0,1,1,60.42,26.49,10.43,10.43,0,0,1,50,36.91Z"/><path class="cls-1" d="M54.1,13.65c.39.13.79.28,1.17.44a.64.64,0,0,0,.23.05.58.58,0,0,0,.52-.35.56.56,0,0,0-.3-.75,13,13,0,0,0-1.28-.48.58.58,0,0,0-.72.37A.57.57,0,0,0,54.1,13.65Z"/><path class="cls-2" d="M38.16,32.94a.57.57,0,0,0-.77-.23.57.57,0,0,0-.23.78c.24.43.5.86.78,1.27a.57.57,0,1,0,.94-.65Q38.49,33.54,38.16,32.94Z"/><path class="cls-2" d="M48.83,39.92a13.52,13.52,0,0,1-8.2-3.75.58.58,0,0,0-.8.83,14.67,14.67,0,0,0,8.9,4.06h.05a.57.57,0,0,0,0-1.14Z"/><path class="cls-1" d="M58.24,14.42a.58.58,0,0,0-.8.14.59.59,0,0,0,.15.8A13.47,13.47,0,0,1,63,23a.58.58,0,0,0,.55.42.39.39,0,0,0,.15,0,.57.57,0,0,0,.41-.7A14.62,14.62,0,0,0,58.24,14.42Z"/><path class="cls-3" d="M47.57,29.91l-.3-1s0,0,0,0H44.85a.05.05,0,0,0-.05,0l-.3,1c0,.06,0,.09-.11.09h-.91a.11.11,0,0,1-.08,0s0,0,0-.1l2-6.1a.12.12,0,0,1,.12-.09H46.6a.1.1,0,0,1,.11.09l2,6.1a.09.09,0,0,1,0,.05s0,.08-.1.08h-.9A.12.12,0,0,1,47.57,29.91Zm-2.45-1.82H47s0,0,0-.06l-.94-3s0,0,0,0,0,0,0,0l-.92,3S45.09,28.09,45.12,28.09Z"/><path class="cls-3" d="M53.16,23.91a1.58,1.58,0,0,1,.67.66,2,2,0,0,1,.24,1,1.91,1.91,0,0,1-.24,1,1.75,1.75,0,0,1-.69.66,2.31,2.31,0,0,1-1,.23H50.66s0,0,0,0v2.43a.11.11,0,0,1,0,.08.09.09,0,0,1-.07,0h-.84a.09.09,0,0,1-.07,0,.11.11,0,0,1,0-.08V23.78a.11.11,0,0,1,0-.08.09.09,0,0,1,.07,0h2.49A2,2,0,0,1,53.16,23.91Zm-.42,2.39a.93.93,0,0,0,.28-.71,1,1,0,0,0-.28-.74,1,1,0,0,0-.74-.28H50.66a0,0,0,0,0,0,.05v1.9a0,0,0,0,0,0,.05H52A1,1,0,0,0,52.74,26.3Z"/><path class="cls-3" d="M55,30a.11.11,0,0,1,0-.08v-6.1a.11.11,0,0,1,0-.08.13.13,0,0,1,.08,0h.83a.1.1,0,0,1,.11.11v6.1a.1.1,0,0,1-.11.11H55.1A.13.13,0,0,1,55,30Z"/><g id="Page-1"><g id="Group"><g id="_3forge" data-name=" 3forge"><path class="cls-2" d="M44.16,60.24a4.87,4.87,0,0,1-.32,1.81,3.69,3.69,0,0,1-1.47,1.81,4.42,4.42,0,0,1-2.42.66,4.33,4.33,0,0,1-2.42-.68A3.87,3.87,0,0,1,36.05,62a5.35,5.35,0,0,1-.29-1.43.27.27,0,0,1,.23-.31h2a.29.29,0,0,1,.32.27v0a3,3,0,0,0,.19.79,1.42,1.42,0,0,0,.53.74,1.47,1.47,0,0,0,.88.26,1.41,1.41,0,0,0,1.4-.88,3,3,0,0,0,.25-1.28,3.15,3.15,0,0,0-.29-1.39,1.4,1.4,0,0,0-1.39-.84,1.6,1.6,0,0,0-.84.34.48.48,0,0,1-.18.06.31.31,0,0,1-.25-.13l-1-1.29a.35.35,0,0,1-.08-.22.33.33,0,0,1,.11-.21L40.55,54a.07.07,0,0,0,0-.08s-.05,0-.09,0H36.31a.27.27,0,0,1-.31-.23.11.11,0,0,1,0-.08V52a.27.27,0,0,1,.23-.31h7.46a.28.28,0,0,1,.31.23A.11.11,0,0,1,44,52v1.78a.55.55,0,0,1-.16.38l-2.38,2.18c-.07.07-.05.12.07.14a3,3,0,0,1,2.27,1.87A4.81,4.81,0,0,1,44.16,60.24Z"/><path class="cls-2" d="M50.26,55.34v1.52a.28.28,0,0,1-.23.31H48.3a.1.1,0,0,0-.11.08v6.82a.27.27,0,0,1-.22.31h-2a.26.26,0,0,1-.3-.22.11.11,0,0,1,0-.08V57.3a.1.1,0,0,0-.09-.11h-1a.28.28,0,0,1-.31-.24.17.17,0,0,1,0-.07V55.34a.26.26,0,0,1,.22-.31h1a.1.1,0,0,0,.12-.09v-.4A3.5,3.5,0,0,1,46,52.79a1.88,1.88,0,0,1,1.12-.89,6.18,6.18,0,0,1,2.14-.23h.6a.28.28,0,0,1,.31.23v1.37a.28.28,0,0,1-.24.31h-.58a1.35,1.35,0,0,0-.88.27,1.26,1.26,0,0,0-.24.9v.18a.09.09,0,0,0,.08.11H50a.27.27,0,0,1,.29.24Z"/><path class="cls-2" d="M51.53,63.72A4,4,0,0,1,50,61.54a6.4,6.4,0,0,1-.25-1.85,6,6,0,0,1,.27-1.92,4,4,0,0,1,1.5-2.11,4.44,4.44,0,0,1,2.62-.76,4.23,4.23,0,0,1,2.55.76,3.9,3.9,0,0,1,1.47,2.09,5.88,5.88,0,0,1,.28,1.9,7.15,7.15,0,0,1-.24,1.84,4.06,4.06,0,0,1-4.08,3A4.28,4.28,0,0,1,51.53,63.72ZM55.16,62a2,2,0,0,0,.6-1,4.91,4.91,0,0,0,.16-1.27,4.69,4.69,0,0,0-.15-1.29,1.86,1.86,0,0,0-.59-1,1.57,1.57,0,0,0-1-.34,1.53,1.53,0,0,0-1,.34,1.89,1.89,0,0,0-.61,1,5.1,5.1,0,0,0-.14,1.29A4.9,4.9,0,0,0,52.52,61a2,2,0,0,0,.62,1,1.52,1.52,0,0,0,1,.36A1.42,1.42,0,0,0,55.16,62Z"/><path class="cls-2" d="M64.57,55.14a.3.3,0,0,1,.17.38l-.34,1.9a.2.2,0,0,1-.11.2.57.57,0,0,1-.26,0,2.35,2.35,0,0,0-.54-.07,1.87,1.87,0,0,0-.41,0,1.76,1.76,0,0,0-1.11.48,1.46,1.46,0,0,0-.45,1.13v4.87a.27.27,0,0,1-.24.3h-2a.27.27,0,0,1-.31-.23.09.09,0,0,1,0-.07V55.36a.27.27,0,0,1,.23-.31h2a.27.27,0,0,1,.31.23v.61s0,.08,0,.1,0,0,.08,0a2.28,2.28,0,0,1,2-1.08A2,2,0,0,1,64.57,55.14Z"/><path class="cls-2" d="M70.35,55.05h1.94a.27.27,0,0,1,.31.23.22.22,0,0,1,0,.08v8.18a4,4,0,0,1-1.35,3.39,5.78,5.78,0,0,1-3.51,1c-.45,0-.91,0-1.36-.09-.18,0-.27-.13-.27-.33l.07-1.69a.3.3,0,0,1,.1-.23.28.28,0,0,1,.25,0,10,10,0,0,0,1.1.09,2.78,2.78,0,0,0,1.79-.51A2,2,0,0,0,70,63.54s0-.06,0-.06,0,0-.09,0a2.6,2.6,0,0,1-2,.73,4.23,4.23,0,0,1-2.14-.57,3.17,3.17,0,0,1-1.41-1.84,7.09,7.09,0,0,1-.27-2.15,6.89,6.89,0,0,1,.33-2.3,3.5,3.5,0,0,1,1.29-1.78,3.42,3.42,0,0,1,2.1-.67,2.78,2.78,0,0,1,2.15.81s.06,0,.09,0a.1.1,0,0,0,0-.09v-.34a.27.27,0,0,1,.23-.31ZM70,59.64a8.44,8.44,0,0,0,0-.87,2.85,2.85,0,0,0-.12-.58,1.64,1.64,0,0,0-.54-.8,1.62,1.62,0,0,0-1.88,0,1.73,1.73,0,0,0-.54.79,3.54,3.54,0,0,0-.26,1.47,3.46,3.46,0,0,0,.21,1.46,1.57,1.57,0,0,0,1.54,1.07,1.47,1.47,0,0,0,1.47-1A5.92,5.92,0,0,0,70,59.64Z"/><path class="cls-2" d="M79.6,61.52a.29.29,0,0,1,.23-.12.27.27,0,0,1,.21.09l1,1a.33.33,0,0,1,.11.21.41.41,0,0,1-.07.22,4.11,4.11,0,0,1-1.54,1.17,5,5,0,0,1-2,.43,4.38,4.38,0,0,1-2.77-.86,4.23,4.23,0,0,1-1.48-2.34,7.39,7.39,0,0,1,0-3.46,3.87,3.87,0,0,1,1.46-2.15,4.18,4.18,0,0,1,2.6-.81A3.71,3.71,0,0,1,80.15,56a5.22,5.22,0,0,1,1.35,3c0,.41.09.85.12,1.33a.29.29,0,0,1-.25.31H75.74c-.08,0-.12,0-.12.11a3.5,3.5,0,0,0,.13.56,1.5,1.5,0,0,0,.72.86,2.67,2.67,0,0,0,1.3.3A2.36,2.36,0,0,0,79.6,61.52Zm-3.28-4.13a1.51,1.51,0,0,0-.54.79c0,.23-.09.38-.1.46s0,.11.08.11h3.09c.06,0,.09,0,.09-.07a1.42,1.42,0,0,0-.07-.42,1.55,1.55,0,0,0-1.58-1.15A1.67,1.67,0,0,0,76.32,57.39Z"/></g><rect id="Rectangle" class="cls-3" x="20.48" y="51.81" width="3.75" height="3.75" rx="0.83"/><rect id="Rectangle-2" class="cls-3" x="25.06" y="51.81" width="3.75" height="3.75" rx="0.83"/><rect id="Rectangle-3" class="cls-2" x="20.48" y="56.39" width="3.75" height="3.75" rx="0.83"/><rect id="Rectangle-4" class="cls-1" x="20.48" y="60.97" width="3.75" height="3.75" rx="0.83"/><rect id="Rectangle-5" class="cls-2" x="25.06" y="56.39" width="3.75" height="3.75" rx="0.83"/><rect id="Rectangle-6" class="cls-3" x="29.65" y="51.81" width="3.75" height="3.75" rx="0.83"/></g></g></svg>