<svg id="Layer_1" data-name="Layer 1" xmlns="http://www.w3.org/2000/svg" viewBox="0 0 16 16"><defs><style>.cls-1{fill:#006009;stroke:#006009;stroke-miterlimit:10;stroke-width:0.5px;}</style></defs><path class="cls-1" d="M8,7.34c-.29,0-.49.12-.49.3v2.44c0,.16.2.31.49.31s.5-.15.5-.31V7.64C8.5,7.46,8.28,7.34,8,7.34Z"/><path class="cls-1" d="M8,4.83a.5.5,0,0,0-.53.45.53.53,0,0,0,1,0A.49.49,0,0,0,8,4.83Z"/><path class="cls-1" d="M8,2.18a5,5,0,0,0-1.8,9.66,1.12,1.12,0,0,1,.48.38l.94,1.4a.46.46,0,0,0,.76,0l.94-1.4a1.12,1.12,0,0,1,.48-.38A5,5,0,0,0,8,2.18Zm1.11,8.94a.4.4,0,0,0-.26.18h0a1,1,0,0,1-1.7,0h0a.4.4,0,0,0-.26-.18,4.09,4.09,0,1,1,2.22,0Z"/></svg>