<svg id="Layer_1" data-name="Layer 1" xmlns="http://www.w3.org/2000/svg" viewBox="0 0 16 16"><defs><style>.cls-1,.cls-2{fill:#006009;stroke:#006009;stroke-miterlimit:10;}.cls-2{stroke-width:0.17px;}</style></defs><path class="cls-1" d="M14.19,6.08h-.78V4.67a.61.61,0,0,0-.62-.61H7.21L6.09,2.48H1.86a.62.62,0,0,0-.62.62v9.84h0a.55.55,0,0,0,.12.35.56.56,0,0,0,.46.23H11.9a.59.59,0,0,0,.56-.41l2.3-6.32v0A.61.61,0,0,0,14.19,6.08Zm-12.5-3a.17.17,0,0,1,.17-.17h4L7,4.51h5.81a.17.17,0,0,1,.17.16V6.08H4a.56.56,0,0,0-.45.4L1.69,11.58ZM12,13a.14.14,0,0,1-.13.09H1.82a.11.11,0,0,1-.1-.05.1.1,0,0,1,0-.09L4,6.63a.11.11,0,0,1,.12-.09H14.19c.09,0,.11.12.12.18Z"/><path class="cls-2" d="M7.94,8.32v2.19l-.36-.36a.31.31,0,0,0-.44,0,.31.31,0,0,0,0,.45l.89.9a.33.33,0,0,0,.45,0l.9-.9a.32.32,0,1,0-.45-.45l-.36.36V8.32a.32.32,0,1,0-.63,0Z"/></svg>