<svg id="Layer_1" data-name="Layer 1" xmlns="http://www.w3.org/2000/svg" viewBox="0 0 16 16"><defs><style>.cls-1{fill:#006009;stroke:#006009;stroke-miterlimit:10;stroke-width:0.23px;}</style></defs><path class="cls-1" d="M8.6,13.77H7.4a3.26,3.26,0,0,1-3.26-3.26V7.86A3.26,3.26,0,0,1,7.4,4.6H8.6a3.26,3.26,0,0,1,3.26,3.26v2.65A3.26,3.26,0,0,1,8.6,13.77ZM7.4,5.32A2.54,2.54,0,0,0,4.86,7.86v2.65A2.54,2.54,0,0,0,7.4,13.05H8.6a2.54,2.54,0,0,0,2.54-2.54V7.86A2.54,2.54,0,0,0,8.6,5.32Z"/><path class="cls-1" d="M9.92,5.64a.34.34,0,0,1-.17,0,.34.34,0,0,1-.15-.48.89.89,0,0,0,.09-.39.84.84,0,0,0-.85-.84H7.16a.83.83,0,0,0-.6.24.84.84,0,0,0-.25.6.89.89,0,0,0,.09.39.34.34,0,0,1-.15.48.36.36,0,0,1-.49-.15,1.59,1.59,0,0,1-.17-.72,1.55,1.55,0,0,1,.46-1.11,1.52,1.52,0,0,1,1.11-.46H8.84a1.57,1.57,0,0,1,1.57,1.57,1.59,1.59,0,0,1-.17.72.36.36,0,0,1-.32.2Z"/><path class="cls-1" d="M7.17,3.75a.37.37,0,0,1-.37-.36v-.8a.37.37,0,0,1,.37-.36.36.36,0,0,1,.36.36v.8A.36.36,0,0,1,7.17,3.75Z"/><path class="cls-1" d="M8.86,3.75a.37.37,0,0,1-.37-.36v-.8a.37.37,0,0,1,.37-.36.36.36,0,0,1,.36.36v.8A.36.36,0,0,1,8.86,3.75Z"/><path class="cls-1" d="M13.43,9.55H11.62a.37.37,0,0,1-.36-.37.36.36,0,0,1,.36-.36h1.81a.36.36,0,0,1,.36.36A.37.37,0,0,1,13.43,9.55Z"/><path class="cls-1" d="M4.38,9.55H2.57a.37.37,0,0,1-.36-.37.36.36,0,0,1,.36-.36H4.38a.36.36,0,0,1,.36.36A.37.37,0,0,1,4.38,9.55Z"/><path class="cls-1" d="M3.05,13.29a.36.36,0,0,1-.21-.65L4.4,11.48a.35.35,0,0,1,.5.07.37.37,0,0,1-.07.51L3.27,13.22a.44.44,0,0,1-.22.07Z"/><path class="cls-1" d="M11.39,7a.37.37,0,0,1-.29-.14.37.37,0,0,1,.07-.51l1.56-1.16a.37.37,0,0,1,.51.08.35.35,0,0,1-.08.5L11.6,6.89a.33.33,0,0,1-.21.07Z"/><path class="cls-1" d="M13,13.29a.44.44,0,0,1-.22-.07l-1.56-1.16a.37.37,0,0,1-.07-.51.35.35,0,0,1,.5-.07l1.56,1.16a.36.36,0,0,1-.21.65Z"/><path class="cls-1" d="M4.61,7a.33.33,0,0,1-.21-.07L2.84,5.73a.35.35,0,0,1-.08-.5.38.38,0,0,1,.51-.08L4.83,6.31a.37.37,0,0,1,.07.51A.37.37,0,0,1,4.61,7Z"/></svg>