<svg id="Layer_1" data-name="Layer 1" xmlns="http://www.w3.org/2000/svg" viewBox="0 0 16 16"><defs><style>.cls-1{fill:#006009;stroke:#006009;stroke-miterlimit:10;stroke-width:0.82px;}</style></defs><path class="cls-1" d="M9.56,12.64h2.25a3.19,3.19,0,0,0,0-6.38,3.36,3.36,0,0,0-.63.06,3.19,3.19,0,0,0-6.37,0,3.19,3.19,0,1,0-.63,6.32H9.56Zm-3.12-.57H4.18A2.62,2.62,0,1,1,5,7a.28.28,0,0,0,.26,0c.07-.06.11-.16.11-.37a2.62,2.62,0,0,1,5.24,0c0,.22,0,.31.1.37A.3.3,0,0,0,11,7a2.52,2.52,0,0,1,.82-.14,2.62,2.62,0,0,1,0,5.24H6.44Z"/></svg>