<svg id="Layer_1" data-name="Layer 1" xmlns="http://www.w3.org/2000/svg" viewBox="0 0 16 16"><defs><style>.cls-1,.cls-2{fill:#006009;stroke:#006009;stroke-miterlimit:10;}.cls-1{stroke-width:0.36px;}.cls-2{stroke-width:0.23px;}</style></defs><path class="cls-1" d="M8.22,13H7.78a.64.64,0,0,1-.63-.64v-.14A3.38,3.38,0,0,1,6.71,12l-.1.1a.66.66,0,0,1-.91,0l-.3-.31a.63.63,0,0,1,0-.9l.1-.1a3.38,3.38,0,0,1-.18-.44H5.17a.63.63,0,0,1-.63-.64V9.32a.64.64,0,0,1,.63-.64h.15a3.25,3.25,0,0,1,.18-.43l-.1-.11a.63.63,0,0,1,0-.9l.31-.3a.62.62,0,0,1,.9,0l.1.1a3.38,3.38,0,0,1,.44-.18V6.71a.64.64,0,0,1,.63-.64h.44a.64.64,0,0,1,.63.64v.15A3.38,3.38,0,0,1,9.29,7l.1-.1a.62.62,0,0,1,.9,0l.31.3a.63.63,0,0,1,0,.9l-.1.11a3.25,3.25,0,0,1,.18.43h.15a.64.64,0,0,1,.63.64v.43a.63.63,0,0,1-.63.64h-.15a3.38,3.38,0,0,1-.18.44l.1.1a.63.63,0,0,1,0,.9l-.31.31a.63.63,0,0,1-.9,0l-.1-.1a3.38,3.38,0,0,1-.44.18v.14A.64.64,0,0,1,8.22,13ZM6.78,11.61a2.62,2.62,0,0,0,.62.26.19.19,0,0,1,.15.19v.3a.23.23,0,0,0,.23.23h.44a.23.23,0,0,0,.23-.23v-.3a.19.19,0,0,1,.15-.19,2.62,2.62,0,0,0,.62-.26.2.2,0,0,1,.25,0l.21.21a.24.24,0,0,0,.33,0l.31-.3a.25.25,0,0,0,0-.33L10.1,11a.21.21,0,0,1,0-.25,2.4,2.4,0,0,0,.26-.62.2.2,0,0,1,.2-.15h.3a.24.24,0,0,0,.23-.24V9.32a.23.23,0,0,0-.23-.23h-.3a.2.2,0,0,1-.2-.15,2.26,2.26,0,0,0-.26-.62.21.21,0,0,1,0-.25l.22-.21a.25.25,0,0,0,0-.33L10,7.22a.24.24,0,0,0-.33,0l-.21.21a.21.21,0,0,1-.25,0,2,2,0,0,0-.62-.26A.21.21,0,0,1,8.45,7v-.3a.23.23,0,0,0-.23-.23H7.78a.23.23,0,0,0-.23.23V7a.21.21,0,0,1-.15.2,2,2,0,0,0-.62.26.21.21,0,0,1-.25,0l-.21-.21a.24.24,0,0,0-.33,0l-.31.31a.25.25,0,0,0,0,.33l.22.21a.21.21,0,0,1,0,.25,2.26,2.26,0,0,0-.26.62.2.2,0,0,1-.2.15h-.3a.23.23,0,0,0-.23.23v.43a.24.24,0,0,0,.23.24h.3a.2.2,0,0,1,.2.15,2.4,2.4,0,0,0,.26.62.21.21,0,0,1,0,.25l-.22.21a.25.25,0,0,0,0,.33l.31.3a.24.24,0,0,0,.33,0l.21-.21a.2.2,0,0,1,.25,0Z"/><path class="cls-1" d="M8,11a1.51,1.51,0,1,1,1.51-1.5A1.51,1.51,0,0,1,8,11Zm0-2.6a1.1,1.1,0,1,0,1.1,1.1A1.1,1.1,0,0,0,8,8.44Z"/><path class="cls-2" d="M14.16,1.81H1.84A1.27,1.27,0,0,0,.58,3.07v9.86a1.27,1.27,0,0,0,1.26,1.26H14.16a1.27,1.27,0,0,0,1.26-1.26V3.07A1.27,1.27,0,0,0,14.16,1.81ZM1.84,2.88H14.16a.19.19,0,0,1,.2.19V4.61H1.64V3.07A.19.19,0,0,1,1.84,2.88ZM14.16,13.12H1.84a.19.19,0,0,1-.2-.19V5.67H14.36v7.26A.19.19,0,0,1,14.16,13.12Z"/></svg>