<svg id="Layer_1" data-name="Layer 1" xmlns="http://www.w3.org/2000/svg" viewBox="0 0 16 16"><defs><style>.cls-1,.cls-2{fill:#006009;stroke:#006009;stroke-miterlimit:10;}.cls-1{stroke-linecap:round;stroke-width:1.5px;}.cls-2{stroke-width:0.23px;}</style></defs><line class="cls-1" x1="8" y1="7.5" x2="8" y2="6.5"/><path class="cls-2" d="M3.39,7.73h9.22a1,1,0,0,1,1,1V12.6a.43.43,0,1,1-.85,0V8.69a.11.11,0,0,0-.11-.11H3.39a.11.11,0,0,0-.11.11V12.6a.43.43,0,1,1-.85,0V8.69a1,1,0,0,1,1-1Z"/><path class="cls-2" d="M2.85,13a.43.43,0,0,0,.43-.43V8.69a.11.11,0,0,1,.11-.11h9.22a.11.11,0,0,1,.11.11V12.6a.43.43,0,0,0,.43.43V8.69a.54.54,0,0,0-.54-.54H3.39a.54.54,0,0,0-.54.54Z"/><path class="cls-2" d="M12,11.07h2.3a.31.31,0,0,1,.31.31v2.3a.31.31,0,0,1-.31.31H12a.31.31,0,0,1-.31-.31v-2.3a.31.31,0,0,1,.31-.31Z"/><path class="cls-2" d="M6.85,11.07h2.3a.31.31,0,0,1,.31.31v2.3a.31.31,0,0,1-.31.31H6.85a.31.31,0,0,1-.31-.31v-2.3a.31.31,0,0,1,.31-.31Z"/><path class="cls-2" d="M1.7,11.07H4a.31.31,0,0,1,.31.31v2.3A.31.31,0,0,1,4,14H1.7a.31.31,0,0,1-.31-.31v-2.3a.31.31,0,0,1,.31-.31Z"/><path class="cls-2" d="M10,1.7H6A.27.27,0,0,0,5.74,2V6A.28.28,0,0,0,6,6.23h4A.28.28,0,0,0,10.26,6V2A.27.27,0,0,0,10,1.7ZM9.62,5.42a.2.2,0,0,1-.2.2H6.58a.2.2,0,0,1-.2-.2V2.58a.2.2,0,0,1,.2-.2H9.42a.2.2,0,0,1,.2.2Z"/></svg>