<svg id="Layer_1" data-name="Layer 1" xmlns="http://www.w3.org/2000/svg" viewBox="0 0 16 16"><defs><style>.cls-1{fill:#006009;stroke:#006009;stroke-miterlimit:10;stroke-width:0.8px;}</style></defs><path class="cls-1" d="M13,9.83a.42.42,0,0,0-.42.42v2.5a.42.42,0,0,1-.42.42H3.83a.42.42,0,0,1-.42-.42v-2.5A.42.42,0,0,0,3,9.83a.41.41,0,0,0-.41.42v2.5A1.25,1.25,0,0,0,3.83,14h8.34a1.25,1.25,0,0,0,1.25-1.25v-2.5A.41.41,0,0,0,13,9.83Z"/><path class="cls-1" d="M9.85,8.6a.35.35,0,0,0-.45,0l-1.07,1V3.86a.33.33,0,0,0-.66,0v5.7L6.6,8.6a.35.35,0,0,0-.46,0,.27.27,0,0,0,0,.4l1.63,1.45a.34.34,0,0,0,.46,0h0L9.86,9A.27.27,0,0,0,9.85,8.6Z"/></svg>