<svg id="Layer_1" data-name="Layer 1" xmlns="http://www.w3.org/2000/svg" viewBox="0 0 16 16"><defs><style>.cls-1{fill:#006009;stroke:#006009;stroke-miterlimit:10;stroke-width:0.5px;}</style></defs><path class="cls-1" d="M2.44,9.86v2.7A1.54,1.54,0,0,0,4,14.09h8.69a1.54,1.54,0,0,0,1.54-1.53V4.62A1.53,1.53,0,0,0,12.67,3.1H9.92a.31.31,0,1,0,0,.61h2.75a.92.92,0,0,1,.92.91v7.94a.92.92,0,0,1-.92.92H4a.93.93,0,0,1-.93-.92V9.86a.31.31,0,1,0-.61,0Z"/><path class="cls-1" d="M2.19,2.67a1.36,1.36,0,0,0,0,1.94l5.53,5.44a.29.29,0,0,0,.13.08l2.62.71a.3.3,0,0,0,.3-.08.29.29,0,0,0,.08-.29l-.72-2.58a.32.32,0,0,0-.08-.14L4.53,2.31a1.42,1.42,0,0,0-2,0ZM7.92,9.38,3.4,4.93,4.86,3.5,9.37,8Zm2.19.73L8.5,9.67,9.66,8.52Zm-7.48-7L3,2.75a.77.77,0,0,1,1.09,0l.33.32L3,4.5l-.33-.32A.76.76,0,0,1,2.63,3.1Z"/></svg>