<svg id="Layer_1" data-name="Layer 1" xmlns="http://www.w3.org/2000/svg" viewBox="0 0 16 17"><defs><style>.cls-1{fill:#4b4b4b;}</style></defs><path class="cls-1" d="M14.24,12.12,11.11,9a4.88,4.88,0,0,0,.46-2.09A4.81,4.81,0,0,0,6.82,2,4.81,4.81,0,0,0,2.07,6.88a4.81,4.81,0,0,0,4.75,4.87,4.58,4.58,0,0,0,2-.47l3.08,3.21a1.62,1.62,0,0,0,2.33,0A1.72,1.72,0,0,0,14.24,12.12ZM3.13,6.88A3.74,3.74,0,0,1,6.82,3.09a3.75,3.75,0,0,1,3.7,3.79A3.9,3.9,0,0,1,10,8.74l0,0a3.82,3.82,0,0,1-1.32,1.36l0,0a3.6,3.6,0,0,1-1.81.48A3.73,3.73,0,0,1,3.13,6.88ZM13.5,13.73a.57.57,0,0,1-.83,0l-2.91-3a4.86,4.86,0,0,0,.78-.79l3,3A.6.6,0,0,1,13.5,13.73Z"/></svg>