<svg id="Layer_1" data-name="Layer 1" xmlns="http://www.w3.org/2000/svg" viewBox="0 0 16 16"><defs><style>.cls-1{fill:#186c05;}</style></defs><path class="cls-1" d="M.56,4.28v7.44a1.59,1.59,0,0,0,1.6,1.59H13.84a1.59,1.59,0,0,0,1.6-1.59V4.28a1.59,1.59,0,0,0-1.6-1.59H2.16A1.59,1.59,0,0,0,.56,4.28ZM1.62,8.84V4.28a.54.54,0,0,1,.54-.53H13.84a.54.54,0,0,1,.54.53V9.91l-1.75-.75a.53.53,0,0,0-.75,0l-1.75.75L5.72,6.5A.53.53,0,0,0,5,6.5L1.62,8.84Z"/><circle class="cls-1" cx="10.66" cy="6.41" r="1.59"/></svg>