<svg id="Layer_1" data-name="Layer 1" xmlns="http://www.w3.org/2000/svg" viewBox="0 0 16 16"><defs><style>.cls-1{fill:#006009;stroke:#006009;stroke-miterlimit:10;stroke-width:0.23px;}</style></defs><path class="cls-1" d="M13.9,3H2.1A1.81,1.81,0,0,0,.29,4.81v6.38A1.81,1.81,0,0,0,2.1,13H13.9a1.81,1.81,0,0,0,1.81-1.81V4.81A1.81,1.81,0,0,0,13.9,3Zm.61,8.19a.61.61,0,0,1-.61.61H2.1a.61.61,0,0,1-.61-.61V4.81A.61.61,0,0,1,2.1,4.2H13.9a.61.61,0,0,1,.61.61ZM5.62,6.64v4H4.42V6.64H2.7V5.44H7.28v1.2Zm36.72-1v4H41.13V5.64H39.42V4.44H44v1.2ZM6.83,9.39H8v1.2H6.83Zm2.4,0h1.21v1.2H9.23Zm2.41,0h1.21v1.2H11.64Z"/></svg>