<svg id="Layer_1" data-name="Layer 1" xmlns="http://www.w3.org/2000/svg" viewBox="0 0 16 16"><defs><style>.cls-1{fill:#006009;stroke-miterlimit:10;stroke-width:0.23px;}.cls-1,.cls-2{stroke:#006009;}.cls-2{fill:none;stroke-linecap:round;stroke-linejoin:round;stroke-width:1.5px;}</style></defs><path class="cls-1" d="M12.38,8.54l-.1,0a.22.22,0,0,0-.18.08l-.5.5a.23.23,0,0,0-.07.17v2a1.24,1.24,0,0,1-.37.89,1.22,1.22,0,0,1-.89.37H3.73a1.19,1.19,0,0,1-.89-.37,1.2,1.2,0,0,1-.37-.89V4.73a1.2,1.2,0,0,1,.37-.89,1.19,1.19,0,0,1,.89-.37h6.54a1.48,1.48,0,0,1,.35,0h.07a.24.24,0,0,0,.18-.07l.39-.39a.24.24,0,0,0,.07-.23.25.25,0,0,0-.14-.18,2.17,2.17,0,0,0-.92-.2H3.73a2.18,2.18,0,0,0-1.6.67,2.16,2.16,0,0,0-.67,1.6v6.54a2.16,2.16,0,0,0,.67,1.6,2.18,2.18,0,0,0,1.6.67h6.54a2.27,2.27,0,0,0,2.26-2.27V8.77A.23.23,0,0,0,12.38,8.54Z"/><polyline class="cls-2" points="5.86 6.52 7.86 8.52 13.86 4.52"/></svg>