<svg id="Layer_1" data-name="Layer 1" xmlns="http://www.w3.org/2000/svg" viewBox="0 0 16 16"><defs><style>.cls-1{fill:#186c05;}.cls-2{fill:#006009;}.cls-3{fill:#09a809;}</style></defs><path class="cls-1" d="M13.76,4.27a1.71,1.71,0,0,0,.15-2.21,1.62,1.62,0,0,0-2.39-.12l-.72.74a.23.23,0,0,1-.12.06h0a.16.16,0,0,1-.12-.06.8.8,0,0,0-1.1,0l-.74.75a.29.29,0,0,0,0,.42l.68.68L6.27,7.61A14,14,0,0,0,3.79,11a.32.32,0,0,0,.06.36l.54.53a.29.29,0,0,0,.36.06,13.15,13.15,0,0,0,3.4-2.47l3.07-3.08.69.69a.3.3,0,0,0,.41,0l.75-.75a.78.78,0,0,0,0-1.1.22.22,0,0,1,0-.27Zm-6,4.8a13.47,13.47,0,0,1-3,2.27l-.24-.24a11.89,11.89,0,0,1,2.27-3L9.79,5l1,1Zm4.92-3.43a.22.22,0,0,1,0,.27l-.53.53L9.31,3.64l.54-.54a.22.22,0,0,1,.27,0,.81.81,0,0,0,.56.24h0a.82.82,0,0,0,.57-.24l.69-.71a1,1,0,0,1,1.49.06,1.08,1.08,0,0,1-.12,1.4l-.69.68a.82.82,0,0,0-.24.57A.85.85,0,0,0,12.65,5.64Z"/><path class="cls-2" d="M2.47,13H6a0,0,0,0,1,0,0v2a0,0,0,0,1,0,0H2.55A.55.55,0,0,1,2,14.45v-1A.47.47,0,0,1,2.47,13Z"/><path class="cls-3" d="M6,13H9.52a.48.48,0,0,1,.48.48v1a.48.48,0,0,1-.48.48H6a0,0,0,0,1,0,0V13A0,0,0,0,1,6,13Z"/></svg>