<svg id="Layer_1" data-name="Layer 1" xmlns="http://www.w3.org/2000/svg" viewBox="0 0 16 16"><defs><style>.cls-1{fill:#006009;stroke-miterlimit:10;stroke-width:0.15px;}.cls-1,.cls-2{stroke:#006009;}.cls-2{fill:none;stroke-linecap:round;stroke-linejoin:round;stroke-width:0.98px;}</style></defs><path class="cls-1" d="M11.31,4h-.06a.13.13,0,0,0-.12,0l-.33.33a.16.16,0,0,0-.05.11V5.76a.8.8,0,0,1-.24.58.78.78,0,0,1-.58.24H5.65a.82.82,0,0,1-.82-.82V1.48A.78.78,0,0,1,5.07.9.8.8,0,0,1,5.65.66H9.93a.91.91,0,0,1,.23,0h.05a.21.21,0,0,0,.12,0L10.58.4a.17.17,0,0,0,0-.15.14.14,0,0,0-.09-.12A1.32,1.32,0,0,0,9.93,0H5.65a1.42,1.42,0,0,0-1,.43,1.44,1.44,0,0,0-.44,1.05V5.76A1.5,1.5,0,0,0,5.65,7.24H9.93A1.44,1.44,0,0,0,11,6.8a1.42,1.42,0,0,0,.43-1V4.12A.15.15,0,0,0,11.31,4Z"/><polyline class="cls-2" points="7.05 2.65 8.36 3.96 12.28 1.34"/><path class="cls-1" d="M11.18,12.74l-.06,0a.17.17,0,0,0-.12,0l-.33.33a.16.16,0,0,0-.05.11v1.31a.82.82,0,0,1-.82.82H5.52a.82.82,0,0,1-.58-.24.78.78,0,0,1-.24-.58V10.24a.8.8,0,0,1,.24-.58.82.82,0,0,1,.58-.24H9.8a.91.91,0,0,1,.23,0h.05a.16.16,0,0,0,.12-.05l.25-.25a.14.14,0,0,0,0-.15.18.18,0,0,0-.09-.12,1.47,1.47,0,0,0-.6-.13H5.52A1.5,1.5,0,0,0,4,10.24v4.28a1.44,1.44,0,0,0,.44,1.05,1.42,1.42,0,0,0,1,.43H9.8a1.47,1.47,0,0,0,1.48-1.48V12.89A.14.14,0,0,0,11.18,12.74Z"/><polyline class="cls-2" points="6.92 11.41 8.23 12.72 12.15 10.1"/></svg>