<svg id="Layer_1" data-name="Layer 1" xmlns="http://www.w3.org/2000/svg" viewBox="0 0 100 60"><defs><style>.cls-1{fill:#9ed7cb;}.cls-2{fill:#1d7c56;}</style></defs><rect class="cls-1" x="-4.3" y="-3.97" width="109.58" height="68.23"/><path class="cls-2" d="M105.15-3.84v68H-4.17v-68H105.15m.25-.25H-4.42V64.39H105.4V-4.09Z"/><path class="cls-2" d="M49.22,42.68a7,7,0,1,1-7,7,7,7,0,0,1,7-7m0-1a8,8,0,1,0,8,8,8,8,0,0,0-8-8Z"/><polygon class="cls-2" points="50.17 49.58 44.93 46.12 44.93 52.75 50.17 49.58"/><polygon class="cls-2" points="54.74 49.58 49.5 46.12 49.5 52.75 54.74 49.58"/></svg>