<svg id="Layer_1" data-name="Layer 1" xmlns="http://www.w3.org/2000/svg" viewBox="0 0 100 60"><defs><style>.cls-1{fill:#9ed7cb;}.cls-2{fill:#1d7c56;}</style></defs><rect class="cls-1" x="-4.3" y="-3.97" width="109.58" height="68.23"/><path class="cls-2" d="M105.15-3.84v68H-4.17v-68H105.15m.25-.25H-4.42V64.39H105.4V-4.09Z"/><path class="cls-2" d="M62.55,43.14v13h-24v-13h24m1-1h-26v15h26v-15Z"/><g id="_02f9f2c1-c5f9-4dfd-bbb7-918d15e8e05e" data-name="02f9f2c1-c5f9-4dfd-bbb7-918d15e8e05e"><path class="cls-2" d="M50.39,45.38A3.39,3.39,0,0,0,47,48.77c0,1.71,2.84,4.74,3.32,5.24a.09.09,0,0,0,.13,0h0c.48-.5,3.32-3.54,3.32-5.24A3.39,3.39,0,0,0,50.39,45.38Zm0,4.59a1.21,1.21,0,1,1,1.22-1.2A1.21,1.21,0,0,1,50.39,50Z"/></g></svg>