<svg id="Layer_1" data-name="Layer 1" xmlns="http://www.w3.org/2000/svg" viewBox="0 0 16 16"><defs><style>.cls-1,.cls-2{fill:#006009;stroke:#006009;stroke-miterlimit:10;}.cls-1{stroke-width:0.22px;}.cls-2{stroke-width:0.82px;}</style></defs><path class="cls-1" d="M5.86,10.66H9.61a.52.52,0,0,0,0-1H6.38V6.39a.52.52,0,0,0-1,0v3.75A.52.52,0,0,0,5.86,10.66Z"/><path class="cls-1" d="M5.49,10.51a.53.53,0,0,0,.74,0l7.4-7.4a.52.52,0,0,0-.37-.89.55.55,0,0,0-.37.15l-7.4,7.4A.53.53,0,0,0,5.49,10.51Z"/><path class="cls-2" d="M13.48,5.69a.52.52,0,0,0-.52.52V13H3V3H9.79a.52.52,0,0,0,0-1H2.52A.52.52,0,0,0,2,2.52v11a.52.52,0,0,0,.52.52h11a.52.52,0,0,0,.52-.52V6.21A.52.52,0,0,0,13.48,5.69Z"/></svg>