<svg id="Layer_1" data-name="Layer 1" xmlns="http://www.w3.org/2000/svg" viewBox="0 0 16 16"><defs><style>.cls-1,.cls-2,.cls-3{fill:#006009;}.cls-1,.cls-3{stroke:#006009;stroke-miterlimit:10;}.cls-1{stroke-width:0.25px;}.cls-3{stroke-width:0.5px;}</style></defs><path class="cls-1" d="M6.18,3.67H1.25a.48.48,0,0,0-.48.47v7.63a.48.48,0,0,0,.48.47H6.18a.47.47,0,0,0,.47-.47V4.14A.47.47,0,0,0,6.18,3.67ZM5.7,11.3h-4V4.62h4Z"/><path class="cls-2" d="M2.65,10.6H4.78a.47.47,0,0,0,0-.94H2.65a.47.47,0,1,0,0,.94Z"/><path class="cls-2" d="M2.65,8.43H4.78A.47.47,0,0,0,5.25,8a.48.48,0,0,0-.47-.48H2.65A.48.48,0,0,0,2.17,8,.47.47,0,0,0,2.65,8.43Z"/><path class="cls-2" d="M2.65,6.26H4.78a.48.48,0,0,0,.47-.48.47.47,0,0,0-.47-.47H2.65a.47.47,0,0,0-.48.47A.48.48,0,0,0,2.65,6.26Z"/><path class="cls-3" d="M14.73,5.39a.48.48,0,0,0-.57.36A5.63,5.63,0,0,1,10,10l.26-.26a.46.46,0,0,0,0-.67.48.48,0,0,0-.67,0L8.34,10.3a.48.48,0,0,0-.14.34.47.47,0,0,0,.14.33l1.22,1.22a.48.48,0,0,0,.34.14.47.47,0,0,0,.33-.14.46.46,0,0,0,0-.67l-.5-.5a6.52,6.52,0,0,0,3.1-1.39A6.65,6.65,0,0,0,15.09,6,.48.48,0,0,0,14.73,5.39Z"/></svg>