<svg id="Layer_1" data-name="Layer 1" xmlns="http://www.w3.org/2000/svg" viewBox="0 0 16 16"><defs><style>.cls-1{fill:none;stroke:#006009;stroke-linecap:square;stroke-miterlimit:10;stroke-width:1.5px;}.cls-2{fill:#006009;}</style></defs><rect class="cls-1" x="2.5" y="6.5" width="11" height="7" rx="0.98"/><path class="cls-2" d="M2.83,7.32a.6.6,0,0,1-.56-.38.61.61,0,0,1,.31-.82L12.71,2l.47,1.16L3.05,7.28A.85.85,0,0,1,2.83,7.32Z"/><path class="cls-2" d="M12.64,2.21l.37.92-10,4a.48.48,0,0,1-.61-.26l0-.05a.48.48,0,0,1,.26-.62l10-4m.14-.33L12.55,2l-10,4a.73.73,0,0,0-.4.39.7.7,0,0,0,0,.55V7a.73.73,0,0,0,.68.45.65.65,0,0,0,.27-.05l10-4,.23-.1L13.25,3l-.38-.93-.09-.23Z"/></svg>