<svg id="Layer_1" data-name="Layer 1" xmlns="http://www.w3.org/2000/svg" viewBox="0 0 16 16"><defs><style>.cls-1,.cls-2{fill:#006009;stroke:#006009;stroke-miterlimit:10;}.cls-1{stroke-width:0.82px;}.cls-2{stroke-width:0.82px;}</style></defs><path class="cls-1" d="M12.25,5H9.75a.25.25,0,0,1-.25-.25V2.25A.25.25,0,0,0,9.25,2h-5a.76.76,0,0,0-.75.75v10.5a.76.76,0,0,0,.75.75h7.5a.76.76,0,0,0,.75-.75v-8A.25.25,0,0,0,12.25,5ZM12,13.25a.25.25,0,0,1-.25.25H4.25A.25.25,0,0,1,4,13.25V2.75a.25.25,0,0,1,.25-.25H9V4.75a.76.76,0,0,0,.75.75H12Z"/><path class="cls-2" d="M12.39,5.07l-3-3a.26.26,0,0,0-.35,0,.25.25,0,0,0,0,.36l3,3a.23.23,0,0,0,.17.07.24.24,0,0,0,.18-.07A.25.25,0,0,0,12.39,5.07Z"/></svg>