<svg id="Layer_1" data-name="Layer 1" xmlns="http://www.w3.org/2000/svg" viewBox="0 0 16 16"><defs><style>.cls-1{fill:#006009;stroke:#006009;stroke-miterlimit:10;stroke-width:0.82px;}</style></defs><path class="cls-1" d="M13.93,6.77l-1-1a.25.25,0,0,0-.18-.08H12.5V5.39a.29.29,0,0,0-.07-.18l-2-2.09A3.11,3.11,0,0,0,8,2,3.06,3.06,0,0,0,5.57,3.12a.26.26,0,0,0-.05.28.26.26,0,0,0,.23.17c2,0,2.25.89,2.25,1.56a2,2,0,0,1-.65,1.36h0L2.38,11.67a1.37,1.37,0,0,0-.38,1A1.32,1.32,0,0,0,3.29,14a1.26,1.26,0,0,0,1-.44L8.92,8.2a3.5,3.5,0,0,1,1.58-.83v.37a.27.27,0,0,0,.07.18l1.25,1.31A.24.24,0,0,0,12,9.3h0a.25.25,0,0,0,.18-.08l1.75-2.09A.29.29,0,0,0,13.93,6.77ZM3.87,13.21a.78.78,0,0,1-.58.27.82.82,0,0,1-.79-.86A.83.83,0,0,1,2.73,12l4.77-5,.9,1ZM12,8.66l-1-1V7.22A.32.32,0,0,0,10.93,7c-.48-.49-1.56.19-2.15.63l-.92-1A2.39,2.39,0,0,0,8.5,5.13c0-1.22-.72-1.91-2.14-2.06A2.39,2.39,0,0,1,8,2.52a2.6,2.6,0,0,1,2.07,1L12,5.5v.41a.25.25,0,0,0,.25.26h.4l.76.8Z"/></svg>