<svg id="Layer_1" data-name="Layer 1" xmlns="http://www.w3.org/2000/svg" viewBox="0 0 16 16"><defs><style>.cls-1{fill:#006009;stroke:#006009;stroke-miterlimit:10;stroke-width:0.96px;}</style></defs><path class="cls-1" d="M12.83,9.54l-.61-.74a.29.29,0,0,0-.37-.06l-.81.5a.29.29,0,1,0,.31.49l.25-.16a4.06,4.06,0,0,1-1.32,2A3.49,3.49,0,0,1,7,12.26a3.88,3.88,0,0,1-1.75-1.13,4,4,0,0,1-.87-1.76A.28.28,0,0,0,4,9.15a.27.27,0,0,0-.22.34,4.41,4.41,0,0,0,3,3.32A3.93,3.93,0,0,0,8.05,13a4,4,0,0,0,2.59-.94,4.64,4.64,0,0,0,1.54-2.41l.21.26a.28.28,0,0,0,.22.1.28.28,0,0,0,.18-.06A.29.29,0,0,0,12.83,9.54Z"/><path class="cls-1" d="M4.18,7.32a.28.28,0,0,0,.15,0l.8-.5a.28.28,0,0,0,.09-.4.29.29,0,0,0-.39-.09l-.26.17A3.83,3.83,0,0,1,5.69,4.57a3.63,3.63,0,0,1,1.76-.93,3.54,3.54,0,0,1,2,.17A3.83,3.83,0,0,1,11.8,6.62a.3.3,0,0,0,.34.22.28.28,0,0,0,.22-.34,4.4,4.4,0,0,0-.92-1.92A4.47,4.47,0,0,0,9.62,3.27a4.13,4.13,0,0,0-2.28-.19,4.28,4.28,0,0,0-2,1.07A4.45,4.45,0,0,0,4,6.37l-.21-.26a.29.29,0,0,0-.45.37L4,7.22A.26.26,0,0,0,4.18,7.32Z"/></svg>