<svg id="Layer_1" data-name="Layer 1" xmlns="http://www.w3.org/2000/svg" viewBox="0 0 16 16"><defs><style>.cls-1{fill:#006009;stroke:#006009;stroke-miterlimit:10;stroke-width:0.38px;}</style></defs><path class="cls-1" d="M14.64,5.23a1.4,1.4,0,0,0-.82-.67,1.37,1.37,0,0,0-1.72.92,1.32,1.32,0,0,0,0,.71L10.58,7a2.87,2.87,0,0,0-2-1.18V4.54a1.4,1.4,0,0,0,1-1.34A1.39,1.39,0,1,0,7.89,4.54V5.81A2.87,2.87,0,0,0,5.6,7.56L4,7.12a1.42,1.42,0,0,0-.18-.69,1.36,1.36,0,0,0-.84-.64,1.38,1.38,0,0,0-1.56,2,1.43,1.43,0,0,0,.84.65,1.49,1.49,0,0,0,.36,0,1.4,1.4,0,0,0,.69-.19,1.36,1.36,0,0,0,.51-.5l1.63.44a2.56,2.56,0,0,0,0,.39A2.87,2.87,0,0,0,6,10.4L4.79,11.6a1.38,1.38,0,0,0-1.67,2.18,1.37,1.37,0,0,0,1,.4,1.37,1.37,0,0,0,1.19-2.07l1.2-1.2a2.87,2.87,0,0,0,1.76.61A2.82,2.82,0,0,0,10,10.91l1.2,1.2a1.38,1.38,0,0,0,1.2,2.07,1.36,1.36,0,0,0,1-.4,1.38,1.38,0,0,0-1.66-2.18l-1.2-1.2a2.81,2.81,0,0,0,.6-1.75,2.85,2.85,0,0,0-.19-1l1.49-.8A1.42,1.42,0,0,0,13,7.2a1.39,1.39,0,0,0,.4.06,1.33,1.33,0,0,0,.65-.16,1.39,1.39,0,0,0,.57-1.87Zm-.91,1.24a.67.67,0,0,1-.5,0,.72.72,0,0,1-.4-.33.67.67,0,0,1-.05-.5.67.67,0,0,1,.33-.39.55.55,0,0,1,.31-.08.66.66,0,0,1,.63.85A.67.67,0,0,1,13.73,6.47ZM10.39,8.65A2.15,2.15,0,1,1,8.25,6.51,2.15,2.15,0,0,1,10.39,8.65ZM7.58,3.2a.67.67,0,0,1,1.33,0,.67.67,0,0,1-1.33,0ZM2.41,7.76a.61.61,0,0,1-.4-.3A.7.7,0,0,1,1.94,7a.67.67,0,0,1,.81-.47.71.71,0,0,1,.41.31.7.7,0,0,1,.06.51A.65.65,0,0,1,2.41,7.76Zm2.16,5.51a.66.66,0,1,1,0-.94A.66.66,0,0,1,4.57,13.27Zm8.29-.94a.66.66,0,0,1,0,.94.65.65,0,0,1-.93,0,.66.66,0,0,1,0-.94.66.66,0,0,1,.93,0Z"/></svg>