<svg id="Layer_1" data-name="Layer 1" xmlns="http://www.w3.org/2000/svg" viewBox="0 0 16 16"><defs><style>.cls-1{fill:#006009;stroke:#006009;stroke-miterlimit:10;stroke-width:0.5px;}</style></defs><path class="cls-1" d="M4.41,5v6a1.33,1.33,0,1,0,.94,0V7.93l5.3,1.4V11a1.33,1.33,0,1,0,1.71.77,1.39,1.39,0,0,0-.77-.77V8.72a.16.16,0,0,0-.12-.15L5.35,7V5a1.33,1.33,0,1,0-1.71-.77A1.39,1.39,0,0,0,4.41,5Zm1.5,7.24a1,1,0,1,1-1-1A1,1,0,0,1,5.91,12.24Zm6.23,0a1,1,0,1,1-1-1h0a1,1,0,0,1,1,1Zm-7-5,6.12,1.61v2.1a1,1,0,0,0-.34,0V9.21a.14.14,0,0,0-.12-.14L5.24,7.6a.14.14,0,0,0-.18.1s0,0,0,0v3.19a1,1,0,0,0-.34,0V5.07a1,1,0,0,0,.34,0v2a.14.14,0,0,0,.12.14ZM4.88,2.73a1,1,0,1,1-1,1,1,1,0,0,1,1-1Z"/></svg>