<svg id="Layer_1" data-name="Layer 1" xmlns="http://www.w3.org/2000/svg" xmlns:xlink="http://www.w3.org/1999/xlink" viewBox="0 0 248.56 150"><defs><style>.cls-1{fill:url(#radial-gradient);}.cls-2{fill:#086e38;}.cls-3{fill:#fff;}.cls-4{fill:url(#radial-gradient-2);}</style><radialGradient id="radial-gradient" cx="226.78" cy="211.94" r="196.09" gradientTransform="translate(249.66 -69.87) rotate(90) scale(0.64 0.59)" gradientUnits="userSpaceOnUse"><stop offset="0.12" stop-color="#fff"/><stop offset="0.22" stop-color="#fafcfb"/><stop offset="0.34" stop-color="#ecf5f0"/><stop offset="0.46" stop-color="#d5e9dd"/><stop offset="0.58" stop-color="#b5d7c3"/><stop offset="0.71" stop-color="#8bc1a2"/><stop offset="0.84" stop-color="#58a678"/><stop offset="0.98" stop-color="#1d8649"/><stop offset="1" stop-color="#128040"/></radialGradient><radialGradient id="radial-gradient-2" cx="40.84" cy="-51.72" r="56.33" gradientTransform="translate(72.28 34.16) rotate(90)" gradientUnits="userSpaceOnUse"><stop offset="0.42" stop-color="#77cefa" stop-opacity="0"/><stop offset="0.49" stop-color="#72caf0" stop-opacity="0.05"/><stop offset="0.6" stop-color="#62bed4" stop-opacity="0.21"/><stop offset="0.74" stop-color="#49aba6" stop-opacity="0.45"/><stop offset="0.88" stop-color="#279066" stop-opacity="0.8"/><stop offset="0.96" stop-color="#128040"/></radialGradient></defs><rect class="cls-1" x="0.22" y="59.75" width="247.56" height="30.51"/><path class="cls-2" d="M247.28,60.25v29.5H.72V60.25H247.28m1-1H-.28v31.5H248.28V59.25Z"/><circle class="cls-3" cx="123.94" cy="74.92" r="54.89"/><circle class="cls-4" cx="124" cy="75" r="56.33"/><path class="cls-2" d="M105.23,102.33h38.08a2.69,2.69,0,0,0,2.86-2.49V71.69a2.7,2.7,0,0,0-2.86-2.49h-.95V61.75c0-7.76-9.16-14.08-18.09-14.08S106.18,54,106.18,61.75V69.2h-1a2.7,2.7,0,0,0-2.86,2.49V99.84A2.69,2.69,0,0,0,105.23,102.33Zm6.66-40.58c0-5,6.61-9.11,12.38-9.11s12.38,4.09,12.38,9.11V69.2H111.89Z"/></svg>