<svg id="Layer_1" data-name="Layer 1" xmlns="http://www.w3.org/2000/svg" xmlns:xlink="http://www.w3.org/1999/xlink" viewBox="0 0 248.56 150"><defs><style>.cls-1{fill:url(#radial-gradient);}.cls-2{fill:#086e38;}.cls-3{fill:#fff;}.cls-4{fill:url(#radial-gradient-2);}</style><radialGradient id="radial-gradient" cx="356.39" cy="250.55" r="196.09" gradientTransform="matrix(0, 0.64, -0.59, 0, 272.83, -153.31)" gradientUnits="userSpaceOnUse"><stop offset="0.12" stop-color="#fff"/><stop offset="0.22" stop-color="#fafcfb"/><stop offset="0.34" stop-color="#ecf5f0"/><stop offset="0.46" stop-color="#d5e9dd"/><stop offset="0.58" stop-color="#b5d7c3"/><stop offset="0.71" stop-color="#8bc1a2"/><stop offset="0.84" stop-color="#58a678"/><stop offset="0.98" stop-color="#1d8649"/><stop offset="1" stop-color="#128040"/></radialGradient><radialGradient id="radial-gradient-2" cx="124.28" cy="77.72" r="56.33" gradientTransform="translate(199.28 -49.28) rotate(90)" gradientUnits="userSpaceOnUse"><stop offset="0.42" stop-color="#77cefa" stop-opacity="0"/><stop offset="0.49" stop-color="#72caf0" stop-opacity="0.05"/><stop offset="0.6" stop-color="#62bed4" stop-opacity="0.21"/><stop offset="0.74" stop-color="#49aba6" stop-opacity="0.45"/><stop offset="0.88" stop-color="#279066" stop-opacity="0.8"/><stop offset="0.96" stop-color="#128040"/></radialGradient></defs><rect class="cls-1" x="0.5" y="59.11" width="247.56" height="30.5"/><path class="cls-2" d="M247.56,59.61v29.5H1V59.61H247.56m1-1H0v31.5H248.56V58.61Z"/><circle class="cls-3" cx="121.5" cy="74.92" r="54.89"/><circle class="cls-4" cx="121.56" cy="75" r="56.33"/><path class="cls-2" d="M115.57,102a3,3,0,0,0,3,3h6a3,3,0,0,0,3-3V98.67h0a24.13,24.13,0,0,0,6.49-2.7l2.34,2.33a3,3,0,0,0,4.2,0L144.87,94a3,3,0,0,0,0-4.2l-2.33-2.33A24.25,24.25,0,0,0,145.23,81s1.72,0,3.36,0a3,3,0,0,0,2.95-3V72a3,3,0,0,0-3-3l-3.25,0a21.81,21.81,0,0,0-2.75-6.65l2.32-2.31a3,3,0,0,0,0-4.2l-4.28-4.29a3,3,0,0,0-4.2,0l-2.33,2.33a24.11,24.11,0,0,0-6.49-2.69s0,0,0,0V48a3,3,0,0,0-3-3h-6a3,3,0,0,0-3,3v3.23l.35-.08-.33.08A24,24,0,0,0,109,53.94l-2.33-2.33a3,3,0,0,0-4.2,0l-4.28,4.28a3,3,0,0,0,0,4.2l2.33,2.32a24.17,24.17,0,0,0-2.74,6.65l-3.21,0a3,3,0,0,0-3,3v6a3,3,0,0,0,3,3l3.3,0a24.56,24.56,0,0,0,2.68,6.44l-2.32,2.32a3,3,0,0,0,0,4.2l4.27,4.28a3,3,0,0,0,4.2,0L109,96a24.65,24.65,0,0,0,6.58,2.73c.11,0,.1,0,0,0V102ZM105.3,75a16.24,16.24,0,1,1,16.23,16.24A16.23,16.23,0,0,1,105.3,75Z"/></svg>