<svg id="Layer_1" data-name="Layer 1" xmlns="http://www.w3.org/2000/svg" xmlns:xlink="http://www.w3.org/1999/xlink" viewBox="0 0 60 60"><defs><style>.cls-1{fill:#fff;}.cls-2{fill:url(#radial-gradient);}.cls-3{fill:#086e38;}</style><radialGradient id="radial-gradient" cx="30" cy="30" r="29.56" gradientUnits="userSpaceOnUse"><stop offset="0.42" stop-color="#77cefa" stop-opacity="0"/><stop offset="0.49" stop-color="#72caf0" stop-opacity="0.05"/><stop offset="0.6" stop-color="#62bed4" stop-opacity="0.21"/><stop offset="0.74" stop-color="#49aba6" stop-opacity="0.45"/><stop offset="0.88" stop-color="#279066" stop-opacity="0.8"/><stop offset="0.96" stop-color="#128040"/></radialGradient></defs><circle class="cls-1" cx="29.96" cy="30.03" r="28.8"/><circle class="cls-2" cx="30" cy="30" r="29.56"/><path class="cls-3" d="M44.17,33.14a1.56,1.56,0,0,0,1.56-1.56V28.41a1.56,1.56,0,0,0-1.56-1.56H42.41A12.72,12.72,0,0,0,41,23.44l1.22-1.23a1.57,1.57,0,0,0,0-2.2L40,17.77a1.53,1.53,0,0,0-1.1-.46,1.57,1.57,0,0,0-1.1.46L36.55,19a12.92,12.92,0,0,0-3.38-1.41s0-.9,0-1.76a1.55,1.55,0,0,0-1.56-1.55H28.42a1.55,1.55,0,0,0-1.56,1.57l0,1.7A11.75,11.75,0,0,0,23.39,19l-1.21-1.21a1.55,1.55,0,0,0-1.11-.46,1.57,1.57,0,0,0-1.1.46L17.73,20a1.56,1.56,0,0,0,0,2.21L19,23.44a12.75,12.75,0,0,0-1.42,3.4h-1.7a1.56,1.56,0,0,0-1.56,1.56v3.18a1.56,1.56,0,0,0,1.56,1.56h1.69c0-.07,0-.12,0-.19s0,.12,0,.18A12.64,12.64,0,0,0,19,36.59l-1.22,1.22a1.57,1.57,0,0,0-.46,1.1A1.59,1.59,0,0,0,17.73,40L20,42.26a1.56,1.56,0,0,0,2.21,0L23.4,41a12.85,12.85,0,0,0,3.48,1.44v1.68a1.55,1.55,0,0,0,1.55,1.57H31.6a1.57,1.57,0,0,0,1.56-1.55c0-.85,0-1.73,0-1.73A12.86,12.86,0,0,0,36.55,41l1.22,1.22a1.56,1.56,0,0,0,2.21,0L42.22,40a1.56,1.56,0,0,0,0-2.2L41,36.59a13,13,0,0,0,1.43-3.45c0-.06,0,0,0,0h1.74ZM30,38.53A8.52,8.52,0,1,1,38.49,30,8.52,8.52,0,0,1,30,38.53Z"/></svg>