<svg id="Layer_1" data-name="Layer 1" xmlns="http://www.w3.org/2000/svg" xmlns:xlink="http://www.w3.org/1999/xlink" viewBox="0 0 150 248.56"><defs><style>.cls-1{fill:url(#radial-gradient);}.cls-2{fill:#086e38;}.cls-3{fill:#fff;}.cls-4{fill:url(#radial-gradient-2);}</style><radialGradient id="radial-gradient" cx="64.39" cy="606.22" r="196.09" gradientTransform="translate(33.23 -235.15) scale(0.64 0.59)" gradientUnits="userSpaceOnUse"><stop offset="0.12" stop-color="#fff"/><stop offset="0.22" stop-color="#fafcfb"/><stop offset="0.34" stop-color="#ecf5f0"/><stop offset="0.46" stop-color="#d5e9dd"/><stop offset="0.58" stop-color="#b5d7c3"/><stop offset="0.71" stop-color="#8bc1a2"/><stop offset="0.84" stop-color="#58a678"/><stop offset="0.98" stop-color="#1d8649"/><stop offset="1" stop-color="#128040"/></radialGradient><radialGradient id="radial-gradient-2" cx="74.36" cy="124.28" r="56.33" gradientUnits="userSpaceOnUse"><stop offset="0.42" stop-color="#77cefa" stop-opacity="0"/><stop offset="0.49" stop-color="#72caf0" stop-opacity="0.05"/><stop offset="0.6" stop-color="#62bed4" stop-opacity="0.21"/><stop offset="0.74" stop-color="#49aba6" stop-opacity="0.45"/><stop offset="0.88" stop-color="#279066" stop-opacity="0.8"/><stop offset="0.96" stop-color="#128040"/></radialGradient></defs><rect class="cls-1" x="59.11" y="0.5" width="30.5" height="247.56"/><path class="cls-2" d="M89.11,1V247.56H59.61V1h29.5m1-1H58.61V248.56h31.5V0Z"/><circle class="cls-3" cx="74.28" cy="124.33" r="54.89"/><circle class="cls-4" cx="74.36" cy="124.28" r="56.33"/><path class="cls-2" d="M55.32,151.33H93.4a2.69,2.69,0,0,0,2.86-2.48V120.69a2.69,2.69,0,0,0-2.86-2.48h-1v-7.45c0-7.77-9.17-14.08-18.09-14.08S56.27,103,56.27,110.76v7.45h-1a2.69,2.69,0,0,0-2.86,2.48v28.16A2.69,2.69,0,0,0,55.32,151.33ZM62,110.76c0-5,6.6-9.11,12.38-9.11s12.38,4.08,12.38,9.11v7.45H62Z"/></svg>