<svg id="Layer_1" data-name="Layer 1" xmlns="http://www.w3.org/2000/svg" viewBox="0 0 16 16"><defs><style>.cls-1{fill:#006009;stroke:#006009;stroke-miterlimit:10;stroke-width:0.78px;}</style></defs><path class="cls-1" d="M12.93,9.89a.41.41,0,0,0-.41.41v2.47a.42.42,0,0,1-.41.41H3.89a.42.42,0,0,1-.41-.41V10.3a.41.41,0,0,0-.41-.41.42.42,0,0,0-.41.41v2.47A1.23,1.23,0,0,0,3.89,14h8.22a1.23,1.23,0,0,0,1.23-1.23V10.3A.42.42,0,0,0,12.93,9.89Z"/><path class="cls-1" d="M6.09,6.3a.38.38,0,0,0,.47,0l1.1-1v5.76a.32.32,0,0,0,.34.3.32.32,0,0,0,.34-.3V5.33l1.1,1a.38.38,0,0,0,.48,0,.28.28,0,0,0,0-.41L8.24,4.42a.37.37,0,0,0-.48,0h0L6.08,5.89A.26.26,0,0,0,6.09,6.3Z"/></svg>