<svg id="Layer_1" data-name="Layer 1" xmlns="http://www.w3.org/2000/svg" viewBox="0 0 16 16"><defs><style>.cls-1{fill:#006009;stroke:#006009;stroke-miterlimit:10;stroke-width:0.35px;}</style></defs><path class="cls-1" d="M12.25,3.93a5.88,5.88,0,1,0-8.32,8.3h0l.1.09.29.26.16.12.29.2L5,13l.27.16.24.11.27.13.27.1.26.09.3.07a1.83,1.83,0,0,0,.25.06l.35.06.22,0a5.62,5.62,0,0,0,1.16,0l.22,0,.35-.06.25-.06.3-.07.26-.09.27-.1.27-.13.24-.11L11,13l.21-.13.29-.2.16-.12.29-.26.1-.09h0A5.87,5.87,0,0,0,12.25,3.93Zm-.95,7.86a2.11,2.11,0,0,1-.23.19l-.14.11-.23.16-.18.1-.22.13-.21.1-.22.09-.23.09-.21.07-.26.07-.2,0L8.66,13l-.17,0A4,4,0,0,1,8,13a3.91,3.91,0,0,1-.49,0l-.17,0L7,12.94l-.2,0-.26-.07-.21-.07-.24-.09-.21-.09-.21-.1-.22-.13-.18-.1-.23-.16L4.93,12l-.24-.19-.05,0A3.37,3.37,0,0,1,6.93,8.6a2.51,2.51,0,0,0,2.14,0,3.37,3.37,0,0,1,2.29,3.14ZM6.53,5.49A1.68,1.68,0,0,1,9.46,7.13a1.64,1.64,0,0,1-.64.64h0a1.35,1.35,0,0,1-.35.14l-.06,0a.61.61,0,0,1-.13,0A2.13,2.13,0,0,1,8,8H8a2,2,0,0,1-.24,0,.61.61,0,0,1-.13,0l-.07,0a1.51,1.51,0,0,1-.35-.14h0A1.68,1.68,0,0,1,6.53,5.49Zm5.57,5.42h0A4.21,4.21,0,0,0,9.85,8,2.52,2.52,0,1,0,6.14,8a4.21,4.21,0,0,0-2.25,2.89,5,5,0,1,1,8.21,0Z"/></svg>