<svg width="62" height="62" viewBox="0 0 62 62" xmlns="http://www.w3.org/2000/svg"><g fill="#7D7D7D" fill-rule="nonzero"><path d="M33.872 34.687l16.69 16.69a.896.896 0 001.272 0 .898.898 0 000-1.27l-16.69-16.691a.898.898 0 10-1.272 1.27zM19.587 19.131a.898.898 0 000 1.27l4.508 4.509a.895.895 0 001.271 0 .898.898 0 000-1.27l-4.508-4.509a.898.898 0 00-1.27 0z"/><path d="M30.218 34.798l14.475-16.02 1.077.967c.31.278.7.415 1.087.415.445 0 .889-.18 1.21-.535l.284-.315 1.013.915-.402.445a2.433 2.433 0 00-.63 1.767c.034.653.32 1.255.805 1.694l2.44 2.204a2.431 2.431 0 001.767.63 2.434 2.434 0 001.694-.805l5.415-5.994a2.454 2.454 0 00-.175-3.46l-2.44-2.205a2.437 2.437 0 00-1.766-.63c-.621.032-1.195.291-1.627.733l-1.014-.916.365-.405a1.63 1.63 0 00-.115-2.3l-8.11-7.338C43.369 1.656 40.498.405 37.486.121 34.483-.16 31.66.538 29.538 2.09a1.626 1.626 0 00-.623 1.698 1.625 1.625 0 001.328 1.227c6.143.976 7.812 2.955 8.244 3.76.436.815.408 1.738-.086 2.82a1.623 1.623 0 00.063 1.482l-14.511 16.06a1.868 1.868 0 00-2.311.367l-1.077 1.192a1.867 1.867 0 00-.122 2.348l-3.75 2.652-.016.012a28.602 28.602 0 00-4.173 3.789L1.758 51.389a5.778 5.778 0 00.413 8.152 5.729 5.729 0 004.161 1.482 5.731 5.731 0 003.99-1.895l10.746-11.893a28.605 28.605 0 003.348-4.535l.01-.017 2.259-3.998a1.846 1.846 0 001.036.252 1.852 1.852 0 001.288-.611l1.077-1.192a1.85 1.85 0 00.478-1.344 1.85 1.85 0 00-.346-.992zm-1.305-1.236l-3.598-3.251 14.43-15.972 3.61 3.239-14.442 15.984zm27.25-17.895a.65.65 0 01.47.168l2.44 2.204a.653.653 0 01.047.922l-5.415 5.994a.65.65 0 01-.923.047l-2.44-2.205a.653.653 0 01-.047-.922l5.416-5.993a.648.648 0 01.451-.215zm-2.925.27L50.57 18.89l-1.013-.915 2.67-2.954 1.012.915zM30.937 3.307C34.676.87 40.6 1.577 44.365 4.978l7.985 7.225-5.504 6.092-6.76-6.065c.684-1.563.679-3.01-.015-4.304-1.543-2.876-6.215-4.114-9.134-4.619zm-8.07 38.482a26.815 26.815 0 01-3.133 4.24L8.99 57.923a3.948 3.948 0 01-2.748 1.305 3.948 3.948 0 01-2.865-1.02 3.947 3.947 0 01-1.304-2.747 3.947 3.947 0 011.02-2.865l10.746-11.893a26.839 26.839 0 013.902-3.544l4.037-2.855 3.521 3.182-2.432 4.304zm5.885-5.86l-1.077 1.191a.062.062 0 01-.045.022c-.028-.002-.043-.012-.048-.017l-5.678-5.13a.067.067 0 01-.005-.094l1.077-1.191a.066.066 0 01.093-.005l5.678 5.13c.005.005.02.019.022.046a.061.061 0 01-.017.048z"/><path d="M4.04 19.7c2.336 1.89 5.486 2.674 8.643 2.152 1.293-.214 2.632.226 3.583 1.177l4.21 4.21a.895.895 0 001.27 0 .899.899 0 000-1.272l-4.208-4.21c-1.361-1.36-3.285-1.987-5.148-1.679-2.651.44-5.283-.208-7.22-1.775a9.104 9.104 0 01-3.369-7.342l5.42 4.385a3.531 3.531 0 004.962-.524l2.49-3.076a3.507 3.507 0 00.766-2.59 3.504 3.504 0 00-1.29-2.373L8.73 2.398a9.07 9.07 0 018.151 1.987c1.978 1.727 3.05 4.36 2.94 7.223-.066 1.703.57 3.353 1.744 4.527l5.495 5.496a.9.9 0 001.27-1.272l-5.495-5.495c-.82-.82-1.264-1.982-1.218-3.187.13-3.409-1.165-6.56-3.554-8.646A10.862 10.862 0 007.844.775 1.587 1.587 0 006.728 1.99a1.59 1.59 0 00.56 1.555l5.73 4.636c.36.29.584.704.633 1.164.049.46-.085.91-.376 1.27l-2.489 3.077c-.6.742-1.692.857-2.434.257l-5.73-4.636a1.593 1.593 0 00-2.593 1.12 10.903 10.903 0 004.01 9.267zM59.83 51.859L38.106 30.136a.9.9 0 00-1.271 1.271L58.559 53.13a3.416 3.416 0 010 4.824 3.414 3.414 0 01-4.824 0L33.256 37.478a.899.899 0 00-1.271 1.27l20.479 20.479a5.191 5.191 0 003.682 1.523 5.192 5.192 0 003.683-1.524 5.215 5.215 0 000-7.366z"/></g></svg>