<svg width="784" height="328" viewBox="0 0 784 328" xmlns="http://www.w3.org/2000/svg"><g fill="none" fill-rule="evenodd"><path fill="#FFF" d="M182.543 103.745l-18.229 10.86v14.12l21.041-13.08z"/><path d="M165.315 115.174v11.75l18.9-11.75-2.332-9.872-16.569 9.872zm-2 15.349v-16.486l19.887-11.849 3.292 13.926-23.18 14.409z" fill="#43566B"/><path fill="#FFF" d="M160.097 117.049v14.662l4.989 3.258 6.924-1.731v-23.217z"/><path d="M161.097 131.17l4.17 2.723 5.742-1.436v-20.685l-9.912 5.848v13.55zm3.809 4.875l-5.81-3.793v-15.774l13.913-8.208v25.75l-8.103 2.025z" fill="#43566B"/><path fill="#FFF" d="M201.387 103.745l18.23 10.86v14.12l-21.042-13.08z"/><path d="M199.714 115.174l18.9 11.75v-11.75l-16.567-9.872-2.333 9.872zm20.9 15.35l-23.177-14.41 3.292-13.925 19.886 11.849v16.486z" fill="#43566B"/><path fill="#FFF" d="M223.833 117.049v14.662l-4.988 3.258-6.924-1.731v-23.217z"/><path d="M212.92 132.457l5.743 1.436 4.17-2.724V117.62l-9.912-5.848v20.685zm6.106 3.588l-8.105-2.026V108.27l13.912 8.208v15.773l-5.807 3.794z" fill="#43566B"/><path d="M91.276 81.195c-2.272-29.699-6.274-48.441-16.647-72.26-.472-1.082-1.288-1.965-2.468-1.965s-1.996.883-2.468 1.965C59.321 32.754 55.32 51.496 53.047 81.195" fill="#FFF"/><path d="M54.642 81.317l-3.19-.243c2.376-31.072 6.61-49.437 16.774-72.78.808-1.857 2.243-2.924 3.935-2.924 1.692 0 3.126 1.067 3.934 2.926 10.168 23.346 14.4 41.71 16.776 72.778l-3.192.243C87.337 50.653 83.167 32.55 73.161 9.573c-.162-.376-.51-1.003-1-1.003s-.837.627-1 1.002C61.156 32.546 56.988 50.648 54.642 81.317"/><path d="M72.161 85.757c-10.555 0-19.114-2.041-19.114-4.561 0-2.519 8.559-4.562 19.114-4.562 10.557 0 19.115 2.043 19.115 4.562 0 2.52-8.558 4.561-19.115 4.561" fill="#FFF"/><path d="M54.747 81.195c1.137 1.146 7.42 2.962 17.414 2.962 9.995 0 16.277-1.816 17.415-2.962-1.138-1.145-7.42-2.961-17.415-2.961s-16.277 1.816-17.414 2.961m17.414 6.162c-2.12 0-20.715-.173-20.715-6.162 0-5.988 18.595-6.161 20.715-6.161 2.12 0 20.714.173 20.714 6.161 0 5.99-18.594 6.162-20.714 6.162" fill="#43566B"/><path d="M72.161 83.15c-7.517 0-12.778-1.046-15.254-1.955 2.476-.907 7.739-1.954 15.254-1.954 7.517 0 12.78 1.047 15.256 1.954-2.477.909-7.74 1.955-15.256 1.955" fill="#BFDEFF"/><path d="M72.161 127.519c-8.328-17.237-19.222-47.41 0-47.41 21.168 0 6.406 34.152 0 47.41" fill="#00A0D8"/><path d="M72.191 113.617c-5.77-14.934-5.928-23.483-4.121-26.36.293-.467.977-1.558 4.091-1.558 3.387 0 4.112 1.149 4.42 1.64 1.847 2.944 1.524 11.34-4.39 26.278" fill="#FFF"/><path d="M78.616 43.41a6.67 6.67 0 01-6.672 6.67 6.672 6.672 0 116.672-6.67M53.398 93.642l-3.163-.496.496-3.161 3.163.496-.496 3.161zm-.992 6.323l-3.163-.496.496-3.161 3.162.496-.495 3.161zm-.992 6.324l-3.163-.498.498-3.162 3.161.498-.496 3.162zm-.992 6.321l-3.163-.496.498-3.161 3.161.496-.496 3.161zm-.99 6.323l-3.163-.496.496-3.161 3.161.496-.494 3.161zm-.994 6.322l-3.161-.494.494-3.162 3.163.494-.496 3.162zm-.992 6.323l-3.161-.496.496-3.161 3.163.496-.498 3.161zm-.99 6.323l-3.162-.496.495-3.161 3.163.496-.496 3.161zm-.992 6.322l-3.163-.494.496-3.162 3.163.494-.496 3.162zm-.992 6.323l-3.163-.496.496-3.161 3.161.496-.494 3.161zm-.992 6.323l-3.163-.496.497-3.163 3.162.498-.496 3.161zm-.99 6.324l-3.164-.498.496-3.16 3.162.496-.494 3.162zm-.992 6.321l-3.164-.494.496-3.162 3.162.493-.494 3.163zm-.994 6.323l-3.162-.496.496-3.161 3.164.496-.498 3.161zm-.992 6.324l-3.162-.496.496-3.164 3.164.498-.498 3.162zm-.99 6.321l-3.162-.496.494-3.161 3.164.497-.496 3.16zm-.992 6.323l-3.164-.494.496-3.163 3.164.494-.496 3.163zm-.992 6.324l-3.164-.498.498-3.16 3.162.496-.496 3.162zm-.99 6.321l-3.164-.494.496-3.162 3.162.493-.495 3.163zm-.993 6.323l-3.163-.497.496-3.16 3.162.496-.495 3.161zm-.992 6.322l-3.163-.493.496-3.163 3.162.494-.495 3.162zm-.993 6.323l-3.162-.496.496-3.161 3.163.497-.497 3.16zm-.99 6.323l-3.162-.494.494-3.163 3.163.494-.496 3.163zm-.993 6.324l-3.161-.498.494-3.16 3.163.496-.496 3.162zm-.992 6.323l-3.163-.498.498-3.16 3.163.496-.498 3.162zm-.992 6.321l-3.163-.497.498-3.16 3.161.496-.496 3.161zm-.99 6.324l-3.163-.496.496-3.162 3.161.498-.494 3.16zm-.992 6.321l-3.163-.496.496-3.161 3.161.497-.494 3.16zm-.992 6.323l-3.163-.496.497-3.161 3.162.497-.496 3.16zM92.208 93.627l-.455-3.166 3.168-.456.455 3.168-3.168.454zm.909 6.335l-.455-3.167 3.17-.454.454 3.166-3.17.455zm.91 6.336l-.454-3.168 3.168-.455.454 3.168-3.168.455zm.909 6.334l-.455-3.166 3.168-.455.456 3.167-3.17.454zm.909 6.336l-.455-3.168 3.17-.454.454 3.168-3.17.454zm.91 6.335l-.454-3.168 3.168-.455.454 3.168-3.168.455zm.909 6.336l-.455-3.168 3.168-.455.456 3.168-3.17.455zm.91 6.334l-.456-3.168 3.17-.454.454 3.168-3.168.454zm.909 6.334l-.454-3.166 3.168-.454.454 3.166-3.168.454zm.909 6.336l-.455-3.168 3.17-.454.454 3.168-3.17.454zm.91 6.335l-.456-3.167 3.17-.454.454 3.166-3.168.455zm.909 6.336l-.454-3.167 3.168-.456.454 3.167-3.168.456zm.909 6.334l-.455-3.166 3.17-.456.454 3.166-3.17.456zm.91 6.336l-.456-3.166 3.17-.458.454 3.168-3.168.456zm.91 6.335l-.455-3.167 3.168-.457.456 3.168-3.168.456zm.91 6.336l-.455-3.167 3.17-.457.454 3.168-3.17.456zm.91 6.334l-.455-3.166 3.168-.458.455 3.168-3.168.456zm.909 6.334l-.455-3.168 3.168-.454.456 3.17-3.17.452zm.908 6.336l-.454-3.166 3.17-.458.454 3.168-3.17.456zm.91 6.335l-.454-3.167 3.168-.457.455 3.168-3.168.456zm.91 6.336l-.455-3.168 3.168-.456.456 3.168-3.17.456zm.91 6.334l-.456-3.168 3.17-.456.454 3.168-3.168.456zm.909 6.336l-.455-3.168 3.168-.456.455 3.168-3.168.456zm.909 6.335l-.455-3.168 3.17-.456.454 3.168-3.17.456zm.91 6.334l-.456-3.17 3.17-.452.454 3.17-3.168.452zm.909 6.336l-.455-3.168 3.168-.456.455 3.168-3.168.456zm.909 6.334l-.455-3.17 3.17-.452.454 3.17-3.17.452zm.91 6.336l-.454-3.168 3.168-.456.454 3.168-3.168.456zm.909 6.335l-.455-3.168 3.168-.456.456 3.168-3.17.456zm.909 6.336l-.455-3.168 3.17-.456.454 3.168-3.17.456zm.91 6.334l-.454-3.168 3.168-.456.454 3.168-3.168.456zm.909 6.335l-.455-3.17 3.168-.453.456 3.168-3.17.455zm.598 4.168l-.144-1 3.17-.456.144 1-3.17.456z" fill="#00A0D8"/><path d="M80.237 158.334l-.47-3.165 3.166-.47.47 3.164-3.166.47zm.943 6.332l-.472-3.166 3.165-.472.472 3.166-3.165.472zm.94 6.328l-.47-3.166 3.165-.469.47 3.167-3.164.468zm.943 6.333l-.472-3.166 3.165-.472.472 3.166-3.165.472zm.94 6.328l-.47-3.166 3.165-.469.47 3.166-3.164.47zm.942 6.331l-.472-3.164 3.166-.472.472 3.164-3.166.472zm.94 6.33l-.47-3.166 3.166-.47.47 3.167-3.166.469zm.941 6.331l-.47-3.165 3.166-.472.47 3.165-3.166.472zm.943 6.33l-.47-3.167 3.166-.468.47 3.166-3.166.469zm.94 6.331l-.47-3.165 3.165-.472.47 3.165-3.165.472zm.943 6.33l-.47-3.167 3.164-.469.47 3.167-3.164.469zm.94 6.33l-.47-3.167 3.165-.467.47 3.164-3.164.47zm.943 6.33l-.47-3.166 3.164-.467.47 3.165-3.164.468zM63.955 159.424l-3.167-.47.47-3.166 3.167.47-.47 3.166zm-.943 6.33l-3.164-.471.472-3.165 3.164.472-.472 3.165zm-.94 6.33l-3.165-.468.47-3.165 3.165.469-.47 3.164zm-.943 6.332l-3.165-.472.472-3.165 3.165.472-.472 3.165zm-.94 6.33l-3.165-.47.47-3.164 3.165.468-.47 3.165zm-.94 6.329l-3.166-.47.47-3.164 3.167.469-.47 3.165zm-.942 6.33l-3.167-.471.47-3.163 3.167.472-.47 3.163zm-.941 6.33l-3.166-.468.47-3.165 3.166.469-.47 3.165zm-.942 6.332l-3.167-.472.47-3.163 3.167.472-.47 3.163zm-.941 6.33l-3.165-.47.47-3.164 3.165.469-.47 3.164zm-.943 6.33l-3.164-.47.472-3.165 3.164.472-.472 3.164zm-.94 6.33l-3.165-.467.47-3.166 3.165.468-.47 3.165zm-.943 6.333l-3.165-.472.472-3.166 3.165.472-.472 3.166z" fill="#BFDEFF"/><path fill="#00A0D8" d="M353.38 165.784h3.2v-1.6h-3.2zM353.38 79.238h3.2v-3.145h-3.2v3.145zm0 6.293h3.2v-3.145h-3.2v3.145zm0 6.293h3.2v-3.146h-3.2v3.146zm0 6.293h3.2V94.97h-3.2v3.146zm0 6.291h3.2v-3.146h-3.2v3.146zm0 6.293h3.2v-3.146h-3.2v3.146zm0 6.293h3.2v-3.146h-3.2v3.146zm0 6.29h3.2v-3.145h-3.2v3.146zm0 6.294h3.2v-3.146h-3.2v3.146zm0 6.29h3.2v-3.145h-3.2v3.146zm0 6.295h3.2v-3.145h-3.2v3.145zm0 6.291h3.2v-3.145h-3.2v3.145zm0 6.293h3.2v-3.145h-3.2v3.145zm0 6.291h3.2v-3.145h-3.2v3.145zM353.38 72.946h3.2v-1.6h-3.2z"/><path fill="#FFF" d="M343.784 55.152h22.39v-5.176h-22.39z"/><path d="M345.384 53.552h19.19v-1.976h-19.19v1.976zm-3.2 3.2h25.59v-8.376h-25.59v8.376zM366.175 63.079a7.486 7.486 0 01-7.485 7.485h-7.42a7.485 7.485 0 01-7.485-7.485v-1.291h22.39v1.29z"/><path d="M345.392 63.388a5.893 5.893 0 005.877 5.576h7.422a5.891 5.891 0 005.876-5.576h-19.175zm13.3 8.776h-7.423c-5.01 0-9.085-4.076-9.085-9.085v-2.891h25.59v2.89c0 5.01-4.075 9.086-9.083 9.086zM343.784 43.716h22.59v-.678c0-4.75 1.415-9.344 4.078-13.28a18.381 18.381 0 003.163-10.334c0-10.237-8.3-18.536-18.536-18.536-10.237 0-18.535 8.299-18.535 18.536 0 3.83 1.167 7.385 3.162 10.334a23.735 23.735 0 014.078 13.28v.678z" fill="#FFF"/><path d="M345.367 42.116h19.424c.17-4.736 1.661-9.3 4.336-13.254a16.794 16.794 0 002.887-9.438c0-9.34-7.597-16.936-16.936-16.936-9.338 0-16.935 7.596-16.935 16.936 0 3.382.999 6.644 2.888 9.438a25.2 25.2 0 014.336 13.254zm22.607 3.2h-25.79v-2.278c0-4.42-1.316-8.702-3.802-12.384a19.97 19.97 0 01-3.439-11.23c0-11.103 9.034-20.136 20.135-20.136 11.104 0 20.136 9.033 20.136 20.136 0 4.022-1.19 7.905-3.437 11.23a22.034 22.034 0 00-3.803 12.384v2.278z"/><path fill="#7A5698" d="M353.478 61.787h3.2V28.304h-3.2z"/><path d="M352.15 19.479l2.928 5.446 2.93-5.446h-5.858zm2.928 12.205l-8.282-15.405h16.565l-8.283 15.405z" fill="#7A5698"/><path d="M131.747 271.1h251.226V114.174H131.747z"/><path d="M133.347 269.5h248.026V115.774H133.347V269.5zm-3.201 3.2H384.57V112.574H130.146V272.7z" fill="#07203C"/><path fill="#000" d="M131.747 114.173h251.226v-12.5H131.747z"/><path fill="#FFF" d="M131.747 283.6h251.226v-12.5H131.747z"/><path d="M133.347 282h248.026v-9.3H133.347v9.3zm-3.201 3.2H384.57v-15.7H130.146v15.7z" fill="#43566B"/><path fill="#FFF" d="M230.795 102.882l-2.099-2.414 28.767-25.036 28.566 25.04-2.11 2.407-26.463-23.199z"/><path d="M252.463 78.917a4.997 4.997 0 119.996.001 4.997 4.997 0 01-9.996 0" fill="#FFF"/><path d="M159.706 254.38h191.27V134.1h-191.27v120.28zm-3.2 3.2h197.67V130.9h-197.67v126.68z" fill="#BFDEFF"/><path fill="#BFDEFF" d="M175.909 255.98h3.2V132.5h-3.2zM195.31 255.98h3.2V132.5h-3.2zM214.714 255.98h3.2V132.5h-3.2zM234.117 255.98h3.2V132.5h-3.2zM253.52 255.98h3.2V132.5h-3.2zM272.923 255.98h3.2V132.5h-3.2zM292.326 255.98h3.2V132.5h-3.2zM311.728 255.98h3.2V132.5h-3.2zM331.131 255.98h3.2V132.5h-3.2z"/><path fill="#00A0D8" d="M171.955 254.38h11.43v-29.74h-11.43zM191.197 254.38h11.429v-45.74h-11.43zM210.438 254.38h11.43v-50.54h-11.43zM229.677 254.38h11.43v-61.74h-11.43zM248.918 254.38h11.43v-45.74h-11.43zM268.157 254.38h11.43v-77.74h-11.43zM287.398 254.38h11.43v-82.54h-11.43zM306.638 254.38h11.43v-77.74h-11.43zM325.878 254.38h11.43V152.64h-11.43z"/><path fill="#000" d="M159.339 257.122l-1.853-2.61 19.679-13.93 19.872-8.96 18.755-3.076 20.565-32.987 19.452 37.01 18.12-40.714 20.256-11.587 19.274-1.002 18.904-17.454 19.806-30.056 2.67 1.761-20.162 30.512L314.78 182.4l-19.668 1.023-18.686 10.688-20.378 45.792-19.93-37.915-18.377 29.48-19.977 3.28-19.138 8.683z"/><path d="M175.778 188.731h3.2v-3.2h-3.2v3.2zm0 6.4h3.2v-3.2h-3.2v3.2zm0 6.4h3.2v-3.2h-3.2v3.2zm0 6.4h3.2v-3.2h-3.2v3.2zm0 6.4h3.2v-3.2h-3.2v3.2z" fill="#00A0D8"/><path fill="#BFDEFF" d="M163.9 183.216h24.4v-11.374h-24.4z"/><path fill="#FFF" d="M169.712 176.439v1.86h1.826v.855h-1.826v1.88h-.852v-1.88h-1.836v-.854h1.836v-1.861zM173.09 181.09v-5.196c-.233.075-.675.131-.921.168v-.806c.528-.096.922-.322 1.213-.63h.837v6.465h-1.128zM175.363 181.09v-.055c0-1.167.534-1.992 2.022-3.168.778-.62 1.053-.866 1.053-1.495 0-.564-.304-.948-.922-.948-.697 0-.96.45-1.035 1.156h-1.09c.066-1.062.65-2.032 2.162-2.032 1.363-.01 2.042.79 2.042 1.824 0 .941-.407 1.42-1.508 2.228-.816.62-1.222 1.1-1.353 1.552h3.038l-.14.939h-4.27zM184.475 175.583h-2.626a28.09 28.09 0 01-.196 1.58c.225-.217.65-.406 1.203-.406 1.232 0 1.947.818 1.947 2.107 0 1.381-.762 2.32-2.275 2.32-1.147 0-2.013-.62-2.115-1.795h1.128c.075.546.44.912 1.025.912.715 0 1.063-.46 1.063-1.37 0-.83-.338-1.27-1.053-1.27-.642 0-.923.29-1.091.723l-.97-.161c.104-.816.37-2.687.445-3.589h3.656l-.141.949z"/><path fill="#BFDEFF" d="M203.952 165.883h24.4V154.51h-24.4z"/><path fill="#FFF" d="M208.167 159.105v1.861h1.824v.856h-1.824v1.88h-.854v-1.88h-1.834v-.856h1.834v-1.86zM210.888 158.955c.094-.883.713-1.74 2.076-1.74 1.306 0 1.973.716 1.973 1.693 0 .799-.515 1.165-.854 1.287v.019c.573.197 1.118.677 1.118 1.598 0 1.061-.638 2.04-2.283 2.04-1.485 0-2.106-.904-2.173-1.804h1.138c.096.553.424.93 1.09.93.76 0 1.063-.46 1.063-1.12 0-.8-.49-1.098-1.232-1.098h-.45v-.912h.385c.667 0 1.062-.226 1.062-.874 0-.574-.31-.893-.883-.893-.65 0-.864.432-.958.874h-1.072zM217.142 160.392c0 1.458.263 2.567 1.1 2.567.883 0 1.08-1.024 1.08-2.567 0-1.38-.28-2.283-1.071-2.283-.8 0-1.109.912-1.109 2.283m3.346-.019c0 1.795-.413 3.478-2.247 3.478-1.803 0-2.265-1.683-2.265-3.43 0-1.654.62-3.205 2.285-3.205 1.596 0 2.227 1.373 2.227 3.157M222.55 160.392c0 1.458.262 2.567 1.1 2.567.882 0 1.08-1.024 1.08-2.567 0-1.38-.28-2.283-1.071-2.283-.8 0-1.11.912-1.11 2.283m3.347-.019c0 1.795-.413 3.478-2.247 3.478-1.803 0-2.265-1.683-2.265-3.43 0-1.654.62-3.205 2.284-3.205 1.597 0 2.228 1.373 2.228 3.157"/><path fill="#BFDEFF" d="M242.432 163.112h24.4v-11.376h-24.4z"/><path fill="#FFF" d="M247.075 158.205h2.378v-.94h-2.378zM254.366 155.479h-2.623a28.28 28.28 0 01-.197 1.58c.226-.217.648-.406 1.204-.406 1.232 0 1.944.818 1.944 2.106 0 1.382-.76 2.321-2.276 2.321-1.147 0-2.01-.619-2.112-1.795h1.128c.076.546.44.912 1.023.912.715 0 1.062-.459 1.062-1.373 0-.827-.337-1.268-1.053-1.268-.638 0-.92.29-1.088.723l-.97-.16c.105-.816.367-2.687.442-3.589h3.656l-.14.949zM256.7 157.622c0 1.458.262 2.566 1.1 2.566.884 0 1.08-1.025 1.08-2.566 0-1.382-.28-2.285-1.071-2.285-.8 0-1.109.912-1.109 2.285m3.347-.02c0 1.796-.413 3.48-2.248 3.48-1.801 0-2.265-1.684-2.265-3.431 0-1.656.622-3.207 2.284-3.207 1.597 0 2.23 1.373 2.23 3.159"/><path d="M214.714 173.173h3.2v-3.2h-3.2v3.2zm0 6.4h3.2v-3.2h-3.2v3.2zm0 6.4h3.2v-3.2h-3.2v3.2zm0 6.4h3.2v-3.2h-3.2v3.2zm0 6.4h3.2v-3.2h-3.2v3.2z" fill="#00A0D8"/><path fill="#BFDEFF" d="M281.4 155.125h24.4V143.75h-24.4z"/><path fill="#FFF" d="M288.816 148.348v1.86h1.824v.856h-1.824v1.88h-.855v-1.88h-1.833v-.856h1.833v-1.86zM291.216 153v-.056c0-1.166.536-1.994 2.022-3.168.78-.62 1.053-.866 1.053-1.494 0-.565-.303-.95-.922-.95-.696 0-.96.452-1.035 1.156h-1.088c.066-1.062.648-2.03 2.16-2.03 1.363-.01 2.042.79 2.042 1.824 0 .939-.405 1.419-1.506 2.227-.818.62-1.222 1.099-1.354 1.552h3.037l-.14.939h-4.27zM297.519 149.635c0 1.458.262 2.567 1.099 2.567.883 0 1.08-1.026 1.08-2.567 0-1.382-.28-2.285-1.07-2.285-.8 0-1.11.912-1.11 2.285m3.346-.019c0 1.795-.412 3.478-2.246 3.478-1.803 0-2.266-1.683-2.266-3.43 0-1.656.621-3.206 2.285-3.206 1.597 0 2.227 1.372 2.227 3.158"/><path d="M292.163 162.102h3.2v-3.2h-3.2v3.2zm0 6.4h3.2v-3.2h-3.2v3.2zm0 6.4h3.2v-3.2h-3.2v3.2zM253.52 168.627h3.2v-3.2h-3.2v3.2zm0 6.4h3.2v-3.2h-3.2v3.2zm0 6.4h3.2v-3.2h-3.2v3.2zm0 6.4h3.2v-3.2h-3.2v3.2zm0 6.4h3.2v-3.2h-3.2v3.2zM156.346 145.714h2.4V21.262h-2.4z" fill="#00A0D8"/><path d="M157.546 14.016c1.266 3.41 3.424 7.64 5.709 10.263l-5.709-2.064-5.709 2.064c2.287-2.623 4.445-6.853 5.71-10.263M176.542 145.714h2.4V21.262h-2.4z" fill="#00A0D8"/><path d="M177.741 14.016c1.266 3.41 3.424 7.64 5.71 10.263l-5.71-2.064-5.708 2.064c2.286-2.623 4.444-6.853 5.708-10.263M196.738 145.714h2.4V21.262h-2.4z" fill="#00A0D8"/><path d="M197.937 14.016c1.266 3.41 3.424 7.64 5.71 10.263l-5.71-2.064-5.708 2.064c2.286-2.623 4.444-6.853 5.708-10.263" fill="#00A0D8"/><path d="M171.748 65.237l-.225-2.39c.82-.077 1.648-.125 2.483-.143l.05 2.402a32.3 32.3 0 00-2.308.13zm6.922.11a31.996 31.996 0 00-2.3-.205l.124-2.398c.834.045 1.66.118 2.477.22l-.3 2.383zm-11.477.658l-.574-2.331a33.51 33.51 0 012.435-.504l.403 2.366c-.763.13-1.518.286-2.264.469zm16.005.257a30.588 30.588 0 00-2.245-.542l.475-2.352c.82.165 1.626.358 2.42.582l-.65 2.312zm-20.395 1.18l-.912-2.221a33.319 33.319 0 012.334-.861l.747 2.282c-.734.241-1.457.508-2.17.8zm24.74.396c-.7-.313-1.417-.604-2.145-.868l.82-2.258c.783.285 1.553.597 2.306.936l-.98 2.19zm-28.865 1.67l-1.23-2.062a34.21 34.21 0 012.18-1.195l1.076 2.147c-.69.346-1.365.716-2.026 1.11zm32.93.534a31.876 31.876 0 00-1.992-1.176l1.144-2.112c.73.396 1.444.819 2.142 1.265l-1.294 2.023zm-36.71 2.118l-1.522-1.858a32.892 32.892 0 011.982-1.502l1.378 1.965a31.01 31.01 0 00-1.839 1.395zm40.406.658a32.627 32.627 0 00-1.799-1.456l1.443-1.92a34.99 34.99 0 011.933 1.566l-1.577 1.81zm-43.76 2.523l-1.775-1.616a33.788 33.788 0 011.741-1.778l1.653 1.743c-.56.53-1.1 1.08-1.62 1.65zm47.006.763a31.516 31.516 0 00-1.563-1.702l1.707-1.69a33.18 33.18 0 011.685 1.834l-1.829 1.558zm-49.86 2.874l-1.993-1.34c.464-.69.95-1.361 1.464-2.012l1.887 1.481c-.474.607-.928 1.23-1.357 1.87zm52.593.85a31.65 31.65 0 00-1.3-1.913l1.938-1.417c.49.667.955 1.353 1.395 2.056l-2.033 1.275zm-54.88 3.169l-2.168-1.034c.357-.752.742-1.488 1.15-2.206l2.088 1.189a31.12 31.12 0 00-1.07 2.05zm57.035.913a32.727 32.727 0 00-1.002-2.08l2.125-1.12c.386.732.746 1.48 1.077 2.242l-2.2.958zm-58.704 3.399l-2.296-.701c.242-.797.512-1.582.811-2.354l2.24.864a32.715 32.715 0 00-.755 2.19zm60.229.958c-.2-.747-.427-1.483-.682-2.206l2.266-.795c.273.78.518 1.574.734 2.379l-2.318.622zm-61.239 3.547l-2.374-.35c.12-.824.274-1.638.451-2.445l2.344.519c-.165.75-.305 1.508-.42 2.276zm62.103.99a31.473 31.473 0 00-.349-2.286l2.36-.448c.152.81.277 1.63.373 2.46l-2.384.275zm-62.44 3.618h-2.4c0-.835.03-1.664.09-2.484l2.393.17a33.539 33.539 0 00-.083 2.314zm65.032 1.077l-2.4-.077c.011-.332.016-.665.016-1 .001-.443-.008-.878-.027-1.312l2.4-.1c.019.47.028.942.027 1.416 0 .356-.005.715-.016 1.073zm-67.315 1.741a34.456 34.456 0 01-.116-2.485l2.4-.024c.008.778.045 1.547.11 2.31l-2.394.199zm66.796 3.203l-2.363-.424a31.78 31.78 0 00.325-2.29l2.387.252a32.91 32.91 0 01-.349 2.462zm-66.024 1.709a33.284 33.284 0 01-.478-2.443l2.373-.373c.12.766.27 1.523.443 2.269l-2.338.547zm64.78 3.107l-2.274-.768c.245-.728.466-1.467.66-2.217l2.326.601c-.21.807-.448 1.6-.712 2.384zm-63.285 1.64a32.653 32.653 0 01-.835-2.347l2.29-.718c.231.737.49 1.462.775 2.176l-2.23.89zm61.34 2.944l-2.135-1.099a32.9 32.9 0 00.982-2.094l2.21.939a33.263 33.263 0 01-1.058 2.254zm-59.164 1.523a33.446 33.446 0 01-1.171-2.193l2.158-1.053c.338.694.7 1.374 1.088 2.038l-2.075 1.208zm56.565 2.722l-1.95-1.4c.447-.626.874-1.269 1.28-1.928l2.046 1.254c-.434.71-.895 1.4-1.376 2.074zm-53.754 1.38a34.827 34.827 0 01-1.482-1.998l1.981-1.36c.437.637.896 1.258 1.376 1.86l-1.875 1.497zm50.557 2.436l-1.722-1.674a30.875 30.875 0 001.55-1.718l1.84 1.542a33.758 33.758 0 01-1.668 1.85zm-47.175 1.21a35.113 35.113 0 01-1.758-1.762l1.763-1.632a30.28 30.28 0 001.634 1.635l-1.639 1.759zm43.461 2.094l-1.459-1.906a31.487 31.487 0 001.78-1.472l1.598 1.794c-.618.55-1.26 1.08-1.919 1.584zm-39.579 1.02a33.13 33.13 0 01-1.998-1.486l1.502-1.873c.6.481 1.22.942 1.856 1.379l-1.36 1.98zm35.42 1.706l-1.162-2.1a31.127 31.127 0 001.976-1.194l1.316 2.008c-.692.454-1.401.883-2.13 1.286zm-31.122.804a34.017 34.017 0 01-2.197-1.178l1.213-2.072c.662.387 1.342.752 2.038 1.091l-1.054 2.159zm26.61 1.276l-.84-2.248a31.924 31.924 0 002.129-.89l1.006 2.182c-.75.345-1.515.665-2.296.956zm-21.986.572a32.73 32.73 0 01-2.35-.84l.895-2.23c.712.287 1.439.546 2.176.778l-.721 2.292zm17.214.822l-.504-2.349c.758-.161 1.507-.35 2.243-.563l.672 2.304a33.62 33.62 0 01-2.41.608zm-12.371.318a32.317 32.317 0 01-2.443-.481l.553-2.336c.746.176 1.5.325 2.266.446l-.376 2.371zm7.441.354l-.15-2.397a32.22 32.22 0 002.302-.227l.322 2.38a34.98 34.98 0 01-2.474.244zm-2.488.064a33.47 33.47 0 01-2.483-.118l.2-2.392c.762.064 1.531.1 2.31.108l-.027 2.402zM154.016 77.26a28.205 28.205 0 0139.859-1.533l-19.163 20.696-20.696-19.164z" fill="#BFDEFF"/><path d="M155.731 77.212l18.914 17.512 17.513-18.913a27.034 27.034 0 00-11.464-5.723c-8.988-2.044-18.438.683-24.963 7.124zm19.045 20.906l-22.458-20.794.816-.88c7.112-7.684 17.876-11.016 28.092-8.699a29.474 29.474 0 0113.464 7.1l.88.815-20.794 22.458z" fill="#43566B"/><path d="M198.731 70.48a35.354 35.354 0 018.573 39.642l-32.594-13.7 24.021-25.942z" fill="#FFF"/><path d="M176.756 95.98l29.888 12.561a34.221 34.221 0 00.693-22.22 34.2 34.2 0 00-8.553-14.129L176.756 95.98zm31.19 15.713l-35.28-14.829 26-28.081.88.816a36.582 36.582 0 0110.086 16.013 36.61 36.61 0 01-1.221 24.974l-.464 1.107z" fill="#43566B"/><path d="M200.713 107.35a28.212 28.212 0 01-32.25 16.576 28.203 28.203 0 01-14.448-46.667l20.697 19.162 26.001 10.93z" fill="#00A0D8"/><path d="M154.1 78.974c-5.92 6.999-7.91 16.632-5.184 25.434 2.843 9.187 10.435 16.217 19.814 18.347 9.386 2.136 19.264-.931 25.796-7.986a26.96 26.96 0 004.592-6.787L174.246 97.53a1.25 1.25 0 01-.35-.225L154.1 78.974zm20.573 46.848c-2.155 0-4.328-.237-6.474-.725-10.213-2.32-18.48-9.974-21.577-19.979-3.098-10.003-.604-20.99 6.512-28.675a1.204 1.204 0 011.697-.066l20.541 19.02 25.808 10.846a1.207 1.207 0 01.64 1.573 29.322 29.322 0 01-5.533 8.584c-5.619 6.069-13.512 9.422-21.614 9.422z" fill="#43566B"/><path d="M12.645 315.558c1.143.488 2.333.833 3.557 1.033l3.112-4.896 3.453 4.564a15.369 15.369 0 003.486-1.418l-.755-5.685 5.723 1.307a15.372 15.372 0 001.805-3.185l-4.42-4.045 5.602-2.869a15.377 15.377 0 00-.577-3.385l-6.453-.279 2.638-6.257a15.426 15.426 0 00-2.448-2.045l-5.486 4.216-2.098-6.816a15 15 0 00-3.036.088l-1.546 7-5.992-3.874a15.639 15.639 0 00-2.22 2.109l3.266 6.27-6.755.842a15.6 15.6 0 00-.299 3.235l6.165 2.549-4.303 4.632a15.29 15.29 0 002.004 2.875l5.875-1.857-.298 5.89zm5.181 4.441l-.98-.097a18.596 18.596 0 01-6.575-1.923l-.927-.47.17-3.4-3.371 1.065-.688-.691a18.701 18.701 0 01-3.773-5.45l-.442-.971 2.645-2.848-3.755-1.552-.072-.984c-.035-.464-.058-.93-.058-1.402 0-1.65.22-3.302.656-4.91l.28-1.039 4.354-.542-2.093-4.014.615-.81a18.814 18.814 0 014.452-4.213l.877-.59 3.93 2.54 1.013-4.585 1.028-.202a18.503 18.503 0 016.1-.182l1.016.134 1.358 4.407 3.562-2.74.928.538a18.752 18.752 0 014.827 4.007l.646.752-1.633 3.873 4.03.173.365 1.006a18.64 18.64 0 011.123 6.397l-.043 1.026-3.227 1.68 2.596 2.377-.339.99a18.622 18.622 0 01-3.34 5.927l-.63.752-3.174-.725.418 3.162-.851.549a18.507 18.507 0 01-6.408 2.61l-.986.198-1.907-2.52-1.717 2.697z" fill="#BFDEFF"/><path d="M18.717 298.102a3.136 3.136 0 00-3.133 3.132 3.136 3.136 0 003.133 3.133 3.136 3.136 0 003.133-3.133 3.136 3.136 0 00-3.133-3.132m0 9.465a6.339 6.339 0 01-6.333-6.333 6.339 6.339 0 016.333-6.332 6.339 6.339 0 016.333 6.332 6.339 6.339 0 01-6.333 6.333" fill="#BFDEFF"/><path d="M454.88 294.527c0-4.42 3.58-8 8-8 4.419 0 8 3.58 8 8a8 8 0 11-16 0" fill="#FFF"/><path d="M462.88 288.127c-3.53 0-6.4 2.87-6.4 6.4 0 3.53 2.87 6.4 6.4 6.4 3.53 0 6.4-2.87 6.4-6.4 0-3.53-2.87-6.4-6.4-6.4m0 16c-5.295 0-9.6-4.306-9.6-9.6 0-5.295 4.305-9.6 9.6-9.6 5.294 0 9.6 4.305 9.6 9.6 0 5.294-4.306 9.6-9.6 9.6"/><path d="M277.639 48.453a8 8 0 118 8c-4.42 0-8-3.58-8-8" fill="#FFF"/><path d="M285.639 42.053c-3.53 0-6.4 2.87-6.4 6.4 0 3.53 2.87 6.4 6.4 6.4 3.53 0 6.4-2.87 6.4-6.4 0-3.53-2.87-6.4-6.4-6.4m0 16c-5.294 0-9.6-4.305-9.6-9.6 0-5.294 4.306-9.6 9.6-9.6s9.6 4.306 9.6 9.6c0 5.295-4.306 9.6-9.6 9.6"/><path d="M317.652 71.377a3.203 3.203 0 00-3.2 3.2c0 1.765 1.435 3.2 3.2 3.2 1.764 0 3.2-1.435 3.2-3.2 0-1.764-1.436-3.2-3.2-3.2m0 9.6c-3.53 0-6.4-2.87-6.4-6.4 0-3.53 2.87-6.4 6.4-6.4 3.53 0 6.4 2.87 6.4 6.4 0 3.53-2.87 6.4-6.4 6.4M72.314 257.09a5.606 5.606 0 00-5.6 5.6c0 3.089 2.512 5.6 5.6 5.6 3.088 0 5.6-2.511 5.6-5.6 0-3.087-2.512-5.6-5.6-5.6m0 14.4c-4.851 0-8.8-3.948-8.8-8.8 0-4.85 3.949-8.8 8.8-8.8 4.851 0 8.8 3.95 8.8 8.8 0 4.852-3.949 8.8-8.8 8.8M294.852 311.22a3.203 3.203 0 00-3.2 3.2c0 1.765 1.435 3.2 3.2 3.2 1.764 0 3.2-1.435 3.2-3.2 0-1.764-1.436-3.2-3.2-3.2m0 9.6c-3.53 0-6.4-2.87-6.4-6.4 0-3.53 2.87-6.4 6.4-6.4 3.53 0 6.4 2.87 6.4 6.4 0 3.53-2.87 6.4-6.4 6.4M563.581 56.155l-2.262-2.263 2.262-2.262 2.263 2.262-2.263 2.263zm-4.525 4.526l-2.262-2.262 2.262-2.264 2.263 2.264-2.263 2.262zm-4.526 4.525l-2.262-2.262 2.262-2.263 2.262 2.263-2.262 2.262zm-4.525 4.525l-2.262-2.263 2.262-2.262 2.263 2.262-2.263 2.263zm-4.525 4.526l-2.264-2.262 2.264-2.264 2.263 2.262-2.263 2.264zm-4.528 4.525l-2.262-2.262 2.262-2.263 2.263 2.263-2.263 2.262zm-4.524 4.526l-2.263-2.262 2.263-2.262 2.262 2.262-2.262 2.262zm-4.525 4.525l-2.263-2.262 2.263-2.263 2.262 2.263-2.262 2.262zm-4.527 4.525l-2.262-2.262 2.262-2.263 2.263 2.263-2.263 2.262zm-4.524 4.526l-2.263-2.262 2.263-2.264 2.262 2.264-2.262 2.262zm-4.525 4.525l-2.263-2.262 2.263-2.263 2.262 2.263-2.262 2.262zm-4.527 4.527l-2.262-2.263 2.262-2.264 2.263 2.263-2.263 2.264zm-4.524 4.524l-2.263-2.262 2.263-2.262 2.262 2.262-2.262 2.262zm-4.527 4.527l-2.262-2.264 2.262-2.263 2.264 2.263-2.264 2.264zm-4.526 4.525l-2.263-2.263 2.263-2.262 2.262 2.262-2.262 2.263zm-2.282 2.283l-2.262-2.263 2.281 2.242-.019.02z" fill="#BFDEFF"/><path d="M603.55 4.733L589.579 19.95 561.374 9.408l-3.496 4.152 22.429 16.486-13.615 14.83-13.168-.81-1.388 1.89 9.43 4.598c-1.98 2.659.67 6.172 3.75 5.05l4.573 9.622 1.906-1.37-.682-13.229L585.53 37.39l16.645 22.641 4.152-3.494-10.642-28.47c.456-.42 16.293-14.932 16.693-15.381 2.047-2.315 4.522-8.197 2.338-10.4h-.002l-.158-.159c-.08-.078-.159-.158-.159-.158-2.33-2.31-8.587.384-10.846 2.765" fill="#FFF"/><path d="M566.136 53.602l3.958 8.328-.617-11.972 16.286-14.954 16.687 22.702 1.985-1.668c-.838-2.234-3.245-8.67-10.25-27.412l-.375-1.008 1.684-1.548c12.463-11.43 15.426-14.183 15.717-14.482 1.919-2.168 3.54-6.912 2.389-8.152l-.346-.347c-.347-.344-1.028-.408-1.512-.402-2.344.035-5.636 1.683-7.024 3.14l-14.69 16-1.007-.377c-.143-.052-22.042-8.238-27.15-10.148l-1.668 1.98 22.49 16.533-15.338 16.704-11.918-.734 8.566 4.176-1.153 1.549c-.712.956-.2 1.793-.024 2.027.172.233.814.965 1.944.565l1.366-.5zm3.131 14.042l-4.864-10.232c-1.589.091-3.136-.606-4.145-1.963-.924-1.242-1.194-2.744-.812-4.149l-9.736-4.746 3.042-4.14 13.278.817 11.89-12.952-22.366-16.441 5.323-6.324 1.057.396 27.194 10.164 13.26-14.443c1.855-1.953 5.94-4.094 9.306-4.144 1.599-.032 2.919.442 3.83 1.346l.326.326c3.075 3.101.153 9.842-2.276 12.586-.14.16-.404.456-15.918 14.685l-.094.086c1.881 5.038 10.172 27.218 10.262 27.454l.398 1.06-6.324 5.324-16.6-22.58-12.55 11.523.689 13.349-4.17 2.998z"/><path d="M467.192 275.211h-11.64v-3.2h11.64c16.835 0 30.533-13.698 30.533-30.533s-13.698-30.534-30.533-30.534-30.534 13.699-30.534 30.534h-3.2c0-18.601 15.133-33.734 33.734-33.734 18.6 0 33.733 15.133 33.733 33.734 0 18.6-15.133 33.733-33.733 33.733" fill="#4A90E2"/><path d="M471.934 233.99c-1.376-1.266-2.53-1.974-4.315-1.974-2.01 0-3.237 1.044-3.237 2.976 0 4.466 10.12 3.572 10.12 11.088 0 3.536-2.084 6.14-5.766 6.812v3.825h-2.976v-3.715c-2.272-.224-4.763-1.264-6.44-2.827l1.936-2.904c1.75 1.377 3.5 2.304 5.509 2.304 2.416 0 3.606-1.19 3.606-3.197 0-4.909-10.12-4.203-10.12-11.2 0-3.46 2.16-5.915 5.509-6.51v-3.794h2.976v3.72c2.38.298 4.018 1.45 5.394 2.9l-2.196 2.495z" fill="#FFF"/><path d="M740.433 183.624a3.652 3.652 0 117.303 0 3.652 3.652 0 01-7.303 0M740.433 167.027a3.652 3.652 0 117.304-.002 3.652 3.652 0 01-7.304.002M740.433 150.428a3.65 3.65 0 013.651-3.651 3.651 3.651 0 110 7.304 3.652 3.652 0 01-3.651-3.653" fill="#BFDEFF"/><path d="M574.514 413.333h151.963V220.134l-16.693-8.792h-135.27v201.99zm153.563 3.2H572.914c-.885 0-1.6-.715-1.6-1.6v-205.19c0-.885.715-1.6 1.6-1.6H710.18c.259 0 .515.062.745.183l17.896 9.428c.527.276.856.82.856 1.414v195.765a1.6 1.6 0 01-1.6 1.6z" fill="#000"/><path fill="#FFF" d="M710.181 209.74l17.896 9.43-14.875 4.481z"/><path d="M712.472 212.758l1.925 8.862 9.478-2.856-11.403-6.006zm.73 12.494a1.597 1.597 0 01-1.564-1.26l-3.022-13.91a1.6 1.6 0 012.309-1.756l17.897 9.427a1.6 1.6 0 01-.285 2.947l-14.875 4.484c-.15.046-.305.068-.46.068z" fill="#43566B"/><path fill="#00A0D8" d="M591.995 299.171h7.269v-14.539h-7.269zM610.168 299.171h7.269V273.73h-7.269zM628.342 299.171h7.27v-39.98h-7.27zM646.514 299.171h7.27v-47.25h-7.27zM664.688 299.171h7.269v-58.153h-7.269zM682.86 299.171h7.27v-52.824h-7.27zM701.032 299.171h7.27v-63.728h-7.27z"/><path d="M711.352 310.297H588.945" fill="#FFF"/><path fill="#43566B" d="M588.947 311.898h122.405v-3.2H588.947z"/><path fill="#BFDEFF" d="M632.133 353.099l13.995-33.655 13.994 33.655z"/><path fill="#00A0D8" d="M601.531 353.099l13.995-33.655L629.52 353.1z"/><path fill="#BFDEFF" d="M670.778 353.099l13.994-31.301 13.993 31.3z"/><path fill="#0A5AE2" d="M313.075 416.09h141.159v-95.828H313.075z"/><path d="M327.89 332.039a4.548 4.548 0 01-4.548-4.547v-14.794a4.548 4.548 0 019.094 0v14.794a4.548 4.548 0 01-4.547 4.547" fill="#FFF"/><path d="M327.89 309.752a2.95 2.95 0 00-2.948 2.947v14.793a2.95 2.95 0 002.947 2.948 2.95 2.95 0 002.947-2.948V312.7a2.95 2.95 0 00-2.947-2.947m0 23.888a6.155 6.155 0 01-6.147-6.148V312.7a6.155 6.155 0 016.147-6.147 6.155 6.155 0 016.147 6.147v14.793a6.155 6.155 0 01-6.147 6.148" fill="#43566B"/><path d="M439.42 332.039a4.548 4.548 0 01-4.547-4.547v-14.794a4.548 4.548 0 019.095 0v14.794a4.55 4.55 0 01-4.548 4.547" fill="#FFF"/><path d="M439.42 309.752a2.95 2.95 0 00-2.947 2.947v14.793a2.95 2.95 0 002.947 2.948 2.95 2.95 0 002.948-2.948V312.7a2.95 2.95 0 00-2.948-2.947m0 23.888a6.155 6.155 0 01-6.147-6.148V312.7a6.155 6.155 0 016.147-6.147 6.155 6.155 0 016.148 6.147v14.793a6.155 6.155 0 01-6.148 6.148" fill="#43566B"/><path d="M579.06 173.773l-1.247-2.947c85.66-36.245 124.714-88.211 134.642-103.275l2.672 1.76c-10.053 15.254-49.578 67.867-136.068 104.462" fill="#E4FFC6"/><path d="M717.277 62.762c-2.664 2.019-6.426 4.235-9.492 5.139l5.447 1.216 3.408 4.42c-.479-3.162-.066-7.508.637-10.775M619.122 155.108a5.051 5.051 0 11-10.103 0 5.051 5.051 0 0110.103 0" fill="#E4FFC6"/><path d="M614.07 151.656a3.456 3.456 0 00-3.451 3.452 3.455 3.455 0 003.451 3.45 3.455 3.455 0 003.451-3.45 3.456 3.456 0 00-3.45-3.452m0 10.103a6.658 6.658 0 01-6.652-6.651 6.66 6.66 0 016.651-6.652 6.66 6.66 0 016.651 6.652 6.658 6.658 0 01-6.65 6.65M655.412 131.977a5.051 5.051 0 11-10.102 0 5.051 5.051 0 0110.102 0" fill="#E4FFC6"/><path d="M650.361 128.525a3.456 3.456 0 00-3.451 3.451 3.455 3.455 0 003.451 3.452 3.455 3.455 0 003.451-3.452 3.456 3.456 0 00-3.451-3.45m0 10.102a6.658 6.658 0 01-6.651-6.652 6.66 6.66 0 016.651-6.65 6.66 6.66 0 016.651 6.65 6.658 6.658 0 01-6.651 6.652M684.89 108.363a5.051 5.051 0 11-10.102 0 5.051 5.051 0 0110.103 0" fill="#E4FFC6"/><path d="M679.839 104.912a3.456 3.456 0 00-3.451 3.451 3.455 3.455 0 003.451 3.451 3.455 3.455 0 003.451-3.451 3.456 3.456 0 00-3.451-3.451m0 10.102a6.658 6.658 0 01-6.651-6.651 6.66 6.66 0 016.651-6.651 6.66 6.66 0 016.651 6.651 6.658 6.658 0 01-6.651 6.651M708.345 82.214a5.051 5.051 0 11-10.102 0 5.051 5.051 0 0110.102 0" fill="#E4FFC6"/><path d="M703.294 78.762a3.456 3.456 0 00-3.451 3.453 3.456 3.456 0 003.45 3.45 3.456 3.456 0 003.452-3.45 3.456 3.456 0 00-3.451-3.453m0 10.104a6.66 6.66 0 01-6.651-6.651 6.66 6.66 0 016.65-6.653 6.66 6.66 0 016.652 6.653 6.66 6.66 0 01-6.651 6.65M579.803 192.264h3.2v-12.427h-3.2zM587.726 192.264h3.2v-12.427h-3.2zM595.651 192.264h3.2v-15.912h-3.2zM603.574 192.264h3.2v-18.448h-3.2zM611.5 192.264h3.2v-18.448h-3.2zM619.424 192.264h3.2v-21.3h-3.2zM627.347 192.264h3.2v-27.006h-3.2zM635.272 192.264h3.2v-31.443h-3.2zM643.195 192.264h3.2V154.48h-3.2zM651.118 192.264h3.2V146.24h-3.2zM659.043 192.264h3.2v-52.998h-3.2zM666.966 192.264h3.2v-59.336h-3.2zM674.891 192.264h3.2v-62.506h-3.2zM682.816 192.264h3.2v-68.211h-3.2zM690.74 192.264h3.2v-75.82h-3.2zM698.662 192.264h3.2v-80.573h-3.2zM706.587 192.264h3.2V101.23h-3.2zM714.51 192.264h3.2v-97.69h-3.2zM722.435 192.264h3.2V83.798h-3.2z" fill="#E4FFC6"/><path d="M417.166 70.334a3.203 3.203 0 00-3.2 3.2c0 1.764 1.435 3.2 3.2 3.2 1.764 0 3.2-1.436 3.2-3.2 0-1.765-1.436-3.2-3.2-3.2m0 9.6c-3.53 0-6.4-2.87-6.4-6.4 0-3.53 2.87-6.4 6.4-6.4 3.53 0 6.4 2.87 6.4 6.4 0 3.53-2.87 6.4-6.4 6.4M621.498 62.976a3.203 3.203 0 00-3.2 3.2c0 1.765 1.436 3.2 3.2 3.2 1.765 0 3.2-1.435 3.2-3.2 0-1.765-1.435-3.2-3.2-3.2m0 9.6c-3.53 0-6.4-2.87-6.4-6.4 0-3.53 2.87-6.4 6.4-6.4 3.53 0 6.4 2.87 6.4 6.4 0 3.53-2.87 6.4-6.4 6.4" fill="#BFDEFF"/><path fill="#4A90E2" d="M394.953 236.278h-3.2v-124.06h106.784v91.692h-3.2v-88.493H394.953z"/><path fill="#FFF" d="M393.354 142.069h103.584v-28.25H393.354z"/><path d="M394.954 140.469h100.384v-25.05H394.954v25.05zm101.984 3.2H393.354a1.6 1.6 0 01-1.6-1.6v-28.251a1.6 1.6 0 011.6-1.6h103.584a1.6 1.6 0 011.6 1.6v28.25a1.6 1.6 0 01-1.6 1.6z"/><path d="M449.272 91.845c3.451 0 6.277 2.826 6.277 6.279v28.25c0 3.452-2.826 6.278-6.277 6.278h-18.834V98.124c0-3.453 2.824-6.279 6.277-6.279h12.557z" fill="#FFF"/><path d="M432.037 131.052h17.234c2.58 0 4.677-2.1 4.677-4.679v-28.25a4.683 4.683 0 00-4.677-4.678h-12.555c-2.58 0-4.679 2.1-4.679 4.679v32.928zm17.234 3.2h-18.834a1.6 1.6 0 01-1.6-1.6V98.124c0-4.344 3.535-7.879 7.879-7.879h12.555c4.344 0 7.877 3.535 7.877 7.879v28.25c0 4.343-3.533 7.878-7.877 7.878z"/><path d="M443.284 111.478a5.112 5.112 0 11-.583-10.207 5.112 5.112 0 01.583 10.207" fill="#43566B"/><path d="M404.573 157.59h3.2v-3.21h-3.2v3.21zm0 4.813h3.2v-3.21h-3.2v3.21zm0 4.815h3.2v-3.21h-3.2v3.21zm0 4.812h3.2v-3.208h-3.2v3.208zm0 4.813h3.2v-3.21h-3.2v3.21zm0 4.815h3.2v-3.21h-3.2v3.21zm0 4.814h3.2v-3.21h-3.2v3.21zm0 4.813h3.2v-3.208h-3.2v3.208zm0 4.814h3.2v-3.21h-3.2v3.21zm0 4.813h3.2v-3.21h-3.2v3.21zm0 4.814h3.2v-3.21h-3.2v3.21zm0 4.813h3.2v-3.21h-3.2v3.21zm0 4.815h3.2v-3.21h-3.2v3.21zm0 4.814h3.2v-3.21h-3.2v3.21zm0 4.811h3.2v-3.208h-3.2v3.208zm0 4.815h3.2v-3.21h-3.2v3.21zm0 2.217h3.2v-.613h-3.2v.613zM483.395 157.59h3.2v-3.21h-3.2v3.21zm0 4.813h3.2v-3.21h-3.2v3.21zm0 4.815h3.2v-3.21h-3.2v3.21zm0 4.812h3.2v-3.208h-3.2v3.208zm0 4.813h3.2v-3.21h-3.2v3.21zm0 4.815h3.2v-3.21h-3.2v3.21zm0 4.814h3.2v-3.21h-3.2v3.21zm0 4.813h3.2v-3.208h-3.2v3.208zm0 4.814h3.2v-3.21h-3.2v3.21zm0 4.813h3.2v-3.21h-3.2v3.21zm0 3.806h3.2v-2.201h-3.2v2.201z" fill="#4A90E2"/><path d="M484.995 70.98H463.55a1.6 1.6 0 110-3.2h21.446a1.6 1.6 0 110 3.2M484.995 79.265H447.55a1.6 1.6 0 110-3.2h37.446a1.6 1.6 0 110 3.2" fill="#FFF"/><path d="M411.669 115.448c0 11.216-9.093 20.31-20.309 20.31-11.218 0-20.31-9.094-20.31-20.31 0-11.217 9.092-20.308 20.31-20.308 11.216 0 20.309 9.09 20.309 20.308" fill="#00A0D8"/><path d="M391.36 96.739c-10.316 0-18.71 8.394-18.71 18.709 0 10.317 8.394 18.71 18.71 18.71 10.315 0 18.708-8.393 18.708-18.71 0-10.315-8.393-18.709-18.709-18.709m0 40.62c-12.081 0-21.908-9.83-21.908-21.911 0-12.08 9.827-21.909 21.908-21.909 12.082 0 21.91 9.829 21.91 21.909 0 12.081-9.828 21.91-21.91 21.91" fill="#F57423"/><path d="M390.763 124.915c-.55 0-1.088-.189-1.52-.543l-7.485-6.124a2.402 2.402 0 01-.338-3.378 2.399 2.399 0 013.378-.338l5.358 4.384 7.24-11.79a2.401 2.401 0 014.091 2.512l-8.68 14.133a2.395 2.395 0 01-2.044 1.144" fill="#FFF"/><path d="M608.814 251.414h-50.096a3.963 3.963 0 01-3.962-3.965v-22.344a3.963 3.963 0 013.962-3.963h50.096a3.964 3.964 0 013.963 3.963v22.344a3.965 3.965 0 01-3.963 3.965" fill="#B8E986"/><path d="M558.719 222.742a2.366 2.366 0 00-2.363 2.363v22.344a2.367 2.367 0 002.363 2.365h50.096a2.366 2.366 0 002.361-2.365v-22.344a2.364 2.364 0 00-2.361-2.363h-50.096zm50.096 30.272h-50.096a5.57 5.57 0 01-5.563-5.565v-22.344a5.57 5.57 0 015.563-5.563h50.096a5.569 5.569 0 015.561 5.563v22.344a5.569 5.569 0 01-5.561 5.565z" fill="#43566B"/><path fill="#00A0D8" d="M560.368 233.755h28.968v-5.6h-28.968zM560.368 244.59h20.995v-5.6h-20.995z"/><path fill="#BFDEFF" d="M531.323 218.096h3.2v-14.4h-3.2z"/><path fill="#BFDEFF" d="M525.723 212.496h14.4v-3.2h-14.4z"/><path d="M142.08 359.103H53.688a5.42 5.42 0 01-5.415-5.413v-49.662a5.42 5.42 0 015.415-5.414h106.316v3.2H53.688c-1.221 0-2.215.993-2.215 2.214v49.662c0 1.221.994 2.213 2.215 2.213h88.392v3.2z" fill="#4A90E2"/><path fill="#FFF" d="M142.079 323.969H49.874v-9.549h92.205"/><path fill="#43566B" d="M142.08 325.569H48.273V312.82h93.807v3.2H51.473v6.349h90.607z"/><path d="M674.866 74.47a3.203 3.203 0 00-3.2 3.2c0 1.765 1.435 3.2 3.2 3.2 1.764 0 3.2-1.435 3.2-3.2 0-1.764-1.436-3.2-3.2-3.2m0 9.6c-3.53 0-6.4-2.87-6.4-6.4 0-3.53 2.87-6.4 6.4-6.4 3.53 0 6.4 2.87 6.4 6.4 0 3.53-2.87 6.4-6.4 6.4M534.375 16.388a3.203 3.203 0 00-3.2 3.2c0 1.764 1.435 3.2 3.2 3.2 1.765 0 3.2-1.436 3.2-3.2 0-1.765-1.435-3.2-3.2-3.2m0 9.6c-3.53 0-6.4-2.87-6.4-6.4 0-3.53 2.87-6.4 6.4-6.4 3.53 0 6.4 2.87 6.4 6.4 0 3.53-2.87 6.4-6.4 6.4" fill="#BFDEFF"/><path d="M707.837 265.184c14.882 15.244 39.31 15.532 54.565.66 15.248-14.88 15.536-39.31.658-54.559-14.88-15.246-39.319-15.552-54.554-.667-15.256 14.888-15.549 39.318-.669 54.566" fill="#3D0D68"/><path d="M708.725 264.203c6.698 6.903 16.064 11.23 26.418 11.31 20.523.153 37.353-16.398 37.53-36.903.158-20.567-16.428-37.376-36.914-37.54-20.536-.164-37.372 16.404-37.536 36.933-.088 10.162 3.93 19.423 10.502 26.2m-19.424-26.277c.189-25.448 21.078-45.993 46.514-45.787 25.44.218 45.98 21.077 45.784 46.527-.202 23.37-17.804 42.579-40.388 45.41l-.29 37.854-10.436-.093.3-37.634c-23.431-2.366-41.674-22.283-41.484-46.277" fill="#16B2FF"/><path d="M709.873 263.09c6.7 6.903 15.677 10.75 25.28 10.825l.268.001c19.516 0 35.484-15.79 35.652-35.321.152-19.653-15.697-35.768-35.328-35.925-.097-.002-.193-.002-.29-.002-19.518 0-35.476 15.797-35.633 35.348-.081 9.4 3.488 18.305 10.051 25.073zm25.548 14.026l-.293-.001c-10.467-.083-20.251-4.272-27.552-11.797-7.152-7.378-11.042-17.083-10.954-27.33.171-21.304 17.563-38.52 38.832-38.52.107 0 .21 0 .317.002 21.395.171 38.667 17.733 38.502 39.152-.182 21.286-17.585 38.494-38.852 38.494zm-3.324 43.135l7.236.065.29-37.656 1.39-.172c22.033-2.762 38.793-21.607 38.985-43.836.19-24.555-19.637-44.704-44.198-44.913-.122-.002-.247-.002-.368-.002-11.74 0-22.813 4.543-31.22 12.816-8.497 8.362-13.223 19.507-13.31 31.386-.185 23.142 17.03 42.347 40.045 44.672l1.45.147-.3 37.493zm10.41 3.293l-13.635-.122.302-37.795c-23.936-3.136-41.667-23.397-41.472-47.712.093-12.733 5.16-24.682 14.266-33.643 9.008-8.866 20.878-13.735 33.464-13.735.131 0 .264 0 .395.002 26.325.225 47.574 21.82 47.371 48.139-.201 23.358-17.469 43.229-40.398 46.789l-.293 38.077z" fill="#3D0D68"/><path fill="#00A0D8" d="M722.348 409.025v-96.472h-6.504V300.74h39.21v11.813h-6.502v96.472z"/><path d="M723.948 407.425h23.004v-96.472h6.502v-8.613h-36.01v8.613h6.504v96.472zm26.204 3.2h-29.404v-96.472h-6.504V299.14h42.41v15.013h-6.502v96.472z" fill="#43566B"/><path d="M751.078 238.292c0 8.634-6.998 15.63-15.632 15.63-8.632 0-15.63-6.996-15.63-15.63 0-8.633 6.998-15.632 15.63-15.632 8.634 0 15.632 6.999 15.632 15.632" fill="#FFF"/><path d="M733.933 224.34l-.341-3.18a17.66 17.66 0 013.514-.02l-.3 3.185a14.74 14.74 0 00-2.873.016zm7.029 1.045a14.065 14.065 0 00-2.736-.85l.627-3.137c1.149.23 2.28.581 3.365 1.043l-1.256 2.944zm-11.17.063l-1.293-2.928a17.036 17.036 0 013.352-1.082l.663 3.131c-.933.197-1.848.493-2.722.879zm14.81 2.21a14.287 14.287 0 00-2.357-1.642l1.557-2.797a17.515 17.515 0 012.884 2.011l-2.084 2.427zm-18.426.102l-2.115-2.4a17.268 17.268 0 012.864-2.048l1.584 2.782a14.14 14.14 0 00-2.333 1.666zm21.213 3.161a14.324 14.324 0 00-1.752-2.275l2.326-2.198a17.467 17.467 0 012.144 2.787l-2.718 1.686zm-23.965.133l-2.738-1.653a17.27 17.27 0 012.116-2.812l2.347 2.176c-.65.7-1.23 1.472-1.725 2.29zm25.63 3.813a13.827 13.827 0 00-.974-2.69l2.878-1.396a17.23 17.23 0 011.204 3.312l-3.108.774zm-27.257.155l-3.112-.74a17.003 17.003 0 011.165-3.325l2.894 1.364a13.94 13.94 0 00-.947 2.701zm-3.538 4.507a17.237 17.237 0 01.107-3.515l3.172.42a14.19 14.19 0 00-.122 1.859c-.002.344.011.678.034 1.01l-3.19.226zm34.063 2.264l-3.135-.65a14.17 14.17 0 00.147-4.867l3.168-.452a17.281 17.281 0 01-.18 5.97zm-32.888 2.874a17.15 17.15 0 01-.96-3.39l3.153-.55c.163.942.426 1.87.78 2.756l-2.973 1.184zm31.04 2.064l-2.788-1.568c.47-.834.852-1.718 1.141-2.629l3.05.967a17.219 17.219 0 01-1.403 3.23zm-28.362 2.474c-.746-.912-1.4-1.9-1.942-2.936l2.838-1.482c.438.843.971 1.648 1.58 2.389l-2.476 2.029zm25.109 1.668l-2.189-2.337c.7-.653 1.334-1.381 1.886-2.163l2.613 1.848a17.445 17.445 0 01-2.31 2.652zm-21.189 1.852a17.307 17.307 0 01-2.734-2.215l2.252-2.27a14.127 14.127 0 002.23 1.803l-1.748 2.682zm16.835 1.121l-1.377-2.886c.86-.411 1.681-.915 2.446-1.496l1.938 2.547a17.212 17.212 0 01-3.007 1.835zm-12.033 1.051a17.07 17.07 0 01-3.282-1.288l1.472-2.84c.846.437 1.742.79 2.664 1.044l-.854 3.084zm6.985.464l-.438-3.17c.95-.13 1.888-.36 2.784-.68l1.077 3.012a17.112 17.112 0 01-3.423.838zm-2.358.16c-.983 0-1.955-.081-2.903-.24l.532-3.156c.772.13 1.566.196 2.356.196l.51-.01.105 3.198-.6.012z" fill="#43566B"/><path d="M529.917 132.456l2.562 2.564 2.561-2.562-2.561-2.563-2.562 2.561zm2.562 7.088l-7.087-7.088 7.087-7.088 7.086 7.092-7.086 7.084zM529.917 156.054l2.562 2.563 2.561-2.561-2.561-2.564-2.562 2.562zm2.562 7.088l-7.087-7.088 7.087-7.088 7.086 7.091-7.086 7.085zM529.917 179.652l2.562 2.563 2.561-2.562-2.561-2.565-2.562 2.564zm2.562 7.088l-7.087-7.088 7.087-7.088 7.086 7.09-7.086 7.086zM552.588 85.29c0 11.103-9.005 20.105-20.106 20.105-11.107 0-20.112-9.002-20.112-20.104 0-11.106 9.005-20.107 20.112-20.107 11.1 0 20.106 9.001 20.106 20.107" fill="#FFF"/><path d="M532.481 66.784c-10.206 0-18.51 8.302-18.51 18.507 0 10.203 8.304 18.504 18.51 18.504 10.205 0 18.506-8.3 18.506-18.504 0-10.205-8.3-18.507-18.506-18.507m0 40.21c-11.97 0-21.71-9.737-21.71-21.703 0-11.97 9.74-21.707 21.71-21.707 11.968 0 21.706 9.737 21.706 21.707 0 11.966-9.738 21.704-21.706 21.704"/><path fill="#43566B" d="M527.753 82.054v3.416h3.327v1.813h-3.327v3.45h-1.813v-3.45h-3.361V85.47h3.361v-3.416zM540.619 80.787h-4.875c-.07.669-.264 2.077-.317 2.534.405-.368 1.179-.669 2.147-.669 2.342 0 3.678 1.568 3.678 3.962 0 2.64-1.443 4.382-4.382 4.382-2.182 0-3.89-1.144-4.067-3.432h2.413c.14.968.772 1.55 1.724 1.55 1.215 0 1.813-.74 1.813-2.36 0-1.478-.616-2.166-1.832-2.166-1.126 0-1.584.495-1.881 1.268l-2.044-.316c.212-1.69.706-5.299.83-6.777h7.074l-.281 2.024z"/><path fill="#4A90E2" d="M531.555 416.09h3.2V311.04h-3.2z"/><path d="M527.525 337.144c-1.613.272-6.84-3.093-9.46-8.901-2.593-5.749-1.29-11.73-.388-12.934 1.5.121 6.846 3.102 9.438 8.85 2.621 5.812 1.682 11.956.41 12.985M542.67 349.431c-1.533-.566-4.392-6.088-3.77-12.432.613-6.275 4.724-10.81 6.106-11.406 1.24.853 4.39 6.1 3.776 12.376-.62 6.344-4.496 11.205-6.112 11.462M533.155 308.195c-10.27-7.796-18.51-15.656-18.51-33.865 0-19.29 9.772-27.835 18.51-42.223 8.739 14.388 18.51 22.933 18.51 42.223 0 18.21-8.241 26.069-18.51 33.865" fill="#00A0D8"/><path d="M533.155 235.134c-1.567 2.456-3.141 4.75-4.675 6.981-6.565 9.555-12.236 17.808-12.236 32.215 0 17.05 7.26 24.422 16.91 31.85 9.343-7.2 16.911-14.846 16.911-31.85 0-14.408-5.672-22.661-12.237-32.218-1.534-2.232-3.107-4.523-4.673-6.978zm0 75.07l-.967-.734c-10.473-7.953-19.144-16.086-19.144-35.14 0-15.4 5.932-24.03 12.799-34.028 1.957-2.848 3.98-5.793 5.945-9.025l1.367-2.25 1.366 2.25c1.963 3.23 3.987 6.176 5.944 9.024 6.869 9.995 12.8 18.627 12.8 34.029 0 19.056-8.67 27.188-19.144 35.14l-.966.735z" fill="#4A90E2"/><path d="M549.037 289.748a31.8 31.8 0 01-.747 1.725c-4.454 4.095-9.973 6.981-15.077 7.827a.367.367 0 01-.118 0c-5.102-.846-10.622-3.732-15.075-7.827a31.272 31.272 0 01-.749-1.725c4.525 4.616 10.448 7.91 15.883 8.828 5.437-.917 11.36-4.212 15.883-8.828" fill="#43566B"/><path d="M551.381 279.855c-.037.363-.078.723-.123 1.077-5.067 4.388-13.016 9.974-18.043 10.806a.377.377 0 01-.12 0c-5.027-.832-12.976-6.418-18.043-10.805a54.042 54.042 0 01-.124-1.078c4.896 4.328 13.2 10.293 18.226 11.16 5.027-.87 13.33-6.832 18.227-11.16" fill="#43566B"/><path d="M551.539 270.658c.02.304.035.616.051.926-5.046 4.429-13.235 10.247-18.376 11.098a.295.295 0 01-.118 0c-5.141-.851-13.33-6.669-18.376-11.098.016-.31.03-.622.051-.926 4.874 4.339 13.302 10.422 18.384 11.299 5.082-.877 13.509-6.96 18.384-11.3" fill="#43566B"/><path d="M550.284 262.69c.066.263.13.527.192.794-5.073 4.27-12.484 9.35-17.262 10.141a.367.367 0 01-.118 0c-4.778-.79-12.188-5.872-17.261-10.14.06-.266.125-.532.19-.794 4.968 4.205 12.463 9.405 17.13 10.21 4.667-.805 12.161-6.005 17.13-10.21" fill="#43566B"/><path d="M547.822 255.633c.102.232.208.46.307.694-4.827 3.757-10.832 7.565-14.915 8.242a.367.367 0 01-.118 0c-4.084-.677-10.088-4.485-14.914-8.242.098-.233.205-.462.307-.694 4.752 3.707 10.719 7.53 14.666 8.213 3.947-.684 9.913-4.508 14.667-8.213M544.372 249.124c.128.212.253.425.379.635-4.037 2.813-8.366 5.229-11.538 5.753a.367.367 0 01-.118 0c-3.168-.524-7.5-2.94-11.538-5.752.127-.21.252-.424.381-.636 3.952 2.758 8.183 5.14 11.216 5.664 3.035-.524 7.264-2.906 11.218-5.664M540.203 242.748l.418.61c-2.698 1.571-5.307 2.75-7.407 3.098a.367.367 0 01-.118 0c-2.1-.348-4.71-1.527-7.406-3.098l.416-.61c2.585 1.51 5.07 2.642 7.05 2.984 1.977-.342 4.463-1.475 7.047-2.984" fill="#43566B"/><path fill="#43566B" d="M532.755 308.195h.8v-76.088h-.8z"/><path d="M568.745 346.538c-8.283 0-15.022-6.74-15.022-15.023 0-8.281 6.74-15.02 15.022-15.02 8.283 0 15.023 6.739 15.023 15.02 0 8.283-6.74 15.023-15.023 15.023" fill="#FFF"/><path d="M568.745 318.094c-7.401 0-13.422 6.02-13.422 13.422 0 7.402 6.02 13.421 13.422 13.421 7.402 0 13.423-6.02 13.423-13.42 0-7.402-6.021-13.423-13.423-13.423m0 30.043c-9.166 0-16.622-7.456-16.622-16.62 0-9.167 7.456-16.623 16.622-16.623 9.167 0 16.623 7.456 16.623 16.622 0 9.165-7.456 16.621-16.623 16.621" fill="#4A90E2"/><path d="M570.963 328.014c-.644-.59-1.183-.922-2.018-.922-.94 0-1.514.488-1.514 1.392 0 2.087 4.732 1.67 4.732 5.183 0 1.653-.975 2.87-2.696 3.184v1.789h-1.392v-1.736c-1.061-.106-2.224-.59-3.01-1.322l.906-1.358c.819.643 1.635 1.076 2.574 1.076 1.13 0 1.686-.555 1.686-1.494 0-2.294-4.73-1.965-4.73-5.234 0-1.619 1.009-2.768 2.574-3.046v-1.773h1.392v1.741c1.113.14 1.878.677 2.523 1.355l-1.027 1.165z" fill="#43566B"/><path d="M496.986 345.884c-11.189 0-20.293-9.102-20.293-20.292 0-11.19 9.104-20.293 20.293-20.293 11.19 0 20.294 9.102 20.294 20.293 0 11.19-9.104 20.292-20.294 20.292" fill="#FFF"/><path d="M496.986 306.898c-10.306 0-18.693 8.386-18.693 18.695 0 10.305 8.387 18.691 18.693 18.691 10.307 0 18.694-8.386 18.694-18.691 0-10.309-8.387-18.695-18.694-18.695m0 40.586c-12.072 0-21.893-9.82-21.893-21.891 0-12.072 9.82-21.895 21.893-21.895 12.072 0 21.894 9.823 21.894 21.895s-9.822 21.891-21.894 21.891" fill="#4A90E2"/><path d="M499.983 320.863c-.87-.8-1.599-1.245-2.727-1.245-1.268 0-2.043.657-2.043 1.878 0 2.82 6.39 2.256 6.39 7.002 0 2.233-1.318 3.877-3.64 4.302v2.418h-1.88v-2.349c-1.436-.14-3.007-.797-4.067-1.784l1.223-1.835c1.105.87 2.21 1.454 3.478 1.454 1.527 0 2.279-.749 2.279-2.017 0-3.101-6.39-2.656-6.39-7.072 0-2.186 1.36-3.736 3.476-4.114v-2.397h1.88v2.352c1.504.187 2.536.915 3.406 1.832l-1.385 1.575z" fill="#43566B"/><path d="M645.38 90.692a3.203 3.203 0 00-3.2 3.2c0 1.765 1.435 3.2 3.2 3.2 1.764 0 3.2-1.435 3.2-3.2 0-1.765-1.436-3.2-3.2-3.2m0 9.6c-3.53 0-6.4-2.87-6.4-6.4 0-3.53 2.87-6.4 6.4-6.4 3.53 0 6.4 2.87 6.4 6.4 0 3.53-2.87 6.4-6.4 6.4M511.572 45.253a3.203 3.203 0 00-3.2 3.2c0 1.765 1.435 3.2 3.2 3.2 1.765 0 3.2-1.435 3.2-3.2 0-1.765-1.435-3.2-3.2-3.2m0 9.6c-3.53 0-6.4-2.87-6.4-6.4 0-3.53 2.87-6.4 6.4-6.4 3.53 0 6.4 2.87 6.4 6.4 0 3.53-2.87 6.4-6.4 6.4M653.1 52.977a5.606 5.606 0 00-5.6 5.6c0 3.088 2.512 5.6 5.6 5.6 3.088 0 5.6-2.512 5.6-5.6 0-3.088-2.512-5.6-5.6-5.6m0 14.4c-4.851 0-8.8-3.948-8.8-8.8 0-4.853 3.949-8.8 8.8-8.8 4.851 0 8.8 3.947 8.8 8.8 0 4.852-3.949 8.8-8.8 8.8M565.51 141.148a5.606 5.606 0 00-5.6 5.6c0 3.088 2.513 5.6 5.6 5.6 3.089 0 5.6-2.512 5.6-5.6 0-3.088-2.511-5.6-5.6-5.6m0 14.4c-4.85 0-8.8-3.948-8.8-8.8 0-4.853 3.95-8.8 8.8-8.8 4.852 0 8.8 3.947 8.8 8.8 0 4.852-3.948 8.8-8.8 8.8M495.49 9.188a5.606 5.606 0 00-5.6 5.6c0 3.088 2.511 5.6 5.6 5.6 3.087 0 5.6-2.512 5.6-5.6 0-3.088-2.513-5.6-5.6-5.6m0 14.4c-4.852 0-8.8-3.948-8.8-8.8 0-4.853 3.948-8.8 8.8-8.8 4.85 0 8.8 3.947 8.8 8.8 0 4.852-3.95 8.8-8.8 8.8M453.128 37.46a5.606 5.606 0 00-5.6 5.6c0 3.087 2.512 5.6 5.6 5.6 3.088 0 5.6-2.513 5.6-5.6 0-3.089-2.512-5.6-5.6-5.6m0 14.4c-4.851 0-8.8-3.948-8.8-8.8 0-4.853 3.949-8.8 8.8-8.8 4.851 0 8.8 3.947 8.8 8.8 0 4.852-3.949 8.8-8.8 8.8M234.663 37.81a5.606 5.606 0 00-5.6 5.6c0 3.087 2.512 5.6 5.6 5.6 3.088 0 5.6-2.513 5.6-5.6 0-3.089-2.512-5.6-5.6-5.6m0 14.4c-4.852 0-8.8-3.948-8.8-8.8 0-4.853 3.948-8.8 8.8-8.8 4.85 0 8.8 3.947 8.8 8.8 0 4.852-3.95 8.8-8.8 8.8" fill="#BFDEFF"/><path d="M625.016 108.38c0 15.75-12.768 28.519-28.519 28.519-15.747 0-28.515-12.768-28.515-28.519 0-15.747 12.768-28.515 28.515-28.515 15.75 0 28.519 12.768 28.519 28.515" fill="#F57423"/><path d="M602.061 114.939l.36-2.282h2.024l-.61 2.282h-1.774zm-16.3-2.282h3.825l.57 2.282h-3.599l-.797-2.282zm13.156-.65l-.392-2.607h3.747l-.41 2.606h-2.945zm.1.65h2.743l-.355 2.23c0 .018.005.033.005.052h-2.055l-.339-2.282zm-9.574-3.257h3.888l.652 2.606h-3.888l-.652-2.606zm-4.822 0h4.152l.651 2.606h-3.893l-.91-2.606zm3.336-3.26l.651 2.609h-4.219l-.91-2.608h4.478zm9.323-.65h-4.256l-.568-2.279h4.482l.342 2.278zm.66 0l-.343-2.279h5.656l-.358 2.278h-4.956zm.094.65h4.755l-.413 2.609h-3.949l-.393-2.608zm-4.867 2.609h-3.885l-.656-2.608h3.891l.65 2.608zm4.697.65l.395 2.607h-3.606l-.65-2.606h3.861zm-4.027-.65l-.651-2.608h4.193l.39 2.608h-3.932zm-2.051-5.538l.57 2.278h-3.892l-.57-2.278h3.892zm-4.56 0l.571 2.278h-4.546l-.796-2.278h4.77zm3.603 11.728l-.571-2.282h3.888l.573 2.282h-3.89zm4.555 0l-.568-2.282h3.54l.339 2.282h-3.31zm9.235-2.933h-2.099l.41-2.606h2.382l-.693 2.606zm.868-3.257h-2.45l.408-2.608h2.736l-.694 2.608zm.868-3.26h-2.804l.358-2.278h3.054l-.608 2.278zm8.244-10.096h-5.556l-1.732 6.514h-25.78v.011c-.07 0-.14 0-.214.026a.656.656 0 00-.398.833l4.715 13.464h19.201l5.212-19.544h4.552a.651.651 0 100-1.304zM601.405 121.452c-.9 0-1.632-.73-1.632-1.628a1.63 1.63 0 013.26 0c-.001.898-.73 1.628-1.628 1.628m-12.38 0c-.897 0-1.63-.73-1.63-1.628 0-.899.733-1.63 1.63-1.63.898 0 1.63.731 1.63 1.63 0 .898-.732 1.628-1.63 1.628m12.38-4.557a2.926 2.926 0 00-2.856 2.278h-6.67a2.93 2.93 0 00-5.786.651 2.932 2.932 0 105.864 0h6.516a2.93 2.93 0 105.861 0c0-1.62-1.312-2.93-2.93-2.93" fill="#FFF"/><path d="M739.686 108.605a3.651 3.651 0 117.302 0 3.65 3.65 0 11-7.302 0M739.686 92.007a3.65 3.65 0 117.302 0 3.651 3.651 0 11-7.302 0M739.686 75.41a3.651 3.651 0 117.302 0 3.65 3.65 0 01-3.65 3.65 3.65 3.65 0 01-3.652-3.65" fill="#BFDEFF"/><path fill="#4A90E2" d="M170.861 377.839h-3.2v-80.74h97.6v56.535h-3.2V300.3h-91.2z"/><path fill="#FFF" d="M186.328 315.234h11.2v-3.2h-11.2zM201.794 315.234h48v-3.2h-48zM186.328 324.834h11.2v-3.2h-11.2zM201.794 324.834h48v-3.2h-48z"/><path d="M241.586 297.57c0 11.748-9.525 21.27-21.269 21.27-11.75 0-21.275-9.522-21.275-21.27 0-11.747 9.525-21.27 21.275-21.27 11.744 0 21.269 9.523 21.269 21.27" fill="#BFDEFF"/><path d="M220.317 277.9c-10.848 0-19.675 8.824-19.675 19.67 0 10.845 8.827 19.67 19.675 19.67 10.845 0 19.669-8.825 19.669-19.67 0-10.846-8.824-19.67-19.669-19.67m0 42.54c-12.614 0-22.875-10.26-22.875-22.87 0-12.61 10.26-22.87 22.875-22.87 12.61 0 22.869 10.26 22.869 22.87 0 12.61-10.26 22.87-22.869 22.87" fill="#FFF"/><path fill="#43566B" d="M214.848 294.812v3.354h3.268v1.78h-3.268v3.388h-1.78v-3.387h-3.303v-1.78h3.303v-3.355zM219.153 303.42v-.12c0-2.281.95-3.785 3.768-5.947 1.367-1.072 1.799-1.486 1.799-2.505 0-1.002-.52-1.608-1.522-1.608-1.176 0-1.624.795-1.73 1.988h-2.297c.102-1.972 1.192-3.785 4.08-3.803 2.625-.017 3.923 1.487 3.923 3.423 0 1.675-.71 2.576-2.749 4.027-1.435 1.038-2.144 1.848-2.37 2.558h5.412l-.293 1.987h-8.02z"/><path fill="#FFF" d="M400.034 307.702h23.065v-5.332h-23.065zM416.227 323.58h-9.319a6.874 6.874 0 01-6.873-6.874v-2.166H423.1v2.166a6.875 6.875 0 01-6.873 6.874"/><path d="M400.034 295.924h23.27v-.7c0-4.894 1.458-9.625 4.2-13.678a18.942 18.942 0 003.258-10.648c0-10.544-8.548-19.093-19.094-19.093-10.542 0-19.093 8.549-19.093 19.093 0 3.946 1.203 7.606 3.26 10.648a24.443 24.443 0 014.2 13.678v.7z" fill="#F57423"/><path d="M401.619 294.324h20.1a25.92 25.92 0 014.461-13.676 17.346 17.346 0 002.983-9.75c0-9.645-7.848-17.493-17.495-17.493-9.644 0-17.49 7.848-17.49 17.493 0 3.494 1.03 6.864 2.982 9.75a25.936 25.936 0 014.459 13.676zm23.286 3.2h-26.47v-2.3c0-4.563-1.359-8.984-3.925-12.782a20.524 20.524 0 01-3.533-11.544c0-11.41 9.282-20.693 20.691-20.693 11.412 0 20.695 9.283 20.695 20.693 0 4.134-1.223 8.126-3.533 11.544a22.73 22.73 0 00-3.925 12.782v2.3z"/><path d="M411.669 314.539v-34.493" fill="#FFF"/><path fill="#43566B" d="M410.069 314.54h3.2v-34.494h-3.2z"/><path d="M408.572 270.906l3.097 5.762 3.098-5.762h-6.195zm3.097 12.52l-8.45-15.72h16.902l-8.452 15.72zM150.967 192.272c0 18.187-14.744 32.931-32.933 32.931-18.187 0-32.93-14.744-32.93-32.931 0-18.189 14.743-32.933 32.93-32.933 18.19 0 32.933 14.744 32.933 32.933" fill="#FFF"/><path d="M118.036 160.939c-17.277 0-31.333 14.056-31.333 31.333s14.056 31.331 31.333 31.331 31.331-14.054 31.331-31.331-14.054-31.333-31.331-31.333m0 65.864c-19.042 0-34.533-15.491-34.533-34.531 0-19.042 15.491-34.533 34.533-34.533 19.04 0 34.531 15.491 34.531 34.533 0 19.04-15.491 34.531-34.531 34.531" fill="#4A90E2"/><path d="M115.152 166.242a1.617 1.617 0 011.52-1.68 1.622 1.622 0 011.68 1.536c.048.88-.64 1.634-1.52 1.664-.032.016-.048.016-.08.016a1.614 1.614 0 01-1.6-1.536m9.232 2.32a1.58 1.58 0 01-1.12-1.952 1.581 1.581 0 011.952-1.134 1.618 1.618 0 011.136 1.966 1.623 1.623 0 01-1.552 1.184c-.128 0-.272-.016-.416-.064m-17.056-.192c-.304-.83.112-1.76.944-2.064.816-.32 1.744.112 2.064.928.304.834-.112 1.762-.944 2.064a1.4 1.4 0 01-.56.112c-.656 0-1.264-.4-1.504-1.04m24 3.28c-.736-.48-.96-1.472-.48-2.208a1.604 1.604 0 012.224-.48c.736.48.944 1.472.464 2.208a1.593 1.593 0 01-2.208.48m-30.784 1.136c-.544-.688-.448-1.696.256-2.24a1.583 1.583 0 012.24.258 1.597 1.597 0 01-.256 2.238 1.577 1.577 0 01-2.24-.256m36.448 3.92a1.594 1.594 0 01.224-2.238 1.612 1.612 0 012.256.208c.56.686.464 1.694-.224 2.256a1.605 1.605 0 01-1.008.366c-.464 0-.928-.208-1.248-.592m-41.584 2.37a1.6 1.6 0 01-.432-2.226v.018a1.604 1.604 0 012.224-.45c.72.496.928 1.488.432 2.224a1.579 1.579 0 01-1.328.704c-.304 0-.624-.078-.896-.27m45.456 4.174c-.336-.816.08-1.744.896-2.08.816-.32 1.744.08 2.08.912.32.816-.08 1.744-.912 2.08a1.841 1.841 0 01-.576.114c-.64 0-1.248-.386-1.488-1.026m-48.4 3.376a1.605 1.605 0 01-1.104-1.984c.24-.846 1.136-1.328 1.984-1.088a1.61 1.61 0 011.104 1.97 1.623 1.623 0 01-1.552 1.166c-.144 0-.288-.014-.432-.064m50.096 5.65h.016c0-.306.08-.578.208-.816a1.657 1.657 0 01-.272-.8 1.607 1.607 0 011.504-1.698 1.605 1.605 0 011.696 1.488c.016.336-.064.656-.224.928.176.256.272.562.272.898h.016a1.61 1.61 0 01-3.216 0m-52.24.894a1.59 1.59 0 011.536-1.646 1.597 1.597 0 011.664 1.552 1.618 1.618 0 01-1.552 1.648h-.064c-.848 0-1.552-.69-1.584-1.554m52.112 8.626a1.606 1.606 0 01-1.04-2.018 1.598 1.598 0 012.016-1.038 1.596 1.596 0 011.04 2.014 1.59 1.59 0 01-1.52 1.106c-.176 0-.336-.018-.496-.064m-50.512-.178a1.59 1.59 0 01.96-2.048 1.597 1.597 0 012.048.962c.304.83-.144 1.744-.96 2.046a1.628 1.628 0 01-.544.098c-.656 0-1.28-.416-1.504-1.058m46.432 7.186c-.72-.528-.896-1.522-.368-2.242a1.588 1.588 0 012.224-.366c.72.51.88 1.518.368 2.238-.304.434-.8.656-1.296.656-.32 0-.656-.094-.928-.286m-42.32.35a1.609 1.609 0 01.304-2.256 1.605 1.605 0 012.24.306c.528.702.4 1.71-.304 2.238a1.56 1.56 0 01-.976.336c-.48 0-.944-.224-1.264-.624m36.288 5.072c-.528-.72-.384-1.728.32-2.24a1.59 1.59 0 012.24.32 1.605 1.605 0 01-.32 2.24 1.648 1.648 0 01-.96.322c-.496 0-.976-.226-1.28-.642m-30.064.85h-.016a1.613 1.613 0 01-.4-2.226 1.584 1.584 0 012.224-.4c.736.496.912 1.49.416 2.226-.32.448-.816.686-1.328.686-.304 0-.624-.094-.896-.286m22.672 2.464a1.604 1.604 0 01.992-2.034 1.6 1.6 0 012.032 1.008 1.61 1.61 0 01-1.008 2.032c-.16.05-.336.08-.512.08a1.59 1.59 0 01-1.504-1.086m-14.944 1.278a1.604 1.604 0 112-1.072 1.623 1.623 0 01-1.536 1.136c-.16 0-.32-.014-.464-.064m6.88-.4a1.59 1.59 0 011.568-1.614 1.593 1.593 0 011.632 1.566 1.61 1.61 0 01-1.584 1.634h-.016c-.88 0-1.584-.706-1.6-1.586M102.871 200.052v-1.335l1.704-1.657c4.106-3.908 5.962-5.983 5.986-8.408 0-1.632-.79-3.141-3.19-3.141-1.46 0-2.67.742-3.414 1.36l-.69-1.533a7.05 7.05 0 014.548-1.632c3.464 0 4.922 2.374 4.922 4.674 0 2.968-2.152 5.366-5.538 8.632l-1.288 1.187v.048h7.222v1.805h-10.262zM122.284 193.969v-5.367c0-.841.024-1.681.073-2.523h-.073c-.495.941-.892 1.634-1.336 2.375l-3.932 5.465v.05h5.268zm0 6.083v-4.378h-7.47v-1.433l7.172-10.263h2.349v9.99h2.25v1.706h-2.25v4.378h-2.051zM128.181 182.533v2.46h2.845v-2.46h.766v5.881h-.766v-2.756h-2.845v2.756h-.76v-5.881zM133.873 185.29h.776c.81 0 1.326-.444 1.326-1.116 0-.76-.55-1.091-1.352-1.1-.366 0-.629.036-.75.07v2.147zm-.76-2.68c.385-.078.934-.12 1.457-.12.811 0 1.336.15 1.703.48.294.262.46.663.46 1.116 0 .778-.488 1.293-1.107 1.5v.028c.453.157.723.576.863 1.186.192.819.33 1.387.454 1.614h-.784c-.098-.166-.227-.672-.392-1.405-.178-.813-.49-1.117-1.18-1.144h-.714v2.549h-.76v-5.803z" fill="#43566B"/><path d="M568.2 187.077a4.8 4.8 0 11-9.6 0 4.8 4.8 0 019.6 0M690.645 48.453a4.8 4.8 0 11-9.6 0 4.8 4.8 0 019.6 0M495.631 283.6a4.8 4.8 0 11-9.601-.001 4.8 4.8 0 019.601.001M353.387 302.37a4.8 4.8 0 11-9.602-.001 4.8 4.8 0 019.602.001M378.414 302.37a4.8 4.8 0 11-9.601-.001 4.8 4.8 0 019.601.001" fill="#BFDEFF"/></g></svg>