<svg id="Layer_1" data-name="Layer 1" xmlns="http://www.w3.org/2000/svg" viewBox="0 0 100 100"><defs><style>.cls-1{fill:#024a62;}.cls-2{fill:#fff;}.cls-2,.cls-3,.cls-4{stroke:#024a62;}.cls-2,.cls-3,.cls-4,.cls-6{stroke-miterlimit:10;}.cls-3,.cls-4,.cls-6{fill:none;}.cls-3,.cls-6{stroke-linecap:round;}.cls-5{fill:#e27026;}.cls-6{stroke:#e27026;stroke-width:1.5px;}</style></defs><title>bot</title><path class="cls-1" d="M64.26,26c3.07,0,5.57,3.17,5.57,7.07V43.93c0,3.9-2.5,7.07-5.57,7.07H33.41c-3.08,0-5.58-3.17-5.58-7.06,0-4.54.09-12,.2-12.74A8.16,8.16,0,0,1,29.54,28a5.26,5.26,0,0,1,3.87-2H64.26m0-1H33.41a6.31,6.31,0,0,0-4.65,2.37A9.09,9.09,0,0,0,27.06,31c-.19.84-.23,13-.23,13,0,4.44,3,8.07,6.58,8.07H64.26c3.61,0,6.57-3.63,6.57-8.07V33.07c0-4.44-3-8.07-6.57-8.07Z"/><path class="cls-1" d="M78.67,61A7.34,7.34,0,0,1,86,68.33V81.67A7.34,7.34,0,0,1,78.67,89H20.33A7.34,7.34,0,0,1,13,81.67V68.33A7.34,7.34,0,0,1,20.33,61H78.67m0-1H20.33A8.36,8.36,0,0,0,12,68.33V81.67A8.36,8.36,0,0,0,20.33,90H78.67A8.36,8.36,0,0,0,87,81.67V68.33A8.36,8.36,0,0,0,78.67,60Z"/><path class="cls-1" d="M41.18,34a1.76,1.76,0,0,1,1.76,1.76v2.48A1.76,1.76,0,0,1,41.18,40H37.75A1.76,1.76,0,0,1,36,38.24V35.76A1.76,1.76,0,0,1,37.75,34h3.43m0-1H37.75A2.77,2.77,0,0,0,35,35.76v2.48A2.77,2.77,0,0,0,37.75,41h3.43a2.77,2.77,0,0,0,2.76-2.76V35.76A2.77,2.77,0,0,0,41.18,33Z"/><line class="cls-2" x1="37" y1="52" x2="37" y2="60"/><line class="cls-2" x1="61" y1="52" x2="61" y2="60"/><line class="cls-3" x1="42.72" y1="45.5" x2="56.57" y2="45.5"/><line class="cls-4" x1="49" y1="25" x2="49" y2="17"/><ellipse class="cls-4" cx="49" cy="14.5" rx="2.5" ry="3"/><path class="cls-1" d="M32.58,79.75l5.56-2.87v.83l-4.69,2.35v0l4.69,2.35v.82L32.58,80.4Z"/><path class="cls-1" d="M39.85,75.29a9.65,9.65,0,0,1,1.9-.17,3.31,3.31,0,0,1,2.22.59,1.7,1.7,0,0,1,.68,1.43,1.92,1.92,0,0,1-1.37,1.77v0A2.09,2.09,0,0,1,45,81a2.16,2.16,0,0,1-.69,1.62,4,4,0,0,1-2.79.76,11.75,11.75,0,0,1-1.62-.1Zm1,3.31h1c1.1,0,1.75-.58,1.75-1.36,0-.94-.72-1.32-1.78-1.32a4,4,0,0,0-.92.08Zm0,3.87a5.2,5.2,0,0,0,.88,0c1.08,0,2.07-.4,2.07-1.57s-1-1.56-2.09-1.56h-.86Z"/><path class="cls-1" d="M53.26,79.14c0,2.78-1.69,4.26-3.75,4.26s-3.64-1.66-3.64-4.11,1.6-4.24,3.76-4.24S53.26,76.74,53.26,79.14ZM47,79.27c0,1.73.93,3.27,2.58,3.27s2.59-1.52,2.59-3.35c0-1.61-.84-3.29-2.58-3.29S47,77.5,47,79.27Z"/><path class="cls-1" d="M55.85,76.07H53.4v-.89h6v.89H56.91v7.19H55.85Z"/><path class="cls-1" d="M65.73,80.41l-5.57,2.85v-.82l4.73-2.35v0l-4.73-2.35v-.83l5.57,2.86Z"/><circle class="cls-5" cx="36.5" cy="66.5" r="2.5"/><circle class="cls-5" cx="49.5" cy="66.5" r="2.5"/><circle class="cls-5" cx="61.5" cy="66.5" r="2.5"/><rect class="cls-4" x="23.17" y="31.5" width="4.07" height="11" rx="2.04"/><rect class="cls-4" x="70.43" y="31.5" width="4.07" height="11" rx="2.04"/><path class="cls-1" d="M60.74,34a1.76,1.76,0,0,1,1.76,1.76v2.48A1.76,1.76,0,0,1,60.74,40H57.3a1.76,1.76,0,0,1-1.76-1.76V35.76A1.76,1.76,0,0,1,57.3,34h3.44m0-1H57.3a2.77,2.77,0,0,0-2.76,2.76v2.48A2.77,2.77,0,0,0,57.3,41h3.44a2.77,2.77,0,0,0,2.76-2.76V35.76A2.77,2.77,0,0,0,60.74,33Z"/><line class="cls-6" x1="7" y1="7" x2="93" y2="93"/></svg>