<svg xmlns="http://www.w3.org/2000/svg" xmlns:xlink="http://www.w3.org/1999/xlink" viewBox="0 0 211.02 212.9"><defs><style>.cls-1{isolation:isolate;}.cls-2{mix-blend-mode:multiply;fill:url(#_ÂÁ_Ï_ÌÌ_È_ËÂÌÚ_12);}.cls-3{fill:#d7e7f7;}.cls-4{fill:#f2a437;}.cls-5{fill:#f16900;}.cls-6{fill:#445394;}.cls-7{fill:#034462;}.cls-8{fill:#012235;}.cls-9{fill:#025a82;}.cls-10{fill:#ffc904;}.cls-11{fill:#0cd9d4;}</style><linearGradient id="_ÂÁ_Ï_ÌÌ_È_ËÂÌÚ_12" x1="75.86" y1="207.37" x2="141.56" y2="100.3" gradientUnits="userSpaceOnUse"><stop offset="0" stop-color="#a1a1bd"/><stop offset="1" stop-color="#fff"/></linearGradient></defs><g class="cls-1"><g id="Layer_2" data-name="Layer 2"><g id="Layer_1-2" data-name="Layer 1"><path class="cls-2" d="M209.5,139.12,129.43,92.17a3.06,3.06,0,0,0-3.07,0L10.65,158.84a3.06,3.06,0,0,0,0,5.29L90,210.86a3.06,3.06,0,0,0,3.07,0l116.36-66.47A3.05,3.05,0,0,0,209.5,139.12Z"/><path class="cls-3" d="M102.15,212.9a2,2,0,0,1-1.15-.36L55.71,180.78a16,16,0,0,1-6.79-13.06V146.9a2,2,0,0,1,4,0v20.82A11.94,11.94,0,0,0,58,177.5l45.29,31.76a2,2,0,0,1,.49,2.79A2,2,0,0,1,102.15,212.9Z"/><path class="cls-3" d="M49.81,173.23a1.93,1.93,0,0,1-.7-.13l-47.81-18a2,2,0,1,1,1.4-3.74l47.82,18a2,2,0,0,1-.71,3.87Z"/><g class="cls-1"><path class="cls-4" d="M55.13,170.87a9.54,9.54,0,0,0-.52-1.44,9,9,0,0,0-.77-1.36,7.44,7.44,0,0,0-2.32-2.26,3.82,3.82,0,0,0-1.74-.55,2.27,2.27,0,0,0-1,.15,2.41,2.41,0,0,0-.33.15l-2.84,1.65a1.26,1.26,0,0,1,.33-.16,2.43,2.43,0,0,1,1-.15,3.72,3.72,0,0,1,1.73.56A7.4,7.4,0,0,1,51,169.71a10.11,10.11,0,0,1,.77,1.36,8.61,8.61,0,0,1,.53,1.44,7.38,7.38,0,0,1,.27,2.3,3.24,3.24,0,0,1-1.41,2.77L54,175.94a3.26,3.26,0,0,0,1.4-2.77A7,7,0,0,0,55.13,170.87Z"/><path class="cls-5" d="M48.67,167.46a8.7,8.7,0,0,1,3.89,7.35c-.16,2.73-2.15,3.85-4.45,2.52A8.7,8.7,0,0,1,44.22,170C44.38,167.25,46.37,166.12,48.67,167.46Z"/></g><path class="cls-6" d="M49.25,175.07c.61,0,1-.52,1-1.35a4.43,4.43,0,0,0-2-3.73,1.72,1.72,0,0,0-.87-.27c-.61,0-1,.52-1.05,1.35a4.43,4.43,0,0,0,2,3.73,1.72,1.72,0,0,0,.87.27Z"/><polygon class="cls-5" points="127.05 44.19 86.94 67.74 9.85 23.88 50.53 0 127.05 44.19"/><polygon class="cls-7" points="127.05 158.82 86.94 182.38 86.94 67.81 127.05 44.26 127.05 158.82"/><polygon class="cls-8" points="86.94 182.48 9.47 138.31 9.47 23.63 86.94 67.81 86.94 182.48"/><polygon class="cls-7" points="75.58 163.35 22.03 132.81 22.03 113.01 75.58 143.55 75.58 163.35"/><polygon class="cls-9" points="23.88 130.95 75.58 160.43 75.58 163.35 22.03 132.81 22.03 113.01 23.88 114.07 23.88 130.95"/><polygon class="cls-8" points="122.7 147.1 90.87 165.25 90.87 149.14 122.7 130.99 122.7 147.1"/><polygon class="cls-7" points="119.19 149.1 116.78 150.48 116.78 134.36 119.19 132.98 119.19 149.1"/><polygon class="cls-4" points="119.19 149.1 116.78 150.48 116.78 145.91 119.19 144.53 119.19 149.1"/><polygon class="cls-10" points="119.19 139.8 116.78 141.17 116.78 134.36 119.19 132.98 119.19 139.8"/><polygon class="cls-7" points="115.22 151.36 112.8 152.74 112.8 136.62 115.22 135.24 115.22 151.36"/><polygon class="cls-4" points="115.22 139.81 112.8 141.19 112.8 136.62 115.22 135.24 115.22 139.81"/><polygon class="cls-10" points="115.22 151.36 112.8 152.74 112.8 145.93 115.22 144.55 115.22 151.36"/><polygon class="cls-7" points="111.27 153.59 108.86 154.97 108.86 138.85 111.27 137.47 111.27 153.59"/><polygon class="cls-4" points="111.27 153.59 108.86 154.97 108.86 150.4 111.27 149.02 111.27 153.59"/><polygon class="cls-10" points="111.27 144.29 108.86 145.66 108.86 138.85 111.27 137.47 111.27 144.29"/><polygon class="cls-7" points="107.3 155.85 104.89 157.23 104.89 141.11 107.3 139.73 107.3 155.85"/><polygon class="cls-4" points="107.3 144.31 104.89 145.68 104.89 141.11 107.3 139.73 107.3 144.31"/><polygon class="cls-10" points="107.3 155.85 104.89 157.23 104.89 150.41 107.3 149.04 107.3 155.85"/><polygon class="cls-7" points="103.36 158.08 100.94 159.46 100.94 143.34 103.36 141.96 103.36 158.08"/><polygon class="cls-4" points="103.36 158.08 100.94 159.46 100.94 154.89 103.36 153.51 103.36 158.08"/><polygon class="cls-10" points="103.36 148.78 100.94 150.15 100.94 143.34 103.36 141.96 103.36 148.78"/><polygon class="cls-7" points="99.38 160.34 96.97 161.72 96.97 145.6 99.38 144.22 99.38 160.34"/><polygon class="cls-4" points="99.38 148.79 96.97 150.17 96.97 145.6 99.38 144.22 99.38 148.79"/><polygon class="cls-10" points="99.38 160.34 96.97 161.72 96.97 154.9 99.38 153.53 99.38 160.34"/><polygon class="cls-7" points="95.44 162.57 93.03 163.95 93.03 147.83 95.44 146.45 95.44 162.57"/><polygon class="cls-4" points="95.44 162.57 93.03 163.95 93.03 159.38 95.44 158 95.44 162.57"/><polygon class="cls-10" points="95.44 153.27 93.03 154.64 93.03 147.83 95.44 146.45 95.44 153.27"/><polygon class="cls-9" points="121.18 131.85 122.7 130.99 122.7 147.1 90.87 165.25 90.87 162.88 121.18 145.59 121.18 131.85"/><polygon class="cls-11" points="72.17 147.22 69.25 145.56 69.25 142.6 72.17 144.27 72.17 147.22"/><polygon class="cls-10" points="72.17 151.51 69.25 149.85 69.25 146.9 72.17 148.56 72.17 151.51"/><polygon class="cls-11" points="72.17 155.81 69.25 154.14 69.25 151.19 72.17 152.85 72.17 155.81"/><polygon class="cls-11" points="68.02 144.88 65.1 143.22 65.1 140.27 68.02 141.93 68.02 144.88"/><polygon class="cls-11" points="68.02 149.18 65.1 147.51 65.1 144.56 68.02 146.23 68.02 149.18"/><polygon class="cls-4" points="68.02 153.47 65.1 151.81 65.1 148.85 68.02 150.52 68.02 153.47"/><polygon class="cls-4" points="63.86 142.55 60.94 140.88 60.94 137.93 63.86 139.6 63.86 142.55"/><polygon class="cls-11" points="63.86 146.84 60.94 145.18 60.94 142.23 63.86 143.89 63.86 146.84"/><polygon class="cls-11" points="63.86 151.14 60.94 149.47 60.94 146.52 63.86 148.19 63.86 151.14"/><polygon class="cls-10" points="59.71 140.21 56.78 138.55 56.78 135.6 59.71 137.26 59.71 140.21"/><polygon class="cls-11" points="59.71 144.51 56.78 142.84 56.78 139.89 59.71 141.56 59.71 144.51"/><polygon class="cls-4" points="59.71 148.8 56.78 147.13 56.78 144.18 59.71 145.85 59.71 148.8"/><polygon class="cls-11" points="55.66 137.9 52.74 136.24 52.74 133.29 55.66 134.95 55.66 137.9"/><polygon class="cls-11" points="55.66 146.49 52.74 144.83 52.74 141.88 55.66 143.54 55.66 146.49"/><polygon class="cls-11" points="51.5 139.86 48.58 138.2 48.58 135.25 51.5 136.91 51.5 139.86"/><polygon class="cls-4" points="51.5 144.15 48.58 142.49 48.58 139.54 51.5 141.2 51.5 144.15"/><polygon class="cls-4" points="47.35 133.23 44.43 131.57 44.43 128.62 47.35 130.28 47.35 133.23"/><polygon class="cls-11" points="47.35 141.82 44.43 140.15 44.43 137.2 47.35 138.87 47.35 141.82"/><polygon class="cls-11" points="43.19 135.19 40.27 133.53 40.27 130.57 43.19 132.24 43.19 135.19"/><polygon class="cls-7" points="75.58 138.35 22.03 107.81 22.03 88.01 75.58 118.56 75.58 138.35"/><polygon class="cls-9" points="23.88 105.95 75.58 135.44 75.58 138.35 22.03 107.81 22.03 88.01 23.88 89.07 23.88 105.95"/><polygon class="cls-8" points="122.7 122.11 90.87 140.26 90.87 124.14 122.7 105.99 122.7 122.11"/><polygon class="cls-7" points="119.19 124.11 116.78 125.48 116.78 109.36 119.19 107.98 119.19 124.11"/><polygon class="cls-4" points="119.19 124.11 116.78 125.48 116.78 120.91 119.19 119.53 119.19 124.11"/><polygon class="cls-10" points="119.19 114.8 116.78 116.17 116.78 109.36 119.19 107.98 119.19 114.8"/><polygon class="cls-7" points="115.22 126.36 112.8 127.74 112.8 111.62 115.22 110.25 115.22 126.36"/><polygon class="cls-4" points="115.22 114.82 112.8 116.19 112.8 111.62 115.22 110.25 115.22 114.82"/><polygon class="cls-10" points="115.22 126.36 112.8 127.74 112.8 120.93 115.22 119.55 115.22 126.36"/><polygon class="cls-7" points="111.27 128.59 108.86 129.97 108.86 113.85 111.27 112.47 111.27 128.59"/><polygon class="cls-4" points="111.27 128.59 108.86 129.97 108.86 125.4 111.27 124.02 111.27 128.59"/><polygon class="cls-10" points="111.27 119.29 108.86 120.66 108.86 113.85 111.27 112.47 111.27 119.29"/><polygon class="cls-7" points="107.3 130.85 104.89 132.23 104.89 116.11 107.3 114.73 107.3 130.85"/><polygon class="cls-4" points="107.3 119.31 104.89 120.68 104.89 116.11 107.3 114.73 107.3 119.31"/><polygon class="cls-10" points="107.3 130.85 104.89 132.23 104.89 125.42 107.3 124.04 107.3 130.85"/><polygon class="cls-7" points="103.36 133.08 100.94 134.46 100.94 118.34 103.36 116.97 103.36 133.08"/><polygon class="cls-4" points="103.36 133.08 100.94 134.46 100.94 129.89 103.36 128.51 103.36 133.08"/><polygon class="cls-10" points="103.36 123.78 100.94 125.15 100.94 118.34 103.36 116.97 103.36 123.78"/><polygon class="cls-7" points="99.38 135.34 96.97 136.72 96.97 120.6 99.38 119.22 99.38 135.34"/><polygon class="cls-4" points="99.38 123.8 96.97 125.17 96.97 120.6 99.38 119.22 99.38 123.8"/><polygon class="cls-10" points="99.38 135.34 96.97 136.72 96.97 129.91 99.38 128.53 99.38 135.34"/><polygon class="cls-7" points="95.44 137.57 93.03 138.95 93.03 122.83 95.44 121.45 95.44 137.57"/><polygon class="cls-4" points="95.44 137.57 93.03 138.95 93.03 134.38 95.44 133 95.44 137.57"/><polygon class="cls-10" points="95.44 128.27 93.03 129.64 93.03 122.83 95.44 121.45 95.44 128.27"/><polygon class="cls-9" points="121.18 106.85 122.7 105.99 122.7 122.11 90.87 140.26 90.87 137.88 121.18 120.6 121.18 106.85"/><polygon class="cls-11" points="72.17 122.22 69.25 120.56 69.25 117.61 72.17 119.27 72.17 122.22"/><polygon class="cls-10" points="72.17 126.52 69.25 124.85 69.25 121.9 72.17 123.56 72.17 126.52"/><polygon class="cls-11" points="72.17 130.81 69.25 129.14 69.25 126.19 72.17 127.86 72.17 130.81"/><polygon class="cls-11" points="68.02 119.89 65.1 118.22 65.1 115.27 68.02 116.94 68.02 119.89"/><polygon class="cls-11" points="68.02 124.18 65.1 122.52 65.1 119.56 68.02 121.23 68.02 124.18"/><polygon class="cls-4" points="68.02 128.47 65.1 126.81 65.1 123.86 68.02 125.52 68.02 128.47"/><polygon class="cls-4" points="63.86 117.55 60.94 115.89 60.94 112.94 63.86 114.6 63.86 117.55"/><polygon class="cls-11" points="63.86 121.84 60.94 120.18 60.94 117.23 63.86 118.89 63.86 121.84"/><polygon class="cls-11" points="63.86 126.14 60.94 124.47 60.94 121.52 63.86 123.19 63.86 126.14"/><polygon class="cls-10" points="59.71 115.22 56.78 113.55 56.78 110.6 59.71 112.26 59.71 115.22"/><polygon class="cls-11" points="59.71 119.51 56.78 117.84 56.78 114.89 59.71 116.56 59.71 119.51"/><polygon class="cls-4" points="59.71 123.8 56.78 122.14 56.78 119.19 59.71 120.85 59.71 123.8"/><polygon class="cls-11" points="55.66 112.91 52.74 111.24 52.74 108.29 55.66 109.95 55.66 112.91"/><polygon class="cls-11" points="55.66 121.49 52.74 119.83 52.74 116.88 55.66 118.54 55.66 121.49"/><polygon class="cls-11" points="51.5 114.86 48.58 113.2 48.58 110.25 51.5 111.91 51.5 114.86"/><polygon class="cls-4" points="51.5 119.16 48.58 117.49 48.58 114.54 51.5 116.21 51.5 119.16"/><polygon class="cls-4" points="47.35 108.23 44.43 106.57 44.43 103.62 47.35 105.28 47.35 108.23"/><polygon class="cls-11" points="47.35 116.82 44.43 115.16 44.43 112.2 47.35 113.87 47.35 116.82"/><polygon class="cls-11" points="43.19 110.19 40.27 108.53 40.27 105.58 43.19 107.24 43.19 110.19"/><polygon class="cls-7" points="75.58 113.35 22.03 82.81 22.03 63.01 75.58 93.56 75.58 113.35"/><polygon class="cls-9" points="23.88 80.96 75.58 110.44 75.58 113.35 22.03 82.81 22.03 63.01 23.88 64.07 23.88 80.96"/><polygon class="cls-8" points="122.7 97.11 90.87 115.26 90.87 99.14 122.7 80.99 122.7 97.11"/><polygon class="cls-7" points="119.19 99.11 116.78 100.48 116.78 84.36 119.19 82.99 119.19 99.11"/><polygon class="cls-4" points="119.19 99.11 116.78 100.48 116.78 95.91 119.19 94.53 119.19 99.11"/><polygon class="cls-10" points="119.19 89.8 116.78 91.18 116.78 84.36 119.19 82.99 119.19 89.8"/><polygon class="cls-7" points="115.22 101.37 112.8 102.74 112.8 86.62 115.22 85.25 115.22 101.37"/><polygon class="cls-4" points="115.22 89.82 112.8 91.19 112.8 86.62 115.22 85.25 115.22 89.82"/><polygon class="cls-10" points="115.22 101.37 112.8 102.74 112.8 95.93 115.22 94.56 115.22 101.37"/><polygon class="cls-7" points="111.27 103.6 108.86 104.97 108.86 88.85 111.27 87.48 111.27 103.6"/><polygon class="cls-4" points="111.27 103.6 108.86 104.97 108.86 100.4 111.27 99.02 111.27 103.6"/><polygon class="cls-10" points="111.27 94.29 108.86 95.67 108.86 88.85 111.27 87.48 111.27 94.29"/><polygon class="cls-7" points="107.3 105.86 104.89 107.23 104.89 91.11 107.3 89.74 107.3 105.86"/><polygon class="cls-4" points="107.3 94.31 104.89 95.69 104.89 91.11 107.3 89.74 107.3 94.31"/><polygon class="cls-10" points="107.3 105.86 104.89 107.23 104.89 100.42 107.3 99.04 107.3 105.86"/><polygon class="cls-7" points="103.36 108.09 100.94 109.46 100.94 93.34 103.36 91.97 103.36 108.09"/><polygon class="cls-4" points="103.36 108.09 100.94 109.46 100.94 104.89 103.36 103.51 103.36 108.09"/><polygon class="cls-10" points="103.36 98.78 100.94 100.16 100.94 93.34 103.36 91.97 103.36 98.78"/><polygon class="cls-7" points="99.38 110.35 96.97 111.72 96.97 95.6 99.38 94.23 99.38 110.35"/><polygon class="cls-4" points="99.38 98.8 96.97 100.17 96.97 95.6 99.38 94.23 99.38 98.8"/><polygon class="cls-10" points="99.38 110.35 96.97 111.72 96.97 104.91 99.38 103.53 99.38 110.35"/><polygon class="cls-7" points="95.44 112.58 93.03 113.95 93.03 97.83 95.44 96.46 95.44 112.58"/><polygon class="cls-4" points="95.44 112.58 93.03 113.95 93.03 109.38 95.44 108 95.44 112.58"/><polygon class="cls-10" points="95.44 103.27 93.03 104.64 93.03 97.83 95.44 96.46 95.44 103.27"/><polygon class="cls-9" points="121.18 81.85 122.7 80.99 122.7 97.11 90.87 115.26 90.87 112.89 121.18 95.6 121.18 81.85"/><polygon class="cls-11" points="72.17 97.22 69.25 95.56 69.25 92.61 72.17 94.27 72.17 97.22"/><polygon class="cls-10" points="72.17 101.52 69.25 99.85 69.25 96.9 72.17 98.57 72.17 101.52"/><polygon class="cls-11" points="72.17 105.81 69.25 104.14 69.25 101.19 72.17 102.86 72.17 105.81"/><polygon class="cls-11" points="68.02 94.89 65.1 93.22 65.1 90.27 68.02 91.94 68.02 94.89"/><polygon class="cls-11" points="68.02 99.18 65.1 97.52 65.1 94.57 68.02 96.23 68.02 99.18"/><polygon class="cls-4" points="68.02 103.47 65.1 101.81 65.1 98.86 68.02 100.52 68.02 103.47"/><polygon class="cls-4" points="63.86 92.55 60.94 90.89 60.94 87.94 63.86 89.6 63.86 92.55"/><polygon class="cls-11" points="63.86 96.85 60.94 95.18 60.94 92.23 63.86 93.89 63.86 96.85"/><polygon class="cls-11" points="63.86 101.14 60.94 99.47 60.94 96.52 63.86 98.19 63.86 101.14"/><polygon class="cls-10" points="59.71 90.22 56.78 88.55 56.78 85.6 59.71 87.27 59.71 90.22"/><polygon class="cls-11" points="59.71 94.51 56.78 92.85 56.78 89.89 59.71 91.56 59.71 94.51"/><polygon class="cls-4" points="59.71 98.8 56.78 97.14 56.78 94.19 59.71 95.85 59.71 98.8"/><polygon class="cls-11" points="55.66 87.91 52.74 86.24 52.74 83.29 55.66 84.96 55.66 87.91"/><polygon class="cls-11" points="55.66 96.5 52.74 94.83 52.74 91.88 55.66 93.54 55.66 96.5"/><polygon class="cls-11" points="51.5 89.86 48.58 88.2 48.58 85.25 51.5 86.91 51.5 89.86"/><polygon class="cls-4" points="51.5 94.16 48.58 92.49 48.58 89.54 51.5 91.21 51.5 94.16"/><polygon class="cls-4" points="47.35 83.24 44.43 81.57 44.43 78.62 47.35 80.29 47.35 83.24"/><polygon class="cls-11" points="47.35 91.82 44.43 90.16 44.43 87.21 47.35 88.87 47.35 91.82"/><polygon class="cls-11" points="43.19 85.19 40.27 83.53 40.27 80.58 43.19 82.24 43.19 85.19"/><polygon class="cls-7" points="75.58 88.35 22.03 57.81 22.03 38.01 75.58 68.56 75.58 88.35"/><polygon class="cls-9" points="23.88 55.96 75.58 85.44 75.58 88.35 22.03 57.81 22.03 38.01 23.88 39.07 23.88 55.96"/><polygon class="cls-8" points="122.7 72.11 90.87 90.26 90.87 74.14 122.7 55.99 122.7 72.11"/><polygon class="cls-7" points="119.19 74.11 116.78 75.48 116.78 59.37 119.19 57.99 119.19 74.11"/><polygon class="cls-4" points="119.19 74.11 116.78 75.48 116.78 70.91 119.19 69.54 119.19 74.11"/><polygon class="cls-10" points="119.19 64.8 116.78 66.18 116.78 59.37 119.19 57.99 119.19 64.8"/><polygon class="cls-7" points="115.22 76.37 112.8 77.75 112.8 61.63 115.22 60.25 115.22 76.37"/><polygon class="cls-4" points="115.22 64.82 112.8 66.2 112.8 61.63 115.22 60.25 115.22 64.82"/><polygon class="cls-10" points="115.22 76.37 112.8 77.75 112.8 70.93 115.22 69.56 115.22 76.37"/><polygon class="cls-7" points="111.27 78.6 108.86 79.97 108.86 63.85 111.27 62.48 111.27 78.6"/><polygon class="cls-4" points="111.27 78.6 108.86 79.97 108.86 75.4 111.27 74.03 111.27 78.6"/><polygon class="cls-10" points="111.27 69.29 108.86 70.67 108.86 63.85 111.27 62.48 111.27 69.29"/><polygon class="cls-7" points="107.3 80.86 104.89 82.23 104.89 66.11 107.3 64.74 107.3 80.86"/><polygon class="cls-4" points="107.3 69.31 104.89 70.69 104.89 66.11 107.3 64.74 107.3 69.31"/><polygon class="cls-10" points="107.3 80.86 104.89 82.23 104.89 75.42 107.3 74.05 107.3 80.86"/><polygon class="cls-7" points="103.36 83.09 100.94 84.46 100.94 68.34 103.36 66.97 103.36 83.09"/><polygon class="cls-4" points="103.36 83.09 100.94 84.46 100.94 79.89 103.36 78.52 103.36 83.09"/><polygon class="cls-10" points="103.36 73.78 100.94 75.16 100.94 68.34 103.36 66.97 103.36 73.78"/><polygon class="cls-7" points="99.38 85.35 96.97 86.72 96.97 70.6 99.38 69.23 99.38 85.35"/><polygon class="cls-4" points="99.38 73.8 96.97 75.18 96.97 70.6 99.38 69.23 99.38 73.8"/><polygon class="cls-10" points="99.38 85.35 96.97 86.72 96.97 79.91 99.38 78.53 99.38 85.35"/><polygon class="cls-7" points="95.44 87.58 93.03 88.95 93.03 72.83 95.44 71.46 95.44 87.58"/><polygon class="cls-4" points="95.44 87.58 93.03 88.95 93.03 84.38 95.44 83.01 95.44 87.58"/><polygon class="cls-10" points="95.44 78.27 93.03 79.65 93.03 72.83 95.44 71.46 95.44 78.27"/><polygon class="cls-9" points="121.18 56.85 122.7 55.99 122.7 72.11 90.87 90.26 90.87 87.89 121.18 70.6 121.18 56.85"/><polygon class="cls-11" points="72.17 72.23 69.25 70.56 69.25 67.61 72.17 69.28 72.17 72.23"/><polygon class="cls-10" points="72.17 76.52 69.25 74.85 69.25 71.9 72.17 73.57 72.17 76.52"/><polygon class="cls-11" points="72.17 80.81 69.25 79.15 69.25 76.2 72.17 77.86 72.17 80.81"/><polygon class="cls-11" points="68.02 69.89 65.1 68.23 65.1 65.28 68.02 66.94 68.02 69.89"/><polygon class="cls-11" points="68.02 74.18 65.1 72.52 65.1 69.57 68.02 71.23 68.02 74.18"/><polygon class="cls-4" points="68.02 78.48 65.1 76.81 65.1 73.86 68.02 75.53 68.02 78.48"/><polygon class="cls-4" points="63.86 67.56 60.94 65.89 60.94 62.94 63.86 64.6 63.86 67.56"/><polygon class="cls-11" points="63.86 71.85 60.94 70.18 60.94 67.23 63.86 68.9 63.86 71.85"/><polygon class="cls-11" points="63.86 76.14 60.94 74.48 60.94 71.53 63.86 73.19 63.86 76.14"/><polygon class="cls-10" points="59.71 65.22 56.78 63.55 56.78 60.6 59.71 62.27 59.71 65.22"/><polygon class="cls-11" points="59.71 69.51 56.78 67.85 56.78 64.9 59.71 66.56 59.71 69.51"/><polygon class="cls-4" points="59.71 73.81 56.78 72.14 56.78 69.19 59.71 70.86 59.71 73.81"/><polygon class="cls-11" points="55.66 62.91 52.74 61.24 52.74 58.29 55.66 59.96 55.66 62.91"/><polygon class="cls-11" points="55.66 71.5 52.74 69.83 52.74 66.88 55.66 68.55 55.66 71.5"/><polygon class="cls-11" points="51.5 64.87 48.58 63.2 48.58 60.25 51.5 61.92 51.5 64.87"/><polygon class="cls-4" points="51.5 69.16 48.58 67.5 48.58 64.55 51.5 66.21 51.5 69.16"/><polygon class="cls-4" points="47.35 58.24 44.43 56.57 44.43 53.62 47.35 55.29 47.35 58.24"/><polygon class="cls-11" points="47.35 66.83 44.43 65.16 44.43 62.21 47.35 63.88 47.35 66.83"/><polygon class="cls-11" points="43.19 60.2 40.27 58.53 40.27 55.58 43.19 57.25 43.19 60.2"/></g></g></g></svg>