<svg xmlns="http://www.w3.org/2000/svg" xmlns:xlink="http://www.w3.org/1999/xlink" width="100" zoomAndPan="magnify" viewBox="0 0 75 74.999997" height="100" preserveAspectRatio="xMidYMid meet" version="1.0"><defs><g/><clipPath id="f30a09ee9e"><path d="M 20.042969 5.296875 L 55 5.296875 L 55 51.796875 L 20.042969 51.796875 Z M 20.042969 5.296875 " clip-rule="nonzero"/></clipPath></defs><g fill="#000000" fill-opacity="1"><g transform="translate(26.919694, 59.701268)"><g><path d="M 2.078125 0.046875 C 1.722656 0.046875 1.410156 -0.0195312 1.140625 -0.15625 C 0.878906 -0.289062 0.675781 -0.484375 0.53125 -0.734375 C 0.382812 -0.984375 0.3125 -1.269531 0.3125 -1.59375 L 0.3125 -3.15625 C 0.3125 -3.476562 0.382812 -3.765625 0.53125 -4.015625 C 0.675781 -4.265625 0.878906 -4.457031 1.140625 -4.59375 C 1.410156 -4.726562 1.722656 -4.796875 2.078125 -4.796875 C 2.429688 -4.796875 2.738281 -4.734375 3 -4.609375 C 3.257812 -4.484375 3.460938 -4.300781 3.609375 -4.0625 C 3.765625 -3.820312 3.84375 -3.546875 3.84375 -3.234375 C 3.84375 -3.191406 3.804688 -3.164062 3.734375 -3.15625 L 3 -3.109375 L 2.984375 -3.109375 C 2.910156 -3.109375 2.875 -3.117188 2.875 -3.140625 L 2.875 -3.1875 C 2.875 -3.425781 2.800781 -3.617188 2.65625 -3.765625 C 2.507812 -3.910156 2.316406 -3.984375 2.078125 -3.984375 C 1.835938 -3.984375 1.644531 -3.910156 1.5 -3.765625 C 1.351562 -3.617188 1.28125 -3.425781 1.28125 -3.1875 L 1.28125 -1.546875 C 1.28125 -1.316406 1.351562 -1.128906 1.5 -0.984375 C 1.644531 -0.835938 1.835938 -0.765625 2.078125 -0.765625 C 2.316406 -0.765625 2.507812 -0.835938 2.65625 -0.984375 C 2.800781 -1.128906 2.875 -1.316406 2.875 -1.546875 C 2.875 -1.578125 2.882812 -1.597656 2.90625 -1.609375 C 2.925781 -1.628906 2.957031 -1.632812 3 -1.625 L 3.71875 -1.59375 C 3.800781 -1.582031 3.84375 -1.570312 3.84375 -1.5625 L 3.84375 -1.53125 C 3.84375 -1.21875 3.765625 -0.941406 3.609375 -0.703125 C 3.460938 -0.460938 3.257812 -0.273438 3 -0.140625 C 2.738281 -0.015625 2.429688 0.046875 2.078125 0.046875 Z M 2.078125 0.046875 "/></g></g></g><g fill="#000000" fill-opacity="1"><g transform="translate(31.189041, 59.701268)"><g><path d="M 2.03125 -0.75 C 2.332031 -0.757812 2.5625 -0.863281 2.71875 -1.0625 C 2.75 -1.09375 2.78125 -1.109375 2.8125 -1.109375 C 2.832031 -1.109375 2.851562 -1.097656 2.875 -1.078125 L 3.265625 -0.703125 C 3.296875 -0.679688 3.3125 -0.65625 3.3125 -0.625 C 3.3125 -0.59375 3.300781 -0.566406 3.28125 -0.546875 C 3.132812 -0.359375 2.941406 -0.210938 2.703125 -0.109375 C 2.472656 -0.00390625 2.222656 0.046875 1.953125 0.046875 C 1.535156 0.046875 1.1875 -0.0546875 0.90625 -0.265625 C 0.632812 -0.472656 0.453125 -0.765625 0.359375 -1.140625 C 0.304688 -1.335938 0.28125 -1.546875 0.28125 -1.765625 C 0.28125 -2.023438 0.304688 -2.25 0.359375 -2.4375 C 0.441406 -2.769531 0.617188 -3.035156 0.890625 -3.234375 C 1.171875 -3.441406 1.5 -3.546875 1.875 -3.546875 C 2.3125 -3.546875 2.660156 -3.414062 2.921875 -3.15625 C 3.179688 -2.894531 3.351562 -2.523438 3.4375 -2.046875 C 3.445312 -1.898438 3.457031 -1.734375 3.46875 -1.546875 C 3.46875 -1.472656 3.429688 -1.4375 3.359375 -1.4375 L 1.28125 -1.4375 C 1.25 -1.4375 1.234375 -1.421875 1.234375 -1.390625 C 1.242188 -1.296875 1.257812 -1.226562 1.28125 -1.1875 C 1.320312 -1.039062 1.410156 -0.929688 1.546875 -0.859375 C 1.679688 -0.785156 1.84375 -0.75 2.03125 -0.75 Z M 1.859375 -2.71875 C 1.710938 -2.71875 1.585938 -2.679688 1.484375 -2.609375 C 1.390625 -2.546875 1.328125 -2.445312 1.296875 -2.3125 C 1.273438 -2.226562 1.257812 -2.175781 1.25 -2.15625 C 1.25 -2.125 1.257812 -2.109375 1.28125 -2.109375 L 2.4375 -2.109375 C 2.457031 -2.109375 2.46875 -2.117188 2.46875 -2.140625 C 2.46875 -2.179688 2.460938 -2.234375 2.453125 -2.296875 C 2.410156 -2.421875 2.335938 -2.519531 2.234375 -2.59375 C 2.140625 -2.675781 2.015625 -2.71875 1.859375 -2.71875 Z M 1.859375 -2.71875 "/></g></g></g><g fill="#000000" fill-opacity="1"><g transform="translate(35.04435, 59.701268)"><g><path d="M 2.171875 -3.546875 C 2.535156 -3.546875 2.828125 -3.429688 3.046875 -3.203125 C 3.265625 -2.984375 3.375 -2.6875 3.375 -2.3125 L 3.375 -0.109375 C 3.375 -0.0351562 3.335938 0 3.265625 0 L 2.53125 0 C 2.457031 0 2.421875 -0.0351562 2.421875 -0.109375 L 2.421875 -2.109375 C 2.421875 -2.285156 2.367188 -2.429688 2.265625 -2.546875 C 2.171875 -2.660156 2.039062 -2.71875 1.875 -2.71875 C 1.707031 -2.71875 1.570312 -2.660156 1.46875 -2.546875 C 1.363281 -2.429688 1.3125 -2.285156 1.3125 -2.109375 L 1.3125 -0.109375 C 1.3125 -0.0351562 1.269531 0 1.1875 0 L 0.46875 0 C 0.394531 0 0.359375 -0.0351562 0.359375 -0.109375 L 0.359375 -3.375 C 0.359375 -3.445312 0.394531 -3.484375 0.46875 -3.484375 L 1.1875 -3.484375 C 1.269531 -3.484375 1.3125 -3.445312 1.3125 -3.375 L 1.3125 -3.1875 C 1.3125 -3.164062 1.3125 -3.148438 1.3125 -3.140625 C 1.320312 -3.140625 1.332031 -3.144531 1.34375 -3.15625 C 1.53125 -3.414062 1.804688 -3.546875 2.171875 -3.546875 Z M 2.171875 -3.546875 "/></g></g></g><g fill="#000000" fill-opacity="1"><g transform="translate(38.899659, 59.701268)"><g><path d="M 2.359375 -2.828125 C 2.359375 -2.753906 2.316406 -2.71875 2.234375 -2.71875 L 1.625 -2.71875 C 1.601562 -2.71875 1.59375 -2.703125 1.59375 -2.671875 L 1.59375 -1.28125 C 1.59375 -1.125 1.617188 -1.007812 1.671875 -0.9375 C 1.734375 -0.875 1.832031 -0.84375 1.96875 -0.84375 L 2.15625 -0.84375 C 2.238281 -0.84375 2.28125 -0.800781 2.28125 -0.71875 L 2.28125 -0.140625 C 2.28125 -0.0664062 2.238281 -0.0234375 2.15625 -0.015625 C 1.988281 -0.00390625 1.867188 0 1.796875 0 C 1.421875 0 1.140625 -0.0625 0.953125 -0.1875 C 0.765625 -0.320312 0.671875 -0.5625 0.671875 -0.90625 L 0.671875 -2.671875 C 0.671875 -2.703125 0.65625 -2.71875 0.625 -2.71875 L 0.28125 -2.71875 C 0.195312 -2.71875 0.15625 -2.753906 0.15625 -2.828125 L 0.15625 -3.375 C 0.15625 -3.445312 0.195312 -3.484375 0.28125 -3.484375 L 0.625 -3.484375 C 0.65625 -3.484375 0.671875 -3.5 0.671875 -3.53125 L 0.671875 -4.296875 C 0.671875 -4.367188 0.707031 -4.40625 0.78125 -4.40625 L 1.46875 -4.40625 C 1.550781 -4.40625 1.59375 -4.367188 1.59375 -4.296875 L 1.59375 -3.53125 C 1.59375 -3.5 1.601562 -3.484375 1.625 -3.484375 L 2.234375 -3.484375 C 2.316406 -3.484375 2.359375 -3.445312 2.359375 -3.375 Z M 2.359375 -2.828125 "/></g></g></g><g fill="#000000" fill-opacity="1"><g transform="translate(41.621454, 59.701268)"><g><path d="M 2.03125 -0.75 C 2.332031 -0.757812 2.5625 -0.863281 2.71875 -1.0625 C 2.75 -1.09375 2.78125 -1.109375 2.8125 -1.109375 C 2.832031 -1.109375 2.851562 -1.097656 2.875 -1.078125 L 3.265625 -0.703125 C 3.296875 -0.679688 3.3125 -0.65625 3.3125 -0.625 C 3.3125 -0.59375 3.300781 -0.566406 3.28125 -0.546875 C 3.132812 -0.359375 2.941406 -0.210938 2.703125 -0.109375 C 2.472656 -0.00390625 2.222656 0.046875 1.953125 0.046875 C 1.535156 0.046875 1.1875 -0.0546875 0.90625 -0.265625 C 0.632812 -0.472656 0.453125 -0.765625 0.359375 -1.140625 C 0.304688 -1.335938 0.28125 -1.546875 0.28125 -1.765625 C 0.28125 -2.023438 0.304688 -2.25 0.359375 -2.4375 C 0.441406 -2.769531 0.617188 -3.035156 0.890625 -3.234375 C 1.171875 -3.441406 1.5 -3.546875 1.875 -3.546875 C 2.3125 -3.546875 2.660156 -3.414062 2.921875 -3.15625 C 3.179688 -2.894531 3.351562 -2.523438 3.4375 -2.046875 C 3.445312 -1.898438 3.457031 -1.734375 3.46875 -1.546875 C 3.46875 -1.472656 3.429688 -1.4375 3.359375 -1.4375 L 1.28125 -1.4375 C 1.25 -1.4375 1.234375 -1.421875 1.234375 -1.390625 C 1.242188 -1.296875 1.257812 -1.226562 1.28125 -1.1875 C 1.320312 -1.039062 1.410156 -0.929688 1.546875 -0.859375 C 1.679688 -0.785156 1.84375 -0.75 2.03125 -0.75 Z M 1.859375 -2.71875 C 1.710938 -2.71875 1.585938 -2.679688 1.484375 -2.609375 C 1.390625 -2.546875 1.328125 -2.445312 1.296875 -2.3125 C 1.273438 -2.226562 1.257812 -2.175781 1.25 -2.15625 C 1.25 -2.125 1.257812 -2.109375 1.28125 -2.109375 L 2.4375 -2.109375 C 2.457031 -2.109375 2.46875 -2.117188 2.46875 -2.140625 C 2.46875 -2.179688 2.460938 -2.234375 2.453125 -2.296875 C 2.410156 -2.421875 2.335938 -2.519531 2.234375 -2.59375 C 2.140625 -2.675781 2.015625 -2.71875 1.859375 -2.71875 Z M 1.859375 -2.71875 "/></g></g></g><g fill="#000000" fill-opacity="1"><g transform="translate(45.476764, 59.701268)"><g><path d="M 2.09375 -3.53125 C 2.238281 -3.53125 2.359375 -3.503906 2.453125 -3.453125 C 2.503906 -3.421875 2.523438 -3.375 2.515625 -3.3125 L 2.375 -2.59375 C 2.375 -2.550781 2.363281 -2.523438 2.34375 -2.515625 C 2.320312 -2.515625 2.289062 -2.515625 2.25 -2.515625 C 2.175781 -2.535156 2.109375 -2.546875 2.046875 -2.546875 C 2.015625 -2.546875 1.960938 -2.539062 1.890625 -2.53125 C 1.722656 -2.519531 1.582031 -2.460938 1.46875 -2.359375 C 1.363281 -2.253906 1.3125 -2.113281 1.3125 -1.9375 L 1.3125 -0.109375 C 1.3125 -0.0351562 1.269531 0 1.1875 0 L 0.46875 0 C 0.394531 0 0.359375 -0.0351562 0.359375 -0.109375 L 0.359375 -3.375 C 0.359375 -3.445312 0.394531 -3.484375 0.46875 -3.484375 L 1.1875 -3.484375 C 1.269531 -3.484375 1.3125 -3.445312 1.3125 -3.375 L 1.3125 -3.15625 C 1.3125 -3.144531 1.3125 -3.132812 1.3125 -3.125 C 1.320312 -3.125 1.335938 -3.128906 1.359375 -3.140625 C 1.535156 -3.398438 1.78125 -3.53125 2.09375 -3.53125 Z M 2.09375 -3.53125 "/></g></g></g><g fill="#000000" fill-opacity="1"><g transform="translate(4.454938, 67.821439)"><g><path d="M 0.734375 0 C 0.671875 0 0.640625 -0.03125 0.640625 -0.09375 L 0.640625 -4.671875 C 0.640625 -4.722656 0.671875 -4.75 0.734375 -4.75 L 2.3125 -4.75 C 2.757812 -4.75 3.113281 -4.628906 3.375 -4.390625 C 3.644531 -4.160156 3.78125 -3.847656 3.78125 -3.453125 L 3.78125 -1.3125 C 3.78125 -0.90625 3.644531 -0.582031 3.375 -0.34375 C 3.113281 -0.113281 2.757812 0 2.3125 0 Z M 1.125 -0.453125 C 1.125 -0.429688 1.132812 -0.421875 1.15625 -0.421875 L 2.328125 -0.421875 C 2.617188 -0.421875 2.851562 -0.503906 3.03125 -0.671875 C 3.207031 -0.847656 3.296875 -1.082031 3.296875 -1.375 L 3.296875 -3.375 C 3.296875 -3.664062 3.207031 -3.898438 3.03125 -4.078125 C 2.863281 -4.253906 2.628906 -4.34375 2.328125 -4.34375 L 1.15625 -4.34375 C 1.132812 -4.34375 1.125 -4.328125 1.125 -4.296875 Z M 1.125 -0.453125 "/></g></g></g><g fill="#000000" fill-opacity="1"><g transform="translate(8.538987, 67.821439)"><g><path d="M 1.734375 -3.5 C 2.140625 -3.5 2.453125 -3.394531 2.671875 -3.1875 C 2.898438 -2.976562 3.015625 -2.703125 3.015625 -2.359375 L 3.015625 -0.09375 C 3.015625 -0.03125 2.984375 0 2.921875 0 L 2.625 0 C 2.5625 0 2.53125 -0.03125 2.53125 -0.09375 L 2.53125 -0.328125 C 2.53125 -0.347656 2.523438 -0.359375 2.515625 -0.359375 C 2.515625 -0.359375 2.507812 -0.351562 2.5 -0.34375 C 2.375 -0.21875 2.21875 -0.117188 2.03125 -0.046875 C 1.851562 0.015625 1.65625 0.046875 1.4375 0.046875 C 1.113281 0.046875 0.84375 -0.03125 0.625 -0.1875 C 0.414062 -0.351562 0.3125 -0.601562 0.3125 -0.9375 C 0.3125 -1.28125 0.429688 -1.546875 0.671875 -1.734375 C 0.921875 -1.929688 1.269531 -2.03125 1.71875 -2.03125 L 2.5 -2.03125 C 2.519531 -2.03125 2.53125 -2.046875 2.53125 -2.078125 L 2.53125 -2.328125 C 2.53125 -2.554688 2.460938 -2.738281 2.328125 -2.875 C 2.203125 -3.007812 2.003906 -3.078125 1.734375 -3.078125 C 1.523438 -3.078125 1.351562 -3.035156 1.21875 -2.953125 C 1.082031 -2.867188 0.992188 -2.753906 0.953125 -2.609375 C 0.941406 -2.554688 0.910156 -2.535156 0.859375 -2.546875 L 0.515625 -2.578125 C 0.460938 -2.585938 0.4375 -2.613281 0.4375 -2.65625 C 0.488281 -2.90625 0.628906 -3.109375 0.859375 -3.265625 C 1.085938 -3.421875 1.378906 -3.5 1.734375 -3.5 Z M 1.546875 -0.359375 C 1.804688 -0.359375 2.035156 -0.425781 2.234375 -0.5625 C 2.429688 -0.695312 2.53125 -0.875 2.53125 -1.09375 L 2.53125 -1.625 C 2.53125 -1.644531 2.519531 -1.65625 2.5 -1.65625 L 1.78125 -1.65625 C 1.488281 -1.65625 1.25 -1.59375 1.0625 -1.46875 C 0.882812 -1.351562 0.796875 -1.1875 0.796875 -0.96875 C 0.796875 -0.769531 0.863281 -0.617188 1 -0.515625 C 1.144531 -0.410156 1.328125 -0.359375 1.546875 -0.359375 Z M 1.546875 -0.359375 "/></g></g></g><g fill="#000000" fill-opacity="1"><g transform="translate(11.895926, 67.821439)"><g><path d="M 2.09375 -3.125 C 2.09375 -3.0625 2.0625 -3.03125 2 -3.03125 L 1.25 -3.03125 C 1.226562 -3.03125 1.21875 -3.019531 1.21875 -3 L 1.21875 -1.015625 C 1.21875 -0.796875 1.265625 -0.640625 1.359375 -0.546875 C 1.460938 -0.460938 1.617188 -0.421875 1.828125 -0.421875 L 1.984375 -0.421875 C 2.035156 -0.421875 2.0625 -0.394531 2.0625 -0.34375 L 2.0625 -0.109375 C 2.0625 -0.046875 2.035156 -0.0078125 1.984375 0 L 1.75 0 C 1.414062 0 1.164062 -0.0625 1 -0.1875 C 0.832031 -0.3125 0.75 -0.539062 0.75 -0.875 L 0.75 -3 C 0.75 -3.019531 0.738281 -3.03125 0.71875 -3.03125 L 0.328125 -3.03125 C 0.273438 -3.03125 0.25 -3.0625 0.25 -3.125 L 0.25 -3.34375 C 0.25 -3.40625 0.273438 -3.4375 0.328125 -3.4375 L 0.71875 -3.4375 C 0.738281 -3.4375 0.75 -3.445312 0.75 -3.46875 L 0.75 -4.234375 C 0.75 -4.296875 0.78125 -4.328125 0.84375 -4.328125 L 1.140625 -4.328125 C 1.191406 -4.328125 1.21875 -4.296875 1.21875 -4.234375 L 1.21875 -3.46875 C 1.21875 -3.445312 1.226562 -3.4375 1.25 -3.4375 L 2 -3.4375 C 2.0625 -3.4375 2.09375 -3.40625 2.09375 -3.34375 Z M 2.09375 -3.125 "/></g></g></g><g fill="#000000" fill-opacity="1"><g transform="translate(14.253934, 67.821439)"><g><path d="M 1.734375 -3.5 C 2.140625 -3.5 2.453125 -3.394531 2.671875 -3.1875 C 2.898438 -2.976562 3.015625 -2.703125 3.015625 -2.359375 L 3.015625 -0.09375 C 3.015625 -0.03125 2.984375 0 2.921875 0 L 2.625 0 C 2.5625 0 2.53125 -0.03125 2.53125 -0.09375 L 2.53125 -0.328125 C 2.53125 -0.347656 2.523438 -0.359375 2.515625 -0.359375 C 2.515625 -0.359375 2.507812 -0.351562 2.5 -0.34375 C 2.375 -0.21875 2.21875 -0.117188 2.03125 -0.046875 C 1.851562 0.015625 1.65625 0.046875 1.4375 0.046875 C 1.113281 0.046875 0.84375 -0.03125 0.625 -0.1875 C 0.414062 -0.351562 0.3125 -0.601562 0.3125 -0.9375 C 0.3125 -1.28125 0.429688 -1.546875 0.671875 -1.734375 C 0.921875 -1.929688 1.269531 -2.03125 1.71875 -2.03125 L 2.5 -2.03125 C 2.519531 -2.03125 2.53125 -2.046875 2.53125 -2.078125 L 2.53125 -2.328125 C 2.53125 -2.554688 2.460938 -2.738281 2.328125 -2.875 C 2.203125 -3.007812 2.003906 -3.078125 1.734375 -3.078125 C 1.523438 -3.078125 1.351562 -3.035156 1.21875 -2.953125 C 1.082031 -2.867188 0.992188 -2.753906 0.953125 -2.609375 C 0.941406 -2.554688 0.910156 -2.535156 0.859375 -2.546875 L 0.515625 -2.578125 C 0.460938 -2.585938 0.4375 -2.613281 0.4375 -2.65625 C 0.488281 -2.90625 0.628906 -3.109375 0.859375 -3.265625 C 1.085938 -3.421875 1.378906 -3.5 1.734375 -3.5 Z M 1.546875 -0.359375 C 1.804688 -0.359375 2.035156 -0.425781 2.234375 -0.5625 C 2.429688 -0.695312 2.53125 -0.875 2.53125 -1.09375 L 2.53125 -1.625 C 2.53125 -1.644531 2.519531 -1.65625 2.5 -1.65625 L 1.78125 -1.65625 C 1.488281 -1.65625 1.25 -1.59375 1.0625 -1.46875 C 0.882812 -1.351562 0.796875 -1.1875 0.796875 -0.96875 C 0.796875 -0.769531 0.863281 -0.617188 1 -0.515625 C 1.144531 -0.410156 1.328125 -0.359375 1.546875 -0.359375 Z M 1.546875 -0.359375 "/></g></g></g><g fill="#000000" fill-opacity="1"><g transform="translate(17.610872, 67.821439)"><g><path d="M 3.1875 -2.5625 C 3.238281 -2.375 3.265625 -2.09375 3.265625 -1.71875 C 3.265625 -1.34375 3.234375 -1.054688 3.171875 -0.859375 C 3.085938 -0.578125 2.9375 -0.351562 2.71875 -0.1875 C 2.507812 -0.03125 2.25 0.046875 1.9375 0.046875 C 1.75 0.046875 1.582031 0.015625 1.4375 -0.046875 C 1.289062 -0.117188 1.164062 -0.222656 1.0625 -0.359375 C 1.050781 -0.367188 1.039062 -0.367188 1.03125 -0.359375 C 1.03125 -0.359375 1.03125 -0.351562 1.03125 -0.34375 L 1.03125 -0.09375 C 1.03125 -0.03125 1 0 0.9375 0 L 0.625 0 C 0.570312 0 0.546875 -0.03125 0.546875 -0.09375 L 0.546875 -4.671875 C 0.546875 -4.722656 0.570312 -4.75 0.625 -4.75 L 0.9375 -4.75 C 1 -4.75 1.03125 -4.722656 1.03125 -4.671875 L 1.03125 -3.09375 C 1.03125 -3.082031 1.03125 -3.070312 1.03125 -3.0625 C 1.039062 -3.0625 1.050781 -3.066406 1.0625 -3.078125 C 1.164062 -3.210938 1.289062 -3.316406 1.4375 -3.390625 C 1.59375 -3.460938 1.757812 -3.5 1.9375 -3.5 C 2.25 -3.5 2.515625 -3.414062 2.734375 -3.25 C 2.953125 -3.082031 3.101562 -2.851562 3.1875 -2.5625 Z M 2.671875 -0.890625 C 2.710938 -0.992188 2.738281 -1.101562 2.75 -1.21875 C 2.769531 -1.34375 2.78125 -1.507812 2.78125 -1.71875 C 2.78125 -1.9375 2.769531 -2.109375 2.75 -2.234375 C 2.726562 -2.359375 2.6875 -2.472656 2.625 -2.578125 C 2.570312 -2.722656 2.476562 -2.84375 2.34375 -2.9375 C 2.207031 -3.03125 2.050781 -3.078125 1.875 -3.078125 C 1.707031 -3.078125 1.5625 -3.03125 1.4375 -2.9375 C 1.3125 -2.84375 1.21875 -2.71875 1.15625 -2.5625 C 1.113281 -2.46875 1.082031 -2.359375 1.0625 -2.234375 C 1.050781 -2.109375 1.046875 -1.9375 1.046875 -1.71875 C 1.046875 -1.5 1.050781 -1.328125 1.0625 -1.203125 C 1.082031 -1.085938 1.113281 -0.984375 1.15625 -0.890625 C 1.21875 -0.734375 1.304688 -0.601562 1.421875 -0.5 C 1.546875 -0.40625 1.695312 -0.359375 1.875 -0.359375 C 2.070312 -0.359375 2.238281 -0.40625 2.375 -0.5 C 2.507812 -0.601562 2.609375 -0.734375 2.671875 -0.890625 Z M 2.671875 -0.890625 "/></g></g></g><g fill="#000000" fill-opacity="1"><g transform="translate(21.178468, 67.821439)"><g><path d="M 1.734375 -3.5 C 2.140625 -3.5 2.453125 -3.394531 2.671875 -3.1875 C 2.898438 -2.976562 3.015625 -2.703125 3.015625 -2.359375 L 3.015625 -0.09375 C 3.015625 -0.03125 2.984375 0 2.921875 0 L 2.625 0 C 2.5625 0 2.53125 -0.03125 2.53125 -0.09375 L 2.53125 -0.328125 C 2.53125 -0.347656 2.523438 -0.359375 2.515625 -0.359375 C 2.515625 -0.359375 2.507812 -0.351562 2.5 -0.34375 C 2.375 -0.21875 2.21875 -0.117188 2.03125 -0.046875 C 1.851562 0.015625 1.65625 0.046875 1.4375 0.046875 C 1.113281 0.046875 0.84375 -0.03125 0.625 -0.1875 C 0.414062 -0.351562 0.3125 -0.601562 0.3125 -0.9375 C 0.3125 -1.28125 0.429688 -1.546875 0.671875 -1.734375 C 0.921875 -1.929688 1.269531 -2.03125 1.71875 -2.03125 L 2.5 -2.03125 C 2.519531 -2.03125 2.53125 -2.046875 2.53125 -2.078125 L 2.53125 -2.328125 C 2.53125 -2.554688 2.460938 -2.738281 2.328125 -2.875 C 2.203125 -3.007812 2.003906 -3.078125 1.734375 -3.078125 C 1.523438 -3.078125 1.351562 -3.035156 1.21875 -2.953125 C 1.082031 -2.867188 0.992188 -2.753906 0.953125 -2.609375 C 0.941406 -2.554688 0.910156 -2.535156 0.859375 -2.546875 L 0.515625 -2.578125 C 0.460938 -2.585938 0.4375 -2.613281 0.4375 -2.65625 C 0.488281 -2.90625 0.628906 -3.109375 0.859375 -3.265625 C 1.085938 -3.421875 1.378906 -3.5 1.734375 -3.5 Z M 1.546875 -0.359375 C 1.804688 -0.359375 2.035156 -0.425781 2.234375 -0.5625 C 2.429688 -0.695312 2.53125 -0.875 2.53125 -1.09375 L 2.53125 -1.625 C 2.53125 -1.644531 2.519531 -1.65625 2.5 -1.65625 L 1.78125 -1.65625 C 1.488281 -1.65625 1.25 -1.59375 1.0625 -1.46875 C 0.882812 -1.351562 0.796875 -1.1875 0.796875 -0.96875 C 0.796875 -0.769531 0.863281 -0.617188 1 -0.515625 C 1.144531 -0.410156 1.328125 -0.359375 1.546875 -0.359375 Z M 1.546875 -0.359375 "/></g></g></g><g fill="#000000" fill-opacity="1"><g transform="translate(24.535405, 67.821439)"><g><path d="M 1.671875 0.03125 C 1.421875 0.03125 1.195312 -0.00390625 1 -0.078125 C 0.800781 -0.160156 0.644531 -0.269531 0.53125 -0.40625 C 0.425781 -0.550781 0.375 -0.707031 0.375 -0.875 L 0.375 -0.9375 C 0.375 -0.988281 0.40625 -1.015625 0.46875 -1.015625 L 0.765625 -1.015625 C 0.785156 -1.015625 0.800781 -1.007812 0.8125 -1 C 0.832031 -0.988281 0.84375 -0.972656 0.84375 -0.953125 L 0.84375 -0.890625 C 0.84375 -0.742188 0.921875 -0.613281 1.078125 -0.5 C 1.234375 -0.394531 1.429688 -0.34375 1.671875 -0.34375 C 1.898438 -0.34375 2.085938 -0.394531 2.234375 -0.5 C 2.378906 -0.601562 2.453125 -0.738281 2.453125 -0.90625 C 2.453125 -1.019531 2.414062 -1.113281 2.34375 -1.1875 C 2.269531 -1.257812 2.179688 -1.3125 2.078125 -1.34375 C 1.972656 -1.382812 1.816406 -1.441406 1.609375 -1.515625 C 1.359375 -1.585938 1.148438 -1.65625 0.984375 -1.71875 C 0.816406 -1.789062 0.675781 -1.890625 0.5625 -2.015625 C 0.457031 -2.148438 0.40625 -2.316406 0.40625 -2.515625 C 0.40625 -2.804688 0.519531 -3.035156 0.75 -3.203125 C 0.976562 -3.378906 1.273438 -3.46875 1.640625 -3.46875 C 1.890625 -3.46875 2.109375 -3.425781 2.296875 -3.34375 C 2.492188 -3.269531 2.644531 -3.160156 2.75 -3.015625 C 2.851562 -2.867188 2.90625 -2.707031 2.90625 -2.53125 C 2.90625 -2.476562 2.878906 -2.453125 2.828125 -2.453125 L 2.546875 -2.453125 C 2.484375 -2.453125 2.453125 -2.46875 2.453125 -2.5 L 2.453125 -2.53125 C 2.453125 -2.6875 2.378906 -2.816406 2.234375 -2.921875 C 2.085938 -3.023438 1.890625 -3.078125 1.640625 -3.078125 C 1.410156 -3.078125 1.222656 -3.03125 1.078125 -2.9375 C 0.941406 -2.84375 0.875 -2.71875 0.875 -2.5625 C 0.875 -2.40625 0.9375 -2.285156 1.0625 -2.203125 C 1.195312 -2.117188 1.410156 -2.035156 1.703125 -1.953125 C 1.960938 -1.878906 2.171875 -1.804688 2.328125 -1.734375 C 2.492188 -1.671875 2.632812 -1.570312 2.75 -1.4375 C 2.875 -1.3125 2.9375 -1.144531 2.9375 -0.9375 C 2.9375 -0.644531 2.820312 -0.410156 2.59375 -0.234375 C 2.363281 -0.0546875 2.054688 0.03125 1.671875 0.03125 Z M 1.671875 0.03125 "/></g></g></g><g fill="#000000" fill-opacity="1"><g transform="translate(27.695273, 67.821439)"><g><path d="M 1.875 -0.359375 C 2.082031 -0.359375 2.257812 -0.398438 2.40625 -0.484375 C 2.550781 -0.578125 2.664062 -0.707031 2.75 -0.875 C 2.757812 -0.894531 2.773438 -0.910156 2.796875 -0.921875 C 2.816406 -0.929688 2.84375 -0.925781 2.875 -0.90625 L 3.0625 -0.796875 C 3.113281 -0.765625 3.128906 -0.726562 3.109375 -0.6875 C 2.992188 -0.457031 2.828125 -0.273438 2.609375 -0.140625 C 2.398438 -0.015625 2.144531 0.046875 1.84375 0.046875 C 1.519531 0.046875 1.25 -0.0234375 1.03125 -0.171875 C 0.820312 -0.316406 0.671875 -0.523438 0.578125 -0.796875 C 0.484375 -1.023438 0.4375 -1.335938 0.4375 -1.734375 C 0.4375 -1.929688 0.441406 -2.085938 0.453125 -2.203125 C 0.460938 -2.316406 0.476562 -2.421875 0.5 -2.515625 C 0.582031 -2.816406 0.738281 -3.054688 0.96875 -3.234375 C 1.195312 -3.410156 1.476562 -3.5 1.8125 -3.5 C 2.207031 -3.5 2.515625 -3.394531 2.734375 -3.1875 C 2.960938 -2.976562 3.109375 -2.691406 3.171875 -2.328125 C 3.203125 -2.179688 3.21875 -1.953125 3.21875 -1.640625 C 3.21875 -1.585938 3.1875 -1.5625 3.125 -1.5625 L 0.953125 -1.5625 C 0.929688 -1.5625 0.921875 -1.546875 0.921875 -1.515625 C 0.921875 -1.296875 0.929688 -1.132812 0.953125 -1.03125 C 1.003906 -0.820312 1.109375 -0.65625 1.265625 -0.53125 C 1.429688 -0.414062 1.632812 -0.359375 1.875 -0.359375 Z M 1.8125 -3.078125 C 1.582031 -3.078125 1.394531 -3.015625 1.25 -2.890625 C 1.113281 -2.773438 1.019531 -2.625 0.96875 -2.4375 C 0.945312 -2.34375 0.929688 -2.1875 0.921875 -1.96875 C 0.921875 -1.945312 0.929688 -1.9375 0.953125 -1.9375 L 2.703125 -1.9375 C 2.722656 -1.9375 2.734375 -1.945312 2.734375 -1.96875 C 2.722656 -2.164062 2.707031 -2.3125 2.6875 -2.40625 C 2.632812 -2.613281 2.53125 -2.773438 2.375 -2.890625 C 2.226562 -3.015625 2.039062 -3.078125 1.8125 -3.078125 Z M 1.8125 -3.078125 "/></g></g></g><g fill="#000000" fill-opacity="1"><g transform="translate(31.208505, 67.821439)"><g/></g></g><g fill="#000000" fill-opacity="1"><g transform="translate(32.452063, 67.821439)"><g><path d="M 4.03125 -0.109375 C 4.050781 -0.0859375 4.0625 -0.0664062 4.0625 -0.046875 C 4.0625 -0.015625 4.035156 0 3.984375 0 L 3.640625 0 C 3.597656 0 3.5625 -0.015625 3.53125 -0.046875 L 3.140625 -0.5 C 3.128906 -0.507812 3.113281 -0.507812 3.09375 -0.5 C 2.882812 -0.300781 2.664062 -0.160156 2.4375 -0.078125 C 2.21875 0.00390625 1.976562 0.046875 1.71875 0.046875 C 1.320312 0.046875 1 -0.046875 0.75 -0.234375 C 0.507812 -0.421875 0.390625 -0.691406 0.390625 -1.046875 C 0.390625 -1.359375 0.476562 -1.625 0.65625 -1.84375 C 0.832031 -2.070312 1.078125 -2.289062 1.390625 -2.5 C 1.410156 -2.519531 1.414062 -2.535156 1.40625 -2.546875 C 1.132812 -2.867188 0.957031 -3.109375 0.875 -3.265625 C 0.789062 -3.421875 0.75 -3.582031 0.75 -3.75 C 0.75 -4.070312 0.851562 -4.328125 1.0625 -4.515625 C 1.269531 -4.710938 1.546875 -4.8125 1.890625 -4.8125 C 2.234375 -4.8125 2.515625 -4.710938 2.734375 -4.515625 C 2.960938 -4.328125 3.078125 -4.078125 3.078125 -3.765625 C 3.078125 -3.492188 2.988281 -3.257812 2.8125 -3.0625 C 2.644531 -2.863281 2.40625 -2.660156 2.09375 -2.453125 C 2.082031 -2.441406 2.082031 -2.425781 2.09375 -2.40625 L 2.890625 -1.46875 L 3.109375 -1.203125 C 3.128906 -1.179688 3.144531 -1.179688 3.15625 -1.203125 C 3.300781 -1.378906 3.445312 -1.566406 3.59375 -1.765625 C 3.625 -1.804688 3.664062 -1.816406 3.71875 -1.796875 L 3.9375 -1.671875 C 3.96875 -1.648438 3.984375 -1.625 3.984375 -1.59375 C 3.984375 -1.582031 3.976562 -1.566406 3.96875 -1.546875 C 3.726562 -1.210938 3.550781 -0.976562 3.4375 -0.84375 C 3.4375 -0.820312 3.445312 -0.796875 3.46875 -0.765625 L 3.765625 -0.421875 Z M 1.90625 -4.359375 C 1.695312 -4.359375 1.53125 -4.300781 1.40625 -4.1875 C 1.289062 -4.082031 1.234375 -3.9375 1.234375 -3.75 C 1.234375 -3.632812 1.265625 -3.515625 1.328125 -3.390625 C 1.398438 -3.273438 1.550781 -3.078125 1.78125 -2.796875 C 1.789062 -2.773438 1.804688 -2.773438 1.828125 -2.796875 C 2.078125 -2.960938 2.265625 -3.117188 2.390625 -3.265625 C 2.523438 -3.421875 2.59375 -3.585938 2.59375 -3.765625 C 2.59375 -3.941406 2.523438 -4.082031 2.390625 -4.1875 C 2.265625 -4.300781 2.101562 -4.359375 1.90625 -4.359375 Z M 1.734375 -0.359375 C 1.929688 -0.359375 2.113281 -0.394531 2.28125 -0.46875 C 2.457031 -0.550781 2.632812 -0.675781 2.8125 -0.84375 C 2.832031 -0.851562 2.835938 -0.867188 2.828125 -0.890625 L 2.515625 -1.234375 C 2.429688 -1.335938 2.359375 -1.421875 2.296875 -1.484375 C 2.003906 -1.828125 1.8125 -2.050781 1.71875 -2.15625 C 1.707031 -2.175781 1.691406 -2.179688 1.671875 -2.171875 C 1.410156 -1.984375 1.210938 -1.800781 1.078125 -1.625 C 0.941406 -1.457031 0.875 -1.265625 0.875 -1.046875 C 0.875 -0.835938 0.953125 -0.671875 1.109375 -0.546875 C 1.265625 -0.421875 1.472656 -0.359375 1.734375 -0.359375 Z M 1.734375 -0.359375 "/></g></g></g><g fill="#000000" fill-opacity="1"><g transform="translate(36.835113, 67.821439)"><g/></g></g><g fill="#000000" fill-opacity="1"><g transform="translate(38.07867, 67.821439)"><g><path d="M 2.09375 0.0625 C 1.769531 0.0625 1.488281 0 1.25 -0.125 C 1.007812 -0.25 0.820312 -0.425781 0.6875 -0.65625 C 0.550781 -0.882812 0.484375 -1.148438 0.484375 -1.453125 L 0.484375 -3.3125 C 0.484375 -3.613281 0.550781 -3.875 0.6875 -4.09375 C 0.820312 -4.320312 1.007812 -4.5 1.25 -4.625 C 1.488281 -4.75 1.769531 -4.8125 2.09375 -4.8125 C 2.40625 -4.8125 2.679688 -4.75 2.921875 -4.625 C 3.160156 -4.5 3.347656 -4.328125 3.484375 -4.109375 C 3.617188 -3.890625 3.6875 -3.632812 3.6875 -3.34375 C 3.6875 -3.300781 3.65625 -3.273438 3.59375 -3.265625 L 3.296875 -3.25 L 3.265625 -3.25 C 3.242188 -3.25 3.226562 -3.253906 3.21875 -3.265625 C 3.207031 -3.273438 3.203125 -3.285156 3.203125 -3.296875 L 3.203125 -3.328125 C 3.203125 -3.648438 3.097656 -3.90625 2.890625 -4.09375 C 2.691406 -4.289062 2.425781 -4.390625 2.09375 -4.390625 C 1.75 -4.390625 1.472656 -4.289062 1.265625 -4.09375 C 1.066406 -3.90625 0.96875 -3.648438 0.96875 -3.328125 L 0.96875 -1.421875 C 0.96875 -1.109375 1.066406 -0.851562 1.265625 -0.65625 C 1.472656 -0.457031 1.75 -0.359375 2.09375 -0.359375 C 2.425781 -0.359375 2.691406 -0.453125 2.890625 -0.640625 C 3.097656 -0.835938 3.203125 -1.097656 3.203125 -1.421875 C 3.203125 -1.484375 3.234375 -1.507812 3.296875 -1.5 L 3.59375 -1.484375 C 3.65625 -1.484375 3.6875 -1.472656 3.6875 -1.453125 L 3.6875 -1.421875 C 3.6875 -1.128906 3.617188 -0.867188 3.484375 -0.640625 C 3.347656 -0.421875 3.160156 -0.25 2.921875 -0.125 C 2.679688 0 2.40625 0.0625 2.09375 0.0625 Z M 2.09375 0.0625 "/></g></g></g><g fill="#000000" fill-opacity="1"><g transform="translate(42.087969, 67.821439)"><g><path d="M 3.71875 -4.421875 C 3.71875 -4.367188 3.6875 -4.34375 3.625 -4.34375 L 1.15625 -4.34375 C 1.132812 -4.34375 1.125 -4.328125 1.125 -4.296875 L 1.125 -2.640625 C 1.125 -2.617188 1.132812 -2.609375 1.15625 -2.609375 L 2.875 -2.609375 C 2.9375 -2.609375 2.96875 -2.578125 2.96875 -2.515625 L 2.96875 -2.265625 C 2.96875 -2.210938 2.9375 -2.1875 2.875 -2.1875 L 1.15625 -2.1875 C 1.132812 -2.1875 1.125 -2.171875 1.125 -2.140625 L 1.125 -0.453125 C 1.125 -0.429688 1.132812 -0.421875 1.15625 -0.421875 L 3.625 -0.421875 C 3.6875 -0.421875 3.71875 -0.390625 3.71875 -0.328125 L 3.71875 -0.09375 C 3.71875 -0.03125 3.6875 0 3.625 0 L 0.734375 0 C 0.671875 0 0.640625 -0.03125 0.640625 -0.09375 L 0.640625 -4.671875 C 0.640625 -4.722656 0.671875 -4.75 0.734375 -4.75 L 3.625 -4.75 C 3.6875 -4.75 3.71875 -4.722656 3.71875 -4.671875 Z M 3.71875 -4.421875 "/></g></g></g><g fill="#000000" fill-opacity="1"><g transform="translate(46.083678, 67.821439)"><g><path d="M 2.453125 -4.765625 C 2.847656 -4.765625 3.164062 -4.640625 3.40625 -4.390625 C 3.644531 -4.148438 3.765625 -3.832031 3.765625 -3.4375 C 3.765625 -3.039062 3.640625 -2.722656 3.390625 -2.484375 C 3.148438 -2.242188 2.828125 -2.125 2.421875 -2.125 L 1.109375 -2.125 C 1.085938 -2.125 1.078125 -2.113281 1.078125 -2.09375 L 1.078125 -0.09375 C 1.078125 -0.03125 1.046875 0 0.984375 0 L 0.671875 0 C 0.617188 0 0.59375 -0.03125 0.59375 -0.09375 L 0.59375 -4.671875 C 0.59375 -4.734375 0.617188 -4.765625 0.671875 -4.765625 Z M 2.390625 -2.515625 C 2.660156 -2.515625 2.878906 -2.597656 3.046875 -2.765625 C 3.210938 -2.929688 3.296875 -3.148438 3.296875 -3.421875 C 3.296875 -3.703125 3.210938 -3.925781 3.046875 -4.09375 C 2.878906 -4.257812 2.660156 -4.34375 2.390625 -4.34375 L 1.109375 -4.34375 C 1.085938 -4.34375 1.078125 -4.332031 1.078125 -4.3125 L 1.078125 -2.5625 C 1.078125 -2.53125 1.085938 -2.515625 1.109375 -2.515625 Z M 2.390625 -2.515625 "/></g></g></g><g fill="#000000" fill-opacity="1"><g transform="translate(49.991047, 67.821439)"><g/></g></g><g fill="#000000" fill-opacity="1"><g transform="translate(51.234604, 67.821439)"><g><path d="M 1.875 -0.359375 C 2.082031 -0.359375 2.257812 -0.398438 2.40625 -0.484375 C 2.550781 -0.578125 2.664062 -0.707031 2.75 -0.875 C 2.757812 -0.894531 2.773438 -0.910156 2.796875 -0.921875 C 2.816406 -0.929688 2.84375 -0.925781 2.875 -0.90625 L 3.0625 -0.796875 C 3.113281 -0.765625 3.128906 -0.726562 3.109375 -0.6875 C 2.992188 -0.457031 2.828125 -0.273438 2.609375 -0.140625 C 2.398438 -0.015625 2.144531 0.046875 1.84375 0.046875 C 1.519531 0.046875 1.25 -0.0234375 1.03125 -0.171875 C 0.820312 -0.316406 0.671875 -0.523438 0.578125 -0.796875 C 0.484375 -1.023438 0.4375 -1.335938 0.4375 -1.734375 C 0.4375 -1.929688 0.441406 -2.085938 0.453125 -2.203125 C 0.460938 -2.316406 0.476562 -2.421875 0.5 -2.515625 C 0.582031 -2.816406 0.738281 -3.054688 0.96875 -3.234375 C 1.195312 -3.410156 1.476562 -3.5 1.8125 -3.5 C 2.207031 -3.5 2.515625 -3.394531 2.734375 -3.1875 C 2.960938 -2.976562 3.109375 -2.691406 3.171875 -2.328125 C 3.203125 -2.179688 3.21875 -1.953125 3.21875 -1.640625 C 3.21875 -1.585938 3.1875 -1.5625 3.125 -1.5625 L 0.953125 -1.5625 C 0.929688 -1.5625 0.921875 -1.546875 0.921875 -1.515625 C 0.921875 -1.296875 0.929688 -1.132812 0.953125 -1.03125 C 1.003906 -0.820312 1.109375 -0.65625 1.265625 -0.53125 C 1.429688 -0.414062 1.632812 -0.359375 1.875 -0.359375 Z M 1.8125 -3.078125 C 1.582031 -3.078125 1.394531 -3.015625 1.25 -2.890625 C 1.113281 -2.773438 1.019531 -2.625 0.96875 -2.4375 C 0.945312 -2.34375 0.929688 -2.1875 0.921875 -1.96875 C 0.921875 -1.945312 0.929688 -1.9375 0.953125 -1.9375 L 2.703125 -1.9375 C 2.722656 -1.9375 2.734375 -1.945312 2.734375 -1.96875 C 2.722656 -2.164062 2.707031 -2.3125 2.6875 -2.40625 C 2.632812 -2.613281 2.53125 -2.773438 2.375 -2.890625 C 2.226562 -3.015625 2.039062 -3.078125 1.8125 -3.078125 Z M 1.8125 -3.078125 "/></g></g></g><g fill="#000000" fill-opacity="1"><g transform="translate(54.747835, 67.821439)"><g><path d="M 1.96875 -3.484375 C 2.332031 -3.484375 2.617188 -3.375 2.828125 -3.15625 C 3.046875 -2.945312 3.15625 -2.664062 3.15625 -2.3125 L 3.15625 -0.09375 C 3.15625 -0.03125 3.125 0 3.0625 0 L 2.765625 0 C 2.703125 0 2.671875 -0.03125 2.671875 -0.09375 L 2.671875 -2.21875 C 2.671875 -2.46875 2.59375 -2.671875 2.4375 -2.828125 C 2.289062 -2.984375 2.097656 -3.0625 1.859375 -3.0625 C 1.628906 -3.0625 1.4375 -2.992188 1.28125 -2.859375 C 1.132812 -2.734375 1.050781 -2.566406 1.03125 -2.359375 L 1.03125 -0.09375 C 1.03125 -0.03125 1 0 0.9375 0 L 0.625 0 C 0.570312 0 0.546875 -0.03125 0.546875 -0.09375 L 0.546875 -3.34375 C 0.546875 -3.40625 0.570312 -3.4375 0.625 -3.4375 L 0.9375 -3.4375 C 1 -3.4375 1.03125 -3.40625 1.03125 -3.34375 L 1.03125 -3.09375 C 1.03125 -3.082031 1.03125 -3.070312 1.03125 -3.0625 C 1.039062 -3.0625 1.050781 -3.066406 1.0625 -3.078125 C 1.257812 -3.347656 1.5625 -3.484375 1.96875 -3.484375 Z M 1.96875 -3.484375 "/></g></g></g><g fill="#000000" fill-opacity="1"><g transform="translate(58.295046, 67.821439)"><g><path d="M 2.671875 -3.34375 C 2.671875 -3.40625 2.695312 -3.4375 2.75 -3.4375 L 3.0625 -3.4375 C 3.113281 -3.4375 3.140625 -3.40625 3.140625 -3.34375 L 3.140625 -0.109375 C 3.140625 0.390625 2.992188 0.757812 2.703125 1 C 2.410156 1.238281 2.007812 1.359375 1.5 1.359375 C 1.40625 1.359375 1.332031 1.351562 1.28125 1.34375 C 1.226562 1.34375 1.203125 1.3125 1.203125 1.25 L 1.203125 0.984375 C 1.203125 0.921875 1.234375 0.890625 1.296875 0.890625 C 1.773438 0.921875 2.125 0.851562 2.34375 0.6875 C 2.5625 0.519531 2.671875 0.25 2.671875 -0.125 L 2.671875 -0.359375 C 2.671875 -0.378906 2.664062 -0.390625 2.65625 -0.390625 C 2.644531 -0.398438 2.632812 -0.394531 2.625 -0.375 C 2.414062 -0.113281 2.117188 0.015625 1.734375 0.015625 C 1.441406 0.015625 1.179688 -0.0625 0.953125 -0.21875 C 0.722656 -0.375 0.570312 -0.597656 0.5 -0.890625 C 0.445312 -1.078125 0.421875 -1.351562 0.421875 -1.71875 C 0.421875 -1.914062 0.425781 -2.082031 0.4375 -2.21875 C 0.445312 -2.351562 0.46875 -2.476562 0.5 -2.59375 C 0.582031 -2.863281 0.726562 -3.082031 0.9375 -3.25 C 1.15625 -3.414062 1.414062 -3.5 1.71875 -3.5 C 2.101562 -3.5 2.40625 -3.367188 2.625 -3.109375 C 2.632812 -3.085938 2.644531 -3.078125 2.65625 -3.078125 C 2.664062 -3.085938 2.671875 -3.101562 2.671875 -3.125 Z M 2.625 -1.046875 C 2.644531 -1.109375 2.65625 -1.1875 2.65625 -1.28125 C 2.664062 -1.382812 2.671875 -1.53125 2.671875 -1.71875 C 2.671875 -1.957031 2.664062 -2.113281 2.65625 -2.1875 C 2.65625 -2.269531 2.644531 -2.34375 2.625 -2.40625 C 2.582031 -2.601562 2.488281 -2.765625 2.34375 -2.890625 C 2.207031 -3.015625 2.03125 -3.078125 1.8125 -3.078125 C 1.601562 -3.078125 1.421875 -3.015625 1.265625 -2.890625 C 1.117188 -2.765625 1.019531 -2.601562 0.96875 -2.40625 C 0.914062 -2.269531 0.890625 -2.046875 0.890625 -1.734375 C 0.890625 -1.398438 0.914062 -1.171875 0.96875 -1.046875 C 1.007812 -0.859375 1.101562 -0.703125 1.25 -0.578125 C 1.40625 -0.453125 1.59375 -0.390625 1.8125 -0.390625 C 2.03125 -0.390625 2.210938 -0.445312 2.359375 -0.5625 C 2.503906 -0.6875 2.59375 -0.847656 2.625 -1.046875 Z M 2.625 -1.046875 "/></g></g></g><g fill="#000000" fill-opacity="1"><g transform="translate(61.815073, 67.821439)"><g><path d="M 0.84375 -4.0625 C 0.726562 -4.0625 0.632812 -4.09375 0.5625 -4.15625 C 0.5 -4.21875 0.46875 -4.300781 0.46875 -4.40625 C 0.46875 -4.507812 0.5 -4.59375 0.5625 -4.65625 C 0.632812 -4.71875 0.726562 -4.75 0.84375 -4.75 C 0.945312 -4.75 1.03125 -4.71875 1.09375 -4.65625 C 1.164062 -4.59375 1.203125 -4.507812 1.203125 -4.40625 C 1.203125 -4.300781 1.164062 -4.21875 1.09375 -4.15625 C 1.03125 -4.09375 0.945312 -4.0625 0.84375 -4.0625 Z M 0.6875 0 C 0.625 0 0.59375 -0.03125 0.59375 -0.09375 L 0.59375 -3.34375 C 0.59375 -3.40625 0.625 -3.4375 0.6875 -3.4375 L 1 -3.4375 C 1.050781 -3.4375 1.078125 -3.40625 1.078125 -3.34375 L 1.078125 -0.09375 C 1.078125 -0.03125 1.050781 0 1 0 Z M 0.6875 0 "/></g></g></g><g fill="#000000" fill-opacity="1"><g transform="translate(63.364423, 67.821439)"><g><path d="M 1.96875 -3.484375 C 2.332031 -3.484375 2.617188 -3.375 2.828125 -3.15625 C 3.046875 -2.945312 3.15625 -2.664062 3.15625 -2.3125 L 3.15625 -0.09375 C 3.15625 -0.03125 3.125 0 3.0625 0 L 2.765625 0 C 2.703125 0 2.671875 -0.03125 2.671875 -0.09375 L 2.671875 -2.21875 C 2.671875 -2.46875 2.59375 -2.671875 2.4375 -2.828125 C 2.289062 -2.984375 2.097656 -3.0625 1.859375 -3.0625 C 1.628906 -3.0625 1.4375 -2.992188 1.28125 -2.859375 C 1.132812 -2.734375 1.050781 -2.566406 1.03125 -2.359375 L 1.03125 -0.09375 C 1.03125 -0.03125 1 0 0.9375 0 L 0.625 0 C 0.570312 0 0.546875 -0.03125 0.546875 -0.09375 L 0.546875 -3.34375 C 0.546875 -3.40625 0.570312 -3.4375 0.625 -3.4375 L 0.9375 -3.4375 C 1 -3.4375 1.03125 -3.40625 1.03125 -3.34375 L 1.03125 -3.09375 C 1.03125 -3.082031 1.03125 -3.070312 1.03125 -3.0625 C 1.039062 -3.0625 1.050781 -3.066406 1.0625 -3.078125 C 1.257812 -3.347656 1.5625 -3.484375 1.96875 -3.484375 Z M 1.96875 -3.484375 "/></g></g></g><g fill="#000000" fill-opacity="1"><g transform="translate(66.911634, 67.821439)"><g><path d="M 1.875 -0.359375 C 2.082031 -0.359375 2.257812 -0.398438 2.40625 -0.484375 C 2.550781 -0.578125 2.664062 -0.707031 2.75 -0.875 C 2.757812 -0.894531 2.773438 -0.910156 2.796875 -0.921875 C 2.816406 -0.929688 2.84375 -0.925781 2.875 -0.90625 L 3.0625 -0.796875 C 3.113281 -0.765625 3.128906 -0.726562 3.109375 -0.6875 C 2.992188 -0.457031 2.828125 -0.273438 2.609375 -0.140625 C 2.398438 -0.015625 2.144531 0.046875 1.84375 0.046875 C 1.519531 0.046875 1.25 -0.0234375 1.03125 -0.171875 C 0.820312 -0.316406 0.671875 -0.523438 0.578125 -0.796875 C 0.484375 -1.023438 0.4375 -1.335938 0.4375 -1.734375 C 0.4375 -1.929688 0.441406 -2.085938 0.453125 -2.203125 C 0.460938 -2.316406 0.476562 -2.421875 0.5 -2.515625 C 0.582031 -2.816406 0.738281 -3.054688 0.96875 -3.234375 C 1.195312 -3.410156 1.476562 -3.5 1.8125 -3.5 C 2.207031 -3.5 2.515625 -3.394531 2.734375 -3.1875 C 2.960938 -2.976562 3.109375 -2.691406 3.171875 -2.328125 C 3.203125 -2.179688 3.21875 -1.953125 3.21875 -1.640625 C 3.21875 -1.585938 3.1875 -1.5625 3.125 -1.5625 L 0.953125 -1.5625 C 0.929688 -1.5625 0.921875 -1.546875 0.921875 -1.515625 C 0.921875 -1.296875 0.929688 -1.132812 0.953125 -1.03125 C 1.003906 -0.820312 1.109375 -0.65625 1.265625 -0.53125 C 1.429688 -0.414062 1.632812 -0.359375 1.875 -0.359375 Z M 1.8125 -3.078125 C 1.582031 -3.078125 1.394531 -3.015625 1.25 -2.890625 C 1.113281 -2.773438 1.019531 -2.625 0.96875 -2.4375 C 0.945312 -2.34375 0.929688 -2.1875 0.921875 -1.96875 C 0.921875 -1.945312 0.929688 -1.9375 0.953125 -1.9375 L 2.703125 -1.9375 C 2.722656 -1.9375 2.734375 -1.945312 2.734375 -1.96875 C 2.722656 -2.164062 2.707031 -2.3125 2.6875 -2.40625 C 2.632812 -2.613281 2.53125 -2.773438 2.375 -2.890625 C 2.226562 -3.015625 2.039062 -3.078125 1.8125 -3.078125 Z M 1.8125 -3.078125 "/></g></g></g><g clip-path="url(#f30a09ee9e)"><path fill="#ff914d" d="M 53.902344 19.976562 C 53.902344 23.574219 46.390625 26.609375 37.5 26.609375 C 28.609375 26.609375 21.101562 23.574219 21.101562 19.976562 L 21.101562 15.382812 C 23.421875 18.359375 29.796875 20.449219 37.5 20.449219 C 45.203125 20.449219 51.578125 18.363281 53.902344 15.382812 Z M 53.902344 27.96875 C 53.902344 31.566406 46.390625 34.601562 37.5 34.601562 C 28.609375 34.601562 21.101562 31.566406 21.101562 27.96875 L 21.101562 22.488281 C 23.421875 25.464844 29.796875 27.554688 37.5 27.554688 C 45.203125 27.554688 51.578125 25.464844 53.902344 22.488281 Z M 53.902344 35.824219 C 53.902344 39.417969 46.390625 42.457031 37.5 42.457031 C 28.609375 42.457031 21.101562 39.417969 21.101562 35.824219 L 21.101562 30.480469 C 23.421875 33.457031 29.796875 35.546875 37.5 35.546875 C 45.203125 35.546875 51.578125 33.457031 53.902344 30.480469 Z M 53.902344 43.964844 C 53.902344 47.558594 46.390625 50.597656 37.5 50.597656 C 28.609375 50.597656 21.101562 47.558594 21.101562 43.964844 L 21.101562 38.335938 C 23.421875 41.3125 29.796875 43.398438 37.5 43.398438 C 45.203125 43.398438 51.578125 41.3125 53.902344 38.335938 Z M 37.5 6.242188 C 46.382812 6.242188 53.890625 9.273438 53.902344 12.867188 L 53.902344 12.882812 C 53.890625 16.472656 46.382812 19.503906 37.5 19.503906 C 28.609375 19.503906 21.101562 16.46875 21.101562 12.875 C 21.101562 9.28125 28.609375 6.242188 37.5 6.242188 Z M 54.84375 12.875 C 54.84375 12.871094 54.84375 12.867188 54.84375 12.867188 L 54.84375 11.980469 C 54.84375 11.804688 54.742188 11.652344 54.597656 11.574219 C 53.222656 7.96875 46.207031 5.296875 37.5 5.296875 C 27.777344 5.296875 20.15625 8.625 20.15625 12.875 C 20.15625 12.945312 20.164062 13.015625 20.167969 13.085938 C 20.164062 13.105469 20.15625 13.125 20.15625 13.148438 L 20.15625 43.964844 C 20.15625 48.214844 27.773438 51.539062 37.5 51.539062 C 47.226562 51.539062 54.84375 48.214844 54.84375 43.964844 L 54.84375 12.882812 C 54.84375 12.878906 54.84375 12.878906 54.84375 12.875 " fill-opacity="1" fill-rule="nonzero"/></g></svg>