<svg xmlns="http://www.w3.org/2000/svg" xmlns:xlink="http://www.w3.org/1999/xlink" viewBox="0 0 212.55 147.8"><defs><style>.cls-1{isolation:isolate;}.cls-2{opacity:0.3;fill:url(#linear-gradient);}.cls-2,.cls-3{mix-blend-mode:screen;}.cls-3{opacity:0.1;fill:url(#linear-gradient-2);}.cls-4{fill:url(#linear-gradient-3);}.cls-5{fill:url(#linear-gradient-4);}.cls-6{fill:url(#linear-gradient-5);}.cls-7{fill:url(#linear-gradient-6);}.cls-8{fill:url(#linear-gradient-7);}.cls-9{fill:url(#linear-gradient-8);}.cls-10{fill:url(#linear-gradient-9);}.cls-11{fill:url(#linear-gradient-10);}.cls-12{fill:url(#linear-gradient-11);}.cls-13{opacity:0.5;}.cls-14{fill:#f16900;}</style><linearGradient id="linear-gradient" y1="78.77" x2="212.55" y2="78.77" gradientUnits="userSpaceOnUse"><stop offset="0" stop-color="#6deaf6"/><stop offset="0.23" stop-color="#5ac8f3"/><stop offset="0.76" stop-color="#307eed"/><stop offset="1" stop-color="#2061ea"/></linearGradient><linearGradient id="linear-gradient-2" y1="86.46" x2="212.55" y2="86.46" xlink:href="#linear-gradient"/><linearGradient id="linear-gradient-3" x1="90.25" y1="26.42" x2="124" y2="26.42" gradientTransform="matrix(0.98, -0.04, 0, 1, 2.52, 5.56)" gradientUnits="userSpaceOnUse"><stop offset="0" stop-color="#21acef"/><stop offset="0.17" stop-color="#29b2ef"/><stop offset="0.44" stop-color="#3fc3f1"/><stop offset="0.77" stop-color="#63def3"/><stop offset="0.84" stop-color="#6be4f3"/></linearGradient><linearGradient id="linear-gradient-4" x1="93.3" y1="13.43" x2="111.41" y2="13.43" gradientTransform="matrix(0.98, -0.04, 0, 1, 2.52, 5.56)" gradientUnits="userSpaceOnUse"><stop offset="0" stop-color="#f3f6ff"/><stop offset="0.76" stop-color="#adf7fe"/><stop offset="1" stop-color="#96f8fe"/></linearGradient><linearGradient id="linear-gradient-5" x1="86.92" y1="38.3" x2="117.78" y2="38.3" xlink:href="#linear-gradient-4"/><linearGradient id="linear-gradient-6" x1="64.03" y1="78.94" x2="97.79" y2="78.94" gradientTransform="matrix(0.98, -0.12, 0, 1, 2.87, 14.39)" xlink:href="#linear-gradient-3"/><linearGradient id="linear-gradient-7" x1="67.08" y1="65.94" x2="85.19" y2="65.94" gradientTransform="matrix(0.98, -0.12, 0, 1, 2.87, 14.39)" xlink:href="#linear-gradient-4"/><linearGradient id="linear-gradient-8" x1="60.7" y1="90.81" x2="91.56" y2="90.81" gradientTransform="matrix(0.98, -0.12, 0, 1, 2.87, 14.39)" xlink:href="#linear-gradient-4"/><linearGradient id="linear-gradient-9" x1="144.33" y1="57.46" x2="178.09" y2="57.46" gradientTransform="matrix(1, 0, 0, 1, 0, 0)" xlink:href="#linear-gradient-3"/><linearGradient id="linear-gradient-10" x1="147.38" y1="44.47" x2="165.49" y2="44.47" gradientTransform="matrix(1, 0, 0, 1, 0, 0)" xlink:href="#linear-gradient-4"/><linearGradient id="linear-gradient-11" x1="141.01" y1="69.34" x2="171.87" y2="69.34" gradientTransform="matrix(1, 0, 0, 1, 0, 0)" xlink:href="#linear-gradient-4"/></defs><g class="cls-1"><g id="Layer_2" data-name="Layer 2"><g id="Layer_1-2" data-name="Layer 1"><polygon class="cls-2" points="212.55 78.75 106.27 17.43 106.27 17.43 106.27 17.43 0 78.75 106.27 140.11 106.27 140.1 106.27 140.11 212.55 78.75"/><polygon class="cls-3" points="212.55 86.44 106.27 25.12 106.27 25.12 106.27 25.12 0 86.44 106.27 147.8 106.27 147.79 106.27 147.8 212.55 86.44"/><path class="cls-4" d="M124.51,45.44c0-7.33-5.11-16.11-11.4-19.57l-1.68-.93,4.21-2.65h0c1.61-1,2.6-3,2.6-5.9,0-5.73-4-12.59-8.91-15.29-2.4-1.33-4.58-1.41-6.18-.48h0L96.89,4.53l2.47,15.91-8,4.61,27.08,31,6.12-3.84h0Z"/><path class="cls-5" d="M103.21,25.72c4.92,2.7,8.91.25,8.91-5.49s-4-12.58-8.91-15.29-8.9-.25-8.9,5.49,4,12.58,8.9,15.29"/><path class="cls-6" d="M107,29.71l-7.56-4.16c-6.29-3.46-11.4-.31-11.4,7v6.76l0,.18.64.59a81.3,81.3,0,0,0,15.5,11.44c8.39,4.62,13.25,4.51,13.55,4.5l.59,0h.06V49.29c0-7.33-5.11-16.12-11.4-19.58"/><path class="cls-7" d="M98.31,99.44c0-7.33-5.08-15.68-11.32-18.6l-1.66-.78,4.17-3h0c1.6-1.13,2.59-3.26,2.59-6.13,0-5.73-4-12.24-8.84-14.52-2.39-1.12-4.55-1-6.14.05h0l-6.2,4.47L73.35,76.6l-8,5.31,26.87,28.63,6.08-4.38h0Z"/><path class="cls-8" d="M77.17,81.55C82.05,83.83,86,81,86,75.3s-4-12.24-8.84-14.53-8.83.52-8.83,6.25,4,12.24,8.83,14.53"/><path class="cls-9" d="M80.92,85.22l-7.5-3.51c-6.24-2.92-11.31.67-11.31,8v6.77l0,.18.64.53A71.48,71.48,0,0,0,78.15,107.3c8.31,3.89,13.13,3.37,13.43,3.32l.59-.07h.06v-6.73c0-7.33-5.07-15.67-11.31-18.59"/><path class="cls-10" d="M178.09,75.36c0-7.33-5.2-16.3-11.59-20l-1.71-1,4.28-2.5h0c1.63-.93,2.65-2.94,2.65-5.81,0-5.73-4.06-12.73-9.06-15.61-2.45-1.41-4.66-1.57-6.29-.71h0L150,33.44l2.51,16-8.19,4.32,27.54,31.95,6.22-3.63h0Z"/><path class="cls-11" d="M156.44,54.86c5,2.88,9.05.57,9.05-5.16S161.43,37,156.44,34.08s-9.06-.57-9.06,5.16,4.06,12.73,9.06,15.62"/><path class="cls-12" d="M160.27,59l-7.68-4.44C146.2,50.86,141,53.83,141,61.16v7l.65.61a87.17,87.17,0,0,0,15.76,12c8.53,4.92,13.46,5,13.77,5h.67V79c0-7.33-5.2-16.3-11.6-20"/><g class="cls-13"><path class="cls-14" d="M124.74,68.54a2.13,2.13,0,0,1,1,.25l7.41,4.28a.78.78,0,0,1,.46.66.79.79,0,0,1-.46.66l-7.41,4.28a2.13,2.13,0,0,1-1,.24,2.09,2.09,0,0,1-1-.24l-7.42-4.28a.81.81,0,0,1-.46-.66.8.8,0,0,1,.46-.66l7.42-4.28A2.09,2.09,0,0,1,124.74,68.54Zm0,10.16a1.78,1.78,0,0,0,.93-.22l7.42-4.28a.5.5,0,0,0,0-1L125.67,69a1.88,1.88,0,0,0-.93-.22,1.94,1.94,0,0,0-.93.22l-7.41,4.28a.5.5,0,0,0,0,1l7.41,4.28A1.83,1.83,0,0,0,124.74,78.7Z"/></g><g class="cls-13"><path class="cls-14" d="M114.43,62.72a2.07,2.07,0,0,1,1,.25l7.42,4.28a.7.7,0,0,1,0,1.32l-7.42,4.28a2.07,2.07,0,0,1-1,.25,2.13,2.13,0,0,1-1-.25L106,68.57a.7.7,0,0,1,0-1.32L113.39,63A2.13,2.13,0,0,1,114.43,62.72Zm0,10.17a1.94,1.94,0,0,0,.93-.22l7.41-4.28a.5.5,0,0,0,0-1l-7.41-4.29a1.94,1.94,0,0,0-.93-.22,1.91,1.91,0,0,0-.93.22l-7.42,4.29a.5.5,0,0,0,0,1l7.42,4.28A1.91,1.91,0,0,0,114.43,72.89Z"/></g><g class="cls-13"><path class="cls-14" d="M104.28,56.76a2.13,2.13,0,0,1,1,.25l7.41,4.28a.7.7,0,0,1,0,1.31l-7.41,4.28a2.09,2.09,0,0,1-1,.25,2.13,2.13,0,0,1-1-.25L95.84,62.6a.77.77,0,0,1-.46-.65.78.78,0,0,1,.45-.66L103.25,57A2.09,2.09,0,0,1,104.28,56.76Zm0,10.16a1.87,1.87,0,0,0,.92-.22l7.42-4.28a.5.5,0,0,0,0-1l-7.42-4.28a2.05,2.05,0,0,0-1.85,0l-7.42,4.28a.5.5,0,0,0,0,1l7.42,4.28A1.88,1.88,0,0,0,104.29,66.92Z"/></g><g class="cls-13"><path class="cls-14" d="M104.62,68.73a2.13,2.13,0,0,1,1,.25l7.41,4.28a.78.78,0,0,1,.46.66.79.79,0,0,1-.46.66l-7.41,4.28a2.13,2.13,0,0,1-1,.25,2.09,2.09,0,0,1-1-.25l-7.42-4.28a.8.8,0,0,1-.45-.66.78.78,0,0,1,.45-.66L103.59,69A2.09,2.09,0,0,1,104.62,68.73Zm0,10.16a1.88,1.88,0,0,0,.93-.21L113,74.39a.5.5,0,0,0,0-1l-7.42-4.28a2.05,2.05,0,0,0-1.85,0l-7.42,4.28a.5.5,0,0,0,0,1l7.42,4.29A1.87,1.87,0,0,0,104.62,78.89Z"/></g><g class="cls-13"><path class="cls-14" d="M115.1,74.68a2.13,2.13,0,0,1,1,.25l7.41,4.28a.7.7,0,0,1,0,1.32l-7.41,4.28a2.13,2.13,0,0,1-1,.25,2.07,2.07,0,0,1-1-.25l-7.42-4.28a.81.81,0,0,1-.46-.66.8.8,0,0,1,.46-.66l7.42-4.28A2.07,2.07,0,0,1,115.1,74.68Zm0,10.17a1.91,1.91,0,0,0,.93-.22l7.42-4.29a.6.6,0,0,0,.35-.47.61.61,0,0,0-.35-.48L116,75.11a1.91,1.91,0,0,0-.93-.22,1.94,1.94,0,0,0-.93.22l-7.41,4.28a.49.49,0,0,0,0,1l7.41,4.29A1.94,1.94,0,0,0,115.1,84.85Z"/></g><g class="cls-13"><path class="cls-14" d="M105.06,80.55a2.09,2.09,0,0,1,1,.25l7.42,4.28a.7.7,0,0,1,0,1.31l-7.42,4.28a2.09,2.09,0,0,1-1,.25,2.13,2.13,0,0,1-1-.25l-7.41-4.28a.7.7,0,0,1,0-1.31L104,80.8A2.13,2.13,0,0,1,105.06,80.55Zm0,10.16a1.87,1.87,0,0,0,.92-.22l7.42-4.28a.5.5,0,0,0,0-.95L106,81a2.05,2.05,0,0,0-1.85,0l-7.42,4.28a.5.5,0,0,0,0,.95l7.42,4.28A1.88,1.88,0,0,0,105.06,90.71Z"/></g></g></g></g></svg>