<?xml version="1.0" encoding="utf-8"?>
<!-- Generator: Adobe Illustrator 23.0.3, SVG Export Plug-In . SVG Version: 6.00 Build 0)  -->
<svg version="1.1" id="Layer_1" xmlns="http://www.w3.org/2000/svg" xmlns:xlink="http://www.w3.org/1999/xlink" x="0px" y="0px"
	 viewBox="0 0 140 140" style="enable-background:new 0 0 140 140;" xml:space="preserve">
<style type="text/css">
	.st0{fill:#EDFADE;}
	.st1{fill:#5A8E21;}
</style>
<title>Icon_sad</title>
<desc>Created with Sketch.</desc>
<g id="Page-1">
	<g transform="translate(-651.000000, -379.000000)">
		<g id="Group-5" transform="translate(290.000000, 379.000000)">
			<g id="Icon_sad" transform="translate(361.000000, 0.000000)">
				<path id="Path" class="st0" d="M70.5,134c30.4,0,55.9-21.1,62.5-49.5C126.4,56.1,100.9,35,70.5,35S14.6,56.1,8,84.5
					C14.6,112.9,40.1,134,70.5,134z"/>
				<g id="Group">
					<path class="st1" d="M70,100c10,0,19.7-3.6,27.2-10.2l4.4-3.9L94,81.6l-5,4c-5.4,4.7-12.3,7.3-19.5,7.3
						c-7.2,0-14.1-2.6-19.5-7.3l-4.4-3.8l-7.2,4.2l4.4,3.8C50.4,96.4,60,100,70,100z"/>
					<path id="Shape" class="st1" d="M70,0C31.4,0,0,31.4,0,70s31.4,70,70,70c38.6,0,70-31.4,70-70S108.6,0,70,0z M70,133
						c-34.7,0-63-28.3-63-63S35.3,7,70,7s63,28.3,63,63S104.7,133,70,133z"/>
					<polygon class="st1" points="40.8,52.5 52.5,52.5 52.5,64.2 40.8,64.2 					"/>
					<polygon class="st1" points="87.5,52.5 99.2,52.5 99.2,64.2 87.5,64.2 					"/>
				</g>
			</g>
		</g>
	</g>
</g>
</svg>
