<svg width="62" height="62" viewBox="0 0 62 62" xmlns="http://www.w3.org/2000/svg"><path d="M60.5 46.442h-5.114v-3.239c0-.5-.406-.907-.907-.907h-.647v-9.52c0-.5-.406-.906-.907-.906H31.61V19.112h.648c.5 0 .906-.406.906-.907v-3.24h5.115c.5 0 .907-.405.907-.906V.907c0-.501-.406-.907-.907-.907H23.128c-.501 0-.907.406-.907.907v13.152c0 .5.406.907.907.907h5.114v3.239c0 .5.407.906.907.907h.648V31.87H8.483c-.5 0-.906.406-.907.907v9.52h-.648c-.5 0-.906.405-.906.906v3.239H.907c-.5 0-.907.406-.907.907V60.5c0 .5.406.906.907.907h15.152c.501 0 .907-.406.907-.907V47.349c0-.501-.406-.907-.907-.907h-5.114v-3.239c0-.5-.407-.906-.907-.907H9.39v-8.612h20.407v8.612h-.648c-.5 0-.906.406-.907.907v3.239h-5.114c-.501 0-.907.406-.907.907V60.5c0 .5.406.906.907.907H38.28c.5 0 .907-.406.907-.907V47.349c0-.501-.406-.907-.907-.907h-5.115v-3.239c0-.5-.406-.907-.906-.907h-.648v-8.612h20.407v8.612h-.648c-.5 0-.907.406-.907.907v3.239h-5.115c-.5 0-.906.406-.906.907V60.5c0 .5.406.907.906.907h15.153c.5 0 .907-.406.907-.907V47.349c0-.501-.406-.907-.907-.907zM24.036 1.814h13.338v11.338H24.035V1.814zm7.317 13.152v2.332h-1.296v-2.332h1.296zm-16.2 44.628H1.814V48.256h13.338v11.338zM7.835 46.442V44.11h1.296v2.332H7.835zm29.538 13.152H24.035V48.256h13.338v11.338zm-7.317-13.152V44.11h1.296v2.332h-1.296zm22.22-2.332h1.296v2.332h-1.295V44.11zm7.318 15.484H46.255V48.256h13.339v11.338z" fill="#7D7D7D" fill-rule="nonzero"/></svg>