<svg width="62" height="62" viewBox="0 0 62 62" xmlns="http://www.w3.org/2000/svg"><g fill="#7D7D7D" fill-rule="nonzero"><path d="M30.796 0C13.816 0 0 13.816 0 30.796c0 16.981 13.816 30.797 30.796 30.797 16.981 0 30.797-13.816 30.797-30.797C61.593 13.816 47.777 0 30.796 0zm1.284 58.961v-3.784a1.282 1.282 0 10-2.567 0v3.784C14.973 58.303 3.29 46.62 2.631 32.08h3.785a1.282 1.282 0 100-2.567H2.63C3.29 14.973 14.973 3.29 29.513 2.631v3.785a1.282 1.282 0 102.567 0V2.63c14.54.659 26.223 12.342 26.882 26.882h-3.785a1.282 1.282 0 100 2.567h3.785C58.303 46.62 46.62 58.303 32.08 58.96z"/><path d="M33.236 31.422c.053-.206.127-.404.127-.626 0-.537-.205-1.008-.488-1.42l8.067-17.285c.3-.641.022-1.406-.62-1.705a1.29 1.29 0 00-1.706.62l-8.06 17.273c-1.297.128-2.326 1.188-2.326 2.517a2.57 2.57 0 002.566 2.567c.222 0 .42-.074.626-.127l10.016 10.016a1.28 1.28 0 001.814 0 1.283 1.283 0 000-1.814L33.236 31.422z"/></g></svg>