<svg width="61" height="61" viewBox="0 0 61 61" xmlns="http://www.w3.org/2000/svg"><path d="M59.389 9.902l-8.32-8.327c-2.097-2.098-5.743-2.102-7.848.004L5.95 39.219a1.395 1.395 0 00-.35.596L.054 59.245a1.389 1.389 0 001.715 1.716l19.413-5.552c.225-.065.43-.184.596-.35l37.612-37.307a5.516 5.516 0 001.625-3.925 5.516 5.516 0 00-1.625-3.925zm-22.21 1.764l5.104 5.104-26.65 26.65-1.912-3.827a1.387 1.387 0 00-1.24-.766H10.26l26.919-27.161zM3.406 57.608l1.806-6.323 4.517 4.516-6.323 1.807zm16.008-4.573l-6.635 1.895-6.695-6.695L7.979 41.6h3.644l2.39 4.78c.134.269.352.487.62.62l4.78 2.39v3.645zm2.773-2.28v-2.221c0-.526-.296-1.005-.766-1.24l-3.827-1.913 26.65-26.65 5.104 5.104-27.16 26.92zm35.245-34.931l-6.114 6.06L39.13 9.695l6.055-6.11c1.048-1.048 2.874-1.048 3.922 0l8.32 8.32c.524.524.812 1.22.812 1.96 0 .742-.288 1.438-.808 1.958z" fill="#7D7D7D" fill-rule="nonzero"/></svg>