<svg width="62" height="62" viewBox="0 0 62 62" xmlns="http://www.w3.org/2000/svg"><g fill="#7D7D7D" fill-rule="nonzero"><path d="M60.488 24.569l-7.266-.722a23.572 23.572 0 00-1.74-4.21l4.625-5.653c.333-.407.304-1-.069-1.373l-7.24-7.237a1.024 1.024 0 00-1.372-.067l-5.653 4.621a23.45 23.45 0 00-4.206-1.74L36.841.92A1.024 1.024 0 0035.822 0H25.587a1.024 1.024 0 00-1.023.921l-.717 7.267a23.45 23.45 0 00-4.205 1.74l-5.659-4.621c-.407-.333-1-.304-1.372.067l-7.237 7.237a1.024 1.024 0 00-.068 1.373l4.622 5.653a23.572 23.572 0 00-1.74 4.21l-7.267.727c-.52.052-.919.49-.921 1.013v10.235c0 .526.398.966.921 1.019l7.267.726a23.524 23.524 0 001.74 4.206l-4.622 5.652c-.333.408-.304 1.001.068 1.373l7.237 7.237c.373.372.965.4 1.372.068l5.654-4.622a23.498 23.498 0 004.21 1.74l.727 7.267c.053.525.496.924 1.024.922h10.224c.526 0 .966-.399 1.019-.922l.726-7.266a23.45 23.45 0 004.206-1.74l5.653 4.624c.407.333 1 .304 1.372-.068l7.237-7.237c.373-.372.402-.965.069-1.373l-4.623-5.655a23.524 23.524 0 001.74-4.206l7.267-.726c.523-.053.922-.493.922-1.019V25.587c0-.525-.399-.966-.922-1.018zM59.363 34.9l-7.033.703c-.422.043-.774.341-.885.75a21.504 21.504 0 01-2.085 5.027c-.211.368-.174.828.094 1.156l4.484 5.465-5.936 5.93-5.47-4.477a1.024 1.024 0 00-1.157-.096 21.381 21.381 0 01-5.025 2.085c-.41.11-.708.463-.75.885l-.699 7.034H26.52l-.703-7.034a1.024 1.024 0 00-.752-.885 21.39 21.39 0 01-5.025-2.085 1.023 1.023 0 00-1.156.096l-5.475 4.477-5.931-5.93 4.479-5.473c.267-.328.305-.789.094-1.157a21.5 21.5 0 01-2.085-5.026 1.023 1.023 0 00-.886-.75L2.047 34.9V26.52l7.032-.703c.422-.043.775-.341.886-.75a21.495 21.495 0 012.085-5.027 1.023 1.023 0 00-.094-1.156l-4.48-5.475 5.932-5.93 5.472 4.477c.328.268.789.306 1.157.096a21.39 21.39 0 015.025-2.085c.41-.11.709-.463.752-.886l.7-7.033H34.9l.703 7.033c.043.423.342.775.751.886a21.394 21.394 0 015.026 2.085c.368.21.828.172 1.156-.096l5.465-4.477 5.936 5.93-4.479 5.472c-.268.329-.305.79-.094 1.157a21.5 21.5 0 012.085 5.026c.11.41.463.708.885.75l7.028.7v8.388z"/><path d="M30.705 14.329a16.409 16.409 0 1011.116 4.37 16.234 16.234 0 00-11.116-4.37zM16.429 29.68a14.285 14.285 0 013.92-8.84c.742.61 1.536 1.152 2.373 1.621a26.565 26.565 0 00-1.2 7.22h-5.093zm15.3 9.26c1.508.106 2.99.45 4.39 1.023-1.111 2.58-2.662 4.381-4.39 4.903V38.94zm0-2.047v-5.166h6.114a24.897 24.897 0 01-1.024 6.304 16.282 16.282 0 00-5.09-1.138zm0-7.213v-5.165a16.301 16.301 0 005.088-1.139 24.9 24.9 0 011.024 6.304h-6.113zM29.68 22.47a14.237 14.237 0 01-4.39-1.024c1.11-2.579 2.662-4.38 4.39-4.902v5.926zm2.047 0v-5.922c1.73.522 3.276 2.323 4.39 4.902-1.4.571-2.881.915-4.39 1.02zm4.45-4.998c1.207.5 2.34 1.165 3.365 1.975a14.07 14.07 0 01-1.582 1.081 14.692 14.692 0 00-1.782-3.056zm-12.73 3.056a14.196 14.196 0 01-1.582-1.08 14.199 14.199 0 013.365-1.977 14.757 14.757 0 00-1.783 3.057zm1.144 2.85a16.301 16.301 0 005.09 1.139v5.165h-6.115a24.9 24.9 0 011.025-6.304zm5.09 8.351v5.166a16.301 16.301 0 00-5.09 1.138 24.92 24.92 0 01-1.023-6.304h6.112zm0 7.213v5.922c-1.73-.522-3.276-2.324-4.39-4.903 1.4-.57 2.881-.915 4.39-1.02zm-4.451 4.998a14.159 14.159 0 01-3.364-1.976 14.02 14.02 0 011.581-1.08 14.692 14.692 0 001.783 3.056zm12.73-3.057c.551.325 1.08.685 1.583 1.081a14.199 14.199 0 01-3.365 1.977 14.686 14.686 0 001.782-3.058zm.732-1.935c.73-2.34 1.131-4.769 1.195-7.219h5.093a14.288 14.288 0 01-3.921 8.84 16.223 16.223 0 00-2.367-1.62zm1.195-9.266a26.578 26.578 0 00-1.195-7.219 16.223 16.223 0 002.367-1.62 14.286 14.286 0 013.92 8.84h-5.092zm-23.459 2.047h5.093c.065 2.45.469 4.88 1.2 7.22a16.196 16.196 0 00-2.367 1.62 14.279 14.279 0 01-3.926-8.84zM29.681 10.235h2.047v2.047h-2.047zM15.507 16.955l1.447-1.449 1.447 1.448-1.446 1.447zM10.235 29.681h2.047v2.047h-2.047zM15.507 44.454l1.448-1.446 1.447 1.447-1.448 1.448z"/><path d="M29.681 49.128h2.047v2.047h-2.047zM43.008 44.455l1.446-1.447 1.449 1.446-1.448 1.448zM49.128 29.681h2.047v2.047h-2.047zM43.009 16.954l1.447-1.447 1.447 1.448-1.448 1.446z"/></g></svg>