<svg width="61" height="63" viewBox="0 0 61 63" xmlns="http://www.w3.org/2000/svg"><g fill="#7D7D7D" fill-rule="nonzero"><circle cx="5.183" cy="11.37" r="1.024"/><circle cx="8.255" cy="11.37" r="1.024"/><circle cx="11.327" cy="11.37" r="1.024"/><path d="M54.335 33.898c.566 0 1.024-.457 1.024-1.024V20.586a1.023 1.023 0 10-2.048 0v12.288c0 .567.458 1.024 1.024 1.024z"/><circle cx="41.023" cy="1.13" r="1.024"/><path d="M50.115 5.35a1.021 1.021 0 001.448 0l.724-.724.724.724a1.021 1.021 0 001.448 0c.4-.4.4-1.048 0-1.448l-.724-.724.724-.723a1.024 1.024 0 10-1.448-1.448l-.724.724-.724-.724a1.024 1.024 0 10-1.448 1.448l.724.723-.724.724c-.4.4-.4 1.049 0 1.448zM6.207 19.562h10.24a1.023 1.023 0 100-2.048H6.207a1.023 1.023 0 100 2.048zM47.167 25.706H23.615a1.023 1.023 0 100 2.048h23.552a1.023 1.023 0 100-2.048zM32.83 22.634c0 .567.459 1.024 1.025 1.024h13.312a1.023 1.023 0 100-2.048H33.855c-.566 0-1.024.458-1.024 1.024zM19.519 42.09H6.207a1.023 1.023 0 100 2.048h13.312a1.023 1.023 0 100-2.048zM6.207 27.754h13.312a1.023 1.023 0 100-2.048H6.207a1.023 1.023 0 100 2.048zM36.927 19.562h4.096a1.023 1.023 0 100-2.048h-4.096a1.023 1.023 0 100 2.048zM20.543 19.562H32.83a1.023 1.023 0 100-2.048H20.543a1.023 1.023 0 100 2.048zM6.207 35.946h7.168a1.023 1.023 0 100-2.048H6.207a1.023 1.023 0 100 2.048zM24.639 35.946a1.023 1.023 0 100-2.048H17.47a1.023 1.023 0 100 2.048h7.168zM27.71 29.802H6.208a1.023 1.023 0 100 2.048H27.71a1.023 1.023 0 100-2.048zM25.663 37.994H6.207a1.023 1.023 0 100 2.048h19.456a1.023 1.023 0 100-2.048zM6.207 23.658h23.552a1.023 1.023 0 100-2.048H6.207a1.023 1.023 0 100 2.048z"/><path d="M59.305 58.5l-3.255-3.254c1.372-.414 2.38-1.674 2.38-3.18V10.61a3.34 3.34 0 00-3.335-3.336H3.399A3.34 3.34 0 00.063 10.61v41.457a3.34 3.34 0 003.336 3.335H34.97a13.302 13.302 0 007.076 2.043c2.425 0 4.845-.67 6.977-1.984l6.66 6.66c.5.499 1.155.749 1.81.749a2.562 2.562 0 001.81-4.37zM3.399 9.323h51.696c.71 0 1.288.579 1.288 1.288v2.808H2.11V10.61c0-.71.578-1.288 1.288-1.288zM2.11 52.067v-36.6h54.272v36.6a1.29 1.29 0 01-1.288 1.287h-.936l-1.374-1.374c3.803-5.203 3.371-12.558-1.325-17.254-5.19-5.19-13.636-5.19-18.826 0-5.127 5.126-5.18 13.424-.178 18.629H3.399a1.29 1.29 0 01-1.288-1.288zm31.97.036c-4.391-4.392-4.391-11.537 0-15.93a11.23 11.23 0 017.966-3.294 11.23 11.23 0 017.965 3.294c4.392 4.392 4.392 11.538 0 15.93-4.392 4.393-11.538 4.393-15.93 0zm23.776 8.57c-.2.2-.524.2-.724 0l-6.434-6.434c.258-.221.516-.443.76-.688l6.398 6.397c.199.2.199.525 0 .725z"/><path d="M38.975 46.186h-5.12c-.566 0-1.024.458-1.024 1.024v1.932a1.023 1.023 0 102.048 0v-.908h3.072v4.495a1.023 1.023 0 102.048 0V47.21c0-.566-.458-1.024-1.024-1.024zM43.07 46.186c-.565 0-1.023.458-1.023 1.024v5.12a1.023 1.023 0 102.048 0v-5.12c0-.566-.458-1.024-1.024-1.024zM47.167 46.186c-.566 0-1.024.458-1.024 1.024v5.12a1.023 1.023 0 102.048 0v-5.12c0-.566-.458-1.024-1.024-1.024zM47.167 35.946c-.566 0-1.024.458-1.024 1.024v7.168a1.023 1.023 0 102.048 0V36.97c0-.566-.458-1.024-1.024-1.024zM43.07 35.946h-5.12c-.565 0-1.023.458-1.023 1.024v7.168c0 .567.458 1.024 1.024 1.024h5.12c.566 0 1.024-.457 1.024-1.024V36.97c0-.566-.458-1.024-1.024-1.024zm-1.023 7.168h-3.072v-5.12h3.072v5.12z"/></g></svg>