<svg width="72" height="63" viewBox="0 0 72 63" xmlns="http://www.w3.org/2000/svg"><g fill="#7D7D7D" fill-rule="nonzero" stroke="#FFF" stroke-width=".7"><path d="M17.8 23.4v22.4H29V23.4H17.8zM26.2 43h-5.6V26.2h5.6V43zM37.4 29v16.8h11.2V29H37.4zm8.4 14h-5.6V31.8h5.6V43zM57 20.6v25.2h11.2V20.6H57zM65.4 43h-5.6V23.4h5.6V43zM62.6 3.8A5.6 5.6 0 0057 9.4c0 .288.043.564.085.84l-9.675 4.146C46.386 13.066 44.801 12.2 43 12.2c-2.056 0-3.833 1.12-4.807 2.77l-9.207-2.63c.001-.048.014-.092.014-.14a5.6 5.6 0 10-5.6 5.6c2.056 0 3.833-1.12 4.807-2.77l9.207 2.63c-.001.048-.014.092-.014.14a5.6 5.6 0 1011.2 0c0-.288-.043-.564-.085-.84l9.675-4.146C59.214 14.134 60.799 15 62.6 15a5.6 5.6 0 100-11.2zM23.4 15a2.803 2.803 0 01-2.8-2.8c0-1.544 1.256-2.8 2.8-2.8 1.544 0 2.8 1.256 2.8 2.8 0 1.544-1.256 2.8-2.8 2.8zM43 20.6a2.803 2.803 0 01-2.8-2.8c0-1.544 1.256-2.8 2.8-2.8 1.544 0 2.8 1.256 2.8 2.8 0 1.544-1.256 2.8-2.8 2.8zm19.6-8.4a2.803 2.803 0 01-2.8-2.8c0-1.544 1.256-2.8 2.8-2.8 1.544 0 2.8 1.256 2.8 2.8 0 1.544-1.256 2.8-2.8 2.8zM1 1h5.6v2.8H1zM1 9.4h5.6v2.8H1zM1 17.8h5.6v2.8H1zM1 26.2h5.6V29H1zM1 34.6h5.6v2.8H1zM1 43h5.6v2.8H1zM1 51.4h5.6v2.8H1zM17.8 57h2.8v5.6h-2.8zM9.4 57h2.8v5.6H9.4zM26.2 57H29v5.6h-2.8zM34.6 57h2.8v5.6h-2.8zM43 57h2.8v5.6H43zM51.4 57h2.8v5.6h-2.8zM59.8 57h2.8v5.6h-2.8zM68.2 57H71v5.6h-2.8z"/><path d="M12.2 51.4V1H9.4v53.2H71v-2.8H12.2z"/></g></svg>