<svg width="44" height="49" viewBox="0 0 44 49" xmlns="http://www.w3.org/2000/svg"><g fill="none" fill-rule="evenodd"><path d="M35.949 21.798L19.916 17.06a1.86 1.86 0 00-.192-1.484L29.05 9.97c.075.128.17.252.278.36a1.866 1.866 0 002.19.327l5.336 10.025a1.81 1.81 0 00-.44.327c-.225.226-.386.5-.465.79" fill="#FFF"/><path d="M29.05 9.97l-9.326 5.606a1.842 1.842 0 00-1.608-.902l-.075-10.197a1.837 1.837 0 001.642-1.019l9.303 4.72a1.855 1.855 0 00.064 1.792M39.86 36.065l-9.157 8.465a.357.357 0 00-.048-.056 1.85 1.85 0 00-2.364-.214L19.495 31.54c.09-.06.177-.131.26-.214.266-.267.431-.59.507-.928l19.147 4.028c-.12.57.03 1.187.451 1.638" fill="#FFF"/><path d="M39.41 34.427l-19.148-4.028c.075-.36.045-.73-.09-1.075l15.833-6.312c.09.225.23.44.413.623.493.493 1.191.65 1.812.474l2.495 8.912a1.854 1.854 0 00-1.315 1.405M13.28 43.099a1.842 1.842 0 00-1.991.413l-.034.034-6.887-6.542c.5-.53.635-1.281.39-1.923l11.945-4.423c.087.244.233.474.429.669.184.184.398.323.63.413L13.28 43.1z" fill="#FFF"/><path d="M27.495 45.68l-13.042-.748c.03-.51-.15-1.03-.541-1.42a1.79 1.79 0 00-.632-.413l4.483-11.359a1.843 1.843 0 001.732-.199l8.796 12.719a1.816 1.816 0 00-.796 1.42M36.005 23.012l-15.834 6.312c-.09-.225-.229-.44-.413-.623a1.836 1.836 0 00-1.356-.545l-.23-9.773c.463-.004.92-.185 1.274-.538.23-.229.383-.496.47-.785l16.033 4.738c-.12.398-.098.827.056 1.214M16.703 30.658L4.76 35.081a1.73 1.73 0 00-.425-.673 1.821 1.821 0 00-1.371-.537L2.59 22.595a1.832 1.832 0 001.545-.92l12.704 7.405a1.825 1.825 0 00-.136 1.578M16.816 15.215a1.9 1.9 0 00-.285.368l-8.853-5.215a1.856 1.856 0 00.015-1.864l8.725-4.967c.075.143.176.274.297.395.364.364.849.548 1.326.545l.075 10.197c-.473 0-.94.18-1.3.541" fill="#FFF"/><path d="M17.128 28.7a1.722 1.722 0 00-.29.38L4.136 21.674c.255-.428.32-.943.191-1.416l12.017-3.247c.079.305.24.594.477.83.372.373.864.557 1.352.542l.23 9.773c-.462.01-.92.191-1.274.544M16.343 17.011L4.326 20.258a1.86 1.86 0 00-1.123-1.244c.691-2.112 1.74-5.67 2.36-7.808a1.85 1.85 0 002.115-.838l8.852 5.215a1.85 1.85 0 00-.187 1.428" fill="#FFF"/><path d="M2.532 21.384a.642.642 0 01-.167-1.261l15.599-4.213a.642.642 0 01.335 1.239L2.7 21.36a.644.644 0 01-.168.023M3.02 36.365a.642.642 0 01-.223-1.243L18.22 29.41a.642.642 0 01.446 1.204L3.243 36.325a.642.642 0 01-.223.04M37.731 22.964a.641.641 0 01-.567-.34L30.077 9.316a.641.641 0 111.133-.604l7.087 13.307a.642.642 0 01-.566.944" fill="#4A4A4A"/><path d="M18.132 17.171a.642.642 0 01-.33-1.192l11.516-6.917-11.58-5.871a.642.642 0 11.58-1.145l13.651 6.922-13.507 8.112a.64.64 0 01-.33.091M29.235 46.76l-11.32-16.383a.641.641 0 111.056-.73l10.48 15.167 11.338-10.477a.642.642 0 11.871.943L29.235 46.76z" fill="#4A4A4A"/><path d="M42.128 35.655L18.31 30.64a.641.641 0 11.264-1.256l21.747 4.579-3.21-11.468a.642.642 0 011.237-.346l3.779 13.506zM29.343 46.429l-.037-.001-16.743-.962a.642.642 0 11.073-1.28l16.744.96a.642.642 0 01-.037 1.283" fill="#4A4A4A"/><path d="M12.6 45.467a.64.64 0 01-.443-.176l-9.579-9.103a.642.642 0 01.884-.93l9.58 9.103a.642.642 0 01-.443 1.106" fill="#4A4A4A"/><path d="M12.6 45.468a.642.642 0 01-.597-.878l5.843-14.813a.642.642 0 011.194.47l-5.844 14.814a.642.642 0 01-.597.407M37.731 22.964a.641.641 0 01-.182-.027l-19.6-5.792a.642.642 0 01.364-1.231l19.6 5.793a.642.642 0 01-.182 1.257" fill="#4A4A4A"/><path d="M18.443 30.654a.642.642 0 01-.238-1.238l19.288-7.69a.642.642 0 01.475 1.192l-19.287 7.69a.638.638 0 01-.238.046" fill="#4A4A4A"/><path d="M18.443 30.654a.642.642 0 01-.642-.627l-.311-13.483a.642.642 0 011.283-.03l.312 13.484a.642.642 0 01-.627.656h-.015" fill="#4A4A4A"/><path d="M18.443 30.654a.639.639 0 01-.323-.087l-15.91-9.27a.642.642 0 01.646-1.11l15.91 9.27a.642.642 0 01-.323 1.197M18.131 17.171a.642.642 0 01-.641-.637l-.104-13.91a.642.642 0 01.637-.647h.005c.352 0 .638.284.64.637l.105 13.91a.642.642 0 01-.637.647h-.005z" fill="#4A4A4A"/><path d="M18.13 17.171a.638.638 0 01-.325-.089L5.752 9.974a.641.641 0 11.651-1.105l12.054 7.108a.642.642 0 01-.326 1.194M3.02 36.365a.642.642 0 01-.641-.62L1.89 20.762a.642.642 0 011.283-.042l.488 14.981a.642.642 0 01-.62.663H3.02" fill="#4A4A4A"/><path d="M2.532 21.384a.642.642 0 01-.48-1.067c.366-.738 2.013-6.198 3.409-11.072l.071-.252L17.71 2.06a.642.642 0 01.635 1.115L6.622 9.85c-.217.752-.888 3.077-1.58 5.383-1.793 5.983-1.899 6.011-2.345 6.13a.643.643 0 01-.165.021" fill="#4A4A4A"/><path d="M20.344 40.928a.862.862 0 10-1.219-1.22.862.862 0 001.219 1.22M7.764 28.6a.862.862 0 10-1.22-1.219.862.862 0 001.22 1.22M11.612 38.062a.862.862 0 10-1.22-1.219.862.862 0 001.22 1.22M13.998 22.955a.862.862 0 10-1.22-1.22.862.862 0 001.22 1.22M9.186 15.704a.862.862 0 10-1.22-1.219.862.862 0 001.22 1.22M24.82 23.218a.862.862 0 10-1.219-1.22.862.862 0 001.219 1.22M34.236 29.228a.862.862 0 10-1.219-1.22.862.862 0 001.219 1.22M30.944 38.485a.862.862 0 10-1.22-1.219.862.862 0 001.22 1.22M29.296 15.653a.862.862 0 10-1.219-1.22.862.862 0 001.219 1.22M14.754 10.136a.862.862 0 10-1.219-1.219.862.862 0 001.219 1.22M22.505 9.723a.862.862 0 10-1.22-1.219.862.862 0 001.22 1.22M19.757 31.326a1.858 1.858 0 10-2.628-2.627 1.858 1.858 0 002.628 2.627M3.846 22.056a1.858 1.858 0 10-2.627-2.628 1.858 1.858 0 002.627 2.628M4.334 37.037a1.858 1.858 0 10-2.627-2.627 1.858 1.858 0 002.627 2.627M13.913 46.14a1.858 1.858 0 10-2.627-2.628 1.858 1.858 0 002.627 2.627M7.391 10.735a1.858 1.858 0 10-2.627-2.628 1.858 1.858 0 002.627 2.628M19.341 3.932a1.858 1.858 0 10-2.627-2.627 1.858 1.858 0 002.627 2.627M19.445 17.843a1.858 1.858 0 10-2.627-2.627 1.858 1.858 0 002.627 2.627M39.044 23.635a1.858 1.858 0 10-2.627-2.627 1.858 1.858 0 002.627 2.627" fill="#327DA2"/><path d="M18.443 28.797c-.311 0-.623.118-.86.355a1.217 1.217 0 000 1.72 1.217 1.217 0 002.076-.86 1.212 1.212 0 00-1.216-1.216zm0 3.714c-.64 0-1.28-.244-1.767-.731a2.502 2.502 0 010-3.535 2.502 2.502 0 013.534 0c.472.472.733 1.1.733 1.767 0 .668-.26 1.296-.733 1.768a2.491 2.491 0 01-1.767.73zM2.533 19.527a1.212 1.212 0 00-1.217 1.215 1.218 1.218 0 002.076.86 1.218 1.218 0 00-.86-2.075zm0 3.713c-.64 0-1.28-.243-1.768-.73a2.484 2.484 0 01-.732-1.768c0-.668.26-1.295.732-1.767a2.502 2.502 0 013.535 0c.975.974.975 2.56 0 3.535a2.492 2.492 0 01-1.767.73zM3.02 34.507c-.325 0-.63.127-.86.356-.23.23-.356.535-.356.86 0 .325.126.63.356.86.23.23.535.357.86.357a1.217 1.217 0 000-2.432zm0 3.716c-.667 0-1.295-.26-1.767-.732a2.483 2.483 0 01-.732-1.768c0-.667.26-1.295.732-1.767a2.482 2.482 0 011.767-.732c.668 0 1.295.26 1.768.732.974.975.974 2.56 0 3.535-.473.472-1.1.732-1.768.732zM12.6 43.61c-.326 0-.63.126-.86.356-.23.23-.357.535-.357.86 0 .325.127.63.357.86.23.23.534.356.86.356.324 0 .63-.127.86-.356.23-.23.355-.535.355-.86 0-.325-.126-.63-.356-.86a1.208 1.208 0 00-.86-.357m0 3.716c-.667 0-1.295-.26-1.767-.732a2.483 2.483 0 01-.732-1.767c0-.668.26-1.296.732-1.768a2.482 2.482 0 011.767-.732c.668 0 1.296.26 1.768.732s.732 1.1.732 1.768c0 .667-.26 1.295-.732 1.767s-1.1.732-1.768.732M6.077 8.205a1.218 1.218 0 000 2.432c.325 0 .63-.126.86-.356.23-.23.356-.535.356-.86 0-.325-.126-.63-.356-.86a1.208 1.208 0 00-.86-.356m0 3.716c-.667 0-1.295-.26-1.767-.732a2.503 2.503 0 010-3.535 2.483 2.483 0 011.767-.732c.668 0 1.296.26 1.768.732s.732 1.1.732 1.767c0 .668-.26 1.296-.732 1.768s-1.1.732-1.768.732M18.027 1.403c-.311 0-.623.118-.86.355a1.218 1.218 0 000 1.72 1.218 1.218 0 001.72 0 1.218 1.218 0 00-.86-2.075zm0 3.714c-.64 0-1.28-.244-1.767-.731a2.502 2.502 0 010-3.535 2.502 2.502 0 013.535 0c.974.975.974 2.56 0 3.535a2.492 2.492 0 01-1.768.73zM18.131 15.313c-.325 0-.63.127-.86.356-.23.23-.356.536-.356.86 0 .325.127.63.357.86.23.23.535.357.86.357.324 0 .63-.127.86-.357.23-.23.356-.535.356-.86 0-.324-.127-.63-.357-.86a1.208 1.208 0 00-.86-.356m0 3.716c-.667 0-1.295-.26-1.767-.732a2.484 2.484 0 01-.732-1.768c0-.667.26-1.295.732-1.767a2.482 2.482 0 011.767-.732c.668 0 1.296.26 1.768.732s.732 1.1.732 1.767c0 .668-.26 1.296-.732 1.768s-1.1.732-1.768.732M31.957 10.329A1.858 1.858 0 1029.33 7.7a1.858 1.858 0 002.627 2.628" fill="#327DA2"/><path d="M30.644 7.799a1.218 1.218 0 000 2.432c.325 0 .63-.126.86-.356.23-.23.356-.535.356-.86 0-.325-.127-.63-.356-.86a1.208 1.208 0 00-.86-.356m0 3.716a2.503 2.503 0 01-1.768-4.267 2.484 2.484 0 011.768-.733c.667 0 1.295.26 1.767.732.472.473.732 1.1.732 1.768 0 .668-.26 1.295-.732 1.767-.472.473-1.1.733-1.767.733M37.73 21.106a1.217 1.217 0 000 2.432c.326 0 .631-.127.86-.356.23-.23.357-.535.357-.86 0-.325-.126-.63-.356-.86a1.208 1.208 0 00-.86-.356m0 3.716a2.503 2.503 0 01-1.767-4.267 2.482 2.482 0 011.767-.733c.667 0 1.295.26 1.767.732s.732 1.1.732 1.768c0 .667-.26 1.295-.732 1.767s-1.1.733-1.767.733M42.538 36.122a1.858 1.858 0 10-2.627-2.627 1.858 1.858 0 002.627 2.627" fill="#327DA2"/><path d="M41.225 33.593c-.325 0-.63.126-.86.356-.23.23-.356.535-.356.86 0 .325.126.63.356.86.23.23.535.356.86.356a1.217 1.217 0 000-2.433m0 3.717c-.668 0-1.296-.26-1.768-.733a2.484 2.484 0 01-.732-1.767c0-.668.26-1.295.732-1.768a2.482 2.482 0 011.768-.732c.667 0 1.295.26 1.767.732.975.975.975 2.56 0 3.535-.472.472-1.1.733-1.767.733M30.657 47.1a1.858 1.858 0 10-2.628-2.627 1.858 1.858 0 002.628 2.628" fill="#327DA2"/><path d="M29.343 44.571a1.218 1.218 0 000 2.432c.325 0 .63-.126.86-.356.23-.23.356-.535.356-.86 0-.325-.126-.63-.356-.86a1.207 1.207 0 00-.86-.356m0 3.716c-.668 0-1.295-.26-1.768-.732a2.503 2.503 0 010-3.535 2.483 2.483 0 011.768-.732c.668 0 1.295.26 1.767.732s.733 1.1.733 1.767c0 .668-.26 1.295-.733 1.768-.472.472-1.1.732-1.767.732" fill="#327DA2"/></g></svg>