<svg width="89" height="63" viewBox="0 0 89 63" xmlns="http://www.w3.org/2000/svg"><g fill="#7D7D7D" fill-rule="nonzero" stroke="#FFF"><path d="M35.522 32.098a1.698 1.698 0 00-2.404 0 1.698 1.698 0 000 2.404c.663.665 1.74.665 2.404 0a1.698 1.698 0 000-2.404zM44.52 35a5.106 5.106 0 00-5.1 5.1c0 2.812 2.288 5.1 5.1 5.1s5.1-2.288 5.1-5.1-2.288-5.1-5.1-5.1zm0 6.8c-.937 0-1.7-.763-1.7-1.7 0-.937.763-1.7 1.7-1.7.937 0 1.7.763 1.7 1.7 0 .937-.763 1.7-1.7 1.7z"/><path d="M44.52 26.5c-1.9 0-3.738.384-5.461 1.142a1.7 1.7 0 001.368 3.112 10.108 10.108 0 014.093-.854c5.624 0 10.2 4.576 10.2 10.2s-4.576 10.2-10.2 10.2-10.2-4.576-10.2-10.2l.001-.173a1.7 1.7 0 00-3.399-.079c-.002.085-.002.167-.002.252 0 7.499 6.101 13.6 13.6 13.6s13.6-6.101 13.6-13.6-6.101-13.6-13.6-13.6zM44.52 1a1.7 1.7 0 00-1.7 1.7v10.2a1.7 1.7 0 103.4 0V2.7a1.7 1.7 0 00-1.7-1.7zM25.528 13.603l-7.212-7.21a1.7 1.7 0 00-2.404 2.403l7.211 7.212a1.7 1.7 0 102.405-2.405zM73.128 6.392a1.7 1.7 0 00-2.404 0l-7.212 7.211a1.7 1.7 0 002.405 2.405l7.21-7.212a1.7 1.7 0 000-2.404z"/><path d="M87.614 40.39C76.814 28.165 60.78 18 44.52 18 28.258 18 12.223 28.167 1.426 40.39a1.7 1.7 0 002.548 2.252c.362-.41.734-.82 1.11-1.226C13.483 54.11 28.711 62.2 44.52 62.2s31.036-8.09 39.437-20.784c.375.407.747.815 1.109 1.226a1.7 1.7 0 002.548-2.251zM44.52 58.8c-14.946 0-29.32-7.765-37.007-19.887C13.57 32.98 27.564 21.4 44.52 21.4s30.95 11.579 37.007 17.513C73.84 51.035 59.466 58.8 44.52 58.8z"/></g></svg>