<svg width="63" height="63" viewBox="0 0 63 63" xmlns="http://www.w3.org/2000/svg"><g fill="#7D7D7D" fill-rule="nonzero" stroke="#FFF"><path d="M57.534 1H5.906A4.911 4.911 0 001 5.906v36.98c0 2.705 2.2 4.906 4.906 4.906h15.211L16.592 58.84H11.2a1.8 1.8 0 100 3.6h41.16a1.8 1.8 0 100-3.6h-5.392l-4.525-11.048h15.091c2.705 0 4.906-2.2 4.906-4.906V5.906C62.44 3.2 60.24 1 57.534 1zM43.077 58.84H20.483l4.525-11.048h13.544l4.525 11.048zM58.84 42.886c0 .72-.586 1.306-1.306 1.306H5.906c-.72 0-1.306-.585-1.306-1.306V5.906c0-.72.586-1.306 1.306-1.306h51.628c.72 0 1.306.586 1.306 1.306v36.98z"/><path d="M31.72 9.52c-8.205 0-14.88 6.675-14.88 14.88 0 8.205 6.675 14.88 14.88 14.88 8.205 0 14.88-6.675 14.88-14.88 0-8.205-6.675-14.88-14.88-14.88zm0 26.16c-6.22 0-11.28-5.06-11.28-11.28s5.06-11.28 11.28-11.28S43 18.18 43 24.4s-5.06 11.28-11.28 11.28z"/><path d="M31.72 15.64a1.8 1.8 0 00-1.8 1.8v7.44a1.8 1.8 0 103.6 0v-7.44a1.8 1.8 0 00-1.8-1.8zM31.72 27.76a1.8 1.8 0 00-1.8 1.8v1.8a1.8 1.8 0 103.6 0v-1.8a1.8 1.8 0 00-1.8-1.8z"/></g></svg>