<svg width="49" height="51" viewBox="0 0 49 51" xmlns="http://www.w3.org/2000/svg" xmlns:xlink="http://www.w3.org/1999/xlink"><defs><path id="a" d="M0 .223h48.492V39H0z"/><path id="c" d="M.146.078h7.66v7.995H.146z"/><path id="e" d="M0 51.055h48.492V.078H0z"/></defs><g fill="none" fill-rule="evenodd"><path fill="#4A4A4A" d="M1 22h5v-6H1z"/><g><path d="M.84 28.18a.841.841 0 01-.84-.843V15.472c0-.465.376-.843.84-.843h4.942c.463 0 .84.378.84.843a.841.841 0 01-.84.843H1.68v11.022a.841.841 0 01-.84.843" fill="#4A4A4A"/><path fill="#4A4A4A" d="M35.38.921l2.99 2.828 2.99 3.482v18.073H5.785V.92z"/><path fill="#327DA2" d="M41.36 6.577v18.727H5.785V.92H35.38z"/><path d="M8.237 22.844h30.67V7.639l-4.5-4.258H8.237v19.463zm32.35 1.685H6.558V1.696h28.517l5.514 5.215V24.53z" fill="#4A4A4A"/><path d="M6.625 24.46H40.52V8.074h-5.14a.841.841 0 01-.84-.842V1.764H6.626V24.46zm34.735 1.686H5.785a.841.841 0 01-.84-.842V.92c0-.465.376-.842.84-.842H35.38c.464 0 .84.377.84.842v5.467h5.14c.464 0 .84.377.84.843v18.073a.841.841 0 01-.84.842z" fill="#4A4A4A"/><path d="M47.652 13.12v34.994a2.094 2.094 0 01-2.09 2.098H2.93c-1.154 0-2.09-.94-2.09-2.098v-25.91h26.702l4.274-6.595 1.023-1.456a2.424 2.424 0 011.984-1.033h12.83z" fill="#FFF"/><g transform="translate(0 12.055)"><mask id="b" fill="#fff"><use xlink:href="#a"/></mask><path d="M1.68 10.991V36.06c0 .692.56 1.255 1.25 1.255h42.632c.69 0 1.25-.563 1.25-1.255V1.908h-11.99c-.515 0-1 .252-1.296.675l-1.014 1.444-4.266 6.581a.84.84 0 01-.704.383H1.68zM45.562 39H2.93A2.939 2.939 0 010 36.06V10.149c0-.466.376-.843.84-.843h26.247l4.025-6.21a.625.625 0 01.018-.026l1.022-1.457a3.266 3.266 0 012.67-1.39h12.83c.464 0 .84.377.84.842V36.06a2.939 2.939 0 01-2.93 2.94z" fill="#4A4A4A" mask="url(#b)"/></g><path d="M3.292 47.752H45.2V15.58H34.836l-.973 1.384-4.99 7.7H3.292v23.088zm42.27 1.685H2.93a1.322 1.322 0 01-1.318-1.322V22.978h26.35l4.52-6.972.99-1.408c.308-.44.814-.703 1.35-.703H46.88v34.22c0 .729-.591 1.322-1.318 1.322z" fill="#FFF"/><path fill="#C0E6FF" d="M41.36 6.577v.654h-5.98V.921z"/><g transform="translate(34.394)"><mask id="d" fill="#fff"><use xlink:href="#c"/></mask><path d="M1.826 6.388h3.716L1.826 2.873v3.515zm5.14 1.685H.986a.841.841 0 01-.84-.842V.92A.838.838 0 011.562.308l5.98 5.656c.168.159.264.38.264.613v.654a.841.841 0 01-.84.842z" fill="#2A9EE1" mask="url(#d)"/></g><path d="M30.716 9.008H22.23a.841.841 0 01-.84-.842c0-.466.376-.843.84-.843h8.486c.464 0 .84.377.84.843a.841.841 0 01-.84.842M29.36 13.962h-7.13a.841.841 0 01-.84-.842c0-.465.376-.843.84-.843h7.13c.463 0 .84.378.84.843a.841.841 0 01-.84.842M24.559 18.863H11.904a.841.841 0 01-.84-.842c0-.466.376-.843.84-.843h12.655c.464 0 .84.377.84.843a.841.841 0 01-.84.842M18.52 10.172a3.582 3.582 0 00-3.576-3.588 3.582 3.582 0 00-3.575 3.588 3.582 3.582 0 003.575 3.588 3.582 3.582 0 003.576-3.588" fill="#FFF"/><mask id="f" fill="#fff"><use xlink:href="#e"/></mask><path fill="#4A4A4A" mask="url(#f)" d="M12.223 45.552H13.9v-1.681h-1.677zM9.004 45.552h1.676v-1.681H9.004zM5.785 45.552H7.46v-1.681H5.785zM21.569 29.474H19.99a.875.875 0 01-.873-.876c0-.484.39-.876.873-.876h1.578c.482 0 .873.392.873.876a.875.875 0 01-.873.876M16.902 29.474H8.32a.875.875 0 01-.874-.876c0-.484.392-.876.874-.876h8.582c.483 0 .874.392.874.876a.875.875 0 01-.874.876M42.84 28.08l-1.105-1.934-1.106 1.935h2.211zm-2.211 3.586l1.106-1.935 1.105 1.935H40.63zM42.84 20.508l-1.105-1.934-1.106 1.934h2.211zm-2.211 3.585l1.106-1.934 1.105 1.934H40.63z"/></g></g></svg>