<svg width="63" height="63" viewBox="0 0 63 63" xmlns="http://www.w3.org/2000/svg"><g fill="#7D7D7D" fill-rule="nonzero" stroke="#FFF" stroke-width=".4"><path d="M26.977 12.03l-1.794-.79c-.082-.302-.17-.587-.268-.862l.997-1.717c.182-.314.185-.7.008-1.018a13.651 13.651 0 00-1.75-2.445 1.021 1.021 0 00-.996-.316l-1.887.432c-.22-.176-.45-.345-.69-.508l-.182-1.999a1.028 1.028 0 00-.592-.838c-.9-.422-1.845-.739-2.817-.946a1.023 1.023 0 00-.99.335l-1.318 1.53h-.791l-1.318-1.53a1.021 1.021 0 00-.99-.335 13.07 13.07 0 00-2.817.946 1.029 1.029 0 00-.592.84l-.183 1.996a11.52 11.52 0 00-.689.509L5.43 4.882a1.02 1.02 0 00-.996.316 13.629 13.629 0 00-1.75 2.445 1.03 1.03 0 00.009 1.018l.997 1.717c-.098.275-.187.56-.268.861l-1.795.792a1.028 1.028 0 00-.612.94v2.794c0 .407.24.776.612.941l1.795.791c.081.302.17.587.268.862l-.997 1.717a1.03 1.03 0 00-.008 1.017 13.651 13.651 0 001.749 2.446c.25.28.631.4.996.316l1.888-.432c.22.176.45.345.689.508l.183 1.999c.033.365.26.684.592.838.9.421 1.845.739 2.817.946.366.077.746-.051.99-.335l1.317-1.53h.792l1.317 1.53a1.027 1.027 0 00.99.335 13.07 13.07 0 002.817-.946c.333-.154.559-.474.593-.84l.182-1.997c.238-.163.47-.332.69-.508l1.887.432c.365.085.747-.037.996-.316a13.63 13.63 0 001.75-2.446 1.03 1.03 0 00-.009-1.017l-.997-1.717c.099-.275.187-.56.268-.862l1.795-.791c.372-.165.613-.534.612-.94v-2.794c.001-.408-.24-.777-.612-.941zm-1.444 3.065l-1.641.724a1.03 1.03 0 00-.587.711 9.451 9.451 0 01-.476 1.526c-.123.296-.1.632.06.91l.941 1.621c-.245.39-.514.766-.804 1.124l-1.778-.407a1.02 1.02 0 00-.91.231 9.383 9.383 0 01-1.262.933c-.274.17-.452.46-.482.78l-.172 1.887c-.41.167-.83.31-1.258.427l-1.216-1.412a1.029 1.029 0 00-.779-.357h-1.733c-.3 0-.584.13-.78.357l-1.216 1.412a11.39 11.39 0 01-1.258-.427l-.173-1.889a1.03 1.03 0 00-.482-.779 9.269 9.269 0 01-1.26-.932 1.02 1.02 0 00-.91-.23l-1.778.406c-.29-.358-.559-.733-.805-1.124l.941-1.621a1.03 1.03 0 00.06-.91A9.451 9.451 0 015.3 16.53a1.03 1.03 0 00-.587-.711l-1.642-.724V13.64l1.642-.724a1.03 1.03 0 00.587-.71 9.451 9.451 0 01.476-1.526 1.03 1.03 0 00-.06-.91L4.773 8.15c.246-.39.515-.766.805-1.124l1.777.407c.323.075.663-.011.91-.231a9.383 9.383 0 011.262-.933c.275-.17.453-.46.482-.78l.173-1.887c.41-.167.83-.31 1.257-.427l1.216 1.412c.196.227.48.357.78.357h1.733c.3 0 .584-.13.78-.357l1.215-1.412c.428.117.848.26 1.258.427l.173 1.888c.03.321.208.61.482.78.446.274.867.586 1.26.932.249.22.588.306.911.23l1.778-.406c.29.358.559.733.804 1.123l-.94 1.622a1.03 1.03 0 00-.061.91c.201.494.36 1.004.476 1.525.073.316.29.58.586.711l1.642.724v1.454h0z"/><path d="M14.302 7.17a7.198 7.198 0 00-7.198 7.198 7.207 7.207 0 007.198 7.198 7.198 7.198 0 100-14.396zm0 12.34a5.142 5.142 0 01-5.141-5.142 5.147 5.147 0 015.141-5.141 5.142 5.142 0 010 10.283zM61.952 10.207l-1.42-.627a9.725 9.725 0 00-.18-.575l.792-1.364c.182-.314.185-.7.008-1.018a11.622 11.622 0 00-1.48-2.068 1.021 1.021 0 00-.995-.316l-1.495.342a10.402 10.402 0 00-.451-.334l-.145-1.585a1.027 1.027 0 00-.593-.839 11.133 11.133 0 00-2.385-.8 1.022 1.022 0 00-.99.335l-1.046 1.215h-.502l-1.047-1.215a1.02 1.02 0 00-.99-.335c-.822.175-1.622.444-2.385.8-.333.154-.559.474-.592.84l-.145 1.584a9.896 9.896 0 00-.452.334l-1.494-.342a1.023 1.023 0 00-.995.316 11.545 11.545 0 00-1.48 2.07A1.03 1.03 0 0041.5 7.64l.79 1.363c-.064.186-.124.378-.18.576l-1.42.627a1.027 1.027 0 00-.613.941v2.328c0 .407.24.776.614.94l1.42.627c.055.199.115.39.18.576l-.792 1.363a1.031 1.031 0 00-.008 1.019c.416.74.912 1.434 1.48 2.067.249.28.631.402.996.317l1.492-.343c.147.116.299.227.453.335l.145 1.584c.033.366.259.686.592.84.762.356 1.562.624 2.385.8.367.078.747-.05.99-.335l1.047-1.215h.502l1.046 1.215a1.027 1.027 0 00.99.335 11.126 11.126 0 002.385-.8c.334-.154.56-.474.593-.84l.145-1.584c.154-.108.305-.219.451-.334l1.495.342c.364.084.746-.037.995-.317a11.624 11.624 0 001.48-2.067 1.031 1.031 0 00-.008-1.019l-.791-1.363c.064-.186.124-.377.18-.576l1.42-.626c.372-.164.613-.534.613-.941v-2.328c0-.408-.24-.777-.614-.94zm-1.443 2.599l-1.266.558a1.025 1.025 0 00-.588.713 7.678 7.678 0 01-.387 1.24c-.123.297-.1.633.06.911l.732 1.262a9.795 9.795 0 01-.536.75l-1.378-.315a1.018 1.018 0 00-.909.231c-.32.281-.663.535-1.026.759a1.03 1.03 0 00-.484.78l-.134 1.469a8.981 8.981 0 01-.829.281l-.942-1.093a1.029 1.029 0 00-.78-.358H50.6c-.3 0-.584.13-.78.358l-.941 1.093a8.943 8.943 0 01-.83-.281l-.133-1.468a1.03 1.03 0 00-.484-.781 7.546 7.546 0 01-1.026-.759 1.034 1.034 0 00-.91-.232l-1.377.316a9.462 9.462 0 01-.536-.75l.732-1.262c.16-.278.183-.614.06-.91a7.682 7.682 0 01-.388-1.24 1.025 1.025 0 00-.587-.714l-1.267-.558v-.988l1.267-.558c.298-.131.516-.396.587-.713.094-.425.224-.84.388-1.243a1.03 1.03 0 00-.06-.91l-.731-1.26c.164-.257.343-.508.535-.75l1.378.314c.322.075.66-.011.908-.23.32-.282.664-.535 1.026-.759.276-.17.455-.459.485-.78l.133-1.47c.276-.108.553-.202.83-.28l.941 1.093c.196.227.48.358.78.358h1.444c.3 0 .584-.13.78-.358l.941-1.093c.276.078.553.172.83.28l.133 1.47c.03.321.209.61.484.78.363.224.706.477 1.026.758.248.22.587.306.91.231l1.377-.315c.192.243.37.493.536.751l-.732 1.262c-.16.277-.183.614-.06.91.164.402.294.817.387 1.24.072.318.29.583.588.714l1.266.558v.988h0z"/><path d="M51.32 7.17a5.142 5.142 0 00-5.14 5.142 5.147 5.147 0 005.14 5.141 5.142 5.142 0 000-10.283zm0 8.227a3.085 3.085 0 110-6.17 3.085 3.085 0 010 6.17zM61.698 44.514l-1.49-.313a13.39 13.39 0 00-.208-.772l1.143-1.025c.328-.293.433-.763.26-1.169A15.452 15.452 0 0059.514 38a1.032 1.032 0 00-1.143-.359l-1.437.472a13.68 13.68 0 00-.566-.566l.472-1.436a1.028 1.028 0 00-.358-1.142 15.39 15.39 0 00-3.236-1.89 1.033 1.033 0 00-1.169.26l-1.024 1.143a12.615 12.615 0 00-.773-.209l-.313-1.49c-.1-.476-.52-.816-1.006-.816h-3.507c-.486 0-.906.34-1.006.816l-.313 1.49c-.258.062-.516.13-.772.208l-1.025-1.143a1.033 1.033 0 00-1.169-.26 15.452 15.452 0 00-3.235 1.89 1.029 1.029 0 00-.359 1.142l.472 1.437a13.68 13.68 0 00-.566.566l-1.436-.472a1.034 1.034 0 00-1.142.358 15.39 15.39 0 00-1.89 3.236c-.173.405-.069.875.26 1.17l1.143 1.024c-.078.256-.148.514-.209.772l-1.49.313c-.476.1-.816.52-.817 1.006v3.507c0 .486.341.906.817 1.006l1.49.313c.061.259.13.517.208.773l-1.143 1.024a1.028 1.028 0 00-.26 1.169 15.452 15.452 0 001.889 3.235c.266.351.724.495 1.143.359l1.437-.472c.183.194.372.384.566.566l-.472 1.436c-.137.418.007.877.358 1.142a15.39 15.39 0 003.236 1.891c.405.174.876.069 1.17-.26l1.023-1.144c.256.079.515.148.773.21l.313 1.49c.1.475.52.816 1.006.816h3.507c.486 0 .906-.34 1.006-.817l.313-1.49c.259-.061.517-.13.773-.208l1.024 1.143c.293.329.764.434 1.169.26a15.452 15.452 0 003.235-1.889c.352-.265.496-.724.359-1.143L56.368 57c.194-.182.383-.372.566-.566l1.436.472c.418.136.876-.007 1.142-.357a15.39 15.39 0 001.89-3.237 1.028 1.028 0 00-.26-1.169L60 51.12c.078-.256.148-.514.21-.772l1.49-.314c.475-.1.816-.52.816-1.006V45.52c0-.486-.341-.905-.817-1.006zm-1.24 3.679l-1.33.28c-.41.086-.727.412-.8.823-.112.61-.274 1.21-.484 1.793-.142.394-.03.834.282 1.113l1.079.967a13.51 13.51 0 01-.909 1.548l-1.359-.447a1.032 1.032 0 00-1.106.312 11.23 11.23 0 01-1.316 1.317 1.03 1.03 0 00-.311 1.106l.447 1.357c-.495.337-1.013.64-1.549.909l-.967-1.079a1.033 1.033 0 00-1.114-.282c-.582.211-1.181.373-1.79.483-.412.075-.738.391-.824.8l-.28 1.331h-1.838l-.28-1.33a1.028 1.028 0 00-.824-.8c-.61-.112-1.209-.273-1.792-.484h0a1.036 1.036 0 00-1.114.282l-.966 1.079a13.51 13.51 0 01-1.548-.909l.447-1.358a1.03 1.03 0 00-.313-1.107 11.23 11.23 0 01-1.316-1.315 1.033 1.033 0 00-1.106-.312l-1.358.447a13.424 13.424 0 01-.908-1.548l1.078-.967c.312-.28.424-.72.282-1.115a11.074 11.074 0 01-.483-1.79 1.028 1.028 0 00-.8-.824l-1.33-.28v-1.838l1.33-.28c.41-.086.726-.412.8-.823.111-.61.273-1.21.483-1.793.142-.394.03-.835-.282-1.114l-1.078-.966a13.51 13.51 0 01.908-1.548l1.359.447c.398.13.835.006 1.107-.313A11.23 11.23 0 0139.9 38.65a1.03 1.03 0 00.311-1.106l-.447-1.357c.496-.337 1.013-.641 1.549-.909l.967 1.079c.28.311.72.423 1.115.282.582-.211 1.18-.373 1.79-.483.412-.075.738-.391.823-.8l.28-1.331h1.838l.28 1.33c.087.41.412.726.824.8.61.112 1.21.273 1.792.484.395.14.835.03 1.114-.282l.966-1.079a13.51 13.51 0 011.549.909l-.447 1.358a1.03 1.03 0 00.312 1.107c.475.401.915.841 1.317 1.315.272.317.708.44 1.105.312l1.358-.447c.337.495.64 1.012.909 1.548l-1.079.967a1.03 1.03 0 00-.282 1.115c.21.582.372 1.181.483 1.79.074.412.39.738.8.824l1.33.28v1.838h0z"/><path d="M47.208 38.02a9.255 9.255 0 000 18.508 9.265 9.265 0 009.254-9.254 9.255 9.255 0 00-9.254-9.255zm0 16.452a7.207 7.207 0 01-7.198-7.198 7.198 7.198 0 117.198 7.198zM29.727 12.312h8.226v2.057h-8.226zM29.644 45.841a1.028 1.028 0 00-.54-.54h0l-7.199-3.085a1.028 1.028 0 00-1.433.945v2.056H8.132V28.764H6.077v17.481c0 .568.46 1.028 1.027 1.029h13.369v2.056c0 .568.46 1.028 1.027 1.029h.001c.14 0 .277-.028.405-.084l7.198-3.085c.522-.223.764-.827.541-1.349zm-7.115 1.93v-3.05l3.559 1.525-3.56 1.525z"/><path d="M50.53 43.53l-4.42 5.305-2.289-2.288L42.367 48l3.085 3.085c.193.193.455.301.727.301l.046-.001a1.03 1.03 0 00.745-.369l5.141-6.17-1.58-1.317z"/></g></svg>