<svg id="Layer_1" data-name="Layer 1" xmlns="http://www.w3.org/2000/svg" xmlns:xlink="http://www.w3.org/1999/xlink" viewBox="0 0 200 200"><defs><style>.cls-1{opacity:0.3;fill:url(#linear-gradient);}.cls-2{fill:none;}.cls-3{fill:#fff;}.cls-4{fill:url(#linear-gradient-2);}.cls-5{fill:url(#linear-gradient-3);}.cls-6{fill:url(#linear-gradient-4);}.cls-7{fill:url(#linear-gradient-5);}.cls-8{fill:url(#linear-gradient-6);}.cls-9{fill:url(#linear-gradient-7);}.cls-10{fill:url(#linear-gradient-8);}.cls-11{fill:url(#linear-gradient-9);}.cls-12{fill:url(#linear-gradient-14);}.cls-13{fill:url(#linear-gradient-15);}.cls-14{fill:url(#linear-gradient-16);}.cls-15{fill:url(#linear-gradient-21);}.cls-16{fill:url(#linear-gradient-22);}.cls-17{fill:url(#linear-gradient-24);}.cls-18{fill:url(#linear-gradient-25);}</style><linearGradient id="linear-gradient" x1="97.63" y1="196.6" x2="97.63" y2="5.97" gradientUnits="userSpaceOnUse"><stop offset="0" stop-color="#5f1499"/><stop offset="1" stop-color="#00b9ff"/></linearGradient><linearGradient id="linear-gradient-2" x1="88.93" y1="196.6" x2="88.93" y2="5.97" xlink:href="#linear-gradient"/><linearGradient id="linear-gradient-3" x1="135.59" y1="196.6" x2="135.59" y2="5.97" xlink:href="#linear-gradient"/><linearGradient id="linear-gradient-4" x1="58.04" y1="196.6" x2="58.04" y2="5.97" xlink:href="#linear-gradient"/><linearGradient id="linear-gradient-5" x1="64.88" y1="196.6" x2="64.88" y2="5.97" xlink:href="#linear-gradient"/><linearGradient id="linear-gradient-6" x1="71.71" y1="196.6" x2="71.71" y2="5.97" xlink:href="#linear-gradient"/><linearGradient id="linear-gradient-7" x1="91.38" y1="196.6" x2="91.38" y2="5.97" xlink:href="#linear-gradient"/><linearGradient id="linear-gradient-8" x1="113.42" y1="196.6" x2="113.42" y2="5.97" xlink:href="#linear-gradient"/><linearGradient id="linear-gradient-9" x1="84.13" y1="196.6" x2="84.13" y2="5.97" xlink:href="#linear-gradient"/><linearGradient id="linear-gradient-14" x1="84.56" y1="196.6" x2="84.56" y2="5.97" xlink:href="#linear-gradient"/><linearGradient id="linear-gradient-15" x1="109.73" y1="196.6" x2="109.73" y2="5.97" xlink:href="#linear-gradient"/><linearGradient id="linear-gradient-16" x1="90.75" y1="196.6" x2="90.75" y2="5.97" xlink:href="#linear-gradient"/><linearGradient id="linear-gradient-21" x1="88.57" y1="196.6" x2="88.57" y2="5.97" xlink:href="#linear-gradient"/><linearGradient id="linear-gradient-22" x1="110.42" y1="196.6" x2="110.42" y2="5.97" xlink:href="#linear-gradient"/><linearGradient id="linear-gradient-24" x1="108.81" y1="196.6" x2="108.81" y2="5.97" xlink:href="#linear-gradient"/><linearGradient id="linear-gradient-25" x1="99.8" y1="196.6" x2="99.8" y2="5.97" xlink:href="#linear-gradient"/></defs><circle class="cls-1" cx="97.63" cy="103.48" r="52.71"/><path class="cls-2" d="M128.28,144.65l-12.13-2.23h-.08c-15.84-2.93-33.3-6.12-34.75-6.33A5,5,0,0,0,77,138.86a4.9,4.9,0,0,0-.25,3.79,5,5,0,0,0,2.51,2.86L90,150.81h0l0,0h0a2.39,2.39,0,0,1,.34.21l0,0,0,0h0l0,0,.07.08c4.68,4.84,1.84,12.17,1.72,12.48a1.49,1.49,0,0,1-1.39.94,1.54,1.54,0,0,1-.56-.1,1.51,1.51,0,0,1-.84-2s2-5.21-.57-8.69L73.52,159a1.53,1.53,0,0,1-.47.07H51.16a1.46,1.46,0,0,1-1.06-.44l-3.43-3.42h0l-7.47-7.48a4.89,4.89,0,0,0-3.5-1.45,5,5,0,0,0-3.52,8.47l14.45,14.44,21.24,7h52.53l7.89-2.59Z"/><path class="cls-2" d="M60.72,156.1l-4.37-11.42a5,5,0,0,0-4.63-3.18,5,5,0,0,0-4.64,6.73l2,5.13,2.74,2.74Z"/><rect class="cls-2" x="131.28" y="141.88" width="15.84" height="34.32"/><path class="cls-2" d="M115.46,59.05H144a3.12,3.12,0,0,0,3.11-3.11V41.15a3.11,3.11,0,0,0-3.11-3.1H49.52a3.11,3.11,0,0,0-3.11,3.1V55.94a3.12,3.12,0,0,0,3.11,3.11h65.94ZM135.59,45.3a3.25,3.25,0,1,1-3.25,3.25A3.24,3.24,0,0,1,135.59,45.3Zm-24.21-1.5h4.08a1.5,1.5,0,0,1,0,3h-4.08a1.5,1.5,0,0,1,0-3Zm-31,0h22a1.5,1.5,0,0,1,0,3h-22a1.5,1.5,0,0,1,0-3Zm0,6.5h7.5a1.5,1.5,0,0,1,0,3h-7.5a1.5,1.5,0,0,1,0-3ZM59.54,51.8a1.5,1.5,0,0,1-3,0V45.3a1.5,1.5,0,0,1,3,0Zm6.84,0a1.5,1.5,0,0,1-3,0V45.3a1.5,1.5,0,0,1,3,0Zm6.83,0a1.5,1.5,0,0,1-3,0V45.3a1.5,1.5,0,0,1,3,0Z"/><rect class="cls-2" x="79.58" y="62.05" width="34.38" height="5.46"/><path class="cls-2" d="M147.13,73.61A3.12,3.12,0,0,0,144,70.5H49.52a3.12,3.12,0,0,0-3.11,3.11V88.4a3.11,3.11,0,0,0,3.11,3.1H144a3.11,3.11,0,0,0,3.11-3.1ZM59.54,84.25a1.5,1.5,0,0,1-3,0v-6.5a1.5,1.5,0,0,1,3,0Zm6.84,0a1.5,1.5,0,0,1-3,0v-6.5a1.5,1.5,0,1,1,3,0Zm3.83,0v-6.5a1.5,1.5,0,0,1,3,0v6.5a1.5,1.5,0,0,1-3,0Zm10.17-5a1.5,1.5,0,0,1,0-3h8.37a1.5,1.5,0,0,1,0,3Zm20.75,6.5H80.38a1.5,1.5,0,0,1,0-3h20.75a1.5,1.5,0,0,1,0,3ZM122,79.25H97.46a1.5,1.5,0,1,1,0-3H122a1.5,1.5,0,0,1,0,3Zm13.59,5A3.25,3.25,0,1,1,138.84,81,3.25,3.25,0,0,1,135.59,84.25Z"/><rect class="cls-2" x="79.58" y="94.5" width="34.38" height="5.46"/><path class="cls-2" d="M115.46,103H49.52a3.12,3.12,0,0,0-3.11,3.11v14.79a3.11,3.11,0,0,0,3.11,3.1H144a3.11,3.11,0,0,0,3.11-3.1V106.07A3.12,3.12,0,0,0,144,103ZM59.54,116.71a1.5,1.5,0,0,1-3,0v-6.5a1.5,1.5,0,0,1,3,0Zm6.84,0a1.5,1.5,0,0,1-3,0v-6.5a1.5,1.5,0,1,1,3,0Zm6.83,0a1.5,1.5,0,0,1-3,0v-6.5a1.5,1.5,0,0,1,3,0Zm32.17-8h10.08a1.5,1.5,0,0,1,0,3H105.38a1.5,1.5,0,0,1,0-3Zm-25,0H96.77a1.5,1.5,0,0,1,0,3H80.38a1.5,1.5,0,0,1,0-3Zm7.5,9.5h-7.5a1.5,1.5,0,0,1,0-3h7.5a1.5,1.5,0,0,1,0,3Zm34.12,0H95.63a1.5,1.5,0,0,1,0-3H122a1.5,1.5,0,0,1,0,3Zm13.59-1.5a3.25,3.25,0,1,1,3.25-3.25A3.25,3.25,0,0,1,135.59,116.71Z"/><path class="cls-3" d="M160.18,99.8a3.24,3.24,0,1,0,3.24,3.24A3.25,3.25,0,0,0,160.18,99.8Z"/><path class="cls-3" d="M23.41,94.16a3.24,3.24,0,1,0,3.24,3.24A3.25,3.25,0,0,0,23.41,94.16Z"/><path class="cls-3" d="M110.18,25.22A3.24,3.24,0,1,0,113.42,22,3.24,3.24,0,0,0,110.18,25.22Z"/><path class="cls-4" d="M148.63,138.88H129.78a1.5,1.5,0,0,0-1.5,1.5v1.22l-11.51-2.11a1.59,1.59,0,0,0-.3-.06c-34.37-6.35-34.88-6.35-35.07-6.35a8,8,0,0,0-3.51,15.12l7.6,3.73L72.81,156.1H63.93l-4.78-12.49a8,8,0,0,0-7.43-5.11,8.13,8.13,0,0,0-2.85.52,7.94,7.94,0,0,0-4.9,9.27l-2.66-2.65a7.84,7.84,0,0,0-5.62-2.34,8,8,0,0,0-5.64,13.59l14.7,14.7a1.49,1.49,0,0,0,.59.36l21.81,7.17a1.5,1.5,0,0,0,.47.08h53a1.5,1.5,0,0,0,.47-.08l7.18-2.35v.93a1.5,1.5,0,0,0,1.5,1.5h18.85a1.5,1.5,0,0,0,1.5-1.5V140.38A1.51,1.51,0,0,0,148.63,138.88ZM67.86,176.2l-21.24-7L32.17,154.77a5,5,0,0,1,3.52-8.47,4.89,4.89,0,0,1,3.5,1.45l7.47,7.48h0l3.43,3.42a1.46,1.46,0,0,0,1.06.44H73.05a1.53,1.53,0,0,0,.47-.07L89,153.94c2.58,3.48.59,8.64.57,8.69a1.51,1.51,0,0,0,.84,2,1.54,1.54,0,0,0,.56.1,1.49,1.49,0,0,0,1.39-.94c.12-.31,3-7.64-1.72-12.48l-.07-.08,0,0h0l0,0,0,0a2.39,2.39,0,0,0-.34-.21h0l0,0h0l-10.81-5.3a5,5,0,0,1-2.51-2.86,4.9,4.9,0,0,1,.25-3.79,5,5,0,0,1,4.37-2.78c1.45.21,18.91,3.4,34.75,6.33h.08l12.13,2.23v29l-7.89,2.59Zm-20.78-28a5,5,0,0,1,4.64-6.73,5,5,0,0,1,4.63,3.18l4.37,11.42H51.78L49,153.36Zm100.05,28H131.28V141.88h15.85Z"/><circle class="cls-5" cx="135.59" cy="48.55" r="3.25"/><path class="cls-6" d="M58,43.8a1.5,1.5,0,0,0-1.5,1.5v6.5a1.5,1.5,0,0,0,3,0V45.3A1.5,1.5,0,0,0,58,43.8Z"/><path class="cls-7" d="M64.88,43.8a1.5,1.5,0,0,0-1.5,1.5v6.5a1.5,1.5,0,0,0,3,0V45.3A1.5,1.5,0,0,0,64.88,43.8Z"/><path class="cls-8" d="M71.71,43.8a1.5,1.5,0,0,0-1.5,1.5v6.5a1.5,1.5,0,0,0,3,0V45.3A1.5,1.5,0,0,0,71.71,43.8Z"/><path class="cls-9" d="M80.38,46.8h22a1.5,1.5,0,0,0,0-3h-22a1.5,1.5,0,0,0,0,3Z"/><path class="cls-10" d="M111.38,46.8h4.08a1.5,1.5,0,0,0,0-3h-4.08a1.5,1.5,0,0,0,0,3Z"/><path class="cls-11" d="M80.38,53.3h7.5a1.5,1.5,0,0,0,0-3h-7.5a1.5,1.5,0,0,0,0,3Z"/><circle class="cls-5" cx="135.59" cy="81" r="3.25"/><path class="cls-6" d="M58,76.25a1.51,1.51,0,0,0-1.5,1.5v6.5a1.5,1.5,0,0,0,3,0v-6.5A1.5,1.5,0,0,0,58,76.25Z"/><path class="cls-7" d="M64.88,76.25a1.5,1.5,0,0,0-1.5,1.5v6.5a1.5,1.5,0,0,0,3,0v-6.5A1.51,1.51,0,0,0,64.88,76.25Z"/><path class="cls-8" d="M73.21,84.25v-6.5a1.5,1.5,0,0,0-3,0v6.5a1.5,1.5,0,0,0,3,0Z"/><path class="cls-12" d="M90.25,77.75a1.5,1.5,0,0,0-1.5-1.5H80.38a1.5,1.5,0,0,0,0,3h8.37A1.5,1.5,0,0,0,90.25,77.75Z"/><path class="cls-13" d="M122,76.25H97.46a1.5,1.5,0,1,0,0,3H122a1.5,1.5,0,0,0,0-3Z"/><path class="cls-14" d="M101.13,82.75H80.38a1.5,1.5,0,0,0,0,3h20.75a1.5,1.5,0,0,0,0-3Z"/><circle class="cls-5" cx="135.59" cy="113.46" r="3.25"/><path class="cls-6" d="M58,108.71a1.51,1.51,0,0,0-1.5,1.5v6.5a1.5,1.5,0,0,0,3,0v-6.5A1.5,1.5,0,0,0,58,108.71Z"/><path class="cls-7" d="M64.88,108.71a1.5,1.5,0,0,0-1.5,1.5v6.5a1.5,1.5,0,0,0,3,0v-6.5A1.51,1.51,0,0,0,64.88,108.71Z"/><path class="cls-8" d="M71.71,108.71a1.5,1.5,0,0,0-1.5,1.5v6.5a1.5,1.5,0,0,0,3,0v-6.5A1.5,1.5,0,0,0,71.71,108.71Z"/><path class="cls-15" d="M80.38,111.71H96.77a1.5,1.5,0,0,0,0-3H80.38a1.5,1.5,0,0,0,0,3Z"/><path class="cls-16" d="M105.38,111.71h10.08a1.5,1.5,0,0,0,0-3H105.38a1.5,1.5,0,0,0,0,3Z"/><path class="cls-11" d="M87.88,115.21h-7.5a1.5,1.5,0,0,0,0,3h7.5a1.5,1.5,0,0,0,0-3Z"/><path class="cls-17" d="M122,115.21H95.63a1.5,1.5,0,0,0,0,3H122a1.5,1.5,0,0,0,0-3Z"/><path class="cls-18" d="M188.45,81.45l-2.06-9.27v0l0-.15-.05-.13-.06-.11-.09-.14-.09-.11-.1-.11-.11-.09-.12-.09h0l-.13-.06-.11-.06-.19,0-.09,0L185,71h-.08l-.21,0h-.08l-9.27,2.06a1.5,1.5,0,0,0-1.14,1.79A1.51,1.51,0,0,0,176,76l5.87-1.31L168.37,97.23a9.45,9.45,0,0,1-2.68,2.9,6.23,6.23,0,0,0-11-.09,9.43,9.43,0,0,1-2.94-3.51l-2.48-5.06a6.06,6.06,0,0,0,.84-3.07V73.61A6.12,6.12,0,0,0,144,67.5h-6.45l-2.66-5.45H144a6.12,6.12,0,0,0,6.11-6.11V41.15a6.11,6.11,0,0,0-6.11-6.1H121.7l-2.86-5.86c-.08-.16-.17-.32-.26-.48a6.14,6.14,0,0,0,1.08-3.49,6.24,6.24,0,0,0-11.7-3h-.86A12.29,12.29,0,0,0,96,30.2l-1.86,4.85H49.52a6.11,6.11,0,0,0-6.11,6.1V55.94a6.12,6.12,0,0,0,6.11,6.11H76.58V67.5H49.52a6.12,6.12,0,0,0-6.11,6.11V88.4a6.11,6.11,0,0,0,6.11,6.1H71.35l-1,2.62A9.43,9.43,0,0,1,68.62,100H53.53L39.62,91.61a12.43,12.43,0,0,0-13.26.3,6.13,6.13,0,0,0-2.95-.75,6.23,6.23,0,0,0-4,11l-5.06,10.1A3.26,3.26,0,1,0,17,113.59l5.05-10.11a6.1,6.1,0,0,0,1.36.16A6.23,6.23,0,0,0,28.65,94a9.59,9.59,0,0,1,1.92-.8,9.38,9.38,0,0,1,7.51,1l9.94,6a6.11,6.11,0,0,0-4.61,5.91v14.79a6.11,6.11,0,0,0,6.11,6.1H144a6.11,6.11,0,0,0,6.11-6.1V106.07A6.12,6.12,0,0,0,144,100H117V94.5H144a6.05,6.05,0,0,0,3-.8l2,4.15a12.35,12.35,0,0,0,4.87,5.26,6.24,6.24,0,0,0,12.47.12A12.35,12.35,0,0,0,171,98.77l13.33-22.26,1.24,5.59A1.51,1.51,0,0,0,187,83.28a1.22,1.22,0,0,0,.32,0A1.5,1.5,0,0,0,188.45,81.45Zm-165,19.19a3.24,3.24,0,1,1,3.24-3.24A3.25,3.25,0,0,1,23.41,100.64ZM144,91.5H49.52a3.11,3.11,0,0,1-3.11-3.1V73.61a3.12,3.12,0,0,1,3.11-3.11H144a3.12,3.12,0,0,1,3.11,3.11V88.4A3.11,3.11,0,0,1,144,91.5Zm3.11,14.57v14.79A3.11,3.11,0,0,1,144,124H49.52a3.11,3.11,0,0,1-3.11-3.1V106.07A3.12,3.12,0,0,1,49.52,103H144A3.12,3.12,0,0,1,147.13,106.07ZM114,100H79.58V94.5H114Zm-67.55-44V41.15a3.11,3.11,0,0,1,3.11-3.1H144a3.11,3.11,0,0,1,3.11,3.1V55.94A3.12,3.12,0,0,1,144,59.05H49.52A3.12,3.12,0,0,1,46.41,55.94Zm33.17,6.11H114V67.5H79.58Zm54.65,5.45H117V62.05h14.61ZM116.66,25.22A3.24,3.24,0,1,1,113.42,22,3.25,3.25,0,0,1,116.66,25.22ZM98.82,31.28a9.35,9.35,0,0,1,8.36-6.06,6.25,6.25,0,0,0,6.24,6.24,6.13,6.13,0,0,0,2.85-.7l2.09,4.29h-21ZM73.14,98.2l1.42-3.7h2V100h-4.3A12,12,0,0,0,73.14,98.2ZM163.42,103a3.24,3.24,0,1,1-3.24-3.24A3.25,3.25,0,0,1,163.42,103Z"/></svg>