<svg xmlns="http://www.w3.org/2000/svg" xmlns:xlink="http://www.w3.org/1999/xlink" width="40" zoomAndPan="magnify" viewBox="0 0 30 30.000001" height="40" preserveAspectRatio="xMidYMid meet" version="1.0"><defs><clipPath id="419ceb1b10"><path d="M 11.179688 8.710938 L 19 8.710938 L 19 20.324219 L 11.179688 20.324219 Z M 11.179688 8.710938 " clip-rule="nonzero"/></clipPath></defs><g clip-path="url(#419ceb1b10)"><path fill="#7d87dd" d="M 14.996094 19.5625 L 18.164062 13.632812 C 18.222656 13.460938 18.269531 13.28125 18.300781 13.101562 C 18.332031 12.917969 18.347656 12.726562 18.347656 12.535156 C 18.347656 11.609375 17.972656 10.769531 17.367188 10.164062 C 16.757812 9.554688 15.921875 9.179688 14.996094 9.179688 C 14.070312 9.179688 13.234375 9.554688 12.625 10.164062 C 12.019531 10.769531 11.644531 11.609375 11.644531 12.535156 C 11.644531 12.726562 11.660156 12.917969 11.691406 13.101562 C 11.722656 13.28125 11.765625 13.460938 11.828125 13.632812 Z M 14.996094 10.449219 C 15.582031 10.449219 16.113281 10.6875 16.496094 11.074219 C 16.882812 11.457031 17.121094 11.984375 17.121094 12.574219 C 17.121094 12.691406 17.109375 12.8125 17.089844 12.929688 C 17.066406 13.046875 17.039062 13.164062 17 13.277344 C 16.851562 13.695312 16.578125 14.054688 16.21875 14.304688 C 15.875 14.550781 15.453125 14.695312 14.996094 14.695312 C 14.539062 14.695312 14.117188 14.550781 13.769531 14.304688 C 13.414062 14.054688 13.140625 13.695312 12.992188 13.277344 C 12.953125 13.164062 12.921875 13.050781 12.902344 12.929688 C 12.882812 12.8125 12.871094 12.691406 12.871094 12.574219 C 12.871094 11.984375 13.109375 11.457031 13.496094 11.074219 C 13.878906 10.6875 14.40625 10.449219 14.996094 10.449219 Z M 16.171875 11.398438 C 15.867188 11.097656 15.453125 10.914062 14.996094 10.914062 C 14.535156 10.914062 14.121094 11.097656 13.820312 11.398438 C 13.519531 11.699219 13.335938 12.113281 13.335938 12.574219 C 13.335938 12.667969 13.34375 12.765625 13.359375 12.851562 C 13.375 12.945312 13.398438 13.035156 13.425781 13.125 C 13.542969 13.453125 13.757812 13.730469 14.035156 13.929688 C 14.304688 14.121094 14.636719 14.234375 14.996094 14.234375 C 15.355469 14.234375 15.683594 14.121094 15.953125 13.929688 C 16.234375 13.730469 16.449219 13.453125 16.5625 13.125 C 16.59375 13.035156 16.617188 12.949219 16.632812 12.851562 C 16.648438 12.765625 16.65625 12.667969 16.65625 12.574219 C 16.65625 12.113281 16.46875 11.699219 16.171875 11.398438 Z M 18.582031 13.828125 L 15.199219 20.15625 C 15.179688 20.199219 15.148438 20.234375 15.101562 20.253906 C 14.992188 20.316406 14.851562 20.273438 14.789062 20.160156 L 11.417969 13.84375 C 11.410156 13.828125 11.402344 13.816406 11.398438 13.796875 C 11.324219 13.597656 11.269531 13.386719 11.234375 13.175781 C 11.199219 12.964844 11.179688 12.75 11.179688 12.535156 C 11.179688 11.480469 11.605469 10.527344 12.300781 9.835938 C 12.988281 9.144531 13.941406 8.71875 14.996094 8.71875 C 16.050781 8.71875 17 9.144531 17.691406 9.835938 C 18.382812 10.527344 18.8125 11.480469 18.8125 12.535156 C 18.8125 12.75 18.789062 12.964844 18.757812 13.175781 C 18.71875 13.386719 18.664062 13.597656 18.59375 13.796875 C 18.589844 13.808594 18.585938 13.820312 18.582031 13.828125 Z M 18.582031 13.828125 " fill-opacity="1" fill-rule="nonzero"/></g></svg>