<?xml version="1.0" encoding="UTF-8"?>
<svg width="1200pt" height="1200pt" version="1.1" viewBox="0 0 1200 1200" xmlns="http://www.w3.org/2000/svg">
 <path fill="#3B91BB" d="m612.5 300v600c0 6.9023-5.5977 12.5-12.5 12.5s-12.5-5.5977-12.5-12.5v-600c0-6.9023 5.5977-12.5 12.5-12.5s12.5 5.5977 12.5 12.5zm-62.5 25h-350c-6.9023 0-12.5 5.5977-12.5 12.5v125c0 3.3164 1.3164 6.4961 3.6602 8.8398s5.5234 3.6602 8.8398 3.6602h350c3.3164 0 6.4961-1.3164 8.8398-3.6602s3.6602-5.5234 3.6602-8.8398v-125c0-3.3164-1.3164-6.4961-3.6602-8.8398s-5.5234-3.6602-8.8398-3.6602zm0 400h-350c-6.9023 0-12.5 5.5977-12.5 12.5v125c0 3.3164 1.3164 6.4961 3.6602 8.8398s5.5234 3.6602 8.8398 3.6602h350c3.3164 0 6.4961-1.3164 8.8398-3.6602s3.6602-5.5234 3.6602-8.8398v-125c0-3.3164-1.3164-6.4961-3.6602-8.8398s-5.5234-3.6602-8.8398-3.6602zm450-200h-350c-6.9023 0-12.5 5.5977-12.5 12.5v125c0 3.3164 1.3164 6.4961 3.6602 8.8398s5.5234 3.6602 8.8398 3.6602h350c3.3164 0 6.4961-1.3164 8.8398-3.6602s3.6602-5.5234 3.6602-8.8398v-125c0-3.3164-1.3164-6.4961-3.6602-8.8398s-5.5234-3.6602-8.8398-3.6602zm-675 137.5c0 3.3164 1.3164 6.4961 3.6602 8.8398s5.5234 3.6602 8.8398 3.6602h212.5c3.3164 0 6.4961-1.3164 8.8398-3.6602s3.6602-5.5234 3.6602-8.8398v-50h-237.5zm225-137.5h-212.5c-6.9023 0-12.5 5.5977-12.5 12.5v50h237.5v-50c0-3.3164-1.3164-6.4961-3.6602-8.8398s-5.5234-3.6602-8.8398-3.6602zm312.5 200h-212.5c-6.9023 0-12.5 5.5977-12.5 12.5v50h237.5v-50c0-3.3164-1.3164-6.4961-3.6602-8.8398s-5.5234-3.6602-8.8398-3.6602zm-225 137.5c0 3.3164 1.3164 6.4961 3.6602 8.8398s5.5234 3.6602 8.8398 3.6602h212.5c3.3164 0 6.4961-1.3164 8.8398-3.6602s3.6602-5.5234 3.6602-8.8398v-50h-237.5zm237.5-525c0-3.3164-1.3164-6.4961-3.6602-8.8398s-5.5234-3.6602-8.8398-3.6602h-212.5c-6.9023 0-12.5 5.5977-12.5 12.5v50h237.5zm-225 137.5h212.5c3.3164 0 6.4961-1.3164 8.8398-3.6602s3.6602-5.5234 3.6602-8.8398v-50h-237.5v50c0 3.3164 1.3164 6.4961 3.6602 8.8398s5.5234 3.6602 8.8398 3.6602z"/>
</svg>
