<?xml version="1.0" encoding="UTF-8"?>
<svg fill="#3B91BB" width="1200pt" height="1200pt" version="1.1" viewBox="0 0 1200 1200" xmlns="http://www.w3.org/2000/svg">
 <path d="m672 282c-9.6016-201.6-177.6-200.4-194.4-199.2-16.801-1.1992-184.8-2.3984-194.4 199.2 0 0-32.398 301.2 193.2 303.6h1.1992 1.1992c225.6-1.2031 193.2-303.6 193.2-303.6zm-63.602 835.2h-544.8v-178.8 4.8008-39.602-4.8008-1.1992c2.3984-64.801 14.398-110.4 80.398-151.2 87.602-55.199 186-103.2 186-103.2l78 248.4 45.602-129.6c-80.398-111.6 6-117.6 20.398-117.6 15.602 0 100.8 6 20.398 117.6l45.602 129.6 78-248.4s98.398 48 186 103.2c-27.602 6-49.199 31.199-49.199 60v32.398c-4.8008-1.1992-10.801-2.3984-16.801-2.3984h-76.801c-33.602 0-61.199 27.602-61.199 61.199v202.8c6.0039 6 7.2031 10.801 8.4023 16.801zm152.4-219.6v201.6c0 9.6016-7.1992 16.801-16.801 16.801h-76.801c-9.6016 0-16.801-7.1992-16.801-16.801v-201.6c0-9.6016 7.1992-16.801 16.801-16.801h76.801c9.6016 0 16.801 7.1992 16.801 16.801zm154.8-92.402v295.2c0 9.6016-7.1992 16.801-16.801 16.801h-76.801c-9.6016 0-16.801-7.1992-16.801-16.801v-295.2c0-9.6016 7.1992-16.801 16.801-16.801h76.801c9.5977 1.2031 16.801 8.4023 16.801 16.801zm207.6-103.2h-52.801v399.6c-1.1992 8.3984-7.1992 15.602-16.801 15.602h-76.801c-9.6016 0-16.801-7.1992-16.801-16.801v-398.4h-52.801c-9.6016 0-15.602-10.801-10.801-19.199l108-172.8c4.8008-8.3984 16.801-8.3984 21.602 0l108 172.8c4.8047 8.3984-1.1953 19.199-10.797 19.199z"/>
</svg>
