<?xml version="1.0" encoding="UTF-8"?>
<svg id="Layer_1" xmlns="http://www.w3.org/2000/svg" version="1.1" viewBox="0 0 750 800">
  <!-- Generator: Adobe Illustrator 29.3.0, SVG Export Plug-In . SVG Version: 2.1.0 Build 146)  -->
  <defs>
    <style>
      .st0 {
        fill: #fff;
      }
    </style>
  </defs>
  <path class="st0" d="M379,3l66.06,59.45c2.86,1.22-2.55,9.79-3.03,10.07-8.67,4.94-63.37-37.03-70.46-36.57-6.63.43-59.12,39.42-67.11,37.81-1.07-.22-7.88-9.14-4.52-11.31L365,3h14Z"/>
  <path class="st0" d="M447.84,474.84c-15.44-.12-138.89,5-141.66-1.52-.71-1.66-.76-6.18,1.46-7.18,2.92-1.31,22.78-1.66,28.62-3.38,18.42-5.43,19.58-18.34,20.79-35.21,6.55-91.65-3.95-192.3-1.34-284.76-2.6-16.38-34.46-14.96-47.25-13.83-110.08,9.71-105.61,147.81-11.72,164.8,7.82,1.41,43.57,1.36,45.61,2.39,2.44,1.23,2.01,9.51,1.65,9.86-1.31,1.27-27.18,3.17-35.67,6.83-52.69,22.75-80.95,150.46-141.06,164.94-5.25,1.26-42.24,4.94-44.8,2.26-.86-.9-1.85-8.09-.59-9.63.85-1.04,19.54-8.58,24.16-11.86,21.57-15.32,46.88-57.04,61.99-80.01,5.91-8.99,48.31-74.44,47.97-79.05-.11-1.46-21.69-11.93-25.45-14.53-62.17-42.85-62.47-140.69,12.27-167.64,39.28-14.16,199.76-13.35,243.41-6.03,46.91,7.86,80.92,36.52,82.75,86.24,1.9,51.33-28.46,80.78-70.95,102.93,18.91,29.75,36.28,60.87,56.01,90.02,15.5,22.91,36.9,57.09,60.12,71.87,6.39,4.07,24.6,6.48,17.64,16.96-2.38,3.58-37.93-.41-43.87-1.73-61.55-13.75-89.71-143.69-142.74-165.26-6.63-2.7-33.67-5.83-34.76-7.24-1.54-1.98-.76-7.69,2.27-8.86,4.71-1.82,35.05-.73,44.55-2.45,86.83-15.72,99.84-138.58,6.9-161.42-17.99-4.42-68.19-11.35-67.05,17.27,5.07,90.56-7.13,189.3-.16,278.93,1.25,16.06,3.26,29.06,20.76,34.24,6.69,1.98,37.73.22,30.13,12.06Z"/>
  <g>
    <path class="st0" d="M4.08,692.62v-84.46c2.96-.51,6.52-.93,10.67-1.27,4.15-.34,8.47-.51,12.95-.51,6.18,0,11.41.53,15.68,1.59,4.27,1.06,7.85,2.82,10.73,5.27,4.91,4.15,7.37,9.86,7.37,17.14,0,3.64-.74,6.9-2.22,9.78-1.48,2.88-3.39,5.29-5.72,7.24-2.33,1.95-4.85,3.43-7.56,4.45v.38c3.05,1.1,5.52,3.09,7.43,5.97,1.91,2.88,3.41,6.39,4.51,10.54,1.35,5.33,2.6,10.22,3.75,14.67,1.14,4.44,2.14,7.51,2.98,9.21h-16.13c-1.35-2.79-3.26-9.53-5.71-20.19-1.19-5.59-2.92-9.46-5.21-11.62s-5.67-3.28-10.16-3.37h-7.87v35.18H4.08ZM19.58,618.96v27.05h9.27c5.25,0,9.42-1.29,12.51-3.87,3.09-2.58,4.64-5.99,4.64-10.22,0-4.74-1.52-8.21-4.57-10.41-3.05-2.2-7.11-3.3-12.19-3.3-2.46,0-4.49.08-6.1.25-1.61.17-2.79.34-3.56.51Z"/>
    <path class="st0" d="M127.52,688.56l3.43-12.95c2.54,1.44,5.63,2.71,9.27,3.81,3.64,1.1,7.45,1.65,11.43,1.65,4.99,0,8.85-1.08,11.56-3.24,2.71-2.16,4.06-4.97,4.06-8.45,0-3.22-1.17-5.91-3.49-8.06-2.33-2.16-6.24-4.21-11.75-6.16-7.03-2.54-12.64-5.78-16.83-9.72-4.19-3.94-6.29-9-6.29-15.18,0-4.66,1.23-8.85,3.68-12.57,2.45-3.72,5.95-6.67,10.48-8.83,4.53-2.16,9.88-3.24,16.07-3.24,4.66,0,8.7.42,12.13,1.27,3.43.85,6.24,1.86,8.45,3.05l-3.81,12.57c-1.52-.85-3.75-1.73-6.67-2.67-2.92-.93-6.37-1.4-10.35-1.4-4.91,0-8.51,1.1-10.8,3.3-2.29,2.2-3.43,4.53-3.43,6.99,0,3.3,1.31,5.93,3.94,7.87,2.62,1.95,6.77,4.02,12.45,6.22,7.45,2.79,13,6.18,16.64,10.16,3.64,3.98,5.46,9.06,5.46,15.24,0,4.57-1.17,8.83-3.49,12.76-2.33,3.94-5.91,7.09-10.73,9.46-4.83,2.37-10.92,3.56-18.29,3.56-4.49,0-8.87-.57-13.14-1.71-4.28-1.14-7.6-2.39-9.97-3.75Z"/>
    <path class="st0" d="M288.05,694.02l-4.45,12.32c-5.93-1.69-11.62-3.43-17.08-5.21-5.46-1.78-10.9-3.73-16.32-5.84-.93-.34-1.86-.62-2.79-.83-.93-.21-1.86-.36-2.79-.44-6.6-.34-12.76-2.18-18.48-5.53-5.72-3.34-10.31-8.19-13.78-14.54-3.47-6.35-5.21-14.14-5.21-23.37s1.71-16.59,5.14-23.37c3.43-6.77,8.21-12.06,14.35-15.88,6.14-3.81,13.27-5.71,21.4-5.71s15.39,1.93,21.27,5.78c5.88,3.85,10.39,9.04,13.53,15.56,3.13,6.52,4.7,13.8,4.7,21.84,0,10.33-2.12,18.88-6.35,25.65-4.23,6.77-9.48,11.39-15.75,13.84v.51c3.72,1.02,7.56,1.97,11.49,2.86,3.94.89,7.64,1.67,11.11,2.35ZM247.28,681.58h.13c4.99,0,9.25-1.42,12.76-4.25,3.51-2.84,6.2-6.69,8.06-11.56,1.86-4.87,2.79-10.27,2.79-16.19,0-5.5-.89-10.65-2.67-15.43-1.78-4.78-4.4-8.66-7.87-11.62-3.47-2.96-7.79-4.45-12.95-4.45s-9.55,1.48-13.14,4.45c-3.6,2.96-6.29,6.88-8.06,11.75-1.78,4.87-2.67,10.18-2.67,15.94s.91,10.9,2.73,15.68c1.82,4.78,4.51,8.59,8.06,11.43,3.56,2.84,7.83,4.25,12.83,4.25Z"/>
    <path class="st0" d="M315.23,607.03h15.62v49.91c0,8.38,1.61,14.56,4.83,18.54,3.22,3.98,7.45,5.97,12.7,5.97,5.67,0,10.1-1.99,13.27-5.97,3.18-3.98,4.76-10.16,4.76-18.54v-49.91h15.62v48.89c0,8.81-1.42,16.02-4.26,21.65-2.84,5.63-6.82,9.78-11.94,12.45-5.12,2.67-11.11,4-17.97,4s-12.34-1.29-17.21-3.87c-4.87-2.58-8.66-6.67-11.37-12.26-2.71-5.59-4.06-12.87-4.06-21.84v-49.02Z"/>
    <path class="st0" d="M454.54,668.37h-27.18l-7.37,24.26h-16.13l27.43-85.6h19.94l27.81,85.6h-16.76l-7.75-24.26ZM429.91,656.56h21.97l-6.73-21.08c-.85-2.62-1.61-5.33-2.29-8.13-.68-2.79-1.36-5.42-2.03-7.87h-.25c-.59,2.46-1.23,5.1-1.91,7.94-.68,2.84-1.4,5.52-2.16,8.06l-6.6,21.08Z"/>
    <path class="st0" d="M505.34,692.62v-84.46c2.96-.51,6.52-.93,10.67-1.27,4.15-.34,8.47-.51,12.95-.51,6.18,0,11.41.53,15.68,1.59,4.27,1.06,7.85,2.82,10.73,5.27,4.91,4.15,7.37,9.86,7.37,17.14,0,3.64-.74,6.9-2.22,9.78-1.48,2.88-3.39,5.29-5.71,7.24-2.33,1.95-4.85,3.43-7.56,4.45v.38c3.05,1.1,5.52,3.09,7.43,5.97,1.91,2.88,3.41,6.39,4.51,10.54,1.35,5.33,2.6,10.22,3.75,14.67,1.14,4.44,2.14,7.51,2.98,9.21h-16.13c-1.36-2.79-3.26-9.53-5.71-20.19-1.19-5.59-2.92-9.46-5.21-11.62s-5.67-3.28-10.16-3.37h-7.87v35.18h-15.49ZM520.84,618.96v27.05h9.27c5.25,0,9.42-1.29,12.51-3.87,3.09-2.58,4.64-5.99,4.64-10.22,0-4.74-1.52-8.21-4.57-10.41-3.05-2.2-7.11-3.3-12.19-3.3-2.46,0-4.49.08-6.1.25-1.61.17-2.79.34-3.56.51Z"/>
    <path class="st0" d="M639.83,641.95v12.7h-32.26v25.15h36.07v12.83h-51.69v-85.6h49.78v12.83h-34.16v22.1h32.26Z"/>
    <path class="st0" d="M671.71,692.37v-84.2c7.11-1.18,15.41-1.78,24.89-1.78,8.04,0,14.9.83,20.57,2.48,5.67,1.65,10.46,4.13,14.35,7.43,4.15,3.39,7.41,7.66,9.78,12.83,2.37,5.17,3.56,11.39,3.56,18.67s-1.21,14.27-3.62,19.94c-2.41,5.67-5.65,10.37-9.72,14.1-4.23,3.9-9.67,6.82-16.32,8.76-6.65,1.95-14.12,2.92-22.42,2.92-4.57,0-8.59-.11-12.06-.32-3.47-.21-6.48-.49-9.02-.83ZM687.33,619.47v61.21c1.1.17,2.41.28,3.94.32,1.52.04,3.09.06,4.7.06,10.16.08,18.1-2.65,23.81-8.19,5.71-5.54,8.57-13.74,8.57-24.58.08-9.48-2.5-16.81-7.75-21.97-5.25-5.16-12.79-7.75-22.61-7.75-2.46,0-4.57.08-6.35.25-1.78.17-3.22.38-4.32.63Z"/>
    <path class="st0" d="M222.2,772.07v22.51c-1.41.53-3.4,1.08-5.97,1.65-2.57.57-5.36.86-8.35.86-7.48,0-13.29-1.98-17.42-5.94-1.98-1.89-3.52-4.26-4.62-7.1-1.1-2.84-1.63-5.93-1.58-9.27,0-4.71,1.04-8.79,3.14-12.24,2.09-3.45,4.99-6.13,8.71-8.02,3.72-1.89,8.02-2.84,12.9-2.84,2.73,0,5.13.23,7.19.69,2.07.46,3.61.94,4.62,1.42l-1.78,6.53c-1.23-.53-2.64-.98-4.22-1.35-1.58-.37-3.54-.56-5.87-.56-3.17,0-5.96.62-8.38,1.85-2.42,1.23-4.32,3.03-5.71,5.38-1.39,2.35-2.08,5.27-2.08,8.75s.65,6.23,1.95,8.65c1.3,2.42,3.1,4.27,5.41,5.54s5,1.91,8.08,1.91c1.45,0,2.71-.09,3.76-.26,1.06-.17,1.85-.4,2.38-.66v-11.09h-7.85v-6.4h15.71Z"/>
    <path class="st0" d="M258.24,796.62v-44.48h8.12v37.69h18.28v6.8h-26.4Z"/>
    <path class="st0" d="M334.73,751.41c4.36,0,8.07.99,11.15,2.97,3.08,1.98,5.43,4.68,7.06,8.08,1.63,3.41,2.44,7.23,2.44,11.45,0,4.97-.92,9.21-2.77,12.71-1.85,3.5-4.38,6.16-7.59,7.99-3.21,1.83-6.86,2.74-10.96,2.74s-7.8-.98-10.86-2.94c-3.06-1.96-5.42-4.64-7.1-8.05-1.67-3.41-2.51-7.29-2.51-11.65,0-4.58.89-8.61,2.67-12.11,1.78-3.5,4.26-6.24,7.43-8.22,3.17-1.98,6.84-2.97,11.02-2.97ZM334.53,757.88c-2.68,0-4.94.76-6.76,2.28-1.83,1.52-3.21,3.53-4.16,6.04-.95,2.51-1.42,5.3-1.42,8.38s.48,5.73,1.45,8.22c.97,2.49,2.38,4.46,4.22,5.91,1.85,1.45,4.07,2.18,6.67,2.18s4.87-.74,6.7-2.21c1.83-1.47,3.21-3.48,4.16-6.01.95-2.53,1.42-5.33,1.42-8.42,0-2.82-.46-5.47-1.39-7.95-.92-2.49-2.29-4.51-4.09-6.07-1.8-1.56-4.07-2.34-6.8-2.34Z"/>
    <path class="st0" d="M390.1,796.49v-43.76c1.28-.26,2.99-.48,5.15-.66,2.16-.18,4.38-.26,6.67-.26,2.99,0,5.49.21,7.49.63,2,.42,3.75,1.15,5.25,2.21,1.41.84,2.53,1.96,3.37,3.37.84,1.41,1.25,3.06,1.25,4.95,0,2.02-.63,3.92-1.88,5.68-1.25,1.76-3.09,3.08-5.51,3.96v.13c1.58.4,3.06,1.07,4.42,2.01,1.36.95,2.46,2.17,3.3,3.66.83,1.5,1.25,3.28,1.25,5.35s-.4,3.74-1.19,5.28c-.79,1.54-1.83,2.84-3.1,3.89-1.58,1.36-3.72,2.4-6.4,3.1-2.68.7-6.05,1.06-10.1,1.06-2.24,0-4.21-.07-5.91-.2-1.69-.13-3.05-.26-4.06-.4ZM398.16,758.15v12.14h4.16c2.81,0,4.98-.59,6.5-1.78,1.52-1.19,2.28-2.73,2.28-4.62,0-2.07-.74-3.6-2.21-4.59-1.47-.99-3.51-1.48-6.1-1.48-1.19,0-2.15.03-2.87.1-.73.07-1.31.14-1.75.23ZM398.16,776.23v14.52c.53.09,1.14.14,1.85.17.7.02,1.52.03,2.44.03,1.76,0,3.38-.24,4.85-.73,1.47-.48,2.67-1.28,3.6-2.38.92-1.1,1.39-2.55,1.39-4.36,0-2.6-.98-4.46-2.94-5.58-1.96-1.12-4.35-1.68-7.16-1.68h-4.03Z"/>
    <path class="st0" d="M478.68,784.02h-14.12l-3.83,12.61h-8.38l14.26-44.48h10.36l14.45,44.48h-8.71l-4.03-12.61ZM465.87,777.88h11.42l-3.5-10.96c-.44-1.36-.84-2.77-1.19-4.22-.35-1.45-.71-2.82-1.06-4.09h-.13c-.31,1.28-.64,2.65-.99,4.12-.35,1.47-.73,2.87-1.12,4.19l-3.43,10.96Z"/>
    <path class="st0" d="M525.34,796.62v-44.48h8.12v37.69h18.28v6.8h-26.4Z"/>
  </g>
</svg>