<?xml version="1.0" encoding="UTF-8"?>
<svg id="Layer_1" data-name="Layer 1" xmlns="http://www.w3.org/2000/svg" viewBox="0 0 773.99 940">
  <defs>
    <style>
      .cls-1 {
        fill: #3b91bb;
      }
    </style>
  </defs>
  <path class="cls-1" d="M766.51,613.42l-51.87-19.12c-5.76-23.54-14.41-45.6-25.93-64.73l23.05-51.49c2.88-5.88,1.44-11.77-2.88-16.18l-33.14-33.83c-4.32-4.41-11.53-5.88-15.85-2.94l-50.43,23.54c-20.17-11.77-41.78-22.07-64.83-27.95l-18.73-52.96c-2.88-5.88-7.2-8.83-12.97-8.83h-46.11c-5.76,0-11.53,4.41-12.97,8.83l-18.73,52.96c-23.05,5.88-43.22,14.71-63.39,27.95l-50.43-23.54c-5.76-2.94-11.53-1.47-15.85,2.94l-33.14,32.36c-4.32,4.41-5.76,11.77-2.88,16.18l23.05,51.49c-11.53,20.59-20.17,41.19-25.93,64.73l-51.87,20.59c-5.76,1.47-10.09,7.35-10.09,13.24v47.08c0,5.88,4.32,11.77,10.09,13.24l51.87,19.12c5.76,23.54,14.41,44.13,25.93,64.73l-23.05,51.49c-2.88,5.88-1.44,11.77,2.88,16.18l33.14,32.36c4.32,4.41,11.53,5.88,15.85,2.94l50.43-23.54c20.17,11.77,41.78,22.07,63.39,26.48l18.73,52.96c1.44,5.88,7.2,10.3,12.97,10.3h46.11c5.76,0,11.53-4.41,12.97-10.3l18.73-52.96c23.05-5.88,44.66-14.71,63.39-26.48l50.43,23.54c5.76,2.94,11.53,1.47,15.85-2.94l31.7-32.36c4.32-4.41,5.76-11.77,2.88-16.18l-23.05-51.49c11.53-20.59,20.17-41.19,25.93-64.73l51.87-19.12c5.76-1.47,10.09-7.35,10.09-13.24v-47.08c1.44-5.88-2.88-11.77-7.2-13.24h0ZM556.15,717.87c-51.87,52.96-142.64,27.95-158.48-47.08-7.2-32.36,2.88-66.2,25.93-89.74,51.87-52.96,142.64-27.95,158.48,45.6,7.21,33.84-2.88,67.67-25.93,91.21h0Z"/>
  <path class="cls-1" d="M544.61,157.4l-28.81-10.3c-2.88-13.24-8.65-25.01-14.41-36.78l12.97-29.42c2.88-5.88,1.44-11.77-2.88-16.18l-20.17-20.6c-4.32-4.41-11.53-5.88-15.85-2.94l-28.81,13.24c-11.53-5.88-23.05-11.77-36.02-14.71l-10.09-29.42c-2.88-5.88-7.21-10.29-14.41-10.29h-28.81c-5.76,0-11.53,4.41-12.97,8.83l-10.09,29.42c-12.97,2.94-24.49,8.83-36.02,14.71l-28.81-13.24c-5.76-2.94-11.53-1.47-15.85,2.94l-20.17,20.59c-4.32,4.41-5.76,11.77-2.88,16.18l12.97,29.42c-5.76,11.77-11.53,23.54-14.41,36.78l-28.81,10.3c-5.76,2.94-8.65,7.35-8.65,13.24v29.42c0,5.88,4.32,11.77,8.65,13.24l28.81,10.3c2.88,13.24,8.65,25.01,14.41,36.78l-12.97,29.42c-2.88,5.88-1.44,11.77,2.88,16.18l20.17,20.59c4.32,4.41,11.53,5.88,15.85,2.94l28.81-13.24c11.53,5.88,23.05,11.77,36.02,14.71l10.09,29.42c2.88,5.88,7.2,10.3,12.97,10.3h28.81c5.76,0,11.53-4.41,12.97-10.3l10.09-29.42c12.97-2.94,24.49-8.83,36.02-14.71l28.81,13.24c5.76,2.94,11.53,1.47,15.85-2.94l20.17-20.59c4.32-4.41,5.76-11.77,2.88-16.18l-12.97-29.42c7.2-11.77,11.53-23.54,14.41-36.78l28.81-10.3c5.76-1.47,10.09-7.35,10.09-13.24v-29.42c0-4.42-2.88-10.3-8.64-11.77h0ZM417.82,230.96c-34.58,35.31-97.98,17.65-106.62-33.83-4.32-22.07,2.88-42.66,17.29-58.84,36.02-36.78,97.98-17.65,106.62,33.83,4.32,22.07-2.88,44.13-17.29,58.84Z"/>
  <path class="cls-1" d="M200.27,453.08H72.04c-8.65,0-14.41-5.88-14.41-14.71s5.76-14.71,14.41-14.71h128.23c8.65,0,14.41,5.88,14.41,14.71,0,8.83-7.21,14.71-14.41,14.71Z"/>
  <path class="cls-1" d="M142.64,383.94H14.41c-8.65,0-14.41-5.88-14.41-14.71s5.76-14.71,14.41-14.71h128.23c8.65,0,14.41,5.89,14.41,14.72,0,8.82-5.77,14.71-14.41,14.71h0Z"/>
  <path class="cls-1" d="M142.64,522.22H14.41c-8.65,0-14.41-5.88-14.41-14.71s5.76-14.71,14.41-14.71h128.23c8.65,0,14.41,5.89,14.41,14.72,0,8.82-5.77,14.71-14.41,14.71h0Z"/>
</svg>