<?xml version="1.0" encoding="UTF-8"?>
<svg xmlns="http://www.w3.org/2000/svg" viewBox="0 0 790 936">
  <defs>
    <style>
      .cls-1 {
        fill: #fff;
        stroke: #fff;
        stroke-miterlimit: 10;
        stroke-width: .25px;
      }

      .cls-2 {
        fill: #3b91bb;
      }
    </style>
  </defs>
  <g id="Layer_1" data-name="Layer 1">
    <path class="cls-2" d="M776.73,198.99L405.26,2.06c-6.12-2.18-14.29-3.26-20.41,0L13.38,198.99c-8.16,4.35-14.29,13.06-13.27,23.94,10.21,176.26,53.07,319.88,119.4,436.3,66.33,115.33,156.14,204.55,262.28,273.09,8.16,4.35,17.35,5.44,24.49,0,107.16-67.46,197.98-156.67,264.32-273.09,66.33-116.42,109.2-260.04,119.4-436.3,0-9.79-4.08-19.58-13.27-23.94ZM631.82,633.11c-60.21,105.54-140.83,186.05-236.76,249.16-95.93-63.11-176.55-144.71-236.76-249.16-60.21-105.54-100.01-236.1-111.24-397.13L395.06,52.11l348,183.88c-11.23,161.03-51.03,291.59-111.24,397.13Z"/>
    <path class="cls-2" d="M390.47,917.56c8.95,2.61,19.19-9.85,12.6-16.59-8.39,2.61-16.94,2.2-25.38.09,1.66,7.49,5.79,14.46,12.79,16.49Z"/>
    <path class="cls-2" d="M393.64,352.46c3.07.11,5.73.75,8.05,1.8,2.48-1.39,5.01-2.68,7.59-3.84-6.3-.43-12.69.42-18.88,2.11,1.06-.07,2.13-.11,3.24-.07Z"/>
    <path class="cls-2" d="M348.84,443.17c-1.23-.27-2.44-.6-3.6-1,.87,1.97,2.07,3.84,3.72,5.57.88.92,1.72,1.61,2.54,2.12-.03-.06-.06-.12-.09-.18-1.01-2.15-1.87-4.32-2.57-6.51Z"/>
    <path class="cls-2" d="M760.64,231.41c-4.14-8-11.61-13.53-18.91-18.63-33.11-23.09-68.15-43.12-103.51-62.37-66.02-35.95-133.37-69.34-201.85-100.08-21.69-9.74-48.36-18.78-67.56-4.57l25.32-3.96c-117.14,38.29-229.02,93.48-331.3,163.42-9.26,6.34-18.55,12.88-25.95,21.42-28.38,32.74-21.28,82.87-12.46,125.73,5.83,28.37,11.78,57.09,24.3,83.09,8.44,17.52,19.71,33.47,28.18,50.97,9.93,20.5,15.84,42.75,23.18,64.36,18.22,53.6,45.34,103.48,72.33,153.05,7.49,13.76,15.11,27.7,25.84,38.99,8.83,9.29,19.59,16.59,27.63,26.6,12.58,15.66,17.36,36.48,28.57,53.2,13.64,20.35,35.53,32.96,56.63,44.85l33.64,18.96c10.37,5.84,21.58,11.79,32.98,14.63-.46-2.1-.75-4.24-.83-6.33,22.68-4.83,47.31,6,68.94-2.51,11.45-4.51,20.31-13.84,29.38-22.3,18.97-17.68,40.3-32.48,60.15-49.11,77.51-64.96,130.46-156.66,164.24-253.27,33.78-96.61,49.67-198.71,63.53-300.36,1.64-12.05,3.11-25.03-2.45-35.77ZM433.08,461.38c-.9.49-2.04.72-3.13.63-5.28,8.82-12.38,16.61-22,20.59-.02,0-.04.01-.05.02-.36.37-.72.74-1.08,1.12-.02,1.53-.06,3.05-.11,4.58,2.64-1.43,6.57-.29,7.33,2.98,2.46,10.62,2.17,22.21-.04,33.3.26.31.51.64.72,1.06,6.54,13.08,13.39,26.72,13.72,41.63.04,1.98-1.57,4.53-3.67,4.82-15.06,2.1-30.2,3.34-45.39,2.88-1.57,1.31-3.09,2.69-4.56,4.13-2.74,2.69-6.83,1.15-8.17-1.66-4.19,2.27-9.19-2.04-6.8-6.77,2.09-4.13,4.31-8.33,6.71-12.46.4-14.59,5.95-29.28,12.25-42.05.31-.63.77-1.13,1.3-1.51.06-7.85.95-15.68,2.94-23.37.7-2.69,2.74-3.73,4.78-3.56.35-1.17.71-2.34,1.07-3.51-12.35-2.77-23.33-12.47-30.99-23.38-1.52.26-3.15.3-4.87.05-9.35-1.33-16.8-10.84-18.81-19.64-.64-2.82-.91-5.71-.91-8.62-.37-.7-.71-1.44-1-2.22-1.16-3.13-1.32-6.36-.83-9.54-1.23-3.89-1.18-8.03-.45-12.1-3.65-9.76,2.08-22.03,7.42-30.44,8.43-13.27,19.32-22.81,33.61-29.51,15.73-7.37,34.63-11.81,51.49-5.62,1.41.52,2.44,1.41,3.03,2.53,7.13-.02,13.21,3.3,15.75,11.32,1.73,5.46,1.67,11.42.66,17.35,3.08,6.71,4.81,14.41,5.79,22.17,2.61,4.81,4.69,9.9,5.99,15.22,5.01,20.46-3.22,39.45-21.72,49.59Z"/>
    <path class="cls-2" d="M433.28,361.14c-.28-.99-.64-1.94-1.14-2.83-1.36-2.43-2.26-2.73-4.75-2.75-.7,0-1.4.05-2.1.14-.06.16-.13.33-.19.49,3.09,1.27,5.8,2.94,8.18,4.94Z"/>
    <path class="cls-2" d="M423.55,367.02c1.54.57,2.87,1.84,3.38,3.46.19-.04.39-.08.59-.09.2-.3.42-.56.67-.8-1.42-1.34-3.02-2.51-4.83-3.44.07.22.13.46.17.71,0,.06.01.11.02.17Z"/>
  </g>
  <g id="Layer_2" data-name="Layer 2">
    <path class="cls-1" d="M327.73,342.08c-17.35,19.58-28.57,44.61-28.57,73.99,0,20.67,5.1,40.26,15.31,56.58,6.12,10.88,14.29,19.58,23.47,27.2l-27.55,83.78c-1.02,2.18-2.04,6.53-2.04,9.79,0,14.14,10.21,25.02,23.47,25.02h128.59c3.06,0,5.1,0,8.16-1.09,12.25-5.44,18.37-18.5,14.29-31.55l-27.55-85.95c9.18-7.62,17.35-16.32,23.47-27.2,9.18-16.32,15.31-35.9,15.31-56.58,0-29.38-11.23-55.49-28.57-73.99-18.37-18.5-41.84-30.46-69.4-30.46s-51.03,11.97-68.38,30.46ZM432.84,376.9c9.18,9.79,14.29,23.94,15.31,39.17,0,10.88-3.06,20.67-8.16,29.38-6.12,9.79-13.27,16.32-22.45,20.67-11.23,5.44-16.33,18.5-12.25,30.46l23.47,71.81h-64.29l23.47-71.81c4.08-11.97-1.02-25.02-12.25-30.46-9.18-4.35-17.35-11.97-22.45-20.67-5.1-7.62-8.16-18.5-8.16-29.38,0-15.23,6.12-29.38,15.31-39.17s21.43-16.32,35.72-16.32,27.55,6.53,36.74,16.32Z"/>
  </g>
</svg>