<svg xmlns="http://www.w3.org/2000/svg" xmlns:xlink="http://www.w3.org/1999/xlink" viewBox="0 0 179.19 134.06"><defs><style>.cls-1{isolation:isolate;}.cls-2{opacity:0.2;fill:url(#linear-gradient);}.cls-2,.cls-3{mix-blend-mode:screen;}.cls-3{opacity:0.12;fill:url(#linear-gradient-2);}.cls-4{opacity:0.9;}.cls-5{fill:url(#linear-gradient-3);}.cls-6{fill:url(#linear-gradient-4);}.cls-7{fill:url(#linear-gradient-5);}.cls-8{fill:url(#linear-gradient-6);}.cls-9{fill:url(#linear-gradient-7);}.cls-10{fill:#0e89a5;}.cls-11{opacity:0.7;}.cls-12{fill:url(#linear-gradient-8);}.cls-13{fill:url(#linear-gradient-9);}.cls-14{fill:url(#linear-gradient-10);}.cls-15{fill:url(#linear-gradient-11);}.cls-16{fill:url(#linear-gradient-12);}.cls-17{fill:#f16900;}</style><linearGradient id="linear-gradient" y1="78.53" x2="177.3" y2="78.53" gradientUnits="userSpaceOnUse"><stop offset="0" stop-color="#6deaf6"/><stop offset="0.23" stop-color="#5ac8f3"/><stop offset="0.76" stop-color="#307eed"/><stop offset="1" stop-color="#2061ea"/></linearGradient><linearGradient id="linear-gradient-2" x1="1.88" y1="82.89" x2="179.19" y2="82.89" xlink:href="#linear-gradient"/><linearGradient id="linear-gradient-3" x1="33.34" y1="-7.05" x2="121.5" y2="111.97" gradientUnits="userSpaceOnUse"><stop offset="0" stop-color="#6deaf6"/><stop offset="1" stop-color="#21acef"/></linearGradient><linearGradient id="linear-gradient-4" x1="42.07" y1="-13.52" x2="130.24" y2="105.5" xlink:href="#linear-gradient-3"/><linearGradient id="linear-gradient-5" x1="44.54" y1="-15.34" x2="132.7" y2="103.68" xlink:href="#linear-gradient-3"/><linearGradient id="linear-gradient-6" x1="53.27" y1="-21.81" x2="141.43" y2="97.21" xlink:href="#linear-gradient-3"/><linearGradient id="linear-gradient-7" x1="55.74" y1="-23.64" x2="143.9" y2="95.38" xlink:href="#linear-gradient-3"/><linearGradient id="linear-gradient-8" x1="10.04" y1="13.69" x2="98.21" y2="132.71" gradientUnits="userSpaceOnUse"><stop offset="0" stop-color="#162560"/><stop offset="0.13" stop-color="#152866"/><stop offset="0.3" stop-color="#133276"/><stop offset="0.49" stop-color="#0f4292"/><stop offset="0.7" stop-color="#0a59b8"/><stop offset="0.73" stop-color="#095cbd"/><stop offset="0.87" stop-color="#3ba2d9"/><stop offset="1" stop-color="#6be4f3"/></linearGradient><linearGradient id="linear-gradient-9" x1="18.77" y1="7.22" x2="106.94" y2="126.24" xlink:href="#linear-gradient-8"/><linearGradient id="linear-gradient-10" x1="21.24" y1="5.39" x2="109.4" y2="124.42" xlink:href="#linear-gradient-8"/><linearGradient id="linear-gradient-11" x1="29.97" y1="-1.07" x2="118.14" y2="117.95" xlink:href="#linear-gradient-8"/><linearGradient id="linear-gradient-12" x1="32.44" y1="-2.9" x2="120.6" y2="116.12" xlink:href="#linear-gradient-8"/></defs><g class="cls-1"><g id="Layer_2" data-name="Layer 2"><g id="Layer_1-2" data-name="Layer 1"><polygon class="cls-2" points="177.3 78.52 88.65 27.36 88.65 27.37 88.65 27.36 0 78.52 88.65 129.7 88.65 129.7 88.65 129.7 177.3 78.52"/><polygon class="cls-3" points="179.19 82.88 90.53 31.72 90.53 31.73 90.53 31.72 1.88 82.88 90.53 134.06 90.53 134.06 90.53 134.06 179.19 82.88"/><g class="cls-4"><polygon class="cls-5" points="68.38 50.34 60.25 45.65 60.25 19.2 68.38 23.89 68.38 50.34"/><polygon class="cls-6" points="83.53 59.09 75.41 54.4 75.41 14.84 83.53 19.53 83.53 59.09"/><polygon class="cls-7" points="98.68 67.84 90.56 63.15 90.56 36.69 98.68 41.38 98.68 67.84"/><polygon class="cls-8" points="113.83 76.58 105.71 71.89 105.71 32.34 113.83 37.03 113.83 76.58"/><polygon class="cls-9" points="128.98 85.33 120.86 80.64 120.86 54.19 128.98 58.88 128.98 85.33"/><path class="cls-10" d="M124.6,35.51a2.59,2.59,0,0,0-1.23-.38L112.23,19.94a2.72,2.72,0,0,0,.18-.91A6.5,6.5,0,0,0,109.47,14c-1.62-.94-2.94-.19-2.94,1.67a5.12,5.12,0,0,0,.35,1.71L96.39,21.06a5.63,5.63,0,0,0-1.65-1.62,2.15,2.15,0,0,0-1.87-.26L82.6,6.22a2.78,2.78,0,0,0,.14-.75A6.47,6.47,0,0,0,79.8.4c-1.62-.93-2.93-.18-2.93,1.68a5,5,0,0,0,.18,1.18L63.28,6.45a5.68,5.68,0,0,0-1.63-1.58c-1.62-.93-2.94-.18-2.94,1.68a6.5,6.5,0,0,0,2.94,5.07c1.63.93,2.94.18,2.94-1.68a5.32,5.32,0,0,0-.2-1.28L78.11,5.48A6,6,0,0,0,79.8,7.15a2.14,2.14,0,0,0,1.87.25l10.27,13a2.7,2.7,0,0,0-.14.74,6.45,6.45,0,0,0,2.94,5.07c1.62.94,2.93.19,2.93-1.67a5,5,0,0,0-.19-1.24l10.64-3.77a5.23,5.23,0,0,0,1.35,1.2,2.17,2.17,0,0,0,1.73.28L122.07,35.8a2.36,2.36,0,0,0-.41,1.38,6.5,6.5,0,0,0,2.94,5.07c1.62.94,2.94.19,2.94-1.68A6.46,6.46,0,0,0,124.6,35.51Z"/></g><g class="cls-11"><polygon class="cls-12" points="45.08 71.08 36.96 66.39 36.96 39.93 45.08 44.63 45.08 71.08"/><polygon class="cls-13" points="60.23 79.83 52.11 75.14 52.11 35.58 60.23 40.27 60.23 79.83"/><polygon class="cls-14" points="75.38 88.58 67.26 83.89 67.26 57.43 75.38 62.12 75.38 88.58"/><polygon class="cls-15" points="90.53 97.32 82.41 92.63 82.41 53.07 90.53 57.77 90.53 97.32"/><polygon class="cls-16" points="105.68 106.07 97.56 101.38 97.56 74.92 105.68 79.61 105.68 106.07"/><path class="cls-17" d="M101.3,56.25a2.53,2.53,0,0,0-1.23-.38L88.93,40.68a2.78,2.78,0,0,0,.18-.91,6.45,6.45,0,0,0-2.94-5.07c-1.62-.94-2.93-.19-2.93,1.67a5.36,5.36,0,0,0,.34,1.71L73.09,41.8a5.4,5.4,0,0,0-1.65-1.62,2.15,2.15,0,0,0-1.87-.26L59.3,27a2.77,2.77,0,0,0,.15-.75,6.5,6.5,0,0,0-2.94-5.07c-1.62-.93-2.94-.18-2.94,1.68A4.84,4.84,0,0,0,53.76,24L40,27.19a5.77,5.77,0,0,0-1.62-1.58c-1.63-.93-2.94-.18-2.94,1.68a6.47,6.47,0,0,0,2.94,5.07c1.62.93,2.93.18,2.93-1.68a4.86,4.86,0,0,0-.2-1.28l13.72-3.18a5.7,5.7,0,0,0,1.7,1.66,2.11,2.11,0,0,0,1.87.26l10.27,13a2.5,2.5,0,0,0-.15.75,6.5,6.5,0,0,0,2.94,5.07c1.62.94,2.94.19,2.94-1.67a4.93,4.93,0,0,0-.2-1.24l10.64-3.77a5.6,5.6,0,0,0,1.35,1.2,2.2,2.2,0,0,0,1.74.28L98.77,56.54a2.33,2.33,0,0,0-.41,1.38A6.5,6.5,0,0,0,101.3,63c1.62.94,2.94.19,2.94-1.68A6.46,6.46,0,0,0,101.3,56.25Z"/></g></g></g></g></svg>