<?xml version="1.0" encoding="UTF-8"?>
<svg id="Layer_1" data-name="Layer 1" xmlns="http://www.w3.org/2000/svg" viewBox="0 0 935.09 935.58">
  <defs>
    <style>
      .cls-1 {
        fill: #3b91bb;
      }
    </style>
  </defs>
  <path class="cls-1" d="M879.68,935.58H55.41c-14.7,0-28.79-6.09-39.18-16.93C5.84,907.81,0,893.11,0,877.78V57.79C0,42.47,5.84,27.77,16.23,16.93,26.62,6.09,40.72,0,55.41,0h824.26c14.7,0,28.79,6.09,39.18,16.93,10.39,10.84,16.23,25.54,16.23,40.87v819.99c0,15.33-5.84,30.03-16.23,40.87-10.39,10.84-24.48,16.93-39.18,16.93M55.41,37.97c-4.75.45-9.16,2.74-12.36,6.42-3.21,3.68-4.97,8.48-4.95,13.45v819.99c0,5.27,2.01,10.32,5.58,14.05,3.57,3.72,8.42,5.82,13.47,5.82h822.55c5.05,0,9.9-2.1,13.47-5.82,3.57-3.73,5.58-8.78,5.58-14.05V57.84c0-5.27-2.01-10.32-5.58-14.05-3.57-3.72-8.42-5.82-13.47-5.82H55.41ZM522.95,935.58H0v-507.52h522.95v507.52ZM38.1,897.65h448.48v-429.86H38.1v429.86Z"/>
  <rect class="cls-1" x="26.09" y="449.58" width="486" height="460"/>
</svg>