<svg xmlns="http://www.w3.org/2000/svg" xmlns:xlink="http://www.w3.org/1999/xlink" viewBox="0 0 44 55" version="1.1" x="0px" y="0px"><title>Reply</title><desc>Created with Sketch.</desc><g stroke="none" stroke-width="1" fill="none" fill-rule="evenodd"><g transform="translate(-449.000000, -531.000000)"><path d="M474.5,546.005836 C463.240018,546.268927 454.172166,555.394881 454.002423,566.67772 C454.146717,566.496638 454.293687,566.317782 454.443273,566.141213 C458.662217,561.161216 464.961938,558 472,558 C472.844744,558 473.678851,558.04554 474.5,558.1343 L474.5,563.49267 C474.5,564.601288 475.13793,564.884853 475.945515,564.10611 L487.054485,553.39389 C487.852821,552.624066 487.86207,551.384853 487.054485,550.60611 L475.945515,539.89389 C475.147179,539.124066 474.5,539.398338 474.5,540.50733 L474.5,546.005836 L474.5,546.005836 Z" fill="#ffffff"/></g></g><text x="0" y="59" fill="#ffffff" font-size="5px" font-weight="bold" font-family="'Helvetica Neue', Helvetica, Arial-Unicode, Arial, Sans-serif">Created by Tim Neumann</text><text x="0" y="64" fill="#ffffff" font-size="5px" font-weight="bold" font-family="'Helvetica Neue', Helvetica, Arial-Unicode, Arial, Sans-serif">from the Noun Project</text></svg>