<svg id="Layer_1" data-name="Layer 1" xmlns="http://www.w3.org/2000/svg" xmlns:xlink="http://www.w3.org/1999/xlink" viewBox="0 0 200 200"><defs><style>.cls-1{opacity:0.3;fill:url(#linear-gradient);}.cls-2{fill:#fff;}.cls-3{fill:url(#linear-gradient-2);}.cls-4{fill:url(#linear-gradient-3);}.cls-5{fill:url(#linear-gradient-4);}.cls-6{fill:url(#linear-gradient-5);}.cls-7{fill:url(#linear-gradient-6);}.cls-8{fill:url(#linear-gradient-7);}.cls-9{fill:url(#linear-gradient-8);}.cls-10{fill:url(#linear-gradient-9);}.cls-11{fill:url(#linear-gradient-10);}</style><linearGradient id="linear-gradient" x1="102.02" y1="198.72" x2="102.02" y2="6.59" gradientUnits="userSpaceOnUse"><stop offset="0" stop-color="#5f1499"/><stop offset="1" stop-color="#00b9ff"/></linearGradient><linearGradient id="linear-gradient-2" x1="114.67" y1="198.72" x2="114.67" y2="6.59" xlink:href="#linear-gradient"/><linearGradient id="linear-gradient-3" x1="127.58" y1="198.72" x2="127.58" y2="6.59" xlink:href="#linear-gradient"/><linearGradient id="linear-gradient-4" x1="50.39" y1="198.72" x2="50.39" y2="6.59" xlink:href="#linear-gradient"/><linearGradient id="linear-gradient-5" x1="76.47" y1="198.72" x2="76.47" y2="6.59" xlink:href="#linear-gradient"/><linearGradient id="linear-gradient-6" x1="76.47" y1="198.72" x2="76.47" y2="6.59" xlink:href="#linear-gradient"/><linearGradient id="linear-gradient-7" x1="102.02" y1="198.72" x2="102.02" y2="6.59" xlink:href="#linear-gradient"/><linearGradient id="linear-gradient-8" x1="129.55" y1="198.72" x2="129.55" y2="6.59" xlink:href="#linear-gradient"/><linearGradient id="linear-gradient-9" x1="120.43" y1="198.72" x2="120.43" y2="6.59" xlink:href="#linear-gradient"/><linearGradient id="linear-gradient-10" x1="90.42" y1="198.72" x2="90.42" y2="6.59" xlink:href="#linear-gradient"/></defs><circle class="cls-1" cx="102.02" cy="103.44" r="52.71"/><path class="cls-2" d="M143.4,108.68h11.87V93.42l-9.48-3.37a1.51,1.51,0,0,1-.94-1,42.47,42.47,0,0,0-3.9-9.41,1.5,1.5,0,0,1,0-1.38l4.33-9.06L134.12,58.07,125,62.39a1.5,1.5,0,0,1-1.38,0,43,43,0,0,0-9.4-3.9,1.47,1.47,0,0,1-1-.94L109.87,48H94.17L90.79,57.5a1.49,1.49,0,0,1-1,.94,42.73,42.73,0,0,0-9.4,3.9,1.5,1.5,0,0,1-1.38,0l-9.07-4.32L58.82,69.19l4.31,9.06a1.53,1.53,0,0,1,0,1.38A42.87,42.87,0,0,0,59.19,89a1.51,1.51,0,0,1-.94,1l-9.47,3.37v15.26h2.7a1.5,1.5,0,0,1,1.5,1.5H56.4a1.5,1.5,0,0,1,1.5-1.5h8.25v-7.41A35.92,35.92,0,0,1,102,65.39a35.44,35.44,0,0,1,21.84,7.43A1.5,1.5,0,1,1,122,75.19a32.54,32.54,0,0,0-20-6.8,32.91,32.91,0,0,0-32.87,32.88v7.41H75v-7.41A27,27,0,0,1,76.1,93.5a1.5,1.5,0,0,1,2.87.87,24.09,24.09,0,0,0-1,6.9v7.41h5.26a1.5,1.5,0,0,1,1.5,1.5h3.15v-8.91a14.15,14.15,0,0,1,28.29,0v7.41h9.91v-7.41a24.06,24.06,0,0,0-44.4-12.85,1.5,1.5,0,1,1-2.53-1.61,27.06,27.06,0,0,1,49.93,14.46v7.41h5.82v-7.41a33,33,0,0,0-2.15-11.71,1.5,1.5,0,1,1,2.8-1.07,35.81,35.81,0,0,1,2.35,12.78v8.91h4A1.5,1.5,0,0,1,143.4,108.68ZM132,84.41a1.42,1.42,0,0,1-.79.23,1.48,1.48,0,0,1-1.27-.71,33.06,33.06,0,0,0-3.22-4.33,1.5,1.5,0,0,1,2.26-2,35.9,35.9,0,0,1,3.5,4.73A1.48,1.48,0,0,1,132,84.41Z"/><path class="cls-2" d="M89.38,155.59a2.73,2.73,0,1,0,2.72,2.73A2.73,2.73,0,0,0,89.38,155.59Z"/><path class="cls-2" d="M114.67,139a2.73,2.73,0,1,0,2.72,2.73A2.73,2.73,0,0,0,114.67,139Z"/><path class="cls-2" d="M76.47,173.21a2.73,2.73,0,1,0,2.72,2.73A2.73,2.73,0,0,0,76.47,173.21Z"/><circle class="cls-2" cx="47.82" cy="154.05" r="2.73"/><path class="cls-2" d="M31.18,126.06a2.73,2.73,0,1,0,2.72,2.73A2.73,2.73,0,0,0,31.18,126.06Z"/><circle class="cls-2" cx="127.58" cy="175.94" r="2.73"/><path class="cls-2" d="M153.5,154.63a2.73,2.73,0,1,0,2.72-2.73A2.72,2.72,0,0,0,153.5,154.63Z"/><path class="cls-2" d="M170.14,128.79a2.73,2.73,0,1,0,2.73-2.73A2.72,2.72,0,0,0,170.14,128.79Z"/><path class="cls-3" d="M114.67,122.27a1.5,1.5,0,0,0-1.5,1.5V136.2a5.72,5.72,0,1,0,3,0V123.77A1.5,1.5,0,0,0,114.67,122.27Zm2.72,19.45a2.73,2.73,0,1,1-2.72-2.73A2.72,2.72,0,0,1,117.39,141.72Z"/><path class="cls-4" d="M127.58,152.59a1.5,1.5,0,0,0-1.5,1.5v16.33a5.72,5.72,0,1,0,3,0V154.09A1.5,1.5,0,0,0,127.58,152.59Zm2.72,23.35a2.73,2.73,0,1,1-2.72-2.73A2.73,2.73,0,0,1,130.3,175.94Z"/><path class="cls-5" d="M58.24,143.63a1.49,1.49,0,0,0-2.12,0l-5.45,5.45a5.73,5.73,0,1,0,2.12,2.12l5.45-5.45A1.49,1.49,0,0,0,58.24,143.63Zm-7.69,10.42a2.73,2.73,0,1,1-2.73-2.73A2.72,2.72,0,0,1,50.55,154.05Z"/><path class="cls-6" d="M75,170.42a5.72,5.72,0,1,0,3,0v-28a1.5,1.5,0,0,0-3,0Zm4.22,5.52a2.73,2.73,0,1,1-2.72-2.73A2.73,2.73,0,0,1,79.19,175.94Z"/><path class="cls-7" d="M76.47,136.69a1.5,1.5,0,0,0,1.5-1.5V125a1.5,1.5,0,1,0-3,0v10.21A1.5,1.5,0,0,0,76.47,136.69Z"/><path class="cls-8" d="M167.35,127.29h-9.08V92.36a1.5,1.5,0,0,0-1-1.41l-9.74-3.47a45.67,45.67,0,0,0-3.59-8.63l4.45-9.33a1.49,1.49,0,0,0-.29-1.71L135.49,55.2a1.51,1.51,0,0,0-1.71-.29l-9.33,4.44a45.47,45.47,0,0,0-8.63-3.58L112.34,46a1.5,1.5,0,0,0-1.41-1H93.12a1.49,1.49,0,0,0-1.41,1l-3.49,9.75a45.22,45.22,0,0,0-8.62,3.58l-9.34-4.44a1.5,1.5,0,0,0-1.7.29L56,67.81a1.51,1.51,0,0,0-.3,1.71l4.44,9.33a46.13,46.13,0,0,0-3.57,8.63L46.78,91a1.5,1.5,0,0,0-1,1.41v34.93H36.7a5.72,5.72,0,1,0,0,3H47.28a1.5,1.5,0,0,0,1.5-1.5V111.68h2.7a1.5,1.5,0,0,0,1.5-1.5h0a1.5,1.5,0,0,0-1.5-1.5h-2.7V93.42l9.47-3.37a1.51,1.51,0,0,0,.94-1,42.87,42.87,0,0,1,3.9-9.41,1.53,1.53,0,0,0,0-1.38l-4.31-9.06L69.93,58.07,79,62.39a1.5,1.5,0,0,0,1.38,0,42.73,42.73,0,0,1,9.4-3.9,1.49,1.49,0,0,0,1-.94L94.17,48h15.7l3.39,9.48a1.47,1.47,0,0,0,1,.94,43,43,0,0,1,9.4,3.9,1.5,1.5,0,0,0,1.38,0l9.08-4.32,11.11,11.12-4.33,9.06a1.5,1.5,0,0,0,0,1.38,42.47,42.47,0,0,1,3.9,9.41,1.51,1.51,0,0,0,.94,1l9.48,3.37v15.26H143.4a1.5,1.5,0,0,0-1.5,1.5h0a1.5,1.5,0,0,0,1.5,1.5h11.87v17.11a1.5,1.5,0,0,0,1.5,1.5h10.58a5.73,5.73,0,1,0,0-3ZM33.9,128.79a2.73,2.73,0,1,1-2.72-2.73A2.72,2.72,0,0,1,33.9,128.79Zm141.69,0a2.73,2.73,0,1,1-2.72-2.73A2.72,2.72,0,0,1,175.59,128.79Z"/><path class="cls-9" d="M129,77.62a1.5,1.5,0,0,0-2.26,2A33.06,33.06,0,0,1,130,83.93a1.48,1.48,0,0,0,1.27.71,1.42,1.42,0,0,0,.79-.23,1.48,1.48,0,0,0,.48-2.06A35.9,35.9,0,0,0,129,77.62Z"/><path class="cls-10" d="M135.55,88.49a1.5,1.5,0,1,0-2.8,1.07,33,33,0,0,1,2.15,11.71v7.41h-5.82v-7.41A27.06,27.06,0,0,0,79.15,86.81a1.5,1.5,0,1,0,2.53,1.61,24.06,24.06,0,0,1,44.4,12.85v7.41h-9.91v-7.41a14.15,14.15,0,0,0-28.29,0V152.8a5.72,5.72,0,1,0,3,0V101.27a11.15,11.15,0,0,1,22.29,0v8.9h0v6.08a1.5,1.5,0,0,0,3,0v-4.59h9.91v33a1.5,1.5,0,1,0,3,0v-33h5.82v22.54a1.5,1.5,0,0,0,.44,1.06l16.14,16.14a5.73,5.73,0,1,0,4.74-2.52,5.8,5.8,0,0,0-2.46.56L137.9,133.6V101.27A35.81,35.81,0,0,0,135.55,88.49ZM159,154.63a2.73,2.73,0,1,1-2.73-2.73A2.72,2.72,0,0,1,159,154.63ZM92.1,158.32a2.73,2.73,0,1,1-2.72-2.73A2.73,2.73,0,0,1,92.1,158.32Z"/><path class="cls-11" d="M83.23,108.68H78v-7.41a24.09,24.09,0,0,1,1-6.9,1.5,1.5,0,0,0-2.87-.87A27,27,0,0,0,75,101.27v7.41H69.15v-7.41A32.91,32.91,0,0,1,102,68.39a32.54,32.54,0,0,1,20,6.8,1.5,1.5,0,1,0,1.83-2.37A35.44,35.44,0,0,0,102,65.39a35.92,35.92,0,0,0-35.87,35.88v7.41H57.9a1.5,1.5,0,0,0-1.5,1.5h0a1.5,1.5,0,0,0,1.5,1.5h8.25V133.6l-5.75,5.75a1.5,1.5,0,0,0,1.06,2.56,1.49,1.49,0,0,0,1.06-.44l6.19-6.19a1.5,1.5,0,0,0,.44-1.06V111.68H75v6.16a1.5,1.5,0,0,0,3,0v-6.16h5.26a1.5,1.5,0,0,0,1.5-1.5h0A1.5,1.5,0,0,0,83.23,108.68Z"/></svg>