<svg xmlns="http://www.w3.org/2000/svg" xmlns:xlink="http://www.w3.org/1999/xlink" viewBox="0 0 352.3 236.51"><defs><style>.cls-1{fill:none;}.cls-2{isolation:isolate;}.cls-3{mix-blend-mode:multiply;fill:url(#_ÂÁ_Ï_ÌÌ_È_ËÂÌÚ_12);}.cls-4{fill:#313247;}.cls-5{fill:#025a82;}.cls-6{clip-path:url(#clip-path);}.cls-7{fill:#0cd9d4;}.cls-8{fill:#e5e3e4;}.cls-9{fill:#f16900;}.cls-10{fill:#034462;}.cls-11{fill:#0e91bb;}.cls-12{fill:#77cefa;}</style><linearGradient id="_ÂÁ_Ï_ÌÌ_È_ËÂÌÚ_12" x1="89.29" y1="174.98" x2="177.18" y2="31.75" gradientUnits="userSpaceOnUse"><stop offset="0" stop-color="#a1a1bd"/><stop offset="1" stop-color="#fff"/></linearGradient><clipPath id="clip-path" transform="translate(82.21 56.29)"><polygon class="cls-1" points="107.92 123.52 4.68 63.34 106.6 4.48 210.59 65.1 107.92 123.52"/></clipPath></defs><g class="cls-2"><g id="Layer_2" data-name="Layer 2"><g id="Layer_1-2" data-name="Layer 1"><path class="cls-3" d="M268.07,83.68,161,20.87a4.1,4.1,0,0,0-4.12,0L2.05,110.07a4.09,4.09,0,0,0,0,7.07l106.23,62.51a4.08,4.08,0,0,0,4.11,0L268,90.76A4.09,4.09,0,0,0,268.07,83.68Z" transform="translate(82.21 56.29)"/><path class="cls-4" d="M212,65.31l-102.91-60a5.16,5.16,0,0,0-5.17,0L3.26,63.46a5.16,5.16,0,0,0,0,8.91l102.17,59.55a5.18,5.18,0,0,0,5.14,0L212,74.24A5.15,5.15,0,0,0,212,65.31Z" transform="translate(82.21 56.29)"/><polygon class="cls-4" points="82.9 124.91 296.8 126.36 296.8 121.36 82.9 119.91 82.9 124.91"/><path class="cls-5" d="M212,60.69,109.12.7a5.16,5.16,0,0,0-5.17,0L3.26,58.84a5.16,5.16,0,0,0,0,8.91L105.41,127.3a5.18,5.18,0,0,0,5.14,0L212,69.62A5.15,5.15,0,0,0,212,60.69Z" transform="translate(82.21 56.29)"/><g class="cls-6"><path class="cls-7" d="M87,8.88a1.28,1.28,0,0,0-1-.19c-.12.06-.12.18,0,.31L63,21.73,44.26,11l3.88.69,4.33,2.49c-.33.4.13,1.1,1.15,1.69s2.61.92,3.24.57.19-1.17-1-1.84a4.73,4.73,0,0,0-3-.68l-4.68-2.69-5.17-.92-9.75-5.6L31.85,1.91,40.77-3,38.92-6.5,18.26-18.39l-.61.16L38.12-6.45l1.63,3L33.24.19l-1-1.92,5.7-3.17L31.34-8.68A.73.73,0,0,0,31-9.06a1.34,1.34,0,0,0-1.06-.19c-.2.12-.06.39.31.6a1.65,1.65,0,0,0,.67.22l5.74,3.3-5.44,3L32.6.54l-1.79,1,1.72,3.19L63.37,22.47l23.41-13a.84.84,0,0,0,.55,0C87.54,9.36,87.4,9.09,87,8.88ZM53.34,14.64l1.35.77.46-.25-1.36-.77a3,3,0,0,1,1.65.43c.69.39,1,.89.58,1.1a2.45,2.45,0,0,1-2-.35C53.53,15.26,53.25,14.88,53.34,14.64Z" transform="translate(82.21 56.29)"/><path class="cls-7" d="M111.88,10.43A149.4,149.4,0,0,1,68.87-6C58.45-12,50.12-18.61,44.58-25.11l-.65.16A78.87,78.87,0,0,0,57.15-13L50.78-9.49l-8.41-2.87L33-17.77a.79.79,0,0,0-.39-.38,1.31,1.31,0,0,0-1-.19c-.2.11-.06.38.31.6a1.82,1.82,0,0,0,.67.22L42-12.06l9.32,3.21,6.56-3.64c.74.53,1.5,1.07,2.28,1.59L52.48-6.63,44.1-9.57,25.53-20.25l-.62.16,14.62,8.41-3.45-.44-6.53-3.76a.8.8,0,0,0-.38-.38,1.32,1.32,0,0,0-1.05-.19c-.2.12-.06.38.32.6a1.56,1.56,0,0,0,.66.22l6.93,4,4.59.58,3.12,1.8L53-6l7.91-4.4c1.8,1.2,3.66,2.38,5.6,3.54l-10.75,6a.83.83,0,0,0-.55,0c-.21.11-.07.38.32.6a1.34,1.34,0,0,0,1.05.18c.11-.06.1-.18,0-.31l10.76-6,1,.6c.49.29,1,.56,1.49.84l-14.33,8a.83.83,0,0,0-.55,0c-.2.11-.06.38.32.6a1.29,1.29,0,0,0,1.06.18c.11-.06.11-.18,0-.31L70.75-4.42Q73.81-2.74,77-1.2l-3,1.7a3.89,3.89,0,0,0-3-.45c-.63.35-.2,1.18,1,1.84s2.62.93,3.25.58.3-.89-.42-1.47L77.9-.75c.85.41,1.7.81,2.56,1.2L74.1,4,63.8,2.15,54.87,7.1a.84.84,0,0,0-.55,0c-.2.11-.06.38.31.59a1.31,1.31,0,0,0,1.06.19c.12-.06.11-.18,0-.31l8.75-4.85,10.3,1.84L81.4.88c.88.4,1.76.78,2.65,1.16l-8.6,4.77L65.69,5.07l-10.83,6a.8.8,0,0,0-.54,0c-.21.11-.07.38.31.6a1.31,1.31,0,0,0,1,.18c.12-.06.11-.18,0-.3L66.33,5.66,76.1,7.4,85,2.45a149.74,149.74,0,0,0,26.05,8.27l-5,2.81-5.91-1-4.65,2.58a3.91,3.91,0,0,0-3-.47c-.63.35-.19,1.18,1,1.85s2.6.92,3.24.57.31-.87-.39-1.44l4.51-2.5,4.59.77-12,6.66-6.3-1-4.32,2.4a3.71,3.71,0,0,0-2.82-.37c-.63.35-.2,1.18,1,1.84s2.62.93,3.24.58.28-1-.54-1.57l4.14-2.3,5,.8-23,12.78-.16,0-42-24.14c.32-.4-.14-1.11-1.15-1.69a4.08,4.08,0,0,0-3.24-.58c-.62.35-.2,1.17,1,1.84a4.65,4.65,0,0,0,3,.68l42,24.14a.79.79,0,0,0,.39.38,1.29,1.29,0,0,0,1,.19c.12-.07.12-.18,0-.31l42.4-23.53ZM74.32,2a2.45,2.45,0,0,1-1.95-.35c-.7-.4-1-.89-.58-1.1a2.19,2.19,0,0,1,1.69.21l-.67.37.84.48.6-.33C74.53,1.56,74.58,1.84,74.32,2Zm21.5,14.59a2.45,2.45,0,0,1-1.95-.35c-.69-.4-1-.89-.58-1.1a2.27,2.27,0,0,1,1.73.23l-.68.37.84.49.59-.33C96,16.17,96.07,16.44,95.82,16.58ZM83.28,23.51a2.47,2.47,0,0,1-1.94-.35c-.7-.4-1-.89-.58-1.1a2,2,0,0,1,1.51.14l-.87.48.84.48.86-.48C83.48,23,83.57,23.34,83.28,23.51ZM26.68,9,26,8.65a.73.73,0,0,0-.37-.38,1.3,1.3,0,0,0-1.06-.19c-.2.11-.06.38.31.59a1.73,1.73,0,0,0,.67.23l.66.38a3.1,3.1,0,0,1-1.64-.43c-.69-.4-.95-.9-.58-1.1A2.44,2.44,0,0,1,26,8.09C26.49,8.41,26.77,8.78,26.68,9Z" transform="translate(82.21 56.29)"/><path class="cls-7" d="M126.4-37.92C99.6-53.33,66.54-60.06,49.2-54.18l.42.63c17-6,49.77.61,76.33,15.89C154.57-21.2,165.25-.82,149.77,7.78S98.39,10,69.77-6.5c-10.51-6-18.6-12.62-23.86-18.95l-.64.16c5.35,6.36,13.48,13,24,19C98.4,10.49,134.87,17,150.6,8.26c.27-.15.51-.31.76-.46L155.44,16,128.64,30.9,108.26,19.18,83,33.18a.87.87,0,0,0-.54,0c-.21.12-.07.38.31.6a1.32,1.32,0,0,0,1,.19c.12-.07.11-.19,0-.31l24.8-13.76L129,31.64l27.44-15.23-4.47-9C165.64-1.76,154.58-21.71,126.4-37.92Z" transform="translate(82.21 56.29)"/><path class="cls-7" d="M97.45,10.68a1.24,1.24,0,0,0-1-.18c-.13.06-.12.17,0,.3L66,27.68,33.29,8.89a.8.8,0,0,0-.38-.38,1.34,1.34,0,0,0-1.06-.19c-.2.11-.06.38.32.6a1.9,1.9,0,0,0,.66.22L66.35,28.42,97.22,11.28a.84.84,0,0,0,.55,0C98,11.17,97.83,10.9,97.45,10.68Z" transform="translate(82.21 56.29)"/><path class="cls-7" d="M92.31,9.74a1.28,1.28,0,0,0-1-.19c-.12.06-.11.18,0,.31L64.42,24.74,29.29,4.53c.33-.4-.13-1.1-1.15-1.69s-2.61-.92-3.24-.58-.19,1.18,1,1.85a4.71,4.71,0,0,0,3,.68l36,20.69L92.08,10.34a.8.8,0,0,0,.54,0C92.83,10.22,92.69,10,92.31,9.74ZM28.41,4l-.65-.38a.8.8,0,0,0-.38-.38,1.34,1.34,0,0,0-1.06-.19c-.2.12-.06.38.32.6a1.71,1.71,0,0,0,.67.22l.65.38a2.89,2.89,0,0,1-1.63-.43c-.7-.4-1-.89-.58-1.1a2.43,2.43,0,0,1,1.94.35C28.24,3.41,28.5,3.78,28.41,4Z" transform="translate(82.21 56.29)"/><path class="cls-7" d="M-53.77,3.82a4.71,4.71,0,0,0-3-.68l-2.84-1.63-.62.16,3,1.73c-.32.4.13,1.1,1.15,1.68s2.61.93,3.24.58S-52.61,4.49-53.77,3.82Zm.13,1.36a2.42,2.42,0,0,1-1.94-.35c-.55-.31-.83-.68-.73-.93l.66.38a.8.8,0,0,0,.38.38,1.31,1.31,0,0,0,1.05.19c.21-.12.06-.38-.31-.6A1.82,1.82,0,0,0-55.2,4l-.66-.38a2.94,2.94,0,0,1,1.64.43C-53.52,4.48-53.26,5-53.64,5.18Z" transform="translate(82.21 56.29)"/><path class="cls-7" d="M50.84,32.23c.32-.4-.14-1.1-1.16-1.69s-2.6-.92-3.23-.57-.2,1.17,1,1.83a4.68,4.68,0,0,0,3,.69l7.45,4.28,2.94,5.61-30.61,17L7.43,46.29,4.57,40.84,26.68,28.58-28.14-2.95l-1.63-3.16-.74.19,1.56,3L25.38,28.35,3.55,40.47l2.69,5.14L-3.3,40.12l-3.2-5.37,16.59-9.21L7.7,19.45-33.19-4.08l-.55-1-.72.19L-34-4,6.86,19.48l2.23,5.67L6.28,26.71l-1.11-2.1c.09-.13,0-.35-.36-.53a1.34,1.34,0,0,0-1.06-.19c-.2.11,0,.38.32.6l.28.13,1.28,2.45L.77,29.76l-1-1.91.06,0c.2-.11.06-.38-.31-.59a1.28,1.28,0,0,0-1-.19c-.21.11-.07.38.31.6l.08,0L.13,30.12-4.71,32.8l-1-1.87.05,0c.21-.11.06-.38-.31-.59A1.3,1.3,0,0,0-7,30.13c-.2.11-.06.38.32.59l.08,0,1.26,2.4-2.19,1.22,3,5-8.4-4.83-2.84-5.41L-1.06,21l-1.78-3.39L-33.94-.28c.33-.4-.12-1.11-1.14-1.69s-2.61-.93-3.24-.58-.19,1.17,1,1.84a4.65,4.65,0,0,0,3,.68L-12,12.83l-6.64-2.23-7.61-4.38c.33-.4-.13-1.1-1.15-1.69S-30,3.6-30.68,4s-.19,1.18,1,1.84a4.59,4.59,0,0,0,3,.68L-18.93,11l8.79,3,5,2.88-15.43-4.93-6.09-3.5A.79.79,0,0,0-27,8a1.31,1.31,0,0,0-1.05-.19c-.2.11-.06.38.32.6a1.72,1.72,0,0,0,.66.22l6.31,3.63,17.2,5.5,1.51,2.87-14.72,8.17,2.67,5.1-5.56-3.2L-23,25.24-11.72,19l-8.45-4.86c.33-.4-.13-1.1-1.14-1.69-1.16-.66-2.62-.93-3.24-.58s-.2,1.18,1,1.84a4.61,4.61,0,0,0,3,.68L-13,18.73l-11.07,6.14L-21,30-42.38,17.65l3.89.69,1.13.65c-.33.4.14,1.11,1.16,1.69s2.6.92,3.23.57.2-1.17-1-1.83a4.56,4.56,0,0,0-3-.68l-1.48-.85L-43.56,17l-9-5.2,4.43,1,.84.48c-.32.4.14,1.1,1.15,1.69s2.61.92,3.24.58.19-1.18-1-1.85a4.62,4.62,0,0,0-3-.67L-48,12.34-53.94,11l-2.72-1.56-3.09-5.89-2.39-1.38-.62.16,2.2,1.27,3.09,5.89,88,50.63L61.8,42.76l-3.17-6Zm-.88-.5-.65-.38a.89.89,0,0,0-.39-.38,1.32,1.32,0,0,0-1.05-.19c-.21.12-.07.38.31.6a1.76,1.76,0,0,0,.67.22l.65.38a2.91,2.91,0,0,1-1.63-.43c-.7-.4-1-.89-.58-1.1a2.43,2.43,0,0,1,1.94.35C49.78,31.11,50.05,31.48,50,31.73ZM-34.81-.78-36-1.46l-.46.25,1.18.67A3,3,0,0,1-36.89-1c-.7-.4-1-.9-.59-1.11a2.45,2.45,0,0,1,1.95.35C-35-1.4-34.71-1-34.81-.78Zm7.65,6.49-.66-.37A.79.79,0,0,0-28.21,5a1.25,1.25,0,0,0-1-.19c-.21.11-.07.38.31.59a1.73,1.73,0,0,0,.67.23l.65.38a3,3,0,0,1-1.64-.43c-.69-.4-1-.9-.57-1.1a2.42,2.42,0,0,1,1.94.34C-27.34,5.1-27.08,5.47-27.16,5.71Zm5.46,7.51a.76.76,0,0,0-.38-.38,1.32,1.32,0,0,0-1.05-.19c-.2.11-.07.38.31.6a1.76,1.76,0,0,0,.67.22l.66.38a2.94,2.94,0,0,1-1.64-.43c-.7-.4-1-.9-.58-1.1a2.39,2.39,0,0,1,1.94.35c.55.31.82.68.73.93Zm-14.78,6.27.66.38a.8.8,0,0,0,.38.38,1.28,1.28,0,0,0,1,.19c.21-.11.07-.38-.31-.6a1.82,1.82,0,0,0-.67-.22l-.66-.38a2.94,2.94,0,0,1,1.64.43c.7.4,1,.89.58,1.1a2.45,2.45,0,0,1-1.94-.34C-36.3,20.11-36.57,19.74-36.48,19.49Zm-10-5.74.66.38a.72.72,0,0,0,.38.38,1.32,1.32,0,0,0,1.05.19c.21-.12.06-.38-.32-.6a1.72,1.72,0,0,0-.66-.22L-46,13.5a2.94,2.94,0,0,1,1.64.43c.69.4.95.89.58,1.1a2.42,2.42,0,0,1-1.94-.34C-46.28,14.37-46.55,14-46.46,13.75Z" transform="translate(82.21 56.29)"/><path class="cls-7" d="M166.71,37.16,127,14.31a.87.87,0,0,0-.4-.38,1.27,1.27,0,0,0-1-.19c-.2.11-.06.38.32.6a1.76,1.76,0,0,0,.67.22l39.92,23L175,40.38,181.2,44,143.31,65l-5.18-.92L99.74,85.36l1.53,2.94-18,10L67.46,95.47,78.22,116l0,0c-.21.11-.06.38.31.6a1.35,1.35,0,0,0,1,.18c.21-.11.07-.38-.31-.6l-.08,0-10.49-20,15.27,2.72,18.39-10.2-1.55-2.94,38-21.1,5.18.92,38.53-21.38L175.25,40Z" transform="translate(82.21 56.29)"/><path class="cls-7" d="M104.56,106.43l9.34-5.18a3.65,3.65,0,0,0,2.79.34c.63-.34.2-1.17-1-1.84s-2.61-.92-3.24-.57-.28,1,.57,1.58l-9.53,5.29,9.37,17.87,33.64,19.53.46-.25-33.3-19.33Zm8.77-6.77a2.45,2.45,0,0,1,1.94.34c.7.41,1,.9.58,1.11a2,2,0,0,1-1.48-.13l.36-.2a.81.81,0,0,0,.54,0c.12-.07.11-.19,0-.31l.09,0-.85-.48-.08,0a.9.9,0,0,0-.55,0c-.12.07-.11.18,0,.31l-.36.2C113.14,100.17,113,99.82,113.33,99.66Z" transform="translate(82.21 56.29)"/><path class="cls-7" d="M217.44,43.6l.21-7.53,6.19-3.44-.46-.69-6.68,3.71-.11,3.8-5-1-7.44,4.14,1.26,6.89-16.37,9.09,1.26,6.9-6.92,3.84a.83.83,0,0,0-.55,0l0,0-8.69-1.55L180.94,64l-1.25-6.89L196.22,48l1.66-.92-1.27-6.89,23.54-13.07-.46-.69L195.63,39.74l1.26,6.89-1.52.85L192.86,46l1.82-1-51-29.34a.8.8,0,0,0-.38-.38,1.32,1.32,0,0,0-1.05-.19c-.21.11-.07.38.31.6a1.82,1.82,0,0,0,.67.22l50.17,28.86-1.37.76L137.33,14.1c.33-.41-.13-1.11-1.15-1.69s-2.61-.93-3.24-.58-.19,1.17,1,1.84a4.74,4.74,0,0,0,3,.68L191.56,45.8l-39.8,22.08-1,2.42-2.51-.45-1.18.66a2.62,2.62,0,0,0-1.19-1.15c-1.16-.66-2.62-.92-3.24-.58s-.2,1.18,1,1.84a5.69,5.69,0,0,0,2,.7l-1.27.7a2.66,2.66,0,0,0-1.19-1.14c-1.16-.67-2.62-.93-3.24-.58s-.19,1.17,1,1.84a5.64,5.64,0,0,0,2,.69l-1.28.71a2.68,2.68,0,0,0-1.19-1.15c-1.16-.67-2.61-.93-3.24-.58s-.2,1.18,1,1.84a5.74,5.74,0,0,0,2,.7l-1.28.71a2.57,2.57,0,0,0-1.19-1.15c-1.16-.67-2.61-.93-3.24-.58s-.2,1.17,1,1.84a5.53,5.53,0,0,0,2,.69l-1.28.71a2.57,2.57,0,0,0-1.19-1.15c-1.16-.67-2.61-.93-3.24-.58s-.19,1.18,1,1.84a5.94,5.94,0,0,0,2,.7l-1.27.7a2.76,2.76,0,0,0-1.2-1.15c-1.16-.66-2.61-.92-3.24-.58s-.19,1.18,1,1.85a5.6,5.6,0,0,0,2,.69l-12.19,6.76a2.76,2.76,0,0,0-1.2-1.15c-1.16-.66-2.6-.92-3.23-.57s-.2,1.17,1,1.84a5.66,5.66,0,0,0,2,.69l-1.27.71A2.68,2.68,0,0,0,115.82,86c-1.16-.66-2.61-.92-3.24-.58s-.2,1.18,1,1.84a5.69,5.69,0,0,0,2,.7l-1.27.7a2.66,2.66,0,0,0-1.19-1.14c-1.16-.67-2.62-.93-3.25-.58s-.18,1.17,1,1.84a5.64,5.64,0,0,0,2,.69L110,91.06l-.19.1L91.63,101.25l1.46,2.8-15.54-2.77,10,19.13-4.72-.84.27.52,4.73.84.63,1.21.92.16-.64-1.21,12.31,2.2,40.17,23.1.46-.25-40.53-23.31-12.68-2.26L78.73,102l14.63,2.61,9.18,17.51,40.52,23.31.45-.26L103.34,122,94.2,104.58l3-1.66,5.68,10.82h-.06c-.21.11-.06.38.31.6a1.34,1.34,0,0,0,1.06.19c.2-.12.06-.38-.32-.6,0,0,0,0-.08,0l-5.94-11.34,13-7.2a3.7,3.7,0,0,0,2.79.35c.63-.35.2-1.18-1-1.84a5,5,0,0,0-.77-.37l-.94-1.81,4.91.88,34.67-19.24,1-2.41,2.51.45,7.09-3.94a.8.8,0,0,0,.54,0c.12-.06.11-.18,0-.3l4.88-2.72a.92.92,0,0,0,.55,0c.12-.07.11-.19,0-.31l11.71-6.49,1.1,6L152.8,78.7l-7,.09L125.65,90l3.08,5.89L106.9,108l7.82,14.93,7,4,8.54,2.86,20,11.61.46-.25-20.06-11.67-.1-.06L122,126.57l-6.46-3.71-7.59-14.5,21.83-12.11-3.08-5.89,19.86-11,7-.09,5.41-3,7.94,1.42a3.53,3.53,0,0,0,1,.77,4.06,4.06,0,0,0,3.23.58c.63-.35.2-1.18-1-1.84s-2.62-.93-3.24-.58a.49.49,0,0,0-.27.55l-7-1.25,6.63-3.69,7.93,1.42a3.59,3.59,0,0,0,1,.77c1.15.67,2.61.93,3.23.58s.19-1.18-1-1.84-2.62-.93-3.25-.58a.5.5,0,0,0-.27.55l-7-1.25,6.63-3.69,9.6,1.72.07,0a1.28,1.28,0,0,0,1,.19c.12-.06.11-.18,0-.31l3.13-1.73,4.24,2.44c-.32.4.14,1.11,1.15,1.69s2.62.93,3.24.58.19-1.18-1-1.84a4.61,4.61,0,0,0-3-.68l-4.25-2.45,3.48-1.93L190.05,59l1.65-.92,7.93,1.41a3.65,3.65,0,0,0,1,.77c1.16.67,2.62.93,3.25.58s.19-1.17-1-1.83-2.62-.93-3.24-.59a.5.5,0,0,0-.28.55l-7-1.25L199,54l7.93,1.41a3.7,3.7,0,0,0,1,.78c1.16.66,2.62.92,3.24.58s.19-1.18-1-1.84-2.61-.93-3.23-.58a.5.5,0,0,0-.28.55l-7-1.26,6.81-3.77L205.15,43l7.11-3.94,4.32.86-.1,3.64,23.7,13.63-.55-.83Zm-81-30-.66-.38a.9.9,0,0,0-.38-.38,1.34,1.34,0,0,0-1.06-.19c-.2.12-.06.38.32.6a1.78,1.78,0,0,0,.67.23l.66.37a3,3,0,0,1-1.64-.42c-.7-.4-1-.9-.58-1.11a2.47,2.47,0,0,1,1.94.35C136.28,13,136.55,13.35,136.46,13.59ZM110,94.87l-13.17,7.31-3,1.66-1.15-2.21,17.55-9.73.68,1.31a2.34,2.34,0,0,0-1.48.08C108.86,93.59,109.12,94.27,110,94.87Zm2.21,0c.12-.06.11-.18,0-.31l.09,0,.09-.06-.18-.35c.68.4.93.89.56,1.09a2,2,0,0,1-1.48-.13l.36-.19A.8.8,0,0,0,112.19,94.89Zm-1-1.16.19.37a.82.82,0,0,0-.54,0c-.11.07-.11.19,0,.32l-.36.19c-.4-.33-.5-.67-.2-.84A1.51,1.51,0,0,1,111.17,93.73ZM144,70.37c-.69-.4-1-.89-.58-1.1a2.41,2.41,0,0,1,1.94.34c.7.4,1,.9.58,1.11A2.42,2.42,0,0,1,144,70.37Zm-2.73,1.51c-.7-.39-1-.89-.58-1.1a2.42,2.42,0,0,1,1.94.35c.69.4,1,.89.58,1.1A2.42,2.42,0,0,1,141.29,71.88Zm-2.73,1.52c-.7-.4-1-.9-.58-1.11a2.47,2.47,0,0,1,1.94.35c.7.4,1,.9.58,1.11A2.42,2.42,0,0,1,138.56,73.4Zm-2.73,1.51c-.7-.4-1-.89-.58-1.1a2.45,2.45,0,0,1,1.95.35c.69.4,1,.89.57,1.1A2.43,2.43,0,0,1,135.83,74.91Zm-2.73,1.52c-.69-.4-.95-.9-.58-1.11a2.49,2.49,0,0,1,1.95.35c.69.4.95.9.58,1.11A2.45,2.45,0,0,1,133.1,76.43ZM130.37,78c-.69-.41-1-.9-.57-1.11a2.43,2.43,0,0,1,1.94.35c.69.4.95.89.58,1.1A2.48,2.48,0,0,1,130.37,78Zm-13.65,7.56c-.69-.39-1-.89-.57-1.1a2.47,2.47,0,0,1,1.94.35c.7.4,1,.89.58,1.1A2.41,2.41,0,0,1,116.72,85.51ZM114,87c-.69-.4-.95-.89-.57-1.1a2.42,2.42,0,0,1,1.94.34c.69.4,1,.9.58,1.11A2.45,2.45,0,0,1,114,87Zm-2.72,1.51c-.7-.4-1-.89-.58-1.1a2.46,2.46,0,0,1,2,.35c.69.4,1,.89.57,1.1A2.42,2.42,0,0,1,111.27,88.54Zm38.36-15.67L115.19,92l-3.88-.69,37.56-20.85,1.67.3Zm3.77-2.09-1.67-.3.91-2.13,3.51-1.95,3.88.69Zm7.46-4.15a.88.88,0,0,0-.54,0l0,0-3.5-.63,4.81-2.67,3.89.7Zm17.85-9.9L166.32,63.6a.91.91,0,0,0-.55,0l0,0-3.5-.62L192.4,46.28l2.52,1.45Zm-11,20.34a2.46,2.46,0,0,1,2,.35c.69.4.95.89.57,1.1a2.41,2.41,0,0,1-1.94-.34C167.61,77.78,167.35,77.28,167.73,77.07ZM175,73a2.43,2.43,0,0,1,1.94.35c.7.4,1,.9.58,1.1a2.41,2.41,0,0,1-1.94-.34,2.71,2.71,0,0,1-.48-.35l.72.13.07,0a1.28,1.28,0,0,0,1,.19c.21-.11.06-.38-.31-.6a1.31,1.31,0,0,0-1-.18s0,0,0,0l-.72-.13A.29.29,0,0,1,175,73Zm18.15-1.64a.86.86,0,0,0,.38.39,1.34,1.34,0,0,0,1.05.18c.21-.11.07-.38-.31-.6a1.82,1.82,0,0,0-.67-.22l-.65-.38a3.09,3.09,0,0,1,1.63.43c.7.4,1,.89.57,1.1a2.39,2.39,0,0,1-1.93-.34c-.55-.32-.82-.69-.73-.94Zm7.32-12.49a2.45,2.45,0,0,1,1.94.34c.7.4,1,.9.58,1.11a2.43,2.43,0,0,1-1.94-.35C200.37,59.6,200.1,59.11,200.48,58.9Zm7.28-4a2.43,2.43,0,0,1,1.94.35c.7.4,1,.89.58,1.1a2.43,2.43,0,0,1-1.94-.35C207.64,55.56,207.38,55.07,207.76,54.86Z" transform="translate(82.21 56.29)"/><path class="cls-7" d="M232.08,68.91l-.27,4L202,89.38a3.71,3.71,0,0,0-2.79-.35c-.63.35-.2,1.17,1,1.84s2.61.93,3.24.58.28-1-.57-1.59l29.87-16.57.28-4,11.12-6.17-.46-.69ZM202.61,91a2.43,2.43,0,0,1-1.94-.35c-.7-.4-1-.9-.58-1.1a2,2,0,0,1,1.48.12l-.36.2a.84.84,0,0,0-.55,0c-.2.11-.06.38.32.6a1.3,1.3,0,0,0,1.05.18c.12-.06.11-.18,0-.3l.36-.2C202.8,90.46,202.91,90.8,202.61,91Z" transform="translate(82.21 56.29)"/><path class="cls-7" d="M177.79,42.51c-1.16-.67-2.61-.93-3.24-.58-.36.2-.36.57-.08,1L169.3,43,142,58.08l-4.44-.79,0,0a1.33,1.33,0,0,0-1.06-.19c-.11.07-.1.18,0,.31l-4.05,2.25a3.61,3.61,0,0,0-2.79-.35c-.63.35-.19,1.17,1,1.84a6.54,6.54,0,0,0,1.35.56l.82,1.56-10.27,5.7-1.07-2a1.7,1.7,0,0,0,.89-.15c.63-.35.2-1.17-1-1.84s-2.6-.92-3.23-.57-.2,1.17,1,1.84a6,6,0,0,0,1.44.58l1.33,2.54L117,72,116,69.9a1.83,1.83,0,0,0,.93-.14c.63-.35.2-1.18-1-1.84s-2.61-.93-3.24-.58-.19,1.17,1,1.84a6,6,0,0,0,1.4.57l1.34,2.57-1.63.9-4.53-.81L108,68.11a1.72,1.72,0,0,0,.87-.15c.63-.35.2-1.17-1-1.84s-2.62-.93-3.24-.58-.19,1.18,1,1.84a5.73,5.73,0,0,0,1.47.59l2.25,4.28-4.92-.88-16.56,9.2,1.46,2.79L81.58,82a3.63,3.63,0,0,0-.94-.75c-1.16-.66-2.62-.92-3.24-.57s-.2,1.17,1,1.83,2.61.93,3.24.58a.49.49,0,0,0,.27-.57l7.69,1.38,1.35,2.57-8.9,5L66.46,88.62,63,90.57,49.51,82.83l-1.82,1-2.53-1.45,5.47-3L46.42,77l-7.28,4-2.52-1.45,5.46-3-4.2-2.41-3.64,2-2.53-1.46,1.82-1L9.4,59.76-1,57.92l-12.85-7.39,2.29-1.28a3.65,3.65,0,0,0,2.79.34c.64-.34.2-1.17-1-1.83s-2.61-.93-3.23-.58-.29,1,.56,1.59L-14.66,50l-5.88-3.39.48-.26a3.73,3.73,0,0,0,2.8.35c.62-.35.19-1.17-1-1.84s-2.61-.93-3.24-.58-.28,1,.57,1.59l-.48.26-5.92-3.4L-32,33.84l-11.67-6.7c.35-.4-.11-1.12-1.13-1.71s-2.62-.93-3.24-.58-.2,1.18,1,1.84a4.7,4.7,0,0,0,2.94.69l11.33,6.52,4.29,8.18-2.33-1.34L-34,34.82-57.39,21.35l-.88-1.69a1.85,1.85,0,0,0,1-.15c.63-.35.2-1.17-1-1.84s-2.61-.92-3.24-.58-.19,1.18,1,1.84a5.6,5.6,0,0,0,1.35.56l.62,1.18-5.51-3.17-3.38-6.06L-77,6l-.62.16L-72,9.32l-4.09-.73-3.44-2-.62.15,4,2.27,5.39,1,2.59,1.5L-66.85,14l-4.6-.77L-80.68,8a.76.76,0,0,0-.38-.38,1.34,1.34,0,0,0-1.06-.19c-.2.12-.06.38.32.6a1.76,1.76,0,0,0,.67.22l9.58,5.52,5,.83,1.67,3,30.12,17.33L-32,40.06-58.36,24.9l-3.31,1.83-1-1.93h0c.21-.12.07-.39-.31-.61A1.32,1.32,0,0,0-64,24c-.2.11-.06.38.32.6l.08,0,1.29,2.46-3,1.67-2.59-5,.06,0c.2-.11.06-.38-.32-.59a1.28,1.28,0,0,0-1-.19c-.21.11-.07.38.31.6l.08,0L-66,29.11l-3,1.67-2.62-5h0c.21-.12.07-.38-.31-.6a1.32,1.32,0,0,0-1-.19c-.21.11-.06.38.31.6l.08,0,2.9,5.48-.82.45.84.49L-58,25.63-1.07,58.37,9.3,60.22,32.24,73.41l-1.82,1,4.2,2.41,3.64-2,2.52,1.45-5.46,3,4.21,2.42,7.27-4,2.53,1.45-5.46,3,4.2,2.42,1.82-1L62.5,90.82l-3.51,2,4.74,8.71-9.9-1.77-9.74-5.6L41.73,89.6a1.78,1.78,0,0,0,1-.14c.63-.35.19-1.18-1-1.84s-2.6-.93-3.23-.58-.2,1.17,1,1.84a5.77,5.77,0,0,0,1.34.56l2.09,4L34,88.31l-.81-1.56a1.85,1.85,0,0,0,1-.15c.63-.35.2-1.17-1-1.84s-2.62-.93-3.24-.58-.2,1.17,1,1.84a5.44,5.44,0,0,0,1.35.56l.54,1-19-10.91-3.09-5.89L-17.63,54.5c.32-.41-.14-1.11-1.15-1.69s-2.62-.93-3.24-.58-.2,1.17,1,1.84a4.74,4.74,0,0,0,3,.68l28,16.12L13,76.76l40.69,23.4L64,102l5.62,10.33.91.16L60,93.14l7.08-3.93L82.66,92l9.28-5.15L88.86,81,105,72l10.37,1.85,18.38-10.2-.93-1.78a1.67,1.67,0,0,0,1-.15c.55-.3.29-1-.57-1.58l4.05-2.25a.92.92,0,0,0,.55,0s0,0,0,0l4.81.86L170,43.5l5-.06a5.42,5.42,0,0,0,.5.33c1.16.67,2.6.92,3.23.57S179,43.17,177.79,42.51Zm-58.26,23.4c-.7-.4-1-.89-.58-1.1a2.43,2.43,0,0,1,1.94.35c.7.4,1,.89.58,1.1A2.42,2.42,0,0,1,119.53,65.91Zm-5.44,3c-.69-.4-1-.9-.58-1.11a2.45,2.45,0,0,1,1.95.35c.69.4,1,.89.58,1.1A2.44,2.44,0,0,1,114.09,68.93Zm-6.65-1.82c.14-.12,0-.36-.34-.57a1.31,1.31,0,0,0-1-.18c-.21.11-.07.38.31.6l.22.1.21.38a3.22,3.22,0,0,1-.75-.31c-.68-.4-1-.9-.57-1.1a2.41,2.41,0,0,1,1.94.34c.69.4,1,.9.58,1.11a1.24,1.24,0,0,1-.32.08ZM80.76,82.59a2.42,2.42,0,0,1-1.94-.35c-.7-.4-1-.89-.58-1.1a2.42,2.42,0,0,1,1.94.34,2.5,2.5,0,0,1,.45.33l-1.25-.22.28.52,1.27.23A.31.31,0,0,1,80.76,82.59ZM-12.08,47.66a2.43,2.43,0,0,1,1.94.35c.69.4,1,.9.57,1.1A2,2,0,0,1-11,49l.36-.2a.88.88,0,0,0,.54,0c.21-.11.07-.38-.31-.6A1.32,1.32,0,0,0-11.51,48c-.11.06-.1.18,0,.3l-.36.2C-12.28,48.17-12.38,47.83-12.08,47.66Zm-32.43-21-.64-.37a.74.74,0,0,0-.39-.41,1.28,1.28,0,0,0-1.05-.19c-.21.11-.06.38.31.6a2.2,2.2,0,0,0,.62.22l.68.38a3,3,0,0,1-1.61-.43c-.7-.4-1-.9-.58-1.1a2.44,2.44,0,0,1,2,.34C-44.66,26-44.39,26.39-44.51,26.64Zm-14.26-7.93h.06c.2-.12.06-.39-.32-.6a1.31,1.31,0,0,0-1-.19c-.21.11-.06.38.32.6l.07,0,.22.4a3.33,3.33,0,0,1-.61-.27c-.7-.4-1-.89-.58-1.1a2.48,2.48,0,0,1,1.95.34c.69.41,1,.9.57,1.11a1,1,0,0,1-.42.09ZM-20.63,44.8a2.47,2.47,0,0,1,1.94.35c.7.4,1,.9.59,1.11a2.07,2.07,0,0,1-1.49-.13l.36-.2a.84.84,0,0,0,.55,0c.2-.11.06-.38-.32-.6A1.3,1.3,0,0,0-20,45.14c-.12.06-.11.18,0,.31l-.36.19C-20.82,45.31-20.92,45-20.63,44.8ZM41.23,88.66l.05,0c.21-.11.07-.38-.31-.6a1.31,1.31,0,0,0-1-.18c-.21.11-.06.38.31.59l.08,0,.22.41a3.66,3.66,0,0,1-.61-.27c-.7-.41-1-.9-.58-1.11a2.43,2.43,0,0,1,1.94.35c.7.4,1,.89.58,1.1a.84.84,0,0,1-.42.09Zm-60.39-35a.83.83,0,0,0-.39-.38A1.32,1.32,0,0,0-20.6,53c-.21.12-.07.38.31.6a1.84,1.84,0,0,0,.67.23l.66.37a3,3,0,0,1-1.64-.42c-.7-.41-1-.9-.58-1.11a2.42,2.42,0,0,1,1.94.35c.55.31.82.68.73.93ZM32.68,85.8h.06c.21-.12.07-.39-.31-.6A1.3,1.3,0,0,0,31.37,85c-.2.11-.06.38.32.6l.08,0L32,86a3.33,3.33,0,0,1-.61-.27c-.7-.4-1-.9-.58-1.1a2.42,2.42,0,0,1,1.94.34c.7.4,1,.9.58,1.1a1,1,0,0,1-.42.1Zm98.91-25.72a.81.81,0,0,0-.54,0c-.21.12-.06.39.31.6l.08,0,.22.41a3.33,3.33,0,0,1-.61-.27c-.7-.4-1-.9-.58-1.11a2,2,0,0,1,1.48.13ZM133,61.2a.87.87,0,0,1-.42.09l-.21-.41h0c.12-.07.11-.18,0-.31l.36-.2C133.19,60.7,133.29,61,133,61.2Zm44.92-17.34a2.42,2.42,0,0,1-1.94-.35c-.7-.4-1-.89-.59-1.1a2.44,2.44,0,0,1,2,.35C178,43.15,178.29,43.65,177.91,43.86Z" transform="translate(82.21 56.29)"/><path class="cls-7" d="M143.13,27.55a1.72,1.72,0,0,0-.66-.22l-6-3.47-1.54-2.94-4.85-2.79c.33-.39-.12-1.1-1.14-1.68s-2.61-.93-3.24-.58-.19,1.17,1,1.84a4.74,4.74,0,0,0,3,.68L134.09,21l1.55,2.94L142,27.58a.41.41,0,0,0,.05.09l-28.6,15.87-13-7.49-.45.25,13.87,8L142.9,28.16a.91.91,0,0,0,.55,0C143.65,28,143.51,27.77,143.13,27.55Zm-14.6-10.3a.83.83,0,0,0-.39-.38,1.34,1.34,0,0,0-1.06-.19c-.19.12-.06.38.32.6a2.14,2.14,0,0,0,.67.23l.65.37a3,3,0,0,1-1.64-.43c-.69-.39-1-.89-.57-1.1a2.43,2.43,0,0,1,1.94.35c.54.31.82.68.73.93Z" transform="translate(82.21 56.29)"/><path class="cls-7" d="M131.07,125.64l-13.45-7.74-4.51-8.61,25.47-14.14-3.09-5.89,9.71-5.38a3.65,3.65,0,0,0,2.79.34c.63-.34.2-1.17-1-1.84s-2.61-.92-3.24-.57-.29,1,.56,1.58l-9.89,5.49,3.09,5.89-25.47,14.14,4.74,9,13.45,7.74,1.54,2.94,20.35,11.71.45-.26-20-11.5Zm13.56-43.35a2.45,2.45,0,0,1,2,.35c.69.4.95.89.58,1.1a2,2,0,0,1-1.49-.13l.36-.19a.91.91,0,0,0,.55,0c.2-.12.06-.38-.32-.6a1.31,1.31,0,0,0-1-.19c-.11.07-.11.18,0,.31l-.35.2C144.44,82.8,144.34,82.46,144.63,82.29Z" transform="translate(82.21 56.29)"/><path class="cls-7" d="M144.46,98.54l-4,2.19,6.73,3.87-1.37.76-3.37-1.94-2.26,1.27,6.72,3.86-1.37.76-10.08-5.8-2.28,1.26,6.72,3.87-1.36.76-3.36-1.94-4.1,2.27,10.77,6.2,7-.09,2.93,1.69,2.36,4.5a1.76,1.76,0,0,0-1,.15c-.63.35-.2,1.17,1,1.84s2.62.92,3.24.58.2-1.18-1-1.84a5.6,5.6,0,0,0-1.35-.56l-2.09-4,8.55,4.92a.85.85,0,0,0,.38.38,1.31,1.31,0,0,0,1.05.18c.21-.11.07-.38-.31-.59a1.84,1.84,0,0,0-.67-.23l-13.18-7.58-7,.09L132.42,110l3.19-1.76,3.36,1.93,2.27-1.26L134.52,105l1.36-.75,10.09,5.8,2.27-1.27-6.72-3.86,1.36-.76,3.36,1.93,2.28-1.26L141.8,101l3.31-1.85,10,1.78,33.45,19.24.45-.25-33.8-19.44ZM154.68,123l-.05,0c-.21.11-.07.38.31.59a1.32,1.32,0,0,0,1.05.19c.21-.11.07-.38-.31-.6l-.08,0-.22-.4a3.33,3.33,0,0,1,.61.27c.7.4,1,.89.58,1.1a2.45,2.45,0,0,1-1.95-.34c-.69-.4-1-.9-.57-1.11a1,1,0,0,1,.42-.09Z" transform="translate(82.21 56.29)"/><polygon class="cls-7" points="248.12 154.68 231.41 145.07 230.96 145.32 247.87 155.05 256.41 157.9 279.85 171.38 280.31 171.13 256.67 157.54 248.12 154.68"/><path class="cls-7" d="M148.77,107.54l3.36,1.94-9.83,5.45,8.42-.1,16,9.22a.8.8,0,0,0,.38.38,1.34,1.34,0,0,0,1.06.19c.2-.11.06-.38-.32-.6a1.76,1.76,0,0,0-.67-.22l-8.54-4.92,1.83.33a3.69,3.69,0,0,0,1,.77c1.16.67,2.61.93,3.24.58s.19-1.18-1-1.84-2.61-.93-3.23-.58a.49.49,0,0,0-.28.55l-2.75-.49-6.81-3.92-5.59.07,8.36-4.64-3.36-1.93,6.82-3.79,29.84,17.16.46-.25-30.69-17.65Zm12.56,11.08a2.47,2.47,0,0,1,1.94.35c.69.4.95.9.58,1.11a2.5,2.5,0,0,1-1.95-.35,2.3,2.3,0,0,1-.47-.35l.72.13s0,0,.07,0a1.3,1.3,0,0,0,1.05.18c.21-.11.06-.38-.31-.6a1.31,1.31,0,0,0-1.05-.18s0,0,0,0l-.72-.13A.29.29,0,0,1,161.33,118.62Z" transform="translate(82.21 56.29)"/><path class="cls-7" d="M-21.87,46.92a4.71,4.71,0,0,0-3-.68L-53.21,29.92l-5.56-1L-67,33.52l.84.48,8.09-4.49,4.8.86,28,16.12c-.33.4.13,1.11,1.15,1.69s2.61.93,3.24.58S-20.71,47.59-21.87,46.92Zm.12,1.36a2.47,2.47,0,0,1-1.94-.35c-.54-.32-.82-.69-.73-.93l.66.37a.85.85,0,0,0,.38.38,1.34,1.34,0,0,0,1.06.19c.2-.11.06-.38-.31-.59a1.83,1.83,0,0,0-.68-.23l-.65-.38a3,3,0,0,1,1.64.43C-21.63,47.57-21.37,48.06-21.75,48.28Z" transform="translate(82.21 56.29)"/><path class="cls-7" d="M-30.41,44.06a4.67,4.67,0,0,0-3-.68L-51.91,32.72l-7.22,4a.88.88,0,0,0-.56,0c-.2.11-.06.38.32.6a1.32,1.32,0,0,0,1,.19c.12-.07.11-.18,0-.31l6.76-3.75,17.69,10.17c-.32.4.14,1.11,1.15,1.69s2.61.93,3.24.58S-29.25,44.73-30.41,44.06Zm.12,1.36a2.47,2.47,0,0,1-1.94-.35c-.55-.32-.82-.69-.73-.93l.66.37a.86.86,0,0,0,.38.39,1.32,1.32,0,0,0,1.06.18c.2-.11.06-.38-.31-.59a2,2,0,0,0-.68-.23l-.65-.38a3.09,3.09,0,0,1,1.63.43C-30.17,44.71-29.91,45.21-30.29,45.42Z" transform="translate(82.21 56.29)"/><path class="cls-7" d="M173.57,41.06a1.34,1.34,0,0,0-1.06-.19.15.15,0,0,0,0,.07l-6.53.08-9.05,5-10-1.78-10.33-6L118.24,48.5l-4.81-.86L100,39.9,89.24,38,43.57,63.33l3.19,6.1L76.67,86.64a.9.9,0,0,0,.38.38,1.38,1.38,0,0,0,1.06.19c.2-.12.06-.39-.32-.6a1.78,1.78,0,0,0-.67-.23l-6-3.46-.82-1.56a1.89,1.89,0,0,0,1-.15c.63-.35.19-1.17-1-1.84s-2.62-.93-3.24-.58-.2,1.17,1,1.84a5.6,5.6,0,0,0,1.35.56l.54,1L61,77.12l-.82-1.57a1.78,1.78,0,0,0,1-.14c.63-.35.19-1.18-1-1.84S57.6,72.64,57,73s-.19,1.17,1,1.84a5.91,5.91,0,0,0,1.36.56l.54,1-5.54-3.18-3-5.67,7.09-3.94L74,66.42,99.43,52.28l4.8.86,16.26,9.35c-.33.4.13,1.11,1.14,1.69a4.08,4.08,0,0,0,3.24.58c.63-.35.19-1.18-1-1.84a4.61,4.61,0,0,0-3-.68l-16.61-9.55-5.56-1L73.3,65.83,57.76,63.06,50.29,67.2l2.81,5.36-5.53-3.18-3-5.67,45.3-25.14,10,1.78,13.45,7.74,5.57,1,18-10,9.85,5.66,10.74,1.92,9.13-5.08,6.21-.07a1.26,1.26,0,0,0,1,.17C174.08,41.55,173.94,41.28,173.57,41.06Zm-104,39-.91-.16.39.73a3.05,3.05,0,0,1-.61-.27c-.7-.4-1-.89-.58-1.1a2.42,2.42,0,0,1,1.94.34c.7.4,1,.9.58,1.11a1.14,1.14,0,0,1-.42.09Zm-10.08-5.8-.92-.16.39.73a3.66,3.66,0,0,1-.61-.27c-.7-.4-1-.9-.58-1.11a2.47,2.47,0,0,1,1.94.35c.7.4,1,.9.58,1.11a1,1,0,0,1-.41.08Zm62-11.46a2.47,2.47,0,0,1,1.94.35c.7.4,1,.9.58,1.11a2.47,2.47,0,0,1-1.94-.35C121.39,63.53,121.14,63,121.51,62.82Z" transform="translate(82.21 56.29)"/><path class="cls-7" d="M197.56,100.14l-30-17.26L169,82l13.11,2.34a3.65,3.65,0,0,0,1,.77c1.16.67,2.62.93,3.24.58s.2-1.17-1-1.84-2.61-.92-3.24-.57a.48.48,0,0,0-.28.55l-13.49-2.41-2.14,1.19L182.46,92l-7-1.25a3.62,3.62,0,0,0-1-.77c-1.17-.67-2.62-.93-3.25-.58s-.19,1.18,1,1.84,2.62.93,3.25.58a.49.49,0,0,0,.27-.55l7.93,1.42,8.9,5.12-7-1.26a3.69,3.69,0,0,0-1-.77c-1.16-.66-2.61-.92-3.24-.58s-.2,1.18,1,1.84,2.62.93,3.24.58a.46.46,0,0,0,.27-.55l7.94,1.42,3,1.73,3,5.67-7,3.86L173.44,98.6l1.3-.72a.86.86,0,0,0,.56,0c.2-.11.06-.38-.32-.6a1.34,1.34,0,0,0-1.06-.19c-.11.07-.1.19,0,.31l-1.31.73-5.88-3.38L168,94a.83.83,0,0,0,.55,0c.2-.11.06-.38-.31-.59a1.3,1.3,0,0,0-1.06-.19c-.11.06-.1.18,0,.31l-1.32.72L160,90.87l1.31-.73a.84.84,0,0,0,.55,0c.2-.11.06-.38-.31-.59a1.35,1.35,0,0,0-1.06-.19c-.12.07-.11.18,0,.31l-1.31.72-4.24-2.44c.27-.34,0-.91-.76-1.43l11.53-6.4,9.6,1.71.06.05a1.36,1.36,0,0,0,1.07.19c.2-.11.05-.38-.32-.6a1.34,1.34,0,0,0-1.06-.19l0,0-10-1.78L153.31,86a3.65,3.65,0,0,0-2.79-.34c-.63.34-.2,1.17,1,1.84a4.67,4.67,0,0,0,2.95.68l45,25.89.46-.26-6.3-3.62,7.14-4ZM183,83.8a2.42,2.42,0,0,1,1.94.35c.7.39.95.89.57,1.1a2.41,2.41,0,0,1-1.93-.35C182.88,84.5,182.62,84,183,83.8Zm-8.39,7.51a2.45,2.45,0,0,1-2-.35c-.69-.4-.95-.9-.58-1.1a2.44,2.44,0,0,1,1.95.34,2.29,2.29,0,0,1,.46.35l-.71-.13-.07,0a1.31,1.31,0,0,0-1.05-.19c-.2.11-.06.38.32.6A1.3,1.3,0,0,0,174,91s0,0,0,0l.72.13A.3.3,0,0,1,174.61,91.31Zm10.09,5.8a2.45,2.45,0,0,1-1.95-.35c-.69-.4-.95-.89-.58-1.1a2.38,2.38,0,0,1,1.94.35C184.81,96.4,185.07,96.9,184.7,97.11Zm-32.77-9.85c-.69-.4-1-.89-.57-1.1a2,2,0,0,1,1.48.13l-.36.2a.81.81,0,0,0-.54,0c-.21.11-.07.38.31.6a1.76,1.76,0,0,0,.67.22l.65.38A2.94,2.94,0,0,1,151.93,87.26Zm2.1.18-.66-.38a.36.36,0,0,0,0-.09l.35-.2C154,87,154.09,87.26,154,87.44Z" transform="translate(82.21 56.29)"/><path class="cls-7" d="M146.79,48.32c-1.16-.67-2.62-.93-3.24-.58s-.29,1,.56,1.59l-17.93,10-6.67.08-12.17-7L116.79,54l9.09-5,10.37,1.85,3.53-2a3.71,3.71,0,0,0,2.79.35c.63-.35.19-1.18-1-1.85s-2.61-.92-3.23-.57-.29,1,.56,1.58l-3.33,1.86-10.36-1.85-9.1,5.05-10-1.78-5.54-3.19,1.84.33a3.53,3.53,0,0,0,1,.77c1.15.66,2.61.93,3.24.58s.19-1.18-1-1.84-2.61-.93-3.23-.58a.49.49,0,0,0-.28.55l-2.75-.49-3.36-1.93-5.57-1L83,49,84.58,52,68.39,61,58,59.1,46.93,65.26,48.35,68H48.3c-.21.12-.07.38.31.6a1.32,1.32,0,0,0,1,.19c.21-.11.07-.38-.31-.6l-.08,0L48,65.64l10.72-6,10.37,1.85,16.56-9.19-1.54-3,7.09-3.93,4.8.86,23.62,13.58,7.33-.09,18.05-10a3.71,3.71,0,0,0,2.79.35C148.39,49.81,148,49,146.79,48.32Zm-7.58-1a2.42,2.42,0,0,1,1.94.35c.7.4,1,.89.58,1.1a2.42,2.42,0,0,1-1.94-.34C139.1,48,138.83,47.51,139.21,47.3Zm-35.91.93a2.43,2.43,0,0,1,1.94.35c.7.4,1,.89.58,1.1a2.44,2.44,0,0,1-1.95-.34,2.3,2.3,0,0,1-.47-.35l.72.13.07,0a1.31,1.31,0,0,0,1,.19c.2-.11.06-.38-.31-.6a1.31,1.31,0,0,0-1.05-.18s0,0,0,0l-.72-.13A.29.29,0,0,1,103.3,48.23Zm43.61,1.45a2.47,2.47,0,0,1-1.94-.35c-.7-.4-.95-.89-.58-1.11a2.47,2.47,0,0,1,1.94.35C147,49,147.29,49.47,146.91,49.68Z" transform="translate(82.21 56.29)"/><path class="cls-7" d="M131.32,25c.33-.4-.13-1.1-1.15-1.69a4.1,4.1,0,0,0-3.23-.58c-.63.35-.2,1.18,1,1.84a4.59,4.59,0,0,0,3,.68l4.24,2.44-8.58,4.77a.83.83,0,0,0-.55,0s0,0,0,0l-4.8-.86-9,5-2.64-1.51,1.63-3.87a3,3,0,0,0,2,.07c.63-.35.2-1.18-1-1.85s-2.6-.92-3.23-.57-.2,1.17,1,1.84l.26.13L108.49,35l3.25,1.87-2.3,1.27a3.71,3.71,0,0,0-2.79-.35c-.63.35-.2,1.18,1,1.84s2.61.93,3.24.58.28-1-.57-1.59l11.53-6.39,4.42.79.06,0a1.3,1.3,0,0,0,1.06.19c.11-.07.11-.18,0-.31l9-5Zm-1-.33a2.42,2.42,0,0,1-1.94-.35c-.7-.4-1-.89-.59-1.1a2.48,2.48,0,0,1,2,.34C130.41,24,130.68,24.49,130.3,24.7Zm-20.44,4.69a2.42,2.42,0,0,1,1.94.35c.69.4,1,.89.58,1.1a1.59,1.59,0,0,1-1,0l.14-.31a.59.59,0,0,0,.31,0c.21-.11.07-.38-.31-.6a1.32,1.32,0,0,0-1-.19c-.16.09-.1.28.11.45l-.14.31C109.74,30.08,109.49,29.6,109.86,29.39ZM110,39.76a2.42,2.42,0,0,1-1.94-.35c-.7-.4-1-.89-.58-1.1a2.43,2.43,0,0,1,1.93.34C110.13,39.06,110.38,39.55,110,39.76Z" transform="translate(82.21 56.29)"/><polygon class="cls-7" points="313.16 103.8 313.5 100.27 313.66 100.36 313.11 99.53 306.82 95.91 307.09 92.15 307.9 91.7 307.44 91 306.14 91.72 305.85 95.87 312.57 99.73 312.18 103.75 318.24 107.23 317.68 106.4 313.16 103.8"/><path class="cls-7" d="M238.8,72.78l-.27,4-31,17.19,3.08,5.88-8.45,4.7-2.81-5.37L196,97.2l-1.31-2.51.05,0c.21-.11.07-.38-.31-.6a1.38,1.38,0,0,0-1.06-.19c-.2.12-.06.39.32.6l.08,0,1.05,2-8.9-5.11-1.32-2.52h.06c.2-.11.06-.38-.32-.6a1.26,1.26,0,0,0-1-.18c-.21.11-.06.37.31.59l.08,0,1.05,2-11.42-6.57,3.49.63a.05.05,0,0,1,0,0,1.28,1.28,0,0,0,1.05.19c.21-.11.07-.38-.31-.6a1.36,1.36,0,0,0-1.05-.19s0,0,0,0l-5.66-1,27.73,16,4.52,8.62-5.59,3.1,3.78,2.18.46-.26-3-1.69,5.33-2.95-1.54-3,9.09-5-3.08-5.88,30.89-17.14.27-4,8.1-4.49-.46-.69Z" transform="translate(82.21 56.29)"/><polygon class="cls-7" points="329.15 139.75 318.79 137.9 294.95 151.13 298.03 157.02 288.8 162.14 292.58 164.32 293.04 164.06 290.1 162.37 299.06 157.4 295.98 151.51 319.44 138.49 329.81 140.34 337.44 136.1 336.98 135.41 329.15 139.75"/><path class="cls-7" d="M102.69,53.79c-1.16-.66-2.61-.92-3.24-.57s-.29,1,.57,1.58L85.43,62.89l10.34,6,1.43,2.72L85.67,78a3.71,3.71,0,0,0-2.79-.35c-.63.35-.19,1.18,1,1.84s2.6.93,3.23.58.29-1-.56-1.58l11.71-6.51-1.66-3.16-9.84-5.66,14.13-7.83a3.65,3.65,0,0,0,2.79.34C104.28,55.29,103.84,54.46,102.69,53.79ZM86.24,79.55a2.47,2.47,0,0,1-1.94-.35c-.7-.4-1-.9-.58-1.11a2.06,2.06,0,0,1,1.48.14l-.36.19a.8.8,0,0,0-.54,0c-.21.11-.06.38.31.6a1.31,1.31,0,0,0,1,.18c.12-.06.11-.18,0-.31l.36-.19C86.43,79,86.54,79.38,86.24,79.55Zm16.57-24.4a2.43,2.43,0,0,1-1.94-.35c-.7-.4-1-.89-.58-1.1a2.43,2.43,0,0,1,1.94.35C102.93,54.45,103.18,54.94,102.81,55.15Z" transform="translate(82.21 56.29)"/><path class="cls-7" d="M121.41,82.91a1.3,1.3,0,0,0-1-.18c-.2.11-.06.38.32.59a1.28,1.28,0,0,0,1,.19C121.93,83.4,121.79,83.13,121.41,82.91Z" transform="translate(82.21 56.29)"/><path class="cls-7" d="M123.23,81.9a1.28,1.28,0,0,0-1-.18c-.21.11-.07.38.31.6a1.3,1.3,0,0,0,1,.18C123.76,82.39,123.61,82.12,123.23,81.9Z" transform="translate(82.21 56.29)"/><path class="cls-7" d="M125.06,80.89a1.32,1.32,0,0,0-1.06-.18c-.2.11-.06.38.31.59a1.34,1.34,0,0,0,1.06.19C125.57,81.38,125.43,81.11,125.06,80.89Z" transform="translate(82.21 56.29)"/><path class="cls-7" d="M126.87,79.88a1.28,1.28,0,0,0-1-.18c-.21.11-.07.38.31.59a1.25,1.25,0,0,0,1,.19C127.4,80.37,127.26,80.1,126.87,79.88Z" transform="translate(82.21 56.29)"/><path class="cls-7" d="M128.61,78.92a1.31,1.31,0,0,0-1.05-.19c-.21.11-.07.38.31.6a1.34,1.34,0,0,0,1.06.19C129.13,79.4,129,79.14,128.61,78.92Z" transform="translate(82.21 56.29)"/><path class="cls-7" d="M-24.38-4.95-25.53-7.2l-.73.19,1.07,2.11L38.27,31.6l-23,12.75a.81.81,0,0,0-.54,0c-.21.11-.07.37.31.59a1.28,1.28,0,0,0,1.05.19c.12-.06.11-.18,0-.3l23.43-13Z" transform="translate(82.21 56.29)"/><path class="cls-7" d="M41.74,27.06-20.19-8.56l-.62.16L40.94,27.12l2.85,5.45L15,48.54a.82.82,0,0,0-.54,0c-.21.11-.06.38.31.6a1.34,1.34,0,0,0,1.06.19c.11-.07.11-.18,0-.31L44.82,33Z" transform="translate(82.21 56.29)"/><polygon class="cls-7" points="105.86 109.01 108.59 110.58 109.05 110.33 106.31 108.75 105.86 109.01"/><polygon class="cls-7" points="108.49 107.54 111.23 109.12 111.68 108.87 108.95 107.3 108.49 107.54"/><polygon class="cls-7" points="111.13 106.08 113.87 107.66 114.32 107.41 111.59 105.83 111.13 106.08"/><polygon class="cls-7" points="113.77 104.62 116.51 106.19 116.96 105.94 114.22 104.37 113.77 104.62"/><polygon class="cls-7" points="116.41 103.16 119.14 104.73 119.6 104.48 116.86 102.9 116.41 103.16"/><polygon class="cls-7" points="119.04 101.69 121.78 103.27 122.23 103.01 119.5 101.44 119.04 101.69"/><polygon class="cls-7" points="121.68 100.23 124.42 101.8 124.87 101.55 122.13 99.97 121.68 100.23"/><polygon class="cls-7" points="124.32 98.76 127.05 100.34 127.51 100.09 124.78 98.51 124.32 98.76"/><polygon class="cls-7" points="126.95 97.3 129.69 98.87 130.15 98.62 127.41 97.05 126.95 97.3"/><polygon class="cls-7" points="129.6 95.84 132.32 97.41 132.78 97.16 130.04 95.58 129.6 95.84"/><polygon class="cls-7" points="132.23 94.37 134.97 95.95 135.42 95.69 132.69 94.12 132.23 94.37"/><polygon class="cls-7" points="134.87 92.91 137.6 94.48 138.06 94.23 135.32 92.66 134.87 92.91"/><path class="cls-7" d="M224.09,49.48c.19-.41-.26-1.06-1.2-1.59-1.16-.67-2.61-.93-3.24-.58s-.19,1.17,1,1.84a4.39,4.39,0,0,0,3.1.63l14.55,8.37,1.33,2.79-10.88,6-.28,4L202.33,85.42a3.86,3.86,0,0,0-3-.43c-.63.35-.2,1.17,1,1.84a4.08,4.08,0,0,0,3.24.58c.52-.29.3-.9-.44-1.48l26.26-14.58.27-3.95,11-6.08-1.54-3.22Zm-2-1.15-.45.25,1.24.71a2.73,2.73,0,0,1-1.81-.39c-.69-.4-.95-.9-.58-1.11a2.45,2.45,0,0,1,1.95.35c.46.27.72.57.73.81ZM202.73,86.92a2.45,2.45,0,0,1-1.94-.34c-.7-.4-1-.9-.58-1.11a2.21,2.21,0,0,1,1.66.21l-.32.18a1.13,1.13,0,0,0-.77-.06c-.2.12-.07.38.31.6a1.34,1.34,0,0,0,1.06.19.15.15,0,0,0,.08-.16l.42-.24C202.94,86.49,203,86.78,202.73,86.92Z" transform="translate(82.21 56.29)"/><path class="cls-7" d="M228.73,93.33a1.36,1.36,0,0,0-1-.19c-.21.12-.06.39.31.6a1.31,1.31,0,0,0,1,.19C229.25,93.82,229.11,93.55,228.73,93.33Z" transform="translate(82.21 56.29)"/><path class="cls-7" d="M230.55,92.32a1.34,1.34,0,0,0-1.06-.19c-.2.12-.06.39.32.6a1.32,1.32,0,0,0,1.05.19C231.06,92.81,230.93,92.54,230.55,92.32Z" transform="translate(82.21 56.29)"/><path class="cls-7" d="M164.83,102.9a4.66,4.66,0,0,0-3-.67l-4.24-2.45,2.29-1.27a3.73,3.73,0,0,0,2.8.35c.62-.35.2-1.17-1-1.84s-2.62-.93-3.24-.58-.28,1,.56,1.59l-2.29,1.27-5.89-3.38.48-.27a3.73,3.73,0,0,0,2.8.35c.62-.35.19-1.17-1-1.84s-2.61-.93-3.24-.58-.28,1,.57,1.59l-.48.26-3.36-1.93L120.9,107.81l3.19,6.1,13.45,7.74,3.09,5.89,17.15,9.69.43-.26-9.74-5.51,6.7-3.72a.84.84,0,0,0,.55,0c.2-.11.06-.38-.32-.6a1.31,1.31,0,0,0-1.05-.18c-.11.06-.11.18,0,.31L147.62,131l-6.19-3.5-3.08-5.88-3.12-1.79,2.3-1.28a3.71,3.71,0,0,0,2.79.35c.63-.35.2-1.17-1-1.84a4.08,4.08,0,0,0-3.24-.58c-.55.31-.29,1,.57,1.59l-2.3,1.27-9.49-5.46-3-5.67,25.14-14,14.34,8.25c-.33.4.13,1.1,1.15,1.69a4.12,4.12,0,0,0,3.24.58C166.42,104.4,166,103.57,164.83,102.9Zm-5.49-6a2.44,2.44,0,0,1,1.95.35c.69.4,1,.9.58,1.1a2.06,2.06,0,0,1-1.49-.12l.36-.2a.83.83,0,0,0,.55,0c.21-.11.07-.38-.31-.59a1.3,1.3,0,0,0-1.06-.19c-.11.06-.1.18,0,.31l-.37.19C159.15,97.43,159.05,97.09,159.34,96.92ZM137,117a2.44,2.44,0,0,1,1.95.34c.69.4,1,.9.57,1.11a2,2,0,0,1-1.48-.13l.64-.36-.84-.48-.64.35C136.77,117.45,136.66,117.11,137,117ZM150.8,94.06a2.49,2.49,0,0,1,1.95.35c.69.4.95.89.58,1.11a2,2,0,0,1-1.48-.13l.63-.36-.83-.48-.65.35C150.61,94.57,150.51,94.23,150.8,94.06ZM165,104.26a2.44,2.44,0,0,1-2-.34c-.55-.32-.82-.69-.73-.94l.66.38a.8.8,0,0,0,.38.38,1.34,1.34,0,0,0,1.06.19c.2-.11.06-.38-.31-.6a1.81,1.81,0,0,0-.68-.22l-.65-.38a2.89,2.89,0,0,1,1.63.43C165.07,103.56,165.33,104.05,165,104.26Z" transform="translate(82.21 56.29)"/><path class="cls-7" d="M105.67,117.5l0,0c.21-.11.06-.38-.31-.6a1.38,1.38,0,0,0-1.06-.19c-.2.12-.06.39.32.6a.2.2,0,0,0,.08,0l3,5.67,37.16,21.38.46-.26L108.52,123Z" transform="translate(82.21 56.29)"/><path class="cls-7" d="M119.8,135.6l-13-7.48a.81.81,0,0,0-.38-.39,1.32,1.32,0,0,0-1.06-.18c-.2.11-.06.38.32.59a1.8,1.8,0,0,0,.66.23l12.83,7.37,4.9,4.88,13.55,7.79.46-.25-13.35-7.68Z" transform="translate(82.21 56.29)"/><path class="cls-7" d="M-26.59,30.75l-21.56-12.4c.32-.4-.13-1.1-1.15-1.69s-2.62-.93-3.24-.58-.19,1.18,1,1.84a4.6,4.6,0,0,0,3,.68l20.71,11.92-2,1.09L14.22,57l-1.41.79L-.67,55.36a3.66,3.66,0,0,0-.9-.71c-1.16-.66-2.61-.92-3.24-.58s-.2,1.18,1,1.85,2.6.92,3.23.57a.49.49,0,0,0,.26-.61l13.81,2.47,2.06-1.15L-28.56,31.84ZM-49,17.85l-.65-.38a.79.79,0,0,0-.39-.38,1.31,1.31,0,0,0-1-.19c-.2.11-.06.38.31.6a1.88,1.88,0,0,0,.67.22l.66.38a2.94,2.94,0,0,1-1.64-.43c-.69-.4-1-.9-.58-1.1a2.41,2.41,0,0,1,1.94.34C-49.2,17.23-48.94,17.6-49,17.85ZM-1.45,56a2.43,2.43,0,0,1-1.94-.35c-.69-.4-1-.89-.57-1.1A2.43,2.43,0,0,1-2,54.91a3.29,3.29,0,0,1,.39.27L-2.41,55a1.32,1.32,0,0,0-1-.15c-.2.11-.06.38.31.6A1.34,1.34,0,0,0-2,55.68.16.16,0,0,0-2,55.6l.68.12A.28.28,0,0,1-1.45,56Z" transform="translate(82.21 56.29)"/><path class="cls-7" d="M-57.72,9.82c-1.16-.67-2.62-.93-3.24-.58a.5.5,0,0,0-.27.57L-64,9.31l-8-4.62-.62.16,8.54,4.91,3.19.57a3.63,3.63,0,0,0,.94.75,4.1,4.1,0,0,0,3.25.58C-56.14,11.31-56.57,10.48-57.72,9.82Zm.12,1.35a2.42,2.42,0,0,1-1.94-.34A2.19,2.19,0,0,1-60,10.5l.73.13,0,0a1.32,1.32,0,0,0,1,.19c.21-.11.07-.38-.31-.6a1.31,1.31,0,0,0-1-.18s0,0,0,0l-.7-.12a.29.29,0,0,1,.16-.26,2.43,2.43,0,0,1,1.94.35C-57.48,10.47-57.22,11-57.6,11.17Z" transform="translate(82.21 56.29)"/><path class="cls-7" d="M152.44,30c-1.15-.66-2.61-.92-3.23-.57a.47.47,0,0,0-.28.54l-3.13-.55L115,46.49l-13.2-7.6-3.21-.57-2.12-4,21.87-12.14a.83.83,0,0,0,.55,0c.21-.11.07-.38-.31-.6a1.31,1.31,0,0,0-1-.18c-.12.06-.12.18,0,.3L95.43,33.89l2.24,4.26-3.37-.6-2.12-4,28.73-15.95a.81.81,0,0,0,.54,0c.21-.11.07-.38-.31-.59a1.31,1.31,0,0,0-1-.19c-.12.06-.12.18,0,.31L91.15,33.13l2.23,4.26-7.51-1.34-11,6.09-8.76,1.09L31.25,62.56,54.79,76.1l-1.37.76-76.49-44,1.82-1L-52.11,14.1l-10.36-1.84-12-6.94-.61.16,12.56,7.23,10.36,1.85,29.66,17.06-1.82,1,78.18,45,2.27-1.26L32.54,62.79l34.3-19,8.77-1.09,10.92-6,15.16,2.7,13.7,7.88L146.45,30l2.75.49a3.54,3.54,0,0,0,1,.78c1.15.66,2.61.92,3.24.57S153.6,30.65,152.44,30Zm.13,1.36a2.45,2.45,0,0,1-1.95-.35,2.61,2.61,0,0,1-.47-.35l.72.13.07.05A1.32,1.32,0,0,0,152,31c.21-.12.07-.38-.31-.6a1.34,1.34,0,0,0-1.06-.19l0,0-.72-.13a.29.29,0,0,1,.17-.23,2.43,2.43,0,0,1,1.94.35C152.68,30.63,153,31.13,152.57,31.34Z" transform="translate(82.21 56.29)"/><polygon class="cls-7" points="221.92 95.69 222.27 95.94 223.23 95.7 222.88 95.45 221.92 95.69"/><polygon class="cls-7" points="219.88 94.23 220.23 94.48 221.19 94.25 220.84 93.99 219.88 94.23"/><polygon class="cls-7" points="213.31 90.61 213.75 90.81 214.19 90.27 213.75 90.07 213.31 90.61"/><polygon class="cls-7" points="210.77 89.42 211.21 89.63 211.65 89.09 211.21 88.89 210.77 89.42"/></g><polygon class="cls-4" points="144.82 121.46 190.38 148.02 234.56 122.89 188.67 96.14 144.82 121.46"/><polygon class="cls-8" points="144.82 119.7 190.38 146.26 234.56 121.13 188.67 94.38 144.82 119.7"/><polygon class="cls-4" points="217.25 120.83 219.88 122.36 222.03 121.13 219.39 119.59 217.25 120.83"/><polygon class="cls-4" points="188.26 137.4 190.89 138.93 193.04 137.71 190.4 136.17 188.26 137.4"/><polygon class="cls-4" points="186.4 102.43 189.02 103.96 191.18 102.74 188.53 101.2 186.4 102.43"/><polygon class="cls-4" points="157.65 119.3 160.28 120.83 162.43 119.6 159.79 118.06 157.65 119.3"/><path class="cls-9" d="M65.91,63.42l42.28,24.64L149,64.82,106.46,40ZM108.2,84.6,71.88,63.43l34.57-20L143,64.79Z" transform="translate(82.21 56.29)"/><path class="cls-10" d="M88.62,63.75,107.8,74.93,126.31,64.4,107,53.14Zm19.19,10.31L90.11,63.75,107,54l17.82,10.39Z" transform="translate(82.21 56.29)"/><path class="cls-10" d="M210.07,64.06l-102.92-60a1.27,1.27,0,0,0-1.25,0L5.22,62.22a1.18,1.18,0,0,0-.63,1.07,1.2,1.2,0,0,0,.62,1.08l102.17,59.55a1.14,1.14,0,0,0,.62.17,1.22,1.22,0,0,0,.62-.16L210.05,66.22a1.25,1.25,0,0,0,0-2.16Zm-.31,1.64L108.32,123.41a.66.66,0,0,1-.64,0L5.51,63.86a.62.62,0,0,1-.32-.56.59.59,0,0,1,.33-.56L106.2,4.59a.63.63,0,0,1,.65,0l102.91,60a.58.58,0,0,1,.32.56A.59.59,0,0,1,209.76,65.7Z" transform="translate(82.21 56.29)"/><path id="Rectangle" class="cls-9" d="M96.83,63.43l2-1.08a2,2,0,0,1,1.62,0l2,1c.44.23.43.61,0,.85l-2,1.08a2,2,0,0,1-1.62,0l-2-1C96.37,64,96.38,63.66,96.83,63.43Z" transform="translate(82.21 56.29)"/><path id="Rectangle-2" class="cls-9" d="M101.34,61.05l2-1.08A2,2,0,0,1,105,60l2,1c.44.22.43.6,0,.84l-2,1.08a2,2,0,0,1-1.62,0l-2-1C100.88,61.67,100.89,61.29,101.34,61.05Z" transform="translate(82.21 56.29)"/><path id="Rectangle-3" class="cls-11" d="M101.25,65.7l2-1.08a2,2,0,0,1,1.62,0l2,1c.45.23.44.6,0,.84l-2,1.08a2,2,0,0,1-1.62,0l-2-1C100.79,66.32,100.79,65.94,101.25,65.7Z" transform="translate(82.21 56.29)"/><path id="Rectangle-4" class="cls-12" d="M105.66,68l2-1.08a2,2,0,0,1,1.62,0l2,1c.45.23.44.61,0,.85l-2,1.08a2,2,0,0,1-1.62,0l-2-1C105.2,68.59,105.21,68.21,105.66,68Z" transform="translate(82.21 56.29)"/><path id="Rectangle-5" class="cls-11" d="M105.76,63.33l2-1.08a2,2,0,0,1,1.62,0l2,1c.45.23.44.61,0,.85l-2,1.08a2,2,0,0,1-1.62,0l-2-1C105.3,63.94,105.3,63.56,105.76,63.33Z" transform="translate(82.21 56.29)"/><path id="Rectangle-6" class="cls-9" d="M105.84,58.68l2-1.08a2,2,0,0,1,1.62,0l2,1c.44.23.44.61,0,.85l-2,1.08a2,2,0,0,1-1.62,0l-2-1C105.38,59.29,105.39,58.91,105.84,58.68Z" transform="translate(82.21 56.29)"/></g></g></g></svg>