<svg width="26" height="35" viewBox="0 0 26 35" xmlns="http://www.w3.org/2000/svg" xmlns:xlink="http://www.w3.org/1999/xlink"><defs><path id="a" d="M.107.144h12.095V12.24H.107z"/><path id="c" d="M0 .144h25.802V34.2H0z"/></defs><g fill="none" fill-rule="evenodd" opacity=".5"><g transform="translate(13.6 .056)"><mask id="b" fill="#fff"><use xlink:href="#a"/></mask><path d="M1.553 10.794h8.182L1.553 2.611v8.183zm9.927 1.446H.83a.722.722 0 01-.723-.723V.867A.723.723 0 011.341.356l10.65 10.65a.722.722 0 01-.511 1.234z" fill="#7D7D7D" mask="url(#b)"/></g><g transform="translate(0 .056)"><mask id="d" fill="#fff"><use xlink:href="#c"/></mask><path d="M1.445 32.755h22.912V11.816L14.13 1.59H1.445v31.165zM25.08 34.2H.723A.723.723 0 010 33.477V.867c0-.4.324-.723.723-.723H14.43c.192 0 .376.076.511.212l10.65 10.65a.722.722 0 01.211.511v21.96c0 .4-.323.723-.723.723z" fill="#7D7D7D" mask="url(#d)"/></g><path d="M5.227 26.551a.722.722 0 01-.511-1.234l2.68-2.68a.723.723 0 011.023 0L9.45 23.67l3.373-3.372a.724.724 0 011.022 0l1.318 1.319 2.7-2.7a.722.722 0 111.022 1.022l-3.211 3.21a.721.721 0 01-1.022 0l-1.318-1.318-3.373 3.372a.723.723 0 01-1.022 0L7.908 24.17l-2.17 2.17a.72.72 0 01-.51.211" fill="#7D7D7D"/><path fill="#7D7D7D" d="M19.457 21.404l1.118-4.176-4.176 1.119z"/></g></svg>