<svg width="33" height="37" viewBox="0 0 33 37" xmlns="http://www.w3.org/2000/svg" xmlns:xlink="http://www.w3.org/1999/xlink"><defs><path id="a" d="M.187.066h7.54v7.54H.187z"/></defs><g fill="none" fill-rule="evenodd" opacity=".5"><path d="M16.157 14.804a3.467 3.467 0 00-3.463 3.463 3.467 3.467 0 003.463 3.462 3.466 3.466 0 003.463-3.462 3.467 3.467 0 00-3.463-3.463m0 8.37a4.914 4.914 0 01-4.908-4.907 4.914 4.914 0 014.908-4.909 4.914 4.914 0 014.908 4.909 4.914 4.914 0 01-4.908 4.908" fill="#7D7D7D"/><g transform="translate(12.2 .134)"><mask id="b" fill="#fff"><use xlink:href="#a"/></mask><path d="M3.954 1.511A2.327 2.327 0 001.631 3.84c0 .412.104.798.308 1.147a2.32 2.32 0 004.03.007c.208-.356.312-.742.312-1.154A2.331 2.331 0 003.953 1.51m0 6.096A3.766 3.766 0 01.688 5.71a3.715 3.715 0 01-.501-1.87A3.774 3.774 0 013.954.066 3.778 3.778 0 017.726 3.84c0 .663-.175 1.312-.505 1.877a3.769 3.769 0 01-3.269 1.89" fill="#7D7D7D" mask="url(#b)"/></g><path d="M28.54 8.624c-.877 0-1.667.48-2.064 1.253-.176.333-.263.689-.263 1.068a2.33 2.33 0 002.327 2.328 2.33 2.33 0 002.329-2.328 2.327 2.327 0 00-2.329-2.321m0 6.095a3.778 3.778 0 01-3.772-3.774c0-.617.144-1.202.427-1.737a3.742 3.742 0 013.345-2.03c2.081 0 3.774 1.69 3.774 3.767a3.778 3.778 0 01-3.774 3.774M28.54 23.247a2.33 2.33 0 00-2.327 2.329c0 .379.087.735.259 1.059a2.31 2.31 0 002.068 1.262 2.328 2.328 0 002.329-2.321 2.33 2.33 0 00-2.329-2.329m0 6.096a3.746 3.746 0 01-3.35-2.04 3.658 3.658 0 01-.422-1.727 3.778 3.778 0 013.772-3.774 3.778 3.778 0 013.774 3.774 3.775 3.775 0 01-3.774 3.767M3.773 8.624a2.327 2.327 0 00-2.328 2.321 2.33 2.33 0 002.328 2.328 2.327 2.327 0 002.322-2.328 2.31 2.31 0 00-2.322-2.321m0 6.095A3.778 3.778 0 010 10.945a3.775 3.775 0 017.122-1.731 3.774 3.774 0 01-3.349 5.505M3.773 23.247a2.33 2.33 0 00-2.328 2.329A2.328 2.328 0 005.84 26.64a2.327 2.327 0 00-2.066-3.393m0 6.095A3.775 3.775 0 010 25.576a3.778 3.778 0 013.773-3.774 3.775 3.775 0 013.35 5.503 3.762 3.762 0 01-3.35 2.038M16.154 30.232c-.825 0-1.593.447-2.004 1.167-.21.353-.318.749-.318 1.161a2.327 2.327 0 002.322 2.328 2.33 2.33 0 002.328-2.328c0-.408-.109-.81-.314-1.16a2.33 2.33 0 00-2.014-1.168m0 6.102a3.774 3.774 0 01-3.767-3.774c0-.674.178-1.328.516-1.89a3.753 3.753 0 013.25-1.883 3.78 3.78 0 013.774 3.773 3.778 3.778 0 01-3.773 3.774M8.592 9.052a.722.722 0 01-.362-1.35l2.814-1.624a.724.724 0 01.723 1.252L8.953 8.955a.719.719 0 01-.36.097M3.773 20.69a.722.722 0 01-.722-.724v-3.411a.722.722 0 111.445 0v3.411c0 .4-.323.723-.723.723M11.41 30.544a.719.719 0 01-.361-.097L8.232 28.82a.723.723 0 11.723-1.252l2.817 1.627a.722.722 0 01-.362 1.349M20.904 30.539a.723.723 0 01-.362-1.349l2.817-1.624a.723.723 0 01.723 1.252l-2.817 1.624a.72.72 0 01-.36.097M28.54 20.69a.722.722 0 01-.722-.724v-3.411a.722.722 0 111.445 0v3.411c0 .4-.323.723-.723.723M23.722 9.052a.719.719 0 01-.36-.097L20.546 7.33a.723.723 0 01.722-1.252l2.815 1.625a.722.722 0 01-.362 1.349M16.156 12.685a.723.723 0 01-.722-.722l-.002-2.825a.723.723 0 111.445-.001l.002 2.824c0 .4-.323.724-.722.724z" fill="#7D7D7D"/><path d="M16.154 30.232a.722.722 0 01-.723-.723v-6.558a.722.722 0 111.445 0v6.558c0 .4-.323.723-.723.723M24.298 23.108a.717.717 0 01-.325-.078l-2.521-1.275a.723.723 0 11.651-1.29l2.522 1.275a.723.723 0 01-.327 1.368M10.218 15.98a.718.718 0 01-.326-.078l-2.34-1.185a.723.723 0 01.651-1.29l2.341 1.185a.723.723 0 01-.326 1.368M21.525 15.687a.722.722 0 01-.38-1.338l2.407-1.48a.722.722 0 11.758 1.23l-2.407 1.48a.72.72 0 01-.378.108M8.25 23.844a.721.721 0 01-.378-1.338l2.235-1.374a.722.722 0 11.756 1.231l-2.235 1.374a.717.717 0 01-.377.107" fill="#7D7D7D"/></g></svg>