<svg width="37" height="32" viewBox="0 0 37 32" xmlns="http://www.w3.org/2000/svg" xmlns:xlink="http://www.w3.org/1999/xlink"><defs><path id="a" d="M.041.107h16.267V13.07H.041z"/><path id="c" d="M0 .045h10.338V8.4H0z"/><path id="e" d="M.098.045h10.338V8.4H.098z"/><path id="g" d="M.195.045h10.338V8.4H.195z"/></defs><g fill="none" fill-rule="evenodd"><g transform="translate(10.6 .093)"><mask id="b" fill="#fff"><use xlink:href="#a"/></mask><path d="M1.487 11.624h13.376v-7.34h-7.17a.721.721 0 01-.577-.287L5.277 1.553h-3.79v10.07zm14.099 1.445H.764a.723.723 0 01-.723-.723V.83c0-.4.324-.723.723-.723h4.874a.72.72 0 01.577.289l1.84 2.444h7.53c.4 0 .723.323.723.722v8.784c0 .4-.323.723-.722.723z" fill="#fff" mask="url(#b)"/></g><path d="M18.775 22.303a.722.722 0 01-.723-.723v-6.347a.722.722 0 111.446 0v6.347a.722.722 0 01-.723.723" fill="#fff"/><path d="M31.672 22.972a.722.722 0 01-.722-.723v-3.12H6.6v3.12a.723.723 0 01-1.446 0v-3.842c0-.4.324-.723.723-.723h25.795c.4 0 .723.324.723.723v3.842a.722.722 0 01-.723.723" fill="#fff"/><g transform="translate(0 23.493)"><mask id="d" fill="#fff"><use xlink:href="#c"/></mask><path d="M1.445 6.955h7.448V3.13H4.88a.723.723 0 01-.578-.288L3.287 1.49H1.445v5.464zM9.615 8.4H.723A.723.723 0 010 7.677V.767C0 .37.324.046.723.046h2.924c.228 0 .441.107.578.289l1.016 1.35h4.374c.4 0 .723.324.723.723v5.27c0 .4-.323.723-.723.723z" fill="#fff" mask="url(#d)"/></g><g transform="translate(12.8 23.493)"><mask id="f" fill="#fff"><use xlink:href="#e"/></mask><path d="M1.543 6.955h7.448V3.13H4.978a.721.721 0 01-.577-.288L3.384 1.49H1.543v5.464zM9.713 8.4H.82a.723.723 0 01-.722-.723V.767C.098.37.42.046.82.046h2.925c.227 0 .44.107.577.289l1.016 1.35h4.375c.4 0 .723.324.723.723v5.27c0 .4-.323.723-.723.723z" fill="#fff" mask="url(#f)"/></g><g transform="translate(25.6 23.493)"><mask id="h" fill="#fff"><use xlink:href="#g"/></mask><path d="M1.64 6.955h7.448V3.13H5.076a.72.72 0 01-.577-.288L3.482 1.49H1.64v5.464zM9.81 8.4H.919a.723.723 0 01-.723-.723V.767C.195.37.518.046.918.046h2.924a.72.72 0 01.577.289l1.017 1.35h4.375c.399 0 .722.324.722.723v5.27c0 .4-.323.723-.722.723z" fill="#fff" mask="url(#h)"/></g></g></svg>