<svg id="Layer_1" data-name="Layer 1" xmlns="http://www.w3.org/2000/svg" xmlns:xlink="http://www.w3.org/1999/xlink" viewBox="0 0 200 200"><defs><style>.cls-1{opacity:0.3;fill:url(#linear-gradient);}.cls-2{fill:#fff;}.cls-3{fill:url(#linear-gradient-2);}.cls-4{fill:url(#linear-gradient-3);}.cls-5{fill:url(#linear-gradient-4);}.cls-6{fill:url(#linear-gradient-5);}.cls-7{fill:url(#linear-gradient-6);}.cls-8{fill:url(#linear-gradient-7);}.cls-9{fill:url(#linear-gradient-8);}.cls-10{fill:url(#linear-gradient-9);}.cls-11{fill:url(#linear-gradient-10);}.cls-12{fill:url(#linear-gradient-11);}.cls-13{fill:url(#linear-gradient-12);}.cls-14{fill:url(#linear-gradient-13);}.cls-15{fill:url(#linear-gradient-14);}.cls-16{fill:url(#linear-gradient-15);}</style><linearGradient id="linear-gradient" x1="107.02" y1="179.68" x2="107.02" y2="-0.54" gradientUnits="userSpaceOnUse"><stop offset="0" stop-color="#5f1499"/><stop offset="1" stop-color="#00b9ff"/></linearGradient><linearGradient id="linear-gradient-2" x1="78.59" y1="179.68" x2="78.59" y2="-0.54" xlink:href="#linear-gradient"/><linearGradient id="linear-gradient-3" x1="70.86" y1="179.68" x2="70.86" y2="-0.54" xlink:href="#linear-gradient"/><linearGradient id="linear-gradient-4" x1="131.92" y1="179.68" x2="131.92" y2="-0.54" xlink:href="#linear-gradient"/><linearGradient id="linear-gradient-5" x1="149.2" y1="179.68" x2="149.2" y2="-0.54" xlink:href="#linear-gradient"/><linearGradient id="linear-gradient-6" x1="76.47" y1="179.68" x2="76.47" y2="-0.54" xlink:href="#linear-gradient"/><linearGradient id="linear-gradient-7" x1="71.11" y1="179.68" x2="71.11" y2="-0.54" xlink:href="#linear-gradient"/><linearGradient id="linear-gradient-8" x1="100.71" y1="179.68" x2="100.71" y2="-0.54" xlink:href="#linear-gradient"/><linearGradient id="linear-gradient-9" x1="97.08" y1="179.68" x2="97.08" y2="-0.54" xlink:href="#linear-gradient"/><linearGradient id="linear-gradient-10" x1="114.46" y1="179.68" x2="114.46" y2="-0.54" xlink:href="#linear-gradient"/><linearGradient id="linear-gradient-11" x1="136.64" y1="179.68" x2="136.64" y2="-0.54" xlink:href="#linear-gradient"/><linearGradient id="linear-gradient-12" x1="95.73" y1="179.68" x2="95.73" y2="-0.54" xlink:href="#linear-gradient"/><linearGradient id="linear-gradient-13" x1="73.87" y1="179.68" x2="73.87" y2="-0.54" xlink:href="#linear-gradient"/><linearGradient id="linear-gradient-14" x1="111.95" y1="179.68" x2="111.95" y2="-0.54" xlink:href="#linear-gradient"/><linearGradient id="linear-gradient-15" x1="131.15" y1="179.68" x2="131.15" y2="-0.54" xlink:href="#linear-gradient"/></defs><circle class="cls-1" cx="107.02" cy="95.88" r="52.71"/><path class="cls-2" d="M86.52,54.15A17.9,17.9,0,1,0,91.76,66.8,17.77,17.77,0,0,0,86.52,54.15ZM67.89,77.32H64.32a1.5,1.5,0,0,1-1.5-1.5V60.54a1.5,1.5,0,0,1,1.5-1.5H77.39a1.5,1.5,0,0,1,0,3H65.82V74.32h2.07a1.5,1.5,0,0,1,0,3Zm10.45-.7a1.48,1.48,0,0,1-1.22.7h-.05a1.51,1.51,0,0,1-1.22-.62l-5.62-7.88a1.5,1.5,0,1,1,2.44-1.74l4.32,6,7.48-11.86A1.5,1.5,0,0,1,87,62.87Z"/><path class="cls-2" d="M163,54.07H101a29.7,29.7,0,0,1,2.81,12.31h28.08a1.5,1.5,0,0,1,0,3H103.74a29.7,29.7,0,0,1-1,5.57h8.48a1.5,1.5,0,0,1,0,3h-9.49a30,30,0,0,1-43,14.73l-4.47,4.47h0L43.51,107.86v17H171.05V62.09A8,8,0,0,0,163,54.07ZM120,75h23.83a1.5,1.5,0,0,1,0,3H120a1.5,1.5,0,0,1,0-3ZM134.4,90.8a1.5,1.5,0,0,1-1.5,1.5h-3.5a1.5,1.5,0,0,1,0-3h3.5A1.5,1.5,0,0,1,134.4,90.8Zm-32.57-1.5h20.24a1.5,1.5,0,0,1,0,3H101.83a1.5,1.5,0,0,1,0-3ZM90.21,102.64h21a1.5,1.5,0,0,1,0,3h-21a1.5,1.5,0,0,1,0-3ZM69.06,116.22H66.58a1.5,1.5,0,0,1-1.5-1.5V104.14a1.5,1.5,0,0,1,1.5-1.5h9.06a1.5,1.5,0,0,1,0,3H68.08v7.58h1a1.5,1.5,0,0,1,0,3ZM82.69,106l-6,9.53a1.48,1.48,0,0,1-1.23.7h0a1.51,1.51,0,0,1-1.22-.62l-3.9-5.46a1.5,1.5,0,1,1,2.44-1.74l2.6,3.63,4.81-7.64a1.5,1.5,0,0,1,2.54,1.6ZM104,114.2H90.21a1.5,1.5,0,0,1,0-3H104a1.5,1.5,0,0,1,0,3Zm13.75,0h-6.5a1.5,1.5,0,0,1,0-3h6.5a1.5,1.5,0,0,1,0,3Zm37.86-8.56H117.71a1.5,1.5,0,0,1,0-3h37.86a1.5,1.5,0,0,1,0,3Zm0-36.26H142.82a1.5,1.5,0,0,1,0-3h12.75a1.5,1.5,0,0,1,0,3Z"/><path class="cls-2" d="M171.05,130.56v-2.68H43.51v2.68a8,8,0,0,0,8,8H163A8,8,0,0,0,171.05,130.56Z"/><path class="cls-2" d="M43.51,86.45h0L48,82A29.78,29.78,0,0,1,43.88,66.8a30.09,30.09,0,0,1,1.74-10.11,8,8,0,0,0-2.11,5.4Z"/><path class="cls-2" d="M119.59,155.75H95a5,5,0,0,0-4.77,3.51h34.17A5,5,0,0,0,119.59,155.75Z"/><rect class="cls-2" x="99.84" y="141.59" width="14.89" height="11.17"/><path class="cls-2" d="M21.76,118.92a4.59,4.59,0,0,0,6.46,0l18.07-18.08-6.46-6.46L21.76,112.45A4.57,4.57,0,0,0,21.76,118.92Z"/><path class="cls-2" d="M52.66,88a31.51,31.51,0,0,1-3-3.48l-3,3L53.17,94l3-3A30.32,30.32,0,0,1,52.66,88Z"/><rect class="cls-2" x="44.64" y="89.6" width="3.73" height="9.14" transform="translate(-52.97 60.46) rotate(-45)"/><path class="cls-2" d="M46.88,66.8a27,27,0,1,0,7.91-19.08A26.82,26.82,0,0,0,46.88,66.8ZM88.64,81.58A20.9,20.9,0,1,1,94.76,66.8,20.76,20.76,0,0,1,88.64,81.58Z"/><path class="cls-3" d="M86.54,60.8a1.5,1.5,0,0,0-2.07.47L77,73.13l-4.32-6a1.5,1.5,0,1,0-2.44,1.74l5.62,7.88a1.51,1.51,0,0,0,1.22.62h.05a1.48,1.48,0,0,0,1.22-.7L87,62.87A1.5,1.5,0,0,0,86.54,60.8Z"/><path class="cls-4" d="M67.89,74.32H65.82V62H77.39a1.5,1.5,0,0,0,0-3H64.32a1.5,1.5,0,0,0-1.5,1.5V75.82a1.5,1.5,0,0,0,1.5,1.5h3.57a1.5,1.5,0,0,0,0-3Z"/><path class="cls-5" d="M120,78h23.83a1.5,1.5,0,0,0,0-3H120a1.5,1.5,0,0,0,0,3Z"/><path class="cls-6" d="M155.57,66.38H142.82a1.5,1.5,0,0,0,0,3h12.75a1.5,1.5,0,0,0,0-3Z"/><path class="cls-7" d="M82.22,103.92a1.51,1.51,0,0,0-2.07.47L75.34,112l-2.6-3.63a1.5,1.5,0,1,0-2.44,1.74l3.9,5.46a1.51,1.51,0,0,0,1.22.62h0a1.48,1.48,0,0,0,1.23-.7l6-9.53A1.5,1.5,0,0,0,82.22,103.92Z"/><path class="cls-8" d="M69.06,113.22h-1v-7.58h7.56a1.5,1.5,0,0,0,0-3H66.58a1.5,1.5,0,0,0-1.5,1.5v10.58a1.5,1.5,0,0,0,1.5,1.5h2.48a1.5,1.5,0,0,0,0-3Z"/><path class="cls-9" d="M90.21,105.64h21a1.5,1.5,0,0,0,0-3h-21a1.5,1.5,0,0,0,0,3Z"/><path class="cls-10" d="M104,111.2H90.21a1.5,1.5,0,0,0,0,3H104a1.5,1.5,0,0,0,0-3Z"/><path class="cls-11" d="M117.71,111.2h-6.5a1.5,1.5,0,0,0,0,3h6.5a1.5,1.5,0,0,0,0-3Z"/><path class="cls-12" d="M155.57,102.64H117.71a1.5,1.5,0,0,0,0,3h37.86a1.5,1.5,0,0,0,0-3Z"/><path class="cls-13" d="M25,123.25A7.51,7.51,0,0,0,30.34,121l10.17-10.18v19.7a11,11,0,0,0,11,11h45.3v11.16H95a8,8,0,0,0-8,8,1.5,1.5,0,0,0,1.5,1.5H126.1a1.5,1.5,0,0,0,1.5-1.5,8,8,0,0,0-8-8h-1.86V141.59H163a11,11,0,0,0,11-11V62.09a11,11,0,0,0-11-11H99.4A30,30,0,0,0,48,51.66a11,11,0,0,0-7.47,10.43V89.45L38.77,91.2h0L19.63,110.33A7.57,7.57,0,0,0,25,123.25Zm29.8-75.53A27,27,0,1,1,46.88,66.8,26.9,26.9,0,0,1,54.79,47.72ZM90.2,159.26A5,5,0,0,1,95,155.75h24.62a5,5,0,0,1,4.78,3.51Zm24.53-6.51H99.84V141.59h14.89Zm1.5-14.16H51.54a8,8,0,0,1-8-8v-2.68H171.05v2.68a8,8,0,0,1-8,8Zm54.82-13.71H43.51v-17L54.23,97.14h0l4.47-4.47a30,30,0,0,0,43-14.73h9.49a1.5,1.5,0,0,0,0-3h-8.48a29.7,29.7,0,0,0,1-5.57h28.18a1.5,1.5,0,0,0,0-3H103.84A29.7,29.7,0,0,0,101,54.07h62a8,8,0,0,1,8,8ZM53.17,94,46.71,87.5l3-3a31.51,31.51,0,0,0,3,3.48,30.32,30.32,0,0,0,3.48,3Zm-2.12,2.12-2.64,2.64L42,92.26l2.64-2.64ZM43.88,66.8A29.78,29.78,0,0,0,48,82l-4.46,4.47h0V62.09a8,8,0,0,1,2.11-5.4A30.09,30.09,0,0,0,43.88,66.8ZM39.83,94.38l6.46,6.46L28.22,118.92a4.57,4.57,0,0,1-6.46-6.47Z"/><path class="cls-14" d="M73.87,45.91A20.89,20.89,0,1,0,88.64,52,20.76,20.76,0,0,0,73.87,45.91Zm0,38.79a17.89,17.89,0,1,1,12.65-5.24A17.77,17.77,0,0,1,73.87,84.7Z"/><path class="cls-15" d="M101.83,92.3h20.24a1.5,1.5,0,0,0,0-3H101.83a1.5,1.5,0,0,0,0,3Z"/><path class="cls-16" d="M129.4,89.3a1.5,1.5,0,0,0,0,3h3.5a1.5,1.5,0,0,0,0-3Z"/></svg>