<svg id="Layer_1" data-name="Layer 1" xmlns="http://www.w3.org/2000/svg" xmlns:xlink="http://www.w3.org/1999/xlink" viewBox="0 0 200 200"><defs><style>.cls-1{opacity:0.3;}.cls-2{fill:url(#linear-gradient);}.cls-3{fill:#fff;}.cls-4{fill:url(#linear-gradient-2);}.cls-5{fill:url(#linear-gradient-3);}.cls-6{fill:url(#linear-gradient-4);}.cls-7{fill:url(#linear-gradient-6);}.cls-8{fill:url(#linear-gradient-9);}.cls-9{fill:url(#linear-gradient-10);}.cls-10{fill:url(#linear-gradient-11);}.cls-11{fill:url(#linear-gradient-12);}.cls-12{fill:url(#linear-gradient-13);}.cls-13{fill:url(#linear-gradient-14);}.cls-14{fill:url(#linear-gradient-15);}.cls-15{fill:url(#linear-gradient-16);}</style><linearGradient id="linear-gradient" x1="100.45" y1="192.71" x2="100.45" y2="-15.37" gradientUnits="userSpaceOnUse"><stop offset="0" stop-color="#5f1499"/><stop offset="1" stop-color="#00b9ff"/></linearGradient><linearGradient id="linear-gradient-2" x1="101.45" y1="192.71" x2="101.45" y2="-15.37" xlink:href="#linear-gradient"/><linearGradient id="linear-gradient-3" x1="100.45" y1="192.71" x2="100.45" y2="-15.37" xlink:href="#linear-gradient"/><linearGradient id="linear-gradient-4" x1="135.78" y1="192.71" x2="135.78" y2="-15.37" xlink:href="#linear-gradient"/><linearGradient id="linear-gradient-6" x1="65.12" y1="192.71" x2="65.12" y2="-15.37" xlink:href="#linear-gradient"/><linearGradient id="linear-gradient-9" x1="100.45" y1="192.71" x2="100.45" y2="-15.37" xlink:href="#linear-gradient"/><linearGradient id="linear-gradient-10" x1="101.05" y1="192.71" x2="101.05" y2="-15.37" xlink:href="#linear-gradient"/><linearGradient id="linear-gradient-11" x1="87.5" y1="192.71" x2="87.5" y2="-15.37" xlink:href="#linear-gradient"/><linearGradient id="linear-gradient-12" x1="97.34" y1="192.71" x2="97.34" y2="-15.37" xlink:href="#linear-gradient"/><linearGradient id="linear-gradient-13" x1="60.34" y1="192.71" x2="60.34" y2="-15.37" xlink:href="#linear-gradient"/><linearGradient id="linear-gradient-14" x1="124.43" y1="192.71" x2="124.43" y2="-15.37" xlink:href="#linear-gradient"/><linearGradient id="linear-gradient-15" x1="136.07" y1="192.71" x2="136.07" y2="-15.37" xlink:href="#linear-gradient"/><linearGradient id="linear-gradient-16" x1="147.72" y1="192.71" x2="147.72" y2="-15.37" xlink:href="#linear-gradient"/></defs><g class="cls-1"><circle class="cls-2" cx="100.45" cy="94.68" r="52.71"/></g><path class="cls-3" d="M42,76.19H161a0,0,0,0,1,0,0v77.08A11.92,11.92,0,0,1,149,165.19H53.87A11.92,11.92,0,0,1,42,153.28V76.19A0,0,0,0,1,42,76.19Z"/><path class="cls-4" d="M149,166.69H53.87a13.43,13.43,0,0,1-13.42-13.42V76.19a1.5,1.5,0,0,1,1.5-1.5H161a1.5,1.5,0,0,1,1.5,1.5v77.08A13.43,13.43,0,0,1,149,166.69Zm-105.59-89v75.58a10.43,10.43,0,0,0,10.42,10.42H149a10.42,10.42,0,0,0,10.41-10.42V77.69Z"/><rect class="cls-3" x="35.79" y="66.69" width="129.33" height="39" rx="4.83"/><path class="cls-5" d="M160.29,107.19H40.62a6.34,6.34,0,0,1-6.33-6.33V71.52a6.34,6.34,0,0,1,6.33-6.33H160.29a6.34,6.34,0,0,1,6.33,6.33v29.34A6.34,6.34,0,0,1,160.29,107.19Zm-119.67-39a3.34,3.34,0,0,0-3.33,3.33v29.34a3.33,3.33,0,0,0,3.33,3.33H160.29a3.34,3.34,0,0,0,3.33-3.33V71.52a3.34,3.34,0,0,0-3.33-3.33Z"/><rect class="cls-3" x="128.45" y="98.36" width="14.67" height="14.67" rx="2.92"/><path class="cls-6" d="M140.2,114.52h-8.83a4.42,4.42,0,0,1-4.42-4.41v-8.84a4.42,4.42,0,0,1,4.42-4.41h8.83a4.42,4.42,0,0,1,4.42,4.41v8.84A4.42,4.42,0,0,1,140.2,114.52Zm-8.83-14.66a1.42,1.42,0,0,0-1.42,1.41v8.84a1.42,1.42,0,0,0,1.42,1.41h8.83a1.42,1.42,0,0,0,1.42-1.41v-8.84a1.42,1.42,0,0,0-1.42-1.41Z"/><path class="cls-3" d="M131.62,113H140a0,0,0,0,1,0,0v1.5a4.17,4.17,0,0,1-4.17,4.17h0a4.17,4.17,0,0,1-4.17-4.17V113a0,0,0,0,1,0,0Z"/><path class="cls-6" d="M135.78,120.19a5.67,5.67,0,0,1-5.66-5.67V113a1.5,1.5,0,0,1,1.5-1.5H140a1.5,1.5,0,0,1,1.5,1.5v1.5A5.67,5.67,0,0,1,135.78,120.19Zm-2.66-5.67a2.67,2.67,0,1,0,5.33,0Z"/><rect class="cls-3" x="57.79" y="98.36" width="14.67" height="14.67" rx="2.92" transform="translate(130.24 211.38) rotate(-180)"/><path class="cls-7" d="M69.54,114.52H60.7a4.42,4.42,0,0,1-4.41-4.41v-8.84a4.42,4.42,0,0,1,4.41-4.41h8.84A4.42,4.42,0,0,1,74,101.27v8.84A4.42,4.42,0,0,1,69.54,114.52ZM60.7,99.86a1.41,1.41,0,0,0-1.41,1.41v8.84a1.41,1.41,0,0,0,1.41,1.41h8.84A1.41,1.41,0,0,0,71,110.11v-8.84a1.41,1.41,0,0,0-1.41-1.41Z"/><path class="cls-3" d="M65.12,113h0a4.17,4.17,0,0,1,4.17,4.17v1.5a0,0,0,0,1,0,0H61a0,0,0,0,1,0,0v-1.5A4.17,4.17,0,0,1,65.12,113Z" transform="translate(130.24 231.72) rotate(180)"/><path class="cls-7" d="M65.12,120.19a5.68,5.68,0,0,1-5.67-5.67V113a1.51,1.51,0,0,1,1.5-1.5h8.34a1.5,1.5,0,0,1,1.5,1.5v1.5A5.67,5.67,0,0,1,65.12,120.19Zm-2.67-5.67a2.67,2.67,0,0,0,5.34,0Z"/><path class="cls-5" d="M100.45,94.76A85.3,85.3,0,0,1,78.74,92L35.4,80.57a1.5,1.5,0,0,1,.77-2.9L79.5,89.06a82.63,82.63,0,0,0,41.9,0l43.34-11.39a1.5,1.5,0,1,1,.76,2.9L122.17,92A85.38,85.38,0,0,1,100.45,94.76Z"/><path class="cls-3" d="M130.62,66.69h-7v-12a4.33,4.33,0,0,0-4.33-4.33H81.62a4.33,4.33,0,0,0-4.33,4.33v12h-7v-12A11.34,11.34,0,0,1,81.62,43.36h37.67a11.34,11.34,0,0,1,11.33,11.33Z"/><path class="cls-8" d="M130.62,68.19h-7a1.5,1.5,0,0,1-1.5-1.5v-12a2.83,2.83,0,0,0-2.83-2.83H81.62a2.83,2.83,0,0,0-2.83,2.83v12a1.5,1.5,0,0,1-1.5,1.5h-7a1.5,1.5,0,0,1-1.5-1.5v-12A12.84,12.84,0,0,1,81.62,41.86h37.67a12.85,12.85,0,0,1,12.83,12.83v12A1.5,1.5,0,0,1,130.62,68.19Zm-5.5-3h4V54.69a9.84,9.84,0,0,0-9.83-9.83H81.62a9.84,9.84,0,0,0-9.83,9.83v10.5h4V54.69a5.84,5.84,0,0,1,5.83-5.83h37.67a5.84,5.84,0,0,1,5.83,5.83Z"/><path class="cls-3" d="M116.78,132.76a15.73,15.73,0,1,1-31.46,0H101V117A15.73,15.73,0,0,1,116.78,132.76Z"/><path class="cls-9" d="M101,150a17.25,17.25,0,0,1-17.22-17.24,1.5,1.5,0,0,1,1.5-1.5H99.54V117a1.5,1.5,0,0,1,1.5-1.5A17.23,17.23,0,1,1,101,150ZM86.9,134.26a14.23,14.23,0,1,0,15.64-15.64v14.14a1.5,1.5,0,0,1-1.5,1.5Z"/><path class="cls-3" d="M95.36,111.35v15.73H79.63A15.74,15.74,0,0,1,95.36,111.35Z"/><path class="cls-10" d="M95.36,128.58H79.63a1.5,1.5,0,0,1-1.5-1.5,17.25,17.25,0,0,1,17.23-17.23,1.5,1.5,0,0,1,1.5,1.5v15.73A1.5,1.5,0,0,1,95.36,128.58Zm-14.15-3H93.86V112.93A14.26,14.26,0,0,0,81.21,125.58Z"/><path class="cls-11" d="M93.63,148.14a1.46,1.46,0,0,1-.7-.18,1.49,1.49,0,0,1-.62-2l7.41-13.87a1.5,1.5,0,0,1,2.65,1.41L95,147.35A1.51,1.51,0,0,1,93.63,148.14Z"/><polygon class="cls-3" points="64.74 155.57 64.74 137.13 68.99 137.13 60.34 126.22 51.68 137.13 55.93 137.13 55.93 155.57 64.74 155.57"/><path class="cls-12" d="M64.74,157.07H55.93a1.5,1.5,0,0,1-1.5-1.5V138.63H51.68a1.48,1.48,0,0,1-1.35-.84,1.52,1.52,0,0,1,.17-1.59l8.66-10.91a1.51,1.51,0,0,1,1.18-.57h0a1.48,1.48,0,0,1,1.17.57l8.66,10.91a1.5,1.5,0,0,1,.17,1.59,1.48,1.48,0,0,1-1.35.84H66.24v16.94A1.51,1.51,0,0,1,64.74,157.07Zm-7.31-3h5.81V137.13a1.5,1.5,0,0,1,1.5-1.5h1.15l-5.55-7-5.56,7h1.15a1.5,1.5,0,0,1,1.5,1.5Z"/><rect class="cls-3" x="120.92" y="147.79" width="7.01" height="7.78"/><path class="cls-13" d="M127.93,157.07h-7a1.5,1.5,0,0,1-1.5-1.5v-7.78a1.5,1.5,0,0,1,1.5-1.5h7a1.5,1.5,0,0,1,1.5,1.5v7.78A1.5,1.5,0,0,1,127.93,157.07Zm-5.51-3h4v-4.78h-4Z"/><rect class="cls-3" x="132.57" y="136.28" width="7.01" height="19.28"/><path class="cls-14" d="M139.58,157.07h-7a1.5,1.5,0,0,1-1.5-1.5V136.28a1.5,1.5,0,0,1,1.5-1.5h7a1.5,1.5,0,0,1,1.5,1.5v19.29A1.5,1.5,0,0,1,139.58,157.07Zm-5.51-3h4V137.78h-4Z"/><rect class="cls-3" x="144.22" y="122.53" width="7.01" height="33.03"/><path class="cls-15" d="M151.23,157.07h-7a1.5,1.5,0,0,1-1.5-1.5v-33a1.5,1.5,0,0,1,1.5-1.5h7a1.5,1.5,0,0,1,1.5,1.5v33A1.5,1.5,0,0,1,151.23,157.07Zm-5.51-3h4V124h-4Z"/></svg>