<svg id="Layer_1" data-name="Layer 1" xmlns="http://www.w3.org/2000/svg" viewBox="0 0 556 148.19412">
  <defs>
    <style>
      .cls-1 {
        fill: #fff;
      }
    </style>
  </defs>
  <title>v2_white</title>
  <g id="Page-1">
    <g id="Group">
      <g id="_3forge" data-name=" 3forge">
        <g>
          <path class="cls-1" d="M536.39,501.0052a44.9727,44.9727,0,0,1-2.97865,16.45577,33.3998,33.3998,0,0,1-13.37948,16.50461,42.75393,42.75393,0,0,1-43.94716-.24415,34.86482,34.86482,0,0,1-13.47713-17.04173,47.80478,47.80478,0,0,1-2.63684-13.03766,2.49035,2.49035,0,0,1,2.78332-2.83215h17.823a2.73455,2.73455,0,0,1,2.97864,2.83215,25.68512,25.68512,0,0,0,1.66023,7.22686,12.74458,12.74458,0,0,0,4.883,6.68974,13.28179,13.28179,0,0,0,8.00815,2.39268,12.69583,12.69583,0,0,0,12.69584-8.057,27.63809,27.63809,0,0,0,2.295-11.57276,29.29813,29.29813,0,0,0-2.63684-12.69585,12.79352,12.79352,0,0,0-12.69584-7.61751,14.64908,14.64908,0,0,0-7.56868,3.12514,3.80867,3.80867,0,0,1-1.66022.4883,2.97863,2.97863,0,0,1-2.295-1.12309l-8.74061-11.71925a3.22281,3.22281,0,0,1-.68362-2.002,2.881,2.881,0,0,1,.97661-1.95321l25.73351-22.46189a.586.586,0,0,0,.34181-.73245c0-.293-.39065-.43947-.8301-.43947H464.95141a2.49037,2.49037,0,0,1-2.83215-2.78332V425.90438a2.49037,2.49037,0,0,1,2.83215-2.78333h67.1415a2.49034,2.49034,0,0,1,2.83216,2.78333v16.16279a4.883,4.883,0,0,1-1.51375,3.46694l-21.63177,19.82506c-.6348.68362-.43947,1.12309.68362,1.31842a27.44255,27.44255,0,0,1,20.60634,16.9929A43.65422,43.65422,0,0,1,536.39,501.0052Z" transform="translate(-321 -422.9814)"/>
          <path class="cls-1" d="M591.81223,456.42324v13.81895a2.49035,2.49035,0,0,1-2.78332,2.83215H573.98922a.87894.87894,0,0,0-.97661.9766v61.77019a2.44151,2.44151,0,0,1-2.97864,2.78332H552.55275a2.44151,2.44151,0,0,1-2.78332-2.78332V474.24626a.87894.87894,0,0,0-1.02543-.9766h-8.74061a2.49037,2.49037,0,0,1-2.78332-2.83215V456.42324a2.44151,2.44151,0,0,1,2.78332-2.78332H548.744a.92777.92777,0,0,0,1.02543-1.02543v-3.46695a33.35106,33.35106,0,0,1,3.12513-15.91864,17.43239,17.43239,0,0,1,10.15669-8.057,56.399,56.399,0,0,1,19.53207-2.05087h5.42016a2.49034,2.49034,0,0,1,2.83216,2.78332v11.71925a2.49035,2.49035,0,0,1-2.83216,2.78332h-4.59a11.96339,11.96339,0,0,0-8.00815,2.39268,11.524,11.524,0,0,0-2.24619,8.20347v1.6114a.87893.87893,0,0,0,.97661,1.02543h15.03971a2.44154,2.44154,0,0,1,2.6368,2.78332Z" transform="translate(-321 -422.9814)"/>
          <path class="cls-1" d="M603.385,532.64717a36.13441,36.13441,0,0,1-13.526-19.77623,58.05869,58.05869,0,0,1-2.34385-16.84641,55.08069,55.08069,0,0,1,2.49033-17.48121,35.695,35.695,0,0,1,13.62363-19.14144,40.13845,40.13845,0,0,1,23.82914-6.93388,38.57582,38.57582,0,0,1,23.19434,6.93388,35.64609,35.64609,0,0,1,13.4283,18.995,55.08108,55.08108,0,0,1,2.49035,17.28589,65.5314,65.5314,0,0,1-2.14854,16.69993,36.96444,36.96444,0,0,1-37.11094,27.54022A39.0642,39.0642,0,0,1,603.385,532.64717Zm33.00922-15.96747a18.01823,18.01823,0,0,0,5.42016-9.08242,41.89567,41.89567,0,0,0,1.46488-11.57275,45.07123,45.07123,0,0,0-1.3184-11.71925,17.1884,17.1884,0,0,0-5.42015-8.74061,14.25847,14.25847,0,0,0-9.42423-3.12513,14.01424,14.01424,0,0,0-9.2289,3.12513,17.57883,17.57883,0,0,0-5.469,8.74061,45.07074,45.07074,0,0,0-1.31842,11.71924,43.94668,43.94668,0,0,0,1.31842,11.57275,18.21372,18.21372,0,0,0,5.56664,9.08242,13.96541,13.96541,0,0,0,9.473,3.27162A13.37966,13.37966,0,0,0,636.39421,516.6797Z" transform="translate(-321 -422.9814)"/>
          <path class="cls-1" d="M721.99353,454.61653a2.78331,2.78331,0,0,1,1.51372,3.46694l-3.12513,17.33472a1.89432,1.89432,0,0,1-.92778,1.80672,4.88312,4.88312,0,0,1-2.39267,0,20.118,20.118,0,0,0-4.883-.68363,18.56107,18.56107,0,0,0-3.80875.34181,16.35815,16.35815,0,0,0-10.059,4.39472,13.47714,13.47714,0,0,0-4.10171,10.30316v44.24016a2.49034,2.49034,0,0,1-2.83216,2.78332H673.847a2.49031,2.49031,0,0,1-2.83216-2.78332V456.61856a2.49034,2.49034,0,0,1,2.83216-2.83215h17.6277a2.49034,2.49034,0,0,1,2.83216,2.83215v4.883c0,.43948,0,.73245.34181.83012s.48829,0,.7813-.34181a20.65517,20.65517,0,0,1,17.823-9.766A17.3835,17.3835,0,0,1,721.99353,454.61653Z" transform="translate(-321 -422.9814)"/>
          <path class="cls-1" d="M774.486,453.78641h17.67654a2.49034,2.49034,0,0,1,2.78332,2.83215v74.41722q0,21.63178-12.354,30.81184a51.66223,51.66223,0,0,1-31.88614,9.27774,109.03853,109.03853,0,0,1-12.354-.83012c-1.6602,0-2.49035-1.12309-2.49035-2.97864l.68362-15.33268a2.68559,2.68559,0,0,1,.879-2.0997,2.39269,2.39269,0,0,1,2.24618-.39064,80.22971,80.22971,0,0,0,10.059.83012,25.29412,25.29412,0,0,0,16.26046-4.63888,17.96945,17.96945,0,0,0,5.71312-14.649c0-.34181,0-.53714-.34181-.586s-.48829,0-.8301.43947a23.53619,23.53619,0,0,1-18.16484,6.59208,38.771,38.771,0,0,1-19.53207-5.176,28.8097,28.8097,0,0,1-12.74468-16.74875,64.60192,64.60192,0,0,1-2.49035-19.53208,61.47748,61.47748,0,0,1,2.97864-20.94815,32.7161,32.7161,0,0,1,11.71925-16.16279,31.34894,31.34894,0,0,1,19.14143-6.10378,25.14754,25.14754,0,0,1,19.53207,7.42219c.34181.34181.586.43948.83011.34181a.879.879,0,0,0,.34181-.83011v-3.12513a2.49033,2.49033,0,0,1,2.12153-2.81117Q774.37425,453.79193,774.486,453.78641Zm-2.78332,41.74982a78.1339,78.1339,0,0,0-.34181-7.91049,28.75979,28.75979,0,0,0-1.12311-5.27367,14.649,14.649,0,0,0-4.883-7.22686,13.62357,13.62357,0,0,0-8.59412-2.7345,13.23294,13.23294,0,0,0-8.49644,2.7345,15.4303,15.4303,0,0,0-4.883,7.178,41.42832,41.42832,0,0,0-.4883,26.61245,14.35608,14.35608,0,0,0,14.01428,9.766,13.42833,13.42833,0,0,0,13.33062-9.3754A54.6899,54.6899,0,0,0,771.70266,495.53623Z" transform="translate(-321 -422.9814)"/>
          <path class="cls-1" d="M858.62038,512.67562a3.0275,3.0275,0,0,1,2.14854-1.12309,2.49029,2.49029,0,0,1,1.85553.83012l9.37539,9.08241a2.68577,2.68577,0,0,1,.97659,1.95321,3.174,3.174,0,0,1-.63478,2.002,37.79471,37.79471,0,0,1-13.96544,10.645,44.77732,44.77732,0,0,1-18.55549,3.85759,39.699,39.699,0,0,1-25.14755-7.764,38.18515,38.18515,0,0,1-13.47714-21.29,58.1072,58.1072,0,0,1-1.95322-15.33268,61.233,61.233,0,0,1,1.80673-16.16279,35.15763,35.15763,0,0,1,13.28182-19.53208,38.3317,38.3317,0,0,1,23.68263-7.42219,34.18111,34.18111,0,0,1,25.63585,9.766,47.56054,47.56054,0,0,1,12.30519,26.8566c.43946,3.66227.78131,7.66634,1.02543,12.06106a2.53916,2.53916,0,0,1-2.83216,2.83215H823.5115c-.68362,0-1.02543.293-1.02543.9766a25.29331,25.29331,0,0,0,1.17191,5.12717,13.42837,13.42837,0,0,0,6.54323,7.81283,23.829,23.829,0,0,0,11.76809,2.73449A21.53413,21.53413,0,0,0,858.62038,512.67562ZM828.834,475.12521a12.98889,12.98889,0,0,0-4.883,7.178c-.53714,2.09969-.879,3.46694-.97659,4.15056s0,.97661.7813.97661H851.833c.53714,0,.8301,0,.8301-.6348a12.06114,12.06114,0,0,0-.68361-3.80875A13.9166,13.9166,0,0,0,837.62342,472.586,14.64905,14.64905,0,0,0,828.834,475.12521Z" transform="translate(-321 -422.9814)"/>
        </g>
      </g>
      <rect id="Rectangle" class="cls-1" y="1.36041" width="34.08347" height="34.08347" rx="7.56868"/>
      <rect id="Rectangle-2" class="cls-1" x="41.70098" y="1.36041" width="34.08347" height="34.08347" rx="7.56868"/>
      <rect id="Rectangle-3" class="cls-1" y="43.06139" width="34.08347" height="34.08347" rx="7.56868"/>
      <rect id="Rectangle-4" class="cls-1" y="84.71354" width="34.08347" height="34.08347" rx="7.56868"/>
      <rect id="Rectangle-5" class="cls-1" x="41.70098" y="43.06139" width="34.08347" height="34.08347" rx="7.56868"/>
      <rect id="Rectangle-6" class="cls-1" x="83.35313" y="1.36041" width="34.08347" height="34.08347" rx="7.56868"/>
    </g>
  </g>
</svg>
