<svg xmlns="http://www.w3.org/2000/svg" xmlns:xlink="http://www.w3.org/1999/xlink" width="100" zoomAndPan="magnify" viewBox="0 0 75 74.999997" height="100" preserveAspectRatio="xMidYMid meet" version="1.0"><defs><g/><clipPath id="26ee5fb364"><path d="M 16.148438 7.5 L 58.851562 7.5 L 58.851562 50.199219 L 16.148438 50.199219 Z M 16.148438 7.5 " clip-rule="nonzero"/></clipPath></defs><g fill="#000000" fill-opacity="1"><g transform="translate(0.00322089, 63.31715)"><g><path d="M 0.40625 0 C 0.34375 0 0.3125 -0.03125 0.3125 -0.09375 L 0.3125 -3.578125 C 0.3125 -3.640625 0.34375 -3.671875 0.40625 -3.671875 L 1.6875 -3.671875 C 1.945312 -3.671875 2.175781 -3.625 2.375 -3.53125 C 2.570312 -3.4375 2.722656 -3.304688 2.828125 -3.140625 C 2.941406 -2.972656 3 -2.773438 3 -2.546875 L 3 -1.109375 C 3 -0.890625 2.941406 -0.695312 2.828125 -0.53125 C 2.722656 -0.363281 2.570312 -0.234375 2.375 -0.140625 C 2.175781 -0.046875 1.945312 0 1.6875 0 Z M 1.0625 -0.671875 C 1.0625 -0.648438 1.070312 -0.640625 1.09375 -0.640625 L 1.71875 -0.640625 C 1.875 -0.640625 2 -0.691406 2.09375 -0.796875 C 2.195312 -0.898438 2.253906 -1.046875 2.265625 -1.234375 L 2.265625 -2.4375 C 2.265625 -2.613281 2.210938 -2.753906 2.109375 -2.859375 C 2.015625 -2.972656 1.882812 -3.03125 1.71875 -3.03125 L 1.09375 -3.03125 C 1.070312 -3.03125 1.0625 -3.019531 1.0625 -3 Z M 1.0625 -0.671875 "/></g></g></g><g fill="#000000" fill-opacity="1"><g transform="translate(3.151475, 63.31715)"><g><path d="M 1.34375 -2.734375 C 1.570312 -2.734375 1.773438 -2.691406 1.953125 -2.609375 C 2.128906 -2.535156 2.265625 -2.429688 2.359375 -2.296875 C 2.460938 -2.160156 2.515625 -2.007812 2.515625 -1.84375 L 2.515625 -0.09375 C 2.515625 -0.03125 2.488281 0 2.4375 0 L 1.875 0 C 1.8125 0 1.78125 -0.03125 1.78125 -0.09375 L 1.78125 -0.21875 C 1.78125 -0.226562 1.773438 -0.234375 1.765625 -0.234375 C 1.765625 -0.234375 1.757812 -0.226562 1.75 -0.21875 C 1.582031 -0.0390625 1.34375 0.046875 1.03125 0.046875 C 0.757812 0.046875 0.539062 -0.0195312 0.375 -0.15625 C 0.21875 -0.289062 0.140625 -0.488281 0.140625 -0.75 C 0.140625 -1.007812 0.234375 -1.210938 0.421875 -1.359375 C 0.609375 -1.515625 0.875 -1.59375 1.21875 -1.59375 L 1.75 -1.59375 C 1.769531 -1.59375 1.78125 -1.601562 1.78125 -1.625 L 1.78125 -1.734375 C 1.78125 -1.847656 1.742188 -1.9375 1.671875 -2 C 1.609375 -2.0625 1.503906 -2.09375 1.359375 -2.09375 C 1.253906 -2.09375 1.164062 -2.078125 1.09375 -2.046875 C 1.03125 -2.015625 0.988281 -1.96875 0.96875 -1.90625 C 0.945312 -1.851562 0.910156 -1.828125 0.859375 -1.828125 L 0.28125 -1.90625 C 0.25 -1.90625 0.222656 -1.910156 0.203125 -1.921875 C 0.191406 -1.941406 0.191406 -1.960938 0.203125 -1.984375 C 0.210938 -2.117188 0.269531 -2.242188 0.375 -2.359375 C 0.476562 -2.472656 0.613281 -2.5625 0.78125 -2.625 C 0.957031 -2.695312 1.144531 -2.734375 1.34375 -2.734375 Z M 1.25 -0.5 C 1.394531 -0.5 1.519531 -0.539062 1.625 -0.625 C 1.726562 -0.707031 1.78125 -0.8125 1.78125 -0.9375 L 1.78125 -1.125 C 1.78125 -1.144531 1.769531 -1.15625 1.75 -1.15625 L 1.375 -1.15625 C 1.21875 -1.15625 1.09375 -1.125 1 -1.0625 C 0.914062 -1 0.875 -0.914062 0.875 -0.8125 C 0.875 -0.71875 0.90625 -0.640625 0.96875 -0.578125 C 1.039062 -0.523438 1.132812 -0.5 1.25 -0.5 Z M 1.25 -0.5 "/></g></g></g><g fill="#000000" fill-opacity="1"><g transform="translate(5.828279, 63.31715)"><g><path d="M 1.34375 0.03125 C 1.113281 0.03125 0.910156 0 0.734375 -0.0625 C 0.554688 -0.125 0.421875 -0.210938 0.328125 -0.328125 C 0.234375 -0.453125 0.1875 -0.59375 0.1875 -0.75 L 0.1875 -0.765625 C 0.1875 -0.828125 0.21875 -0.859375 0.28125 -0.859375 L 0.8125 -0.859375 C 0.863281 -0.859375 0.890625 -0.847656 0.890625 -0.828125 L 0.890625 -0.796875 C 0.890625 -0.710938 0.929688 -0.644531 1.015625 -0.59375 C 1.097656 -0.539062 1.207031 -0.515625 1.34375 -0.515625 C 1.457031 -0.515625 1.550781 -0.535156 1.625 -0.578125 C 1.695312 -0.628906 1.734375 -0.691406 1.734375 -0.765625 C 1.734375 -0.828125 1.703125 -0.875 1.640625 -0.90625 C 1.578125 -0.9375 1.472656 -0.96875 1.328125 -1 C 1.160156 -1.039062 1.035156 -1.082031 0.953125 -1.125 C 0.722656 -1.195312 0.539062 -1.289062 0.40625 -1.40625 C 0.28125 -1.519531 0.21875 -1.679688 0.21875 -1.890625 C 0.21875 -2.140625 0.316406 -2.34375 0.515625 -2.5 C 0.722656 -2.65625 0.988281 -2.734375 1.3125 -2.734375 C 1.539062 -2.734375 1.738281 -2.695312 1.90625 -2.625 C 2.070312 -2.550781 2.203125 -2.445312 2.296875 -2.3125 C 2.390625 -2.1875 2.4375 -2.039062 2.4375 -1.875 C 2.4375 -1.863281 2.425781 -1.847656 2.40625 -1.828125 C 2.394531 -1.816406 2.375 -1.8125 2.34375 -1.8125 L 1.828125 -1.8125 C 1.773438 -1.8125 1.75 -1.820312 1.75 -1.84375 L 1.75 -1.875 C 1.75 -1.957031 1.707031 -2.023438 1.625 -2.078125 C 1.550781 -2.128906 1.445312 -2.15625 1.3125 -2.15625 C 1.195312 -2.15625 1.101562 -2.132812 1.03125 -2.09375 C 0.957031 -2.050781 0.921875 -1.992188 0.921875 -1.921875 C 0.921875 -1.847656 0.957031 -1.789062 1.03125 -1.75 C 1.101562 -1.71875 1.21875 -1.6875 1.375 -1.65625 C 1.476562 -1.632812 1.578125 -1.609375 1.671875 -1.578125 C 1.921875 -1.492188 2.117188 -1.394531 2.265625 -1.28125 C 2.410156 -1.164062 2.484375 -1 2.484375 -0.78125 C 2.484375 -0.519531 2.378906 -0.316406 2.171875 -0.171875 C 1.960938 -0.0351562 1.6875 0.03125 1.34375 0.03125 Z M 1.34375 0.03125 "/></g></g></g><g fill="#000000" fill-opacity="1"><g transform="translate(8.374124, 63.31715)"><g><path d="M 1.671875 -2.734375 C 1.953125 -2.734375 2.175781 -2.644531 2.34375 -2.46875 C 2.519531 -2.300781 2.609375 -2.070312 2.609375 -1.78125 L 2.609375 -0.09375 C 2.609375 -0.03125 2.578125 0 2.515625 0 L 1.953125 0 C 1.898438 0 1.875 -0.03125 1.875 -0.09375 L 1.875 -1.625 C 1.875 -1.769531 1.832031 -1.882812 1.75 -1.96875 C 1.675781 -2.050781 1.570312 -2.09375 1.4375 -2.09375 C 1.3125 -2.09375 1.207031 -2.050781 1.125 -1.96875 C 1.050781 -1.882812 1.015625 -1.769531 1.015625 -1.625 L 1.015625 -0.09375 C 1.015625 -0.03125 0.984375 0 0.921875 0 L 0.359375 0 C 0.296875 0 0.265625 -0.03125 0.265625 -0.09375 L 0.265625 -3.578125 C 0.265625 -3.640625 0.296875 -3.671875 0.359375 -3.671875 L 0.921875 -3.671875 C 0.984375 -3.671875 1.015625 -3.640625 1.015625 -3.578125 L 1.015625 -2.453125 C 1.015625 -2.441406 1.015625 -2.429688 1.015625 -2.421875 C 1.023438 -2.421875 1.035156 -2.425781 1.046875 -2.4375 C 1.179688 -2.632812 1.390625 -2.734375 1.671875 -2.734375 Z M 1.671875 -2.734375 "/></g></g></g><g fill="#000000" fill-opacity="1"><g transform="translate(11.150455, 63.31715)"><g><path d="M 2.65625 -2 C 2.71875 -1.832031 2.75 -1.617188 2.75 -1.359375 C 2.75 -1.109375 2.722656 -0.898438 2.671875 -0.734375 C 2.597656 -0.492188 2.46875 -0.300781 2.28125 -0.15625 C 2.101562 -0.0195312 1.894531 0.046875 1.65625 0.046875 C 1.394531 0.046875 1.195312 -0.046875 1.0625 -0.234375 C 1.050781 -0.242188 1.039062 -0.25 1.03125 -0.25 C 1.019531 -0.25 1.015625 -0.242188 1.015625 -0.234375 L 1.015625 -0.09375 C 1.015625 -0.03125 0.988281 0 0.9375 0 L 0.375 0 C 0.3125 0 0.28125 -0.03125 0.28125 -0.09375 L 0.28125 -3.578125 C 0.28125 -3.640625 0.3125 -3.671875 0.375 -3.671875 L 0.9375 -3.671875 C 0.988281 -3.671875 1.015625 -3.640625 1.015625 -3.578125 L 1.015625 -2.5 C 1.015625 -2.476562 1.019531 -2.46875 1.03125 -2.46875 C 1.039062 -2.46875 1.050781 -2.472656 1.0625 -2.484375 C 1.195312 -2.648438 1.394531 -2.734375 1.65625 -2.734375 C 1.894531 -2.734375 2.097656 -2.664062 2.265625 -2.53125 C 2.441406 -2.40625 2.570312 -2.226562 2.65625 -2 Z M 1.875 -0.828125 C 1.945312 -0.960938 1.984375 -1.132812 1.984375 -1.34375 C 1.984375 -1.570312 1.941406 -1.753906 1.859375 -1.890625 C 1.773438 -2.023438 1.648438 -2.09375 1.484375 -2.09375 C 1.335938 -2.09375 1.222656 -2.023438 1.140625 -1.890625 C 1.066406 -1.753906 1.03125 -1.570312 1.03125 -1.34375 C 1.03125 -1.125 1.0625 -0.953125 1.125 -0.828125 C 1.207031 -0.679688 1.328125 -0.609375 1.484375 -0.609375 C 1.660156 -0.609375 1.789062 -0.679688 1.875 -0.828125 Z M 1.875 -0.828125 "/></g></g></g><g fill="#000000" fill-opacity="1"><g transform="translate(13.979174, 63.31715)"><g><path d="M 1.46875 0.046875 C 1.164062 0.046875 0.910156 -0.03125 0.703125 -0.1875 C 0.492188 -0.34375 0.351562 -0.550781 0.28125 -0.8125 C 0.226562 -0.976562 0.203125 -1.15625 0.203125 -1.34375 C 0.203125 -1.5625 0.226562 -1.75 0.28125 -1.90625 C 0.363281 -2.164062 0.507812 -2.367188 0.71875 -2.515625 C 0.925781 -2.660156 1.175781 -2.734375 1.46875 -2.734375 C 1.757812 -2.734375 2.003906 -2.660156 2.203125 -2.515625 C 2.410156 -2.367188 2.554688 -2.164062 2.640625 -1.90625 C 2.691406 -1.75 2.71875 -1.566406 2.71875 -1.359375 C 2.71875 -1.179688 2.691406 -1.003906 2.640625 -0.828125 C 2.554688 -0.554688 2.410156 -0.34375 2.203125 -0.1875 C 2.003906 -0.03125 1.757812 0.046875 1.46875 0.046875 Z M 1.46875 -0.59375 C 1.582031 -0.59375 1.675781 -0.625 1.75 -0.6875 C 1.832031 -0.757812 1.890625 -0.859375 1.921875 -0.984375 C 1.953125 -1.078125 1.96875 -1.195312 1.96875 -1.34375 C 1.96875 -1.5 1.953125 -1.625 1.921875 -1.71875 C 1.890625 -1.84375 1.832031 -1.9375 1.75 -2 C 1.675781 -2.0625 1.578125 -2.09375 1.453125 -2.09375 C 1.335938 -2.09375 1.238281 -2.0625 1.15625 -2 C 1.082031 -1.9375 1.023438 -1.84375 0.984375 -1.71875 C 0.960938 -1.625 0.953125 -1.5 0.953125 -1.34375 C 0.953125 -1.207031 0.960938 -1.085938 0.984375 -0.984375 C 1.023438 -0.859375 1.082031 -0.757812 1.15625 -0.6875 C 1.238281 -0.625 1.34375 -0.59375 1.46875 -0.59375 Z M 1.46875 -0.59375 "/></g></g></g><g fill="#000000" fill-opacity="1"><g transform="translate(16.807893, 63.31715)"><g><path d="M 1.34375 -2.734375 C 1.570312 -2.734375 1.773438 -2.691406 1.953125 -2.609375 C 2.128906 -2.535156 2.265625 -2.429688 2.359375 -2.296875 C 2.460938 -2.160156 2.515625 -2.007812 2.515625 -1.84375 L 2.515625 -0.09375 C 2.515625 -0.03125 2.488281 0 2.4375 0 L 1.875 0 C 1.8125 0 1.78125 -0.03125 1.78125 -0.09375 L 1.78125 -0.21875 C 1.78125 -0.226562 1.773438 -0.234375 1.765625 -0.234375 C 1.765625 -0.234375 1.757812 -0.226562 1.75 -0.21875 C 1.582031 -0.0390625 1.34375 0.046875 1.03125 0.046875 C 0.757812 0.046875 0.539062 -0.0195312 0.375 -0.15625 C 0.21875 -0.289062 0.140625 -0.488281 0.140625 -0.75 C 0.140625 -1.007812 0.234375 -1.210938 0.421875 -1.359375 C 0.609375 -1.515625 0.875 -1.59375 1.21875 -1.59375 L 1.75 -1.59375 C 1.769531 -1.59375 1.78125 -1.601562 1.78125 -1.625 L 1.78125 -1.734375 C 1.78125 -1.847656 1.742188 -1.9375 1.671875 -2 C 1.609375 -2.0625 1.503906 -2.09375 1.359375 -2.09375 C 1.253906 -2.09375 1.164062 -2.078125 1.09375 -2.046875 C 1.03125 -2.015625 0.988281 -1.96875 0.96875 -1.90625 C 0.945312 -1.851562 0.910156 -1.828125 0.859375 -1.828125 L 0.28125 -1.90625 C 0.25 -1.90625 0.222656 -1.910156 0.203125 -1.921875 C 0.191406 -1.941406 0.191406 -1.960938 0.203125 -1.984375 C 0.210938 -2.117188 0.269531 -2.242188 0.375 -2.359375 C 0.476562 -2.472656 0.613281 -2.5625 0.78125 -2.625 C 0.957031 -2.695312 1.144531 -2.734375 1.34375 -2.734375 Z M 1.25 -0.5 C 1.394531 -0.5 1.519531 -0.539062 1.625 -0.625 C 1.726562 -0.707031 1.78125 -0.8125 1.78125 -0.9375 L 1.78125 -1.125 C 1.78125 -1.144531 1.769531 -1.15625 1.75 -1.15625 L 1.375 -1.15625 C 1.21875 -1.15625 1.09375 -1.125 1 -1.0625 C 0.914062 -1 0.875 -0.914062 0.875 -0.8125 C 0.875 -0.71875 0.90625 -0.640625 0.96875 -0.578125 C 1.039062 -0.523438 1.132812 -0.5 1.25 -0.5 Z M 1.25 -0.5 "/></g></g></g><g fill="#000000" fill-opacity="1"><g transform="translate(19.484698, 63.31715)"><g><path d="M 1.609375 -2.734375 C 1.722656 -2.734375 1.816406 -2.710938 1.890625 -2.671875 C 1.929688 -2.648438 1.945312 -2.609375 1.9375 -2.546875 L 1.84375 -2 C 1.832031 -1.96875 1.816406 -1.945312 1.796875 -1.9375 C 1.785156 -1.9375 1.765625 -1.941406 1.734375 -1.953125 C 1.679688 -1.960938 1.628906 -1.96875 1.578125 -1.96875 C 1.554688 -1.96875 1.515625 -1.960938 1.453125 -1.953125 C 1.328125 -1.941406 1.222656 -1.894531 1.140625 -1.8125 C 1.054688 -1.738281 1.015625 -1.628906 1.015625 -1.484375 L 1.015625 -0.09375 C 1.015625 -0.03125 0.984375 0 0.921875 0 L 0.359375 0 C 0.296875 0 0.265625 -0.03125 0.265625 -0.09375 L 0.265625 -2.59375 C 0.265625 -2.65625 0.296875 -2.6875 0.359375 -2.6875 L 0.921875 -2.6875 C 0.984375 -2.6875 1.015625 -2.65625 1.015625 -2.59375 L 1.015625 -2.4375 C 1.015625 -2.425781 1.015625 -2.414062 1.015625 -2.40625 C 1.023438 -2.40625 1.035156 -2.410156 1.046875 -2.421875 C 1.179688 -2.628906 1.367188 -2.734375 1.609375 -2.734375 Z M 1.609375 -2.734375 "/></g></g></g><g fill="#000000" fill-opacity="1"><g transform="translate(21.401943, 63.31715)"><g><path d="M 1.890625 -3.578125 C 1.890625 -3.640625 1.921875 -3.671875 1.984375 -3.671875 L 2.546875 -3.671875 C 2.609375 -3.671875 2.640625 -3.640625 2.640625 -3.578125 L 2.640625 -0.09375 C 2.640625 -0.03125 2.609375 0 2.546875 0 L 1.984375 0 C 1.921875 0 1.890625 -0.03125 1.890625 -0.09375 L 1.890625 -0.234375 C 1.890625 -0.242188 1.882812 -0.25 1.875 -0.25 C 1.875 -0.25 1.867188 -0.242188 1.859375 -0.234375 C 1.710938 -0.046875 1.515625 0.046875 1.265625 0.046875 C 1.023438 0.046875 0.8125 -0.0195312 0.625 -0.15625 C 0.445312 -0.300781 0.320312 -0.492188 0.25 -0.734375 C 0.1875 -0.898438 0.15625 -1.109375 0.15625 -1.359375 C 0.15625 -1.617188 0.191406 -1.832031 0.265625 -2 C 0.335938 -2.226562 0.460938 -2.40625 0.640625 -2.53125 C 0.816406 -2.664062 1.023438 -2.734375 1.265625 -2.734375 C 1.523438 -2.734375 1.722656 -2.648438 1.859375 -2.484375 C 1.867188 -2.472656 1.875 -2.46875 1.875 -2.46875 C 1.882812 -2.46875 1.890625 -2.476562 1.890625 -2.5 Z M 1.78125 -0.828125 C 1.851562 -0.953125 1.890625 -1.125 1.890625 -1.34375 C 1.890625 -1.570312 1.851562 -1.753906 1.78125 -1.890625 C 1.695312 -2.023438 1.578125 -2.09375 1.421875 -2.09375 C 1.265625 -2.09375 1.144531 -2.023438 1.0625 -1.890625 C 0.976562 -1.753906 0.9375 -1.570312 0.9375 -1.34375 C 0.9375 -1.132812 0.972656 -0.960938 1.046875 -0.828125 C 1.128906 -0.679688 1.253906 -0.609375 1.421875 -0.609375 C 1.578125 -0.609375 1.695312 -0.679688 1.78125 -0.828125 Z M 1.78125 -0.828125 "/></g></g></g><g fill="#000000" fill-opacity="1"><g transform="translate(24.230662, 63.31715)"><g><path d="M 1.34375 0.03125 C 1.113281 0.03125 0.910156 0 0.734375 -0.0625 C 0.554688 -0.125 0.421875 -0.210938 0.328125 -0.328125 C 0.234375 -0.453125 0.1875 -0.59375 0.1875 -0.75 L 0.1875 -0.765625 C 0.1875 -0.828125 0.21875 -0.859375 0.28125 -0.859375 L 0.8125 -0.859375 C 0.863281 -0.859375 0.890625 -0.847656 0.890625 -0.828125 L 0.890625 -0.796875 C 0.890625 -0.710938 0.929688 -0.644531 1.015625 -0.59375 C 1.097656 -0.539062 1.207031 -0.515625 1.34375 -0.515625 C 1.457031 -0.515625 1.550781 -0.535156 1.625 -0.578125 C 1.695312 -0.628906 1.734375 -0.691406 1.734375 -0.765625 C 1.734375 -0.828125 1.703125 -0.875 1.640625 -0.90625 C 1.578125 -0.9375 1.472656 -0.96875 1.328125 -1 C 1.160156 -1.039062 1.035156 -1.082031 0.953125 -1.125 C 0.722656 -1.195312 0.539062 -1.289062 0.40625 -1.40625 C 0.28125 -1.519531 0.21875 -1.679688 0.21875 -1.890625 C 0.21875 -2.140625 0.316406 -2.34375 0.515625 -2.5 C 0.722656 -2.65625 0.988281 -2.734375 1.3125 -2.734375 C 1.539062 -2.734375 1.738281 -2.695312 1.90625 -2.625 C 2.070312 -2.550781 2.203125 -2.445312 2.296875 -2.3125 C 2.390625 -2.1875 2.4375 -2.039062 2.4375 -1.875 C 2.4375 -1.863281 2.425781 -1.847656 2.40625 -1.828125 C 2.394531 -1.816406 2.375 -1.8125 2.34375 -1.8125 L 1.828125 -1.8125 C 1.773438 -1.8125 1.75 -1.820312 1.75 -1.84375 L 1.75 -1.875 C 1.75 -1.957031 1.707031 -2.023438 1.625 -2.078125 C 1.550781 -2.128906 1.445312 -2.15625 1.3125 -2.15625 C 1.195312 -2.15625 1.101562 -2.132812 1.03125 -2.09375 C 0.957031 -2.050781 0.921875 -1.992188 0.921875 -1.921875 C 0.921875 -1.847656 0.957031 -1.789062 1.03125 -1.75 C 1.101562 -1.71875 1.21875 -1.6875 1.375 -1.65625 C 1.476562 -1.632812 1.578125 -1.609375 1.671875 -1.578125 C 1.921875 -1.492188 2.117188 -1.394531 2.265625 -1.28125 C 2.410156 -1.164062 2.484375 -1 2.484375 -0.78125 C 2.484375 -0.519531 2.378906 -0.316406 2.171875 -0.171875 C 1.960938 -0.0351562 1.6875 0.03125 1.34375 0.03125 Z M 1.34375 0.03125 "/></g></g></g><g fill="#000000" fill-opacity="1"><g transform="translate(26.776507, 63.31715)"><g/></g></g><g fill="#000000" fill-opacity="1"><g transform="translate(27.735132, 63.31715)"><g><path d="M 3.390625 -0.109375 C 3.410156 -0.0859375 3.421875 -0.0664062 3.421875 -0.046875 C 3.421875 -0.0351562 3.410156 -0.0234375 3.390625 -0.015625 C 3.378906 -0.00390625 3.363281 0 3.34375 0 L 2.71875 0 C 2.675781 0 2.640625 -0.015625 2.609375 -0.046875 L 2.421875 -0.25 C 2.410156 -0.269531 2.394531 -0.273438 2.375 -0.265625 C 2.050781 -0.0546875 1.703125 0.046875 1.328125 0.046875 C 1.003906 0.046875 0.734375 -0.03125 0.515625 -0.1875 C 0.304688 -0.34375 0.203125 -0.570312 0.203125 -0.875 C 0.203125 -1.101562 0.257812 -1.296875 0.375 -1.453125 C 0.5 -1.617188 0.664062 -1.769531 0.875 -1.90625 C 0.894531 -1.914062 0.898438 -1.929688 0.890625 -1.953125 C 0.710938 -2.148438 0.59375 -2.300781 0.53125 -2.40625 C 0.476562 -2.507812 0.453125 -2.617188 0.453125 -2.734375 C 0.453125 -3.023438 0.550781 -3.257812 0.75 -3.4375 C 0.945312 -3.613281 1.207031 -3.703125 1.53125 -3.703125 C 1.738281 -3.703125 1.925781 -3.660156 2.09375 -3.578125 C 2.269531 -3.503906 2.40625 -3.394531 2.5 -3.25 C 2.59375 -3.101562 2.640625 -2.9375 2.640625 -2.75 C 2.640625 -2.53125 2.578125 -2.347656 2.453125 -2.203125 C 2.328125 -2.054688 2.160156 -1.914062 1.953125 -1.78125 C 1.929688 -1.769531 1.925781 -1.757812 1.9375 -1.75 L 2.4375 -1.203125 C 2.4375 -1.191406 2.441406 -1.1875 2.453125 -1.1875 C 2.460938 -1.1875 2.46875 -1.191406 2.46875 -1.203125 C 2.582031 -1.304688 2.6875 -1.4375 2.78125 -1.59375 C 2.800781 -1.625 2.828125 -1.640625 2.859375 -1.640625 C 2.867188 -1.640625 2.882812 -1.632812 2.90625 -1.625 L 3.3125 -1.390625 C 3.34375 -1.378906 3.359375 -1.351562 3.359375 -1.3125 C 3.359375 -1.300781 3.351562 -1.285156 3.34375 -1.265625 C 3.207031 -1.054688 3.0625 -0.867188 2.90625 -0.703125 C 2.894531 -0.679688 2.898438 -0.660156 2.921875 -0.640625 C 3.046875 -0.484375 3.203125 -0.304688 3.390625 -0.109375 Z M 1.546875 -3.03125 C 1.441406 -3.03125 1.359375 -3.003906 1.296875 -2.953125 C 1.234375 -2.898438 1.203125 -2.828125 1.203125 -2.734375 C 1.203125 -2.691406 1.21875 -2.640625 1.25 -2.578125 C 1.28125 -2.515625 1.359375 -2.414062 1.484375 -2.28125 C 1.492188 -2.257812 1.507812 -2.253906 1.53125 -2.265625 C 1.65625 -2.335938 1.75 -2.410156 1.8125 -2.484375 C 1.875 -2.554688 1.90625 -2.640625 1.90625 -2.734375 C 1.90625 -2.828125 1.867188 -2.898438 1.796875 -2.953125 C 1.734375 -3.003906 1.648438 -3.03125 1.546875 -3.03125 Z M 1.359375 -0.578125 C 1.535156 -0.578125 1.722656 -0.632812 1.921875 -0.75 C 1.941406 -0.757812 1.941406 -0.773438 1.921875 -0.796875 C 1.804688 -0.929688 1.710938 -1.035156 1.640625 -1.109375 C 1.640625 -1.109375 1.585938 -1.164062 1.484375 -1.28125 L 1.359375 -1.421875 C 1.335938 -1.429688 1.320312 -1.429688 1.3125 -1.421875 C 1.0625 -1.265625 0.9375 -1.09375 0.9375 -0.90625 C 0.9375 -0.800781 0.972656 -0.71875 1.046875 -0.65625 C 1.117188 -0.601562 1.222656 -0.578125 1.359375 -0.578125 Z M 1.359375 -0.578125 "/></g></g></g><g fill="#000000" fill-opacity="1"><g transform="translate(31.333889, 63.31715)"><g/></g></g><g fill="#000000" fill-opacity="1"><g transform="translate(32.292512, 63.31715)"><g><path d="M 1.5625 0.046875 C 1.289062 0.046875 1.050781 0 0.84375 -0.09375 C 0.632812 -0.1875 0.472656 -0.3125 0.359375 -0.46875 C 0.253906 -0.632812 0.203125 -0.828125 0.203125 -1.046875 L 0.203125 -1.140625 C 0.203125 -1.203125 0.226562 -1.234375 0.28125 -1.234375 L 0.84375 -1.234375 C 0.894531 -1.234375 0.921875 -1.207031 0.921875 -1.15625 L 0.921875 -1.09375 C 0.921875 -0.945312 0.984375 -0.828125 1.109375 -0.734375 C 1.242188 -0.640625 1.414062 -0.59375 1.625 -0.59375 C 1.800781 -0.59375 1.929688 -0.628906 2.015625 -0.703125 C 2.109375 -0.785156 2.15625 -0.882812 2.15625 -1 C 2.15625 -1.082031 2.128906 -1.148438 2.078125 -1.203125 C 2.023438 -1.265625 1.953125 -1.316406 1.859375 -1.359375 C 1.765625 -1.398438 1.609375 -1.460938 1.390625 -1.546875 C 1.160156 -1.628906 0.960938 -1.710938 0.796875 -1.796875 C 0.640625 -1.878906 0.503906 -1.988281 0.390625 -2.125 C 0.273438 -2.269531 0.21875 -2.453125 0.21875 -2.671875 C 0.21875 -2.878906 0.269531 -3.0625 0.375 -3.21875 C 0.488281 -3.375 0.640625 -3.492188 0.828125 -3.578125 C 1.023438 -3.660156 1.25 -3.703125 1.5 -3.703125 C 1.769531 -3.703125 2.007812 -3.65625 2.21875 -3.5625 C 2.425781 -3.46875 2.585938 -3.335938 2.703125 -3.171875 C 2.816406 -3.003906 2.875 -2.804688 2.875 -2.578125 L 2.875 -2.53125 C 2.875 -2.46875 2.847656 -2.4375 2.796875 -2.4375 L 2.234375 -2.4375 C 2.179688 -2.4375 2.15625 -2.453125 2.15625 -2.484375 L 2.15625 -2.546875 C 2.15625 -2.691406 2.09375 -2.816406 1.96875 -2.921875 C 1.851562 -3.023438 1.6875 -3.078125 1.46875 -3.078125 C 1.300781 -3.078125 1.171875 -3.039062 1.078125 -2.96875 C 0.992188 -2.894531 0.953125 -2.800781 0.953125 -2.6875 C 0.953125 -2.59375 0.976562 -2.515625 1.03125 -2.453125 C 1.082031 -2.398438 1.160156 -2.347656 1.265625 -2.296875 C 1.367188 -2.242188 1.535156 -2.179688 1.765625 -2.109375 C 2.003906 -2.015625 2.195312 -1.929688 2.34375 -1.859375 C 2.488281 -1.796875 2.617188 -1.691406 2.734375 -1.546875 C 2.847656 -1.410156 2.90625 -1.234375 2.90625 -1.015625 C 2.90625 -0.804688 2.847656 -0.617188 2.734375 -0.453125 C 2.617188 -0.296875 2.460938 -0.171875 2.265625 -0.078125 C 2.066406 0.00390625 1.832031 0.046875 1.5625 0.046875 Z M 1.5625 0.046875 "/></g></g></g><g fill="#000000" fill-opacity="1"><g transform="translate(35.304571, 63.31715)"><g><path d="M 1.453125 0.046875 C 1.171875 0.046875 0.925781 -0.0195312 0.71875 -0.15625 C 0.519531 -0.300781 0.378906 -0.5 0.296875 -0.75 C 0.234375 -0.914062 0.203125 -1.117188 0.203125 -1.359375 C 0.203125 -1.597656 0.234375 -1.800781 0.296875 -1.96875 C 0.378906 -2.207031 0.519531 -2.394531 0.71875 -2.53125 C 0.925781 -2.664062 1.171875 -2.734375 1.453125 -2.734375 C 1.734375 -2.734375 1.976562 -2.660156 2.1875 -2.515625 C 2.394531 -2.378906 2.535156 -2.207031 2.609375 -2 C 2.628906 -1.945312 2.644531 -1.890625 2.65625 -1.828125 C 2.65625 -1.773438 2.628906 -1.742188 2.578125 -1.734375 L 2.03125 -1.65625 L 2 -1.65625 C 1.957031 -1.65625 1.929688 -1.675781 1.921875 -1.71875 L 1.90625 -1.78125 C 1.882812 -1.875 1.832031 -1.945312 1.75 -2 C 1.664062 -2.0625 1.566406 -2.09375 1.453125 -2.09375 C 1.335938 -2.09375 1.238281 -2.066406 1.15625 -2.015625 C 1.082031 -1.960938 1.03125 -1.882812 1 -1.78125 C 0.96875 -1.675781 0.953125 -1.535156 0.953125 -1.359375 C 0.953125 -1.171875 0.96875 -1.023438 1 -0.921875 C 1.03125 -0.816406 1.082031 -0.734375 1.15625 -0.671875 C 1.238281 -0.617188 1.335938 -0.59375 1.453125 -0.59375 C 1.554688 -0.59375 1.648438 -0.617188 1.734375 -0.671875 C 1.816406 -0.734375 1.875 -0.8125 1.90625 -0.90625 L 1.90625 -0.9375 C 1.914062 -0.945312 1.929688 -0.960938 1.953125 -0.984375 C 1.972656 -1.003906 1.992188 -1.015625 2.015625 -1.015625 L 2.5625 -0.921875 C 2.59375 -0.921875 2.613281 -0.910156 2.625 -0.890625 C 2.632812 -0.867188 2.640625 -0.847656 2.640625 -0.828125 C 2.628906 -0.773438 2.617188 -0.734375 2.609375 -0.703125 C 2.535156 -0.472656 2.394531 -0.289062 2.1875 -0.15625 C 1.976562 -0.0195312 1.734375 0.046875 1.453125 0.046875 Z M 1.453125 0.046875 "/></g></g></g><g fill="#000000" fill-opacity="1"><g transform="translate(38.02852, 63.31715)"><g><path d="M 1.671875 -2.734375 C 1.953125 -2.734375 2.175781 -2.644531 2.34375 -2.46875 C 2.519531 -2.300781 2.609375 -2.070312 2.609375 -1.78125 L 2.609375 -0.09375 C 2.609375 -0.03125 2.578125 0 2.515625 0 L 1.953125 0 C 1.898438 0 1.875 -0.03125 1.875 -0.09375 L 1.875 -1.625 C 1.875 -1.769531 1.832031 -1.882812 1.75 -1.96875 C 1.675781 -2.050781 1.570312 -2.09375 1.4375 -2.09375 C 1.3125 -2.09375 1.207031 -2.050781 1.125 -1.96875 C 1.050781 -1.882812 1.015625 -1.769531 1.015625 -1.625 L 1.015625 -0.09375 C 1.015625 -0.03125 0.984375 0 0.921875 0 L 0.359375 0 C 0.296875 0 0.265625 -0.03125 0.265625 -0.09375 L 0.265625 -3.578125 C 0.265625 -3.640625 0.296875 -3.671875 0.359375 -3.671875 L 0.921875 -3.671875 C 0.984375 -3.671875 1.015625 -3.640625 1.015625 -3.578125 L 1.015625 -2.453125 C 1.015625 -2.441406 1.015625 -2.429688 1.015625 -2.421875 C 1.023438 -2.421875 1.035156 -2.425781 1.046875 -2.4375 C 1.179688 -2.632812 1.390625 -2.734375 1.671875 -2.734375 Z M 1.671875 -2.734375 "/></g></g></g><g fill="#000000" fill-opacity="1"><g transform="translate(40.80485, 63.31715)"><g><path d="M 1.578125 -0.578125 C 1.804688 -0.585938 1.976562 -0.671875 2.09375 -0.828125 C 2.113281 -0.847656 2.140625 -0.859375 2.171875 -0.859375 C 2.191406 -0.859375 2.207031 -0.847656 2.21875 -0.828125 L 2.515625 -0.546875 C 2.535156 -0.523438 2.546875 -0.503906 2.546875 -0.484375 C 2.546875 -0.453125 2.539062 -0.429688 2.53125 -0.421875 C 2.414062 -0.273438 2.269531 -0.160156 2.09375 -0.078125 C 1.914062 0.00390625 1.71875 0.046875 1.5 0.046875 C 1.175781 0.046875 0.910156 -0.0351562 0.703125 -0.203125 C 0.492188 -0.367188 0.351562 -0.59375 0.28125 -0.875 C 0.238281 -1.03125 0.21875 -1.191406 0.21875 -1.359375 C 0.21875 -1.566406 0.234375 -1.738281 0.265625 -1.875 C 0.335938 -2.132812 0.476562 -2.34375 0.6875 -2.5 C 0.90625 -2.65625 1.15625 -2.734375 1.4375 -2.734375 C 1.78125 -2.734375 2.050781 -2.628906 2.25 -2.421875 C 2.457031 -2.222656 2.59375 -1.941406 2.65625 -1.578125 C 2.664062 -1.460938 2.675781 -1.335938 2.6875 -1.203125 C 2.6875 -1.140625 2.65625 -1.109375 2.59375 -1.109375 L 0.984375 -1.109375 C 0.960938 -1.109375 0.953125 -1.097656 0.953125 -1.078125 C 0.960938 -1.003906 0.972656 -0.953125 0.984375 -0.921875 C 1.023438 -0.804688 1.09375 -0.71875 1.1875 -0.65625 C 1.289062 -0.601562 1.421875 -0.578125 1.578125 -0.578125 Z M 1.4375 -2.09375 C 1.320312 -2.09375 1.226562 -2.066406 1.15625 -2.015625 C 1.082031 -1.960938 1.03125 -1.890625 1 -1.796875 C 0.976562 -1.722656 0.96875 -1.675781 0.96875 -1.65625 C 0.96875 -1.632812 0.976562 -1.625 1 -1.625 L 1.890625 -1.625 C 1.898438 -1.625 1.90625 -1.632812 1.90625 -1.65625 C 1.90625 -1.6875 1.898438 -1.722656 1.890625 -1.765625 C 1.859375 -1.867188 1.800781 -1.945312 1.71875 -2 C 1.644531 -2.0625 1.550781 -2.09375 1.4375 -2.09375 Z M 1.4375 -2.09375 "/></g></g></g><g fill="#000000" fill-opacity="1"><g transform="translate(43.58118, 63.31715)"><g><path d="M 1.890625 -3.578125 C 1.890625 -3.640625 1.921875 -3.671875 1.984375 -3.671875 L 2.546875 -3.671875 C 2.609375 -3.671875 2.640625 -3.640625 2.640625 -3.578125 L 2.640625 -0.09375 C 2.640625 -0.03125 2.609375 0 2.546875 0 L 1.984375 0 C 1.921875 0 1.890625 -0.03125 1.890625 -0.09375 L 1.890625 -0.234375 C 1.890625 -0.242188 1.882812 -0.25 1.875 -0.25 C 1.875 -0.25 1.867188 -0.242188 1.859375 -0.234375 C 1.710938 -0.046875 1.515625 0.046875 1.265625 0.046875 C 1.023438 0.046875 0.8125 -0.0195312 0.625 -0.15625 C 0.445312 -0.300781 0.320312 -0.492188 0.25 -0.734375 C 0.1875 -0.898438 0.15625 -1.109375 0.15625 -1.359375 C 0.15625 -1.617188 0.191406 -1.832031 0.265625 -2 C 0.335938 -2.226562 0.460938 -2.40625 0.640625 -2.53125 C 0.816406 -2.664062 1.023438 -2.734375 1.265625 -2.734375 C 1.523438 -2.734375 1.722656 -2.648438 1.859375 -2.484375 C 1.867188 -2.472656 1.875 -2.46875 1.875 -2.46875 C 1.882812 -2.46875 1.890625 -2.476562 1.890625 -2.5 Z M 1.78125 -0.828125 C 1.851562 -0.953125 1.890625 -1.125 1.890625 -1.34375 C 1.890625 -1.570312 1.851562 -1.753906 1.78125 -1.890625 C 1.695312 -2.023438 1.578125 -2.09375 1.421875 -2.09375 C 1.265625 -2.09375 1.144531 -2.023438 1.0625 -1.890625 C 0.976562 -1.753906 0.9375 -1.570312 0.9375 -1.34375 C 0.9375 -1.132812 0.972656 -0.960938 1.046875 -0.828125 C 1.128906 -0.679688 1.253906 -0.609375 1.421875 -0.609375 C 1.578125 -0.609375 1.695312 -0.679688 1.78125 -0.828125 Z M 1.78125 -0.828125 "/></g></g></g><g fill="#000000" fill-opacity="1"><g transform="translate(46.409897, 63.31715)"><g><path d="M 1.84375 -2.59375 C 1.84375 -2.65625 1.875 -2.6875 1.9375 -2.6875 L 2.484375 -2.6875 C 2.546875 -2.6875 2.578125 -2.65625 2.578125 -2.59375 L 2.578125 -0.09375 C 2.578125 -0.03125 2.546875 0 2.484375 0 L 1.9375 0 C 1.875 0 1.84375 -0.03125 1.84375 -0.09375 L 1.84375 -0.234375 C 1.84375 -0.242188 1.835938 -0.25 1.828125 -0.25 C 1.816406 -0.25 1.8125 -0.242188 1.8125 -0.234375 C 1.675781 -0.0546875 1.457031 0.03125 1.15625 0.03125 C 0.894531 0.03125 0.675781 -0.046875 0.5 -0.203125 C 0.332031 -0.359375 0.25 -0.582031 0.25 -0.875 L 0.25 -2.59375 C 0.25 -2.65625 0.28125 -2.6875 0.34375 -2.6875 L 0.890625 -2.6875 C 0.953125 -2.6875 0.984375 -2.65625 0.984375 -2.59375 L 0.984375 -1.0625 C 0.984375 -0.925781 1.019531 -0.8125 1.09375 -0.71875 C 1.164062 -0.632812 1.269531 -0.59375 1.40625 -0.59375 C 1.53125 -0.59375 1.628906 -0.628906 1.703125 -0.703125 C 1.773438 -0.773438 1.820312 -0.867188 1.84375 -0.984375 Z M 1.84375 -2.59375 "/></g></g></g><g fill="#000000" fill-opacity="1"><g transform="translate(49.17575, 63.31715)"><g><path d="M 0.375 0 C 0.3125 0 0.28125 -0.03125 0.28125 -0.09375 L 0.28125 -3.578125 C 0.28125 -3.640625 0.3125 -3.671875 0.375 -3.671875 L 0.9375 -3.671875 C 0.988281 -3.671875 1.015625 -3.640625 1.015625 -3.578125 L 1.015625 -0.09375 C 1.015625 -0.03125 0.988281 0 0.9375 0 Z M 0.375 0 "/></g></g></g><g fill="#000000" fill-opacity="1"><g transform="translate(50.39105, 63.31715)"><g><path d="M 1.578125 -0.578125 C 1.804688 -0.585938 1.976562 -0.671875 2.09375 -0.828125 C 2.113281 -0.847656 2.140625 -0.859375 2.171875 -0.859375 C 2.191406 -0.859375 2.207031 -0.847656 2.21875 -0.828125 L 2.515625 -0.546875 C 2.535156 -0.523438 2.546875 -0.503906 2.546875 -0.484375 C 2.546875 -0.453125 2.539062 -0.429688 2.53125 -0.421875 C 2.414062 -0.273438 2.269531 -0.160156 2.09375 -0.078125 C 1.914062 0.00390625 1.71875 0.046875 1.5 0.046875 C 1.175781 0.046875 0.910156 -0.0351562 0.703125 -0.203125 C 0.492188 -0.367188 0.351562 -0.59375 0.28125 -0.875 C 0.238281 -1.03125 0.21875 -1.191406 0.21875 -1.359375 C 0.21875 -1.566406 0.234375 -1.738281 0.265625 -1.875 C 0.335938 -2.132812 0.476562 -2.34375 0.6875 -2.5 C 0.90625 -2.65625 1.15625 -2.734375 1.4375 -2.734375 C 1.78125 -2.734375 2.050781 -2.628906 2.25 -2.421875 C 2.457031 -2.222656 2.59375 -1.941406 2.65625 -1.578125 C 2.664062 -1.460938 2.675781 -1.335938 2.6875 -1.203125 C 2.6875 -1.140625 2.65625 -1.109375 2.59375 -1.109375 L 0.984375 -1.109375 C 0.960938 -1.109375 0.953125 -1.097656 0.953125 -1.078125 C 0.960938 -1.003906 0.972656 -0.953125 0.984375 -0.921875 C 1.023438 -0.804688 1.09375 -0.71875 1.1875 -0.65625 C 1.289062 -0.601562 1.421875 -0.578125 1.578125 -0.578125 Z M 1.4375 -2.09375 C 1.320312 -2.09375 1.226562 -2.066406 1.15625 -2.015625 C 1.082031 -1.960938 1.03125 -1.890625 1 -1.796875 C 0.976562 -1.722656 0.96875 -1.675781 0.96875 -1.65625 C 0.96875 -1.632812 0.976562 -1.625 1 -1.625 L 1.890625 -1.625 C 1.898438 -1.625 1.90625 -1.632812 1.90625 -1.65625 C 1.90625 -1.6875 1.898438 -1.722656 1.890625 -1.765625 C 1.859375 -1.867188 1.800781 -1.945312 1.71875 -2 C 1.644531 -2.0625 1.550781 -2.09375 1.4375 -2.09375 Z M 1.4375 -2.09375 "/></g></g></g><g fill="#000000" fill-opacity="1"><g transform="translate(53.16738, 63.31715)"><g><path d="M 1.890625 -3.578125 C 1.890625 -3.640625 1.921875 -3.671875 1.984375 -3.671875 L 2.546875 -3.671875 C 2.609375 -3.671875 2.640625 -3.640625 2.640625 -3.578125 L 2.640625 -0.09375 C 2.640625 -0.03125 2.609375 0 2.546875 0 L 1.984375 0 C 1.921875 0 1.890625 -0.03125 1.890625 -0.09375 L 1.890625 -0.234375 C 1.890625 -0.242188 1.882812 -0.25 1.875 -0.25 C 1.875 -0.25 1.867188 -0.242188 1.859375 -0.234375 C 1.710938 -0.046875 1.515625 0.046875 1.265625 0.046875 C 1.023438 0.046875 0.8125 -0.0195312 0.625 -0.15625 C 0.445312 -0.300781 0.320312 -0.492188 0.25 -0.734375 C 0.1875 -0.898438 0.15625 -1.109375 0.15625 -1.359375 C 0.15625 -1.617188 0.191406 -1.832031 0.265625 -2 C 0.335938 -2.226562 0.460938 -2.40625 0.640625 -2.53125 C 0.816406 -2.664062 1.023438 -2.734375 1.265625 -2.734375 C 1.523438 -2.734375 1.722656 -2.648438 1.859375 -2.484375 C 1.867188 -2.472656 1.875 -2.46875 1.875 -2.46875 C 1.882812 -2.46875 1.890625 -2.476562 1.890625 -2.5 Z M 1.78125 -0.828125 C 1.851562 -0.953125 1.890625 -1.125 1.890625 -1.34375 C 1.890625 -1.570312 1.851562 -1.753906 1.78125 -1.890625 C 1.695312 -2.023438 1.578125 -2.09375 1.421875 -2.09375 C 1.265625 -2.09375 1.144531 -2.023438 1.0625 -1.890625 C 0.976562 -1.753906 0.9375 -1.570312 0.9375 -1.34375 C 0.9375 -1.132812 0.972656 -0.960938 1.046875 -0.828125 C 1.128906 -0.679688 1.253906 -0.609375 1.421875 -0.609375 C 1.578125 -0.609375 1.695312 -0.679688 1.78125 -0.828125 Z M 1.78125 -0.828125 "/></g></g></g><g fill="#000000" fill-opacity="1"><g transform="translate(55.996101, 63.31715)"><g/></g></g><g fill="#000000" fill-opacity="1"><g transform="translate(56.954728, 63.31715)"><g><path d="M 2.34375 0 C 2.300781 0 2.269531 -0.0195312 2.25 -0.0625 L 1.609375 -1.484375 C 1.597656 -1.503906 1.582031 -1.515625 1.5625 -1.515625 L 1.09375 -1.515625 C 1.070312 -1.515625 1.0625 -1.503906 1.0625 -1.484375 L 1.0625 -0.09375 C 1.0625 -0.03125 1.03125 0 0.96875 0 L 0.40625 0 C 0.34375 0 0.3125 -0.03125 0.3125 -0.09375 L 0.3125 -3.578125 C 0.3125 -3.640625 0.34375 -3.671875 0.40625 -3.671875 L 1.875 -3.671875 C 2.101562 -3.671875 2.300781 -3.625 2.46875 -3.53125 C 2.632812 -3.4375 2.765625 -3.304688 2.859375 -3.140625 C 2.953125 -2.972656 3 -2.78125 3 -2.5625 C 3 -2.320312 2.9375 -2.117188 2.8125 -1.953125 C 2.695312 -1.785156 2.535156 -1.664062 2.328125 -1.59375 C 2.316406 -1.59375 2.304688 -1.585938 2.296875 -1.578125 C 2.296875 -1.566406 2.300781 -1.554688 2.3125 -1.546875 L 3 -0.109375 C 3.007812 -0.0859375 3.015625 -0.0703125 3.015625 -0.0625 C 3.015625 -0.0390625 3.007812 -0.0234375 3 -0.015625 C 2.988281 -0.00390625 2.96875 0 2.9375 0 Z M 1.09375 -3.03125 C 1.070312 -3.03125 1.0625 -3.019531 1.0625 -3 L 1.0625 -2.125 C 1.0625 -2.101562 1.070312 -2.09375 1.09375 -2.09375 L 1.765625 -2.09375 C 1.910156 -2.09375 2.03125 -2.132812 2.125 -2.21875 C 2.21875 -2.300781 2.265625 -2.410156 2.265625 -2.546875 C 2.265625 -2.691406 2.21875 -2.804688 2.125 -2.890625 C 2.03125 -2.984375 1.910156 -3.03125 1.765625 -3.03125 Z M 1.09375 -3.03125 "/></g></g></g><g fill="#000000" fill-opacity="1"><g transform="translate(60.082036, 63.31715)"><g><path d="M 1.578125 -0.578125 C 1.804688 -0.585938 1.976562 -0.671875 2.09375 -0.828125 C 2.113281 -0.847656 2.140625 -0.859375 2.171875 -0.859375 C 2.191406 -0.859375 2.207031 -0.847656 2.21875 -0.828125 L 2.515625 -0.546875 C 2.535156 -0.523438 2.546875 -0.503906 2.546875 -0.484375 C 2.546875 -0.453125 2.539062 -0.429688 2.53125 -0.421875 C 2.414062 -0.273438 2.269531 -0.160156 2.09375 -0.078125 C 1.914062 0.00390625 1.71875 0.046875 1.5 0.046875 C 1.175781 0.046875 0.910156 -0.0351562 0.703125 -0.203125 C 0.492188 -0.367188 0.351562 -0.59375 0.28125 -0.875 C 0.238281 -1.03125 0.21875 -1.191406 0.21875 -1.359375 C 0.21875 -1.566406 0.234375 -1.738281 0.265625 -1.875 C 0.335938 -2.132812 0.476562 -2.34375 0.6875 -2.5 C 0.90625 -2.65625 1.15625 -2.734375 1.4375 -2.734375 C 1.78125 -2.734375 2.050781 -2.628906 2.25 -2.421875 C 2.457031 -2.222656 2.59375 -1.941406 2.65625 -1.578125 C 2.664062 -1.460938 2.675781 -1.335938 2.6875 -1.203125 C 2.6875 -1.140625 2.65625 -1.109375 2.59375 -1.109375 L 0.984375 -1.109375 C 0.960938 -1.109375 0.953125 -1.097656 0.953125 -1.078125 C 0.960938 -1.003906 0.972656 -0.953125 0.984375 -0.921875 C 1.023438 -0.804688 1.09375 -0.71875 1.1875 -0.65625 C 1.289062 -0.601562 1.421875 -0.578125 1.578125 -0.578125 Z M 1.4375 -2.09375 C 1.320312 -2.09375 1.226562 -2.066406 1.15625 -2.015625 C 1.082031 -1.960938 1.03125 -1.890625 1 -1.796875 C 0.976562 -1.722656 0.96875 -1.675781 0.96875 -1.65625 C 0.96875 -1.632812 0.976562 -1.625 1 -1.625 L 1.890625 -1.625 C 1.898438 -1.625 1.90625 -1.632812 1.90625 -1.65625 C 1.90625 -1.6875 1.898438 -1.722656 1.890625 -1.765625 C 1.859375 -1.867188 1.800781 -1.945312 1.71875 -2 C 1.644531 -2.0625 1.550781 -2.09375 1.4375 -2.09375 Z M 1.4375 -2.09375 "/></g></g></g><g fill="#000000" fill-opacity="1"><g transform="translate(62.858369, 63.31715)"><g><path d="M 2.6875 -1.96875 C 2.738281 -1.800781 2.765625 -1.585938 2.765625 -1.328125 C 2.765625 -1.078125 2.734375 -0.863281 2.671875 -0.6875 C 2.585938 -0.457031 2.457031 -0.273438 2.28125 -0.140625 C 2.113281 -0.015625 1.910156 0.046875 1.671875 0.046875 C 1.410156 0.046875 1.210938 -0.0351562 1.078125 -0.203125 C 1.066406 -0.210938 1.054688 -0.21875 1.046875 -0.21875 C 1.035156 -0.21875 1.03125 -0.207031 1.03125 -0.1875 L 1.03125 0.890625 C 1.03125 0.941406 1.003906 0.96875 0.953125 0.96875 L 0.390625 0.96875 C 0.328125 0.96875 0.296875 0.941406 0.296875 0.890625 L 0.296875 -2.59375 C 0.296875 -2.65625 0.328125 -2.6875 0.390625 -2.6875 L 0.953125 -2.6875 C 1.003906 -2.6875 1.03125 -2.65625 1.03125 -2.59375 L 1.03125 -2.453125 C 1.03125 -2.441406 1.035156 -2.4375 1.046875 -2.4375 C 1.054688 -2.4375 1.066406 -2.441406 1.078125 -2.453125 C 1.210938 -2.640625 1.410156 -2.734375 1.671875 -2.734375 C 1.910156 -2.734375 2.117188 -2.660156 2.296875 -2.515625 C 2.484375 -2.378906 2.613281 -2.195312 2.6875 -1.96875 Z M 1.875 -0.796875 C 1.957031 -0.941406 2 -1.125 2 -1.34375 C 2 -1.550781 1.960938 -1.722656 1.890625 -1.859375 C 1.804688 -2.015625 1.675781 -2.09375 1.5 -2.09375 C 1.34375 -2.09375 1.222656 -2.015625 1.140625 -1.859375 C 1.078125 -1.734375 1.046875 -1.5625 1.046875 -1.34375 C 1.046875 -1.113281 1.082031 -0.9375 1.15625 -0.8125 C 1.238281 -0.675781 1.351562 -0.609375 1.5 -0.609375 C 1.664062 -0.609375 1.789062 -0.671875 1.875 -0.796875 Z M 1.875 -0.796875 "/></g></g></g><g fill="#000000" fill-opacity="1"><g transform="translate(65.697568, 63.31715)"><g><path d="M 1.46875 0.046875 C 1.164062 0.046875 0.910156 -0.03125 0.703125 -0.1875 C 0.492188 -0.34375 0.351562 -0.550781 0.28125 -0.8125 C 0.226562 -0.976562 0.203125 -1.15625 0.203125 -1.34375 C 0.203125 -1.5625 0.226562 -1.75 0.28125 -1.90625 C 0.363281 -2.164062 0.507812 -2.367188 0.71875 -2.515625 C 0.925781 -2.660156 1.175781 -2.734375 1.46875 -2.734375 C 1.757812 -2.734375 2.003906 -2.660156 2.203125 -2.515625 C 2.410156 -2.367188 2.554688 -2.164062 2.640625 -1.90625 C 2.691406 -1.75 2.71875 -1.566406 2.71875 -1.359375 C 2.71875 -1.179688 2.691406 -1.003906 2.640625 -0.828125 C 2.554688 -0.554688 2.410156 -0.34375 2.203125 -0.1875 C 2.003906 -0.03125 1.757812 0.046875 1.46875 0.046875 Z M 1.46875 -0.59375 C 1.582031 -0.59375 1.675781 -0.625 1.75 -0.6875 C 1.832031 -0.757812 1.890625 -0.859375 1.921875 -0.984375 C 1.953125 -1.078125 1.96875 -1.195312 1.96875 -1.34375 C 1.96875 -1.5 1.953125 -1.625 1.921875 -1.71875 C 1.890625 -1.84375 1.832031 -1.9375 1.75 -2 C 1.675781 -2.0625 1.578125 -2.09375 1.453125 -2.09375 C 1.335938 -2.09375 1.238281 -2.0625 1.15625 -2 C 1.082031 -1.9375 1.023438 -1.84375 0.984375 -1.71875 C 0.960938 -1.625 0.953125 -1.5 0.953125 -1.34375 C 0.953125 -1.207031 0.960938 -1.085938 0.984375 -0.984375 C 1.023438 -0.859375 1.082031 -0.757812 1.15625 -0.6875 C 1.238281 -0.625 1.34375 -0.59375 1.46875 -0.59375 Z M 1.46875 -0.59375 "/></g></g></g><g fill="#000000" fill-opacity="1"><g transform="translate(68.526289, 63.31715)"><g><path d="M 1.609375 -2.734375 C 1.722656 -2.734375 1.816406 -2.710938 1.890625 -2.671875 C 1.929688 -2.648438 1.945312 -2.609375 1.9375 -2.546875 L 1.84375 -2 C 1.832031 -1.96875 1.816406 -1.945312 1.796875 -1.9375 C 1.785156 -1.9375 1.765625 -1.941406 1.734375 -1.953125 C 1.679688 -1.960938 1.628906 -1.96875 1.578125 -1.96875 C 1.554688 -1.96875 1.515625 -1.960938 1.453125 -1.953125 C 1.328125 -1.941406 1.222656 -1.894531 1.140625 -1.8125 C 1.054688 -1.738281 1.015625 -1.628906 1.015625 -1.484375 L 1.015625 -0.09375 C 1.015625 -0.03125 0.984375 0 0.921875 0 L 0.359375 0 C 0.296875 0 0.265625 -0.03125 0.265625 -0.09375 L 0.265625 -2.59375 C 0.265625 -2.65625 0.296875 -2.6875 0.359375 -2.6875 L 0.921875 -2.6875 C 0.984375 -2.6875 1.015625 -2.65625 1.015625 -2.59375 L 1.015625 -2.4375 C 1.015625 -2.425781 1.015625 -2.414062 1.015625 -2.40625 C 1.023438 -2.40625 1.035156 -2.410156 1.046875 -2.421875 C 1.179688 -2.628906 1.367188 -2.734375 1.609375 -2.734375 Z M 1.609375 -2.734375 "/></g></g></g><g fill="#000000" fill-opacity="1"><g transform="translate(70.443536, 63.31715)"><g><path d="M 1.8125 -2.1875 C 1.8125 -2.125 1.785156 -2.09375 1.734375 -2.09375 L 1.25 -2.09375 C 1.226562 -2.09375 1.21875 -2.082031 1.21875 -2.0625 L 1.21875 -0.984375 C 1.21875 -0.867188 1.238281 -0.785156 1.28125 -0.734375 C 1.332031 -0.679688 1.410156 -0.65625 1.515625 -0.65625 L 1.671875 -0.65625 C 1.734375 -0.65625 1.765625 -0.625 1.765625 -0.5625 L 1.765625 -0.109375 C 1.765625 -0.0546875 1.734375 -0.0234375 1.671875 -0.015625 C 1.535156 -0.00390625 1.4375 0 1.375 0 C 1.09375 0 0.878906 -0.046875 0.734375 -0.140625 C 0.585938 -0.242188 0.515625 -0.429688 0.515625 -0.703125 L 0.515625 -2.0625 C 0.515625 -2.082031 0.503906 -2.09375 0.484375 -2.09375 L 0.21875 -2.09375 C 0.15625 -2.09375 0.125 -2.125 0.125 -2.1875 L 0.125 -2.59375 C 0.125 -2.65625 0.15625 -2.6875 0.21875 -2.6875 L 0.484375 -2.6875 C 0.503906 -2.6875 0.515625 -2.695312 0.515625 -2.71875 L 0.515625 -3.3125 C 0.515625 -3.375 0.546875 -3.40625 0.609375 -3.40625 L 1.140625 -3.40625 C 1.191406 -3.40625 1.21875 -3.375 1.21875 -3.3125 L 1.21875 -2.71875 C 1.21875 -2.695312 1.226562 -2.6875 1.25 -2.6875 L 1.734375 -2.6875 C 1.785156 -2.6875 1.8125 -2.65625 1.8125 -2.59375 Z M 1.8125 -2.1875 "/></g></g></g><g fill="#000000" fill-opacity="1"><g transform="translate(72.345063, 63.31715)"><g><path d="M 1.34375 0.03125 C 1.113281 0.03125 0.910156 0 0.734375 -0.0625 C 0.554688 -0.125 0.421875 -0.210938 0.328125 -0.328125 C 0.234375 -0.453125 0.1875 -0.59375 0.1875 -0.75 L 0.1875 -0.765625 C 0.1875 -0.828125 0.21875 -0.859375 0.28125 -0.859375 L 0.8125 -0.859375 C 0.863281 -0.859375 0.890625 -0.847656 0.890625 -0.828125 L 0.890625 -0.796875 C 0.890625 -0.710938 0.929688 -0.644531 1.015625 -0.59375 C 1.097656 -0.539062 1.207031 -0.515625 1.34375 -0.515625 C 1.457031 -0.515625 1.550781 -0.535156 1.625 -0.578125 C 1.695312 -0.628906 1.734375 -0.691406 1.734375 -0.765625 C 1.734375 -0.828125 1.703125 -0.875 1.640625 -0.90625 C 1.578125 -0.9375 1.472656 -0.96875 1.328125 -1 C 1.160156 -1.039062 1.035156 -1.082031 0.953125 -1.125 C 0.722656 -1.195312 0.539062 -1.289062 0.40625 -1.40625 C 0.28125 -1.519531 0.21875 -1.679688 0.21875 -1.890625 C 0.21875 -2.140625 0.316406 -2.34375 0.515625 -2.5 C 0.722656 -2.65625 0.988281 -2.734375 1.3125 -2.734375 C 1.539062 -2.734375 1.738281 -2.695312 1.90625 -2.625 C 2.070312 -2.550781 2.203125 -2.445312 2.296875 -2.3125 C 2.390625 -2.1875 2.4375 -2.039062 2.4375 -1.875 C 2.4375 -1.863281 2.425781 -1.847656 2.40625 -1.828125 C 2.394531 -1.816406 2.375 -1.8125 2.34375 -1.8125 L 1.828125 -1.8125 C 1.773438 -1.8125 1.75 -1.820312 1.75 -1.84375 L 1.75 -1.875 C 1.75 -1.957031 1.707031 -2.023438 1.625 -2.078125 C 1.550781 -2.128906 1.445312 -2.15625 1.3125 -2.15625 C 1.195312 -2.15625 1.101562 -2.132812 1.03125 -2.09375 C 0.957031 -2.050781 0.921875 -1.992188 0.921875 -1.921875 C 0.921875 -1.847656 0.957031 -1.789062 1.03125 -1.75 C 1.101562 -1.71875 1.21875 -1.6875 1.375 -1.65625 C 1.476562 -1.632812 1.578125 -1.609375 1.671875 -1.578125 C 1.921875 -1.492188 2.117188 -1.394531 2.265625 -1.28125 C 2.410156 -1.164062 2.484375 -1 2.484375 -0.78125 C 2.484375 -0.519531 2.378906 -0.316406 2.171875 -0.171875 C 1.960938 -0.0351562 1.6875 0.03125 1.34375 0.03125 Z M 1.34375 0.03125 "/></g></g></g><g clip-path="url(#26ee5fb364)"><path fill="#ff914d" d="M 21.035156 32.332031 L 36.535156 32.332031 C 36.960938 32.332031 37.308594 31.988281 37.308594 31.5625 L 37.308594 21.132812 C 37.308594 20.707031 36.960938 20.359375 36.535156 20.359375 L 21.035156 20.359375 C 20.609375 20.359375 20.265625 20.707031 20.265625 21.132812 L 20.265625 31.5625 C 20.265625 31.988281 20.609375 32.332031 21.035156 32.332031 Z M 36.535156 33.3125 L 21.035156 33.3125 C 20.070312 33.3125 19.28125 32.527344 19.28125 31.5625 L 19.28125 21.132812 C 19.28125 20.167969 20.070312 19.378906 21.035156 19.378906 L 36.535156 19.378906 C 37.503906 19.378906 38.289062 20.167969 38.289062 21.132812 L 38.289062 31.5625 C 38.289062 32.527344 37.503906 33.3125 36.535156 33.3125 Z M 37.984375 44.503906 L 23.929688 44.503906 C 23.660156 44.503906 23.441406 44.726562 23.441406 44.996094 C 23.441406 45.265625 23.660156 45.484375 23.929688 45.484375 L 37.984375 45.484375 C 38.257812 45.484375 38.476562 45.265625 38.476562 44.996094 C 38.476562 44.726562 38.257812 44.503906 37.984375 44.503906 Z M 51.433594 39.828125 L 23.5625 39.828125 C 23.292969 39.828125 23.074219 40.050781 23.074219 40.320312 C 23.074219 40.589844 23.292969 40.808594 23.5625 40.808594 L 51.433594 40.808594 C 51.703125 40.808594 51.925781 40.589844 51.925781 40.320312 C 51.925781 40.050781 51.703125 39.828125 51.433594 39.828125 Z M 50.414062 33.3125 C 50.683594 33.3125 50.902344 33.09375 50.902344 32.824219 C 50.902344 32.554688 50.683594 32.332031 50.414062 32.332031 L 40.453125 32.332031 C 40.179688 32.332031 39.960938 32.554688 39.960938 32.824219 C 39.960938 33.09375 40.179688 33.3125 40.453125 33.3125 Z M 53.792969 28.359375 L 40.453125 28.359375 C 40.179688 28.359375 39.960938 28.578125 39.960938 28.847656 C 39.960938 29.121094 40.179688 29.339844 40.453125 29.339844 L 53.792969 29.339844 C 54.0625 29.339844 54.285156 29.121094 54.285156 28.847656 C 54.285156 28.578125 54.0625 28.359375 53.792969 28.359375 Z M 30.328125 11.285156 C 30.328125 11.640625 30.617188 11.929688 30.96875 11.929688 C 31.324219 11.929688 31.613281 11.640625 31.613281 11.285156 C 31.613281 10.933594 31.324219 10.644531 30.96875 10.644531 C 30.617188 10.644531 30.328125 10.933594 30.328125 11.285156 Z M 29.347656 11.285156 C 29.347656 10.390625 30.074219 9.664062 30.96875 9.664062 C 31.863281 9.664062 32.59375 10.390625 32.59375 11.285156 C 32.59375 12.179688 31.863281 12.910156 30.96875 12.910156 C 30.074219 12.910156 29.347656 12.179688 29.347656 11.285156 Z M 26.078125 11.285156 C 26.078125 11.640625 26.363281 11.929688 26.71875 11.929688 C 27.074219 11.929688 27.359375 11.640625 27.359375 11.285156 C 27.359375 10.933594 27.074219 10.644531 26.71875 10.644531 C 26.363281 10.644531 26.078125 10.933594 26.078125 11.285156 Z M 25.097656 11.285156 C 25.097656 10.390625 25.824219 9.664062 26.71875 9.664062 C 27.613281 9.664062 28.34375 10.390625 28.34375 11.285156 C 28.34375 12.179688 27.613281 12.910156 26.71875 12.910156 C 25.824219 12.910156 25.097656 12.179688 25.097656 11.285156 Z M 21.824219 11.285156 C 21.824219 11.640625 22.113281 11.929688 22.46875 11.929688 C 22.820312 11.929688 23.109375 11.640625 23.109375 11.285156 C 23.109375 10.933594 22.820312 10.644531 22.46875 10.644531 C 22.113281 10.644531 21.824219 10.933594 21.824219 11.285156 Z M 20.84375 11.285156 C 20.84375 10.390625 21.574219 9.664062 22.46875 9.664062 C 23.363281 9.664062 24.089844 10.390625 24.089844 11.285156 C 24.089844 12.179688 23.363281 12.910156 22.46875 12.910156 C 21.574219 12.910156 20.84375 12.179688 20.84375 11.285156 Z M 57.867188 47.808594 L 57.867188 15.148438 L 17.132812 15.148438 L 17.132812 47.460938 C 17.132812 48.429688 17.921875 49.214844 18.894531 49.214844 L 56.460938 49.214844 C 57.234375 49.214844 57.867188 48.585938 57.867188 47.808594 Z M 17.132812 10.242188 L 17.132812 14.167969 L 57.867188 14.167969 L 57.867188 10.609375 C 57.867188 9.4375 56.910156 8.480469 55.738281 8.480469 L 18.894531 8.480469 C 17.921875 8.480469 17.132812 9.269531 17.132812 10.242188 Z M 58.847656 14.675781 L 58.847656 47.808594 C 58.847656 49.125 57.777344 50.199219 56.460938 50.199219 L 18.894531 50.199219 C 17.382812 50.199219 16.148438 48.96875 16.148438 47.460938 L 16.148438 10.242188 C 16.148438 8.730469 17.382812 7.5 18.894531 7.5 L 55.738281 7.5 C 57.453125 7.5 58.847656 8.894531 58.847656 10.609375 L 58.847656 14.636719 C 58.847656 14.644531 58.851562 14.652344 58.851562 14.65625 C 58.851562 14.664062 58.847656 14.671875 58.847656 14.675781 Z M 54.285156 32.824219 C 54.285156 33.09375 54.0625 33.3125 53.792969 33.3125 L 52.960938 33.3125 C 52.691406 33.3125 52.472656 33.09375 52.472656 32.824219 C 52.472656 32.554688 52.691406 32.332031 52.960938 32.332031 L 53.792969 32.332031 C 54.0625 32.332031 54.285156 32.554688 54.285156 32.824219 " fill-opacity="1" fill-rule="nonzero"/></g></svg>