<svg id="Layer_1" data-name="Layer 1" xmlns="http://www.w3.org/2000/svg" viewBox="0 0 1000 1000"><defs><style>.cls-1{fill:#fff;}.cls-2{fill:#4eb7ce;}.cls-3{fill:#f8c300;}.cls-4{opacity:0.1;}</style></defs><title>Artboard 1</title><path class="cls-1" d="M492.15,888.93c11.46,0,22.8-.54,34-1.49H458.2C469.4,888.39,480.72,888.93,492.15,888.93Z"/><path d="M934.23,527.65l-39.55,77.81-38.52,7.37-1.44,4.53A381.55,381.55,0,0,1,541.33,877.75l-7,.9-8.53.73-.35,0c-11,1-22.06,1.47-33.29,1.47s-22.28-.52-33.26-1.47l-.32,0-6.35-.51-7.06-.88a380.8,380.8,0,0,1-254.3-144.92l-1.79-2.28-106-23.22,8.73,15.6c78.38,140.21,228.29,235.05,400.36,235.05,242.45,0,440.85-188.11,457.28-426.38Z"/><path d="M859,225C775.42,113.55,642.19,41.45,492.15,41.45,274.69,41.48,92.64,192.83,45.57,396l14.87,5.71L94.5,340.17l50.19,3,2.33-4.92A381.31,381.31,0,0,1,492.15,118.83c105.36,0,200.36,42.56,269.45,111.58,2.45,2.45,4.82,4.9,7.21,7.46l2.5,2.61,97-3.18Z"/><polygon class="cls-2" points="57.58 519.98 119.61 648.68 465.82 716.12 466.65 680.33 466.65 439.4 120.06 410.14 57.58 519.98"/><polygon class="cls-3" points="520.97 602.09 868.83 543.88 934.29 416.92 874.74 305.41 521.79 325.77 521.61 380.07 521.25 495.16 520.97 602.09"/><path d="M977,411.69,893.52,250.93,519.91,263.18V662.45L885,592.64ZM521.61,380.07l.18-54.3,353-20.36,59.55,111.51-65.46,127L521,602.09l.29-106.93Z"/><polygon points="466.65 680.33 465.82 716.12 119.61 648.68 57.58 519.98 120.06 410.14 466.65 439.4 466.65 376.83 102.73 355.14 15 513.64 102.13 696.96 466.65 776.81 466.65 680.33"/><polygon points="519.91 263.18 519.91 229.08 466.65 229.08 466.65 376.83 466.65 439.4 466.65 680.33 466.65 776.81 466.65 897.64 519.91 897.64 519.91 662.45 519.91 263.18"/><g class="cls-4"><path class="cls-1" d="M521.79,326.53l-.18,54.32,2.74.17-3.09,114.9-.17,67.14c169.83-29.45,316.82-83.31,413.09-145.6L874.74,306.17Z"/><path class="cls-1" d="M893.52,250.93,519.91,263.18v299.3c.41-.08.76-.13,1.18-.19l.17-67.13,3.09-114.91-2.74-.16.18-54.32,353-20.36L934.18,416.7q17.9-11.55,33.27-23.41Z"/><path class="cls-1" d="M120.06,410.12l346.59,29.3V376.8L102.74,355.14,15,513.64l21,44.3q21.29,5.85,44.83,10.43L57.58,520Z"/><path class="cls-1" d="M519.91,228.84H466.65V439.18L120.06,409.87,57.58,519.74l23.3,48.39c104.19,20.38,239.48,22.56,385.77,2.39q16.55-2.29,33.26-4.95c6.7-1.07,13.36-2.21,20-3.33V228.84Z"/></g></svg>