<?xml version="1.0" encoding="utf-8"?>
<!-- Generator: Adobe Illustrator 22.1.0, SVG Export Plug-In . SVG Version: 6.00 Build 0)  -->
<svg version="1.1" id="Layer_1" xmlns="http://www.w3.org/2000/svg" xmlns:xlink="http://www.w3.org/1999/xlink" x="0px" y="0px"
	 viewBox="0 0 104.5 25" style="enable-background:new 0 0 104.5 25;" xml:space="preserve">
<g>
	<g>
		<g>
			<path d="M4.8,11.5h7.3v1.7H4.8v11.7H0.4V9.8C0.4,7,1.6,5.1,4,4c1-0.5,2.2-0.7,3.7-0.8h5.8v1.7H7.7C5.7,5,4.8,6.7,4.8,9.8V11.5z"
				/>
			<path d="M31.1,24.9h-7.3c-1.4-0.1-2.6-0.4-3.7-0.8c-2.4-1.1-3.7-3.1-3.7-5.9c0-2.8,1.2-4.7,3.7-5.9c1-0.5,2.2-0.7,3.7-0.8h7.3
				c1.4,0.1,2.6,0.4,3.7,0.8c2.4,1.1,3.7,3.1,3.7,5.9c0,2.8-1.2,4.7-3.7,5.9C33.7,24.5,32.5,24.8,31.1,24.9z M31.1,13.2h-7.3
				c-1.9,0.2-2.9,1.9-2.9,5c0,3.1,1,4.8,2.9,5h7.3c1.9-0.2,2.9-1.9,2.9-5C34,15.1,33,13.4,31.1,13.2z"/>
			<path d="M45.7,18.2v6.7h-4.4v-6.7c0-2.8,1.2-4.7,3.7-5.9c1-0.5,2.2-0.7,3.7-0.8h5.8v1.7h-5.8C46.7,13.4,45.7,15.1,45.7,18.2z"/>
			<path d="M64.7,24.9c-1.4-0.1-2.6-0.4-3.7-0.8c-2.4-1.1-3.7-3.1-3.7-5.9c0-2.8,1.2-4.7,3.7-5.9c1-0.5,2.2-0.7,3.7-0.8h11.7v1.7
				H64.7c-1.9,0.2-2.9,1.9-2.9,5c0,3.1,1,4.8,2.9,5H72c0.4,0,0.8-0.2,1.2-0.4c0.8-0.6,1.4-1.5,1.6-2.9h-4.3v-1.7h8.8
				c0,2.8-1.2,4.7-3.7,5.9c-1,0.5-2.2,0.7-3.7,0.8H64.7z"/>
			<path d="M89.5,23.2h11.7v1.7H89.5c-1.4-0.1-2.6-0.4-3.7-0.8c-2.4-1.1-3.7-3.1-3.7-5.9c0-2.8,1.2-4.7,3.7-5.9
				c1-0.5,2.2-0.7,3.7-0.8h7.3c1.4,0.1,2.6,0.4,3.7,0.8c2.4,1.1,3.7,3.1,3.7,5.9H86.6C86.6,21.3,87.6,23,89.5,23.2z M96.8,13.2h-7.3
				c-0.4,0-0.8,0.2-1.2,0.4c-0.8,0.6-1.4,1.5-1.6,2.9h12.9C99.3,14.5,98.4,13.3,96.8,13.2z"/>
		</g>
	</g>
	<g>
		<g>
			<path d="M16.1,3.9l2.5-3h-3.6V0.1h4.7V1l-2.4,2.8c1.3,0,2.5,0.9,2.5,2.5c0,1.3-0.6,2.3-1.5,3c-0.7,0.5-1.5,0.8-3.2,0.8V9.1
				c1.4,0,2-0.2,2.5-0.5C18.4,8.1,19,7.3,19,6.3c0-1.2-1-1.6-1.9-1.6c-0.3,0-0.7,0.1-1,0.1V3.9z"/>
		</g>
	</g>
</g>
</svg>
