<svg xmlns="http://www.w3.org/2000/svg" xmlns:xlink="http://www.w3.org/1999/xlink" id="Layer_1" viewBox="0 0 288 122.333"><style>.st0{fill:#fff}.st2,.st3{clip-path:url(#SVGID_2_);fill:#73cbcb}.st3{fill:#72cbca}.st5{fill:#70caca}.st5,.st57,.st59,.st63,.st8{clip-path:url(#SVGID_2_)}.st8{fill:#6dc9c9}.st57{fill:#00b5b2}.st59{fill:#00b3b0}.st63{fill:#00b0ad}.st120,.st121,.st70{clip-path:url(#SVGID_4_)}.st70{fill:#6fcac9}.st120{fill:#00bab8}.st121{fill:#00b9b7}.st126{fill:#00b7b4}.st126,.st128,.st129{clip-path:url(#SVGID_4_)}.st128{fill:#00b6b3}.st129{fill:#00b5b2}</style><path d="M33.858 102.699c2.026 2.725 4.664 4.908 7.912 6.55 3.25 1.641 6.865 2.463 10.848 2.463 3.493 0 6.462-.508 8.908-1.52 2.445-1.013 4.418-2.393 5.921-4.14 1.502-1.747 2.584-3.79 3.25-6.13.662-2.342.995-4.84.995-7.493v-8.804h-.21c-2.236 3.353-4.962 5.73-8.174 7.127-3.215 1.398-6.603 2.096-10.166 2.096-3.564 0-6.9-.63-10.009-1.887-3.11-1.258-5.817-2.987-8.122-5.187-2.306-2.202-4.123-4.838-5.45-7.913-1.328-3.074-1.991-6.393-1.991-9.956s.629-6.882 1.886-9.957c1.258-3.074 2.987-5.764 5.188-8.07 2.2-2.305 4.82-4.103 7.86-5.397 3.04-1.292 6.376-1.94 10.01-1.94 1.466 0 3.02.142 4.663.42 1.64.28 3.283.77 4.925 1.468 1.641.698 3.266 1.66 4.874 2.881 1.606 1.224 3.108 2.778 4.507 4.664h.209V43.8h6.917v48.63c0 2.654-.332 5.483-.996 8.488-.664 3.003-1.956 5.765-3.877 8.28-1.923 2.515-4.595 4.612-8.018 6.289-3.424 1.676-7.896 2.514-13.415 2.514-4.891 0-9.259-.804-13.1-2.41-3.843-1.608-7.336-4.088-10.48-7.441l5.135-5.45zm1.257-35.004c0 2.585.472 5.014 1.416 7.283.943 2.272 2.235 4.264 3.877 5.974a18.75 18.75 0 0 0 5.764 4.088c2.201 1.013 4.594 1.52 7.18 1.52 2.515 0 4.907-.454 7.179-1.363a19.02 19.02 0 0 0 6.025-3.825c1.746-1.64 3.092-3.616 4.036-5.922.943-2.305 1.378-4.89 1.31-7.755 0-2.584-.42-5.013-1.258-7.284-.838-2.27-2.062-4.261-3.668-5.974-1.608-1.711-3.564-3.074-5.87-4.087-2.305-1.012-4.89-1.52-7.754-1.52-2.586 0-4.979.508-7.18 1.52a18.803 18.803 0 0 0-5.764 4.087c-1.642 1.713-2.934 3.704-3.877 5.974-.944 2.271-1.416 4.7-1.416 7.284zM106.8 92.848h-7.545V18.647H122.1c7.546 0 13.502 1.642 17.87 4.925 4.366 3.285 6.55 8.246 6.55 14.883 0 5.171-1.624 9.52-4.873 13.048-3.25 3.529-7.949 5.572-14.096 6.13l21.38 35.215h-9.224l-20.331-34.48H106.8v34.48zm0-41.398h13.415c3.354 0 6.2-.348 8.541-1.048 2.34-.697 4.21-1.624 5.608-2.777 1.396-1.153 2.41-2.515 3.039-4.087.629-1.572.943-3.266.943-5.083 0-1.746-.314-3.407-.943-4.978-.629-1.573-1.643-2.952-3.04-4.14-1.398-1.187-3.266-2.113-5.607-2.778-2.341-.663-5.187-.995-8.54-.995H106.8V51.45zm55.126-32.803h21.59c7.545 0 13.501 1.642 17.868 4.925 4.366 3.285 6.55 8.246 6.55 14.883 0 6.638-2.184 11.616-6.55 14.934-4.367 3.32-10.323 4.978-17.868 4.978h-14.044v34.48h-7.546v-74.2zm7.546 32.803h12.158c3.353 0 6.199-.348 8.54-1.048 2.34-.697 4.21-1.624 5.608-2.777 1.397-1.153 2.41-2.515 3.039-4.087.629-1.572.943-3.266.943-5.083 0-1.746-.314-3.407-.943-4.978-.63-1.573-1.642-2.952-3.039-4.14-1.399-1.187-3.267-2.113-5.607-2.778-2.342-.663-5.189-.995-8.541-.995h-12.158V51.45zm114.234 29.66c-1.258 1.886-2.813 3.668-4.663 5.345-1.853 1.677-3.966 3.127-6.341 4.349-2.376 1.223-4.944 2.183-7.703 2.882-2.76.698-5.678 1.048-8.752 1.048-5.52 0-10.637-.98-15.353-2.934-4.717-1.955-8.803-4.664-12.262-8.123-3.458-3.459-6.167-7.562-8.122-12.314-1.958-4.75-2.935-9.956-2.935-15.616s.977-10.863 2.935-15.615c1.955-4.751 4.664-8.856 8.122-12.315s7.545-6.165 12.262-8.122c4.716-1.956 9.834-2.935 15.353-2.935 4.612 0 9.224.909 13.835 2.725 4.61 1.818 8.558 4.821 11.842 9.013l-6.602 4.926c-.77-1.187-1.818-2.375-3.145-3.563-1.328-1.188-2.847-2.235-4.558-3.144a28.463 28.463 0 0 0-5.502-2.201 21.29 21.29 0 0 0-5.87-.839c-4.751 0-9.013.875-12.785 2.62-3.773 1.748-6.97 4.088-9.59 7.022-2.62 2.935-4.63 6.34-6.027 10.219-1.397 3.877-2.095 7.948-2.095 12.21 0 4.262.698 8.331 2.096 12.208 1.396 3.879 3.406 7.284 6.027 10.219 2.62 2.935 5.816 5.276 9.589 7.022 3.772 1.747 8.034 2.62 12.785 2.62 1.956 0 3.895-.174 5.817-.524a24.167 24.167 0 0 0 5.66-1.781c1.85-.839 3.597-1.974 5.24-3.407 1.641-1.43 3.16-3.23 4.558-5.397l6.184 4.402z" class="st0"/><defs><path id="SVGID_1_" d="M8.46 9.703h27.535v27.535H8.46z" transform="rotate(-135.213 22.227 23.47)"/></defs><clipPath id="SVGID_2_"><use xlink:href="#SVGID_1_" overflow="visible"/></clipPath><path fill="#74cbcb" d="m3.102 4-.345 3.05V4z" clip-path="url(#SVGID_2_)"/><path d="m3.557 4-.8 7.078V7.049L3.102 4zM4.012 4 2.757 15.107v-4.029L3.557 4z" class="st2"/><path d="m4.467 4-1.71 15.135v-4.028L4.012 4zM4.923 4 2.757 23.164v-4.029L4.467 4z" class="st3"/><path fill="#71caca" d="m5.378 4-2.62 23.193v-4.029L4.922 4z" clip-path="url(#SVGID_2_)"/><path d="M5.833 4 2.757 31.222v-4.03L5.377 4z" class="st5"/><path d="m6.288 4-3.53 31.25v-4.028L5.832 4z" class="st5"/><path fill="#6fcac9" d="M6.743 4 2.757 39.279V35.25L6.288 4z" clip-path="url(#SVGID_2_)"/><path fill="#6ecac9" d="M7.199 4 2.8 42.916l-.044-.005V39.28L6.743 4z" clip-path="url(#SVGID_2_)"/><path d="m7.654 4-4.4 38.94h-.242l-.21-.024L7.197 4z" class="st8"/><path d="m8.109 4-4.4 38.94h-.455L7.654 4z" class="st8"/><path fill="#6cc9c8" d="m8.564 4-4.4 38.94H3.71L8.11 4z" clip-path="url(#SVGID_2_)"/><path fill="#6bc9c8" d="m9.02 4-4.4 38.94h-.456L8.564 4z" clip-path="url(#SVGID_2_)"/><path fill="#6ac9c8" d="m9.475 4-4.4 38.94H4.62L9.02 4z" clip-path="url(#SVGID_2_)"/><path fill="#69c8c8" d="m9.93 4-4.4 38.94h-.455L9.475 4z" clip-path="url(#SVGID_2_)"/><path fill="#68c8c7" d="m10.385 4-4.4 38.94H5.53L9.93 4z" clip-path="url(#SVGID_2_)"/><path fill="#67c8c7" d="m10.84 4-4.4 38.94h-.455L10.385 4z" clip-path="url(#SVGID_2_)"/><path fill="#66c7c7" d="m11.295 4-4.4 38.94H6.44L10.84 4z" clip-path="url(#SVGID_2_)"/><path fill="#65c7c6" d="m11.75 4-4.4 38.94h-.454L11.296 4z" clip-path="url(#SVGID_2_)"/><path fill="#64c7c6" d="m12.206 4-4.4 38.94h-.455L11.75 4z" clip-path="url(#SVGID_2_)"/><path fill="#62c7c6" d="m12.661 4-4.4 38.94h-.455L12.206 4z" clip-path="url(#SVGID_2_)"/><path fill="#61c6c6" d="m13.116 4-4.4 38.94h-.455L12.661 4z" clip-path="url(#SVGID_2_)"/><path fill="#60c6c5" d="m13.572 4-4.4 38.94h-.456L13.116 4z" clip-path="url(#SVGID_2_)"/><path fill="#5ec6c5" d="m14.027 4-4.4 38.94h-.455L13.572 4z" clip-path="url(#SVGID_2_)"/><path fill="#5dc5c5" d="m14.482 4-4.4 38.94h-.455L14.027 4z" clip-path="url(#SVGID_2_)"/><path fill="#5bc5c4" d="m14.937 4-4.4 38.94h-.455L14.482 4z" clip-path="url(#SVGID_2_)"/><path fill="#5ac5c4" d="m15.392 4-4.4 38.94h-.455L14.937 4z" clip-path="url(#SVGID_2_)"/><path fill="#58c4c3" d="m15.848 4-4.4 38.94h-.456L15.392 4z" clip-path="url(#SVGID_2_)"/><path fill="#57c4c3" d="m16.303 4-4.4 38.94h-.455L15.848 4z" clip-path="url(#SVGID_2_)"/><path fill="#55c4c3" d="m16.758 4-4.4 38.94h-.455L16.303 4z" clip-path="url(#SVGID_2_)"/><path fill="#53c3c2" d="m17.213 4-4.4 38.94h-.455L16.758 4z" clip-path="url(#SVGID_2_)"/><path fill="#51c3c2" d="m17.668 4-4.4 38.94h-.455L17.213 4z" clip-path="url(#SVGID_2_)"/><path fill="#4fc3c1" d="m18.123 4-4.4 38.94h-.454L17.669 4z" clip-path="url(#SVGID_2_)"/><path fill="#4dc2c1" d="m18.579 4-4.4 38.94h-.455L18.124 4z" clip-path="url(#SVGID_2_)"/><path fill="#4bc2c0" d="m19.034 4-4.4 38.94h-.455L18.579 4z" clip-path="url(#SVGID_2_)"/><path fill="#49c1c0" d="m19.49 4-4.4 38.94h-.456L19.034 4z" clip-path="url(#SVGID_2_)"/><path fill="#46c1c0" d="m19.944 4-4.4 38.94h-.455L19.49 4z" clip-path="url(#SVGID_2_)"/><path fill="#44c0bf" d="M20.4 4 16 42.94h-.455L19.945 4z" clip-path="url(#SVGID_2_)"/><path fill="#41c0bf" d="m20.855 4-4.4 38.94H16L20.4 4z" clip-path="url(#SVGID_2_)"/><path fill="#3ec0be" d="m21.31 4-4.4 38.94h-.455L20.855 4z" clip-path="url(#SVGID_2_)"/><path fill="#3bbfbe" d="m21.765 4-4.4 38.94h-.455L21.31 4z" clip-path="url(#SVGID_2_)"/><path fill="#38bfbd" d="m22.22 4-4.4 38.94h-.455L21.765 4z" clip-path="url(#SVGID_2_)"/><path fill="#34bebd" d="m22.676 4-4.4 38.94h-.455L22.22 4z" clip-path="url(#SVGID_2_)"/><path fill="#30bebc" d="m23.13 4-4.4 38.94h-.454L22.676 4z" clip-path="url(#SVGID_2_)"/><path fill="#2cbdbb" d="m23.586 4-4.4 38.94h-.455L23.13 4z" clip-path="url(#SVGID_2_)"/><path fill="#27bdbb" d="m24.041 4-4.4 38.94h-.455L23.586 4z" clip-path="url(#SVGID_2_)"/><path fill="#21bcba" d="m24.496 4-4.4 38.94h-.455L24.041 4z" clip-path="url(#SVGID_2_)"/><path fill="#1abcba" d="m24.952 4-4.4 38.94h-.455L24.496 4z" clip-path="url(#SVGID_2_)"/><path fill="#10bbb9" d="m25.407 4-4.4 38.94h-.455L24.952 4z" clip-path="url(#SVGID_2_)"/><path fill="#00bbb9" d="m25.862 4-4.4 38.94h-.455L25.407 4z" clip-path="url(#SVGID_2_)"/><path fill="#00bab8" d="m26.317 4-4.4 38.94h-.455L25.862 4z" clip-path="url(#SVGID_2_)"/><path fill="#00bab7" d="m26.772 4-4.4 38.94h-.455L26.317 4z" clip-path="url(#SVGID_2_)"/><path fill="#00b9b7" d="m27.228 4-4.4 38.94h-.455L26.773 4z" clip-path="url(#SVGID_2_)"/><path fill="#00b9b6" d="m27.683 4-4.4 38.94h-.455L27.228 4z" clip-path="url(#SVGID_2_)"/><path fill="#00b8b6" d="m28.138 4-4.4 38.94h-.455L27.683 4z" clip-path="url(#SVGID_2_)"/><path fill="#00b7b5" d="m28.593 4-4.4 38.94h-.455L28.138 4z" clip-path="url(#SVGID_2_)"/><path fill="#00b7b4" d="m29.049 4-4.4 38.94h-.456L28.593 4z" clip-path="url(#SVGID_2_)"/><path fill="#00b6b4" d="m29.504 4-4.4 38.94h-.455L29.049 4z" clip-path="url(#SVGID_2_)"/><path fill="#00b6b3" d="m29.959 4-4.4 38.94h-.455L29.504 4z" clip-path="url(#SVGID_2_)"/><path d="m30.414 4-4.4 38.94h-.455L29.959 4z" class="st57"/><path d="m30.87 4-4.4 38.94h-.456L30.414 4z" class="st57"/><path fill="#00b4b1" d="m31.325 4-4.4 38.94h-.456L30.87 4z" clip-path="url(#SVGID_2_)"/><path d="m31.78 4-4.4 38.94h-.455L31.325 4z" class="st59"/><path d="m32.235 4-4.4 38.94h-.455L31.78 4z" class="st59"/><path fill="#00b2af" d="m32.69 4-4.4 38.94h-.455L32.235 4z" clip-path="url(#SVGID_2_)"/><path fill="#00b2ae" d="m33.145 4-4.4 38.94h-.455L32.69 4z" clip-path="url(#SVGID_2_)"/><path fill="#00b1ad" d="m33.6 4-4.4 38.94h-.455L33.145 4z" clip-path="url(#SVGID_2_)"/><path d="m34.056 4-4.4 38.94h-.455L33.6 4z" class="st63"/><path d="m41.442 4 .255.029V42.94H29.656L34.056 4z" class="st63"/><defs><path id="SVGID_3_" d="M67.358 15.165h16.15v16.15h-16.15z" transform="rotate(-135.213 75.433 23.24)"/></defs><clipPath id="SVGID_4_"><use xlink:href="#SVGID_3_" overflow="visible"/></clipPath><path fill="#74cbcb" d="m86.853 18.491-.31-6.671h.31z" clip-path="url(#SVGID_4_)"/><path fill="#73cbcb" d="m86.853 25.501-.637-13.681h.327l.31 6.671z" clip-path="url(#SVGID_4_)"/><path fill="#73cbca" d="M86.853 32.511 85.89 11.82h.326l.637 13.681z" clip-path="url(#SVGID_4_)"/><path fill="#72cbca" d="m86.627 34.66-1.064-22.84h.327l.963 20.691v2.15z" clip-path="url(#SVGID_4_)"/><path fill="#71caca" d="m86.3 34.66-1.063-22.84h.326l1.064 22.84z" clip-path="url(#SVGID_4_)"/><path fill="#70caca" d="M85.974 34.66 84.91 11.82h.327L86.3 34.66z" clip-path="url(#SVGID_4_)"/><path d="m85.648 34.66-1.064-22.84h.326l1.064 22.84z" class="st70"/><path d="m85.321 34.66-1.064-22.84h.327l1.064 22.84z" class="st70"/><path fill="#6ec9c9" d="M84.995 34.66 83.93 11.82h.326l1.064 22.84z" clip-path="url(#SVGID_4_)"/><path fill="#6dc9c9" d="m84.668 34.66-1.064-22.84h.327l1.064 22.84z" clip-path="url(#SVGID_4_)"/><path fill="#6cc9c8" d="m84.342 34.66-1.064-22.84h.326l1.064 22.84z" clip-path="url(#SVGID_4_)"/><path fill="#6bc9c8" d="m84.015 34.66-1.064-22.84h.327l1.064 22.84z" clip-path="url(#SVGID_4_)"/><path fill="#6ac8c8" d="m83.689 34.66-1.064-22.84h.326l1.064 22.84z" clip-path="url(#SVGID_4_)"/><path fill="#69c8c8" d="m83.362 34.66-1.064-22.84h.327l1.064 22.84z" clip-path="url(#SVGID_4_)"/><path fill="#68c8c7" d="m83.036 34.66-1.064-22.84h.326l1.064 22.84z" clip-path="url(#SVGID_4_)"/><path fill="#67c8c7" d="m82.709 34.66-1.064-22.84h.327l1.064 22.84z" clip-path="url(#SVGID_4_)"/><path fill="#66c7c7" d="m82.383 34.66-1.064-22.84h.326l1.064 22.84z" clip-path="url(#SVGID_4_)"/><path fill="#65c7c6" d="m82.056 34.66-1.064-22.84h.327l1.064 22.84z" clip-path="url(#SVGID_4_)"/><path fill="#63c7c6" d="m81.73 34.66-1.064-22.84h.326l1.064 22.84z" clip-path="url(#SVGID_4_)"/><path fill="#62c7c6" d="m81.403 34.66-1.064-22.84h.327l1.064 22.84z" clip-path="url(#SVGID_4_)"/><path fill="#61c6c6" d="m81.077 34.66-1.064-22.84h.326l1.064 22.84z" clip-path="url(#SVGID_4_)"/><path fill="#60c6c5" d="m80.75 34.66-1.064-22.84h.327l1.064 22.84z" clip-path="url(#SVGID_4_)"/><path fill="#5fc6c5" d="M80.424 34.66 79.36 11.82h.326l1.064 22.84z" clip-path="url(#SVGID_4_)"/><path fill="#5dc5c5" d="m80.097 34.66-1.064-22.84h.327l1.064 22.84z" clip-path="url(#SVGID_4_)"/><path fill="#5cc5c4" d="m79.77 34.66-1.063-22.84h.326l1.064 22.84z" clip-path="url(#SVGID_4_)"/><path fill="#5bc5c4" d="M79.444 34.66 78.38 11.82h.327l1.064 22.84z" clip-path="url(#SVGID_4_)"/><path fill="#59c5c4" d="m79.118 34.66-1.064-22.84h.326l1.064 22.84z" clip-path="url(#SVGID_4_)"/><path fill="#58c4c3" d="m78.791 34.66-1.064-22.84h.327l1.064 22.84z" clip-path="url(#SVGID_4_)"/><path fill="#57c4c3" d="M78.465 34.66 77.4 11.82h.326l1.064 22.84z" clip-path="url(#SVGID_4_)"/><path fill="#55c4c3" d="m78.138 34.66-1.064-22.84h.327l1.064 22.84z" clip-path="url(#SVGID_4_)"/><path fill="#54c3c2" d="m77.812 34.66-1.064-22.84h.326l1.064 22.84z" clip-path="url(#SVGID_4_)"/><path fill="#52c3c2" d="m77.485 34.66-1.064-22.84h.327l1.064 22.84z" clip-path="url(#SVGID_4_)"/><path fill="#50c3c2" d="m77.159 34.66-1.064-22.84h.326l1.064 22.84z" clip-path="url(#SVGID_4_)"/><path fill="#4fc2c1" d="m76.832 34.66-1.064-22.84h.327l1.064 22.84z" clip-path="url(#SVGID_4_)"/><path fill="#4dc2c1" d="m76.506 34.66-1.064-22.84h.326l1.064 22.84z" clip-path="url(#SVGID_4_)"/><path fill="#4bc2c1" d="m76.179 34.66-1.064-22.84h.327l1.064 22.84z" clip-path="url(#SVGID_4_)"/><path fill="#4ac1c0" d="m75.853 34.66-1.064-22.84h.326l1.064 22.84z" clip-path="url(#SVGID_4_)"/><path fill="#48c1c0" d="m75.526 34.66-1.064-22.84h.327l1.064 22.84z" clip-path="url(#SVGID_4_)"/><path fill="#46c1c0" d="m75.2 34.66-1.064-22.84h.326l1.064 22.84z" clip-path="url(#SVGID_4_)"/><path fill="#44c1bf" d="m74.873 34.66-1.064-22.84h.327L75.2 34.66z" clip-path="url(#SVGID_4_)"/><path fill="#42c0bf" d="m74.547 34.66-1.064-22.84h.326l1.064 22.84z" clip-path="url(#SVGID_4_)"/><path fill="#40c0be" d="m74.22 34.66-1.064-22.84h.327l1.064 22.84z" clip-path="url(#SVGID_4_)"/><path fill="#3ec0be" d="M73.894 34.66 72.83 11.82h.326l1.064 22.84z" clip-path="url(#SVGID_4_)"/><path fill="#3cbfbe" d="m73.567 34.66-1.064-22.84h.327l1.064 22.84z" clip-path="url(#SVGID_4_)"/><path fill="#39bfbd" d="m73.24 34.66-1.063-22.84h.326l1.064 22.84z" clip-path="url(#SVGID_4_)"/><path fill="#37bfbd" d="M72.914 34.66 71.85 11.82h.327l1.064 22.84z" clip-path="url(#SVGID_4_)"/><path fill="#34bebd" d="m72.588 34.66-1.064-22.84h.326l1.064 22.84z" clip-path="url(#SVGID_4_)"/><path fill="#32bebc" d="m72.261 34.66-1.064-22.84h.327l1.063 22.84z" clip-path="url(#SVGID_4_)"/><path fill="#2fbdbc" d="m71.934 34.66-1.063-22.84h.326l1.064 22.84z" clip-path="url(#SVGID_4_)"/><path fill="#2cbdbb" d="m71.608 34.66-1.064-22.84h.327l1.064 22.84z" clip-path="url(#SVGID_4_)"/><path fill="#28bdbb" d="m71.281 34.66-1.063-22.84h.326l1.064 22.84z" clip-path="url(#SVGID_4_)"/><path fill="#25bcbb" d="m70.955 34.66-1.064-22.84h.327l1.063 22.84z" clip-path="url(#SVGID_4_)"/><path fill="#21bcba" d="m70.629 34.66-1.064-22.84h.326l1.064 22.84z" clip-path="url(#SVGID_4_)"/><path fill="#1cbcba" d="m70.302 34.66-1.064-22.84h.327l1.064 22.84z" clip-path="url(#SVGID_4_)"/><path fill="#16bbba" d="m69.975 34.66-1.063-22.84h.326l1.064 22.84z" clip-path="url(#SVGID_4_)"/><path fill="#0fbbb9" d="m69.649 34.66-1.064-22.84h.327l1.063 22.84z" clip-path="url(#SVGID_4_)"/><path fill="#04bbb9" d="m69.323 34.66-1.064-22.84h.326l1.064 22.84z" clip-path="url(#SVGID_4_)"/><path d="m68.996 34.66-1.064-22.84h.327l1.063 22.84zM68.67 34.66l-1.064-22.84h.326l1.064 22.84zM68.343 34.66l-1.064-22.84h.327l1.064 22.84z" class="st120"/><path d="m68.016 34.66-1.063-22.84h.326l1.064 22.84z" class="st121"/><path d="m67.69 34.66-1.064-22.84h.327l1.063 22.84z" class="st121"/><path fill="#00b9b6" d="M67.364 34.66 66.3 11.82h.326l1.064 22.84z" clip-path="url(#SVGID_4_)"/><path d="m67.037 34.66-1.064-22.84h.327l1.064 22.84zm-.327 0-1.063-22.84h.326l1.064 22.84z" style="clip-path:url(#SVGID_4_);fill:#00b8b6"/><path fill="#00b8b5" d="M66.384 34.66 65.32 11.82h.327l1.063 22.84z" clip-path="url(#SVGID_4_)"/><path fill="#00b7b5" d="m66.058 34.66-1.064-22.84h.326l1.064 22.84z" clip-path="url(#SVGID_4_)"/><path d="m65.731 34.66-1.064-22.84h.327l1.063 22.84zM65.404 34.66l-1.063-22.84h.326l1.064 22.84z" class="st126"/><path fill="#00b6b4" d="m65.078 34.66-1.064-22.84h.327l1.064 22.84z" clip-path="url(#SVGID_4_)"/><path d="m64.751 34.66-.738-15.858V11.82h.001l1.064 22.84zM64.425 34.66l-.412-8.848v-7.01l.738 15.858z" class="st128"/><path d="m64.099 34.66-.086-1.838v-7.01l.412 8.848zM64.013 32.822l.085 1.838h-.085z" class="st129"/><path d="M23.01 11.698 11.264 23.532 23.098 35.28l10.012-.037L22.61 24.828l51.842-.193-4.543 4.575 5.005-.019 5.874-5.917-5.917-5.873-5.006.019 4.578 4.54-51.842.193 10.42-10.492z" class="st0"/></svg>