<svg id="Layer_1" data-name="Layer 1" xmlns="http://www.w3.org/2000/svg" viewBox="0 0 100 75"><defs><style>.cls-1{fill:#ed2226;}</style></defs><path class="cls-1" d="M50,10.12A27.66,27.66,0,0,0,22.59,38a27.41,27.41,0,1,0,54.82,0A27.66,27.66,0,0,0,50,10.12ZM68.51,42.88a3.35,3.35,0,0,1-2.82,3.5A111,111,0,0,1,50,47.31a111,111,0,0,1-15.69-.93,3.35,3.35,0,0,1-2.82-3.5V32a3.6,3.6,0,0,1,2.82-3.49,35.85,35.85,0,0,1,4.92-.34,1.21,1.21,0,0,1,1.21,1.3v7.63l9.6-.21,9.61.21V29.49a1.21,1.21,0,0,1,1.2-1.3,36,36,0,0,1,4.93.34A3.55,3.55,0,0,1,68.59,32c-.08,3.58-.08,7.24-.08,10.86Z"/></svg>