<svg id="Layer_1" data-name="Layer 1" xmlns="http://www.w3.org/2000/svg" viewBox="0 0 100 75"><defs><style>.cls-1{fill:#f80101;}.cls-2{fill:#ba0f0f;}</style></defs><path d="M29.21,65.83a3.74,3.74,0,0,1-1.58-1.44,4.1,4.1,0,0,1-.56-2.15V61.11a.21.21,0,0,1,.07-.16.2.2,0,0,1,.15-.06h2.1a.23.23,0,0,1,.16.06.25.25,0,0,1,.06.16v1.13a1.92,1.92,0,0,0,.53,1.4,2,2,0,0,0,1.45.53A2.05,2.05,0,0,0,33,63.64a1.83,1.83,0,0,0,.57-1.4V53.82a.25.25,0,0,1,.06-.16.2.2,0,0,1,.15-.06h2.09a.2.2,0,0,1,.15.06.21.21,0,0,1,.07.16v8.42a4,4,0,0,1-.58,2.15A3.85,3.85,0,0,1,34,65.83a5.66,5.66,0,0,1-4.74,0Z"/><path d="M39.65,66.14a.18.18,0,0,1-.07-.15V53.82a.21.21,0,0,1,.07-.16.2.2,0,0,1,.15-.06h4.5a5.51,5.51,0,0,1,2.37.48,3.69,3.69,0,0,1,1.57,1.34,3.63,3.63,0,0,1,.56,2v5a3.55,3.55,0,0,1-2.13,3.33,5.51,5.51,0,0,1-2.37.48H39.8A.2.2,0,0,1,39.65,66.14ZM42.21,64h2.18a1.74,1.74,0,0,0,1.34-.55,2.21,2.21,0,0,0,.53-1.5V57.83a2.12,2.12,0,0,0-.51-1.49,1.79,1.79,0,0,0-1.38-.56H42.21a.08.08,0,0,0-.09.09v8.06A.08.08,0,0,0,42.21,64Z"/><path d="M59.44,59.74a3.05,3.05,0,0,1,1.71,2.93A3.09,3.09,0,0,1,60,65.31a5.09,5.09,0,0,1-3.12.89H52.18A.21.21,0,0,1,52,66V53.82a.25.25,0,0,1,.06-.16.2.2,0,0,1,.15-.06H56.7c2.84,0,4.27,1.15,4.27,3.46a2.66,2.66,0,0,1-1.53,2.57C59.36,59.67,59.36,59.7,59.44,59.74ZM54.5,55.87v2.81a.08.08,0,0,0,.09.09H56.7a1.94,1.94,0,0,0,1.31-.4,1.31,1.31,0,0,0,.47-1.08A1.37,1.37,0,0,0,58,56.18a1.94,1.94,0,0,0-1.31-.4H54.59A.08.08,0,0,0,54.5,55.87Zm3.64,7.71a1.67,1.67,0,0,0,0-2.32,1.89,1.89,0,0,0-1.31-.42H54.59a.08.08,0,0,0-.09.09v3a.08.08,0,0,0,.09.09h2.25A1.87,1.87,0,0,0,58.14,63.58Z"/><path d="M66.33,65.8a4,4,0,0,1-1.64-1.54A4.5,4.5,0,0,1,64.12,62V57.81a4.49,4.49,0,0,1,.57-2.28A3.91,3.91,0,0,1,66.33,54a5.38,5.38,0,0,1,2.47-.54,5.57,5.57,0,0,1,2.44.51,3.85,3.85,0,0,1,1.63,1.46,4.08,4.08,0,0,1,.59,2.19c0,.1-.07.17-.22.19l-2.1.13h0c-.12,0-.18-.07-.18-.2a2.07,2.07,0,0,0-.58-1.53,2.39,2.39,0,0,0-3.1,0,2.07,2.07,0,0,0-.59,1.53v4.34a2,2,0,0,0,.59,1.51,2.36,2.36,0,0,0,3.1,0,2,2,0,0,0,.58-1.51c0-.13.07-.2.22-.2l2.1.09a.25.25,0,0,1,.16.06.14.14,0,0,1,.06.12,4.14,4.14,0,0,1-.59,2.2,3.88,3.88,0,0,1-1.63,1.47,5.44,5.44,0,0,1-2.44.53A5.38,5.38,0,0,1,66.33,65.8Z"/><path class="cls-1" d="M68.24,25.25l-.06,0c-.17.13-.35.25-.54.37l-.1.05L67,26l-.16.08-.69.32-.14.05c-.21.09-.43.18-.66.26l-.19.07-.81.26-.19.06c-.25.08-.5.14-.75.21l-.2.06-.93.22-.23,0-.84.17-.2,0L60,28l-.25,0-.92.14-.18,0-1.08.14-.27,0-1,.09-.14,0L55,28.6l-.28,0-1.07.06h-.09l-1.15,0H49.56l-1.14,0h-.09c-.36,0-.72,0-1.07-.06l-.28,0-1.13-.08h-.13l-1-.1-.27,0-1.07-.13-.19,0-.92-.13-.25,0-1-.18-.2,0L40,27.65l-.23,0-.93-.22-.2-.05-.75-.21-.19-.06-.81-.27-.19-.07c-.23-.08-.45-.16-.66-.25l-.14-.06-.69-.31L35,26l-.55-.3-.1-.06-.54-.36-.06,0v7.93c0,1.85,6.56,4.44,17.24,4.44S68.23,35,68.23,33.19Z"/><path class="cls-2" d="M68.24,35.63l-.06,0c-.17.13-.35.25-.54.37l-.1,0-.55.3-.16.08-.69.32-.14,0c-.21.09-.43.18-.66.26l-.19.07-.81.27-.19,0c-.25.08-.5.14-.75.21l-.2.06-.93.22L62,38l-.84.17-.2,0-1,.18-.25,0-.92.14-.18,0-1.08.14-.27,0-1,.09-.14,0L55,39l-.28,0-1.07.06h-.09l-1.15,0H49.56l-1.14,0h-.09c-.36,0-.72,0-1.07-.06L47,39l-1.13-.08h-.13l-1-.1-.27,0-1.07-.13-.19,0-.92-.13-.25,0-1-.18-.2,0L40,38,39.73,38l-.93-.22-.2,0-.75-.21-.19-.06-.81-.27-.19-.07c-.23-.08-.45-.16-.66-.25l-.14-.06-.69-.31L35,36.39l-.55-.3-.1-.06-.54-.36-.06,0v7.93C33.76,45.41,40.32,48,51,48s17.23-2.59,17.23-4.44Z"/><path class="cls-1" d="M68.24,14.88l-.06,0c-.17.13-.35.25-.54.37l-.1.05-.55.3-.16.08-.69.31-.14.06c-.21.09-.43.17-.66.25l-.19.07-.81.27-.19.06L63.4,17l-.2.05-.93.22-.23.05-.84.18-.2,0-1,.18-.25,0-.92.13-.18,0L57.56,18l-.27,0-1,.1h-.14c-.37,0-.75.06-1.12.09l-.28,0-1.07.06h-.09l-1.15,0H49.56l-1.14,0h-.09l-1.07-.06-.28,0-1.13-.08h-.13l-1-.1-.27,0-1.07-.14-.19,0-.92-.14-.25,0-1-.17-.2,0L40,17.28l-.23-.05L38.8,17,38.6,17l-.75-.21-.19-.06-.81-.27-.19-.07c-.23-.08-.45-.16-.66-.25L35.86,16l-.69-.31L35,15.65l-.55-.3-.1-.06a5.07,5.07,0,0,1-.54-.36l-.06,0v7.92c0,1.86,6.56,4.45,17.24,4.45s17.23-2.59,17.23-4.45Z"/><path class="cls-2" d="M68.24,12.44C68.24,10,60.52,8,51,8s-17.23,2-17.23,4.44S41.48,16.89,51,16.89,68.24,14.9,68.24,12.44Z"/></svg>