<svg id="Layer_1" data-name="Layer 1" xmlns="http://www.w3.org/2000/svg" viewBox="0 0 100 75"><defs><style>.cls-1{fill:#ed1c24;}</style></defs><path class="cls-1" d="M40,19.9S16.7,34.09,38.62,48.17c4.22,2.75,19.51,10.38,19.07,17.44,0,0,9.27-13.72-4.28-22.36C39.49,34.39,36,25,40,19.9Z"/><path class="cls-1" d="M31.86,47s-8.3,12.58,8,15.16c1.61.2,13.45,1.44,16.5,5.32,0,0-.27-6.69-9.91-10.64S32.93,51.89,31.86,47Z"/><path class="cls-1" d="M64,33.75C54,23.31,51.24,16.85,55.52,8.52c0,0-29.75,11.44-.37,31.76C65.66,47.54,63.92,55,63.92,55.23,65.56,53.53,74,44.19,64,33.75Z"/></svg>