<svg id="Layer_1" data-name="Layer 1" xmlns="http://www.w3.org/2000/svg" viewBox="0 0 100 75"><defs><style>.cls-1{fill:#9ba2a5;}.cls-2{fill:#b41f22;}.cls-3{fill:#fff;}</style></defs><rect class="cls-1" x="48.16" y="23.54" width="49.84" height="28.07"/><rect class="cls-2" x="2.57" y="23.54" width="45.59" height="28.07"/><path class="cls-3" d="M8.75,47.62a6.17,6.17,0,0,1-2-2.71,11,11,0,0,1-.69-4V33.72a10.56,10.56,0,0,1,.7-4,6.35,6.35,0,0,1,2-2.7,4.81,4.81,0,0,1,2.94-1,4.82,4.82,0,0,1,3,1,6.19,6.19,0,0,1,2,2.7,10.56,10.56,0,0,1,.71,4v7.15a10.79,10.79,0,0,1-.71,4,6.17,6.17,0,0,1-2,2.71,4.82,4.82,0,0,1-3,1A4.86,4.86,0,0,1,8.75,47.62Zm5.18-3.4A5.61,5.61,0,0,0,14.77,41v-7.3a5.67,5.67,0,0,0-.84-3.26,2.64,2.64,0,0,0-4.45,0,5.67,5.67,0,0,0-.84,3.26V41a5.61,5.61,0,0,0,.84,3.23,2.64,2.64,0,0,0,4.45,0Z"/><path class="cls-3" d="M29.1,26.44a.21.21,0,0,1,.19-.11h2a.21.21,0,0,1,.19.11.45.45,0,0,1,.08.26V47.88a.46.46,0,0,1-.08.27.23.23,0,0,1-.19.11h-2A.32.32,0,0,1,29,48L22.67,33.22c0-.06-.06-.09-.09-.08s0,.06,0,.14l0,14.6a.4.4,0,0,1-.08.27.22.22,0,0,1-.18.11h-2a.24.24,0,0,1-.19-.11.45.45,0,0,1-.07-.27V26.7a.44.44,0,0,1,.07-.26.22.22,0,0,1,.19-.11h2a.31.31,0,0,1,.31.25l6.35,14.79c0,.06.06.09.09.07s0,0,0-.14l0-14.6A.45.45,0,0,1,29.1,26.44Z"/><path class="cls-3" d="M44.85,29.35a.22.22,0,0,1-.18.11H37.12c-.07,0-.11.05-.11.16v5.86c0,.1,0,.15.11.15h5.07a.26.26,0,0,1,.19.11.47.47,0,0,1,.07.27v2.38a.47.47,0,0,1-.07.27.26.26,0,0,1-.19.11H37.12c-.07,0-.11,0-.11.15v6c0,.1,0,.16.11.16h7.55a.2.2,0,0,1,.18.11.45.45,0,0,1,.08.26v2.38a.46.46,0,0,1-.08.27.22.22,0,0,1-.18.11h-10a.23.23,0,0,1-.19-.11.46.46,0,0,1-.08-.27V26.7a.45.45,0,0,1,.08-.26.21.21,0,0,1,.19-.11h10a.2.2,0,0,1,.18.11.45.45,0,0,1,.08.26v2.38A.46.46,0,0,1,44.85,29.35Z"/><path class="cls-3" d="M62,26.44a.45.45,0,0,1,.08.26v2.42a.45.45,0,0,1-.08.26.22.22,0,0,1-.19.11H57.72c-.07,0-.11.05-.11.16V47.88a.46.46,0,0,1-.08.27.23.23,0,0,1-.19.11h-2a.23.23,0,0,1-.19-.11.46.46,0,0,1-.08-.27V29.65c0-.11,0-.16-.11-.16H51a.2.2,0,0,1-.18-.11.45.45,0,0,1-.08-.26V26.7a.45.45,0,0,1,.08-.26.2.2,0,0,1,.18-.11H61.79A.22.22,0,0,1,62,26.44Z"/><path class="cls-3" d="M64.32,48.15a.45.45,0,0,1-.07-.27V26.7a.44.44,0,0,1,.07-.26.23.23,0,0,1,.19-.11h2a.23.23,0,0,1,.19.11.44.44,0,0,1,.07.26V47.88a.45.45,0,0,1-.07.27.26.26,0,0,1-.19.11h-2A.26.26,0,0,1,64.32,48.15Z"/><path class="cls-3" d="M72.12,47.59A5.87,5.87,0,0,1,70.18,45a10,10,0,0,1-.69-3.85V33.41a10,10,0,0,1,.69-3.85A5.7,5.7,0,0,1,72.12,27,4.85,4.85,0,0,1,75,26.08a5,5,0,0,1,2.9.87,5.68,5.68,0,0,1,2,2.48,9.29,9.29,0,0,1,.69,3.7.45.45,0,0,1-.08.26.22.22,0,0,1-.19.11l-2,.16c-.17,0-.26-.12-.26-.35a5,5,0,0,0-.81-3,2.63,2.63,0,0,0-4.32,0,4.91,4.91,0,0,0-.82,3v8a4.86,4.86,0,0,0,.82,3,2.64,2.64,0,0,0,4.32,0,4.9,4.9,0,0,0,.81-3c0-.23.09-.34.26-.34l2,.12a.26.26,0,0,1,.19.1.33.33,0,0,1,.08.22,9.42,9.42,0,0,1-.69,3.74,5.6,5.6,0,0,1-2,2.49,5.16,5.16,0,0,1-5.82,0Z"/><path class="cls-3" d="M83.22,48.15a.46.46,0,0,1-.08-.27V26.7a.45.45,0,0,1,.08-.26.21.21,0,0,1,.19-.11h2a.21.21,0,0,1,.19.11.45.45,0,0,1,.08.26v9.37c0,.06,0,.11,0,.13s.06,0,.09,0l5.75-9.62a.38.38,0,0,1,.34-.22h2.3a.2.2,0,0,1,.22.22.63.63,0,0,1-.07.25l-5.07,8.8a.25.25,0,0,0,0,.22l5.45,12a1.45,1.45,0,0,1,0,.22.19.19,0,0,1-.22.22H92.24c-.14,0-.24-.08-.31-.25l-4.39-9.65c-.05-.13-.11-.14-.15,0L85.75,41a.69.69,0,0,0,0,.22v6.64a.46.46,0,0,1-.08.27.23.23,0,0,1-.19.11h-2A.23.23,0,0,1,83.22,48.15Z"/></svg>