<svg id="Layer_1" data-name="Layer 1" xmlns="http://www.w3.org/2000/svg" viewBox="0 0 100 75"><defs><style>.cls-1{stroke:#000;stroke-width:4.23px;}.cls-1,.cls-6,.cls-7{stroke-miterlimit:10;}.cls-2{fill:#336791;}.cls-3,.cls-4,.cls-5{fill:none;stroke-width:1.41px;}.cls-3,.cls-4,.cls-5,.cls-6,.cls-7{stroke:#fff;}.cls-3,.cls-4{stroke-linecap:round;}.cls-3,.cls-5{stroke-linejoin:round;}.cls-4{stroke-linejoin:bevel;}.cls-6,.cls-7{fill:#fff;}.cls-6{stroke-width:0.47px;}.cls-7{stroke-width:0.23px;}</style></defs><path class="cls-1" d="M59.75,50.23c.32-2.67.22-3.06,2.21-2.62l.5,0a11.79,11.79,0,0,0,4.73-.79c2.53-1.17,4-3.13,1.53-2.62-5.69,1.18-6.1-.75-6.1-.75,6-8.91,8.52-20.23,6.35-23-5.91-7.55-16.14-4-16.31-3.89H52.6a20.11,20.11,0,0,0-3.8-.39,9.44,9.44,0,0,0-6,1.8s-18.25-7.52-17.4,9.46c.18,3.61,5.17,27.35,11.13,20.17,2.19-2.63,4.29-4.85,4.29-4.85a5.54,5.54,0,0,0,3.61.93l.1-.09a4.36,4.36,0,0,0,0,1c-1.53,1.71-1.08,2-4.15,2.65s-1.28,1.78-.09,2.07a6.3,6.3,0,0,0,7-2.28l-.09.36c.6.48.56,3.46.65,5.59a19.67,19.67,0,0,0,.66,5.29c.43,1.17.94,4.19,5,3.34,3.37-.72,5.94-1.76,6.18-11.43"/><path class="cls-2" d="M68.7,44.26c-5.68,1.17-6.1-.75-6.1-.75,6-8.92,8.52-20.23,6.36-23C63,13,52.81,16.53,52.64,16.62h-.06a20.14,20.14,0,0,0-3.79-.39,9.36,9.36,0,0,0-6,1.8s-18.26-7.53-17.41,9.45c.18,3.62,5.18,27.35,11.14,20.17,2.2-2.64,4.3-4.86,4.3-4.86a5.54,5.54,0,0,0,3.61.93l.1-.09a4.36,4.36,0,0,0,0,1c-1.53,1.71-1.08,2-4.15,2.65s-1.28,1.78-.09,2.07a6.3,6.3,0,0,0,7-2.28l-.09.36c.6.48,1,3.13.95,5.54s-.12,4,.35,5.34,1,4.19,5,3.35c3.37-.73,5.12-2.6,5.36-5.72.18-2.22.57-1.89.59-3.88l.32-.94c.36-3,.06-4,2.13-3.53l.51.05a11.56,11.56,0,0,0,4.7-.79c2.53-1.18,4-3.14,1.54-2.62Z"/><path class="cls-3" d="M47.61,46c-.16,5.6,0,11.24.58,12.59s1.73,4,5.76,3.17c3.37-.72,4.6-2.12,5.13-5.21l1.25-9.87M42.77,17.89S24.5,10.42,25.35,27.4c.18,3.62,5.18,27.35,11.14,20.17,2.18-2.62,4.14-4.67,4.14-4.67m12-26.37c-.63.2,10.16-4,16.29,3.89,2.17,2.77-.34,14.08-6.35,23"/><path class="cls-4" d="M62.58,43.41s.4,1.93,6.1.76c2.5-.52,1,1.44-1.53,2.61-2.07,1-6.73,1.21-6.8-.11-.2-3.44,2.44-2.4,2.25-3.26S61.25,41.88,60.47,40c-.69-1.65-9.37-14.34,2.41-12.46.43-.09-3.07-11.21-14.09-11.38S38.12,29.69,38.12,29.69"/><path class="cls-5" d="M44.52,44.59c-1.53,1.72-1.08,2-4.15,2.65s-1.28,1.78-.09,2.08a6.32,6.32,0,0,0,7-2.29,2.11,2.11,0,0,0-.95-2.89,1.4,1.4,0,0,0-1.85.45Z"/><path class="cls-3" d="M44.42,44.56A8.19,8.19,0,0,1,45.28,41c.78-2.11,2.59-4.21,1.14-10.9-1.07-5-8.3-1-8.3-.36A34.12,34.12,0,0,1,38,36.31c-.58,4.18,2.66,7.71,6.39,7.35"/><path class="cls-6" d="M42.7,29.59c0,.23.43.85,1,.93a1.1,1.1,0,0,0,1.13-.63c0-.23-.42-.48-1-.57S42.73,29.36,42.7,29.59Z"/><path class="cls-7" d="M60.74,29.12c0,.23-.43.85-1,.93a1.1,1.1,0,0,1-1.13-.63c0-.23.42-.48,1-.57S60.71,28.89,60.74,29.12Z"/><path class="cls-3" d="M62.85,27.53c.1,1.81-.39,3-.45,5-.09,2.8,1.34,6-.81,9.21"/></svg>