<svg id="Layer_1" data-name="Layer 1" xmlns="http://www.w3.org/2000/svg" xmlns:xlink="http://www.w3.org/1999/xlink" viewBox="0 0 100 75"><defs><style>.cls-1,.cls-2{fill-rule:evenodd;}.cls-1{fill:url(#linear-gradient);}.cls-2{fill:#fff;}.cls-3{fill:none;}</style><linearGradient id="linear-gradient" x1="49.38" y1="-230" x2="49.38" y2="-264" gradientTransform="matrix(1, 0, 0, -1, 0, -209)" gradientUnits="userSpaceOnUse"><stop offset="0" stop-color="#00aeef"/><stop offset="0.21" stop-color="#0097dc"/><stop offset="0.52" stop-color="#007cc5"/><stop offset="0.79" stop-color="#006cb8"/><stop offset="1" stop-color="#0066b3"/></linearGradient></defs><path class="cls-1" d="M15,55H49.75l34-34H15V55"/><path class="cls-2" d="M55.8,27.8H49l0,16-5.91-16H37.27L32.22,41.13c-.54-3.39-4-4.56-6.81-5.44-1.82-.59-3.75-1.45-3.73-2.4,0-.78,1-1.5,3.06-1.4a11.23,11.23,0,0,1,5,1.34L32,29.14a18.38,18.38,0,0,0-7.66-1.82h0a9.35,9.35,0,0,0-6.77,2.47,5.73,5.73,0,0,0-1.61,4,5.3,5.3,0,0,0,2.32,4.73,15.78,15.78,0,0,0,4.6,2.1c1.88.58,3.41,1.09,3.39,2.16a1.58,1.58,0,0,1-.44,1.06,3,3,0,0,1-2.18.69,9.44,9.44,0,0,1-5.61-1.6L16,47A14.54,14.54,0,0,0,23.36,49H24a9.21,9.21,0,0,0,5.83-1.84l.25-.22-.26,1.33,5.73,0,1-2.63a11.76,11.76,0,0,0,7.14,0l.72,2.6H54.69l0-6H56.9c5.28,0,8.41-2.69,8.41-7.2C65.3,30,62.27,27.8,55.8,27.8ZM40.17,41.45A6.21,6.21,0,0,1,38,41.07l2.14-6.77h0l2.11,6.79a6.5,6.5,0,0,1-2.12.36Zm16-3.89H54.71V32.11H56.2c2,0,3.57.66,3.57,2.69s-1.58,2.76-3.57,2.76"/><path class="cls-3" d="M15,21H84.53V55H15Z"/></svg>