<?xml version="1.0" encoding="UTF-8"?><svg id="Layer_1" xmlns="http://www.w3.org/2000/svg" viewBox="0 0 100 75"><defs><style>.cls-1{fill:#0e91bb;}.cls-2{fill:#77cefa;}.cls-3{fill:#f16900;}.cls-4{fill:#ecf0f1;}</style></defs><g id="Page-1"><g id="Group"><g id="_3forge"><path class="cls-1" d="m44.18,57.98c0,.62-.11,1.23-.33,1.81-.28.75-.8,1.39-1.47,1.81-.72.45-1.56.68-2.41.66-.86.02-1.7-.22-2.42-.68-.68-.45-1.2-1.11-1.48-1.87-.16-.46-.26-.94-.29-1.43-.02-.15.08-.29.23-.31.02,0,.05,0,.07,0h1.96c.17-.01.31.11.33.27,0,.01,0,.03,0,.04.02.27.08.54.18.79.09.3.28.56.54.74.26.18.57.27.88.26.61.04,1.17-.32,1.4-.89.17-.4.26-.84.25-1.27,0-.48-.09-.96-.29-1.4-.24-.55-.8-.88-1.4-.84-.3.03-.59.15-.83.34-.06.03-.12.05-.18.05-.1,0-.19-.05-.25-.12l-.96-1.29c-.05-.06-.08-.14-.08-.22,0-.08.04-.16.11-.21l2.83-2.47s.05-.05.04-.08c0-.03-.04-.05-.09-.05h-4.19c-.15.02-.29-.08-.31-.23,0-.02,0-.05,0-.07v-1.59c-.02-.15.09-.29.24-.31.02,0,.05,0,.07,0h7.38c.15-.02.29.08.31.23,0,.02,0,.05,0,.07v1.78c0,.14-.06.28-.17.38l-2.38,2.18c-.07.08-.05.12.08.14,1.03.19,1.89.9,2.27,1.87.25.6.37,1.25.37,1.91Z"/><path class="cls-1" d="m50.27,53.07v1.52c.02.15-.08.29-.23.31-.02,0-.05,0-.07,0h-1.65c-.05,0-.1.03-.11.08,0,0,0,.02,0,.02v6.79c.02.15-.07.28-.22.31-.04,0-.07,0-.11,0h-1.92c-.15.02-.28-.08-.31-.22,0-.03,0-.05,0-.08v-6.77c0-.05-.03-.1-.08-.11,0,0-.02,0-.03,0h-.96c-.15.02-.29-.09-.31-.24,0-.02,0-.05,0-.07v-1.54c-.02-.15.08-.28.22-.31.03,0,.05,0,.08,0h.96c.06,0,.11-.03.11-.09,0,0,0-.02,0-.02v-.38c-.03-.6.09-1.2.34-1.75.24-.43.64-.75,1.12-.89.7-.2,1.42-.28,2.15-.23h.6c.15-.02.29.08.31.23,0,.02,0,.05,0,.07v1.29c.02.15-.09.29-.24.31-.02,0-.05,0-.07,0h-.5c-.32-.02-.63.07-.88.26-.19.26-.28.58-.25.9v.18c0,.05.03.1.08.11,0,0,.02,0,.03,0h1.65c.15-.01.28.1.29.24,0,.02,0,.04,0,.06Z"/><path class="cls-1" d="m51.55,61.45c-.73-.53-1.25-1.3-1.49-2.17-.18-.6-.26-1.23-.26-1.85-.01-.65.08-1.3.27-1.92.25-.85.78-1.59,1.5-2.1.77-.52,1.69-.79,2.62-.76.91-.03,1.8.24,2.55.76.71.51,1.23,1.25,1.48,2.09.19.61.28,1.26.27,1.9,0,.62-.08,1.24-.24,1.84-.48,1.84-2.18,3.1-4.08,3.03-.94.03-1.87-.25-2.63-.8Zm3.63-1.76c.29-.27.5-.61.6-1,.11-.41.17-.84.16-1.27,0-.43-.04-.87-.14-1.29-.1-.37-.3-.71-.6-.96-.29-.24-.66-.36-1.04-.34-.37-.01-.73.11-1.01.34-.29.25-.5.59-.6.96-.1.42-.15.85-.14,1.29,0,.43.04.86.14,1.27.1.39.31.73.61,1,.29.24.66.37,1.04.36.36,0,.71-.12.98-.36Z"/><path class="cls-1" d="m64.59,52.87c.15.06.22.23.17.38l-.34,1.91c0,.11-.05.17-.1.2-.09.02-.18.02-.26,0-.18-.05-.36-.07-.54-.08-.09,0-.23,0-.42.04-.41.03-.8.2-1.11.48-.31.3-.47.71-.45,1.13v4.86c.02.15-.09.29-.24.31-.02,0-.05,0-.07,0h-1.93c-.15.02-.29-.08-.31-.23,0-.02,0-.05,0-.07v-8.71c-.02-.15.08-.29.23-.31.03,0,.05,0,.08,0h1.94c.15-.02.29.08.31.23,0,.03,0,.05,0,.08v.54s0,.08.04.09.05,0,.09-.04c.42-.68,1.16-1.08,1.96-1.07.34,0,.67.09.96.26Z"/><path class="cls-1" d="m70.36,52.78h1.94c.15-.02.29.09.31.24,0,.02,0,.05,0,.07v8.18c0,1.59-.45,2.72-1.36,3.39-1.02.72-2.26,1.08-3.51,1.02-.45,0-.91-.04-1.36-.09-.18,0-.27-.12-.27-.33l.08-1.69c0-.09.03-.17.1-.23.07-.06.16-.07.25-.04.37.05.74.08,1.11.09.64.04,1.27-.14,1.79-.51.45-.41.68-1.01.63-1.61,0-.04,0-.06-.04-.06s-.05,0-.09.05c-.53.52-1.26.78-2,.72-.75,0-1.49-.19-2.15-.57-.68-.42-1.18-1.07-1.4-1.84-.2-.7-.29-1.42-.27-2.15-.02-.78.09-1.56.33-2.3.23-.71.68-1.33,1.29-1.78.61-.45,1.35-.68,2.1-.67.8-.05,1.58.25,2.15.82.04.04.06.05.09.04.03-.02.04-.06.04-.09v-.34c-.02-.15.08-.29.23-.31,0,0,.02,0,.02,0Zm-.31,4.59c0-.29-.01-.58-.04-.87-.02-.2-.06-.39-.12-.58-.09-.31-.28-.59-.54-.79-.27-.2-.61-.31-.95-.3-.34-.01-.67.1-.93.3-.25.21-.44.48-.54.79-.2.47-.29.97-.27,1.47-.03.49.04.99.21,1.46.22.66.85,1.09,1.54,1.07.67.03,1.27-.4,1.47-1.03.12-.5.17-1,.16-1.51Z"/><path class="cls-1" d="m79.61,59.26c.06-.07.14-.12.24-.12.08,0,.15.03.2.09l1.03,1c.06.05.1.13.11.21,0,.08-.02.16-.07.22-.41.51-.94.91-1.54,1.17-.64.29-1.34.43-2.04.42-.99.04-1.97-.26-2.77-.85-.74-.59-1.27-1.42-1.48-2.34-.15-.55-.22-1.12-.21-1.69-.01-.6.05-1.2.2-1.78.22-.86.74-1.62,1.46-2.15.75-.55,1.67-.84,2.6-.82,1.05-.05,2.07.34,2.82,1.07.75.82,1.23,1.85,1.35,2.95.05.4.09.84.11,1.33.02.15-.09.29-.24.31-.02,0-.05,0-.07,0h-5.57c-.08,0-.11.03-.11.11.02.19.07.38.13.56.12.37.38.68.72.86.4.21.84.31,1.29.3.71,0,1.38-.32,1.83-.87Zm-3.28-4.13c-.26.19-.45.47-.54.79-.06.23-.1.38-.11.46s0,.11.09.11h3.09c.06,0,.09,0,.09-.07,0-.14-.03-.28-.08-.42-.18-.71-.85-1.19-1.58-1.14-.34-.01-.68.09-.97.28Z"/></g><rect id="Rectangle" class="cls-3" x="20.49" y="49.55" width="3.75" height="3.75" rx=".83" ry=".83"/><rect id="Rectangle-2" class="cls-3" x="25.08" y="49.55" width="3.75" height="3.75" rx=".83" ry=".83"/><rect id="Rectangle-3" class="cls-1" x="20.49" y="54.13" width="3.75" height="3.75" rx=".83" ry=".83"/><rect id="Rectangle-4" class="cls-2" x="20.49" y="58.71" width="3.75" height="3.75" rx=".83" ry=".83"/><rect id="Rectangle-5" class="cls-1" x="25.08" y="54.13" width="3.75" height="3.75" rx=".83" ry=".83"/><rect id="Rectangle-6" class="cls-3" x="29.66" y="49.55" width="3.75" height="3.75" rx=".83" ry=".83"/></g></g><rect id="Rectangle-path" class="cls-1" x="8.98" y="8.31" width="41.24" height="33.38" rx="3.93" ry="3.93"/><rect id="Rectangle-path-2" class="cls-2" x="12.9" y="12.24" width="33.38" height="25.53" rx=".98" ry=".98"/><path id="Shape" class="cls-4" d="m16.83,23.04c-.42,0-.8-.27-.93-.67-.13-.4,0-.84.34-1.1l2.88-2.16-2.88-2.16c-.28-.21-.43-.55-.39-.9s.27-.65.59-.79.69-.09.97.12l3.93,2.95c.25.19.39.48.39.79s-.15.6-.39.79l-3.93,2.95c-.17.13-.38.2-.59.2Z"/><path id="Shape-2" class="cls-4" d="m25.67,23.04h-2.95c-.54,0-.98-.44-.98-.98s.44-.98.98-.98h2.95c.54,0,.98.44.98.98s-.44.98-.98.98Z"/><path class="cls-3" d="m53.84,27v-.34c0-.16.1-.26.26-.26h1.31c.16,0,.26.08.26.24v.26c0,.94.9,1.71,2.37,1.71,1.38,0,1.97-.67,1.97-1.49,0-.93-.83-1.3-2.56-1.97-1.76-.64-3.49-1.33-3.49-3.36,0-1.91,1.5-3.04,3.76-3.04,2.43,0,4.07,1.33,4.07,3.3v.21c0,.16-.1.26-.26.26h-1.31c-.16,0-.26-.08-.26-.19v-.18c0-.96-.82-1.79-2.32-1.79-1.18,0-1.86.51-1.86,1.41,0,.98.77,1.3,2.61,1.97,1.63.62,3.47,1.3,3.47,3.35,0,1.87-1.5,3.14-3.97,3.14s-4.05-1.26-4.05-3.22Z"/><path class="cls-3" d="m71.04,20.49h-5.36c-.06,0-.1.03-.1.1v2.96s.03.1.1.1h3.59c.16,0,.26.1.26.26v1.09c0,.16-.1.26-.26.26h-3.59s-.1.03-.1.1v4.5c0,.16-.1.26-.26.26h-1.34c-.16,0-.26-.1-.26-.26v-10.69c0-.16.1-.26.26-.26h7.06c.16,0,.26.1.26.26v1.09c0,.16-.1.26-.26.26Z"/><path class="cls-3" d="m80.29,19.14v1.1c0,.16-.1.26-.26.26h-2.87c-.06,0-.1.03-.1.1v9.24c0,.16-.1.26-.26.26h-1.34c-.16,0-.26-.1-.26-.26v-9.24s-.03-.1-.1-.1h-2.75c-.16,0-.26-.1-.26-.26v-1.1c0-.16.1-.26.26-.26h7.67c.16,0,.26.1.26.26Z"/><path class="cls-3" d="m89.89,22.22c0,1.98-1.39,3.3-3.49,3.3h-2.54s-.1.03-.1.1v4.23c0,.16-.1.26-.26.26h-1.34c-.16,0-.26-.1-.26-.26v-10.71c0-.16.1-.26.26-.26h4.34c2.03,0,3.39,1.34,3.39,3.35Zm-1.86.05c0-1.07-.72-1.79-1.81-1.79h-2.37s-.1.03-.1.1v3.34s.03.1.1.1h2.37c1.09,0,1.81-.71,1.81-1.75Z"/></svg>