<svg id="Layer_1" data-name="Layer 1" xmlns="http://www.w3.org/2000/svg" viewBox="0 0 100 75"><defs><style>.cls-1{fill:#e25a1c;}.cls-1,.cls-2{fill-rule:evenodd;}.cls-2,.cls-3{fill:#3c3a3e;}</style></defs><g id="g4163"><g id="g4165"><path id="path4167" class="cls-1" d="M87.37,38l-.16-.33c-1.12-2.13-2.24-4.27-3.37-6.4a.39.39,0,0,1,0-.52c1.79-2.09,3.56-4.18,5.34-6.27a.53.53,0,0,0,.14-.28l-1.55.41L81.35,26.3a.3.3,0,0,1-.39-.18L77.27,20a.76.76,0,0,0-.27-.3c-.1.54-.2,1.09-.29,1.63-.35,1.93-.69,3.85-1,5.78a6.17,6.17,0,0,0-.11.62c0,.2-.12.27-.3.33l-7.62,2.41a.78.78,0,0,0-.34.19l6.27,2.49-.18.14-3.9,2.52a.41.41,0,0,1-.45,0l-4.66-2.08a4.77,4.77,0,0,1-1.82-1.32,2.41,2.41,0,0,1,.59-3.83,6.53,6.53,0,0,1,1.57-.71q3.73-1.21,7.49-2.38a.43.43,0,0,0,.34-.39c.34-1.92.68-3.85,1-5.77a9.88,9.88,0,0,1,.78-3,5.58,5.58,0,0,1,.7-1,2.22,2.22,0,0,1,3.42-.1,6.6,6.6,0,0,1,.92,1.2c1.16,1.89,2.29,3.78,3.42,5.68a.38.38,0,0,0,.51.2l8.36-2.21a3.79,3.79,0,0,1,1.74-.1,1.72,1.72,0,0,1,1.41,2.46,4.53,4.53,0,0,1-.92,1.49Q91,27.38,88.09,30.8a.4.4,0,0,0,0,.53l3.48,6.59A3.71,3.71,0,0,1,92,39.6a2.7,2.7,0,0,1-2.35,2.7,5,5,0,0,1-2.2-.27l-5.24-1.6a.29.29,0,0,1-.25-.29c-.21-1.23-.42-2.46-.64-3.69,0,0,0-.07,0-.14l6,1.66"/><path id="path4169" class="cls-2" d="M84,55.91H79.24a.45.45,0,0,1-.44-.23l-5.61-8.51L73,46.83c-.4,3.06-.8,6.05-1.19,9.05H67.64c0-.4.09-.79.14-1.17.41-3.08.81-6.15,1.22-9.23q.57-4.4,1.16-8.81a.35.35,0,0,1,.14-.24q2.13-1.4,4.27-2.76s.05,0,.12,0c-.43,3.29-.86,6.54-1.29,9.8l0,0L80.2,36c.07.38.13.7.18,1,.16.93.32,1.87.49,2.8a.45.45,0,0,1-.14.43L76.4,44.8l-.19.21a1.07,1.07,0,0,0,.13.21q3.72,5.24,7.46,10.46a1.29,1.29,0,0,0,.16.17v.06"/><path id="path4171" class="cls-2" d="M35.08,46.84a9.59,9.59,0,0,0-.25-1.23,4.27,4.27,0,0,0-5.14-2.78,5.75,5.75,0,0,0-4.52,5.07,4.1,4.1,0,0,0,2.7,4.35,4.86,4.86,0,0,0,4.32-.49A5.73,5.73,0,0,0,35.08,46.84Zm-10.9,7.92c-.13.92-.24,1.78-.36,2.65-.15,1.15-.3,2.3-.44,3.44,0,.14-.06.2-.2.2h-3.4l-.12,0,.21-1.63.75-5.72c.29-2.18.52-4.37.9-6.53a10.2,10.2,0,0,1,7.72-8,8,8,0,0,1,6.26,1,7,7,0,0,1,3.29,5.31,9.36,9.36,0,0,1-3.1,8.06,9.6,9.6,0,0,1-5.35,2.68,7.9,7.9,0,0,1-5.91-1.29l-.25-.16"/><path id="path4173" class="cls-2" d="M22.33,36.54l-3.72,2.77c-.2-.31-.38-.62-.59-.91A2.84,2.84,0,0,0,15.86,37a2.4,2.4,0,0,0-2,.8,1.43,1.43,0,0,0-.1,1.88q.77,1,1.62,1.89c.93,1,1.9,2,2.82,3a6.3,6.3,0,0,1,1.72,3.22,6.52,6.52,0,0,1-.76,4.24A8.07,8.07,0,0,1,13,56.35a8.18,8.18,0,0,1-3.58-.19,5.31,5.31,0,0,1-3.35-2.93c-.24-.51-.43-1-.65-1.6l4-2.16c0,.11.08.21.13.3a13.57,13.57,0,0,0,.7,1.37,2.75,2.75,0,0,0,3.59,1,4.19,4.19,0,0,0,1-.64,2.11,2.11,0,0,0,.39-2.89A13.17,13.17,0,0,0,14,47c-1.1-1.23-2.25-2.41-3.33-3.66a5.75,5.75,0,0,1-1.4-3A5.13,5.13,0,0,1,10,36.87,7.59,7.59,0,0,1,17.07,33a5.63,5.63,0,0,1,4.3,2.28c.32.41.63.84,1,1.28"/><path id="path4175" class="cls-2" d="M52.5,50.65l-.61,4.59a.31.31,0,0,1-.13.21c-3.08,1.43-7.13,1.23-9.65-1.64a7.37,7.37,0,0,1-1.84-5.4A10.17,10.17,0,0,1,49,39a7.48,7.48,0,0,1,7,2.52,7,7,0,0,1,1.76,5.06c-.06,1.26-.26,2.51-.41,3.76-.22,1.77-.47,3.54-.7,5.31l0,.21H52.94c.05-.41.09-.81.14-1.2.27-2,.56-4.09.8-6.14a6.62,6.62,0,0,0-.53-3.72,3.57,3.57,0,0,0-3-2.06,5.73,5.73,0,0,0-6.13,4.45,4.27,4.27,0,0,0,1.69,4.58,4.64,4.64,0,0,0,4.52.33,5.82,5.82,0,0,0,2.1-1.47"/><path id="path4177" class="cls-2" d="M68,39.37c-.17,1.28-.33,2.54-.5,3.82h-2.3a1.45,1.45,0,0,0-1.37,1,4.11,4.11,0,0,0-.13.7q-.59,4.4-1.15,8.79c-.1.73-.2,1.47-.29,2.22H58.41l.21-1.65.75-5.69c.22-1.64.41-3.29.67-4.92a5.32,5.32,0,0,1,4.74-4.24c1,0,2.11,0,3.2,0"/><path id="path4179" class="cls-3" d="M88.47,55.88V54.27h0l-.63,1.61h-.2L87,54.27h0v1.61h-.32V54h.49l.58,1.47L88.31,54h.48v1.93Zm-2.8-1.67v1.67h-.32V54.21h-.61V54h1.53v.26h-.6"/><path id="path4181" class="cls-3" d="M27.46,33.82h.95l-.23-1.43Zm1.1.93H27l-.5,1H25.36l2.46-4.6H28.9l.84,4.6h-1l-.15-1"/><path id="path4183" class="cls-3" d="M34.21,32.06h-.57l-.19,1.06H34a.59.59,0,0,0,.61-.64A.38.38,0,0,0,34.21,32.06Zm-1.37-.93h1.48a1.21,1.21,0,0,1,1.32,1.25,1.61,1.61,0,0,1-1.71,1.67h-.64L33,35.73H32l.81-4.6"/><path id="path4185" class="cls-3" d="M38.9,33.82h1l-.22-1.43Zm1.1.93H38.42l-.5,1H36.8l2.47-4.6h1.08l.84,4.6h-1l-.15-1"/><path id="path4187" class="cls-3" d="M46.24,35.57a2.48,2.48,0,0,1-1,.24,2,2,0,0,1-2-2.06,2.74,2.74,0,0,1,2.7-2.7,2,2,0,0,1,1,.24l-.13,1.1a1.27,1.27,0,0,0-.94-.38,1.66,1.66,0,0,0-1.59,1.64,1.1,1.1,0,0,0,1.09,1.2,1.69,1.69,0,0,0,1.06-.38l-.13,1.1"/><path id="path4189" class="cls-3" d="M52.12,33.88h-2l-.33,1.85h-1l.81-4.6h1L50.28,33h2l.32-1.82h1l-.81,4.6h-1l.32-1.85"/><path id="path4191" class="cls-3" d="M55.65,35.73l.82-4.6H59l-.16.93H57.27L57.1,33h1.47l-.17.93H56.94l-.16.93h1.59l-.16.92H55.65"/></g></g></svg>