<svg id="Layer_1" data-name="Layer 1" xmlns="http://www.w3.org/2000/svg" viewBox="0 0 16 16"><defs><style>.cls-1{fill:none;stroke-width:1.43px;}.cls-1,.cls-2,.cls-3{stroke:#006009;}.cls-1,.cls-3{stroke-linecap:round;stroke-linejoin:round;}.cls-2,.cls-3{fill:#006009;}.cls-2{stroke-miterlimit:10;stroke-width:0.23px;}.cls-3{font-size:10px;stroke-width:0.49px;font-family:MyriadPro-Regular, Myriad Pro;}</style></defs><polyline class="cls-1" points="3.66 8.05 5.09 9.48 3.66 10.91"/><path class="cls-2" d="M14.16,1.81H1.84A1.27,1.27,0,0,0,.58,3.07v9.86a1.27,1.27,0,0,0,1.26,1.26H14.16a1.27,1.27,0,0,0,1.26-1.26V3.07A1.27,1.27,0,0,0,14.16,1.81ZM1.84,2.88H14.16a.19.19,0,0,1,.2.19V4.61H1.64V3.07A.19.19,0,0,1,1.84,2.88ZM14.16,13.12H1.84a.19.19,0,0,1-.2-.19V5.67H14.36v7.26A.19.19,0,0,1,14.16,13.12Z"/><text class="cls-3" transform="translate(6.07 10.35)">_</text></svg>