<?xml version="1.0" encoding="utf-8"?>
<!-- Generator: Adobe Illustrator 27.3.1, SVG Export Plug-In . SVG Version: 6.00 Build 0)  -->
<svg version="1.1" id="Layer_1" xmlns="http://www.w3.org/2000/svg" xmlns:xlink="http://www.w3.org/1999/xlink" x="0px" y="0px"
	 viewBox="0 0 800 800" style="enable-background:new 0 0 800 800;" xml:space="preserve">
<style type="text/css">
	.st0{fill:#FFFFFF;}
	.st1{fill:#BA2B2B;stroke:#FFFFFF;stroke-width:6;stroke-miterlimit:10;}
</style>
<path class="st0" d="M528.7,705.5H271.3c-97.7,0-176.8-79.2-176.8-176.8V271.3c0-97.7,79.2-176.8,176.8-176.8h257.3
	c97.7,0,176.8,79.2,176.8,176.8v257.3C705.5,626.3,626.3,705.5,528.7,705.5z"/>
<path class="st1" d="M538.8,66.7H259.6C138.3,66.7,66,139,66,260.3v279c0,121.7,72.3,194,193.6,194h278.9
	C659.7,733.3,732,661,732,539.7V260.3C732.3,139,660,66.7,538.8,66.7z M511.1,476.7c9.7,9.7,9.7,25.7,0,35.3c-5,5-11.3,7.3-17.7,7.3
	c-6.3,0-12.7-2.3-17.7-7.3l-76.6-76.7L322.5,512c-5,5-11.3,7.3-17.7,7.3c-6.3,0-12.7-2.3-17.7-7.3c-9.7-9.7-9.7-25.7,0-35.3
	l76.6-76.7l-76.6-76.7c-9.7-9.7-9.7-25.7,0-35.3c9.7-9.7,25.7-9.7,35.3,0l76.6,76.7l76.6-76.7c9.7-9.7,25.7-9.7,35.3,0
	c9.7,9.7,9.7,25.7,0,35.3L434.5,400L511.1,476.7z"/>
</svg>
