<svg id="Layer_1" data-name="Layer 1" xmlns="http://www.w3.org/2000/svg" viewBox="0 0 16 16"><defs><style>.cls-1,.cls-2{fill:#006009;stroke:#006009;stroke-miterlimit:10;}.cls-1{stroke-width:0.25px;}.cls-2{stroke-width:0.82px;}</style></defs><path class="cls-1" d="M7.55,5.82V9L7,8.46a.45.45,0,0,0-.64.64l1.29,1.29a.46.46,0,0,0,.64,0L9.62,9.1a.45.45,0,0,0,0-.64.46.46,0,0,0-.65,0L8.46,9V5.82A.45.45,0,0,0,8,5.36.46.46,0,0,0,7.55,5.82Z"/><path class="cls-2" d="M9.56,12.64h2.25a3.19,3.19,0,0,0,0-6.38,3.36,3.36,0,0,0-.63.06,3.19,3.19,0,0,0-6.37,0,3.19,3.19,0,1,0-.63,6.32H9.56Zm-3.12-.57H4.18A2.62,2.62,0,1,1,5,7a.28.28,0,0,0,.26,0c.07-.06.11-.16.11-.37a2.62,2.62,0,0,1,5.24,0c0,.22,0,.31.1.37A.3.3,0,0,0,11,7a2.52,2.52,0,0,1,.82-.14,2.62,2.62,0,0,1,0,5.24H6.44Z"/></svg>