<svg id="Layer_1" data-name="Layer 1" xmlns="http://www.w3.org/2000/svg" viewBox="0 0 16 16"><defs><style>.cls-1,.cls-2{fill:#006009;stroke:#006009;stroke-miterlimit:10;}.cls-1{stroke-width:0.23px;}.cls-2{stroke-width:0.27px;}</style></defs><path class="cls-1" d="M14.16,1.81H1.84A1.27,1.27,0,0,0,.58,3.07v9.86a1.27,1.27,0,0,0,1.26,1.26H14.16a1.27,1.27,0,0,0,1.26-1.26V3.07A1.27,1.27,0,0,0,14.16,1.81ZM1.84,2.88H14.16a.19.19,0,0,1,.2.19V4.61H1.64V3.07A.19.19,0,0,1,1.84,2.88ZM14.16,13.12H1.84a.19.19,0,0,1-.2-.19V5.67H14.36v7.26A.19.19,0,0,1,14.16,13.12Z"/><path class="cls-2" d="M5.08,6.88l2.79,3.33s1,1,1,1.06a1.86,1.86,0,0,0,.5,1,5,5,0,0,0,2.42.77h0a.15.15,0,0,0,.12-.24,3.86,3.86,0,0,1-.62-1.59,1.57,1.57,0,0,0-1.29-1.28l-.93-1L5.88,6.08a.58.58,0,0,0-.8.8ZM9.2,11.13l.9-.93a1.28,1.28,0,0,1,1,1,4.25,4.25,0,0,0,.5,1.45A4.09,4.09,0,0,1,9.63,12,1.52,1.52,0,0,1,9.2,11.13Zm-1-1L9,9.25l.8.82L9,10.92ZM5.34,6.44a.27.27,0,0,1,.37-.11L8.8,9.05,8,9.88,5.33,6.72A.29.29,0,0,1,5.34,6.44Z"/></svg>