<svg id="Layer_1" data-name="Layer 1" xmlns="http://www.w3.org/2000/svg" viewBox="0 0 16 16"><defs><style>.cls-1{fill:#006009;}</style></defs><path class="cls-1" d="M1.63,11.81a.5.5,0,0,0,.53.47H3.58a1.83,1.83,0,0,0,1.77,1.19,1.83,1.83,0,0,0,1.77-1.19h6.72a.5.5,0,0,0,.53-.47.51.51,0,0,0-.53-.48H7.12a1.84,1.84,0,0,0-1.77-1.19,1.84,1.84,0,0,0-1.77,1.19H2.16A.51.51,0,0,0,1.63,11.81Zm2.92,0a.76.76,0,0,1,.8-.72.72.72,0,1,1,0,1.43A.76.76,0,0,1,4.55,11.81Z"/><path class="cls-1" d="M1.63,4.19a.51.51,0,0,0,.53.48H3.58A1.84,1.84,0,0,0,5.35,5.86,1.84,1.84,0,0,0,7.12,4.67h6.72a.51.51,0,0,0,.53-.48.5.5,0,0,0-.53-.47H7.12A1.83,1.83,0,0,0,5.35,2.53,1.83,1.83,0,0,0,3.58,3.72H2.16A.5.5,0,0,0,1.63,4.19Zm2.92,0a.76.76,0,0,1,.8-.71.75.75,0,0,1,.79.71.75.75,0,0,1-.79.72A.76.76,0,0,1,4.55,4.19Z"/><path class="cls-1" d="M1.63,8a.51.51,0,0,0,.53.48H8.88a1.91,1.91,0,0,0,3.54,0h1.42a.48.48,0,1,0,0-1H12.42a1.91,1.91,0,0,0-3.54,0H2.16A.51.51,0,0,0,1.63,8ZM9.86,8a.75.75,0,0,1,.79-.71.76.76,0,0,1,.8.71.76.76,0,0,1-.8.71A.75.75,0,0,1,9.86,8Z"/></svg>