<svg id="Layer_1" data-name="Layer 1" xmlns="http://www.w3.org/2000/svg" viewBox="0 0 400 150"><defs><style>.cls-1{fill:#eee8e5;}.cls-2{fill:#f06b22;}.cls-3{fill:#1092bc;}.cls-4{fill:#7bcdf3;}.cls-5{fill:none;stroke:#545252;stroke-linecap:round;stroke-miterlimit:10;stroke-width:1.61px;}</style></defs><circle class="cls-1" cx="203.72" cy="74.38" r="71.56"/><g id="Page-1"><g id="Group"><rect id="Rectangle" class="cls-2" x="188.97" y="24.77" width="29.81" height="29.81" rx="6.62" transform="translate(3.3 93.6) rotate(-26.06)"/><rect id="Rectangle-2" class="cls-2" x="224.89" y="84.22" width="29.81" height="29.81" rx="6.62" transform="translate(-17.9 129.43) rotate(-29.17)"/><rect id="Rectangle-3" class="cls-3" x="205.61" y="54.79" width="29.81" height="29.81" rx="6.62" transform="translate(115.88 275.93) rotate(-80.64)"/><rect id="Rectangle-4" class="cls-4" x="165.73" y="51.96" width="29.81" height="29.81" rx="6.62" transform="translate(-10.73 44.95) rotate(-13.78)"/><rect id="Rectangle-5" class="cls-3" x="154.54" y="85.02" width="29.81" height="29.81" rx="6.62" transform="translate(10.33 215.59) rotate(-66.54)"/><rect id="Rectangle-6" class="cls-2" x="189.54" y="87.28" width="29.81" height="29.81" rx="6.62" transform="translate(-1.96 4.02) rotate(-1.12)"/></g></g><line class="cls-5" x1="237.74" y1="72.5" x2="239.85" y2="66.47"/><line class="cls-5" x1="240.5" y1="74.83" x2="247.68" y2="69.92"/><line class="cls-5" x1="242.22" y1="78.37" x2="247.65" y2="77.51"/><line class="cls-5" x1="178.66" y1="48.87" x2="172.47" y2="47.33"/><line class="cls-5" x1="180.73" y1="45.9" x2="175.18" y2="39.22"/><line class="cls-5" x1="184.09" y1="43.87" x2="182.73" y2="38.54"/></svg>