<svg id="Layer_1" data-name="Layer 1" xmlns="http://www.w3.org/2000/svg" viewBox="0 0 16 16"><defs><style>.cls-1,.cls-2{fill:#006009;stroke:#006009;stroke-miterlimit:10;}.cls-1{stroke-width:0.22px;}.cls-2{stroke-width:0.87px;}</style></defs><path class="cls-1" d="M13.55,2.15H10.26a.46.46,0,0,0-.46.46.45.45,0,0,0,.46.45h2.83V5.9a.46.46,0,0,0,.91,0V2.61A.46.46,0,0,0,13.55,2.15Z"/><path class="cls-1" d="M13.87,2.29a.46.46,0,0,0-.65,0L6.74,8.77a.46.46,0,0,0,0,.65.48.48,0,0,0,.32.13.5.5,0,0,0,.32-.13l6.49-6.49A.47.47,0,0,0,13.87,2.29Z"/><path class="cls-2" d="M12,6.94a.46.46,0,0,0-.46.45v5.92H2.84V4.61H8.76a.47.47,0,0,0,.46-.46.46.46,0,0,0-.46-.45H2.39a.46.46,0,0,0-.46.45v9.61a.47.47,0,0,0,.46.46H12a.46.46,0,0,0,.45-.46V7.39A.45.45,0,0,0,12,6.94Z"/></svg>