<svg id="Layer_1" data-name="Layer 1" xmlns="http://www.w3.org/2000/svg" viewBox="0 0 16 16"><defs><style>.cls-1,.cls-2{fill:#006009;stroke:#006009;stroke-miterlimit:10;}.cls-1{stroke-width:0.21px;}.cls-2{stroke-width:0.86px;}</style></defs><path class="cls-1" d="M13.55,4.06H10.31a.45.45,0,0,0,0,.9H13.1V7.75a.45.45,0,0,0,.45.44A.45.45,0,0,0,14,7.75V4.51A.45.45,0,0,0,13.55,4.06Z"/><path class="cls-1" d="M13.87,4.19a.45.45,0,0,0-.63,0L6.85,10.58a.45.45,0,0,0,0,.63.44.44,0,0,0,.32.13.42.42,0,0,0,.31-.13l6.39-6.38A.47.47,0,0,0,13.87,4.19Z"/><path class="cls-1" d="M9,2.55h-2a.28.28,0,0,0-.28.28.27.27,0,0,0,.28.28H8.67V4.87A.29.29,0,0,0,9,5.16a.28.28,0,0,0,.28-.29v-2A.28.28,0,0,0,9,2.55Z"/><path class="cls-1" d="M9.15,2.63a.28.28,0,0,0-.4,0l-4,4a.28.28,0,0,0,0,.4.27.27,0,0,0,.2.08.26.26,0,0,0,.2-.08l4-4A.28.28,0,0,0,9.15,2.63Z"/><path class="cls-2" d="M12,9.77a.45.45,0,0,0-.45.45V13H3V4.48h1.4a.45.45,0,0,0,0-.9H2.57A.45.45,0,0,0,2.12,4v9.46a.45.45,0,0,0,.45.45H12a.45.45,0,0,0,.45-.45V10.22A.45.45,0,0,0,12,9.77Z"/></svg>