<svg id="Layer_1" data-name="Layer 1" xmlns="http://www.w3.org/2000/svg" viewBox="0 0 16 16"><defs><style>.cls-1,.cls-2{fill:#006009;}.cls-1{stroke:#006009;stroke-miterlimit:10;stroke-width:0.23px;}</style></defs><path class="cls-1" d="M-22.1,3H-33.9a1.81,1.81,0,0,0-1.81,1.81v6.38A1.81,1.81,0,0,0-33.9,13h11.8a1.81,1.81,0,0,0,1.81-1.81V4.81A1.81,1.81,0,0,0-22.1,3Zm.61,8.19a.61.61,0,0,1-.61.61H-33.9a.61.61,0,0,1-.61-.61V4.81a.61.61,0,0,1,.61-.61h11.8a.61.61,0,0,1,.61.61Zm-8.89-4.55v4h-1.2V6.64H-33.3V5.44h4.58v1.2Zm36.72-1v4H5.13V5.64H3.42V4.44H8v1.2ZM-29.17,9.39H-28v1.2h-1.2Zm2.4,0h1.21v1.2h-1.21Zm2.41,0h1.21v1.2h-1.21Z"/><path class="cls-1" d="M13.87,1H2.13C1.51,1,1,1.35,1,1.78V14.23c0,.42.51.77,1.13.77H13.87c.62,0,1.13-.35,1.13-.77V1.78C15,1.35,14.49,1,13.87,1Zm-.13,12.44H2.26V2.55H13.74Z"/><path class="cls-2" d="M8.19,12.32h3.64a.77.77,0,1,0,0-1.54H8.19a.77.77,0,1,0,0,1.54Z"/><path class="cls-2" d="M8.19,8.78h3.64a.78.78,0,1,0,0-1.55H8.19a.78.78,0,1,0,0,1.55Z"/></svg>