<svg id="Layer_1" data-name="Layer 1" xmlns="http://www.w3.org/2000/svg" viewBox="0 0 16 16"><defs><style>.cls-1{fill:#186c05;}.cls-2{fill:#006009;}</style></defs><path class="cls-1" d="M4.79,4V1.63H3.72V4c0,.23.24.41.54.41A.48.48,0,0,0,4.79,4Z"/><path class="cls-1" d="M12.28,4V1.63H11.21V4c0,.23.24.41.54.41A.48.48,0,0,0,12.28,4Z"/><path class="cls-1" d="M13.88,1.63h-1.6V3.77a.54.54,0,0,1-1.07,0V1.63H4.79V3.77a.54.54,0,0,1-1.07,0V1.63H2.12A1.61,1.61,0,0,0,.51,3.23V13.4A1.61,1.61,0,0,0,2.12,15H13.88a1.61,1.61,0,0,0,1.61-1.6V3.23A1.61,1.61,0,0,0,13.88,1.63Zm.54,11.77a.54.54,0,0,1-.54.53H2.12a.54.54,0,0,1-.54-.53v-7H14.42Z"/><path class="cls-2" d="M9,10.64l-.8-.6V8.81a.22.22,0,1,0-.44,0v1.34a.23.23,0,0,0,.09.18l.89.66a.21.21,0,0,0,.13,0A.23.23,0,0,0,9.07,11,.22.22,0,0,0,9,10.64Z"/><path class="cls-2" d="M8,7.26a2.87,2.87,0,1,0,2.87,2.87A2.88,2.88,0,0,0,8,7.26Zm0,5.3a2.43,2.43,0,1,1,2.43-2.43A2.43,2.43,0,0,1,8,12.56Z"/></svg>