<svg id="Layer_1" data-name="Layer 1" xmlns="http://www.w3.org/2000/svg" viewBox="0 0 16 16"><defs><style>.cls-1{fill:#186c05;}</style></defs><path class="cls-1" d="M4.79,4V1.63H3.72V4c0,.23.24.41.54.41A.48.48,0,0,0,4.79,4Z"/><path class="cls-1" d="M12.28,4V1.63H11.21V4c0,.23.24.41.54.41A.48.48,0,0,0,12.28,4Z"/><path class="cls-1" d="M13.88,1.63h-1.6V3.77a.54.54,0,0,1-1.07,0V1.63H4.79V3.77a.54.54,0,0,1-1.07,0V1.63H2.12A1.61,1.61,0,0,0,.51,3.23V13.4A1.61,1.61,0,0,0,2.12,15H13.88a1.61,1.61,0,0,0,1.61-1.6V3.23A1.61,1.61,0,0,0,13.88,1.63Zm.54,11.77a.54.54,0,0,1-.54.53H2.12a.54.54,0,0,1-.54-.53v-7H14.42Z"/><path class="cls-1" d="M5.66,7.48H4.59A.54.54,0,0,0,4.06,8a.53.53,0,0,0,.53.53H5.66A.53.53,0,0,0,6.2,8,.54.54,0,0,0,5.66,7.48Z"/><path class="cls-1" d="M11.41,7.48H10.34A.54.54,0,0,0,9.8,8a.53.53,0,0,0,.54.53h1.07A.53.53,0,0,0,11.94,8,.54.54,0,0,0,11.41,7.48Z"/><path class="cls-1" d="M5.66,9.62H4.59a.54.54,0,0,0,0,1.07H5.66a.54.54,0,1,0,0-1.07Z"/><path class="cls-1" d="M11.41,9.62H10.34a.54.54,0,1,0,0,1.07h1.07a.54.54,0,0,0,0-1.07Z"/><path class="cls-1" d="M5.66,11.76H4.59a.54.54,0,0,0,0,1.07H5.66a.54.54,0,1,0,0-1.07Z"/><path class="cls-1" d="M11.41,11.76H10.34a.54.54,0,1,0,0,1.07h1.07a.54.54,0,0,0,0-1.07Z"/></svg>