<svg id="Layer_1" data-name="Layer 1" xmlns="http://www.w3.org/2000/svg" viewBox="0 0 16 16"><defs><style>.cls-1{fill:#186c05;}</style></defs><path class="cls-1" d="M14.11,5.06a2.16,2.16,0,0,0,.19-2.83,2.08,2.08,0,0,0-3.06-.16l-.92,1a.3.3,0,0,1-.16.08h0A.2.2,0,0,1,10,3,1,1,0,0,0,8.59,3l-1,1a.38.38,0,0,0,0,.54l.88.88-4,3.95a17.69,17.69,0,0,0-3.18,4.37.41.41,0,0,0,.07.46l.69.69a.37.37,0,0,0,.46.07A16.7,16.7,0,0,0,6.9,11.77l3.95-3.95.88.88a.39.39,0,0,0,.54,0l1-.95a1,1,0,0,0,0-1.42.28.28,0,0,1,0-.35ZM6.37,11.23a17.12,17.12,0,0,1-3.91,2.92l-.31-.31A15.5,15.5,0,0,1,5.06,9.93L9,6l1.31,1.31Zm6.32-4.4a.27.27,0,0,1,0,.34L12,7.86,8.4,4.26l.69-.69a.27.27,0,0,1,.34,0,1.06,1.06,0,0,0,.73.3h0a1,1,0,0,0,.73-.3l.88-.92a1.33,1.33,0,0,1,1.92.07,1.43,1.43,0,0,1-.15,1.81l-.89.88a1,1,0,0,0-.3.73A1.14,1.14,0,0,0,12.69,6.83Z"/></svg>