<svg id="Layer_1" data-name="Layer 1" xmlns="http://www.w3.org/2000/svg" viewBox="0 0 100 60"><defs><style>.cls-1{fill:#9ed7cb;}.cls-2{fill:#1d7c56;}.cls-3{fill:#1d7c57;}</style></defs><rect class="cls-1" x="-6.13" y="-4.48" width="113.33" height="68.95"/><path class="cls-2" d="M107.07-4.35v68.7H-6V-4.35H107.07m.25-.25H-6.26V64.6H107.32V-4.6Z"/><path class="cls-3" d="M57.86,42.39H44.13a.49.49,0,0,0-.49.49v2.46a.49.49,0,0,0,.49.49h.62l4.52,5.33V56.8a.48.48,0,0,0,.27.44.46.46,0,0,0,.23.06.5.5,0,0,0,.27-.08l2.46-1.64a.52.52,0,0,0,.22-.41v-4l4.53-5.33h.61a.49.49,0,0,0,.49-.49V42.88a.49.49,0,0,0-.49-.49ZM44.63,44.84V43.38H57.36v1.46Zm5.63,11V51a.54.54,0,0,0-.11-.32l-4.1-4.82h9.89l-4.1,4.82a.54.54,0,0,0-.11.32V54.9l-1.47,1Z"/><polygon class="cls-3" points="57.51 43.26 44.54 43.26 44.54 44.96 57.51 44.96 57.51 43.26 57.51 43.26"/></svg>