<svg id="Layer_1" data-name="Layer 1" xmlns="http://www.w3.org/2000/svg" viewBox="0 0 100 60"><defs><style>.cls-1{fill:#fde783;}.cls-2{fill:#958531;}</style></defs><rect class="cls-1" x="-6.26" y="-4.6" width="113.58" height="69.2"/><path class="cls-2" d="M62.55,43.39v13h-24v-13h24m1-1h-26v15h26v-15Z"/><g id="_02f9f2c1-c5f9-4dfd-bbb7-918d15e8e05e" data-name="02f9f2c1-c5f9-4dfd-bbb7-918d15e8e05e"><path class="cls-2" d="M50.39,45.63A3.39,3.39,0,0,0,47,49c0,1.71,2.84,4.74,3.32,5.25a.09.09,0,0,0,.13,0h0c.48-.5,3.32-3.54,3.32-5.25A3.39,3.39,0,0,0,50.39,45.63Zm0,4.59A1.21,1.21,0,0,1,49.19,49a1.21,1.21,0,1,1,1.21,1.22Z"/></g></svg>