<svg id="Layer_1" data-name="Layer 1" xmlns="http://www.w3.org/2000/svg" viewBox="0 0 16 16"><defs><style>.cls-1,.cls-2,.cls-3,.cls-4{fill:#006009;stroke:#006009;stroke-miterlimit:10;}.cls-1{stroke-width:0.73px;}.cls-2{stroke-width:0.73px;}.cls-3{stroke-width:0.55px;}.cls-4{stroke-width:0.55px;}</style></defs><path class="cls-1" d="M9.78,4.33H7.56a.22.22,0,0,1-.23-.22V1.89a.22.22,0,0,0-.22-.22H2.67A.67.67,0,0,0,2,2.33v9.34a.67.67,0,0,0,.67.66H9.33a.67.67,0,0,0,.67-.66V4.56A.22.22,0,0,0,9.78,4.33Zm-.22,7.34a.22.22,0,0,1-.23.22H2.67a.22.22,0,0,1-.23-.22V2.33a.22.22,0,0,1,.23-.22H6.89v2a.67.67,0,0,0,.67.67h2Z"/><path class="cls-2" d="M9.9,4.4,7.24,1.73a.24.24,0,0,0-.32,0,.22.22,0,0,0,0,.32L9.59,4.71a.2.2,0,0,0,.16.07.19.19,0,0,0,.15-.07A.21.21,0,0,0,9.9,4.4Z"/><path class="cls-3" d="M13.83,9H12.17A.17.17,0,0,1,12,8.83V7.17A.16.16,0,0,0,11.83,7H8.5a.5.5,0,0,0-.5.5v7a.5.5,0,0,0,.5.5h5a.5.5,0,0,0,.5-.5V9.17A.16.16,0,0,0,13.83,9Zm-.16,5.5a.18.18,0,0,1-.17.17h-5a.18.18,0,0,1-.17-.17v-7a.18.18,0,0,1,.17-.17h3.17v1.5a.5.5,0,0,0,.5.5h1.5Z"/><path class="cls-4" d="M13.93,9.05l-2-2a.16.16,0,0,0-.24,0,.17.17,0,0,0,0,.23l2,2a.15.15,0,0,0,.12.05.16.16,0,0,0,.12-.05A.17.17,0,0,0,13.93,9.05Z"/></svg>