<svg id="Layer_1" data-name="Layer 1" xmlns="http://www.w3.org/2000/svg" viewBox="0 0 16 16"><defs><style>.cls-1,.cls-2{fill:#006009;stroke:#006009;stroke-miterlimit:10;}.cls-1{stroke-width:0.46px;}.cls-2{stroke-width:0.23px;}</style></defs><path class="cls-1" d="M8,9.75c-.27,0-.46.11-.46.28V12.3c0,.14.19.29.46.29s.47-.15.47-.29V10C8.43,9.86,8.22,9.75,8,9.75Z"/><path class="cls-1" d="M8,7.57A.47.47,0,0,0,7.47,8a.49.49,0,0,0,1,0A.47.47,0,0,0,8,7.57Z"/><path class="cls-2" d="M14.16,1.81H1.84A1.27,1.27,0,0,0,.58,3.07v9.86a1.27,1.27,0,0,0,1.26,1.26H14.16a1.27,1.27,0,0,0,1.26-1.26V3.07A1.27,1.27,0,0,0,14.16,1.81ZM1.84,2.88H14.16a.19.19,0,0,1,.2.19V5.61H1.64V3.07A.19.19,0,0,1,1.84,2.88ZM14.16,13.12H1.84a.19.19,0,0,1-.2-.19V6.67H14.36v6.26A.19.19,0,0,1,14.16,13.12Z"/></svg>