<svg id="Layer_1" data-name="Layer 1" xmlns="http://www.w3.org/2000/svg" viewBox="0 0 16 16"><defs><style>.cls-1{fill:#006009;}.cls-2{fill:none;stroke:#006009;stroke-linecap:round;stroke-linejoin:round;stroke-width:1.4px;}</style></defs><path class="cls-1" d="M5.7,8a.7.7,0,0,0,.73.67H12.5l-.82.75a.62.62,0,0,0,0,.94.77.77,0,0,0,1,0l2.07-1.89a.63.63,0,0,0,0-.94L12.72,5.64a.77.77,0,0,0-1,0,.62.62,0,0,0,0,.94l.82.75H6.43A.7.7,0,0,0,5.7,8Z"/><rect class="cls-2" x="2.5" y="3.25" width="7" height="9.5"/></svg>