<svg id="Layer_1" data-name="Layer 1" xmlns="http://www.w3.org/2000/svg" viewBox="0 0 16 16"><defs><style>.cls-1,.cls-2,.cls-3{fill:#006009;}.cls-1,.cls-3{stroke:#006009;stroke-miterlimit:10;}.cls-1{stroke-width:0.2px;}.cls-3{stroke-width:0.31px;}</style></defs><path class="cls-1" d="M13.35,2H2.65A1.15,1.15,0,0,0,1.56,3.21v9.58A1.15,1.15,0,0,0,2.65,14h10.7a1.15,1.15,0,0,0,1.09-1.21V3.21A1.15,1.15,0,0,0,13.35,2ZM2.65,3h10.7a.18.18,0,0,1,.17.18V5.69h-11V3.21A.18.18,0,0,1,2.65,3ZM13.35,13H2.65a.18.18,0,0,1-.17-.18V6.71h11v6.08A.18.18,0,0,1,13.35,13Z"/><path class="cls-2" d="M3.83,5a.65.65,0,0,0,.61-.69.65.65,0,0,0-.61-.68.65.65,0,0,0-.61.68A.65.65,0,0,0,3.83,5Z"/><path class="cls-2" d="M6,5a.65.65,0,0,0,.61-.69A.65.65,0,0,0,6,3.63a.65.65,0,0,0-.61.68A.65.65,0,0,0,6,5Z"/><path class="cls-2" d="M8,5a.65.65,0,0,0,.61-.69.61.61,0,1,0-1.22,0A.65.65,0,0,0,8,5Z"/><path class="cls-3" d="M8.19,13H7.81a.55.55,0,0,1-.55-.55v-.13a1.8,1.8,0,0,1-.38-.16l-.09.09a.54.54,0,0,1-.78,0L5.75,12a.54.54,0,0,1,0-.78l.09-.09a1.8,1.8,0,0,1-.16-.38H5.55A.55.55,0,0,1,5,10.19V9.81a.55.55,0,0,1,.55-.55h.13a1.8,1.8,0,0,1,.16-.38l-.09-.09a.54.54,0,0,1,0-.78L6,7.75a.54.54,0,0,1,.78,0l.09.09a1.8,1.8,0,0,1,.38-.16V7.55A.55.55,0,0,1,7.81,7h.38a.55.55,0,0,1,.55.55v.13a1.8,1.8,0,0,1,.38.16l.09-.09a.54.54,0,0,1,.78,0l.26.26a.54.54,0,0,1,0,.78l-.09.09a1.8,1.8,0,0,1,.16.38h.13a.55.55,0,0,1,.55.55v.38a.55.55,0,0,1-.55.55h-.13a1.8,1.8,0,0,1-.16.38l.09.09a.54.54,0,0,1,0,.78l-.26.26a.54.54,0,0,1-.78,0l-.09-.09a1.8,1.8,0,0,1-.38.16v.13A.55.55,0,0,1,8.19,13ZM6.94,11.79a2.14,2.14,0,0,0,.54.23.17.17,0,0,1,.13.17v.26a.2.2,0,0,0,.2.2h.38a.2.2,0,0,0,.2-.2v-.26A.17.17,0,0,1,8.52,12a2.14,2.14,0,0,0,.54-.23.18.18,0,0,1,.21,0l.19.19a.2.2,0,0,0,.28,0l.27-.27a.2.2,0,0,0,0-.28l-.19-.19a.18.18,0,0,1,0-.21,2.14,2.14,0,0,0,.23-.54.17.17,0,0,1,.17-.13h.26a.2.2,0,0,0,.2-.2V9.81a.2.2,0,0,0-.2-.2h-.26A.17.17,0,0,1,10,9.48a2.14,2.14,0,0,0-.23-.54.18.18,0,0,1,0-.21L10,8.54a.2.2,0,0,0,0-.28L9.74,8a.2.2,0,0,0-.28,0l-.19.19a.18.18,0,0,1-.21,0A2.14,2.14,0,0,0,8.52,8a.17.17,0,0,1-.13-.17V7.55a.2.2,0,0,0-.2-.2H7.81a.2.2,0,0,0-.2.2v.26A.17.17,0,0,1,7.48,8a2.14,2.14,0,0,0-.54.23.18.18,0,0,1-.21,0L6.54,8a.2.2,0,0,0-.28,0L6,8.26a.2.2,0,0,0,0,.28l.19.19a.18.18,0,0,1,0,.21A2.14,2.14,0,0,0,6,9.48a.17.17,0,0,1-.17.13H5.55a.2.2,0,0,0-.2.2v.38a.2.2,0,0,0,.2.2h.26a.17.17,0,0,1,.17.13,2.14,2.14,0,0,0,.23.54.18.18,0,0,1,0,.21L6,11.46a.2.2,0,0,0,0,.28l.27.27a.2.2,0,0,0,.28,0l.19-.19a.17.17,0,0,1,.21,0Z"/><path class="cls-3" d="M8,11.31A1.31,1.31,0,1,1,9.31,10,1.31,1.31,0,0,1,8,11.31ZM8,9.05A.95.95,0,1,0,9,10,.94.94,0,0,0,8,9.05Z"/></svg>