<svg xmlns="http://www.w3.org/2000/svg" viewBox="0 0 575.35 153.35"><defs><style>.cls-1{fill:#fff;}</style></defs><g id="Layer_2" data-name="Layer 2"><g id="Layer_1-2" data-name="Layer 1"><g id="Page-1"><g id="Group"><g id="_3forge" data-name=" 3forge"><path class="cls-1" d="M222.89,80.74a46.76,46.76,0,0,1-3.08,17A34.63,34.63,0,0,1,206,114.85,40.64,40.64,0,0,1,183.27,121a40.36,40.36,0,0,1-22.79-6.42A36,36,0,0,1,146.54,97a49,49,0,0,1-2.73-13.49A2.58,2.58,0,0,1,146,80.54a2.81,2.81,0,0,1,.71,0h18.44a2.82,2.82,0,0,1,3.07,2.56,1.53,1.53,0,0,1,0,.37A26.76,26.76,0,0,0,169.93,91,13.22,13.22,0,0,0,175,97.87a13.82,13.82,0,0,0,8.28,2.48A13.15,13.15,0,0,0,196.41,92a28.68,28.68,0,0,0,2.37-12,30.23,30.23,0,0,0-2.72-13.14A13.24,13.24,0,0,0,182.92,59a15.13,15.13,0,0,0-7.83,3.24,4,4,0,0,1-1.72.5A3.1,3.1,0,0,1,171,61.59l-9-12.13a3.37,3.37,0,0,1-.71-2.07,3,3,0,0,1,1-2l26.63-23.24a.61.61,0,0,0,.35-.76c0-.31-.4-.46-.85-.46H149A2.56,2.56,0,0,1,146,18.74a2.41,2.41,0,0,1,0-.71V3A2.58,2.58,0,0,1,148.26.14a2.73,2.73,0,0,1,.7,0h69.48a2.59,2.59,0,0,1,2.93,2.18,2.73,2.73,0,0,1,0,.7V19.75a5.07,5.07,0,0,1-1.56,3.59L197.42,43.85c-.66.71-.45,1.17.71,1.37A28.38,28.38,0,0,1,219.45,62.8,45.05,45.05,0,0,1,222.89,80.74Z"/><path class="cls-1" d="M280.24,34.61v14.3a2.58,2.58,0,0,1-2.18,2.92,2.73,2.73,0,0,1-.7,0H261.8a.91.91,0,0,0-1,.79v64.14a2.53,2.53,0,0,1-3.08,2.88H239.61a2.53,2.53,0,0,1-2.88-2.12,2.42,2.42,0,0,1,0-.76V53.05a.91.91,0,0,0-.78-1,.87.87,0,0,0-.28,0h-9a2.58,2.58,0,0,1-2.89-2.23,2.35,2.35,0,0,1,0-.7V34.61a2.52,2.52,0,0,1,2.11-2.88,2.49,2.49,0,0,1,.77,0h9a1,1,0,0,0,1.06-.85.81.81,0,0,0,0-.22V27.08A34.57,34.57,0,0,1,240,10.6a18,18,0,0,1,10.51-8.33A58.21,58.21,0,0,1,270.69.14h5.61a2.58,2.58,0,0,1,2.92,2.18,2.35,2.35,0,0,1,0,.7V15.15A2.59,2.59,0,0,1,277,18a2.35,2.35,0,0,1-.7,0h-4.75a12.36,12.36,0,0,0-8.29,2.48A11.89,11.89,0,0,0,260.94,29v1.66a.91.91,0,0,0,.73,1.06.88.88,0,0,0,.28,0h15.56A2.51,2.51,0,0,1,280.25,34,2.41,2.41,0,0,1,280.24,34.61Z"/><path class="cls-1" d="M292.21,113.48a37.41,37.41,0,0,1-14-20.46,60.16,60.16,0,0,1-2.43-17.43,56.87,56.87,0,0,1,2.58-18.09,36.92,36.92,0,0,1,14.1-19.81,41.51,41.51,0,0,1,24.66-7.18,39.94,39.94,0,0,1,24,7.18A36.83,36.83,0,0,1,355,57.34a56.82,56.82,0,0,1,2.58,17.89,67.64,67.64,0,0,1-2.22,17.28A38.26,38.26,0,0,1,317,121,40.42,40.42,0,0,1,292.21,113.48ZM326.37,97a18.66,18.66,0,0,0,5.61-9.4,43.59,43.59,0,0,0,1.52-12,46.29,46.29,0,0,0-1.37-12.13,17.8,17.8,0,0,0-5.61-9.05,14.7,14.7,0,0,0-9.75-3.23,14.53,14.53,0,0,0-9.55,3.23,18.24,18.24,0,0,0-5.66,9.05,46.71,46.71,0,0,0-1.36,12.13,45.55,45.55,0,0,0,1.36,12,18.87,18.87,0,0,0,5.76,9.4,14.5,14.5,0,0,0,9.81,3.39A13.86,13.86,0,0,0,326.37,97Z"/><path class="cls-1" d="M415,32.74a2.88,2.88,0,0,1,1.57,3.58l-3.24,17.94a2,2,0,0,1-1,1.87,4.92,4.92,0,0,1-2.47,0,21.07,21.07,0,0,0-5.05-.71,19,19,0,0,0-3.95.36,16.94,16.94,0,0,0-10.41,4.55A14,14,0,0,0,386.2,71v45.78a2.57,2.57,0,0,1-2.22,2.88,2.81,2.81,0,0,1-.71,0H365.13a2.59,2.59,0,0,1-2.93-2.18,2.73,2.73,0,0,1,0-.7v-82a2.58,2.58,0,0,1,2.16-2.93,2.49,2.49,0,0,1,.77,0h18.24A2.58,2.58,0,0,1,386.3,34a2.49,2.49,0,0,1,0,.77v5c0,.46,0,.76.35.86s.51,0,.81-.35a21.38,21.38,0,0,1,18.45-10.11A18,18,0,0,1,415,32.74Z"/><path class="cls-1" d="M469.27,31.88h18.29a2.57,2.57,0,0,1,2.89,2.22,2.41,2.41,0,0,1,0,.71v77q0,22.38-12.78,31.88a53.48,53.48,0,0,1-33,9.6,111.5,111.5,0,0,1-12.78-.86c-1.72,0-2.58-1.16-2.58-3.08l.71-15.87a2.79,2.79,0,0,1,.91-2.17,2.46,2.46,0,0,1,2.32-.4,82.54,82.54,0,0,0,10.41.85,26.11,26.11,0,0,0,16.83-4.8,18.59,18.59,0,0,0,5.91-15.15c0-.36,0-.56-.35-.61s-.51,0-.86.45a24.38,24.38,0,0,1-18.8,6.83,40.14,40.14,0,0,1-20.21-5.36A29.8,29.8,0,0,1,413,95.8a67,67,0,0,1-2.58-20.21,63.52,63.52,0,0,1,3.09-21.68,33.92,33.92,0,0,1,12.12-16.73,32.41,32.41,0,0,1,19.81-6.31,26,26,0,0,1,20.21,7.68c.36.35.61.45.86.35a.92.92,0,0,0,.36-.86V34.81A2.57,2.57,0,0,1,469,31.9Zm-2.88,43.2q0-4.1-.35-8.19a30.74,30.74,0,0,0-1.16-5.45A15.15,15.15,0,0,0,459.82,54a14.07,14.07,0,0,0-8.89-2.83A13.72,13.72,0,0,0,442.14,54a16,16,0,0,0-5.06,7.43,32.66,32.66,0,0,0-2.52,13.84,33,33,0,0,0,2,13.7A14.84,14.84,0,0,0,451.08,99a13.9,13.9,0,0,0,13.8-9.7A56.93,56.93,0,0,0,466.39,75.08Z"/><path class="cls-1" d="M556.33,92.82a3.16,3.16,0,0,1,2.23-1.17,2.61,2.61,0,0,1,1.92.86l9.7,9.4a2.8,2.8,0,0,1,1,2,3.26,3.26,0,0,1-.66,2.07,39,39,0,0,1-14.45,11,46.17,46.17,0,0,1-19.2,4,41.05,41.05,0,0,1-26-8,39.51,39.51,0,0,1-13.95-22,59.87,59.87,0,0,1-2-15.87,63.74,63.74,0,0,1,1.87-16.73A36.38,36.38,0,0,1,510.5,38.14,39.72,39.72,0,0,1,535,30.46a35.36,35.36,0,0,1,26.53,10.11,49.15,49.15,0,0,1,12.73,27.79c.46,3.79.81,7.93,1.06,12.48a2.62,2.62,0,0,1-2.28,2.93,2.36,2.36,0,0,1-.65,0H520c-.7,0-1.06.3-1.06,1a26.72,26.72,0,0,0,1.21,5.31,13.88,13.88,0,0,0,6.78,8.08A24.54,24.54,0,0,0,539.1,101,22.28,22.28,0,0,0,556.33,92.82ZM525.51,54a13.37,13.37,0,0,0-5,7.43c-.56,2.17-.91,3.58-1,4.29s0,1,.81,1h29c.56,0,.86,0,.86-.65a12.36,12.36,0,0,0-.71-4,14.4,14.4,0,0,0-14.85-10.76A15.1,15.1,0,0,0,525.51,54Z"/></g><rect id="Rectangle" class="cls-1" y="1.41" width="35.27" height="35.27" rx="7.83"/><rect id="Rectangle-2" class="cls-1" x="43.15" y="1.41" width="35.27" height="35.27" rx="7.83"/><rect id="Rectangle-3" class="cls-1" y="44.56" width="35.27" height="35.27" rx="7.83"/><rect id="Rectangle-4" class="cls-1" y="87.66" width="35.27" height="35.27" rx="7.83"/><rect id="Rectangle-5" class="cls-1" x="43.15" y="44.56" width="35.27" height="35.27" rx="7.83"/><rect id="Rectangle-6" class="cls-1" x="86.25" y="1.41" width="35.27" height="35.27" rx="7.83"/></g></g></g></g></svg>