<svg id="Layer_1" data-name="Layer 1" xmlns="http://www.w3.org/2000/svg" viewBox="0 0 16 16"><defs><style>.cls-1,.cls-3{fill:#006009;}.cls-1,.cls-2{stroke:#006009;stroke-miterlimit:10;}.cls-1{stroke-width:0.19px;}.cls-2{fill:none;stroke-linecap:square;stroke-width:1.5px;}</style></defs><path class="cls-1" d="M7.67,8.34v2.37l-.39-.38a.34.34,0,0,0-.48.48l1,1a.34.34,0,0,0,.48,0l1-1a.34.34,0,0,0,0-.48.33.33,0,0,0-.48,0l-.39.38V8.34a.34.34,0,0,0-.68,0Z"/><rect class="cls-2" x="2.5" y="6.5" width="11" height="7" rx="0.98"/><path class="cls-3" d="M2.83,7.32a.6.6,0,0,1-.56-.38.61.61,0,0,1,.31-.82L12.71,2l.47,1.16L3.05,7.27a.59.59,0,0,1-.22.05Z"/><path class="cls-3" d="M12.64,2.21l.37.92-10,4a.48.48,0,0,1-.61-.26l0-.05a.48.48,0,0,1,.26-.62l10-4m.14-.33L12.55,2l-10,4a.73.73,0,0,0-.4.39.7.7,0,0,0,0,.55V7a.73.73,0,0,0,.68.45.65.65,0,0,0,.27-.05l10-4,.23-.1L13.25,3l-.38-.93-.09-.23Z"/></svg>