<svg id="Layer_1" data-name="Layer 1" xmlns="http://www.w3.org/2000/svg" viewBox="0 0 16 16"><defs><style>.cls-1,.cls-2{fill:#006009;stroke:#006009;stroke-miterlimit:10;}.cls-1{stroke-width:0.82px;}.cls-2{stroke-width:0.5px;}</style></defs><path class="cls-1" d="M12.25,5H9.75a.25.25,0,0,1-.25-.25V2.25A.25.25,0,0,0,9.25,2h-5a.76.76,0,0,0-.75.75v10.5a.76.76,0,0,0,.75.75h7.5a.76.76,0,0,0,.75-.75v-8A.25.25,0,0,0,12.25,5ZM12,13.25a.25.25,0,0,1-.25.25H4.25A.25.25,0,0,1,4,13.25V2.75a.25.25,0,0,1,.25-.25H9V4.75a.76.76,0,0,0,.75.75H12Z"/><path class="cls-1" d="M12.39,5.07l-3-3a.26.26,0,0,0-.35,0,.25.25,0,0,0,0,.36l3,3a.23.23,0,0,0,.17.07.24.24,0,0,0,.18-.07A.25.25,0,0,0,12.39,5.07Z"/><path class="cls-2" d="M10.57,10.29l-.32-.39a.15.15,0,0,0-.19,0l-.43.26a.15.15,0,0,0,0,.21.15.15,0,0,0,.2.05l.14-.08a2,2,0,0,1-.7,1.06,1.8,1.8,0,0,1-1.71.34,2,2,0,0,1-.92-.59,2.09,2.09,0,0,1-.45-.92A.16.16,0,0,0,6,10.08a.15.15,0,0,0-.11.18A2.3,2.3,0,0,0,7.43,12a2,2,0,0,0,.64.1,2.09,2.09,0,0,0,1.35-.5,2.38,2.38,0,0,0,.81-1.26l.11.14a.14.14,0,0,0,.11.06.18.18,0,0,0,.1,0A.16.16,0,0,0,10.57,10.29Z"/><path class="cls-2" d="M6,9.13l.08,0,.42-.26a.15.15,0,0,0,0-.21.15.15,0,0,0-.2-.05l-.14.09a2,2,0,0,1,.58-1,1.89,1.89,0,0,1,1.95-.4A2,2,0,0,1,10,8.76a.16.16,0,0,0,.18.12.15.15,0,0,0,.11-.18,2.17,2.17,0,0,0-.48-1A2.27,2.27,0,0,0,8.89,7a2.19,2.19,0,0,0-1.19-.1,2.22,2.22,0,0,0-1.07.56A2.24,2.24,0,0,0,6,8.63L5.84,8.5a.15.15,0,0,0-.21,0,.16.16,0,0,0,0,.21l.32.39A.16.16,0,0,0,6,9.13Z"/></svg>