<svg id="Layer_1" data-name="Layer 1" xmlns="http://www.w3.org/2000/svg" viewBox="0 0 16 16"><defs><style>.cls-1,.cls-2{fill:#006009;stroke:#006009;stroke-miterlimit:10;}.cls-1{stroke-width:0.25px;}.cls-2{stroke-width:0.29px;}</style></defs><path class="cls-1" d="M7.59,11.5H6.84A2.28,2.28,0,0,0,4.48,9.33,2.27,2.27,0,0,0,2.13,11.5H1.38a3,3,0,0,1,3.1-2.88A3,3,0,0,1,7.59,11.5Z"/><path class="cls-1" d="M4.48,8.39a2,2,0,0,1-2-1.95,2,2,0,0,1,2-1.94A2,2,0,0,1,6.53,6.44,2,2,0,0,1,4.48,8.39Zm0-3.18a1.27,1.27,0,0,0-1.3,1.23,1.27,1.27,0,0,0,1.3,1.24A1.28,1.28,0,0,0,5.79,6.44,1.27,1.27,0,0,0,4.48,5.21Z"/><path class="cls-2" d="M9.84,5.7a1,1,0,1,1-1,1A1,1,0,0,1,9.84,5.7Z"/><path class="cls-2" d="M11.91,2.48a1,1,0,1,1-1,1A1,1,0,0,1,11.91,2.48Z"/><path class="cls-2" d="M14,5.7a1,1,0,1,1-1,1A1,1,0,0,1,14,5.7Z"/></svg>