<svg id="Layer_1" data-name="Layer 1" xmlns="http://www.w3.org/2000/svg" viewBox="0 0 16 16"><defs><style>.cls-1,.cls-2{fill:#006009;stroke:#006009;stroke-miterlimit:10;}.cls-1{stroke-width:0.86px;}.cls-2{stroke-width:0.21px;}</style></defs><path class="cls-1" d="M12.24,3.76a6,6,0,1,0,0,8.48A6,6,0,0,0,12.24,3.76ZM8,13.3A5.3,5.3,0,1,1,13.3,8,5.31,5.31,0,0,1,8,13.3Z"/><path class="cls-2" d="M9.73,6.05a.37.37,0,0,0-.5,0,.35.35,0,0,0,0,.5,1.9,1.9,0,1,1-2.51,0A.35.35,0,0,0,6.29,6,2.6,2.6,0,1,0,10.6,8,2.65,2.65,0,0,0,9.73,6.05Z"/><path class="cls-2" d="M8,7.41a.35.35,0,0,0,.35-.35V5.19a.35.35,0,1,0-.7,0V7.06A.35.35,0,0,0,8,7.41Z"/></svg>