<svg id="Layer_1" data-name="Layer 1" xmlns="http://www.w3.org/2000/svg" viewBox="0 0 16 16"><defs><style>.cls-1,.cls-2{fill:#006009;stroke:#006009;stroke-miterlimit:10;}.cls-1{stroke-width:0.23px;}.cls-2{font-size:4px;stroke-width:0.34px;font-family:MyriadPro-Regular, Myriad Pro;}</style></defs><path class="cls-1" d="M14.16,1.81H1.84A1.27,1.27,0,0,0,.58,3.07v9.86a1.27,1.27,0,0,0,1.26,1.26H14.16a1.27,1.27,0,0,0,1.26-1.26V3.07A1.27,1.27,0,0,0,14.16,1.81ZM1.84,2.88H14.16a.19.19,0,0,1,.2.19V4.61H1.64V3.07A.19.19,0,0,1,1.84,2.88ZM14.16,13.12H1.84a.19.19,0,0,1-.2-.19V5.67H14.36v7.26A.19.19,0,0,1,14.16,13.12Z"/><text class="cls-2" transform="translate(3.42 8.67)"><tspan xml:space="preserve">1  0  1</tspan><tspan x="0" y="4" xml:space="preserve">0  1  0</tspan></text></svg>