<svg id="Layer_1" data-name="Layer 1" xmlns="http://www.w3.org/2000/svg" xmlns:xlink="http://www.w3.org/1999/xlink" viewBox="0 0 150 248.56"><defs><style>.cls-1{fill:url(#radial-gradient);}.cls-2{fill:#086e38;}.cls-3{fill:#fff;}.cls-4{fill:url(#radial-gradient-2);}</style><radialGradient id="radial-gradient" cx="64.39" cy="266.15" r="196.09" gradientTransform="translate(33.23 -33.52) scale(0.64 0.59)" gradientUnits="userSpaceOnUse"><stop offset="0.12" stop-color="#fff"/><stop offset="0.22" stop-color="#fafcfb"/><stop offset="0.34" stop-color="#ecf5f0"/><stop offset="0.46" stop-color="#d5e9dd"/><stop offset="0.58" stop-color="#b5d7c3"/><stop offset="0.71" stop-color="#8bc1a2"/><stop offset="0.84" stop-color="#58a678"/><stop offset="0.98" stop-color="#1d8649"/><stop offset="1" stop-color="#128040"/></radialGradient><radialGradient id="radial-gradient-2" cx="75" cy="127" r="56.33" gradientUnits="userSpaceOnUse"><stop offset="0.42" stop-color="#77cefa" stop-opacity="0"/><stop offset="0.49" stop-color="#72caf0" stop-opacity="0.05"/><stop offset="0.6" stop-color="#62bed4" stop-opacity="0.21"/><stop offset="0.74" stop-color="#49aba6" stop-opacity="0.45"/><stop offset="0.88" stop-color="#279066" stop-opacity="0.8"/><stop offset="0.96" stop-color="#128040"/></radialGradient></defs><rect class="cls-1" x="59.11" y="0.5" width="30.5" height="247.56"/><path class="cls-2" d="M89.11,1V247.56H59.61V1h29.5m1-1H58.61V248.56h31.5V0Z"/><circle class="cls-3" cx="74.92" cy="127.06" r="54.89"/><circle class="cls-4" cx="75" cy="127" r="56.33"/><path class="cls-2" d="M102,133a3,3,0,0,0,3-3V124a3,3,0,0,0-3-3H98.67a0,0,0,0,0,0,0,24.2,24.2,0,0,0-2.7-6.5l2.33-2.33a3,3,0,0,0,0-4.2L94,103.68a3,3,0,0,0-2.1-.87,3,3,0,0,0-2.1.88L87.48,106A23.92,23.92,0,0,0,81,103.33s0-1.72,0-3.36a3,3,0,0,0-3-3H72a3,3,0,0,0-3,3l0,3.25A22,22,0,0,0,62.4,106l-2.31-2.32a3,3,0,0,0-4.2,0L51.6,108a3,3,0,0,0,0,4.19l2.33,2.33a24.17,24.17,0,0,0-2.69,6.5,0,0,0,0,1,0,0H48a3,3,0,0,0-3,3V130a3,3,0,0,0,3,3h3.23c0-.12-.06-.23-.08-.35,0,.11,0,.22.08.33a24,24,0,0,0,2.72,6.58l-2.33,2.33a3,3,0,0,0,0,4.2l4.28,4.28a3,3,0,0,0,4.2,0L62.41,148a24.17,24.17,0,0,0,6.65,2.74L69,154a3,3,0,0,0,3,3h6A3,3,0,0,0,81,154c0-1.62,0-3.3,0-3.3a24.56,24.56,0,0,0,6.44-2.68l2.32,2.32a3,3,0,0,0,4.2,0l4.28-4.27a3,3,0,0,0,0-4.2L96,139.57A24.78,24.78,0,0,0,98.69,133c0-.11,0-.11,0,0H102ZM75,143.26A16.24,16.24,0,1,1,91.19,127,16.24,16.24,0,0,1,75,143.26Z"/></svg>