<svg id="Layer_1" data-name="Layer 1" xmlns="http://www.w3.org/2000/svg" viewBox="0 0 16 16"><defs><style>.cls-1,.cls-2{fill:#006009;stroke:#006009;stroke-miterlimit:10;}.cls-1{stroke-width:0.25px;}.cls-2{stroke-width:0.31px;}</style></defs><path class="cls-1" d="M7.59,12.5H6.84a2.28,2.28,0,0,0-2.36-2.17A2.27,2.27,0,0,0,2.13,12.5H1.38a3,3,0,0,1,3.1-2.88A3,3,0,0,1,7.59,12.5Z"/><path class="cls-1" d="M4.48,9.39a2,2,0,0,1-2-1.95,2,2,0,0,1,2-1.94A2,2,0,0,1,6.53,7.44,2,2,0,0,1,4.48,9.39Zm0-3.18a1.24,1.24,0,1,0,0,2.47A1.28,1.28,0,0,0,5.79,7.44,1.27,1.27,0,0,0,4.48,6.21Z"/><path class="cls-2" d="M11.19,9h-.38a.55.55,0,0,1-.55-.55V8.32a1.8,1.8,0,0,1-.38-.16l-.09.09a.54.54,0,0,1-.78,0L8.75,8a.54.54,0,0,1,0-.78l.09-.09a1.8,1.8,0,0,1-.16-.38H8.55A.55.55,0,0,1,8,6.19V5.81a.55.55,0,0,1,.55-.55h.13a1.8,1.8,0,0,1,.16-.38l-.09-.09a.54.54,0,0,1,0-.78L9,3.75a.54.54,0,0,1,.78,0l.09.09a1.8,1.8,0,0,1,.38-.16V3.55A.55.55,0,0,1,10.81,3h.38a.55.55,0,0,1,.55.55v.13a1.8,1.8,0,0,1,.38.16l.09-.09a.54.54,0,0,1,.78,0l.26.26a.54.54,0,0,1,0,.78l-.09.09a1.8,1.8,0,0,1,.16.38h.13a.55.55,0,0,1,.55.55v.38a.55.55,0,0,1-.55.55h-.13a1.8,1.8,0,0,1-.16.38l.09.09a.54.54,0,0,1,0,.78L13,8.25a.54.54,0,0,1-.78,0l-.09-.09a1.8,1.8,0,0,1-.38.16v.13A.55.55,0,0,1,11.19,9ZM9.94,7.79a2.14,2.14,0,0,0,.54.23.17.17,0,0,1,.13.17v.26a.2.2,0,0,0,.2.2h.38a.2.2,0,0,0,.2-.2V8.19A.17.17,0,0,1,11.52,8a2.14,2.14,0,0,0,.54-.23.18.18,0,0,1,.21,0l.19.19a.2.2,0,0,0,.28,0L13,7.74a.2.2,0,0,0,0-.28l-.19-.19a.18.18,0,0,1,0-.21A2.14,2.14,0,0,0,13,6.52a.17.17,0,0,1,.17-.13h.26a.2.2,0,0,0,.2-.2V5.81a.2.2,0,0,0-.2-.2h-.26A.17.17,0,0,1,13,5.48a2.14,2.14,0,0,0-.23-.54.18.18,0,0,1,0-.21L13,4.54a.2.2,0,0,0,0-.28L12.74,4a.2.2,0,0,0-.28,0l-.19.19a.18.18,0,0,1-.21,0A2.14,2.14,0,0,0,11.52,4a.17.17,0,0,1-.13-.17V3.55a.2.2,0,0,0-.2-.2h-.38a.2.2,0,0,0-.2.2v.26a.17.17,0,0,1-.13.17,2.14,2.14,0,0,0-.54.23.18.18,0,0,1-.21,0L9.54,4a.2.2,0,0,0-.28,0L9,4.26a.2.2,0,0,0,0,.28l.19.19a.18.18,0,0,1,0,.21A2.14,2.14,0,0,0,9,5.48a.17.17,0,0,1-.17.13H8.55a.2.2,0,0,0-.2.2v.38a.2.2,0,0,0,.2.2h.26A.17.17,0,0,1,9,6.52a2.14,2.14,0,0,0,.23.54.18.18,0,0,1,0,.21L9,7.46a.2.2,0,0,0,0,.28L9.26,8a.2.2,0,0,0,.28,0l.19-.19a.17.17,0,0,1,.21,0Z"/><path class="cls-2" d="M11,7.31A1.31,1.31,0,1,1,12.31,6,1.31,1.31,0,0,1,11,7.31Zm0-2.26A1,1,0,1,0,12,6a.94.94,0,0,0-.95-1Z"/></svg>