<?xml version="1.0" encoding="UTF-8"?><svg id="Layer_1" xmlns="http://www.w3.org/2000/svg" viewBox="0 0 25.53 12.05"><defs><style>.cls-1{fill:#4c4c4c;}.cls-2{fill:#d1d1d2;stroke:#a4a5a4;stroke-miterlimit:10;stroke-width:.75px;}</style></defs><rect class="cls-2" x=".84" y=".77" width="23.93" height="10.47" rx="2.98" ry="2.98"/><g><path class="cls-1" d="m5.85,6.77v-2.62c0-.06.04-.1.1-.1h.64c.07,0,.1.03.1.1v2.62c0,.41.28.68.71.68s.71-.28.71-.68v-2.62c0-.06.04-.1.1-.1h.64c.07,0,.1.03.1.1v2.62c0,.83-.62,1.39-1.55,1.39s-1.55-.56-1.55-1.39Z"/><path class="cls-1" d="m9.51,6.95v-.1c0-.06.04-.1.1-.1h.63c.07,0,.1.03.1.08v.08c0,.3.31.55.79.55.46,0,.62-.22.62-.45,0-.3-.31-.4-.88-.6-.62-.21-1.34-.48-1.34-1.25,0-.71.61-1.15,1.46-1.15.92,0,1.58.5,1.58,1.25v.06c0,.06-.04.1-.1.1h-.63c-.07,0-.1-.02-.1-.06v-.06c0-.3-.27-.59-.77-.59-.38,0-.6.16-.6.44,0,.3.26.41.93.63.55.19,1.3.42,1.3,1.21,0,.71-.59,1.18-1.54,1.18s-1.56-.47-1.56-1.21Z"/><path class="cls-1" d="m16.02,4.75h-1.93s-.04.01-.04.04v.89s.01.04.04.04h1.25c.07,0,.1.03.1.1v.5c0,.06-.04.1-.1.1h-1.25s-.04.01-.04.03v.93s.01.04.04.04h1.93c.07,0,.1.03.1.1v.5c0,.06-.04.1-.1.1h-2.71c-.07,0-.1-.04-.1-.1v-3.86c0-.06.04-.1.1-.1h2.71c.07,0,.1.03.1.1v.5c0,.06-.04.1-.1.1Z"/><path class="cls-1" d="m18.91,8.04l-.74-1.58s-.02-.03-.04-.03h-.55s-.04.01-.04.04v1.55c0,.06-.04.1-.1.1h-.64c-.07,0-.1-.04-.1-.1v-3.87c0-.06.04-.1.1-.1h1.68c.77,0,1.28.49,1.28,1.22,0,.53-.29.92-.77,1.08-.02,0-.03.03-.02.05l.79,1.6c.04.06,0,.12-.07.12h-.68c-.05,0-.1-.03-.12-.08Zm-1.36-3.25v.97s.01.03.04.03h.78c.33,0,.57-.21.57-.52s-.23-.53-.57-.53h-.78s-.04.01-.04.04Z"/></g></svg>