<svg id="Layer_1" data-name="Layer 1" xmlns="http://www.w3.org/2000/svg" viewBox="0 0 16 16"><defs><style>.cls-1,.cls-2{fill:#006009;}.cls-1{stroke:#006009;stroke-miterlimit:10;stroke-width:0.2px;}</style></defs><path class="cls-1" d="M13.35,2.63H2.65A1.09,1.09,0,0,0,1.56,3.72v8.56a1.09,1.09,0,0,0,1.09,1.09h10.7a1.09,1.09,0,0,0,1.09-1.09V3.72A1.09,1.09,0,0,0,13.35,2.63Zm-10.7.92h10.7a.17.17,0,0,1,.17.17V5.93h-11V3.72A.17.17,0,0,1,2.65,3.55Zm10.7,8.9H2.65a.17.17,0,0,1-.17-.17V6.85h11v5.43A.17.17,0,0,1,13.35,12.45Z"/><path class="cls-2" d="M3.83,5.31a.61.61,0,1,0-.61-.61A.61.61,0,0,0,3.83,5.31Z"/><path class="cls-2" d="M6,5.31a.61.61,0,1,0-.61-.61A.61.61,0,0,0,6,5.31Z"/><path class="cls-2" d="M8,5.31a.61.61,0,1,0-.61-.61A.61.61,0,0,0,8,5.31Z"/></svg>