<svg xmlns="http://www.w3.org/2000/svg" xmlns:xlink="http://www.w3.org/1999/xlink" width="171" zoomAndPan="magnify" viewBox="0 0 128.25 95.999999" height="128" preserveAspectRatio="xMidYMid meet" version="1.0"><defs><clipPath id="b8fae75eac"><path d="M 36.054688 17.109375 L 87.746094 17.109375 L 87.746094 77.886719 L 36.054688 77.886719 Z M 36.054688 17.109375 " clip-rule="nonzero"/></clipPath></defs><g clip-path="url(#b8fae75eac)"><path fill="#01003b" d="M 71.921875 17.277344 C 72.21875 17.277344 72.5 17.355469 72.761719 17.503906 C 72.964844 17.621094 73.140625 17.769531 73.285156 17.953125 C 73.433594 18.140625 73.539062 18.34375 73.605469 18.570312 C 73.671875 18.796875 73.691406 19.027344 73.664062 19.261719 C 73.640625 19.496094 73.570312 19.714844 73.460938 19.921875 L 71.539062 23.382812 C 72.699219 24.074219 73.75 24.898438 74.699219 25.863281 C 75.644531 26.824219 76.457031 27.886719 77.128906 29.058594 C 77.804688 30.226562 78.320312 31.464844 78.675781 32.765625 C 79.03125 34.066406 79.21875 35.390625 79.234375 36.742188 L 79.234375 37.785156 C 79.558594 37.402344 79.929688 37.078125 80.355469 36.8125 C 80.777344 36.546875 81.230469 36.347656 81.714844 36.222656 C 82.199219 36.097656 82.691406 36.046875 83.1875 36.070312 C 83.6875 36.097656 84.171875 36.199219 84.640625 36.375 C 85.109375 36.550781 85.539062 36.792969 85.933594 37.101562 C 86.324219 37.410156 86.664062 37.769531 86.945312 38.183594 C 87.226562 38.597656 87.4375 39.042969 87.582031 39.523438 C 87.726562 40 87.792969 40.492188 87.785156 40.992188 L 87.785156 55.902344 C 87.785156 56.394531 87.710938 56.878906 87.566406 57.351562 C 87.417969 57.824219 87.203125 58.261719 86.921875 58.667969 C 86.640625 59.074219 86.304688 59.429688 85.914062 59.734375 C 85.523438 60.039062 85.097656 60.277344 84.632812 60.449219 C 84.171875 60.621094 83.691406 60.722656 83.199219 60.75 C 82.707031 60.777344 82.21875 60.726562 81.738281 60.605469 C 81.261719 60.484375 80.8125 60.292969 80.390625 60.03125 C 79.96875 59.773438 79.597656 59.457031 79.273438 59.082031 L 79.273438 61.179688 C 79.273438 61.515625 79.242188 61.847656 79.175781 62.175781 C 79.109375 62.503906 79.015625 62.820312 78.886719 63.128906 C 78.757812 63.4375 78.601562 63.730469 78.417969 64.007812 C 78.230469 64.285156 78.019531 64.542969 77.78125 64.78125 C 77.546875 65.015625 77.289062 65.226562 77.011719 65.414062 C 76.734375 65.597656 76.441406 65.753906 76.132812 65.882812 C 75.824219 66.011719 75.503906 66.109375 75.175781 66.171875 C 74.851562 66.238281 74.519531 66.269531 74.183594 66.269531 L 72.914062 66.269531 L 72.914062 72.925781 C 72.914062 73.242188 72.882812 73.558594 72.820312 73.871094 C 72.757812 74.183594 72.664062 74.484375 72.542969 74.78125 C 72.421875 75.074219 72.273438 75.351562 72.09375 75.617188 C 71.917969 75.882812 71.71875 76.125 71.492188 76.351562 C 71.269531 76.578125 71.023438 76.777344 70.757812 76.953125 C 70.492188 77.132812 70.214844 77.28125 69.921875 77.402344 C 69.625 77.523438 69.324219 77.617188 69.011719 77.679688 C 68.699219 77.742188 68.382812 77.773438 68.066406 77.773438 C 67.746094 77.773438 67.433594 77.742188 67.121094 77.679688 C 66.808594 77.617188 66.503906 77.523438 66.210938 77.402344 C 65.917969 77.28125 65.636719 77.132812 65.371094 76.953125 C 65.109375 76.777344 64.863281 76.578125 64.636719 76.351562 C 64.414062 76.125 64.210938 75.882812 64.035156 75.617188 C 63.859375 75.351562 63.707031 75.074219 63.585938 74.78125 C 63.464844 74.484375 63.375 74.183594 63.3125 73.871094 C 63.25 73.558594 63.21875 73.242188 63.21875 72.925781 L 63.21875 66.308594 L 60.851562 66.308594 L 60.851562 72.960938 C 60.835938 73.269531 60.792969 73.574219 60.71875 73.875 C 60.644531 74.175781 60.542969 74.464844 60.414062 74.746094 C 60.285156 75.023438 60.128906 75.289062 59.949219 75.542969 C 59.769531 75.792969 59.570312 76.023438 59.34375 76.238281 C 59.121094 76.449219 58.878906 76.640625 58.621094 76.804688 C 58.359375 76.972656 58.085938 77.113281 57.800781 77.226562 C 57.511719 77.34375 57.21875 77.429688 56.914062 77.488281 C 56.613281 77.542969 56.304688 77.574219 55.996094 77.574219 C 55.6875 77.574219 55.382812 77.542969 55.082031 77.488281 C 54.777344 77.429688 54.480469 77.34375 54.195312 77.226562 C 53.910156 77.113281 53.636719 76.972656 53.375 76.804688 C 53.117188 76.640625 52.875 76.449219 52.652344 76.238281 C 52.425781 76.023438 52.226562 75.792969 52.046875 75.542969 C 51.867188 75.289062 51.710938 75.023438 51.582031 74.746094 C 51.453125 74.464844 51.351562 74.175781 51.277344 73.875 C 51.203125 73.574219 51.160156 73.269531 51.144531 72.960938 L 51.144531 66.308594 L 49.871094 66.308594 C 49.539062 66.308594 49.207031 66.277344 48.878906 66.210938 C 48.550781 66.144531 48.234375 66.050781 47.925781 65.921875 C 47.617188 65.792969 47.324219 65.636719 47.042969 65.449219 C 46.765625 65.265625 46.511719 65.054688 46.273438 64.816406 C 46.039062 64.582031 45.828125 64.324219 45.640625 64.046875 C 45.457031 63.769531 45.296875 63.476562 45.171875 63.167969 C 45.042969 62.859375 44.945312 62.539062 44.882812 62.210938 C 44.816406 61.886719 44.78125 61.554688 44.78125 61.21875 L 44.78125 59.082031 C 44.328125 59.617188 43.78125 60.03125 43.140625 60.324219 C 42.503906 60.617188 41.832031 60.761719 41.132812 60.761719 C 40.8125 60.761719 40.496094 60.730469 40.183594 60.667969 C 39.871094 60.605469 39.566406 60.515625 39.273438 60.390625 C 38.980469 60.269531 38.699219 60.121094 38.433594 59.941406 C 38.167969 59.765625 37.925781 59.5625 37.699219 59.335938 C 37.472656 59.113281 37.273438 58.867188 37.097656 58.601562 C 36.921875 58.335938 36.769531 58.054688 36.648438 57.761719 C 36.527344 57.464844 36.4375 57.160156 36.375 56.847656 C 36.3125 56.535156 36.285156 56.21875 36.285156 55.902344 L 36.285156 40.992188 C 36.285156 40.671875 36.3125 40.355469 36.375 40.042969 C 36.4375 39.730469 36.527344 39.425781 36.648438 39.132812 C 36.769531 38.835938 36.921875 38.558594 37.097656 38.292969 C 37.273438 38.027344 37.472656 37.78125 37.699219 37.554688 C 37.925781 37.328125 38.167969 37.128906 38.433594 36.949219 C 38.699219 36.773438 38.980469 36.625 39.273438 36.5 C 39.566406 36.378906 39.871094 36.285156 40.183594 36.222656 C 40.496094 36.164062 40.8125 36.132812 41.132812 36.132812 C 41.832031 36.128906 42.503906 36.277344 43.140625 36.570312 C 43.78125 36.863281 44.328125 37.277344 44.78125 37.808594 L 44.78125 36.78125 C 44.792969 35.429688 44.972656 34.105469 45.324219 32.800781 C 45.671875 31.5 46.183594 30.261719 46.851562 29.089844 C 47.519531 27.917969 48.324219 26.851562 49.269531 25.886719 C 50.210938 24.921875 51.261719 24.089844 52.417969 23.394531 L 50.496094 19.921875 C 50.382812 19.714844 50.3125 19.496094 50.285156 19.261719 C 50.257812 19.027344 50.277344 18.796875 50.339844 18.570312 C 50.40625 18.34375 50.507812 18.140625 50.65625 17.957031 C 50.800781 17.769531 50.976562 17.621094 51.183594 17.503906 C 51.445312 17.351562 51.730469 17.277344 52.035156 17.277344 C 52.359375 17.277344 52.660156 17.359375 52.941406 17.523438 C 53.21875 17.6875 53.441406 17.910156 53.601562 18.191406 L 55.621094 21.832031 C 57.675781 21.082031 59.796875 20.710938 61.984375 20.710938 C 64.171875 20.710938 66.289062 21.082031 68.34375 21.832031 L 70.355469 18.191406 C 70.515625 17.910156 70.734375 17.6875 71.015625 17.523438 C 71.292969 17.359375 71.597656 17.277344 71.921875 17.277344 Z M 71.921875 17.277344 " fill-opacity="1" fill-rule="nonzero"/></g><path fill="#ffffff" d="M 41.054688 37.378906 C 41.535156 37.375 41.996094 37.464844 42.4375 37.644531 C 42.882812 37.828125 43.273438 38.089844 43.609375 38.429688 C 43.945312 38.769531 44.203125 39.160156 44.382812 39.605469 C 44.5625 40.050781 44.648438 40.511719 44.644531 40.992188 L 44.644531 55.902344 C 44.644531 56.378906 44.550781 56.835938 44.371094 57.273438 C 44.1875 57.714844 43.929688 58.101562 43.59375 58.4375 C 43.257812 58.773438 42.867188 59.035156 42.429688 59.214844 C 41.988281 59.398438 41.53125 59.488281 41.054688 59.488281 C 40.578125 59.488281 40.121094 59.398438 39.683594 59.214844 C 39.242188 59.035156 38.855469 58.773438 38.519531 58.4375 C 38.183594 58.101562 37.921875 57.714844 37.742188 57.273438 C 37.558594 56.835938 37.46875 56.378906 37.46875 55.902344 L 37.46875 40.992188 C 37.464844 40.515625 37.554688 40.054688 37.734375 39.613281 C 37.914062 39.171875 38.171875 38.785156 38.511719 38.445312 C 38.847656 38.109375 39.238281 37.851562 39.679688 37.667969 C 40.121094 37.488281 40.578125 37.398438 41.054688 37.402344 M 82.898438 37.402344 C 83.378906 37.394531 83.839844 37.484375 84.285156 37.660156 C 84.730469 37.839844 85.121094 38.101562 85.460938 38.4375 C 85.800781 38.773438 86.0625 39.164062 86.246094 39.609375 C 86.425781 40.050781 86.515625 40.511719 86.511719 40.992188 L 86.511719 55.902344 C 86.511719 56.378906 86.421875 56.835938 86.238281 57.273438 C 86.058594 57.714844 85.796875 58.101562 85.460938 58.4375 C 85.125 58.773438 84.738281 59.035156 84.296875 59.214844 C 83.859375 59.398438 83.402344 59.488281 82.925781 59.488281 C 82.449219 59.488281 81.992188 59.398438 81.550781 59.214844 C 81.113281 59.035156 80.722656 58.773438 80.386719 58.4375 C 80.050781 58.101562 79.792969 57.714844 79.609375 57.273438 C 79.429688 56.835938 79.335938 56.378906 79.335938 55.902344 L 79.335938 40.992188 C 79.332031 40.515625 79.421875 40.054688 79.605469 39.613281 C 79.785156 39.171875 80.042969 38.785156 80.378906 38.445312 C 80.71875 38.109375 81.105469 37.851562 81.546875 37.667969 C 81.988281 37.488281 82.449219 37.398438 82.925781 37.402344 " fill-opacity="1" fill-rule="nonzero"/><path fill="#ffffff" d="M 55.980469 54.425781 C 56.457031 54.421875 56.914062 54.511719 57.355469 54.691406 C 57.796875 54.871094 58.1875 55.132812 58.523438 55.46875 C 58.859375 55.804688 59.121094 56.195312 59.300781 56.636719 C 59.480469 57.078125 59.570312 57.535156 59.566406 58.011719 L 59.566406 72.960938 C 59.566406 73.4375 59.476562 73.894531 59.292969 74.335938 C 59.109375 74.773438 58.851562 75.160156 58.515625 75.496094 C 58.179688 75.832031 57.789062 76.09375 57.351562 76.273438 C 56.910156 76.457031 56.453125 76.546875 55.980469 76.546875 C 55.503906 76.546875 55.046875 76.457031 54.605469 76.273438 C 54.167969 76.09375 53.78125 75.832031 53.441406 75.496094 C 53.105469 75.160156 52.847656 74.773438 52.664062 74.335938 C 52.484375 73.894531 52.390625 73.4375 52.390625 72.960938 L 52.390625 58.011719 C 52.386719 57.535156 52.476562 57.078125 52.65625 56.636719 C 52.839844 56.195312 53.097656 55.804688 53.433594 55.46875 C 53.773438 55.132812 54.160156 54.871094 54.601562 54.691406 C 55.042969 54.511719 55.503906 54.421875 55.980469 54.425781 M 67.9375 54.425781 C 68.414062 54.421875 68.875 54.511719 69.316406 54.691406 C 69.757812 54.871094 70.144531 55.132812 70.484375 55.46875 C 70.820312 55.804688 71.078125 56.195312 71.257812 56.636719 C 71.441406 57.078125 71.527344 57.535156 71.527344 58.011719 L 71.527344 72.960938 C 71.527344 73.4375 71.433594 73.894531 71.253906 74.335938 C 71.070312 74.773438 70.8125 75.164062 70.476562 75.5 C 70.136719 75.835938 69.75 76.09375 69.3125 76.277344 C 68.871094 76.460938 68.414062 76.550781 67.9375 76.550781 C 67.460938 76.550781 67.003906 76.460938 66.566406 76.277344 C 66.125 76.09375 65.738281 75.835938 65.402344 75.5 C 65.066406 75.164062 64.804688 74.773438 64.625 74.335938 C 64.441406 73.894531 64.351562 73.4375 64.351562 72.960938 L 64.351562 58.011719 C 64.347656 57.535156 64.4375 57.078125 64.617188 56.636719 C 64.796875 56.195312 65.054688 55.804688 65.394531 55.46875 C 65.730469 55.132812 66.121094 54.871094 66.5625 54.691406 C 67.003906 54.511719 67.460938 54.421875 67.9375 54.425781 " fill-opacity="1" fill-rule="nonzero"/><path fill="#ffffff" d="M 77.976562 37.988281 L 77.976562 61.179688 C 77.976562 61.6875 77.878906 62.175781 77.683594 62.640625 C 77.492188 63.109375 77.214844 63.523438 76.859375 63.878906 C 76.5 64.238281 76.085938 64.515625 75.621094 64.707031 C 75.152344 64.902344 74.664062 65 74.160156 65 L 49.847656 65 C 49.339844 65 48.855469 64.902344 48.386719 64.707031 C 47.917969 64.515625 47.503906 64.238281 47.148438 63.878906 C 46.789062 63.523438 46.515625 63.109375 46.320312 62.640625 C 46.125 62.175781 46.03125 61.6875 46.03125 61.179688 L 46.03125 37.988281 Z M 71.90625 18.546875 C 71.996094 18.542969 72.074219 18.566406 72.148438 18.613281 C 72.273438 18.675781 72.359375 18.777344 72.398438 18.914062 C 72.4375 19.046875 72.421875 19.175781 72.351562 19.300781 L 69.808594 23.867188 C 71.011719 24.460938 72.113281 25.207031 73.113281 26.105469 C 74.113281 27.003906 74.96875 28.019531 75.691406 29.152344 C 76.410156 30.289062 76.960938 31.5 77.347656 32.785156 C 77.734375 34.070312 77.9375 35.386719 77.964844 36.730469 L 45.980469 36.730469 C 46 35.386719 46.203125 34.070312 46.589844 32.78125 C 46.972656 31.496094 47.527344 30.285156 48.246094 29.148438 C 48.964844 28.015625 49.824219 27 50.824219 26.101562 C 51.824219 25.203125 52.929688 24.460938 54.132812 23.867188 L 51.589844 19.300781 C 51.515625 19.179688 51.496094 19.050781 51.535156 18.914062 C 51.570312 18.777344 51.652344 18.675781 51.78125 18.613281 C 51.855469 18.566406 51.9375 18.546875 52.023438 18.546875 C 52.226562 18.539062 52.378906 18.625 52.480469 18.804688 L 55.023438 23.421875 C 56.117188 22.941406 57.246094 22.582031 58.410156 22.335938 C 59.574219 22.09375 60.753906 21.972656 61.945312 21.972656 C 63.136719 21.972656 64.316406 22.09375 65.480469 22.335938 C 66.648438 22.582031 67.777344 22.941406 68.867188 23.421875 L 71.410156 18.804688 C 71.507812 18.625 71.65625 18.539062 71.855469 18.546875 " fill-opacity="1" fill-rule="nonzero"/><path fill="#01003b" d="M 54.59375 28.191406 C 54.769531 28.191406 54.941406 28.226562 55.101562 28.292969 C 55.265625 28.363281 55.410156 28.457031 55.535156 28.582031 C 55.660156 28.707031 55.757812 28.851562 55.828125 29.015625 C 55.894531 29.179688 55.929688 29.351562 55.929688 29.527344 C 55.929688 29.707031 55.894531 29.875 55.828125 30.039062 C 55.757812 30.203125 55.660156 30.347656 55.535156 30.472656 C 55.410156 30.597656 55.265625 30.695312 55.101562 30.761719 C 54.941406 30.828125 54.769531 30.863281 54.59375 30.863281 C 54.414062 30.863281 54.246094 30.828125 54.082031 30.761719 C 53.917969 30.695312 53.773438 30.597656 53.648438 30.472656 C 53.523438 30.347656 53.425781 30.203125 53.359375 30.039062 C 53.289062 29.875 53.257812 29.707031 53.257812 29.527344 C 53.257812 29.351562 53.289062 29.179688 53.359375 29.015625 C 53.425781 28.851562 53.523438 28.707031 53.648438 28.582031 C 53.773438 28.457031 53.917969 28.363281 54.082031 28.292969 C 54.246094 28.226562 54.414062 28.191406 54.59375 28.191406 M 69.363281 28.191406 C 69.539062 28.191406 69.710938 28.226562 69.875 28.292969 C 70.039062 28.363281 70.183594 28.457031 70.308594 28.582031 C 70.433594 28.707031 70.53125 28.851562 70.597656 29.015625 C 70.664062 29.179688 70.699219 29.351562 70.699219 29.527344 C 70.699219 29.707031 70.664062 29.875 70.597656 30.039062 C 70.53125 30.203125 70.433594 30.347656 70.308594 30.472656 C 70.183594 30.597656 70.039062 30.695312 69.875 30.761719 C 69.710938 30.828125 69.539062 30.863281 69.363281 30.863281 C 69.1875 30.863281 69.015625 30.828125 68.851562 30.761719 C 68.6875 30.695312 68.542969 30.597656 68.417969 30.472656 C 68.292969 30.347656 68.195312 30.203125 68.128906 30.039062 C 68.0625 29.875 68.027344 29.707031 68.027344 29.527344 C 68.027344 29.351562 68.0625 29.179688 68.128906 29.015625 C 68.195312 28.851562 68.292969 28.707031 68.417969 28.582031 C 68.542969 28.457031 68.6875 28.363281 68.851562 28.292969 C 69.015625 28.226562 69.1875 28.191406 69.363281 28.191406 " fill-opacity="1" fill-rule="nonzero"/></svg>