<?xml version="1.0" standalone="no"?>
<!DOCTYPE svg PUBLIC "-//W3C//DTD SVG 1.1//EN" "http://www.w3.org/Graphics/SVG/1.1/DTD/svg11.dtd" >
<svg xmlns="http://www.w3.org/2000/svg">
<metadata></metadata>
<defs>
<font id="niveau_groteskBlksmallcaps" horiz-adv-x="520" >
<font-face units-per-em="1000" ascent="750" descent="-250" />
<missing-glyph horiz-adv-x="212" />
<glyph unicode="&#xfb01;" horiz-adv-x="702" d="M371 180h-155v-180h-155v544h326v-150h-171v-74h155v-140zM486 0v544h155v-544h-155z" />
<glyph unicode="&#xfb02;" horiz-adv-x="833" d="M371 180h-155v-180h-155v544h326v-150h-171v-74h155v-140zM812 0h-326v544h155v-394h171v-150z" />
<glyph horiz-adv-x="1000" />
<glyph horiz-adv-x="1000" />
<glyph unicode="&#xd;" horiz-adv-x="1000" />
<glyph unicode=" "  horiz-adv-x="212" />
<glyph unicode="&#x09;" horiz-adv-x="212" />
<glyph unicode="&#xa0;" horiz-adv-x="212" />
<glyph unicode="!" horiz-adv-x="284" d="M197 246h-110l-40 434h190zM34 97q0 47 30.5 77.5t76.5 30.5q47 0 77.5 -30.5t30.5 -77.5q0 -46 -30.5 -76.5t-77.5 -30.5t-77 30t-30 77z" />
<glyph unicode="&#x22;" horiz-adv-x="481" d="M203 434h-150l-10 246h170zM428 434h-150l-10 246h170z" />
<glyph unicode="#" horiz-adv-x="667" d="M302 0l51 174h-130l-52 -174h-109l51 174h-81v90h108l42 141h-120v90h147l55 185h110l-55 -185h130l55 185h110l-55 -185h76v-90h-103l-42 -141h115v-90h-142l-52 -174h-109zM292 405l-42 -141h130l42 141h-130z" />
<glyph unicode="$" horiz-adv-x="497" d="M429 663v-177q-28 18 -69.5 32t-76.5 14q-66 0 -66 -43q0 -24 44 -49l77 -44q127 -73 127 -194q0 -80 -47.5 -138t-139.5 -71v-110h-55v106q-94 1 -169 32v185q30 -23 77 -40.5t90 -17.5q63 0 63 44q0 24 -45 49l-81 46q-68 39 -95.5 85.5t-27.5 110.5q0 74 45 131 t143 72v92h55v-87h6q77 0 145 -28z" />
<glyph unicode="%" horiz-adv-x="914" d="M249 0l302 680h120l-303 -680h-119zM198 578q-24 0 -38 -13.5t-14 -36.5v-110q0 -23 14 -37t38 -14t38 14t14 37v110q0 23 -14 36.5t-38 13.5zM198 690q72 0 119.5 -45t47.5 -114v-116q0 -70 -47.5 -115t-119.5 -45t-119.5 45t-47.5 115v116q0 69 47.5 114t119.5 45z M716 312q-24 0 -38 -13.5t-14 -36.5v-110q0 -23 14 -37t38 -14t38 14t14 37v110q0 23 -14 36.5t-38 13.5zM716 424q72 0 119.5 -45t47.5 -114v-116q0 -70 -47.5 -115t-119.5 -45t-119.5 45t-47.5 115v116q0 69 47.5 114t119.5 45z" />
<glyph unicode="&#x26;" horiz-adv-x="701" d="M26 206q0 144 148 208l-4 6q-39 48 -39 101q0 73 53 121t137 48q85 0 136 -47.5t51 -125.5q0 -108 -107 -162l60 -70l181 191v-222l-82 -87l142 -167h-203l-46 58q-85 -69 -188 -69q-113 0 -176 63t-63 154zM265 144q44 0 92 37l-93 118q-72 -31 -72 -81q0 -30 19.5 -52 t53.5 -22zM305 469l4 -5q43 20 43 46q0 35 -31 35q-15 0 -24.5 -9.5t-9.5 -24.5q0 -16 18 -42z" />
<glyph unicode="'" horiz-adv-x="256" d="M203 434h-150l-10 246h170z" />
<glyph unicode="(" horiz-adv-x="277" d="M151 242q0 -228 113 -392l-89 -56q-67 84 -108.5 203t-41.5 245q0 127 41.5 246t108.5 203l89 -56q-113 -164 -113 -393z" />
<glyph unicode=")" horiz-adv-x="277" d="M126 243q0 228 -113 392l89 56q67 -84 108.5 -203t41.5 -245q0 -127 -41.5 -246t-108.5 -203l-89 56q113 164 113 393z" />
<glyph unicode="*" horiz-adv-x="352" d="M56 635l94 -54v109h47v-108l93 54l24 -41l-94 -55l94 -53l-24 -41l-93 53v-106h-47v106l-93 -53l-24 41l92 53l-92 54z" />
<glyph unicode="+" d="M31 222v125h160v167h135v-167h162v-125h-162v-167h-135v167h-160z" />
<glyph unicode="," horiz-adv-x="273" d="M179 -108h-150l27 297h180z" />
<glyph unicode="-" horiz-adv-x="375" d="M326 208h-277v154h277v-154z" />
<glyph unicode="." horiz-adv-x="275" d="M30 97q0 47 30.5 77.5t76.5 30.5q47 0 77.5 -30.5t30.5 -77.5q0 -46 -30.5 -76.5t-77.5 -30.5t-77 30t-30 77z" />
<glyph unicode="/" horiz-adv-x="460" d="M19 0l302 680h120l-303 -680h-119z" />
<glyph unicode="0" horiz-adv-x="592" d="M296 525q-40 0 -62.5 -25t-22.5 -67v-186q0 -41 22.5 -66.5t62.5 -25.5t62.5 25.5t22.5 66.5v186q0 42 -22.5 67t-62.5 25zM296 691q110 0 182.5 -71.5t72.5 -181.5v-195q0 -110 -72.5 -182t-182.5 -72t-182.5 72t-72.5 182v195q0 110 72.5 181.5t182.5 71.5z" />
<glyph unicode="1" horiz-adv-x="488" d="M30 0v164h147v352h-117v164h287v-516h127v-164h-444z" />
<glyph unicode="2" horiz-adv-x="473" d="M38 0v144l176 220q43 52 43 90q0 31 -17 49t-47 18q-78 0 -142 -59v189q62 40 155 40q114 0 170 -60t56 -144q0 -103 -67 -189l-105 -134h167v-164h-389z" />
<glyph unicode="3" horiz-adv-x="466" d="M94 266v164h92q23 0 38.5 12t15.5 32q0 21 -16 34t-43 13q-74 0 -129 -39v182q64 27 136 27q103 0 165 -55t62 -138q0 -105 -77 -149q95 -50 95 -160q0 -84 -67 -142t-170 -58q-78 0 -153 29v190q57 -49 142 -49q31 0 52 15.5t21 40.5q0 51 -71 51h-93z" />
<glyph unicode="4" horiz-adv-x="573" d="M540 123h-76v-123h-170v123h-279v144l279 413h170v-393h76v-164zM193 287h101v157z" />
<glyph unicode="5" horiz-adv-x="494" d="M442 516h-189l-8 -64q98 -8 154.5 -67t56.5 -154q0 -118 -68.5 -180t-180.5 -62q-94 0 -162 34v203q71 -67 152 -67q37 0 60.5 21t23.5 51q0 22 -9.5 35.5t-28.5 19.5t-36.5 7.5t-45.5 1.5h-91l30 385h342v-164z" />
<glyph unicode="6" horiz-adv-x="550" d="M454 680l-136 -211q87 -14 145.5 -75t58.5 -157q0 -106 -71 -177t-176 -71q-106 0 -177 71t-71 177q0 75 43 147l180 296h204zM350 237q0 32 -21.5 54.5t-53.5 22.5t-54 -22.5t-22 -54.5t22 -55t54 -23t53.5 22.5t21.5 55.5z" />
<glyph unicode="7" horiz-adv-x="451" d="M432 536l-201 -536h-194l207 516h-216v164h404v-144z" />
<glyph unicode="8" horiz-adv-x="522" d="M56 495q0 85 58.5 140.5t145.5 55.5q88 0 147 -55.5t59 -140.5q0 -82 -59 -130q83 -50 83 -157q0 -96 -66 -157.5t-164 -61.5t-163 61.5t-65 157.5q0 107 82 158q-58 45 -58 129zM192 210q0 -30 19.5 -50.5t48.5 -20.5q30 0 50 20.5t20 50.5q0 31 -20 52t-50 21 q-29 0 -48.5 -21t-19.5 -52zM215 494q0 -21 12.5 -34.5t33.5 -13.5t33.5 13.5t12.5 34.5t-12.5 34t-33.5 13t-33.5 -13t-12.5 -34z" />
<glyph unicode="9" horiz-adv-x="550" d="M96 0l133 201q-86 15 -143.5 80t-57.5 162q0 106 71 177t176 71q106 0 177 -71t71 -177q0 -75 -43 -147l-180 -296h-204zM200 443q0 -32 21.5 -54.5t53.5 -22.5t54 22.5t22 54.5t-22 55t-54 23t-53.5 -22.5t-21.5 -55.5z" />
<glyph unicode=":" horiz-adv-x="281" d="M44 86q0 42 27 69.5t69 27.5t69.5 -27.5t27.5 -69.5t-27.5 -69t-69.5 -27t-69 27t-27 69zM44 387q0 42 27 69.5t69 27.5t69.5 -27.5t27.5 -69.5t-27.5 -69t-69.5 -27t-69 27t-27 69z" />
<glyph unicode=";" horiz-adv-x="280" d="M170 -104h-135l25 267h162zM50 387q0 42 27 69.5t69 27.5t69.5 -27.5t27.5 -69.5t-27.5 -69t-69.5 -27t-69 27t-27 69z" />
<glyph unicode="&#x3c;" d="M21 222v125l457 173v-129l-297 -107l297 -106v-128z" />
<glyph unicode="=" d="M31 460h457v-125h-457v125zM31 235h457v-125h-457v125z" />
<glyph unicode="&#x3e;" d="M499 347v-125l-457 -172v128l297 106l-297 107v129z" />
<glyph unicode="?" horiz-adv-x="435" d="M269 246h-165q0 55 8.5 81t42.5 52l45 35q29 23 29 56q0 50 -67 50q-29 0 -66 -13.5t-60 -32.5v192q57 24 142 24q114 0 170 -60t56 -144q0 -80 -63 -138l-49 -45q-15 -14 -19 -24t-4 -33zM79 97q0 47 30.5 77.5t76.5 30.5t77 -30.5t31 -77.5q0 -46 -30.5 -76.5 t-77.5 -30.5q-46 0 -76.5 30t-30.5 77z" />
<glyph unicode="@" horiz-adv-x="797" d="M403 -95q-158 0 -261.5 103.5t-103.5 261.5t103.5 261.5t261.5 103.5t261.5 -97t103.5 -245q0 -92 -47 -147t-111 -55q-71 0 -100 54q-45 -60 -127 -60q-78 0 -127 53t-49 133t49 133t127 53q65 0 110 -40v30h80v-219q0 -59 44 -59q27 0 46 33t19 91q0 112 -79.5 187.5 t-199.5 75.5t-199.5 -82.5t-79.5 -203.5t79.5 -203.5t199.5 -82.5q109 0 187 68l48 -61q-99 -86 -235 -86zM293 271q0 -45 27.5 -76.5t71.5 -31.5q45 0 72.5 31t27.5 77t-27.5 76.5t-72.5 30.5q-44 0 -71.5 -31t-27.5 -76z" />
<glyph unicode="A" horiz-adv-x="668" d="M489 0l-42 123h-227l-41 -123h-190l250 680h190l250 -680h-190zM334 458l-58 -171h116z" />
<glyph unicode="B" horiz-adv-x="589" d="M68 0v680h254q96 0 156 -51t60 -132q0 -104 -73 -148q91 -50 91 -159q0 -83 -64 -136.5t-166 -53.5h-258zM381 215q0 51 -55 51h-88v-102h88q55 0 55 51zM363 473q0 43 -42 43h-83v-86h83q42 0 42 43z" />
<glyph unicode="C" horiz-adv-x="564" d="M521 210v-193q-67 -28 -143 -28q-149 0 -249.5 101t-100.5 250t100.5 250t249.5 101q76 0 143 -28v-195q-56 53 -143 53q-74 0 -124.5 -53t-50.5 -128q0 -76 50.5 -128.5t124.5 -52.5q88 0 143 51z" />
<glyph unicode="D" horiz-adv-x="694" d="M68 0v680h259q155 0 246 -94.5t91 -245.5t-91 -245.5t-246 -94.5h-259zM325 516h-87v-352h87q79 0 121.5 49t42.5 127t-42.5 127t-121.5 49z" />
<glyph unicode="E" horiz-adv-x="517" d="M466 0h-398v680h398v-164h-228v-91h208v-164h-208v-97h228v-164z" />
<glyph unicode="F" horiz-adv-x="507" d="M446 231h-208v-231h-170v680h398v-164h-228v-121h208v-164z" />
<glyph unicode="G" horiz-adv-x="715" d="M561 664v-184q-77 41 -183 41q-75 0 -125 -51t-50 -130q0 -76 48 -128.5t121 -52.5q64 0 103 35t39 76v6h-143v154h318q10 -45 10 -104q0 -142 -86.5 -239.5t-245.5 -97.5q-147 0 -243 100.5t-96 250.5t99.5 250.5t250.5 100.5q113 0 183 -27z" />
<glyph unicode="H" horiz-adv-x="748" d="M510 0v261h-272v-261h-170v680h170v-255h272v255h170v-680h-170z" />
<glyph unicode="I" horiz-adv-x="306" d="M68 0v680h170v-680h-170z" />
<glyph unicode="J" horiz-adv-x="449" d="M216 680h170v-444q0 -123 -51.5 -185t-162.5 -62q-41 0 -83 10t-65 26v185q54 -51 121 -51q71 0 71 82v439z" />
<glyph unicode="K" horiz-adv-x="583" d="M68 0v680h170v-246l136 246h197l-171 -279l181 -401h-198l-106 255l-39 -63v-192h-170z" />
<glyph unicode="L" horiz-adv-x="484" d="M466 0h-398v680h170v-516h228v-164z" />
<glyph unicode="M" horiz-adv-x="879" d="M513 0h-147l-128 377v-377h-170v680h210l162 -463l162 463h209v-680h-170v378z" />
<glyph unicode="N" horiz-adv-x="715" d="M477 0l-235 346v-346h-170v591l-47 78v11h200l252 -384v384h170v-680h-170z" />
<glyph unicode="O" horiz-adv-x="756" d="M28 340q0 149 100.5 250t249.5 101t249.5 -101t100.5 -250t-100.5 -250t-249.5 -101t-249.5 101t-100.5 250zM203 340q0 -76 50.5 -128.5t124.5 -52.5t124.5 53t50.5 128t-50.5 128t-124.5 53t-124.5 -53t-50.5 -128z" />
<glyph unicode="P" horiz-adv-x="570" d="M68 0v680h248q103 0 166.5 -59.5t63.5 -161.5t-63.5 -161.5t-166.5 -59.5h-78v-238h-170zM371 459q0 27 -16 42t-41 15h-76v-114h76q25 0 41 15t16 42z" />
<glyph unicode="Q" horiz-adv-x="764" d="M28 340q0 149 100.5 250t249.5 101t249.5 -101t100.5 -250q0 -110 -57 -197l61 -60l-116 -116l-65 65q-78 -43 -173 -43q-149 0 -249.5 101t-100.5 250zM203 340q0 -76 50.5 -128.5t124.5 -52.5q24 0 41 4l-74 75l116 117l80 -81q12 30 12 66q0 75 -50.5 128t-124.5 53 t-124.5 -53t-50.5 -128z" />
<glyph unicode="R" horiz-adv-x="603" d="M68 0v680h253q104 0 167 -53t63 -149q0 -68 -32.5 -111.5t-82.5 -59.5q120 -64 141 -307h-177q-35 238 -145 238h-17v-238h-170zM376 459q0 27 -15.5 42t-40.5 15h-82v-114h82q25 0 40.5 15t15.5 42z" />
<glyph unicode="S" horiz-adv-x="498" d="M431 663v-177q-28 18 -69.5 32t-76.5 14q-66 0 -66 -43q0 -24 44 -49l77 -44q127 -73 127 -194q0 -91 -60 -152t-177 -61q-94 0 -174 32v185q30 -23 77 -40.5t90 -17.5q63 0 63 44q0 24 -45 49l-81 46q-68 39 -95.5 85.5t-27.5 110.5q0 39 13 74.5t40.5 66.5t78 49 t117.5 18q77 0 145 -28z" />
<glyph unicode="T" horiz-adv-x="526" d="M178 0v516h-157v164h484v-164h-157v-516h-170z" />
<glyph unicode="U" horiz-adv-x="654" d="M423 680h170v-418q0 -129 -71.5 -201t-194.5 -72t-194.5 72t-71.5 201v418h170v-432q0 -42 26 -68t70 -26t70 26t26 68v432z" />
<glyph unicode="V" horiz-adv-x="668" d="M239 0l-250 680h190l155 -484l155 484h190l-250 -680h-190z" />
<glyph unicode="W" horiz-adv-x="954" d="M177 0l-175 680h190l94 -468l118 380l-23 88h170l118 -468l93 468h190l-175 -680h-190l-100 361l-120 -361h-190z" />
<glyph unicode="X" horiz-adv-x="620" d="M310 221l-112 -221h-199l196 348l-186 332h200l101 -206l101 206h200l-186 -332l196 -348h-199z" />
<glyph unicode="Y" horiz-adv-x="576" d="M203 0v290l-215 390h190l110 -222l111 222h190l-216 -392v-288h-170z" />
<glyph unicode="Z" horiz-adv-x="517" d="M475 536l-231 -372h231v-164h-438v144l223 372h-213v164h428v-144z" />
<glyph unicode="[" horiz-adv-x="297" d="M63 690h218v-95h-113v-705h113v-95h-218v895z" />
<glyph unicode="\" horiz-adv-x="460" d="M139 680l302 -680h-119l-303 680h120z" />
<glyph unicode="]" horiz-adv-x="297" d="M234 -205h-218v95h113v705h-113v95h218v-895z" />
<glyph unicode="^" horiz-adv-x="448" d="M224 708l195 -155l-79 -93l-117 91l-116 -92l-78 94z" />
<glyph unicode="_" horiz-adv-x="496" d="M448 -130h-400v100h400v-100z" />
<glyph unicode="`" horiz-adv-x="600" d="M198 696h132l72 -147h-117z" />
<glyph unicode="a" horiz-adv-x="565" d="M394 0l-27 83h-171l-26 -83h-173l199 544h173l198 -544h-173zM282 359l-45 -143h91z" />
<glyph unicode="b" horiz-adv-x="498" d="M61 0v544h215q81 0 128.5 -41t47.5 -107q0 -82 -53 -117q66 -41 66 -126q0 -66 -50.5 -109.5t-136.5 -43.5h-217zM315 181q0 34 -37 34h-70v-69h70q37 0 37 35zM300 370q0 12 -8 20.5t-20 8.5h-64v-59h64q12 0 20 8t8 22z" />
<glyph unicode="c" horiz-adv-x="456" d="M416 183v-176q-48 -18 -107 -18q-121 0 -202 81t-81 202t81 202t202 81q59 0 107 -18v-178q-40 40 -108 40q-53 0 -88 -37t-35 -90q0 -54 35 -90.5t88 -36.5q70 0 108 38z" />
<glyph unicode="d" horiz-adv-x="573" d="M61 0v544h212q124 0 197 -75.5t73 -196.5t-73 -196.5t-197 -75.5h-212zM271 394h-55v-244h55q55 0 84 34t29 88t-29 88t-84 34z" />
<glyph unicode="e" horiz-adv-x="435" d="M387 0h-326v544h326v-147h-171v-52h155v-140h-155v-58h171v-147z" />
<glyph unicode="f" horiz-adv-x="425" d="M371 180h-155v-180h-155v544h326v-150h-171v-74h155v-140z" />
<glyph unicode="g" horiz-adv-x="584" d="M455 536v-168q-26 13 -67.5 22t-73.5 9q-63 0 -96.5 -36t-33.5 -90q0 -56 34 -92t88 -36q40 0 66.5 20.5t27.5 43.5h-97v135h256q9 -40 9 -81q0 -115 -69 -194.5t-194 -79.5t-202.5 80t-77.5 202q0 123 80 203.5t210 80.5q85 0 140 -19z" />
<glyph unicode="h" horiz-adv-x="623" d="M407 0v200h-191v-200h-155v544h155v-194h191v194h155v-544h-155z" />
<glyph unicode="i" horiz-adv-x="277" d="M61 0v544h155v-544h-155z" />
<glyph unicode="j" horiz-adv-x="377" d="M166 544h155v-335q0 -104 -47.5 -162t-135.5 -58q-66 0 -113 31v160q44 -36 90 -36q51 0 51 62v338z" />
<glyph unicode="k" horiz-adv-x="493" d="M61 0v544h155v-177l82 177h179l-128 -223l136 -321h-180l-69 187l-20 -40v-147h-155z" />
<glyph unicode="l" horiz-adv-x="408" d="M387 0h-326v544h155v-394h171v-150z" />
<glyph unicode="m" horiz-adv-x="739" d="M436 0h-133l-87 270v-270h-155v544h192l117 -346l116 346h192v-544h-156v271z" />
<glyph unicode="n" horiz-adv-x="594" d="M378 0l-159 245v-245h-155v470l-38 64v10h182l170 -274v274h155v-544h-155z" />
<glyph unicode="o" horiz-adv-x="616" d="M25 272q0 121 81 202t202 81t202 -81t81 -202t-81 -202t-202 -81t-202 81t-81 202zM184 272q0 -54 35.5 -90.5t88.5 -36.5q52 0 88 37t36 90t-36 90t-88 37q-53 0 -88.5 -37t-35.5 -90z" />
<glyph unicode="p" horiz-adv-x="482" d="M61 0v544h209q84 0 136 -48.5t52 -132.5q0 -83 -52 -131.5t-136 -48.5h-54v-183h-155zM307 364q0 17 -10 26.5t-27 9.5h-54v-74h54q17 0 27 10t10 28z" />
<glyph unicode="q" horiz-adv-x="623" d="M25 272q0 121 81 202t202 81t202 -81t81 -202q0 -84 -42 -151l47 -47l-106 -107l-52 52q-62 -30 -130 -30q-121 0 -202 81.5t-81 201.5zM184 272q0 -54 35.5 -90.5t88.5 -36.5h4l-38 38l106 108l48 -49q4 18 4 30q0 53 -36 90t-88 37q-53 0 -88.5 -37t-35.5 -90z" />
<glyph unicode="r" horiz-adv-x="511" d="M61 0v544h214q85 0 136.5 -43t51.5 -121q0 -53 -24.5 -88t-61.5 -48q92 -52 105 -244h-162q-12 86 -35.5 133t-68.5 47v-180h-155zM312 362q0 18 -11 28t-28 10h-57v-76h57q17 0 28 10t11 28z" />
<glyph unicode="s" horiz-adv-x="423" d="M359 535v-160q-57 35 -123 35q-18 0 -26 -7.5t-8 -16.5q0 -16 19 -26l64 -34q105 -52 105 -160q0 -76 -49 -126.5t-146 -50.5q-74 0 -141 23v167q23 -18 62 -31.5t72 -13.5q36 0 36 22q0 16 -22 27l-64 37q-58 30 -80 68.5t-22 93.5q0 33 10.5 62t33.5 55t64.5 41 t98.5 15q59 0 116 -20z" />
<glyph unicode="t" horiz-adv-x="445" d="M145 0v394h-120v150h395v-150h-120v-394h-155z" />
<glyph unicode="u" horiz-adv-x="544" d="M334 544h155v-332q0 -106 -58 -164.5t-159 -58.5t-159 58.5t-58 164.5v332h155v-344q0 -27 16.5 -43.5t45.5 -16.5t45.5 16.5t16.5 43.5v344z" />
<glyph unicode="v" horiz-adv-x="565" d="M196 0l-199 544h173l112 -366l112 366h173l-198 -544h-173z" />
<glyph unicode="w" horiz-adv-x="780" d="M143 0l-135 544h173l62 -352l79 278l-18 74h154l80 -352l61 352h173l-135 -544h-173l-66 259l-82 -259h-173z" />
<glyph unicode="x" horiz-adv-x="523" d="M262 163l-75 -163h-181l151 278l-143 266h182l66 -151l65 151h182l-143 -266l151 -278h-181z" />
<glyph unicode="y" horiz-adv-x="489" d="M167 0v230l-170 314h173l74 -162l75 162h173l-170 -316v-228h-155z" />
<glyph unicode="z" horiz-adv-x="438" d="M396 413l-168 -263h168v-150h-357v131l161 263h-153v150h349v-131z" />
<glyph unicode="{" horiz-adv-x="325" d="M-2 195v95h30q81 0 81 93v152q0 91 33.5 123t112.5 32h53v-95h-27q-36 0 -51.5 -15t-15.5 -54v-169q0 -94 -76 -115q76 -21 76 -115v-166q0 -40 15.5 -55.5t51.5 -15.5h27v-95h-51q-81 0 -114.5 32.5t-33.5 126.5v147q0 94 -81 94h-30z" />
<glyph unicode="|" horiz-adv-x="231" d="M168 690v-895h-105v895h105z" />
<glyph unicode="}" horiz-adv-x="325" d="M327 290v-95h-30q-81 0 -81 -93v-152q0 -91 -33.5 -123t-112.5 -32h-53v95h27q36 0 51.5 15t15.5 54v169q0 94 76 115q-76 21 -76 115v166q0 40 -15.5 55.5t-51.5 15.5h-27v95h51q81 0 114.5 -32.5t33.5 -126.5v-147q0 -94 81 -94h30z" />
<glyph unicode="~" d="M488 354v-123q-19 -14 -31.5 -21t-34 -13t-47.5 -6q-51 0 -121 31t-115 31q-9 0 -17 -1t-17 -3.5t-15 -4.5t-16 -7t-13.5 -6.5t-15 -8t-14.5 -7.5v123q69 40 121 40q46 0 115 -31t118 -31q44 0 103 38z" />
<glyph unicode="&#xa1;" horiz-adv-x="276" d="M83 258h110l40 -434h-190zM246 407q0 -47 -30.5 -77.5t-76.5 -30.5q-47 0 -77.5 30.5t-30.5 77.5q0 46 30.5 76.5t77.5 30.5t77 -30t30 -77z" />
<glyph unicode="&#xa2;" d="M381 690v-87q37 -6 53 -13v-171q-22 14 -53 23v-194q28 8 53 24v-170q-13 -7 -53 -15v-87h-105v87q-97 17 -154.5 88.5t-57.5 170.5t57.5 170t154.5 87v87h105zM229 346q0 -58 47 -89v177q-47 -31 -47 -88z" />
<glyph unicode="&#xa3;" d="M39 381h57q-9 47 -9 81q0 99 61.5 164t174.5 65q94 0 145 -30v-186q-20 17 -58 32.5t-72 15.5q-38 0 -58 -19.5t-20 -50.5q0 -24 16 -72h151v-109h-116q5 -23 5 -42q0 -17 -9.5 -36.5t-22.5 -29.5h183v-164h-398v144q23 6 40.5 27t17.5 45q0 27 -6 56h-82v109z" />
<glyph unicode="&#xa4;" horiz-adv-x="555" d="M68 283q0 47 20 92l-56 60l92 90l56 -58q42 20 92 20q56 0 102 -24l59 59l84 -84l-57 -60q24 -44 24 -95q0 -50 -24 -95l62 -65l-91 -90l-67 66q-39 -18 -92 -18q-49 0 -89 19l-61 -61l-85 84l57 60q-26 47 -26 100zM200 283q0 -28 20.5 -51.5t52.5 -23.5q35 0 55.5 23.5 t20.5 51.5q0 29 -20.5 53t-55.5 24q-32 0 -52.5 -24t-20.5 -53z" />
<glyph unicode="&#xa5;" d="M51 234h125v38h-124v109h81l-142 299h190l80 -222l81 222h190l-142 -299h72v-109h-116v-38h116v-109h-116v-125h-170v125h-125v109z" />
<glyph unicode="&#xa6;" horiz-adv-x="239" d="M172 394h-105v296h105v-296zM67 108h105v-313h-105v313z" />
<glyph unicode="&#xa7;" horiz-adv-x="510" d="M437 479q-100 50 -160 50q-52 0 -52 -22q0 -15 44 -31l95 -35q109 -40 109 -150q0 -64 -53 -110q53 -46 53 -131q0 -73 -58 -125t-166 -52q-99 0 -187 37v183q92 -60 179 -60q51 0 51 20q0 14 -45 31l-96 37q-108 41 -108 146q0 71 51 114q-51 46 -51 131q0 73 57 125 t177 52q81 0 160 -34v-176zM227 317q-13 -12 -13 -27q0 -9 13.5 -18t44.5 -23l13 -6q18 12 18 29q0 14 -59 38z" />
<glyph unicode="&#xa8;" horiz-adv-x="580" d="M96 645q0 35 24 59.5t60 24.5t59.5 -24.5t23.5 -59.5q0 -36 -23.5 -60t-59.5 -24t-60 24t-24 60zM317 645q0 35 24 59.5t59 24.5q36 0 60 -24.5t24 -59.5q0 -36 -23.5 -60t-60.5 -24q-35 0 -59 24t-24 60z" />
<glyph unicode="&#xa9;" horiz-adv-x="822" d="M32 340q0 161 107.5 267t271.5 106t271.5 -106t107.5 -267q0 -160 -107.5 -266.5t-271.5 -106.5q-163 0 -271 106.5t-108 266.5zM129 340q0 -125 78.5 -202.5t203.5 -77.5t203.5 77.5t78.5 202.5t-78.5 202.5t-203.5 77.5t-203.5 -77.5t-78.5 -202.5zM518 271v-130 q-40 -14 -87 -14q-94 0 -157 61t-63 150t63 150t157 61q47 0 87 -14v-132q-33 31 -87 31q-43 0 -72.5 -28.5t-29.5 -67.5t29.5 -67.5t72.5 -28.5q54 0 87 29z" />
<glyph unicode="&#xaa;" horiz-adv-x="374" d="M64 510v108q57 22 112 22q156 0 156 -152v-193h-118v20q-23 -28 -73 -28q-54 0 -83.5 31.5t-29.5 75.5q0 45 32.5 74.5t85.5 29.5q42 0 68 -14v6q0 47 -60 47q-38 0 -90 -27zM149 396q0 -12 8 -20.5t21 -8.5q14 0 22 8.5t8 20.5t-8 19.5t-22 7.5q-13 0 -21 -7.5t-8 -19.5 zM65 249h247v-109h-247v109z" />
<glyph unicode="&#xab;" horiz-adv-x="531" d="M30 284l165 235l83 -59l-91 -177l92 -176l-84 -58zM244 284l165 235l83 -59l-91 -177l92 -176l-84 -58z" />
<glyph unicode="&#xac;" d="M22 346v125h457v-302h-129v177h-328z" />
<glyph unicode="&#xad;" horiz-adv-x="375" d="M326 208h-277v154h277v-154z" />
<glyph unicode="&#xae;" horiz-adv-x="607" d="M39 507q0 113 75 187t189 74q115 0 190 -74t75 -187q0 -112 -75 -186t-190 -74q-113 0 -188.5 74t-75.5 186zM105 507q0 -88 55.5 -142.5t142.5 -54.5q88 0 143.5 54.5t55.5 142.5q0 89 -55.5 143t-143.5 54t-143 -54t-55 -143zM196 368v285h114q46 0 74 -22t28 -61 q0 -30 -16 -49t-38 -25q57 -31 64 -128h-81q-14 96 -61 96h-5v-96h-79zM331 559q0 19 -21 19h-35v-38h35q21 0 21 19z" />
<glyph unicode="&#xaf;" horiz-adv-x="580" d="M137 676h305v-105h-305v105z" />
<glyph unicode="&#xb0;" horiz-adv-x="392" d="M24 521q0 68 45.5 118.5t123.5 50.5q80 0 127.5 -50.5t47.5 -118.5q0 -65 -47.5 -116t-127.5 -51q-77 0 -123 51t-46 116zM116 521q0 -30 21.5 -54.5t55.5 -24.5q37 0 58.5 24.5t21.5 54.5q0 31 -21.5 56t-58.5 25q-35 0 -56 -25.5t-21 -55.5z" />
<glyph unicode="&#xb1;" d="M31 361v125h160v167h135v-167h162v-125h-162v-129h-135v129h-160zM31 37v125h457v-125h-457z" />
<glyph unicode="&#xb2;" horiz-adv-x="309" d="M26 389v97l113 131q26 29 26 49q0 38 -39 38q-50 0 -92 -35v125q39 23 101 23q76 0 112.5 -38t36.5 -90q0 -63 -46 -116l-63 -73h100v-111h-249z" />
<glyph unicode="&#xb3;" horiz-adv-x="306" d="M63 548v111h60q32 0 32 21q0 22 -35 22q-49 0 -84 -23v125q32 13 88 13q68 0 108.5 -34.5t40.5 -86.5q0 -63 -48 -91q60 -33 60 -98q0 -52 -44 -88.5t-111 -36.5q-57 0 -100 15v134q37 -34 92 -34q19 0 32 7.5t13 20.5q0 23 -44 23h-60z" />
<glyph unicode="&#xb4;" horiz-adv-x="580" d="M260 696h132l-87 -147h-117z" />
<glyph unicode="&#xb5;" horiz-adv-x="588" d="M358 0v55q-43 -66 -123 -66h-8v-194h-163v709h163v-282q0 -34 17.5 -54t47.5 -20q29 0 46.5 18t19.5 49v289h163v-504h-163z" />
<glyph unicode="&#xb6;" horiz-adv-x="643" d="M257 504h122v-709h-117v314h-5q-234 0 -234 194q0 94 58 147.5t176 53.5zM570 -205h-117v709h117v-709z" />
<glyph unicode="&#xb7;" horiz-adv-x="283" d="M34 306q0 47 30.5 77.5t76.5 30.5q47 0 77.5 -31t30.5 -77t-30.5 -76.5t-77.5 -30.5t-77 30.5t-30 76.5z" />
<glyph unicode="&#xb8;" horiz-adv-x="580" d="M339 -152h-160l81 172h140z" />
<glyph unicode="&#xb9;" horiz-adv-x="321" d="M21 389v111h94v200h-74v111h189v-311h82v-111h-291z" />
<glyph unicode="&#xba;" horiz-adv-x="394" d="M17 465q0 74 52 124.5t128 50.5t128 -50.5t52 -124.5q0 -75 -52 -126t-128 -51t-128 51t-52 126zM136 465q0 -26 17.5 -45t43.5 -19t43.5 19t17.5 45q0 25 -17.5 43.5t-43.5 18.5t-43.5 -18.5t-17.5 -43.5zM74 249h247v-109h-247v109z" />
<glyph unicode="&#xbb;" horiz-adv-x="531" d="M502 283l-165 -235l-83 59l91 177l-92 176l84 58zM287 283l-165 -235l-83 59l91 177l-92 176l84 58z" />
<glyph unicode="&#xbc;" horiz-adv-x="886" d="M257 0l302 680h120l-303 -680h-119zM36 258v111h94v200h-74v111h189v-311h82v-111h-291zM859 74h-48v-74h-115v74h-180v97l180 251h115v-237h48v-111zM635 185h61v85z" />
<glyph unicode="&#xbd;" horiz-adv-x="883" d="M255 0l302 680h120l-303 -680h-119zM34 258v111h94v200h-74v111h189v-311h82v-111h-291zM594 0v97l113 131q26 29 26 49q0 38 -39 38q-50 0 -92 -35v125q39 23 101 23q76 0 112.5 -38t36.5 -90q0 -63 -46 -116l-63 -73h100v-111h-249z" />
<glyph unicode="&#xbe;" horiz-adv-x="849" d="M220 0l302 680h120l-303 -680h-119zM822 74h-48v-74h-115v74h-180v97l180 251h115v-237h48v-111zM598 185h61v85zM72 417v111h60q32 0 32 21q0 22 -35 22q-49 0 -84 -23v125q32 13 88 13q68 0 108.5 -34.5t40.5 -86.5q0 -63 -48 -91q60 -33 60 -98q0 -52 -44 -88.5 t-111 -36.5q-57 0 -100 15v134q37 -34 92 -34q19 0 32 8t13 20q0 23 -44 23h-60z" />
<glyph unicode="&#xbf;" horiz-adv-x="429" d="M163 258h165q0 -55 -8.5 -81t-42.5 -52l-45 -35q-29 -23 -29 -56q0 -50 67 -50q29 0 66 13.5t60 32.5v-192q-57 -24 -142 -24q-114 0 -170 60t-56 144q0 80 63 138l49 45q15 14 19 24t4 33zM353 407q0 -47 -30.5 -77.5t-76.5 -30.5t-77 30.5t-31 77.5q0 46 30.5 76.5 t77.5 30.5q46 0 76.5 -30t30.5 -77z" />
<glyph unicode="&#xc0;" horiz-adv-x="668" d="M489 0l-42 123h-227l-41 -123h-190l250 680h190l250 -680h-190zM334 458l-58 -171h116zM184 872h132l72 -147h-117z" />
<glyph unicode="&#xc1;" horiz-adv-x="668" d="M489 0l-42 123h-227l-41 -123h-190l250 680h190l250 -680h-190zM334 458l-58 -171h116zM351 872h132l-87 -147h-117z" />
<glyph unicode="&#xc2;" horiz-adv-x="668" d="M489 0l-42 123h-227l-41 -123h-190l250 680h190l250 -680h-190zM334 458l-58 -171h116zM250 872h168l82 -147h-117l-49 84l-49 -84h-117z" />
<glyph unicode="&#xc3;" horiz-adv-x="668" d="M489 0l-42 123h-227l-41 -123h-190l250 680h190l250 -680h-190zM334 458l-58 -171h116zM487 844v-107q-43 25 -78 25q-26 0 -75.5 -21t-80.5 -21q-43 0 -72 21v107q28 -25 72 -25q23 0 70 21t86 21q40 0 78 -21z" />
<glyph unicode="&#xc4;" horiz-adv-x="668" d="M489 0l-42 123h-227l-41 -123h-190l250 680h190l250 -680h-190zM334 458l-58 -171h116zM140 821q0 35 24 59.5t60 24.5t59.5 -24.5t23.5 -59.5q0 -36 -23.5 -60t-59.5 -24t-60 24t-24 60zM361 821q0 35 24 59.5t59 24.5q36 0 60 -24.5t24 -59.5q0 -36 -23.5 -60 t-60.5 -24q-35 0 -59 24t-24 60z" />
<glyph unicode="&#xc5;" horiz-adv-x="668" d="M489 0l-42 123h-227l-41 -123h-190l250 680h190l250 -680h-190zM334 458l-58 -171h116zM223 818q0 42 28.5 72.5t80.5 30.5q54 0 84 -30.5t30 -72.5q0 -40 -30 -70t-84 -30q-51 0 -80 30t-29 70zM295 818q0 -14 9.5 -24.5t27.5 -10.5q20 0 30 10.5t10 24.5q0 15 -10 26.5 t-30 11.5q-18 0 -27.5 -11.5t-9.5 -26.5z" />
<glyph unicode="&#xc6;" horiz-adv-x="934" d="M883 0h-398v123h-210l-81 -123h-209l470 680h428v-164h-228v-91h208v-164h-208v-97h228v-164zM366 287h119v181z" />
<glyph unicode="&#xc7;" horiz-adv-x="564" d="M357 -152h-160l74 157q-109 33 -176 124t-67 211q0 149 100.5 250t249.5 101q76 0 143 -28v-195q-56 53 -143 53q-74 0 -124.5 -53t-50.5 -128q0 -76 50.5 -128.5t124.5 -52.5q88 0 143 51v-193q-53 -23 -114 -27z" />
<glyph unicode="&#xc8;" horiz-adv-x="517" d="M466 0h-398v680h398v-164h-228v-91h208v-164h-208v-97h228v-164zM133 872h132l72 -147h-117z" />
<glyph unicode="&#xc9;" horiz-adv-x="517" d="M466 0h-398v680h398v-164h-228v-91h208v-164h-208v-97h228v-164zM283 872h132l-87 -147h-117z" />
<glyph unicode="&#xca;" horiz-adv-x="517" d="M466 0h-398v680h398v-164h-228v-91h208v-164h-208v-97h228v-164zM181 872h168l82 -147h-117l-49 84l-49 -84h-117z" />
<glyph unicode="&#xcb;" horiz-adv-x="517" d="M466 0h-398v680h398v-164h-228v-91h208v-164h-208v-97h228v-164zM76 821q0 35 24 59.5t60 24.5t59.5 -24.5t23.5 -59.5q0 -36 -23.5 -60t-59.5 -24t-60 24t-24 60zM297 821q0 35 24 59.5t59 24.5q36 0 60 -24.5t24 -59.5q0 -36 -23.5 -60t-60.5 -24q-35 0 -59 24t-24 60z " />
<glyph unicode="&#xcc;" horiz-adv-x="306" d="M68 0v680h170v-680h-170zM11 872h132l72 -147h-117z" />
<glyph unicode="&#xcd;" horiz-adv-x="306" d="M68 0v680h170v-680h-170zM170 872h132l-87 -147h-117z" />
<glyph unicode="&#xce;" horiz-adv-x="306" d="M68 0v680h170v-680h-170zM69 872h168l82 -147h-117l-49 84l-49 -84h-117z" />
<glyph unicode="&#xcf;" horiz-adv-x="306" d="M68 0v680h170v-680h-170zM-41 821q0 35 24 59.5t60 24.5t59.5 -24.5t23.5 -59.5q0 -36 -23.5 -60t-59.5 -24t-60 24t-24 60zM180 821q0 35 24 59.5t59 24.5q36 0 60 -24.5t24 -59.5q0 -36 -23.5 -60t-60.5 -24q-35 0 -59 24t-24 60z" />
<glyph unicode="&#xd0;" horiz-adv-x="698" d="M22 392h50v288h259q155 0 246 -94.5t91 -245.5t-91 -245.5t-246 -94.5h-259v287h-50v105zM329 516h-87v-124h85v-105h-85v-123h87q79 0 121.5 49t42.5 127t-42.5 127t-121.5 49z" />
<glyph unicode="&#xd1;" horiz-adv-x="717" d="M479 0l-235 346v-346h-170v591l-47 78v11h200l252 -384v384h170v-680h-170zM516 844v-107q-43 25 -78 25q-26 0 -75.5 -21t-80.5 -21q-43 0 -72 21v107q28 -25 72 -25q23 0 70 21t86 21q40 0 78 -21z" />
<glyph unicode="&#xd2;" horiz-adv-x="756" d="M28 340q0 149 100.5 250t249.5 101t249.5 -101t100.5 -250t-100.5 -250t-249.5 -101t-249.5 101t-100.5 250zM203 340q0 -76 50.5 -128.5t124.5 -52.5t124.5 53t50.5 128t-50.5 128t-124.5 53t-124.5 -53t-50.5 -128zM236 872h132l72 -147h-117z" />
<glyph unicode="&#xd3;" horiz-adv-x="756" d="M28 340q0 149 100.5 250t249.5 101t249.5 -101t100.5 -250t-100.5 -250t-249.5 -101t-249.5 101t-100.5 250zM203 340q0 -76 50.5 -128.5t124.5 -52.5t124.5 53t50.5 128t-50.5 128t-124.5 53t-124.5 -53t-50.5 -128zM398 872h132l-87 -147h-117z" />
<glyph unicode="&#xd4;" horiz-adv-x="756" d="M28 340q0 149 100.5 250t249.5 101t249.5 -101t100.5 -250t-100.5 -250t-249.5 -101t-249.5 101t-100.5 250zM203 340q0 -76 50.5 -128.5t124.5 -52.5t124.5 53t50.5 128t-50.5 128t-124.5 53t-124.5 -53t-50.5 -128zM294 872h168l82 -147h-117l-49 84l-49 -84h-117z" />
<glyph unicode="&#xd5;" horiz-adv-x="756" d="M28 340q0 149 100.5 250t249.5 101t249.5 -101t100.5 -250t-100.5 -250t-249.5 -101t-249.5 101t-100.5 250zM203 340q0 -76 50.5 -128.5t124.5 -52.5t124.5 53t50.5 128t-50.5 128t-124.5 53t-124.5 -53t-50.5 -128zM531 844v-107q-43 25 -78 25q-26 0 -75.5 -21 t-80.5 -21q-43 0 -72 21v107q28 -25 72 -25q23 0 70 21t86 21q40 0 78 -21z" />
<glyph unicode="&#xd6;" horiz-adv-x="756" d="M28 340q0 149 100.5 250t249.5 101t249.5 -101t100.5 -250t-100.5 -250t-249.5 -101t-249.5 101t-100.5 250zM203 340q0 -76 50.5 -128.5t124.5 -52.5t124.5 53t50.5 128t-50.5 128t-124.5 53t-124.5 -53t-50.5 -128zM184 821q0 35 24 59.5t60 24.5t59.5 -24.5 t23.5 -59.5q0 -36 -23.5 -60t-59.5 -24t-60 24t-24 60zM405 821q0 35 24 59.5t59 24.5q36 0 60 -24.5t24 -59.5q0 -36 -23.5 -60t-60.5 -24q-35 0 -59 24t-24 60z" />
<glyph unicode="&#xd7;" d="M108 43l-89 89l149 148l-154 154l96 95l153 -153l150 150l89 -89l-150 -150l153 -153l-95 -96l-154 154z" />
<glyph unicode="&#xd8;" horiz-adv-x="756" d="M28 340q0 149 100.5 250t249.5 101q91 0 171 -43l49 68l78 -54l-51 -70q103 -101 103 -252q0 -149 -100.5 -250t-249.5 -101q-90 0 -166 39l-46 -63l-73 52l45 63q-110 102 -110 260zM203 340q0 -68 39 -116l204 282q-35 15 -68 15q-74 0 -124.5 -53t-50.5 -128zM553 340 q0 61 -34 107l-203 -277q30 -11 62 -11q74 0 124.5 53t50.5 128z" />
<glyph unicode="&#xd9;" horiz-adv-x="654" d="M423 680h170v-418q0 -129 -71.5 -201t-194.5 -72t-194.5 72t-71.5 201v418h170v-432q0 -42 26 -68t70 -26t70 26t26 68v432zM184 872h132l72 -147h-117z" />
<glyph unicode="&#xda;" horiz-adv-x="654" d="M423 680h170v-418q0 -129 -71.5 -201t-194.5 -72t-194.5 72t-71.5 201v418h170v-432q0 -42 26 -68t70 -26t70 26t26 68v432zM341 872h132l-87 -147h-117z" />
<glyph unicode="&#xdb;" horiz-adv-x="654" d="M423 680h170v-418q0 -129 -71.5 -201t-194.5 -72t-194.5 72t-71.5 201v418h170v-432q0 -42 26 -68t70 -26t70 26t26 68v432zM243 872h168l82 -147h-117l-49 84l-49 -84h-117z" />
<glyph unicode="&#xdc;" horiz-adv-x="654" d="M423 680h170v-418q0 -129 -71.5 -201t-194.5 -72t-194.5 72t-71.5 201v418h170v-432q0 -42 26 -68t70 -26t70 26t26 68v432zM133 821q0 35 24 59.5t60 24.5t59.5 -24.5t23.5 -59.5q0 -36 -23.5 -60t-59.5 -24t-60 24t-24 60zM354 821q0 35 24 59.5t59 24.5q36 0 60 -24.5 t24 -59.5q0 -36 -23.5 -60t-60.5 -24q-35 0 -59 24t-24 60z" />
<glyph unicode="&#xdd;" horiz-adv-x="576" d="M203 0v290l-215 390h190l110 -222l111 222h190l-216 -392v-288h-170zM300 872h132l-87 -147h-117z" />
<glyph unicode="&#xde;" horiz-adv-x="556" d="M68 0v680h170v-116h78q103 0 166.5 -59.5t63.5 -161.5t-63.5 -161.5t-166.5 -59.5h-78v-122h-170zM371 343q0 27 -16 42t-41 15h-76v-114h76q25 0 41 15t16 42z" />
<glyph unicode="&#xdf;" horiz-adv-x="855" d="M359 535v-160q-57 35 -123 35q-18 0 -26 -7.5t-8 -16.5q0 -16 19 -26l64 -34q105 -52 105 -160q0 -76 -49 -126.5t-146 -50.5q-74 0 -141 23v167q23 -18 62 -31.5t72 -13.5q36 0 36 22q0 16 -22 27l-64 37q-58 30 -80 68.5t-22 93.5q0 33 10.5 62t33.5 55t64.5 41 t98.5 15q59 0 116 -20zM791 535v-160q-57 35 -123 35q-18 0 -26 -7.5t-8 -16.5q0 -16 19 -26l64 -34q105 -52 105 -160q0 -76 -49 -126.5t-146 -50.5q-74 0 -141 23v167q23 -18 62 -31.5t72 -13.5q36 0 36 22q0 16 -22 27l-64 37q-58 30 -80 68.5t-22 93.5q0 33 10.5 62 t33.5 55t64.5 41t98.5 15q59 0 116 -20z" />
<glyph unicode="&#xe0;" horiz-adv-x="565" d="M394 0l-27 83h-171l-26 -83h-173l199 544h173l198 -544h-173zM282 359l-45 -143h91zM137 736h132l72 -147h-117z" />
<glyph unicode="&#xe1;" horiz-adv-x="565" d="M394 0l-27 83h-171l-26 -83h-173l199 544h173l198 -544h-173zM282 359l-45 -143h91zM294 736h132l-87 -147h-117z" />
<glyph unicode="&#xe2;" horiz-adv-x="565" d="M394 0l-27 83h-171l-26 -83h-173l199 544h173l198 -544h-173zM282 359l-45 -143h91zM199 736h168l82 -147h-117l-49 84l-49 -84h-117z" />
<glyph unicode="&#xe3;" horiz-adv-x="565" d="M394 0l-27 83h-171l-26 -83h-173l199 544h173l198 -544h-173zM282 359l-45 -143h91zM437 708v-107q-43 25 -78 25q-26 0 -75.5 -21t-80.5 -21q-43 0 -72 21v107q28 -25 72 -25q23 0 70 21t86 21q40 0 78 -21z" />
<glyph unicode="&#xe4;" horiz-adv-x="565" d="M394 0l-27 83h-171l-26 -83h-173l199 544h173l198 -544h-173zM282 359l-45 -143h91zM89 685q0 35 24 59.5t60 24.5t59.5 -24.5t23.5 -59.5q0 -36 -23.5 -60t-59.5 -24t-60 24t-24 60zM310 685q0 35 24 59.5t59 24.5q36 0 60 -24.5t24 -59.5q0 -36 -23.5 -60t-60.5 -24 q-35 0 -59 24t-24 60z" />
<glyph unicode="&#xe5;" horiz-adv-x="565" d="M394 0l-27 83h-171l-26 -83h-173l199 544h173l198 -544h-173zM282 359l-45 -143h91zM171 682q0 42 28.5 72.5t80.5 30.5q54 0 84 -30.5t30 -72.5q0 -40 -30 -70t-84 -30q-51 0 -80 30t-29 70zM243 682q0 -14 9.5 -24.5t27.5 -10.5q20 0 30 10.5t10 24.5q0 15 -10 26.5 t-30 11.5q-18 0 -27.5 -11.5t-9.5 -26.5z" />
<glyph unicode="&#xe6;" horiz-adv-x="777" d="M729 0h-326v83h-160l-53 -83h-191l377 544h353v-147h-171v-52h155v-140h-155v-58h171v-147zM313 214h103v157z" />
<glyph unicode="&#xe7;" horiz-adv-x="456" d="M275 -152h-160l77 164q-76 33 -121 102.5t-45 157.5q0 121 81 202t202 81q59 0 107 -18v-178q-40 40 -108 40q-53 0 -88 -37t-35 -90q0 -54 35 -90.5t88 -36.5q70 0 108 38v-176q-42 -15 -91 -18z" />
<glyph unicode="&#xe8;" horiz-adv-x="435" d="M387 0h-326v544h326v-147h-171v-52h155v-140h-155v-58h171v-147zM91 736h132l72 -147h-117z" />
<glyph unicode="&#xe9;" horiz-adv-x="435" d="M387 0h-326v544h326v-147h-171v-52h155v-140h-155v-58h171v-147zM247 736h132l-87 -147h-117z" />
<glyph unicode="&#xea;" horiz-adv-x="435" d="M387 0h-326v544h326v-147h-171v-52h155v-140h-155v-58h171v-147zM145 736h168l82 -147h-117l-49 84l-49 -84h-117z" />
<glyph unicode="&#xeb;" horiz-adv-x="435" d="M387 0h-326v544h326v-147h-171v-52h155v-140h-155v-58h171v-147zM31 685q0 35 24 59.5t60 24.5t59.5 -24.5t23.5 -59.5q0 -36 -23.5 -60t-59.5 -24t-60 24t-24 60zM252 685q0 35 24 59.5t59 24.5q36 0 60 -24.5t24 -59.5q0 -36 -23.5 -60t-60.5 -24q-35 0 -59 24t-24 60z " />
<glyph unicode="&#xec;" horiz-adv-x="277" d="M61 0v544h155v-544h-155zM-4 736h132l72 -147h-117z" />
<glyph unicode="&#xed;" horiz-adv-x="277" d="M61 0v544h155v-544h-155zM155 736h132l-87 -147h-117z" />
<glyph unicode="&#xee;" horiz-adv-x="277" d="M61 0v544h155v-544h-155zM52 736h168l82 -147h-117l-49 84l-49 -84h-117z" />
<glyph unicode="&#xef;" horiz-adv-x="277" d="M61 0v544h155v-544h-155zM-59 685q0 35 24 59.5t60 24.5t59.5 -24.5t23.5 -59.5q0 -36 -23.5 -60t-59.5 -24t-60 24t-24 60zM162 685q0 35 24 59.5t59 24.5q36 0 60 -24.5t24 -59.5q0 -36 -23.5 -60t-60.5 -24q-35 0 -59 24t-24 60z" />
<glyph unicode="&#xf0;" horiz-adv-x="576" d="M28 319h36v225h212q124 0 197 -75.5t73 -196.5t-73 -196.5t-197 -75.5h-212v224h-36v95zM274 394h-55v-75h59v-95h-59v-74h55q55 0 84 34t29 88t-29 88t-84 34z" />
<glyph unicode="&#xf1;" horiz-adv-x="596" d="M380 0l-159 245v-245h-155v470l-38 64v10h182l170 -274v274h155v-544h-155zM454 708v-107q-43 25 -78 25q-26 0 -75.5 -21t-80.5 -21q-43 0 -72 21v107q28 -25 72 -25q23 0 70 21t86 21q40 0 78 -21z" />
<glyph unicode="&#xf2;" horiz-adv-x="616" d="M25 272q0 121 81 202t202 81t202 -81t81 -202t-81 -202t-202 -81t-202 81t-81 202zM184 272q0 -54 35.5 -90.5t88.5 -36.5q52 0 88 37t36 90t-36 90t-88 37q-53 0 -88.5 -37t-35.5 -90zM170 736h132l72 -147h-117z" />
<glyph unicode="&#xf3;" horiz-adv-x="616" d="M25 272q0 121 81 202t202 81t202 -81t81 -202t-81 -202t-202 -81t-202 81t-81 202zM184 272q0 -54 35.5 -90.5t88.5 -36.5q52 0 88 37t36 90t-36 90t-88 37q-53 0 -88.5 -37t-35.5 -90zM335 736h132l-87 -147h-117z" />
<glyph unicode="&#xf4;" horiz-adv-x="616" d="M224 736h168l82 -147h-117l-49 84l-49 -84h-117zM25 272q0 121 81 202t202 81t202 -81t81 -202t-81 -202t-202 -81t-202 81t-81 202zM184 272q0 -54 35.5 -90.5t88.5 -36.5q52 0 88 37t36 90t-36 90t-88 37q-53 0 -88.5 -37t-35.5 -90z" />
<glyph unicode="&#xf5;" horiz-adv-x="616" d="M25 272q0 121 81 202t202 81t202 -81t81 -202t-81 -202t-202 -81t-202 81t-81 202zM184 272q0 -54 35.5 -90.5t88.5 -36.5q52 0 88 37t36 90t-36 90t-88 37q-53 0 -88.5 -37t-35.5 -90zM461 708v-107q-43 25 -78 25q-26 0 -75.5 -21t-80.5 -21q-43 0 -72 21v107 q28 -25 72 -25q23 0 70 21t86 21q40 0 78 -21z" />
<glyph unicode="&#xf6;" horiz-adv-x="616" d="M25 272q0 121 81 202t202 81t202 -81t81 -202t-81 -202t-202 -81t-202 81t-81 202zM184 272q0 -54 35.5 -90.5t88.5 -36.5q52 0 88 37t36 90t-36 90t-88 37q-53 0 -88.5 -37t-35.5 -90zM114 685q0 35 24 59.5t60 24.5t59.5 -24.5t23.5 -59.5q0 -36 -23.5 -60t-59.5 -24 t-60 24t-24 60zM335 685q0 35 24 59.5t59 24.5q36 0 60 -24.5t24 -59.5q0 -36 -23.5 -60t-60.5 -24q-35 0 -59 24t-24 60z" />
<glyph unicode="&#xf7;" d="M263 -3q-37 0 -61 22.5t-24 57.5t24 58t61 23q36 0 60 -23t24 -58q0 -34 -24 -57t-60 -23zM263 409q-37 0 -61 23t-24 58t24 57.5t61 22.5q36 0 60 -22.5t24 -57.5t-24 -58t-60 -23zM32 223v125h457v-125h-457z" />
<glyph unicode="&#xf8;" horiz-adv-x="616" d="M25 272q0 121 81 202t202 81q75 0 134 -32l41 56l70 -48l-42 -59q80 -83 80 -200q0 -121 -81 -202t-202 -81q-70 0 -130 29l-38 -53l-66 47l37 52q-86 84 -86 208zM184 272q0 -43 22 -76l141 197q-18 6 -39 6q-53 0 -88.5 -37t-35.5 -90zM432 272q0 32 -18 68l-140 -192 q16 -3 34 -3q52 0 88 37t36 90z" />
<glyph unicode="&#xf9;" horiz-adv-x="544" d="M334 544h155v-332q0 -106 -58 -164.5t-159 -58.5t-159 58.5t-58 164.5v332h155v-344q0 -27 16.5 -43.5t45.5 -16.5t45.5 16.5t16.5 43.5v344zM125 736h132l72 -147h-117z" />
<glyph unicode="&#xfa;" horiz-adv-x="544" d="M334 544h155v-332q0 -106 -58 -164.5t-159 -58.5t-159 58.5t-58 164.5v332h155v-344q0 -27 16.5 -43.5t45.5 -16.5t45.5 16.5t16.5 43.5v344zM287 736h132l-87 -147h-117z" />
<glyph unicode="&#xfb;" horiz-adv-x="544" d="M334 544h155v-332q0 -106 -58 -164.5t-159 -58.5t-159 58.5t-58 164.5v332h155v-344q0 -27 16.5 -43.5t45.5 -16.5t45.5 16.5t16.5 43.5v344zM188 736h168l82 -147h-117l-49 84l-49 -84h-117z" />
<glyph unicode="&#xfc;" horiz-adv-x="544" d="M334 544h155v-332q0 -106 -58 -164.5t-159 -58.5t-159 58.5t-58 164.5v332h155v-344q0 -27 16.5 -43.5t45.5 -16.5t45.5 16.5t16.5 43.5v344zM78 685q0 35 24 59.5t60 24.5t59.5 -24.5t23.5 -59.5q0 -36 -23.5 -60t-59.5 -24t-60 24t-24 60zM299 685q0 35 24 59.5 t59 24.5q36 0 60 -24.5t24 -59.5q0 -36 -23.5 -60t-60.5 -24q-35 0 -59 24t-24 60z" />
<glyph unicode="&#xfd;" horiz-adv-x="490" d="M167 0v230l-170 314h173l74 -162l75 162h173l-170 -316v-228h-155zM259 736h132l-87 -147h-117z" />
<glyph unicode="&#xfe;" horiz-adv-x="472" d="M61 0v544h155v-91h54q84 0 136 -48.5t52 -131.5q0 -84 -52 -132.5t-136 -48.5h-54v-92h-155zM307 273q0 17 -10 26.5t-27 9.5h-54v-74h54q17 0 27 10t10 28z" />
<glyph unicode="&#xff;" horiz-adv-x="490" d="M167 0v230l-170 314h173l74 -162l75 162h173l-170 -316v-228h-155zM50 685q0 35 24 59.5t60 24.5t59.5 -24.5t23.5 -59.5q0 -36 -23.5 -60t-59.5 -24t-60 24t-24 60zM271 685q0 35 24 59.5t59 24.5q36 0 60 -24.5t24 -59.5q0 -36 -23.5 -60t-60.5 -24q-35 0 -59 24 t-24 60z" />
<glyph unicode="&#x152;" horiz-adv-x="1005" d="M954 0h-398v35q-80 -46 -178 -46q-149 0 -249.5 101t-100.5 250t100.5 250t249.5 101q96 0 178 -46v35h398v-164h-228v-91h208v-164h-208v-97h228v-164zM203 340q0 -76 50.5 -128.5t124.5 -52.5t124.5 53t50.5 128t-50.5 128t-124.5 53t-124.5 -53t-50.5 -128z" />
<glyph unicode="&#x153;" horiz-adv-x="805" d="M759 0h-328v6q-65 -17 -124 -17q-120 0 -201.5 81t-81.5 202t81.5 202t201.5 81q53 0 124 -17v6h328v-147h-171v-52h155v-140h-155v-58h171v-147zM183 272q0 -54 35.5 -91t88.5 -37q52 0 88 37.5t36 90.5t-36 90.5t-88 37.5q-53 0 -88.5 -37.5t-35.5 -90.5z" />
<glyph unicode="&#x178;" horiz-adv-x="576" d="M203 0v290l-215 390h190l110 -222l111 222h190l-216 -392v-288h-170zM95 821q0 35 24 59.5t60 24.5t59.5 -24.5t23.5 -59.5q0 -36 -23.5 -60t-59.5 -24t-60 24t-24 60zM316 821q0 35 24 59.5t59 24.5q36 0 60 -24.5t24 -59.5q0 -36 -23.5 -60t-60.5 -24q-35 0 -59 24 t-24 60z" />
<glyph unicode="&#x2c6;" horiz-adv-x="580" d="M206 696h168l82 -147h-117l-49 84l-49 -84h-117z" />
<glyph unicode="&#x2dc;" horiz-adv-x="580" d="M443 668v-107q-43 25 -78 25q-26 0 -75.5 -21t-80.5 -21q-43 0 -72 21v107q28 -25 72 -25q23 0 70 21t86 21q40 0 78 -21z" />
<glyph unicode="&#x2000;" horiz-adv-x="460" />
<glyph unicode="&#x2001;" horiz-adv-x="921" />
<glyph unicode="&#x2002;" horiz-adv-x="460" />
<glyph unicode="&#x2003;" horiz-adv-x="921" />
<glyph unicode="&#x2004;" horiz-adv-x="307" />
<glyph unicode="&#x2005;" horiz-adv-x="230" />
<glyph unicode="&#x2006;" horiz-adv-x="153" />
<glyph unicode="&#x2007;" horiz-adv-x="153" />
<glyph unicode="&#x2008;" horiz-adv-x="115" />
<glyph unicode="&#x2009;" horiz-adv-x="184" />
<glyph unicode="&#x200a;" horiz-adv-x="51" />
<glyph unicode="&#x2010;" horiz-adv-x="375" d="M326 208h-277v154h277v-154z" />
<glyph unicode="&#x2011;" horiz-adv-x="375" d="M326 208h-277v154h277v-154z" />
<glyph unicode="&#x2012;" horiz-adv-x="375" d="M326 208h-277v154h277v-154z" />
<glyph unicode="&#x2013;" horiz-adv-x="595" d="M50 348h495v-125h-495v125z" />
<glyph unicode="&#x2014;" horiz-adv-x="735" d="M50 348h635v-125h-635v125z" />
<glyph unicode="&#x2018;" horiz-adv-x="276" d="M89 680h150l-27 -297h-180z" />
<glyph unicode="&#x2019;" horiz-adv-x="271" d="M191 383h-150l27 297h180z" />
<glyph unicode="&#x201a;" horiz-adv-x="273" d="M179 -108h-150l27 297h180z" />
<glyph unicode="&#x201c;" horiz-adv-x="516" d="M89 680h150l-27 -297h-180zM329 680h150l-27 -297h-180z" />
<glyph unicode="&#x201d;" horiz-adv-x="511" d="M191 383h-150l27 297h180zM431 383h-150l27 297h180z" />
<glyph unicode="&#x201e;" horiz-adv-x="513" d="M179 -108h-150l27 297h180zM419 -108h-150l27 297h180z" />
<glyph unicode="&#x2022;" horiz-adv-x="403" d="M202 146q-64 0 -105 39.5t-41 98.5q0 60 41 99.5t105 39.5q63 0 104 -39.5t41 -99.5q0 -59 -41 -98.5t-104 -39.5z" />
<glyph unicode="&#x2026;" horiz-adv-x="833" d="M30 97q0 47 30.5 77.5t76.5 30.5q47 0 77.5 -30.5t30.5 -77.5q0 -46 -30.5 -76.5t-77.5 -30.5t-77 30t-30 77zM309 97q0 47 30.5 77.5t76.5 30.5t77 -30.5t31 -77.5q0 -46 -30.5 -76.5t-77.5 -30.5q-46 0 -76.5 30t-30.5 77zM588 97q0 47 30.5 77.5t76.5 30.5 q47 0 77.5 -30.5t30.5 -77.5q0 -46 -30.5 -76.5t-77.5 -30.5t-77 30t-30 77z" />
<glyph unicode="&#x202f;" horiz-adv-x="184" />
<glyph unicode="&#x2039;" horiz-adv-x="317" d="M30 284l165 235l83 -59l-91 -177l92 -176l-84 -58z" />
<glyph unicode="&#x203a;" horiz-adv-x="316" d="M287 283l-165 -235l-83 59l91 177l-92 176l84 58z" />
<glyph unicode="&#x205f;" horiz-adv-x="230" />
<glyph unicode="&#x20ac;" d="M35 459h41q10 106 84.5 169t185.5 63q37 0 84.5 -11t72.5 -29l-47 -160q-17 14 -50 24t-60 10q-80 0 -98 -66h197l-27 -109h-174v-38h162l-27 -109h-126q21 -48 88 -48q68 0 121 44l52 -149q-76 -61 -173 -61q-106 0 -177.5 58t-86.5 156h-70l27 109h40v38h-66z" />
<glyph unicode="&#x2122;" horiz-adv-x="845" d="M138 329v263h-87v88h267v-88h-89v-263h-91zM621 329h-79l-74 187v-187h-91v351h112l93 -234l91 234h112v-351h-91v188z" />
</font>
</defs>
</svg>
