<svg id="Layer_1" data-name="Layer 1" xmlns="http://www.w3.org/2000/svg" viewBox="0 0 205 49">
  <defs>
    <style>
      .cls-1 {
        fill: #fff;
      }
    </style>
  </defs>
  <title>new_3forge_logo</title>
  <g>
    <g>
      <rect class="cls-1" x="2.36653" y="34.4801" width="13.77072" height="13.17597" rx="4.00315"/>
      <rect class="cls-1" x="2.36653" y="18.06808" width="13.77072" height="13.17597" rx="4.00315"/>
      <rect class="cls-1" x="2.36653" y="1.65607" width="13.77072" height="13.17597" rx="4.00315"/>
      <rect class="cls-1" x="19.53491" y="18.06808" width="13.77072" height="13.17597" rx="4.00315"/>
      <rect class="cls-1" x="19.53491" y="1.65607" width="13.77072" height="13.17597" rx="4.00315"/>
      <rect class="cls-1" x="36.69494" y="1.65607" width="13.77072" height="13.17597" rx="4.00315"/>
    </g>
    <g>
      <path class="cls-1" d="M122.81367,36.93013q-5.4534,0-8.43985-2.98182-2.98645-2.98116-2.98634-8.53074a13.51887,13.51887,0,0,1,.80071-4.78279,9.81738,9.81738,0,0,1,2.29388-3.60282,10.07219,10.07219,0,0,1,3.614-2.257,13.48834,13.48834,0,0,1,4.71761-.78679,13.62619,13.62619,0,0,1,4.76081.78679,10.07724,10.07724,0,0,1,3.61375,2.257,9.59245,9.59245,0,0,1,2.27228,3.60282,13.86614,13.86614,0,0,1,.7791,4.78279,13.65733,13.65733,0,0,1-.8007,4.82457,9.71847,9.71847,0,0,1-5.90787,5.9012A13.49075,13.49075,0,0,1,122.81367,36.93013Zm0-4.6381a4.45016,4.45016,0,0,0,3.87345-1.78073,8.65952,8.65952,0,0,0,1.27691-5.09373,8.4616,8.4616,0,0,0-1.27691-5.052,5.18287,5.18287,0,0,0-7.74715,0,8.4566,8.4566,0,0,0-1.2769,5.052,8.75049,8.75049,0,0,0,1.2553,5.1144A4.45748,4.45748,0,0,0,122.81367,32.292Z"/>
      <path class="cls-1" d="M151.73888,14.36966c-.07741-.00967-.149-.02027-.23048-.02926A13.33884,13.33884,0,0,0,150.08,14.278a7.10677,7.10677,0,0,0-3.37562.84924,7.474,7.474,0,0,0-2.7269,2.54641V14.65089h-5.886v22.26h6.05929V23.76129a4.144,4.144,0,0,1,.3677-1.69806,4.191,4.191,0,0,1,1.14705-1.49047,4.05015,4.05015,0,0,1,1.64464-.84924,7.82336,7.82336,0,0,1,1.90432-.22784,11.24655,11.24655,0,0,1,2.52436.2427Z"/>
      <path class="cls-1" d="M84.77816,23.81047A7.07667,7.07667,0,0,0,81.121,20.97422a7.35887,7.35887,0,0,0,3.05131-2.71267,7.18272,7.18272,0,0,0,.97383-3.7475,7.48858,7.48858,0,0,0-.62771-3.04384A6.53,6.53,0,0,0,82.61417,9.006a9.5729,9.5729,0,0,0-3.181-1.63559A14.88343,14.88343,0,0,0,74.9752,6.7701a14.72158,14.72158,0,0,0-4.54454.621A9.46129,9.46129,0,0,0,67.20624,9.1305a8.20248,8.20248,0,0,0-2.07738,2.6502A14.38086,14.38086,0,0,0,63.98425,15.084H69.9993a4.79154,4.79154,0,0,1,1.60006-2.47519,5.552,5.552,0,0,1,3.33245-.91082,6.03978,6.03978,0,0,1,1.94777.26916,3.246,3.246,0,0,1,1.25508.74545,2.85581,2.85581,0,0,1,.69246,1.118,4.18958,4.18958,0,0,1,.21645,1.34578q0,3.68618-3.85209,3.6855H71.81564V23.9556h3.02973a5.67557,5.67557,0,0,1,3.65721.93193,3.77751,3.77751,0,0,1,1.10361,3.0434,3.51119,3.51119,0,0,1-1.32011,3.08517,5.75842,5.75842,0,0,1-3.39749.93193,5.18546,5.18546,0,0,1-3.549-1.07662,5.003,5.003,0,0,1-1.3668-3.19532H63.77127a13.83631,13.83631,0,0,0,.6001,2.88483,8.39663,8.39663,0,0,0,1.8611,3.16785,9.60825,9.60825,0,0,0,3.44093,2.29839,14.12808,14.12808,0,0,0,5.38825.89014,15.44261,15.44261,0,0,0,4.89088-.68345,9.30924,9.30924,0,0,0,3.35409-1.88408,7.07479,7.07479,0,0,0,1.92613-2.89871,11.02359,11.02359,0,0,0,.60585-3.72682A7.58109,7.58109,0,0,0,84.77816,23.81047Z"/>
      <polygon class="cls-1" points="110.768 12.127 110.768 6.826 90.469 6.826 90.469 36.93 96.918 36.93 96.918 24.098 107.011 24.098 107.011 18.797 96.918 18.797 96.918 12.127 110.768 12.127"/>
      <path class="cls-1" d="M170.87616,14.65089V17.094a7.606,7.606,0,0,0-3.13776-2.44307,9.69264,9.69264,0,0,0-3.52738-.66277,10.17828,10.17828,0,0,0-4.13339.80746A8.71575,8.71575,0,0,0,156.983,17.032a9.90069,9.90069,0,0,0-1.926,3.41633,13.50861,13.50861,0,0,0-.67082,4.34829,12.27584,12.27584,0,0,0,2.35891,7.90929q2.35844,2.94138,7.11951,2.94048a9.35812,9.35812,0,0,0,3.96-.80746,7.17031,7.17031,0,0,0,2.87837-2.381v.6623q0,1.36692-.10825,2.65024a6.83113,6.83113,0,0,1-.56257,2.27771,3.648,3.648,0,0,1-1.40684,1.59426,4.93783,4.93783,0,0,1-2.63994.60076,13.90689,13.90689,0,0,1-1.83957-.10379,3.84747,3.84747,0,0,1-1.29824-.39318,2.32954,2.32954,0,0,1-.86575-.7868,3.48018,3.48018,0,0,1-.41546-.98782h-6.1747a9.33238,9.33238,0,0,0,.834,2.78924,6.85937,6.85937,0,0,0,2.22536,2.23592,8.79571,8.79571,0,0,0,3.181,1.3251,21.44146,21.44146,0,0,0,4.65279.435,14.38177,14.38177,0,0,0,4.99891-.76613,6.96227,6.96227,0,0,0,3.033-2.257,9.234,9.234,0,0,0,1.8611-3.62349,18.453,18.453,0,0,0,.58443-4.86547V14.65089Zm-.12984,10.64266a8.025,8.025,0,0,1-.38956,2.67088,4.63391,4.63391,0,0,1-1.082,1.78074,4.11313,4.11313,0,0,1-1.66622.99394,6.871,6.871,0,0,1-2.09924.31049,4.50381,4.50381,0,0,1-3.39743-1.42846q-1.36346-1.42891-1.36334-4.86591a8.75574,8.75574,0,0,1,.38951-2.77468,5.35317,5.35317,0,0,1,1.06044-1.90475,3.92322,3.92322,0,0,1,1.558-1.07662,5.32925,5.32925,0,0,1,1.88268-.33163,8.16629,8.16629,0,0,1,1.81793.20716,3.74254,3.74254,0,0,1,1.64465.84881,4.51523,4.51523,0,0,1,1.19027,1.84275,9.0631,9.0631,0,0,1,.45437,3.14763Z"/>
      <path class="cls-1" d="M196.13,29.81291c-.51015,1.72811-1.88643,2.60315-4.15078,2.60315a4.92561,4.92561,0,0,1-3.8953-1.46982,6.28007,6.28007,0,0,1-1.38492-4.0791h15.66755V24.54807a10.96045,10.96045,0,0,0-2.61864-7.70259q-2.619-2.85712-7.812-2.85736a13.17658,13.17658,0,0,0-4.5877.76613,9.76926,9.76926,0,0,0-3.57083,2.257,10.25757,10.25757,0,0,0-2.31546,3.62349,13.44845,13.44845,0,0,0-.8223,4.86591q0,5.46626,2.83492,8.44761,2.83425,2.98185,8.46137,2.98183,4.67436,0,7.11951-1.88407a8.28,8.28,0,0,0,2.99111-5.23314Zm-8.955-8.59849a4.59728,4.59728,0,0,1,.974-1.4909,4.5043,4.5043,0,0,1,1.53639-1.01462,5.56082,5.56082,0,0,1,2.12077-.37252,4.64064,4.64064,0,0,1,3.57054,1.24245,4.93785,4.93785,0,0,1,1.14706,3.47834H186.7856A5.448,5.448,0,0,1,187.17493,21.21442Z"/>
    </g>
  </g>
</svg>
