<svg id="Layer_1" data-name="Layer 1" xmlns="http://www.w3.org/2000/svg" viewBox="0 0 27 11"><defs><style>.cls-1{fill:#fff;}.cls-2{fill:#305b03;}.cls-3{fill:#7bea06;}.cls-4{fill:none;stroke:#353434;stroke-miterlimit:10;stroke-width:1.37px;}.cls-5{fill:#353434;}</style></defs><rect class="cls-1" x="0.77" y="0.77" width="25.45" height="9.45" rx="2.15"/><path class="cls-2" d="M24.07,1.55a1.38,1.38,0,0,1,1.38,1.38V8.07a1.38,1.38,0,0,1-1.38,1.38H2.93A1.38,1.38,0,0,1,1.55,8.07V2.93A1.38,1.38,0,0,1,2.93,1.55H24.07m0-1.55H2.93A2.93,2.93,0,0,0,0,2.93V8.07A2.93,2.93,0,0,0,2.93,11H24.07A2.93,2.93,0,0,0,27,8.07V2.93A2.93,2.93,0,0,0,24.07,0Z"/><rect class="cls-3" x="1.5" y="1.55" width="4" height="7.9" rx="0.82"/><line class="cls-4" x1="13.4" y1="2.79" x2="13.4" y2="8.21"/><line class="cls-4" x1="17.71" y1="2.79" x2="17.71" y2="8.21"/><line class="cls-4" x1="9.3" y1="2.79" x2="9.3" y2="8.21"/><rect class="cls-5" x="7" y="4" width="13" height="3"/></svg>