<svg id="Layer_1" data-name="Layer 1" xmlns="http://www.w3.org/2000/svg" viewBox="0 0 16 16"><defs><style>.cls-1{fill:#77cefa;}.cls-2{fill:#f16900;}.cls-3{fill:#0e91bb;}.cls-4{fill:none;stroke:#f20000;stroke-linecap:round;stroke-miterlimit:10;stroke-width:2.16px;}</style></defs><path class="cls-1" d="M8,5.11c3.51,0,6.36-.82,6.36-1.83v10c0,1-2.85,1.82-6.36,1.82s-6.36-.82-6.36-1.82v-10C1.64,4.29,4.49,5.11,8,5.11Z"/><path class="cls-2" d="M8,1.46c3.51,0,6.36.82,6.36,1.82S11.51,5.11,8,5.11,1.64,4.29,1.64,3.28,4.49,1.46,8,1.46Z"/><path class="cls-3" d="M14.3,2.24a7.22,7.22,0,0,0-2.58-.91A19.79,19.79,0,0,0,8,1a17.82,17.82,0,0,0-4.74.57,5.81,5.81,0,0,0-1.56.67,1.35,1.35,0,0,0-.7,1v10a1.35,1.35,0,0,0,.7,1,7.22,7.22,0,0,0,2.58.91A19.79,19.79,0,0,0,8,15.6,17.82,17.82,0,0,0,12.74,15a5.81,5.81,0,0,0,1.56-.67,1.35,1.35,0,0,0,.7-1v-10A1.35,1.35,0,0,0,14.3,2.24Zm-.57,11.08c0,.09-.06.21-.3.38a6.11,6.11,0,0,1-2,.69,17.72,17.72,0,0,1-3.39.3,15.88,15.88,0,0,1-4.26-.51,4.07,4.07,0,0,1-1.17-.48c-.24-.17-.3-.29-.3-.38V4.63a9.06,9.06,0,0,0,2,.6A19.79,19.79,0,0,0,8,5.56,17.82,17.82,0,0,0,12.74,5a6.37,6.37,0,0,0,1-.36Zm-.3-9.66a6.11,6.11,0,0,1-2,.69A17.72,17.72,0,0,1,8,4.65a16.35,16.35,0,0,1-4.26-.5,4.34,4.34,0,0,1-1.17-.49c-.24-.17-.3-.29-.3-.38s.06-.21.3-.38a6.11,6.11,0,0,1,2-.69A17.72,17.72,0,0,1,8,1.91a15.88,15.88,0,0,1,4.26.51,4.38,4.38,0,0,1,1.17.48c.24.17.3.29.3.38S13.67,3.49,13.43,3.66Z"/><line class="cls-4" x1="14.57" y1="14" x2="9.64" y2="9.06"/><line class="cls-4" x1="14.57" y1="9.06" x2="9.64" y2="14"/></svg>