<svg id="Layer_1" data-name="Layer 1" xmlns="http://www.w3.org/2000/svg" viewBox="0 0 27 11"><defs><style>.cls-1{fill:#fff;}.cls-2{fill:#c1bc05;}.cls-3{fill:#353434;}.cls-4{fill:#fcfc54;}</style></defs><rect class="cls-1" x="0.77" y="0.77" width="25.45" height="9.45" rx="2.15"/><path class="cls-2" d="M24.07,1.55a1.38,1.38,0,0,1,1.38,1.38V8.07a1.38,1.38,0,0,1-1.38,1.38H2.93A1.38,1.38,0,0,1,1.55,8.07V2.93A1.38,1.38,0,0,1,2.93,1.55H24.07m0-1.55H2.93A2.93,2.93,0,0,0,0,2.93V8.07A2.93,2.93,0,0,0,2.93,11H24.07A2.93,2.93,0,0,0,27,8.07V2.93A2.93,2.93,0,0,0,24.07,0Z"/><circle class="cls-3" cx="18" cy="3.96" r="1.24"/><path class="cls-3" d="M16.94,5.82h2.11a1.42,1.42,0,0,1,1.42,1.42V8.3a0,0,0,0,1,0,0h-5a0,0,0,0,1,0,0V7.24A1.42,1.42,0,0,1,16.94,5.82Z"/><rect class="cls-4" x="1.5" y="1.55" width="9" height="7.9" rx="1.47"/><circle class="cls-3" cx="9.04" cy="3.96" r="1.24"/><path class="cls-3" d="M8,5.82h2.11a1.42,1.42,0,0,1,1.42,1.42V8.3a0,0,0,0,1,0,0h-5a0,0,0,0,1,0,0V7.24A1.42,1.42,0,0,1,8,5.82Z"/></svg>