<svg id="Layer_1" data-name="Layer 1" xmlns="http://www.w3.org/2000/svg" viewBox="0 0 113.86 30.32"><defs><style>.cls-1{isolation:isolate;}.cls-2{fill:#fff;}.cls-3{fill:#f16900;}.cls-4{fill:#0e91bb;}.cls-5{fill:#77cefa;}</style></defs><g id="Page-1"><g id="Group"><g id="_3forge" data-name="3forge" class="cls-1"><g class="cls-1"><path class="cls-2" d="M44.11,16.3a9.21,9.21,0,0,1-.61,3.37,6.84,6.84,0,0,1-2.74,3.38,8.05,8.05,0,0,1-4.49,1.22A8,8,0,0,1,31.76,23,7.14,7.14,0,0,1,29,19.51a9.79,9.79,0,0,1-.54-2.67.51.51,0,0,1,.57-.58h3.65a.56.56,0,0,1,.61.58,5.26,5.26,0,0,0,.34,1.48,2.61,2.61,0,0,0,1,1.37,2.72,2.72,0,0,0,1.64.49,2.6,2.6,0,0,0,2.6-1.65,5.66,5.66,0,0,0,.47-2.37,6,6,0,0,0-.54-2.6A2.62,2.62,0,0,0,36.2,12a3,3,0,0,0-1.55.64.78.78,0,0,1-.34.1.61.61,0,0,1-.47-.23l-1.79-2.4a.66.66,0,0,1-.14-.41.59.59,0,0,1,.2-.4l5.27-4.6a.12.12,0,0,0,.07-.15c0-.06-.08-.09-.17-.09h-7.8a.51.51,0,0,1-.58-.57V.92a.51.51,0,0,1,.58-.57H43.23a.51.51,0,0,1,.58.57V4.23a1,1,0,0,1-.31.71L39.07,9c-.13.14-.09.23.14.27a5.62,5.62,0,0,1,4.22,3.48A8.94,8.94,0,0,1,44.11,16.3Z" transform="translate(0 -0.34)"/><path class="cls-2" d="M55.46,7.17V10a.51.51,0,0,1-.57.58H51.81a.18.18,0,0,0-.2.2V23.43A.5.5,0,0,1,51,24H47.42a.5.5,0,0,1-.57-.57V10.82a.18.18,0,0,0-.21-.2H44.85a.51.51,0,0,1-.57-.58V7.17a.5.5,0,0,1,.57-.57h1.79a.19.19,0,0,0,.21-.21V5.68a6.83,6.83,0,0,1,.64-3.26A3.57,3.57,0,0,1,49.57.77a11.55,11.55,0,0,1,4-.42h1.11a.51.51,0,0,1,.58.57v2.4a.51.51,0,0,1-.58.57h-.94a2.45,2.45,0,0,0-1.64.49,2.36,2.36,0,0,0-.46,1.68v.33a.18.18,0,0,0,.2.21h3.08A.5.5,0,0,1,55.46,7.17Z" transform="translate(0 -0.34)"/><path class="cls-2" d="M57.83,22.78a7.4,7.4,0,0,1-2.77-4.05,11.89,11.89,0,0,1-.48-3.45,11.28,11.28,0,0,1,.51-3.58,7.31,7.31,0,0,1,2.79-3.92,8.22,8.22,0,0,1,4.88-1.42,7.9,7.9,0,0,1,4.75,1.42,7.3,7.3,0,0,1,2.75,3.89,11.28,11.28,0,0,1,.51,3.54,13.42,13.42,0,0,1-.44,3.42,7.57,7.57,0,0,1-7.6,5.64A8,8,0,0,1,57.83,22.78Zm6.76-3.27a3.69,3.69,0,0,0,1.11-1.86A8.58,8.58,0,0,0,66,15.28a9.23,9.23,0,0,0-.27-2.4,3.52,3.52,0,0,0-1.11-1.79,2.92,2.92,0,0,0-1.93-.64,2.87,2.87,0,0,0-1.89.64,3.6,3.6,0,0,0-1.12,1.79,9.23,9.23,0,0,0-.27,2.4,9,9,0,0,0,.27,2.37,3.73,3.73,0,0,0,1.14,1.86,2.86,2.86,0,0,0,1.94.67A2.74,2.74,0,0,0,64.59,19.51Z" transform="translate(0 -0.34)"/><path class="cls-2" d="M82.12,6.8a.57.57,0,0,1,.31.71l-.64,3.55c0,.2-.09.32-.19.37a1,1,0,0,1-.49,0,4.12,4.12,0,0,0-1-.14c-.16,0-.42,0-.78.07a3.35,3.35,0,0,0-2.06.9,2.76,2.76,0,0,0-.84,2.11v9.06a.51.51,0,0,1-.58.57H72.26a.51.51,0,0,1-.58-.57V7.21a.51.51,0,0,1,.58-.58h3.61a.51.51,0,0,1,.58.58v1c0,.09,0,.15.07.17s.1,0,.16-.07a4.23,4.23,0,0,1,3.65-2A3.56,3.56,0,0,1,82.12,6.8Z" transform="translate(0 -0.34)"/><path class="cls-2" d="M92.87,6.63h3.62a.51.51,0,0,1,.57.58V22.45q0,4.43-2.53,6.31A10.58,10.58,0,0,1,88,30.66a22.33,22.33,0,0,1-2.53-.17c-.34,0-.51-.23-.51-.61l.14-3.14a.55.55,0,0,1,.18-.43.49.49,0,0,1,.46-.08,16.43,16.43,0,0,0,2.06.17,5.18,5.18,0,0,0,3.33-.95,3.68,3.68,0,0,0,1.17-3c0-.07,0-.11-.07-.12s-.1,0-.17.09a4.82,4.82,0,0,1-3.72,1.35,7.94,7.94,0,0,1-4-1.06,5.9,5.9,0,0,1-2.61-3.43,13.23,13.23,0,0,1-.51-4,12.59,12.59,0,0,1,.61-4.29,6.7,6.7,0,0,1,2.4-3.31,6.42,6.42,0,0,1,3.92-1.25,5.15,5.15,0,0,1,4,1.52c.07.07.12.09.17.07a.18.18,0,0,0,.07-.17V7.21A.51.51,0,0,1,92.87,6.63Zm-.57,8.55a16,16,0,0,0-.07-1.62A5.89,5.89,0,0,0,92,12.48,3,3,0,0,0,91,11a2.79,2.79,0,0,0-1.76-.56A2.71,2.71,0,0,0,87.5,11a3.16,3.16,0,0,0-1,1.47A6.47,6.47,0,0,0,86,15.21a6.53,6.53,0,0,0,.4,2.71,2.94,2.94,0,0,0,2.87,2A2.75,2.75,0,0,0,92,18,11.2,11.2,0,0,0,92.3,15.18Z" transform="translate(0 -0.34)"/><path class="cls-2" d="M110.1,18.69a.62.62,0,0,1,.44-.23.51.51,0,0,1,.38.17l1.92,1.86a.55.55,0,0,1,.2.4.65.65,0,0,1-.13.41,7.74,7.74,0,0,1-2.86,2.18,9.17,9.17,0,0,1-3.8.79,8.13,8.13,0,0,1-5.15-1.59,7.82,7.82,0,0,1-2.76-4.36,11.9,11.9,0,0,1-.4-3.14,12.54,12.54,0,0,1,.37-3.31,7.2,7.2,0,0,1,2.72-4,7.85,7.85,0,0,1,4.85-1.52,7,7,0,0,1,5.25,2,9.74,9.74,0,0,1,2.52,5.5c.09.75.16,1.57.21,2.47a.52.52,0,0,1-.58.58H102.91c-.14,0-.21.06-.21.2a5.18,5.18,0,0,0,.24,1.05,2.75,2.75,0,0,0,1.34,1.6,4.88,4.88,0,0,0,2.41.56A4.41,4.41,0,0,0,110.1,18.69ZM104,11a2.66,2.66,0,0,0-1,1.47c-.11.43-.18.71-.2.85s0,.2.16.2h5.75c.11,0,.17,0,.17-.13a2.47,2.47,0,0,0-.14-.78,2.85,2.85,0,0,0-2.94-2.13A3,3,0,0,0,104,11Z" transform="translate(0 -0.34)"/></g></g><rect id="Rectangle" class="cls-3" y="0.26" width="6.98" height="6.98" rx="1.55"/><rect id="Rectangle-2" data-name="Rectangle" class="cls-3" x="8.54" y="0.26" width="6.98" height="6.98" rx="1.55"/><rect id="Rectangle-3" data-name="Rectangle" class="cls-4" y="8.8" width="6.98" height="6.98" rx="1.55"/><rect id="Rectangle-4" data-name="Rectangle" class="cls-5" y="17.33" width="6.98" height="6.98" rx="1.55"/><rect id="Rectangle-5" data-name="Rectangle" class="cls-4" x="8.54" y="8.8" width="6.98" height="6.98" rx="1.55"/><rect id="Rectangle-6" data-name="Rectangle" class="cls-3" x="17.07" y="0.26" width="6.98" height="6.98" rx="1.55"/></g></g></svg>