<?xml version="1.0" encoding="UTF-8"?>
<svg width="140px" height="140px" viewBox="0 0 140 140" version="1.1" xmlns="http://www.w3.org/2000/svg" xmlns:xlink="http://www.w3.org/1999/xlink">
    <!-- Generator: Sketch 60 (88103) - https://sketch.com -->
    <title>Icon_sad</title>
    <desc>Created with Sketch.</desc>
    <g id="Page-1" stroke="none" stroke-width="1" fill="none" fill-rule="evenodd">
        <g id="404-Page-Not-found" transform="translate(-651.000000, -379.000000)" fill-rule="nonzero">
            <g id="Group-5" transform="translate(290.000000, 379.000000)">
                <g id="Icon_sad" transform="translate(361.000000, 0.000000)">
                    <path d="M70.5,134 C100.930856,134 126.39556,112.861271 133,84.5 C126.39556,56.1387293 100.930856,35 70.5,35 C40.0691444,35 14.6044402,56.1387293 8,84.5 C14.6044402,112.861271 40.0691444,134 70.5,134 Z" id="Path" fill="#EDFADE"></path>
                    <g id="Group" fill="#5A8E21">
                        <path d="M42.8485108,91.8664549 L38.4649657,95.7130942 L45.6729739,99.8751223 L50.0565186,96.0284834 C55.4398194,91.3031415 62.3612061,88.6997886 69.5432131,88.6997886 C76.7294922,88.6997886 83.6352135,91.2917482 89,96 L94,100 L101.570638,95.6874592 L97.1856689,91.8365478 C89.6903481,85.2598064 80.0474041,81.6381836 70.0284831,81.6381836 C60.0138346,81.6381836 50.3623455,85.2711996 42.8485108,91.8664549 Z" id="Path"></path>
                        <path d="M70,0 C31.4011636,0 0,31.4011636 0,70 C0,108.598836 31.4011636,140 70,140 C108.595988,140 140,108.598836 140,70 C140,31.4011636 108.595988,0 70,0 Z M70,133 C35.2623292,133 7,104.737671 7,70 C7,35.2623292 35.2623292,7 70,7 C104.737671,7 133,35.2623292 133,70 C133,104.737671 104.737671,133 70,133 Z" id="Shape"></path>
                        <polygon id="Path" points="40.8333333 52.5 52.5 52.5 52.5 64.1666667 40.8333333 64.1666667"></polygon>
                        <polygon id="Path" points="87.5 52.5 99.1666667 52.5 99.1666667 64.1666667 87.5 64.1666667"></polygon>
                    </g>
                </g>
            </g>
        </g>
    </g>
</svg>