<svg xmlns="http://www.w3.org/2000/svg" xmlns:xlink="http://www.w3.org/1999/xlink" width="40" zoomAndPan="magnify" viewBox="0 0 30 30.000001" height="40" preserveAspectRatio="xMidYMid meet" version="1.0"><defs><clipPath id="406e65e2f2"><path d="M 9.417969 9 L 20.304688 9 L 20.304688 20.324219 L 9.417969 20.324219 Z M 9.417969 9 " clip-rule="nonzero"/></clipPath><clipPath id="500af1d4e1"><path d="M 11 8.710938 L 13 8.710938 L 13 12 L 11 12 Z M 11 8.710938 " clip-rule="nonzero"/></clipPath><clipPath id="2e5f56c4f3"><path d="M 14 8.710938 L 16 8.710938 L 16 12 L 14 12 Z M 14 8.710938 " clip-rule="nonzero"/></clipPath><clipPath id="1a704bf8a3"><path d="M 17 8.710938 L 19 8.710938 L 19 12 L 17 12 Z M 17 8.710938 " clip-rule="nonzero"/></clipPath><clipPath id="eb654d62ac"><path d="M 9.417969 11 L 20.304688 11 L 20.304688 13 L 9.417969 13 Z M 9.417969 11 " clip-rule="nonzero"/></clipPath></defs><g clip-path="url(#406e65e2f2)"><path fill="#7d87dd" d="M 10.5 9.746094 L 11.34375 9.746094 C 11.445312 9.746094 11.523438 9.828125 11.523438 9.929688 L 11.523438 10.375 C 11.523438 10.601562 11.710938 10.785156 11.933594 10.785156 C 12.160156 10.785156 12.34375 10.601562 12.34375 10.375 L 12.34375 9.929688 C 12.34375 9.828125 12.425781 9.746094 12.523438 9.746094 L 14.40625 9.746094 C 14.507812 9.746094 14.589844 9.828125 14.589844 9.929688 L 14.589844 10.375 C 14.589844 10.601562 14.773438 10.785156 15 10.785156 C 15.109375 10.785156 15.210938 10.738281 15.285156 10.664062 C 15.289062 10.660156 15.292969 10.660156 15.296875 10.65625 C 15.363281 10.582031 15.40625 10.484375 15.40625 10.375 L 15.40625 9.929688 C 15.40625 9.828125 15.488281 9.746094 15.589844 9.746094 L 17.472656 9.746094 C 17.570312 9.746094 17.652344 9.828125 17.652344 9.929688 L 17.652344 10.375 C 17.652344 10.601562 17.835938 10.785156 18.0625 10.785156 C 18.175781 10.785156 18.277344 10.738281 18.351562 10.664062 C 18.351562 10.660156 18.355469 10.660156 18.359375 10.65625 C 18.429688 10.582031 18.472656 10.484375 18.472656 10.375 L 18.472656 9.929688 C 18.472656 9.828125 18.550781 9.746094 18.652344 9.746094 L 19.5 9.746094 C 19.792969 9.746094 20.0625 9.867188 20.257812 10.0625 C 20.453125 10.257812 20.574219 10.527344 20.574219 10.820312 L 20.574219 19.246094 C 20.574219 19.542969 20.453125 19.8125 20.257812 20.007812 C 20.0625 20.203125 19.792969 20.324219 19.5 20.324219 L 10.5 20.324219 C 10.203125 20.324219 9.933594 20.203125 9.738281 20.007812 C 9.542969 19.8125 9.421875 19.542969 9.421875 19.246094 L 9.421875 10.820312 C 9.421875 10.527344 9.542969 10.257812 9.738281 10.0625 C 9.933594 9.867188 10.203125 9.746094 10.5 9.746094 Z M 11.164062 10.109375 L 10.5 10.109375 C 10.300781 10.109375 10.125 10.191406 9.996094 10.320312 C 9.867188 10.449219 9.785156 10.625 9.785156 10.820312 L 9.785156 19.246094 C 9.785156 19.441406 9.867188 19.621094 9.996094 19.75 C 10.125 19.878906 10.300781 19.960938 10.5 19.960938 L 19.5 19.960938 C 19.695312 19.960938 19.871094 19.878906 20 19.75 C 20.128906 19.621094 20.210938 19.441406 20.210938 19.246094 L 20.210938 10.820312 C 20.210938 10.625 20.128906 10.449219 20 10.320312 C 19.871094 10.191406 19.695312 10.109375 19.5 10.109375 L 18.832031 10.109375 L 18.832031 10.375 C 18.832031 10.800781 18.488281 11.148438 18.0625 11.148438 C 17.636719 11.148438 17.289062 10.800781 17.289062 10.375 L 17.289062 10.109375 L 15.769531 10.109375 L 15.769531 10.375 C 15.769531 10.800781 15.421875 11.148438 15 11.148438 C 14.574219 11.148438 14.226562 10.800781 14.226562 10.375 L 14.226562 10.109375 L 12.707031 10.109375 L 12.707031 10.375 C 12.707031 10.800781 12.359375 11.148438 11.933594 11.148438 C 11.511719 11.148438 11.164062 10.800781 11.164062 10.375 Z M 11.164062 10.109375 " fill-opacity="1" fill-rule="nonzero"/></g><g clip-path="url(#500af1d4e1)"><path fill="#7d87dd" d="M 11.933594 8.710938 C 12.359375 8.710938 12.707031 9.058594 12.707031 9.480469 L 12.707031 10.375 C 12.707031 10.800781 12.359375 11.148438 11.933594 11.148438 C 11.511719 11.148438 11.164062 10.800781 11.164062 10.375 L 11.164062 9.480469 C 11.164062 9.058594 11.511719 8.710938 11.933594 8.710938 Z M 11.933594 9.074219 C 11.710938 9.074219 11.523438 9.257812 11.523438 9.480469 L 11.523438 10.375 C 11.523438 10.484375 11.566406 10.582031 11.636719 10.65625 C 11.640625 10.660156 11.644531 10.660156 11.644531 10.664062 C 11.71875 10.738281 11.820312 10.785156 11.933594 10.785156 C 12.160156 10.785156 12.34375 10.601562 12.34375 10.375 L 12.34375 9.480469 C 12.34375 9.257812 12.160156 9.074219 11.933594 9.074219 Z M 11.933594 9.074219 " fill-opacity="1" fill-rule="nonzero"/></g><g clip-path="url(#2e5f56c4f3)"><path fill="#7d87dd" d="M 15 8.710938 C 15.421875 8.710938 15.769531 9.058594 15.769531 9.480469 L 15.769531 10.375 C 15.769531 10.800781 15.421875 11.148438 15 11.148438 C 14.785156 11.148438 14.59375 11.058594 14.453125 10.921875 C 14.449219 10.917969 14.445312 10.914062 14.441406 10.910156 C 14.308594 10.769531 14.226562 10.582031 14.226562 10.375 L 14.226562 9.480469 C 14.226562 9.058594 14.574219 8.710938 15 8.710938 Z M 15 9.074219 C 14.773438 9.074219 14.589844 9.257812 14.589844 9.480469 L 14.589844 10.375 C 14.589844 10.601562 14.773438 10.785156 15 10.785156 C 15.222656 10.785156 15.40625 10.601562 15.40625 10.375 L 15.40625 9.480469 C 15.40625 9.257812 15.222656 9.074219 15 9.074219 Z M 15 9.074219 " fill-opacity="1" fill-rule="nonzero"/></g><g clip-path="url(#1a704bf8a3)"><path fill="#7d87dd" d="M 18.0625 8.710938 C 18.488281 8.710938 18.832031 9.058594 18.832031 9.480469 L 18.832031 10.375 C 18.832031 10.800781 18.484375 11.148438 18.0625 11.148438 C 17.636719 11.148438 17.289062 10.800781 17.289062 10.375 L 17.289062 9.480469 C 17.289062 9.058594 17.636719 8.710938 18.0625 8.710938 Z M 18.0625 9.074219 C 17.835938 9.074219 17.652344 9.257812 17.652344 9.480469 L 17.652344 10.375 C 17.652344 10.601562 17.835938 10.785156 18.0625 10.785156 C 18.289062 10.785156 18.472656 10.601562 18.472656 10.375 L 18.472656 9.480469 C 18.472656 9.257812 18.289062 9.074219 18.0625 9.074219 Z M 18.0625 9.074219 " fill-opacity="1" fill-rule="nonzero"/></g><g clip-path="url(#eb654d62ac)"><path fill="#7d87dd" d="M 20.390625 12.023438 C 20.492188 12.023438 20.574219 11.945312 20.574219 11.84375 C 20.574219 11.742188 20.492188 11.660156 20.390625 11.660156 L 9.605469 11.660156 C 9.503906 11.660156 9.421875 11.742188 9.421875 11.84375 C 9.421875 11.945312 9.503906 12.023438 9.605469 12.023438 Z M 20.390625 12.023438 " fill-opacity="1" fill-rule="nonzero"/></g><path fill="#7d87dd" d="M 13.324219 13.195312 L 14.40625 13.195312 C 14.507812 13.195312 14.589844 13.273438 14.589844 13.375 L 14.589844 14.460938 C 14.589844 14.558594 14.507812 14.640625 14.40625 14.640625 L 13.324219 14.640625 C 13.222656 14.640625 13.140625 14.558594 13.140625 14.460938 L 13.140625 13.375 C 13.140625 13.273438 13.222656 13.195312 13.324219 13.195312 Z M 14.226562 13.558594 L 13.503906 13.558594 L 13.503906 14.277344 L 14.226562 14.277344 Z M 14.226562 13.558594 " fill-opacity="1" fill-rule="nonzero"/><path fill="#7d87dd" d="M 15.589844 13.195312 L 16.671875 13.195312 C 16.773438 13.195312 16.855469 13.273438 16.855469 13.375 L 16.855469 14.460938 C 16.855469 14.558594 16.773438 14.640625 16.671875 14.640625 L 15.589844 14.640625 C 15.488281 14.640625 15.40625 14.558594 15.40625 14.460938 L 15.40625 13.375 C 15.40625 13.273438 15.488281 13.195312 15.589844 13.195312 Z M 16.492188 13.558594 L 15.769531 13.558594 L 15.769531 14.277344 L 16.492188 14.277344 Z M 16.492188 13.558594 " fill-opacity="1" fill-rule="nonzero"/><path fill="#7d87dd" d="M 17.855469 13.195312 L 18.941406 13.195312 C 19.039062 13.195312 19.121094 13.273438 19.121094 13.375 L 19.121094 14.460938 C 19.121094 14.558594 19.039062 14.640625 18.941406 14.640625 L 17.855469 14.640625 C 17.753906 14.640625 17.671875 14.558594 17.671875 14.460938 L 17.671875 13.375 C 17.671875 13.273438 17.753906 13.195312 17.855469 13.195312 Z M 18.757812 13.558594 L 18.035156 13.558594 L 18.035156 14.277344 L 18.757812 14.277344 Z M 18.757812 13.558594 " fill-opacity="1" fill-rule="nonzero"/><path fill="#7d87dd" d="M 11.058594 15.269531 L 12.140625 15.269531 C 12.242188 15.269531 12.324219 15.347656 12.324219 15.449219 L 12.324219 16.535156 C 12.324219 16.636719 12.242188 16.714844 12.140625 16.714844 L 11.058594 16.714844 C 10.957031 16.714844 10.875 16.636719 10.875 16.535156 L 10.875 15.449219 C 10.875 15.347656 10.957031 15.269531 11.058594 15.269531 Z M 11.960938 15.632812 L 11.238281 15.632812 L 11.238281 16.351562 L 11.960938 16.351562 Z M 11.960938 15.632812 " fill-opacity="1" fill-rule="nonzero"/><path fill="#7d87dd" d="M 13.324219 15.269531 L 14.40625 15.269531 C 14.507812 15.269531 14.589844 15.347656 14.589844 15.449219 L 14.589844 16.535156 C 14.589844 16.636719 14.507812 16.714844 14.40625 16.714844 L 13.324219 16.714844 C 13.222656 16.714844 13.140625 16.636719 13.140625 16.535156 L 13.140625 15.449219 C 13.140625 15.347656 13.222656 15.269531 13.324219 15.269531 Z M 14.226562 15.632812 L 13.503906 15.632812 L 13.503906 16.351562 L 14.226562 16.351562 Z M 14.226562 15.632812 " fill-opacity="1" fill-rule="nonzero"/><path fill="#7d87dd" d="M 15.589844 15.269531 L 16.671875 15.269531 C 16.773438 15.269531 16.855469 15.347656 16.855469 15.449219 L 16.855469 16.535156 C 16.855469 16.636719 16.773438 16.714844 16.671875 16.714844 L 15.589844 16.714844 C 15.488281 16.714844 15.40625 16.636719 15.40625 16.535156 L 15.40625 15.449219 C 15.40625 15.347656 15.488281 15.269531 15.589844 15.269531 Z M 16.492188 15.632812 L 15.769531 15.632812 L 15.769531 16.351562 L 16.492188 16.351562 Z M 16.492188 15.632812 " fill-opacity="1" fill-rule="nonzero"/><path fill="#7d87dd" d="M 17.855469 15.269531 L 18.941406 15.269531 C 19.039062 15.269531 19.121094 15.347656 19.121094 15.449219 L 19.121094 16.535156 C 19.121094 16.636719 19.039062 16.714844 18.941406 16.714844 L 17.855469 16.714844 C 17.753906 16.714844 17.671875 16.636719 17.671875 16.535156 L 17.671875 15.449219 C 17.671875 15.347656 17.753906 15.269531 17.855469 15.269531 Z M 18.757812 15.632812 L 18.035156 15.632812 L 18.035156 16.351562 L 18.757812 16.351562 Z M 18.757812 15.632812 " fill-opacity="1" fill-rule="nonzero"/><path fill="#7d87dd" d="M 11.058594 17.34375 L 12.140625 17.34375 C 12.242188 17.34375 12.324219 17.425781 12.324219 17.523438 L 12.324219 18.609375 C 12.324219 18.710938 12.242188 18.789062 12.140625 18.789062 L 11.058594 18.789062 C 10.957031 18.789062 10.875 18.710938 10.875 18.609375 L 10.875 17.523438 C 10.875 17.425781 10.957031 17.34375 11.058594 17.34375 Z M 11.960938 17.707031 L 11.238281 17.707031 L 11.238281 18.429688 L 11.960938 18.429688 Z M 11.960938 17.707031 " fill-opacity="1" fill-rule="nonzero"/><path fill="#7d87dd" d="M 13.324219 17.34375 L 14.40625 17.34375 C 14.507812 17.34375 14.589844 17.425781 14.589844 17.523438 L 14.589844 18.609375 C 14.589844 18.710938 14.507812 18.789062 14.40625 18.789062 L 13.324219 18.789062 C 13.222656 18.789062 13.140625 18.710938 13.140625 18.609375 L 13.140625 17.523438 C 13.140625 17.425781 13.222656 17.34375 13.324219 17.34375 Z M 14.226562 17.707031 L 13.503906 17.707031 L 13.503906 18.429688 L 14.226562 18.429688 Z M 14.226562 17.707031 " fill-opacity="1" fill-rule="nonzero"/><path fill="#7d87dd" d="M 15.589844 17.34375 L 16.671875 17.34375 C 16.773438 17.34375 16.855469 17.425781 16.855469 17.523438 L 16.855469 18.609375 C 16.855469 18.710938 16.773438 18.789062 16.671875 18.789062 L 15.589844 18.789062 C 15.488281 18.789062 15.40625 18.710938 15.40625 18.609375 L 15.40625 17.523438 C 15.40625 17.425781 15.488281 17.34375 15.589844 17.34375 Z M 16.492188 17.707031 L 15.769531 17.707031 L 15.769531 18.429688 L 16.492188 18.429688 Z M 16.492188 17.707031 " fill-opacity="1" fill-rule="nonzero"/></svg>