<svg xmlns="http://www.w3.org/2000/svg" xmlns:xlink="http://www.w3.org/1999/xlink" width="100" zoomAndPan="magnify" viewBox="0 0 75 74.999997" height="100" preserveAspectRatio="xMidYMid meet" version="1.0"><defs><g/><clipPath id="af472c356f"><path d="M 20.042969 5.296875 L 55 5.296875 L 55 51.796875 L 20.042969 51.796875 Z M 20.042969 5.296875 " clip-rule="nonzero"/></clipPath></defs><g fill="#000000" fill-opacity="1"><g transform="translate(3.701536, 66.266326)"><g><path d="M 0.53125 0 C 0.457031 0 0.421875 -0.0351562 0.421875 -0.109375 L 0.421875 -4.640625 C 0.421875 -4.710938 0.457031 -4.75 0.53125 -4.75 L 2.203125 -4.75 C 2.535156 -4.75 2.828125 -4.6875 3.078125 -4.5625 C 3.335938 -4.445312 3.535156 -4.28125 3.671875 -4.0625 C 3.816406 -3.851562 3.890625 -3.601562 3.890625 -3.3125 L 3.890625 -1.4375 C 3.890625 -1.15625 3.816406 -0.90625 3.671875 -0.6875 C 3.535156 -0.46875 3.335938 -0.296875 3.078125 -0.171875 C 2.828125 -0.0546875 2.535156 0 2.203125 0 Z M 1.375 -0.859375 C 1.375 -0.835938 1.382812 -0.828125 1.40625 -0.828125 L 2.234375 -0.828125 C 2.441406 -0.828125 2.609375 -0.894531 2.734375 -1.03125 C 2.859375 -1.175781 2.925781 -1.363281 2.9375 -1.59375 L 2.9375 -3.15625 C 2.9375 -3.394531 2.867188 -3.582031 2.734375 -3.71875 C 2.609375 -3.863281 2.4375 -3.9375 2.21875 -3.9375 L 1.40625 -3.9375 C 1.382812 -3.9375 1.375 -3.921875 1.375 -3.890625 Z M 1.375 -0.859375 "/></g></g></g><g fill="#000000" fill-opacity="1"><g transform="translate(7.785912, 66.266326)"><g><path d="M 1.75 -3.546875 C 2.050781 -3.546875 2.316406 -3.492188 2.546875 -3.390625 C 2.773438 -3.285156 2.953125 -3.144531 3.078125 -2.96875 C 3.210938 -2.800781 3.28125 -2.609375 3.28125 -2.390625 L 3.28125 -0.109375 C 3.28125 -0.0351562 3.238281 0 3.15625 0 L 2.4375 0 C 2.351562 0 2.3125 -0.0351562 2.3125 -0.109375 L 2.3125 -0.28125 C 2.3125 -0.300781 2.304688 -0.3125 2.296875 -0.3125 C 2.296875 -0.3125 2.285156 -0.304688 2.265625 -0.296875 C 2.054688 -0.0664062 1.75 0.046875 1.34375 0.046875 C 0.988281 0.046875 0.703125 -0.0351562 0.484375 -0.203125 C 0.273438 -0.378906 0.171875 -0.632812 0.171875 -0.96875 C 0.171875 -1.3125 0.289062 -1.578125 0.53125 -1.765625 C 0.78125 -1.960938 1.132812 -2.0625 1.59375 -2.0625 L 2.28125 -2.0625 C 2.300781 -2.0625 2.3125 -2.078125 2.3125 -2.109375 L 2.3125 -2.25 C 2.3125 -2.394531 2.265625 -2.507812 2.171875 -2.59375 C 2.078125 -2.675781 1.945312 -2.71875 1.78125 -2.71875 C 1.632812 -2.71875 1.519531 -2.695312 1.4375 -2.65625 C 1.351562 -2.613281 1.289062 -2.550781 1.25 -2.46875 C 1.226562 -2.40625 1.1875 -2.375 1.125 -2.375 L 0.359375 -2.46875 C 0.328125 -2.476562 0.300781 -2.488281 0.28125 -2.5 C 0.257812 -2.519531 0.253906 -2.539062 0.265625 -2.5625 C 0.285156 -2.75 0.359375 -2.914062 0.484375 -3.0625 C 0.617188 -3.21875 0.796875 -3.335938 1.015625 -3.421875 C 1.242188 -3.503906 1.488281 -3.546875 1.75 -3.546875 Z M 1.625 -0.65625 C 1.8125 -0.65625 1.972656 -0.707031 2.109375 -0.8125 C 2.242188 -0.914062 2.3125 -1.050781 2.3125 -1.21875 L 2.3125 -1.453125 C 2.3125 -1.484375 2.300781 -1.5 2.28125 -1.5 L 1.796875 -1.5 C 1.585938 -1.5 1.425781 -1.457031 1.3125 -1.375 C 1.195312 -1.300781 1.140625 -1.191406 1.140625 -1.046875 C 1.140625 -0.929688 1.179688 -0.835938 1.265625 -0.765625 C 1.359375 -0.691406 1.476562 -0.65625 1.625 -0.65625 Z M 1.625 -0.65625 "/></g></g></g><g fill="#000000" fill-opacity="1"><g transform="translate(11.258653, 66.266326)"><g><path d="M 2.359375 -2.84375 C 2.359375 -2.757812 2.320312 -2.71875 2.25 -2.71875 L 1.625 -2.71875 C 1.601562 -2.71875 1.59375 -2.707031 1.59375 -2.6875 L 1.59375 -1.28125 C 1.59375 -1.125 1.625 -1.007812 1.6875 -0.9375 C 1.75 -0.875 1.847656 -0.84375 1.984375 -0.84375 L 2.171875 -0.84375 C 2.242188 -0.84375 2.28125 -0.804688 2.28125 -0.734375 L 2.28125 -0.140625 C 2.28125 -0.0664062 2.242188 -0.0234375 2.171875 -0.015625 C 1.992188 -0.00390625 1.867188 0 1.796875 0 C 1.421875 0 1.140625 -0.0625 0.953125 -0.1875 C 0.765625 -0.320312 0.671875 -0.5625 0.671875 -0.90625 L 0.671875 -2.6875 C 0.671875 -2.707031 0.65625 -2.71875 0.625 -2.71875 L 0.28125 -2.71875 C 0.195312 -2.71875 0.15625 -2.757812 0.15625 -2.84375 L 0.15625 -3.375 C 0.15625 -3.457031 0.195312 -3.5 0.28125 -3.5 L 0.625 -3.5 C 0.65625 -3.5 0.671875 -3.507812 0.671875 -3.53125 L 0.671875 -4.296875 C 0.671875 -4.378906 0.707031 -4.421875 0.78125 -4.421875 L 1.46875 -4.421875 C 1.550781 -4.421875 1.59375 -4.378906 1.59375 -4.296875 L 1.59375 -3.53125 C 1.59375 -3.507812 1.601562 -3.5 1.625 -3.5 L 2.25 -3.5 C 2.320312 -3.5 2.359375 -3.457031 2.359375 -3.375 Z M 2.359375 -2.84375 "/></g></g></g><g fill="#000000" fill-opacity="1"><g transform="translate(13.72559, 66.266326)"><g><path d="M 1.75 -3.546875 C 2.050781 -3.546875 2.316406 -3.492188 2.546875 -3.390625 C 2.773438 -3.285156 2.953125 -3.144531 3.078125 -2.96875 C 3.210938 -2.800781 3.28125 -2.609375 3.28125 -2.390625 L 3.28125 -0.109375 C 3.28125 -0.0351562 3.238281 0 3.15625 0 L 2.4375 0 C 2.351562 0 2.3125 -0.0351562 2.3125 -0.109375 L 2.3125 -0.28125 C 2.3125 -0.300781 2.304688 -0.3125 2.296875 -0.3125 C 2.296875 -0.3125 2.285156 -0.304688 2.265625 -0.296875 C 2.054688 -0.0664062 1.75 0.046875 1.34375 0.046875 C 0.988281 0.046875 0.703125 -0.0351562 0.484375 -0.203125 C 0.273438 -0.378906 0.171875 -0.632812 0.171875 -0.96875 C 0.171875 -1.3125 0.289062 -1.578125 0.53125 -1.765625 C 0.78125 -1.960938 1.132812 -2.0625 1.59375 -2.0625 L 2.28125 -2.0625 C 2.300781 -2.0625 2.3125 -2.078125 2.3125 -2.109375 L 2.3125 -2.25 C 2.3125 -2.394531 2.265625 -2.507812 2.171875 -2.59375 C 2.078125 -2.675781 1.945312 -2.71875 1.78125 -2.71875 C 1.632812 -2.71875 1.519531 -2.695312 1.4375 -2.65625 C 1.351562 -2.613281 1.289062 -2.550781 1.25 -2.46875 C 1.226562 -2.40625 1.1875 -2.375 1.125 -2.375 L 0.359375 -2.46875 C 0.328125 -2.476562 0.300781 -2.488281 0.28125 -2.5 C 0.257812 -2.519531 0.253906 -2.539062 0.265625 -2.5625 C 0.285156 -2.75 0.359375 -2.914062 0.484375 -3.0625 C 0.617188 -3.21875 0.796875 -3.335938 1.015625 -3.421875 C 1.242188 -3.503906 1.488281 -3.546875 1.75 -3.546875 Z M 1.625 -0.65625 C 1.8125 -0.65625 1.972656 -0.707031 2.109375 -0.8125 C 2.242188 -0.914062 2.3125 -1.050781 2.3125 -1.21875 L 2.3125 -1.453125 C 2.3125 -1.484375 2.300781 -1.5 2.28125 -1.5 L 1.796875 -1.5 C 1.585938 -1.5 1.425781 -1.457031 1.3125 -1.375 C 1.195312 -1.300781 1.140625 -1.191406 1.140625 -1.046875 C 1.140625 -0.929688 1.179688 -0.835938 1.265625 -0.765625 C 1.359375 -0.691406 1.476562 -0.65625 1.625 -0.65625 Z M 1.625 -0.65625 "/></g></g></g><g fill="#000000" fill-opacity="1"><g transform="translate(17.198331, 66.266326)"><g><path d="M 3.453125 -2.609375 C 3.535156 -2.378906 3.578125 -2.097656 3.578125 -1.765625 C 3.578125 -1.429688 3.535156 -1.15625 3.453125 -0.9375 C 3.367188 -0.644531 3.207031 -0.40625 2.96875 -0.21875 C 2.726562 -0.0390625 2.453125 0.046875 2.140625 0.046875 C 1.816406 0.046875 1.5625 -0.0703125 1.375 -0.3125 C 1.363281 -0.320312 1.351562 -0.328125 1.34375 -0.328125 C 1.332031 -0.328125 1.328125 -0.316406 1.328125 -0.296875 L 1.328125 -0.109375 C 1.328125 -0.0351562 1.285156 0 1.203125 0 L 0.484375 0 C 0.398438 0 0.359375 -0.0351562 0.359375 -0.109375 L 0.359375 -4.640625 C 0.359375 -4.710938 0.398438 -4.75 0.484375 -4.75 L 1.203125 -4.75 C 1.285156 -4.75 1.328125 -4.710938 1.328125 -4.640625 L 1.328125 -3.234375 C 1.328125 -3.222656 1.332031 -3.210938 1.34375 -3.203125 C 1.351562 -3.203125 1.363281 -3.207031 1.375 -3.21875 C 1.550781 -3.445312 1.804688 -3.5625 2.140625 -3.5625 C 2.453125 -3.5625 2.722656 -3.472656 2.953125 -3.296875 C 3.179688 -3.117188 3.347656 -2.890625 3.453125 -2.609375 Z M 2.421875 -1.078125 C 2.515625 -1.253906 2.5625 -1.472656 2.5625 -1.734375 C 2.5625 -2.035156 2.507812 -2.273438 2.40625 -2.453125 C 2.300781 -2.628906 2.144531 -2.71875 1.9375 -2.71875 C 1.738281 -2.71875 1.582031 -2.628906 1.46875 -2.453125 C 1.375 -2.285156 1.328125 -2.050781 1.328125 -1.75 C 1.328125 -1.46875 1.375 -1.242188 1.46875 -1.078125 C 1.570312 -0.878906 1.726562 -0.78125 1.9375 -0.78125 C 2.15625 -0.78125 2.316406 -0.878906 2.421875 -1.078125 Z M 2.421875 -1.078125 "/></g></g></g><g fill="#000000" fill-opacity="1"><g transform="translate(20.868158, 66.266326)"><g><path d="M 1.75 -3.546875 C 2.050781 -3.546875 2.316406 -3.492188 2.546875 -3.390625 C 2.773438 -3.285156 2.953125 -3.144531 3.078125 -2.96875 C 3.210938 -2.800781 3.28125 -2.609375 3.28125 -2.390625 L 3.28125 -0.109375 C 3.28125 -0.0351562 3.238281 0 3.15625 0 L 2.4375 0 C 2.351562 0 2.3125 -0.0351562 2.3125 -0.109375 L 2.3125 -0.28125 C 2.3125 -0.300781 2.304688 -0.3125 2.296875 -0.3125 C 2.296875 -0.3125 2.285156 -0.304688 2.265625 -0.296875 C 2.054688 -0.0664062 1.75 0.046875 1.34375 0.046875 C 0.988281 0.046875 0.703125 -0.0351562 0.484375 -0.203125 C 0.273438 -0.378906 0.171875 -0.632812 0.171875 -0.96875 C 0.171875 -1.3125 0.289062 -1.578125 0.53125 -1.765625 C 0.78125 -1.960938 1.132812 -2.0625 1.59375 -2.0625 L 2.28125 -2.0625 C 2.300781 -2.0625 2.3125 -2.078125 2.3125 -2.109375 L 2.3125 -2.25 C 2.3125 -2.394531 2.265625 -2.507812 2.171875 -2.59375 C 2.078125 -2.675781 1.945312 -2.71875 1.78125 -2.71875 C 1.632812 -2.71875 1.519531 -2.695312 1.4375 -2.65625 C 1.351562 -2.613281 1.289062 -2.550781 1.25 -2.46875 C 1.226562 -2.40625 1.1875 -2.375 1.125 -2.375 L 0.359375 -2.46875 C 0.328125 -2.476562 0.300781 -2.488281 0.28125 -2.5 C 0.257812 -2.519531 0.253906 -2.539062 0.265625 -2.5625 C 0.285156 -2.75 0.359375 -2.914062 0.484375 -3.0625 C 0.617188 -3.21875 0.796875 -3.335938 1.015625 -3.421875 C 1.242188 -3.503906 1.488281 -3.546875 1.75 -3.546875 Z M 1.625 -0.65625 C 1.8125 -0.65625 1.972656 -0.707031 2.109375 -0.8125 C 2.242188 -0.914062 2.3125 -1.050781 2.3125 -1.21875 L 2.3125 -1.453125 C 2.3125 -1.484375 2.300781 -1.5 2.28125 -1.5 L 1.796875 -1.5 C 1.585938 -1.5 1.425781 -1.457031 1.3125 -1.375 C 1.195312 -1.300781 1.140625 -1.191406 1.140625 -1.046875 C 1.140625 -0.929688 1.179688 -0.835938 1.265625 -0.765625 C 1.359375 -0.691406 1.476562 -0.65625 1.625 -0.65625 Z M 1.625 -0.65625 "/></g></g></g><g fill="#000000" fill-opacity="1"><g transform="translate(24.340901, 66.266326)"><g><path d="M 1.75 0.046875 C 1.445312 0.046875 1.179688 0.00390625 0.953125 -0.078125 C 0.722656 -0.160156 0.546875 -0.28125 0.421875 -0.4375 C 0.304688 -0.59375 0.25 -0.769531 0.25 -0.96875 L 0.25 -1 C 0.25 -1.070312 0.285156 -1.109375 0.359375 -1.109375 L 1.046875 -1.109375 C 1.117188 -1.109375 1.15625 -1.097656 1.15625 -1.078125 L 1.15625 -1.03125 C 1.15625 -0.925781 1.207031 -0.835938 1.3125 -0.765625 C 1.425781 -0.703125 1.566406 -0.671875 1.734375 -0.671875 C 1.890625 -0.671875 2.015625 -0.695312 2.109375 -0.75 C 2.203125 -0.8125 2.25 -0.890625 2.25 -0.984375 C 2.25 -1.066406 2.207031 -1.128906 2.125 -1.171875 C 2.050781 -1.210938 1.921875 -1.253906 1.734375 -1.296875 C 1.515625 -1.359375 1.347656 -1.410156 1.234375 -1.453125 C 0.941406 -1.554688 0.707031 -1.675781 0.53125 -1.8125 C 0.363281 -1.957031 0.28125 -2.171875 0.28125 -2.453125 C 0.28125 -2.785156 0.410156 -3.050781 0.671875 -3.25 C 0.929688 -3.445312 1.273438 -3.546875 1.703125 -3.546875 C 1.992188 -3.546875 2.25 -3.5 2.46875 -3.40625 C 2.6875 -3.3125 2.851562 -3.179688 2.96875 -3.015625 C 3.09375 -2.847656 3.15625 -2.65625 3.15625 -2.4375 C 3.15625 -2.414062 3.144531 -2.394531 3.125 -2.375 C 3.101562 -2.363281 3.078125 -2.359375 3.046875 -2.359375 L 2.375 -2.359375 C 2.300781 -2.359375 2.265625 -2.375 2.265625 -2.40625 L 2.265625 -2.4375 C 2.265625 -2.539062 2.210938 -2.625 2.109375 -2.6875 C 2.015625 -2.757812 1.882812 -2.796875 1.71875 -2.796875 C 1.5625 -2.796875 1.4375 -2.765625 1.34375 -2.703125 C 1.25 -2.648438 1.203125 -2.578125 1.203125 -2.484375 C 1.203125 -2.398438 1.242188 -2.332031 1.328125 -2.28125 C 1.421875 -2.238281 1.578125 -2.191406 1.796875 -2.140625 C 1.921875 -2.109375 2.046875 -2.070312 2.171875 -2.03125 C 2.503906 -1.9375 2.757812 -1.816406 2.9375 -1.671875 C 3.125 -1.523438 3.21875 -1.304688 3.21875 -1.015625 C 3.21875 -0.679688 3.082031 -0.421875 2.8125 -0.234375 C 2.550781 -0.046875 2.195312 0.046875 1.75 0.046875 Z M 1.75 0.046875 "/></g></g></g><g fill="#000000" fill-opacity="1"><g transform="translate(27.643744, 66.266326)"><g><path d="M 2.03125 -0.75 C 2.332031 -0.769531 2.5625 -0.875 2.71875 -1.0625 C 2.75 -1.09375 2.78125 -1.109375 2.8125 -1.109375 C 2.84375 -1.109375 2.867188 -1.097656 2.890625 -1.078125 L 3.28125 -0.703125 C 3.300781 -0.679688 3.3125 -0.65625 3.3125 -0.625 C 3.3125 -0.59375 3.304688 -0.566406 3.296875 -0.546875 C 3.140625 -0.359375 2.941406 -0.210938 2.703125 -0.109375 C 2.472656 -0.00390625 2.222656 0.046875 1.953125 0.046875 C 1.535156 0.046875 1.1875 -0.0546875 0.90625 -0.265625 C 0.632812 -0.472656 0.453125 -0.765625 0.359375 -1.140625 C 0.304688 -1.335938 0.28125 -1.550781 0.28125 -1.78125 C 0.28125 -2.039062 0.304688 -2.257812 0.359375 -2.4375 C 0.441406 -2.769531 0.617188 -3.039062 0.890625 -3.25 C 1.171875 -3.457031 1.5 -3.5625 1.875 -3.5625 C 2.320312 -3.5625 2.675781 -3.425781 2.9375 -3.15625 C 3.195312 -2.894531 3.363281 -2.523438 3.4375 -2.046875 C 3.457031 -1.898438 3.472656 -1.738281 3.484375 -1.5625 C 3.484375 -1.476562 3.441406 -1.4375 3.359375 -1.4375 L 1.28125 -1.4375 C 1.25 -1.4375 1.234375 -1.425781 1.234375 -1.40625 C 1.242188 -1.300781 1.257812 -1.226562 1.28125 -1.1875 C 1.332031 -1.050781 1.421875 -0.941406 1.546875 -0.859375 C 1.679688 -0.785156 1.84375 -0.75 2.03125 -0.75 Z M 1.859375 -2.71875 C 1.710938 -2.71875 1.59375 -2.679688 1.5 -2.609375 C 1.40625 -2.546875 1.335938 -2.453125 1.296875 -2.328125 C 1.273438 -2.242188 1.257812 -2.1875 1.25 -2.15625 C 1.25 -2.125 1.265625 -2.109375 1.296875 -2.109375 L 2.453125 -2.109375 C 2.472656 -2.109375 2.484375 -2.117188 2.484375 -2.140625 C 2.484375 -2.191406 2.472656 -2.242188 2.453125 -2.296875 C 2.410156 -2.429688 2.335938 -2.535156 2.234375 -2.609375 C 2.140625 -2.679688 2.015625 -2.71875 1.859375 -2.71875 Z M 1.859375 -2.71875 "/></g></g></g><g fill="#000000" fill-opacity="1"><g transform="translate(31.245607, 66.266326)"><g/></g></g><g fill="#000000" fill-opacity="1"><g transform="translate(32.489276, 66.266326)"><g><path d="M 4.40625 -0.140625 C 4.425781 -0.109375 4.4375 -0.0820312 4.4375 -0.0625 C 4.4375 -0.0507812 4.425781 -0.0351562 4.40625 -0.015625 C 4.394531 -0.00390625 4.375 0 4.34375 0 L 3.53125 0 C 3.476562 0 3.429688 -0.0195312 3.390625 -0.0625 L 3.140625 -0.328125 C 3.128906 -0.347656 3.109375 -0.351562 3.078125 -0.34375 C 2.660156 -0.0820312 2.210938 0.046875 1.734375 0.046875 C 1.304688 0.046875 0.953125 -0.0507812 0.671875 -0.25 C 0.398438 -0.445312 0.265625 -0.742188 0.265625 -1.140625 C 0.265625 -1.441406 0.34375 -1.695312 0.5 -1.90625 C 0.65625 -2.113281 0.867188 -2.300781 1.140625 -2.46875 C 1.171875 -2.488281 1.175781 -2.507812 1.15625 -2.53125 C 0.925781 -2.789062 0.773438 -2.988281 0.703125 -3.125 C 0.628906 -3.269531 0.59375 -3.414062 0.59375 -3.5625 C 0.59375 -3.9375 0.71875 -4.238281 0.96875 -4.46875 C 1.226562 -4.695312 1.566406 -4.8125 1.984375 -4.8125 C 2.265625 -4.8125 2.515625 -4.757812 2.734375 -4.65625 C 2.953125 -4.550781 3.125 -4.40625 3.25 -4.21875 C 3.375 -4.03125 3.4375 -3.816406 3.4375 -3.578125 C 3.4375 -3.296875 3.351562 -3.054688 3.1875 -2.859375 C 3.03125 -2.660156 2.8125 -2.476562 2.53125 -2.3125 C 2.5 -2.300781 2.492188 -2.285156 2.515625 -2.265625 L 3.15625 -1.5625 C 3.164062 -1.550781 3.175781 -1.546875 3.1875 -1.546875 C 3.195312 -1.546875 3.207031 -1.550781 3.21875 -1.5625 C 3.363281 -1.707031 3.492188 -1.875 3.609375 -2.0625 C 3.640625 -2.101562 3.675781 -2.125 3.71875 -2.125 C 3.726562 -2.125 3.75 -2.117188 3.78125 -2.109375 L 4.296875 -1.8125 C 4.335938 -1.789062 4.359375 -1.757812 4.359375 -1.71875 C 4.359375 -1.695312 4.351562 -1.671875 4.34375 -1.640625 C 4.164062 -1.378906 3.976562 -1.132812 3.78125 -0.90625 C 3.757812 -0.882812 3.765625 -0.863281 3.796875 -0.84375 C 3.960938 -0.632812 4.164062 -0.398438 4.40625 -0.140625 Z M 2.015625 -3.9375 C 1.867188 -3.9375 1.753906 -3.898438 1.671875 -3.828125 C 1.597656 -3.765625 1.5625 -3.675781 1.5625 -3.5625 C 1.5625 -3.5 1.582031 -3.425781 1.625 -3.34375 C 1.664062 -3.269531 1.765625 -3.140625 1.921875 -2.953125 C 1.941406 -2.929688 1.960938 -2.925781 1.984375 -2.9375 C 2.140625 -3.039062 2.257812 -3.140625 2.34375 -3.234375 C 2.425781 -3.328125 2.46875 -3.4375 2.46875 -3.5625 C 2.46875 -3.675781 2.425781 -3.765625 2.34375 -3.828125 C 2.257812 -3.898438 2.148438 -3.9375 2.015625 -3.9375 Z M 1.765625 -0.75 C 1.992188 -0.75 2.238281 -0.828125 2.5 -0.984375 C 2.519531 -0.992188 2.519531 -1.007812 2.5 -1.03125 C 2.34375 -1.207031 2.222656 -1.34375 2.140625 -1.4375 C 2.128906 -1.4375 2.054688 -1.515625 1.921875 -1.671875 L 1.765625 -1.84375 C 1.742188 -1.863281 1.722656 -1.863281 1.703125 -1.84375 C 1.378906 -1.632812 1.21875 -1.414062 1.21875 -1.1875 C 1.21875 -1.050781 1.265625 -0.941406 1.359375 -0.859375 C 1.460938 -0.785156 1.597656 -0.75 1.765625 -0.75 Z M 1.765625 -0.75 "/></g></g></g><g fill="#000000" fill-opacity="1"><g transform="translate(37.158109, 66.266326)"><g/></g></g><g fill="#000000" fill-opacity="1"><g transform="translate(38.401778, 66.266326)"><g><path d="M 2.09375 0.046875 C 1.738281 0.046875 1.425781 -0.0195312 1.15625 -0.15625 C 0.882812 -0.289062 0.675781 -0.484375 0.53125 -0.734375 C 0.382812 -0.984375 0.3125 -1.269531 0.3125 -1.59375 L 0.3125 -3.171875 C 0.3125 -3.492188 0.382812 -3.78125 0.53125 -4.03125 C 0.675781 -4.28125 0.882812 -4.472656 1.15625 -4.609375 C 1.425781 -4.742188 1.738281 -4.8125 2.09375 -4.8125 C 2.4375 -4.8125 2.738281 -4.742188 3 -4.609375 C 3.269531 -4.484375 3.476562 -4.300781 3.625 -4.0625 C 3.769531 -3.832031 3.84375 -3.554688 3.84375 -3.234375 C 3.84375 -3.203125 3.804688 -3.179688 3.734375 -3.171875 L 3.015625 -3.125 L 2.984375 -3.125 C 2.921875 -3.125 2.890625 -3.132812 2.890625 -3.15625 L 2.890625 -3.1875 C 2.890625 -3.4375 2.816406 -3.628906 2.671875 -3.765625 C 2.523438 -3.910156 2.332031 -3.984375 2.09375 -3.984375 C 1.84375 -3.984375 1.644531 -3.910156 1.5 -3.765625 C 1.351562 -3.628906 1.28125 -3.4375 1.28125 -3.1875 L 1.28125 -1.5625 C 1.28125 -1.320312 1.351562 -1.128906 1.5 -0.984375 C 1.644531 -0.835938 1.84375 -0.765625 2.09375 -0.765625 C 2.332031 -0.765625 2.523438 -0.835938 2.671875 -0.984375 C 2.816406 -1.128906 2.890625 -1.320312 2.890625 -1.5625 C 2.890625 -1.582031 2.898438 -1.597656 2.921875 -1.609375 C 2.941406 -1.628906 2.96875 -1.632812 3 -1.625 L 3.734375 -1.59375 C 3.804688 -1.582031 3.84375 -1.570312 3.84375 -1.5625 L 3.84375 -1.53125 C 3.84375 -1.21875 3.769531 -0.941406 3.625 -0.703125 C 3.476562 -0.460938 3.269531 -0.273438 3 -0.140625 C 2.738281 -0.015625 2.4375 0.046875 2.09375 0.046875 Z M 2.09375 0.046875 "/></g></g></g><g fill="#000000" fill-opacity="1"><g transform="translate(42.418198, 66.266326)"><g><path d="M 3.71875 -4.046875 C 3.71875 -3.972656 3.679688 -3.9375 3.609375 -3.9375 L 1.40625 -3.9375 C 1.382812 -3.9375 1.375 -3.921875 1.375 -3.890625 L 1.375 -2.859375 C 1.375 -2.828125 1.382812 -2.8125 1.40625 -2.8125 L 2.828125 -2.8125 C 2.910156 -2.8125 2.953125 -2.773438 2.953125 -2.703125 L 2.953125 -2.109375 C 2.953125 -2.023438 2.910156 -1.984375 2.828125 -1.984375 L 1.40625 -1.984375 C 1.382812 -1.984375 1.375 -1.972656 1.375 -1.953125 L 1.375 -0.859375 C 1.375 -0.835938 1.382812 -0.828125 1.40625 -0.828125 L 3.609375 -0.828125 C 3.679688 -0.828125 3.71875 -0.785156 3.71875 -0.703125 L 3.71875 -0.109375 C 3.71875 -0.0351562 3.679688 0 3.609375 0 L 0.53125 0 C 0.457031 0 0.421875 -0.0351562 0.421875 -0.109375 L 0.421875 -4.640625 C 0.421875 -4.710938 0.457031 -4.75 0.53125 -4.75 L 3.609375 -4.75 C 3.679688 -4.75 3.71875 -4.710938 3.71875 -4.640625 Z M 3.71875 -4.046875 "/></g></g></g><g fill="#000000" fill-opacity="1"><g transform="translate(46.271517, 66.266326)"><g><path d="M 2.375 -4.765625 C 2.675781 -4.765625 2.9375 -4.703125 3.15625 -4.578125 C 3.382812 -4.453125 3.5625 -4.273438 3.6875 -4.046875 C 3.8125 -3.828125 3.875 -3.578125 3.875 -3.296875 C 3.875 -3.003906 3.8125 -2.75 3.6875 -2.53125 C 3.5625 -2.3125 3.378906 -2.140625 3.140625 -2.015625 C 2.910156 -1.898438 2.644531 -1.84375 2.34375 -1.84375 L 1.375 -1.84375 C 1.351562 -1.84375 1.34375 -1.832031 1.34375 -1.8125 L 1.34375 -0.109375 C 1.34375 -0.0351562 1.300781 0 1.21875 0 L 0.5 0 C 0.414062 0 0.375 -0.0351562 0.375 -0.109375 L 0.375 -4.65625 C 0.375 -4.726562 0.414062 -4.765625 0.5 -4.765625 Z M 2.234375 -2.609375 C 2.441406 -2.609375 2.609375 -2.671875 2.734375 -2.796875 C 2.859375 -2.921875 2.921875 -3.078125 2.921875 -3.265625 C 2.921875 -3.460938 2.859375 -3.625 2.734375 -3.75 C 2.609375 -3.875 2.441406 -3.9375 2.234375 -3.9375 L 1.375 -3.9375 C 1.351562 -3.9375 1.34375 -3.921875 1.34375 -3.890625 L 1.34375 -2.65625 C 1.34375 -2.625 1.351562 -2.609375 1.375 -2.609375 Z M 2.234375 -2.609375 "/></g></g></g><g fill="#000000" fill-opacity="1"><g transform="translate(50.213178, 66.266326)"><g/></g></g><g fill="#000000" fill-opacity="1"><g transform="translate(51.456844, 66.266326)"><g><path d="M 2.03125 -0.75 C 2.332031 -0.769531 2.5625 -0.875 2.71875 -1.0625 C 2.75 -1.09375 2.78125 -1.109375 2.8125 -1.109375 C 2.84375 -1.109375 2.867188 -1.097656 2.890625 -1.078125 L 3.28125 -0.703125 C 3.300781 -0.679688 3.3125 -0.65625 3.3125 -0.625 C 3.3125 -0.59375 3.304688 -0.566406 3.296875 -0.546875 C 3.140625 -0.359375 2.941406 -0.210938 2.703125 -0.109375 C 2.472656 -0.00390625 2.222656 0.046875 1.953125 0.046875 C 1.535156 0.046875 1.1875 -0.0546875 0.90625 -0.265625 C 0.632812 -0.472656 0.453125 -0.765625 0.359375 -1.140625 C 0.304688 -1.335938 0.28125 -1.550781 0.28125 -1.78125 C 0.28125 -2.039062 0.304688 -2.257812 0.359375 -2.4375 C 0.441406 -2.769531 0.617188 -3.039062 0.890625 -3.25 C 1.171875 -3.457031 1.5 -3.5625 1.875 -3.5625 C 2.320312 -3.5625 2.675781 -3.425781 2.9375 -3.15625 C 3.195312 -2.894531 3.363281 -2.523438 3.4375 -2.046875 C 3.457031 -1.898438 3.472656 -1.738281 3.484375 -1.5625 C 3.484375 -1.476562 3.441406 -1.4375 3.359375 -1.4375 L 1.28125 -1.4375 C 1.25 -1.4375 1.234375 -1.425781 1.234375 -1.40625 C 1.242188 -1.300781 1.257812 -1.226562 1.28125 -1.1875 C 1.332031 -1.050781 1.421875 -0.941406 1.546875 -0.859375 C 1.679688 -0.785156 1.84375 -0.75 2.03125 -0.75 Z M 1.859375 -2.71875 C 1.710938 -2.71875 1.59375 -2.679688 1.5 -2.609375 C 1.40625 -2.546875 1.335938 -2.453125 1.296875 -2.328125 C 1.273438 -2.242188 1.257812 -2.1875 1.25 -2.15625 C 1.25 -2.125 1.265625 -2.109375 1.296875 -2.109375 L 2.453125 -2.109375 C 2.472656 -2.109375 2.484375 -2.117188 2.484375 -2.140625 C 2.484375 -2.191406 2.472656 -2.242188 2.453125 -2.296875 C 2.410156 -2.429688 2.335938 -2.535156 2.234375 -2.609375 C 2.140625 -2.679688 2.015625 -2.71875 1.859375 -2.71875 Z M 1.859375 -2.71875 "/></g></g></g><g fill="#000000" fill-opacity="1"><g transform="translate(55.058705, 66.266326)"><g><path d="M 2.171875 -3.546875 C 2.535156 -3.546875 2.828125 -3.429688 3.046875 -3.203125 C 3.273438 -2.984375 3.390625 -2.6875 3.390625 -2.3125 L 3.390625 -0.109375 C 3.390625 -0.0351562 3.347656 0 3.265625 0 L 2.546875 0 C 2.460938 0 2.421875 -0.0351562 2.421875 -0.109375 L 2.421875 -2.109375 C 2.421875 -2.296875 2.367188 -2.441406 2.265625 -2.546875 C 2.171875 -2.660156 2.039062 -2.71875 1.875 -2.71875 C 1.707031 -2.71875 1.570312 -2.660156 1.46875 -2.546875 C 1.363281 -2.441406 1.3125 -2.296875 1.3125 -2.109375 L 1.3125 -0.109375 C 1.3125 -0.0351562 1.273438 0 1.203125 0 L 0.46875 0 C 0.394531 0 0.359375 -0.0351562 0.359375 -0.109375 L 0.359375 -3.375 C 0.359375 -3.457031 0.394531 -3.5 0.46875 -3.5 L 1.203125 -3.5 C 1.273438 -3.5 1.3125 -3.457031 1.3125 -3.375 L 1.3125 -3.1875 C 1.3125 -3.164062 1.316406 -3.148438 1.328125 -3.140625 C 1.335938 -3.140625 1.347656 -3.148438 1.359375 -3.171875 C 1.535156 -3.421875 1.804688 -3.546875 2.171875 -3.546875 Z M 2.171875 -3.546875 "/></g></g></g><g fill="#000000" fill-opacity="1"><g transform="translate(58.660567, 66.266326)"><g><path d="M 2.484375 -3.375 C 2.484375 -3.457031 2.523438 -3.5 2.609375 -3.5 L 3.328125 -3.5 C 3.410156 -3.5 3.453125 -3.457031 3.453125 -3.375 L 3.453125 -0.3125 C 3.453125 0.28125 3.28125 0.703125 2.9375 0.953125 C 2.59375 1.210938 2.15625 1.34375 1.625 1.34375 C 1.476562 1.34375 1.304688 1.332031 1.109375 1.3125 C 1.046875 1.300781 1.015625 1.257812 1.015625 1.1875 L 1.046875 0.546875 C 1.046875 0.515625 1.054688 0.488281 1.078125 0.46875 C 1.097656 0.445312 1.128906 0.441406 1.171875 0.453125 C 1.335938 0.472656 1.472656 0.484375 1.578125 0.484375 C 1.867188 0.484375 2.09375 0.421875 2.25 0.296875 C 2.40625 0.171875 2.484375 -0.03125 2.484375 -0.3125 C 2.484375 -0.332031 2.476562 -0.34375 2.46875 -0.34375 C 2.457031 -0.34375 2.445312 -0.335938 2.4375 -0.328125 C 2.269531 -0.140625 2.019531 -0.046875 1.6875 -0.046875 C 1.394531 -0.046875 1.125 -0.117188 0.875 -0.265625 C 0.632812 -0.410156 0.460938 -0.640625 0.359375 -0.953125 C 0.285156 -1.160156 0.25 -1.429688 0.25 -1.765625 C 0.25 -2.117188 0.289062 -2.40625 0.375 -2.625 C 0.46875 -2.90625 0.628906 -3.128906 0.859375 -3.296875 C 1.085938 -3.460938 1.347656 -3.546875 1.640625 -3.546875 C 1.984375 -3.546875 2.25 -3.441406 2.4375 -3.234375 C 2.445312 -3.222656 2.457031 -3.21875 2.46875 -3.21875 C 2.476562 -3.226562 2.484375 -3.242188 2.484375 -3.265625 Z M 2.4375 -1.21875 C 2.46875 -1.351562 2.484375 -1.539062 2.484375 -1.78125 C 2.484375 -1.914062 2.476562 -2.019531 2.46875 -2.09375 C 2.457031 -2.175781 2.441406 -2.25 2.421875 -2.3125 C 2.378906 -2.4375 2.3125 -2.535156 2.21875 -2.609375 C 2.125 -2.679688 2.007812 -2.71875 1.875 -2.71875 C 1.738281 -2.71875 1.617188 -2.679688 1.515625 -2.609375 C 1.421875 -2.535156 1.351562 -2.4375 1.3125 -2.3125 C 1.25 -2.175781 1.21875 -1.992188 1.21875 -1.765625 C 1.21875 -1.515625 1.242188 -1.332031 1.296875 -1.21875 C 1.335938 -1.101562 1.410156 -1.003906 1.515625 -0.921875 C 1.617188 -0.847656 1.738281 -0.8125 1.875 -0.8125 C 2.019531 -0.8125 2.140625 -0.847656 2.234375 -0.921875 C 2.328125 -1.003906 2.394531 -1.101562 2.4375 -1.21875 Z M 2.4375 -1.21875 "/></g></g></g><g fill="#000000" fill-opacity="1"><g transform="translate(62.323592, 66.266326)"><g><path d="M 0.890625 -3.828125 C 0.710938 -3.828125 0.566406 -3.878906 0.453125 -3.984375 C 0.347656 -4.085938 0.296875 -4.222656 0.296875 -4.390625 C 0.296875 -4.566406 0.347656 -4.707031 0.453125 -4.8125 C 0.566406 -4.914062 0.710938 -4.96875 0.890625 -4.96875 C 1.066406 -4.96875 1.207031 -4.914062 1.3125 -4.8125 C 1.414062 -4.707031 1.46875 -4.566406 1.46875 -4.390625 C 1.46875 -4.222656 1.414062 -4.085938 1.3125 -3.984375 C 1.207031 -3.878906 1.066406 -3.828125 0.890625 -3.828125 Z M 0.515625 0 C 0.441406 0 0.40625 -0.0351562 0.40625 -0.109375 L 0.40625 -3.375 C 0.40625 -3.457031 0.441406 -3.5 0.515625 -3.5 L 1.25 -3.5 C 1.320312 -3.5 1.359375 -3.457031 1.359375 -3.375 L 1.359375 -0.109375 C 1.359375 -0.0351562 1.320312 0 1.25 0 Z M 0.515625 0 "/></g></g></g><g fill="#000000" fill-opacity="1"><g transform="translate(63.975015, 66.266326)"><g><path d="M 2.171875 -3.546875 C 2.535156 -3.546875 2.828125 -3.429688 3.046875 -3.203125 C 3.273438 -2.984375 3.390625 -2.6875 3.390625 -2.3125 L 3.390625 -0.109375 C 3.390625 -0.0351562 3.347656 0 3.265625 0 L 2.546875 0 C 2.460938 0 2.421875 -0.0351562 2.421875 -0.109375 L 2.421875 -2.109375 C 2.421875 -2.296875 2.367188 -2.441406 2.265625 -2.546875 C 2.171875 -2.660156 2.039062 -2.71875 1.875 -2.71875 C 1.707031 -2.71875 1.570312 -2.660156 1.46875 -2.546875 C 1.363281 -2.441406 1.3125 -2.296875 1.3125 -2.109375 L 1.3125 -0.109375 C 1.3125 -0.0351562 1.273438 0 1.203125 0 L 0.46875 0 C 0.394531 0 0.359375 -0.0351562 0.359375 -0.109375 L 0.359375 -3.375 C 0.359375 -3.457031 0.394531 -3.5 0.46875 -3.5 L 1.203125 -3.5 C 1.273438 -3.5 1.3125 -3.457031 1.3125 -3.375 L 1.3125 -3.1875 C 1.3125 -3.164062 1.316406 -3.148438 1.328125 -3.140625 C 1.335938 -3.140625 1.347656 -3.148438 1.359375 -3.171875 C 1.535156 -3.421875 1.804688 -3.546875 2.171875 -3.546875 Z M 2.171875 -3.546875 "/></g></g></g><g fill="#000000" fill-opacity="1"><g transform="translate(67.576876, 66.266326)"><g><path d="M 2.03125 -0.75 C 2.332031 -0.769531 2.5625 -0.875 2.71875 -1.0625 C 2.75 -1.09375 2.78125 -1.109375 2.8125 -1.109375 C 2.84375 -1.109375 2.867188 -1.097656 2.890625 -1.078125 L 3.28125 -0.703125 C 3.300781 -0.679688 3.3125 -0.65625 3.3125 -0.625 C 3.3125 -0.59375 3.304688 -0.566406 3.296875 -0.546875 C 3.140625 -0.359375 2.941406 -0.210938 2.703125 -0.109375 C 2.472656 -0.00390625 2.222656 0.046875 1.953125 0.046875 C 1.535156 0.046875 1.1875 -0.0546875 0.90625 -0.265625 C 0.632812 -0.472656 0.453125 -0.765625 0.359375 -1.140625 C 0.304688 -1.335938 0.28125 -1.550781 0.28125 -1.78125 C 0.28125 -2.039062 0.304688 -2.257812 0.359375 -2.4375 C 0.441406 -2.769531 0.617188 -3.039062 0.890625 -3.25 C 1.171875 -3.457031 1.5 -3.5625 1.875 -3.5625 C 2.320312 -3.5625 2.675781 -3.425781 2.9375 -3.15625 C 3.195312 -2.894531 3.363281 -2.523438 3.4375 -2.046875 C 3.457031 -1.898438 3.472656 -1.738281 3.484375 -1.5625 C 3.484375 -1.476562 3.441406 -1.4375 3.359375 -1.4375 L 1.28125 -1.4375 C 1.25 -1.4375 1.234375 -1.425781 1.234375 -1.40625 C 1.242188 -1.300781 1.257812 -1.226562 1.28125 -1.1875 C 1.332031 -1.050781 1.421875 -0.941406 1.546875 -0.859375 C 1.679688 -0.785156 1.84375 -0.75 2.03125 -0.75 Z M 1.859375 -2.71875 C 1.710938 -2.71875 1.59375 -2.679688 1.5 -2.609375 C 1.40625 -2.546875 1.335938 -2.453125 1.296875 -2.328125 C 1.273438 -2.242188 1.257812 -2.1875 1.25 -2.15625 C 1.25 -2.125 1.265625 -2.109375 1.296875 -2.109375 L 2.453125 -2.109375 C 2.472656 -2.109375 2.484375 -2.117188 2.484375 -2.140625 C 2.484375 -2.191406 2.472656 -2.242188 2.453125 -2.296875 C 2.410156 -2.429688 2.335938 -2.535156 2.234375 -2.609375 C 2.140625 -2.679688 2.015625 -2.71875 1.859375 -2.71875 Z M 1.859375 -2.71875 "/></g></g></g><g clip-path="url(#af472c356f)"><path fill="#ff914d" d="M 53.902344 19.976562 C 53.902344 23.574219 46.390625 26.609375 37.5 26.609375 C 28.609375 26.609375 21.101562 23.574219 21.101562 19.976562 L 21.101562 15.382812 C 23.421875 18.359375 29.796875 20.449219 37.5 20.449219 C 45.203125 20.449219 51.578125 18.363281 53.902344 15.382812 Z M 53.902344 27.96875 C 53.902344 31.566406 46.390625 34.601562 37.5 34.601562 C 28.609375 34.601562 21.101562 31.566406 21.101562 27.96875 L 21.101562 22.488281 C 23.421875 25.464844 29.796875 27.554688 37.5 27.554688 C 45.203125 27.554688 51.578125 25.464844 53.902344 22.488281 Z M 53.902344 35.824219 C 53.902344 39.417969 46.390625 42.457031 37.5 42.457031 C 28.609375 42.457031 21.101562 39.417969 21.101562 35.824219 L 21.101562 30.480469 C 23.421875 33.457031 29.796875 35.546875 37.5 35.546875 C 45.203125 35.546875 51.578125 33.457031 53.902344 30.480469 Z M 53.902344 43.964844 C 53.902344 47.558594 46.390625 50.597656 37.5 50.597656 C 28.609375 50.597656 21.101562 47.558594 21.101562 43.964844 L 21.101562 38.335938 C 23.421875 41.3125 29.796875 43.398438 37.5 43.398438 C 45.203125 43.398438 51.578125 41.3125 53.902344 38.335938 Z M 37.5 6.242188 C 46.382812 6.242188 53.890625 9.273438 53.902344 12.867188 L 53.902344 12.882812 C 53.890625 16.472656 46.382812 19.503906 37.5 19.503906 C 28.609375 19.503906 21.101562 16.46875 21.101562 12.875 C 21.101562 9.28125 28.609375 6.242188 37.5 6.242188 Z M 54.84375 12.875 C 54.84375 12.871094 54.84375 12.867188 54.84375 12.867188 L 54.84375 11.980469 C 54.84375 11.804688 54.742188 11.652344 54.597656 11.574219 C 53.222656 7.96875 46.207031 5.296875 37.5 5.296875 C 27.777344 5.296875 20.15625 8.625 20.15625 12.875 C 20.15625 12.945312 20.164062 13.015625 20.167969 13.085938 C 20.164062 13.105469 20.15625 13.125 20.15625 13.148438 L 20.15625 43.964844 C 20.15625 48.214844 27.773438 51.539062 37.5 51.539062 C 47.226562 51.539062 54.84375 48.214844 54.84375 43.964844 L 54.84375 12.882812 C 54.84375 12.878906 54.84375 12.878906 54.84375 12.875 " fill-opacity="1" fill-rule="nonzero"/></g></svg>