<svg id="Layer_1" data-name="Layer 1" xmlns="http://www.w3.org/2000/svg" xmlns:xlink="http://www.w3.org/1999/xlink" viewBox="0 0 200 200"><defs><style>.cls-1{opacity:0.3;fill:url(#linear-gradient);}.cls-2{fill:#fff;}.cls-3{fill:none;}.cls-4{fill:url(#linear-gradient-2);}.cls-5{fill:url(#linear-gradient-3);}.cls-6{fill:url(#linear-gradient-4);}.cls-7{fill:url(#linear-gradient-5);}.cls-8{fill:url(#linear-gradient-6);}</style><linearGradient id="linear-gradient" x1="93.8" y1="194.09" x2="93.8" y2="11.39" gradientUnits="userSpaceOnUse"><stop offset="0" stop-color="#5f1499"/><stop offset="1" stop-color="#00b9ff"/></linearGradient><linearGradient id="linear-gradient-2" x1="48.88" y1="194.09" x2="48.88" y2="11.39" xlink:href="#linear-gradient"/><linearGradient id="linear-gradient-3" x1="154.83" y1="194.09" x2="154.83" y2="11.39" xlink:href="#linear-gradient"/><linearGradient id="linear-gradient-4" x1="83.1" y1="194.09" x2="83.1" y2="11.39" xlink:href="#linear-gradient"/><linearGradient id="linear-gradient-5" x1="119.49" y1="194.09" x2="119.49" y2="11.39" xlink:href="#linear-gradient"/><linearGradient id="linear-gradient-6" x1="158.43" y1="194.09" x2="158.43" y2="11.39" xlink:href="#linear-gradient"/></defs><circle class="cls-1" cx="93.8" cy="101.63" r="52.71"/><path class="cls-2" d="M97.18,27.12A4.2,4.2,0,1,0,93,22.93,4.2,4.2,0,0,0,97.18,27.12Z"/><path class="cls-2" d="M64.42,44.1a4.2,4.2,0,1,0,4.2-4.2A4.21,4.21,0,0,0,64.42,44.1Z"/><path class="cls-2" d="M25.3,63.25a4.2,4.2,0,1,0-4.2-4.2A4.2,4.2,0,0,0,25.3,63.25Z"/><path class="cls-3" d="M124.47,85.09a16.42,16.42,0,0,1-4.12,9.47,63.78,63.78,0,0,0,13.13,4.3,29.52,29.52,0,0,0,4.19-13.77Z"/><path class="cls-3" d="M115.63,72.71l6.78-11.34c-4.57-2.44.88-2.77-12.41-3.44V71.14A16.21,16.21,0,0,1,115.63,72.71Z"/><path class="cls-3" d="M122,87.59a13.52,13.52,0,0,0-24.83-7.41,67.06,67.06,0,0,0,20.8,17A13.53,13.53,0,0,0,122,87.59Z"/><path class="cls-3" d="M127.48,82.09h13.21a29.7,29.7,0,0,0-13.17-23.18l-6.78,11.34A16.51,16.51,0,0,1,127.48,82.09Z"/><path class="cls-3" d="M145.11,82c0-19.31-16.58-35-37-35a38,38,0,0,0-23.78,8.24c.33.87.9,2.32,1.75,4.16a32.65,32.65,0,0,1,38.55-3.88l.12.06.09.06a32.67,32.67,0,0,1,11.74,43.87c1.41.23,2.87.42,4.35.57.51-1.36,1-2.63,1.48-3.73A39.75,39.75,0,0,0,145.11,82Z"/><path class="cls-3" d="M133.27,138.51h1a141,141,0,0,1,2.23-23.07,89.12,89.12,0,0,1,3.46-12.5,67.68,67.68,0,0,1-22.54-6.45,1.61,1.61,0,0,1-.58-.3A69.7,69.7,0,0,1,94.05,77.63a1.44,1.44,0,0,1-.6-.74,82.53,82.53,0,0,1-9-14.15,1.3,1.3,0,0,1-.22-.44c-1-2.07-1.76-3.79-2.26-5A34,34,0,0,0,71.18,82c0,8.34-1,14-3.43,19.46-.93,2.1-2,4.44-3.34,7a1.84,1.84,0,0,0,1.64,2.68h2.31a2.81,2.81,0,0,1,2.82,2.81v5.73a2.82,2.82,0,0,1,2.63,2.81v7A4.18,4.18,0,0,0,78,133.63H91.41a7.65,7.65,0,0,1,7.64,7.63V148h6.65a1.5,1.5,0,0,1,1.5,1.5v5.26h5.1v-21a1.5,1.5,0,0,1,1.5-1.5h11.37a1.5,1.5,0,0,1,1.5,1.5v21h5.1V140A1.5,1.5,0,0,1,133.27,138.51Z"/><path class="cls-3" d="M110,71.14V57.93a29.4,29.4,0,0,0-19,8.23,79.74,79.74,0,0,0,7.28,11.56A16.56,16.56,0,0,1,110,71.14Z"/><rect class="cls-3" x="95.82" y="151.02" width="8.38" height="10.69"/><rect class="cls-3" x="115.3" y="135.27" width="8.38" height="26.44"/><rect class="cls-3" x="134.77" y="141.51" width="8.38" height="20.19"/><rect class="cls-3" x="154.24" y="124.02" width="8.38" height="37.69"/><path class="cls-4" d="M60,85.49a1.5,1.5,0,0,0-1.5-1.5H43.31V77.66a4,4,0,1,0-3,0v7.83a1.5,1.5,0,0,0,1.5,1.5H58.47A1.5,1.5,0,0,0,60,85.49Z"/><path class="cls-5" d="M160.53,102V56.68a1.5,1.5,0,0,0-1.5-1.5H148.12a1.5,1.5,0,0,0,0,3h9.41V102a4,4,0,1,0,3,0Z"/><path class="cls-6" d="M25.3,66.25a7.2,7.2,0,0,0,7-5.7h8.91a7.61,7.61,0,0,0,7.5-6.29l3.7-21.07A4.62,4.62,0,0,1,61.14,32l3.11,6.42a7.19,7.19,0,0,0,4.37,12.9,7,7,0,0,0,1.78-.23l4.65,9.6A36.53,36.53,0,0,0,68.18,82c0,7.9-.92,13.19-3.17,18.25-.91,2-2,4.35-3.28,6.83a4.85,4.85,0,0,0,4.32,7h2.13v5.72a2.82,2.82,0,0,0,2.63,2.81v6.86A7.18,7.18,0,0,0,78,136.63H91.41a4.64,4.64,0,0,1,4.64,4.63V148H94.32a1.5,1.5,0,0,0-1.5,1.5v13.69a1.5,1.5,0,0,0,1.5,1.5H105.7a1.5,1.5,0,0,0,1.5-1.5V149.52a1.5,1.5,0,0,0-1.5-1.5H99.05v-6.76a7.65,7.65,0,0,0-7.64-7.63H78a4.18,4.18,0,0,1-4.18-4.17v-7a2.82,2.82,0,0,0-2.63-2.81v-5.73a2.81,2.81,0,0,0-2.82-2.81H66.05a1.84,1.84,0,0,1-1.64-2.68c1.29-2.53,2.41-4.87,3.34-7C70.19,95.94,71.18,90.3,71.18,82A34,34,0,0,1,82,57.27c.5,1.24,1.24,3,2.26,5a1.3,1.3,0,0,0,.22.44,82.53,82.53,0,0,0,9,14.15,1.44,1.44,0,0,0,.6.74,69.7,69.7,0,0,0,22.76,18.56,1.61,1.61,0,0,0,.58.3,67.68,67.68,0,0,0,22.54,6.45,89.12,89.12,0,0,0-3.46,12.5,141,141,0,0,0-2.23,23.07h-1a1.5,1.5,0,0,0-1.5,1.5v23.2a1.5,1.5,0,0,0,1.5,1.5h11.38a1.5,1.5,0,0,0,1.5-1.5V140a1.5,1.5,0,0,0-1.5-1.5h-7.41A138.8,138.8,0,0,1,139.42,116a103.8,103.8,0,0,1,5.79-18.49,42.36,42.36,0,0,0,2.9-15.5c0-21-17.93-38-40-38A41.52,41.52,0,0,0,92.5,47l4.37-16.87h.31A7.19,7.19,0,0,0,99,16l0,0h0a6.93,6.93,0,0,0-1.77-.23A7.19,7.19,0,0,0,94,29.36L89,48.61a40.52,40.52,0,0,0-7.15,4.78,1.3,1.3,0,0,0-.31.26A38.81,38.81,0,0,0,77.11,58l-4-8.3A7.19,7.19,0,0,0,68.62,36.9a7,7,0,0,0-1.66.21l-3.12-6.44a7.62,7.62,0,0,0-14.35,2L45.78,53.74a4.6,4.6,0,0,1-4.54,3.81H32.33a7.19,7.19,0,1,0-7,8.7ZM97.18,18.73a4.2,4.2,0,1,1-4.2,4.2A4.2,4.2,0,0,1,97.18,18.73Zm7,143H95.82V151h8.38ZM87.5,62.16a29.38,29.38,0,0,1,19-8.23V67.14a16.56,16.56,0,0,0-11.76,6.58A79.74,79.74,0,0,1,87.5,62.16Zm34.44-4.79-6.77,11.34a16.27,16.27,0,0,0-5.63-1.57V53.93A29.54,29.54,0,0,1,121.94,57.37Zm15.75,24.72H124.48a16.51,16.51,0,0,0-6.74-11.84l6.78-11.34A29.7,29.7,0,0,1,137.69,82.09ZM120.35,94.56a16.42,16.42,0,0,0,4.12-9.47h13.2a29.52,29.52,0,0,1-4.19,13.77A63.78,63.78,0,0,1,120.35,94.56ZM96.73,76.18a13.51,13.51,0,1,1,20.8,17A67.06,67.06,0,0,1,96.73,76.18Zm39.89,23.27a32.67,32.67,0,0,0-11.74-43.87l-.09-.06-.12-.06a32.65,32.65,0,0,0-38.55,3.88c-.85-1.84-1.42-3.29-1.75-4.16a38,38,0,0,1,23.78-8.24c20.38,0,37,15.71,37,35a39.75,39.75,0,0,1-2.66,14.33c-.47,1.1-1,2.37-1.48,3.73C139.49,99.87,138,99.68,136.62,99.45Zm6.53,62.26h-8.38v-20.2h8.38ZM72.82,44.1a4.2,4.2,0,1,1-4.2-4.2A4.21,4.21,0,0,1,72.82,44.1ZM25.3,54.85a4.2,4.2,0,1,1-4.2,4.2A4.2,4.2,0,0,1,25.3,54.85Z"/><path class="cls-7" d="M125.17,132.27H113.8a1.5,1.5,0,0,0-1.5,1.5v29.44a1.5,1.5,0,0,0,1.5,1.5h11.37a1.5,1.5,0,0,0,1.5-1.5V133.77A1.5,1.5,0,0,0,125.17,132.27Zm-9.87,29.44V135.27h8.37v26.44Z"/><path class="cls-8" d="M151.24,122.52v40.69a1.5,1.5,0,0,0,1.5,1.5h11.38a1.5,1.5,0,0,0,1.5-1.5V122.52a1.5,1.5,0,0,0-1.5-1.5H152.74A1.5,1.5,0,0,0,151.24,122.52Zm3,1.5h8.38v37.69h-8.38Z"/></svg>