<svg width="114" height="32" viewBox="0 0 114 32" xmlns="http://www.w3.org/2000/svg"><g fill="none" fill-rule="evenodd"><path d="M43.416 13.713c.451 1.037.676 2.23.676 3.582 0 1.194-.202 2.32-.608 3.38-.563 1.441-1.476 2.568-2.737 3.379-1.262.81-2.76 1.216-4.494 1.216-1.713 0-3.216-.428-4.512-1.284a7.144 7.144 0 01-2.788-3.48c-.27-.699-.45-1.589-.54-2.67 0-.383.191-.574.574-.574h3.65c.36 0 .563.191.608.574a5.13 5.13 0 00.338 1.487c.203.586.535 1.042.997 1.369.462.326 1.008.49 1.639.49 1.261 0 2.129-.552 2.602-1.656.315-.676.473-1.465.473-2.366 0-.968-.18-1.836-.54-2.602-.496-1.059-1.353-1.588-2.569-1.588-.406 0-.924.214-1.554.642a.797.797 0 01-.338.101.608.608 0 01-.473-.236l-1.791-2.4a.629.629 0 01-.136-.405c0-.135.068-.27.203-.405l5.272-4.596c.067-.045.09-.096.067-.152-.022-.056-.079-.085-.169-.085H29.46c-.383 0-.574-.191-.574-.574V1.92c0-.383.191-.574.574-.574h13.754c.383 0 .574.191.574.574v3.312c0 .27-.101.507-.304.71l-4.427 4.02c-.135.136-.09.226.135.27 1.96.384 3.368 1.544 4.224 3.481zm11.43-6.116c.383 0 .574.192.574.575v2.872c0 .383-.191.574-.574.574H51.77c-.135 0-.203.068-.203.203v12.605c0 .383-.191.574-.574.574h-3.616c-.383 0-.575-.191-.575-.574V11.82c0-.135-.067-.203-.202-.203H44.81c-.383 0-.575-.191-.575-.574V8.172c0-.383.192-.575.575-.575h1.79c.136 0 .203-.067.203-.203v-.71c0-1.396.214-2.483.642-3.26.428-.777 1.121-1.33 2.079-1.656.957-.327 2.28-.467 3.97-.422h1.115c.383 0 .575.191.575.574v2.4c0 .382-.192.574-.575.574h-.946c-.788.022-1.335.186-1.639.49-.304.304-.456.861-.456 1.672v.338c0 .136.068.203.203.203h3.075zm7.813 17.673c-1.914 0-3.548-.495-4.9-1.487-1.351-.99-2.275-2.342-2.77-4.055-.316-1.058-.473-2.207-.473-3.446 0-1.375.169-2.569.506-3.582.519-1.667 1.448-2.974 2.788-3.92 1.34-.946 2.968-1.42 4.883-1.42 1.848 0 3.43.474 4.748 1.42s2.236 2.241 2.754 3.886c.338 1.036.507 2.219.507 3.548 0 1.172-.146 2.31-.44 3.413-.517 1.757-1.447 3.137-2.787 4.14-1.34 1.002-2.946 1.503-4.816 1.503zm0-4.088c.721 0 1.34-.226 1.859-.676.518-.45.89-1.07 1.115-1.859.18-.608.27-1.397.27-2.365 0-.947-.09-1.746-.27-2.4-.225-.766-.597-1.363-1.115-1.79-.518-.429-1.16-.643-1.926-.643-.744 0-1.374.214-1.892.642-.519.428-.89 1.025-1.116 1.791-.18.654-.27 1.453-.27 2.4 0 .923.09 1.712.27 2.365.226.789.603 1.408 1.132 1.859.53.45 1.178.676 1.943.676zM80.24 7.394c.72 0 1.318.136 1.791.406.27.135.372.372.304.71l-.642 3.548c-.022.202-.084.326-.186.371-.101.045-.265.045-.49 0a4.076 4.076 0 00-.98-.135 7.14 7.14 0 00-.777.068c-.811.067-1.498.366-2.061.895-.564.53-.845 1.234-.845 2.112v9.057c0 .383-.192.574-.575.574h-3.615c-.383 0-.575-.191-.575-.574V8.206c0-.384.192-.575.575-.575h3.615c.383 0 .575.191.575.574v1.048c0 .09.022.146.067.169.046.022.102 0 .17-.068.9-1.306 2.117-1.96 3.649-1.96zm11.936.811c0-.383.192-.574.575-.574h3.615c.383 0 .575.191.575.574v15.24c0 2.952-.845 5.058-2.534 6.32-1.69 1.261-3.864 1.892-6.522 1.892a21.68 21.68 0 01-2.535-.169c-.338-.022-.507-.225-.507-.608l.136-3.143c0-.18.061-.32.185-.422.124-.102.276-.13.457-.085.833.113 1.52.17 2.06.17 1.443 0 2.552-.316 3.33-.947.777-.63 1.165-1.644 1.165-3.041 0-.068-.022-.107-.067-.118-.045-.012-.102.016-.17.084-.833.901-2.072 1.352-3.716 1.352-1.465 0-2.81-.355-4.039-1.065-1.227-.71-2.1-1.853-2.618-3.43-.338-1.036-.507-2.376-.507-4.02 0-1.758.202-3.189.608-4.293.473-1.374 1.273-2.478 2.4-3.311 1.126-.834 2.432-1.25 3.919-1.25 1.69 0 3.008.506 3.954 1.52.067.068.124.09.169.068.045-.023.067-.079.067-.17v-.574zm-.27 10.746c.18-.676.27-1.6.27-2.77 0-.7-.022-1.24-.067-1.623a5.41 5.41 0 00-.237-1.081 3.044 3.044 0 00-1.014-1.47c-.473-.372-1.058-.558-1.757-.558-.676 0-1.25.186-1.723.558a3.265 3.265 0 00-1.048 1.47c-.315.676-.473 1.588-.473 2.737 0 1.262.135 2.163.406 2.703a2.923 2.923 0 001.064 1.47c.507.372 1.11.558 1.808.558.72 0 1.318-.186 1.79-.558.474-.371.8-.85.98-1.436zm14.64 2.298c1.486-.067 2.624-.586 3.413-1.554.135-.158.281-.237.439-.237.135 0 .259.056.372.17l1.926 1.858c.135.135.202.27.202.405a.629.629 0 01-.135.406c-.743.923-1.695 1.65-2.855 2.18-1.16.529-2.428.793-3.802.793-2.072 0-3.79-.53-5.153-1.588-1.363-1.059-2.281-2.512-2.754-4.36a11.895 11.895 0 01-.406-3.142c0-1.306.124-2.41.372-3.311.45-1.667 1.357-3.008 2.72-4.022 1.363-1.013 2.98-1.52 4.85-1.52 2.207 0 3.959.653 5.254 1.96 1.296 1.306 2.135 3.142 2.518 5.508.09.743.157 1.566.202 2.467 0 .383-.191.574-.574.574H102.76c-.135 0-.203.068-.203.203.068.473.146.822.237 1.047.225.699.67 1.234 1.334 1.606.665.371 1.47.557 2.417.557zm-.88-9.8c-.72 0-1.323.175-1.807.524-.484.35-.817.84-.997 1.47-.112.428-.18.71-.203.845-.022.135.034.203.17.203h5.744c.113 0 .169-.045.169-.135 0-.248-.045-.507-.135-.778-.203-.653-.552-1.171-1.048-1.554-.495-.383-1.126-.575-1.892-.575z" fill="#FFF" fill-rule="nonzero"/><g transform="translate(0 .6)"><rect fill="#F16900" width="6.984" height="6.984" rx="1.552"/><rect fill="#F16900" x="8.536" width="6.984" height="6.984" rx="1.552"/><rect fill="#004A62" y="8.536" width="6.984" height="6.984" rx="1.552"/><rect fill="#327DA2" y="17.072" width="6.984" height="6.984" rx="1.552"/><rect fill="#004A62" x="8.536" y="8.536" width="6.984" height="6.984" rx="1.552"/><rect fill="#F16900" x="17.072" width="6.984" height="6.984" rx="1.552"/></g></g></svg>