<svg xmlns="http://www.w3.org/2000/svg" xmlns:xlink="http://www.w3.org/1999/xlink" width="150" zoomAndPan="magnify" viewBox="0 0 112.5 112.499997" height="150" preserveAspectRatio="xMidYMid meet" version="1.0"><defs><g/><clipPath id="ba1ba9608c"><path d="M 35.042969 49.597656 L 42.550781 49.597656 L 42.550781 57.109375 L 35.042969 57.109375 Z M 35.042969 49.597656 " clip-rule="nonzero"/></clipPath><clipPath id="d1cd0e2c0f"><path d="M 38.796875 49.597656 C 36.722656 49.597656 35.042969 51.277344 35.042969 53.351562 C 35.042969 55.425781 36.722656 57.109375 38.796875 57.109375 C 40.871094 57.109375 42.550781 55.425781 42.550781 53.351562 C 42.550781 51.277344 40.871094 49.597656 38.796875 49.597656 Z M 38.796875 49.597656 " clip-rule="nonzero"/></clipPath><clipPath id="949b8ff7d1"><path d="M 36.226562 50.78125 L 41.371094 50.78125 L 41.371094 55.925781 L 36.226562 55.925781 Z M 36.226562 50.78125 " clip-rule="nonzero"/></clipPath><clipPath id="dc8121024e"><path d="M 38.796875 50.78125 C 37.378906 50.78125 36.226562 51.933594 36.226562 53.351562 C 36.226562 54.773438 37.378906 55.925781 38.796875 55.925781 C 40.21875 55.925781 41.371094 54.773438 41.371094 53.351562 C 41.371094 51.933594 40.21875 50.78125 38.796875 50.78125 Z M 38.796875 50.78125 " clip-rule="nonzero"/></clipPath><clipPath id="b6c5d3b408"><path d="M 37.425781 51.980469 L 40.171875 51.980469 L 40.171875 54.726562 L 37.425781 54.726562 Z M 37.425781 51.980469 " clip-rule="nonzero"/></clipPath><clipPath id="37e5f65f25"><path d="M 38.796875 51.980469 C 38.039062 51.980469 37.425781 52.59375 37.425781 53.355469 C 37.425781 54.113281 38.039062 54.726562 38.796875 54.726562 C 39.558594 54.726562 40.171875 54.113281 40.171875 53.355469 C 40.171875 52.59375 39.558594 51.980469 38.796875 51.980469 Z M 38.796875 51.980469 " clip-rule="nonzero"/></clipPath></defs><g clip-path="url(#ba1ba9608c)"><g clip-path="url(#d1cd0e2c0f)"><path stroke-linecap="butt" transform="matrix(0.328526, 0, 0, 0.328526, 35.04237, 49.597946)" fill="none" stroke-linejoin="miter" d="M 11.42833 -0.000882819 C 5.114619 -0.000882819 0.00182146 5.111915 0.00182146 11.425626 C 0.00182146 17.739336 5.114619 22.864024 11.42833 22.864024 C 17.742041 22.864024 22.854838 17.739336 22.854838 11.425626 C 22.854838 5.111915 17.742041 -0.000882819 11.42833 -0.000882819 Z M 11.42833 -0.000882819 " stroke="#000000" stroke-width="4.545645" stroke-opacity="1" stroke-miterlimit="4"/></g></g><g clip-path="url(#949b8ff7d1)"><g clip-path="url(#dc8121024e)"><path stroke-linecap="butt" transform="matrix(0.328526, 0, 0, 0.328526, 36.225787, 50.781359)" fill="none" stroke-linejoin="miter" d="M 7.826129 -0.000330529 C 3.509976 -0.000330529 0.0023592 3.507287 0.0023592 7.823439 C 0.0023592 12.151482 3.509976 15.659099 7.826129 15.659099 C 12.154171 15.659099 15.661789 12.151482 15.661789 7.823439 C 15.661789 3.507287 12.154171 -0.000330529 7.826129 -0.000330529 Z M 7.826129 -0.000330529 " stroke="#000000" stroke-width="4.545645" stroke-opacity="1" stroke-miterlimit="4"/></g></g><g clip-path="url(#b6c5d3b408)"><g clip-path="url(#37e5f65f25)"><path fill="#000000" d="M 37.425781 51.980469 L 40.171875 51.980469 L 40.171875 54.726562 L 37.425781 54.726562 Z M 37.425781 51.980469 " fill-opacity="1" fill-rule="nonzero"/></g></g><g fill="#000000" fill-opacity="1"><g transform="translate(4.455964, 57.362893)"><g><path d="M 6.421875 0 L 0.859375 0 L 0.859375 -0.546875 L 2 -0.546875 C 2.226562 -0.546875 2.375 -0.578125 2.4375 -0.640625 C 2.5 -0.703125 2.53125 -0.828125 2.53125 -1.015625 L 2.53125 -8.828125 C 2.53125 -9.023438 2.5 -9.148438 2.4375 -9.203125 C 2.375 -9.265625 2.226562 -9.296875 2 -9.296875 L 0.859375 -9.296875 L 0.859375 -9.84375 L 6.421875 -9.84375 L 6.421875 -9.296875 L 5.25 -9.296875 C 5.03125 -9.296875 4.882812 -9.265625 4.8125 -9.203125 C 4.75 -9.148438 4.71875 -9.023438 4.71875 -8.828125 L 4.71875 -5.484375 L 9.8125 -5.484375 L 9.8125 -8.828125 C 9.8125 -9.023438 9.78125 -9.148438 9.71875 -9.203125 C 9.65625 -9.265625 9.507812 -9.296875 9.28125 -9.296875 L 8.109375 -9.296875 L 8.109375 -9.84375 L 13.671875 -9.84375 L 13.671875 -9.296875 L 12.53125 -9.296875 C 12.3125 -9.296875 12.164062 -9.265625 12.09375 -9.203125 C 12.03125 -9.148438 12 -9.023438 12 -8.828125 L 12 -1.015625 C 12 -0.828125 12.03125 -0.703125 12.09375 -0.640625 C 12.164062 -0.578125 12.3125 -0.546875 12.53125 -0.546875 L 13.671875 -0.546875 L 13.671875 0 L 8.109375 0 L 8.109375 -0.546875 L 9.28125 -0.546875 C 9.507812 -0.546875 9.65625 -0.578125 9.71875 -0.640625 C 9.78125 -0.703125 9.8125 -0.828125 9.8125 -1.015625 L 9.8125 -4.65625 L 4.71875 -4.65625 L 4.71875 -1.015625 C 4.71875 -0.828125 4.75 -0.703125 4.8125 -0.640625 C 4.882812 -0.578125 5.03125 -0.546875 5.25 -0.546875 L 6.421875 -0.546875 Z M 6.421875 0 "/></g></g></g><g fill="#000000" fill-opacity="1"><g transform="translate(19.001449, 57.362893)"><g><path d="M 1.171875 -3.3125 L 1.859375 -3.375 C 1.953125 -2.613281 2.132812 -2.023438 2.40625 -1.609375 C 2.6875 -1.203125 3.066406 -0.914062 3.546875 -0.75 C 4.023438 -0.59375 4.597656 -0.515625 5.265625 -0.515625 C 6.304688 -0.515625 7.085938 -0.707031 7.609375 -1.09375 C 8.128906 -1.488281 8.390625 -1.988281 8.390625 -2.59375 C 8.390625 -2.914062 8.289062 -3.164062 8.09375 -3.34375 C 7.90625 -3.53125 7.644531 -3.671875 7.3125 -3.765625 C 6.976562 -3.859375 6.601562 -3.925781 6.1875 -3.96875 C 5.78125 -4.019531 5.359375 -4.070312 4.921875 -4.125 C 4.484375 -4.175781 4.054688 -4.253906 3.640625 -4.359375 C 3.234375 -4.472656 2.863281 -4.628906 2.53125 -4.828125 C 2.195312 -5.035156 1.929688 -5.316406 1.734375 -5.671875 C 1.546875 -6.023438 1.453125 -6.476562 1.453125 -7.03125 C 1.453125 -7.644531 1.582031 -8.171875 1.84375 -8.609375 C 2.101562 -9.054688 2.53125 -9.398438 3.125 -9.640625 C 3.71875 -9.878906 4.503906 -10 5.484375 -10 C 6.203125 -10 6.847656 -9.953125 7.421875 -9.859375 C 8.003906 -9.773438 8.597656 -9.632812 9.203125 -9.4375 L 9.203125 -7.46875 L 8.65625 -7.46875 C 8.644531 -7.570312 8.613281 -7.710938 8.5625 -7.890625 C 8.507812 -8.066406 8.4375 -8.25 8.34375 -8.4375 C 8.257812 -8.625 8.140625 -8.78125 7.984375 -8.90625 C 7.617188 -9.21875 6.890625 -9.375 5.796875 -9.375 C 5.035156 -9.375 4.445312 -9.300781 4.03125 -9.15625 C 3.625 -9.007812 3.335938 -8.816406 3.171875 -8.578125 C 3.003906 -8.335938 2.921875 -8.078125 2.921875 -7.796875 C 2.921875 -7.421875 3.015625 -7.117188 3.203125 -6.890625 C 3.398438 -6.671875 3.660156 -6.503906 3.984375 -6.390625 C 4.304688 -6.285156 4.664062 -6.207031 5.0625 -6.15625 C 5.46875 -6.101562 5.882812 -6.050781 6.3125 -6 C 6.738281 -5.957031 7.148438 -5.882812 7.546875 -5.78125 C 7.953125 -5.6875 8.316406 -5.546875 8.640625 -5.359375 C 8.960938 -5.171875 9.222656 -4.910156 9.421875 -4.578125 C 9.617188 -4.242188 9.71875 -3.8125 9.71875 -3.28125 C 9.726562 -2.613281 9.554688 -2.019531 9.203125 -1.5 C 8.859375 -0.976562 8.359375 -0.570312 7.703125 -0.28125 C 7.054688 0.0078125 6.269531 0.15625 5.34375 0.15625 C 5.03125 0.15625 4.675781 0.132812 4.28125 0.09375 C 3.882812 0.0507812 3.492188 -0.00390625 3.109375 -0.078125 C 2.722656 -0.148438 2.378906 -0.226562 2.078125 -0.3125 C 1.773438 -0.40625 1.550781 -0.503906 1.40625 -0.609375 Z M 1.171875 -3.3125 "/></g></g></g><g fill="#000000" fill-opacity="1"><g transform="translate(47.706262, 57.362893)"><g><path d="M 11.78125 -9.640625 L 11.921875 -6.953125 L 11.34375 -6.890625 C 11.238281 -7.273438 11.132812 -7.625 11.03125 -7.9375 C 10.925781 -8.257812 10.800781 -8.476562 10.65625 -8.59375 C 10.5 -8.75 10.269531 -8.875 9.96875 -8.96875 C 9.675781 -9.0625 9.347656 -9.128906 8.984375 -9.171875 C 8.628906 -9.222656 8.273438 -9.25 7.921875 -9.25 C 7.003906 -9.25 6.210938 -9.109375 5.546875 -8.828125 C 4.878906 -8.546875 4.367188 -8.09375 4.015625 -7.46875 C 3.660156 -6.84375 3.484375 -6.007812 3.484375 -4.96875 C 3.484375 -4.050781 3.601562 -3.265625 3.84375 -2.609375 C 4.082031 -1.960938 4.488281 -1.460938 5.0625 -1.109375 C 5.632812 -0.765625 6.40625 -0.59375 7.375 -0.59375 C 7.695312 -0.59375 8.046875 -0.632812 8.421875 -0.71875 C 8.804688 -0.800781 9.15625 -0.894531 9.46875 -1 C 9.78125 -1.113281 9.992188 -1.21875 10.109375 -1.3125 L 10.109375 -3.65625 C 10.109375 -3.851562 10.082031 -3.972656 10.03125 -4.015625 C 9.988281 -4.066406 9.894531 -4.09375 9.75 -4.09375 L 8.734375 -4.09375 L 8.734375 -4.640625 L 13.6875 -4.640625 L 13.6875 -4.09375 L 12.6875 -4.09375 C 12.539062 -4.09375 12.4375 -4.066406 12.375 -4.015625 C 12.320312 -3.960938 12.296875 -3.847656 12.296875 -3.671875 L 12.296875 -0.65625 C 11.648438 -0.5 11.046875 -0.359375 10.484375 -0.234375 C 9.929688 -0.109375 9.378906 -0.015625 8.828125 0.046875 C 8.285156 0.117188 7.6875 0.15625 7.03125 0.15625 C 6.164062 0.15625 5.367188 0.0625 4.640625 -0.125 C 3.921875 -0.320312 3.289062 -0.617188 2.75 -1.015625 C 2.21875 -1.421875 1.804688 -1.945312 1.515625 -2.59375 C 1.222656 -3.238281 1.078125 -4.007812 1.078125 -4.90625 C 1.078125 -5.84375 1.265625 -6.632812 1.640625 -7.28125 C 2.015625 -7.925781 2.519531 -8.445312 3.15625 -8.84375 C 3.800781 -9.25 4.519531 -9.539062 5.3125 -9.71875 C 6.101562 -9.90625 6.921875 -10 7.765625 -10 C 8.523438 -10 9.21875 -9.960938 9.84375 -9.890625 C 10.476562 -9.816406 11.125 -9.734375 11.78125 -9.640625 Z M 11.78125 -9.640625 "/></g></g></g><g fill="#000000" fill-opacity="1"><g transform="translate(62.027771, 57.428377)"><g><path d="M 5.546875 0 L 0.734375 0 L 0.734375 -0.46875 L 1.703125 -0.46875 C 1.890625 -0.46875 2.007812 -0.492188 2.0625 -0.546875 C 2.125 -0.609375 2.15625 -0.71875 2.15625 -0.875 L 2.15625 -7.578125 C 2.15625 -7.742188 2.125 -7.851562 2.0625 -7.90625 C 2.007812 -7.957031 1.890625 -7.984375 1.703125 -7.984375 L 0.734375 -7.984375 L 0.734375 -8.453125 L 7.296875 -8.453125 C 8.203125 -8.453125 8.914062 -8.253906 9.4375 -7.859375 C 9.957031 -7.460938 10.21875 -6.914062 10.21875 -6.21875 C 10.21875 -5.84375 10.125 -5.492188 9.9375 -5.171875 C 9.757812 -4.859375 9.398438 -4.597656 8.859375 -4.390625 C 8.554688 -4.273438 8.347656 -4.203125 8.234375 -4.171875 C 8.117188 -4.148438 8.0625 -4.117188 8.0625 -4.078125 C 8.0625 -4.035156 8.097656 -4 8.171875 -3.96875 C 8.242188 -3.945312 8.335938 -3.90625 8.453125 -3.84375 C 8.578125 -3.78125 8.691406 -3.675781 8.796875 -3.53125 L 10.921875 -0.734375 C 11.054688 -0.554688 11.242188 -0.46875 11.484375 -0.46875 L 12 -0.46875 L 12 0 L 9.171875 0 L 7.109375 -3.1875 C 6.816406 -3.644531 6.4375 -3.875 5.96875 -3.875 L 4.03125 -3.875 L 4.03125 -0.875 C 4.03125 -0.71875 4.0625 -0.609375 4.125 -0.546875 C 4.1875 -0.492188 4.3125 -0.46875 4.5 -0.46875 L 5.546875 -0.46875 Z M 4.03125 -7.90625 L 4.03125 -4.53125 C 4.207031 -4.5 4.457031 -4.476562 4.78125 -4.46875 C 5.101562 -4.457031 5.460938 -4.453125 5.859375 -4.453125 C 6.484375 -4.453125 6.96875 -4.515625 7.3125 -4.640625 C 7.65625 -4.765625 7.890625 -4.960938 8.015625 -5.234375 C 8.140625 -5.503906 8.203125 -5.851562 8.203125 -6.28125 C 8.203125 -6.894531 7.960938 -7.332031 7.484375 -7.59375 C 7.015625 -7.851562 6.316406 -7.984375 5.390625 -7.984375 C 5.140625 -7.984375 4.882812 -7.976562 4.625 -7.96875 C 4.363281 -7.957031 4.164062 -7.9375 4.03125 -7.90625 Z M 4.03125 -7.90625 "/></g></g></g><g fill="#000000" fill-opacity="1"><g transform="translate(74.527463, 57.428377)"><g><path d="M 0.921875 -4.234375 C 0.921875 -4.828125 1.023438 -5.382812 1.234375 -5.90625 C 1.453125 -6.425781 1.78125 -6.890625 2.21875 -7.296875 C 2.65625 -7.703125 3.207031 -8.019531 3.875 -8.25 C 4.539062 -8.476562 5.328125 -8.59375 6.234375 -8.59375 C 7.148438 -8.59375 7.941406 -8.476562 8.609375 -8.25 C 9.273438 -8.019531 9.828125 -7.703125 10.265625 -7.296875 C 10.703125 -6.890625 11.023438 -6.425781 11.234375 -5.90625 C 11.453125 -5.382812 11.5625 -4.828125 11.5625 -4.234375 C 11.5625 -3.640625 11.453125 -3.078125 11.234375 -2.546875 C 11.023438 -2.023438 10.703125 -1.5625 10.265625 -1.15625 C 9.828125 -0.757812 9.273438 -0.441406 8.609375 -0.203125 C 7.941406 0.0234375 7.148438 0.140625 6.234375 0.140625 C 5.328125 0.140625 4.539062 0.0234375 3.875 -0.203125 C 3.207031 -0.441406 2.65625 -0.757812 2.21875 -1.15625 C 1.78125 -1.5625 1.453125 -2.023438 1.234375 -2.546875 C 1.023438 -3.078125 0.921875 -3.640625 0.921875 -4.234375 Z M 2.921875 -4.234375 C 2.921875 -3.785156 2.960938 -3.335938 3.046875 -2.890625 C 3.140625 -2.453125 3.300781 -2.050781 3.53125 -1.6875 C 3.769531 -1.332031 4.109375 -1.046875 4.546875 -0.828125 C 4.984375 -0.617188 5.546875 -0.515625 6.234375 -0.515625 C 6.929688 -0.515625 7.5 -0.617188 7.9375 -0.828125 C 8.375 -1.046875 8.707031 -1.332031 8.9375 -1.6875 C 9.175781 -2.050781 9.335938 -2.453125 9.421875 -2.890625 C 9.515625 -3.335938 9.5625 -3.785156 9.5625 -4.234375 C 9.5625 -4.671875 9.515625 -5.109375 9.421875 -5.546875 C 9.335938 -5.992188 9.175781 -6.394531 8.9375 -6.75 C 8.707031 -7.113281 8.375 -7.398438 7.9375 -7.609375 C 7.5 -7.828125 6.929688 -7.9375 6.234375 -7.9375 C 5.546875 -7.9375 4.984375 -7.828125 4.546875 -7.609375 C 4.109375 -7.398438 3.769531 -7.113281 3.53125 -6.75 C 3.300781 -6.394531 3.140625 -5.992188 3.046875 -5.546875 C 2.960938 -5.109375 2.921875 -4.671875 2.921875 -4.234375 Z M 2.921875 -4.234375 "/></g></g></g><g fill="#000000" fill-opacity="1"><g transform="translate(87.027154, 57.428377)"><g><path d="M 8.28125 -8.453125 L 11.875 -8.453125 L 11.875 -7.984375 L 10.875 -7.984375 C 10.695312 -7.984375 10.578125 -7.957031 10.515625 -7.90625 C 10.453125 -7.851562 10.425781 -7.742188 10.4375 -7.578125 L 10.4375 -3.609375 C 10.4375 -2.335938 10.082031 -1.394531 9.375 -0.78125 C 8.664062 -0.164062 7.613281 0.140625 6.21875 0.140625 C 5.425781 0.140625 4.757812 0.0625 4.21875 -0.09375 C 3.6875 -0.25 3.257812 -0.46875 2.9375 -0.75 C 2.625 -1.03125 2.394531 -1.359375 2.25 -1.734375 C 2.113281 -2.109375 2.046875 -2.507812 2.046875 -2.9375 L 2.046875 -7.578125 C 2.046875 -7.742188 2.015625 -7.851562 1.953125 -7.90625 C 1.898438 -7.957031 1.78125 -7.984375 1.59375 -7.984375 L 0.59375 -7.984375 L 0.59375 -8.453125 L 5.328125 -8.453125 L 5.328125 -7.984375 L 4.375 -7.984375 C 4.1875 -7.984375 4.0625 -7.957031 4 -7.90625 C 3.945312 -7.851562 3.921875 -7.742188 3.921875 -7.578125 L 3.921875 -2.90625 C 3.921875 -2.007812 4.140625 -1.375 4.578125 -1 C 5.015625 -0.625 5.644531 -0.4375 6.46875 -0.4375 C 7.476562 -0.4375 8.269531 -0.664062 8.84375 -1.125 C 9.425781 -1.59375 9.71875 -2.285156 9.71875 -3.203125 L 9.71875 -7.578125 C 9.738281 -7.742188 9.722656 -7.851562 9.671875 -7.90625 C 9.617188 -7.957031 9.492188 -7.984375 9.296875 -7.984375 L 8.28125 -7.984375 Z M 8.28125 -8.453125 "/></g></g></g><g fill="#000000" fill-opacity="1"><g transform="translate(99.526845, 57.428377)"><g><path d="M 5.53125 0 L 0.734375 0 L 0.734375 -0.46875 L 1.75 -0.46875 C 1.9375 -0.46875 2.054688 -0.492188 2.109375 -0.546875 C 2.171875 -0.609375 2.203125 -0.71875 2.203125 -0.875 L 2.203125 -7.578125 C 2.203125 -7.742188 2.171875 -7.851562 2.109375 -7.90625 C 2.054688 -7.957031 1.9375 -7.984375 1.75 -7.984375 L 0.765625 -7.984375 L 0.765625 -8.453125 L 6.015625 -8.453125 C 7.171875 -8.453125 8.066406 -8.269531 8.703125 -7.90625 C 9.347656 -7.550781 9.671875 -6.957031 9.671875 -6.125 C 9.671875 -5.695312 9.566406 -5.3125 9.359375 -4.96875 C 9.148438 -4.632812 8.796875 -4.363281 8.296875 -4.15625 C 7.796875 -3.957031 7.109375 -3.84375 6.234375 -3.8125 C 6.035156 -3.800781 5.804688 -3.800781 5.546875 -3.8125 C 5.285156 -3.832031 5.023438 -3.859375 4.765625 -3.890625 C 4.515625 -3.929688 4.285156 -3.96875 4.078125 -4 L 4.078125 -0.875 C 4.078125 -0.71875 4.101562 -0.609375 4.15625 -0.546875 C 4.21875 -0.492188 4.34375 -0.46875 4.53125 -0.46875 L 5.53125 -0.46875 Z M 4.078125 -7.859375 L 4.078125 -4.546875 C 4.304688 -4.484375 4.546875 -4.429688 4.796875 -4.390625 C 5.054688 -4.359375 5.34375 -4.34375 5.65625 -4.34375 C 6.34375 -4.34375 6.847656 -4.507812 7.171875 -4.84375 C 7.503906 -5.175781 7.671875 -5.625 7.671875 -6.1875 C 7.671875 -6.800781 7.488281 -7.242188 7.125 -7.515625 C 6.757812 -7.785156 6.113281 -7.921875 5.1875 -7.921875 C 4.914062 -7.921875 4.703125 -7.910156 4.546875 -7.890625 C 4.398438 -7.867188 4.242188 -7.859375 4.078125 -7.859375 Z M 4.078125 -7.859375 "/></g></g></g></svg>