<svg width="62" height="62" viewBox="0 0 62 62" xmlns="http://www.w3.org/2000/svg"><g fill="#7D7D7D" fill-rule="nonzero"><path d="M10.806 47.514a5.01 5.01 0 00-2.42.618A28.372 28.372 0 012.4 30.72C2.4 15.104 15.104 2.4 30.72 2.4c1.898 0 3.796.189 5.64.562a1.2 1.2 0 00.475-2.353C34.835.205 32.778 0 30.72 0 22.515 0 14.8 3.195 8.998 8.998 3.195 14.8 0 22.515 0 30.72a30.776 30.776 0 006.61 19.038 5.005 5.005 0 00-.844 2.796c0 1.346.525 2.612 1.477 3.563a5.005 5.005 0 003.563 1.477 5.007 5.007 0 003.564-1.477 5.006 5.006 0 001.476-3.564 5.006 5.006 0 00-1.476-3.563 5.007 5.007 0 00-3.564-1.476zm1.867 6.906a2.622 2.622 0 01-1.867.774 2.622 2.622 0 01-1.866-.774 2.622 2.622 0 01-.774-1.866c0-.706.275-1.368.774-1.867a2.621 2.621 0 011.866-.773c.705 0 1.368.275 1.867.773.498.499.773 1.161.773 1.867 0 .705-.275 1.368-.773 1.866zM54.828 11.68a5.049 5.049 0 00-.63-6.358 5.009 5.009 0 00-3.564-1.476 5.009 5.009 0 00-3.564 1.476 5.007 5.007 0 00-1.476 3.564c0 1.346.524 2.612 1.476 3.564a5.007 5.007 0 003.564 1.476 5.01 5.01 0 002.42-.618A28.373 28.373 0 0159.04 30.72c0 15.616-12.704 28.32-28.32 28.32-1.88 0-3.76-.185-5.586-.55a1.2 1.2 0 00-.471 2.353 30.97 30.97 0 006.057.597c8.205 0 15.92-3.195 21.722-8.998 5.803-5.802 8.998-13.517 8.998-21.722 0-6.903-2.344-13.64-6.612-19.04zm-6.06-.927a2.623 2.623 0 01-.774-1.867c0-.705.275-1.368.773-1.866a2.622 2.622 0 011.867-.774c.705 0 1.368.275 1.867.774a2.644 2.644 0 010 3.733 2.625 2.625 0 01-1.867.773 2.622 2.622 0 01-1.867-.773z"/><path d="M25.768 51.36a1.2 1.2 0 001.2 1.2h7.503a1.2 1.2 0 001.2-1.2v-2.326a18.792 18.792 0 004.504-1.867l1.643 1.643a1.2 1.2 0 001.697 0l5.303-5.308a1.2 1.2 0 000-1.697l-1.64-1.64a18.792 18.792 0 001.866-4.504h2.318a1.2 1.2 0 001.2-1.2v-7.504a1.2 1.2 0 00-1.2-1.2h-2.318a18.795 18.795 0 00-1.866-4.503l1.632-1.632a1.201 1.201 0 000-1.697L43.5 12.62a1.2 1.2 0 00-1.696 0l-1.63 1.63a18.792 18.792 0 00-4.504-1.866V10.08a1.2 1.2 0 00-1.2-1.2h-7.503a1.2 1.2 0 00-1.2 1.2v2.305a18.776 18.776 0 00-4.503 1.866l-1.63-1.63a1.2 1.2 0 00-1.697 0l-5.307 5.304a1.198 1.198 0 000 1.697l1.631 1.632a18.788 18.788 0 00-1.866 4.503h-2.314a1.2 1.2 0 00-1.2 1.2l-.004 7.503a1.199 1.199 0 001.2 1.2h2.318a18.792 18.792 0 001.866 4.504l-1.64 1.641a1.2 1.2 0 000 1.697l5.303 5.307a1.2 1.2 0 001.697 0l1.642-1.642a18.807 18.807 0 004.504 1.867v2.326zm-4.033-6.717a1.2 1.2 0 00-1.5.16l-1.461 1.46-3.607-3.61 1.46-1.46a1.2 1.2 0 00.159-1.499 16.425 16.425 0 01-2.273-5.486 1.2 1.2 0 00-1.173-.947h-2.061l.002-5.104h2.059a1.2 1.2 0 001.173-.947 16.427 16.427 0 012.273-5.486 1.2 1.2 0 00-.16-1.5l-1.45-1.45 3.61-3.607 1.449 1.45a1.2 1.2 0 001.5.159 16.419 16.419 0 015.485-2.273 1.2 1.2 0 00.948-1.174V11.28h5.103v2.049a1.2 1.2 0 00.948 1.173 16.432 16.432 0 015.486 2.273c.474.307 1.1.241 1.5-.16l1.448-1.448 3.61 3.607-1.45 1.45a1.2 1.2 0 00-.16 1.5 16.436 16.436 0 012.274 5.486 1.2 1.2 0 001.173.947h2.062v5.104H48.1a1.2 1.2 0 00-1.173.947 16.423 16.423 0 01-2.273 5.486 1.2 1.2 0 00.159 1.5l1.46 1.46-3.607 3.61-1.461-1.461a1.2 1.2 0 00-1.5-.16 16.436 16.436 0 01-5.486 2.273 1.2 1.2 0 00-.948 1.174v2.07h-5.103v-2.07a1.2 1.2 0 00-.948-1.174 16.427 16.427 0 01-5.485-2.273z"/><path d="M40.635 30.72c0-5.468-4.448-9.915-9.915-9.915-5.468 0-9.915 4.447-9.915 9.915 0 5.467 4.447 9.915 9.915 9.915 5.467 0 9.915-4.448 9.915-9.915zm-17.43 0c0-4.144 3.37-7.515 7.515-7.515 4.144 0 7.515 3.371 7.515 7.515s-3.37 7.515-7.515 7.515c-4.144 0-7.515-3.37-7.515-7.515zM41.77 4.538c.315 0 .625-.128.848-.351.223-.225.351-.534.351-.85 0-.314-.128-.624-.351-.848a1.209 1.209 0 00-.849-.352c-.317 0-.624.128-.848.352a1.21 1.21 0 00-.352.848c0 .317.129.625.352.85.224.223.531.351.848.351zM19.723 56.923a1.21 1.21 0 00-.848.352 1.21 1.21 0 00-.352.848c0 .317.129.625.352.849.223.223.533.351.848.351.316 0 .625-.128.849-.351a1.21 1.21 0 00.351-.849 1.21 1.21 0 00-.351-.848 1.21 1.21 0 00-.849-.352z"/></g></svg>