<svg width="49" height="48" viewBox="0 0 49 48" xmlns="http://www.w3.org/2000/svg"><g fill="none" fill-rule="evenodd"><path d="M4.1 25.005l1.789-1.026L4.1 22.954v2.05zM.788 22.954l1.788 1.025-1.788 1.026v-2.051zM44.75 22.954l-1.788 1.025 1.788 1.026v-2.051zm3.314 2.05l-1.788-1.025 1.788-1.025v2.05z" fill="#4A4A4A"/><path fill="#327DA2" d="M.787 17.678h14.74v-3.821H.787zM1.443 9.767H14.87V.657H1.443z"/><path d="M8.157 14.57a.713.713 0 01-.713-.713v-3.434a.713.713 0 111.426 0v3.434c0 .393-.32.713-.713.713" fill="#4A4A4A"/><path fill="#327DA2" d="M33.359 17.678h14.74v-3.821h-14.74zM34.014 9.767h13.429V.657H34.014z"/><path d="M40.729 14.57a.713.713 0 01-.713-.713v-3.434a.713.713 0 111.426 0v3.434c0 .393-.32.713-.713.713" fill="#4A4A4A"/><path fill="#327DA2" d="M.787 47.499h14.74v-3.822H.787zM1.443 39.587H14.87v-9.11H1.443z"/><path d="M8.157 44.39a.713.713 0 01-.713-.713v-3.434a.713.713 0 111.426 0v3.434c0 .394-.32.713-.713.713M29.813 24.416a5.207 5.207 0 10-10.414 0 5.207 5.207 0 0010.414 0" fill="#4A4A4A"/><path fill="#327DA2" d="M33.359 47.499h14.74v-3.822h-14.74zM34.014 39.587h13.429v-9.11H34.014z"/><path d="M40.729 44.39a.713.713 0 01-.713-.713v-3.434a.713.713 0 111.426 0v3.434c0 .394-.32.713-.713.713M24.606 30.336a5.927 5.927 0 01-5.92-5.92 5.927 5.927 0 015.92-5.92 5.927 5.927 0 015.92 5.92 5.927 5.927 0 01-5.92 5.92" fill="#4A4A4A"/><path d="M24.606 19.922a4.499 4.499 0 00-4.494 4.494 4.499 4.499 0 004.494 4.493 4.499 4.499 0 004.494-4.493 4.499 4.499 0 00-4.494-4.494" fill="#FFF"/><path d="M24.606 19.922a.713.713 0 01-.713-.713V6.467a.713.713 0 111.426 0V19.21c0 .394-.319.713-.713.713" fill="#4A4A4A"/><path d="M28.897 7.18h-8.582a.713.713 0 110-1.426h8.582a.713.713 0 110 1.426M24.606 43.275a.713.713 0 01-.713-.713V29.821a.713.713 0 111.426 0v12.741c0 .394-.319.713-.713.713" fill="#4A4A4A"/><path d="M28.857 43.275h-8.582a.713.713 0 110-1.426h8.582a.713.713 0 110 1.426M40.843 24.697h-11.03a.713.713 0 110-1.426h11.03a.713.713 0 110 1.426" fill="#4A4A4A"/><path d="M40.843 30.534a.713.713 0 01-.713-.713V17.678a.713.713 0 111.426 0v12.143c0 .394-.319.713-.713.713M19.201 24.697H8.171a.713.713 0 110-1.426H19.2a.713.713 0 110 1.426" fill="#4A4A4A"/><path d="M8.17 30.534a.713.713 0 01-.712-.713V17.83a.713.713 0 011.426 0v11.99c0 .395-.32.714-.713.714" fill="#4A4A4A"/><path d="M20.976 36.907a.953.953 0 10-1.905 0 .953.953 0 001.905 0M20.976 33.294a.953.953 0 10-1.905 0 .953.953 0 001.905 0M29.558 36.907a.952.952 0 10-1.905 0 .952.952 0 001.905 0M29.558 33.294a.952.952 0 10-1.905 0 .952.952 0 001.905 0M20.976 15.663a.953.953 0 10-1.905 0 .953.953 0 001.905 0M20.976 12.05a.953.953 0 10-1.906 0 .953.953 0 001.906 0M29.558 15.663a.952.952 0 10-1.905 0 .952.952 0 001.905 0M29.558 12.05a.953.953 0 10-1.906 0 .953.953 0 001.906 0" fill="#2A9EE1"/></g></svg>