<svg width="57" height="62" viewBox="0 0 57 62" xmlns="http://www.w3.org/2000/svg"><g fill="#9B9B9B" fill-rule="nonzero"><path d="M51.306 41.97h-.003c-1.772-.002-2.771-.921-3.344-3.072-.585-2.2-.605-5.391-.625-8.77-.025-4.092-.053-8.731-1.07-12.88a.915.915 0 00-1.778.435c.967 3.94.994 8.465 1.018 12.457.022 3.498.042 6.802.687 9.228.28 1.055.683 1.922 1.202 2.601H9.276c.52-.68.922-1.546 1.203-2.601.645-2.426.665-5.73.686-9.228.033-5.34.07-11.394 2.255-16.026 2.46-5.215 7.338-7.75 14.915-7.75 4.161 0 7.566.782 10.12 2.325 2.215 1.337 3.84 3.238 4.97 5.81a.914.914 0 101.676-.735c-1.27-2.89-3.187-5.124-5.7-6.641-1.604-.97-3.488-1.668-5.634-2.094A5.457 5.457 0 0028.335 0a5.455 5.455 0 00-5.431 5.03c-2.047.406-3.857 1.06-5.41 1.96-2.499 1.447-4.427 3.582-5.73 6.343C9.409 18.331 9.37 24.6 9.337 30.13c-.02 3.378-.04 6.569-.626 8.769-.572 2.151-1.572 3.07-3.343 3.071h-.004A5.37 5.37 0 000 47.333a5.37 5.37 0 005.363 5.363h5.79a.915.915 0 000-1.83h-5.79a3.538 3.538 0 01-3.534-3.533 3.538 3.538 0 013.534-3.534h45.943a3.538 3.538 0 013.534 3.534 3.538 3.538 0 01-3.534 3.534H14.812a.914.914 0 100 1.829h3.755c.463 4.983 4.666 8.897 9.768 8.897 5.101 0 9.304-3.914 9.767-8.897h13.204a5.37 5.37 0 005.364-5.363 5.37 5.37 0 00-5.364-5.364zM28.335 1.83a3.626 3.626 0 013.55 2.906 30.283 30.283 0 00-3.55-.201c-1.244 0-2.426.068-3.549.2a3.626 3.626 0 013.549-2.906zm0 57.933c-4.092 0-7.473-3.095-7.928-7.067h15.856c-.455 3.972-3.836 7.067-7.928 7.067zM43.023 5.741c.016.009 1.645.938 3.247 3.098 2.147 2.892 3.235 6.504 3.235 10.738a.915.915 0 001.83 0c0-5.828-1.99-9.697-3.66-11.915-1.835-2.438-3.687-3.478-3.765-3.521a.914.914 0 00-.887 1.6zM49.924 6.076c.147.097 3.606 2.418 3.606 8.257a.915.915 0 001.829 0c0-6.887-4.266-9.682-4.448-9.797a.912.912 0 00-1.258.278.917.917 0 00.271 1.262zM6.25 20.492c.505 0 .914-.41.914-.915 0-4.234 1.089-7.846 3.235-10.738 1.592-2.146 3.211-3.077 3.247-3.098a.915.915 0 00-.887-1.6c-.078.043-1.93 1.083-3.765 3.521-1.669 2.218-3.659 6.087-3.659 11.915 0 .505.41.915.914.915zM2.225 15.247c.505 0 .915-.409.915-.914 0-5.835 3.452-8.157 3.605-8.256a.915.915 0 00-.987-1.54c-.181.115-4.448 2.909-4.448 9.796 0 .505.41.914.915.914z"/></g></svg>