<svg width="60" height="57" viewBox="0 0 60 57" xmlns="http://www.w3.org/2000/svg"><path d="M53.542 35.313H38.038l9.872-9.872a1.34 1.34 0 000-1.895l-5.78-5.781a1.34 1.34 0 00-.947-.393h-.012a1.34 1.34 0 00-.952.408l-3.677 3.8V1.57c0-.74-.6-1.34-1.34-1.34H24.637c-.74 0-1.34.6-1.34 1.34v20.212L19.42 17.78a1.34 1.34 0 00-.952-.408 1.564 1.564 0 00-.958.393l-5.78 5.78a1.34 1.34 0 000 1.896l9.872 9.872H6.298a6.033 6.033 0 00-6.124 5.924v9.568a6.185 6.185 0 006.124 5.926h47.244a6.08 6.08 0 005.924-5.926v-9.568a6.004 6.004 0 00-5.924-5.924zm-38.97-10.82l3.87-3.87 5.233 5.4a1.34 1.34 0 002.302-.932V2.909h7.885v21.982a1.34 1.34 0 002.303.932l5.033-5.2 3.87 3.87L29.82 39.742 14.572 24.493zm42.214 26.312a3.465 3.465 0 01-3.244 3.246H6.298a3.482 3.482 0 01-3.444-3.246v-9.568a3.353 3.353 0 013.444-3.244h17.983l4.592 4.591a1.34 1.34 0 001.894 0l4.592-4.591h18.183a3.29 3.29 0 013.244 3.244v9.568z" fill="#7D7D7D" fill-rule="nonzero"/></svg>