<svg width="63" height="61" viewBox="0 0 63 61" xmlns="http://www.w3.org/2000/svg"><g fill="#7D7D7D" fill-rule="nonzero" stroke="#FFF" stroke-width=".5"><path d="M58.343 1.064H5.097A4.102 4.102 0 001 5.161v33.79c0 .566.459 1.025 1.024 1.025h59.392c.565 0 1.024-.459 1.024-1.024V5.16a4.102 4.102 0 00-4.097-4.097zm2.049 36.864H3.048V5.161c0-1.13.92-2.049 2.049-2.049h53.246c1.13 0 2.049.918 2.049 2.049v32.767z"/><path d="M61.416 37.928H2.024c-.565 0-1.024.459-1.024 1.024v5.119a4.102 4.102 0 004.097 4.097h53.246a4.102 4.102 0 004.097-4.097v-5.12c0-.564-.459-1.023-1.024-1.023zm-1.024 6.143c0 1.13-.92 2.049-2.049 2.049H5.097a2.051 2.051 0 01-2.049-2.049v-4.095h57.344v4.095h0z"/><path d="M34.792 42.024h-6.144a1.024 1.024 0 000 2.048h6.144a1.024 1.024 0 000-2.048zM57.32 5.16H6.12c-.565 0-1.024.459-1.024 1.024v32.768c0 .565.459 1.024 1.024 1.024h51.2c.565 0 1.024-.459 1.024-1.024V6.184c0-.565-.459-1.024-1.024-1.024zm-1.024 32.768H7.144V7.208h49.152v30.72zM45.032 54.312H18.408a3.076 3.076 0 00-3.072 3.072 3.076 3.076 0 003.072 3.072h26.624a3.076 3.076 0 003.072-3.072 3.076 3.076 0 00-3.072-3.072zm0 4.096H18.408a1.025 1.025 0 010-2.048h26.624a1.025 1.025 0 010 2.048z"/><path d="M42.984 54.312c-3.398 0-5.12-2.411-5.12-7.168 0-.565-.459-1.024-1.024-1.024H26.6c-.565 0-1.024.459-1.024 1.024 0 4.757-1.722 7.168-5.12 7.168a1.024 1.024 0 000 2.048h22.528a1.024 1.024 0 000-2.048zm-17.54 0c1.26-1.397 2.003-3.476 2.152-6.144h8.249c.148 2.668.89 4.747 2.152 6.144H25.444zM49.93 31.235l-2.471-2.472 1.375-1.375a1.025 1.025 0 00-.429-1.705l-10.24-3.072a1.022 1.022 0 00-1.275 1.275l3.072 10.24a1.023 1.023 0 001.705.43l1.448-1.449 2.472 2.473a1.022 1.022 0 001.448 0l2.896-2.897c.4-.4.4-1.047 0-1.448zm-3.62 2.173l-2.25-2.252a1.336 1.336 0 00-1.89-.001l-.74.74-2.032-6.776 6.776 2.032-.793.793c-.218.22-.338.51-.338.82 0 .31.121.602.34.82l2.376 2.375-1.448 1.449zM44.008 9.256H15.336c-.565 0-1.024.459-1.024 1.024v5.12c0 .565.459 1.024 1.024 1.024h28.672c.565 0 1.024-.459 1.024-1.024v-5.12c0-.565-.459-1.024-1.024-1.024zm-1.024 5.12H16.36v-3.072h26.624v3.072h0zM27.624 20.52h-8.192c-.565 0-1.024.459-1.024 1.024v4.096c0 .565.459 1.024 1.024 1.024h8.192c.565 0 1.024-.459 1.024-1.024v-4.096c0-.565-.459-1.024-1.024-1.024zM26.6 24.616h-6.144v-2.048H26.6v2.048h0z"/><path d="M44.008 9.256H15.336c-.565 0-1.024.459-1.024 1.024v19.456c0 .565.459 1.024 1.024 1.024h24.377a1.024 1.024 0 00.981-1.319l-1.296-4.322 4.316 1.295c.31.093.646.034.905-.16.26-.192.413-.497.413-.82V10.28c0-.565-.459-1.024-1.024-1.024zm-1.024 14.8l-4.82-1.445a1.022 1.022 0 00-1.275 1.276l1.448 4.825H16.36V11.304h26.624v12.753h0z"/></g></svg>