<svg width="63" height="63" viewBox="0 0 63 63" xmlns="http://www.w3.org/2000/svg"><g fill="#7D7D7D" fill-rule="nonzero" stroke="#FFF" stroke-width=".4"><path d="M48.36 1H4.84A3.84 3.84 0 001 4.84v30.72a3.84 3.84 0 003.84 3.84h16.64v-2.56H4.84a1.28 1.28 0 01-1.28-1.28V4.84c0-.707.573-1.28 1.28-1.28h43.52c.707 0 1.28.573 1.28 1.28v23.04h2.56V4.84A3.84 3.84 0 0048.36 1z"/><path d="M16.36 38.12h2.56v7.68h-2.56zM9.96 31.72a1.28 1.28 0 01-1.28-1.28v-2.56H6.12v2.56a3.84 3.84 0 003.84 3.84h2.56v-2.56H9.96zM6.12 22.76h2.56v2.56H6.12zM47.78 28.113a13.907 13.907 0 00-9.835-4.074c-7.68 0-13.907 6.227-13.907 13.907 0 7.681 6.227 13.907 13.908 13.907 3.688 0 7.224-1.465 9.832-4.072 5.432-5.43 5.433-14.236.002-19.668zm-9.842 21.181c-6.267-.002-11.345-5.084-11.343-11.35.002-6.268 5.084-11.346 11.351-11.344a11.264 11.264 0 018.024 3.328 11.348 11.348 0 013.32 8.023c-.003 6.267-5.085 11.346-11.352 11.343zM62.065 56.68l-8.035-8.032a1.28 1.28 0 00-1.81 0l-3.57 3.571c-.5.5-.5 1.31 0 1.81l8.034 8.036c.24.24.566.375.905.375h0a1.28 1.28 0 00.905-.379l3.571-3.571c.5-.5.5-1.31 0-1.81zm-4.476 2.67l-6.225-6.226 1.761-1.761 6.225 6.226-1.761 1.761z"/><path d="M45.97 47.78l1.81-1.81 4.464 4.463-1.81 1.81zM38.12 29.16v2.56a6.408 6.408 0 016.4 6.4h2.56a8.97 8.97 0 00-8.96-8.96zM13.8 44.52h10.24v2.56H13.8zM20.2 6.12a3.84 3.84 0 100 7.68 3.84 3.84 0 000-7.68zm0 5.12a1.28 1.28 0 110-2.56 1.28 1.28 0 010 2.56zM29.16 15.08a3.84 3.84 0 100 7.68 3.84 3.84 0 000-7.68zm0 5.12a1.28 1.28 0 110-2.56 1.28 1.28 0 010 2.56z"/><path d="M11.614 16.735l6.4-6.4 1.81 1.81-6.4 6.4zM20.569 12.149l1.81-1.81 6.4 6.4-1.81 1.81zM38.12 6.12a3.84 3.84 0 100 7.68 3.84 3.84 0 000-7.68zm0 5.12a1.28 1.28 0 110-2.56 1.28 1.28 0 010 2.56z"/><path d="M29.534 16.74l6.4-6.4 1.81 1.81-6.4 6.4z"/></g></svg>