<svg width="82" height="62" viewBox="0 0 82 62" xmlns="http://www.w3.org/2000/svg"><g stroke="#7D7D7D" stroke-width="2" fill="none" fill-rule="evenodd" stroke-linecap="round" stroke-linejoin="round"><path d="M74.765 46.39c0 1.65-1.35 3-3 3h-61.53c-1.65 0-3-1.35-3-3V4.875c0-1.65 1.35-3 3-3h61.529c1.65 0 3 1.35 3 3V46.39h.001zM80.819 60.125H1.181l5.91-7h67.818zM7.235 44.125h67.53"/><g><path d="M41 28.641a5.014 5.014 0 01-5.007-5.007A5.013 5.013 0 0141 18.627a5.013 5.013 0 015.007 5.007A5.013 5.013 0 0141 28.641z"/><path d="M53.472 25.422l.001-3.578-1.935-.672a10.703 10.703 0 00-1.347-3.246l.893-1.847-2.53-2.53-1.845.894a10.778 10.778 0 00-3.248-1.348l-.673-1.934h-3.577l-.673 1.934a10.752 10.752 0 00-3.248 1.348l-1.846-.893-2.53 2.53.894 1.846a10.76 10.76 0 00-1.347 3.247l-1.935.673v3.578l1.936.673a10.728 10.728 0 001.347 3.246l-.894 1.847 2.53 2.53 1.847-.894a10.731 10.731 0 003.245 1.346l.674 1.936h3.578l.673-1.936a10.731 10.731 0 003.245-1.346l1.848.893 2.53-2.53-.894-1.846a10.743 10.743 0 001.347-3.246l1.934-.675z"/></g></g></svg>