<svg width="51" height="54" viewBox="0 0 51 54" xmlns="http://www.w3.org/2000/svg"><g fill="none" fill-rule="evenodd"><path d="M47.509 19.32c0 5.01-4.065 9.075-9.075 9.075H10.19a7.216 7.216 0 112.71-13.901 10.55 10.55 0 01-.153-1.828c0-6.117 4.955-11.07 11.063-11.07 5.556 0 10.158 4.088 10.951 9.427a9.045 9.045 0 013.672-.778c5.01 0 9.075 4.065 9.075 9.075" fill="#327DA2"/><path d="M10.191 16.047c-1.389 0-2.69.546-3.663 1.537a5.097 5.097 0 00-1.47 3.693c.052 2.777 2.462 5.036 5.373 5.036h27.746c3.884 0 7.065-2.92 7.242-6.65a6.942 6.942 0 00-1.924-5.167 6.933 6.933 0 00-5.06-2.169c-.84 0-1.666.15-2.452.445a2.518 2.518 0 01-3.353-1.866c-.83-4.188-4.538-7.229-8.818-7.229-4.953 0-8.982 4.033-8.982 8.99 0 .324.016.641.048.941a2.497 2.497 0 01-2.49 2.759c-.247 0-.491-.036-.728-.108a5.088 5.088 0 00-1.469-.212m27.986 11.692H10.43c-3.683 0-6.732-2.887-6.798-6.435a6.512 6.512 0 011.878-4.719 6.51 6.51 0 014.68-1.964c.646 0 1.28.092 1.881.273.4.121.844-.005 1.12-.311.202-.224.3-.525.268-.825-.037-.35-.056-.717-.056-1.092 0-5.743 4.669-10.415 10.408-10.415 4.959 0 9.256 3.524 10.217 8.379a1.09 1.09 0 001.452.807 8.37 8.37 0 012.953-.536c2.324 0 4.488.927 6.093 2.61a8.356 8.356 0 012.316 6.22c-.213 4.49-4.02 8.008-8.666 8.008" fill="#FFF"/><path fill="#FFF" d="M16.558 22.382h17.37V16.37h-17.37z"/><path fill="#C0E6FF" d="M16.558 28.395h17.37v-6.012h-17.37z"/><path fill="#FFF" d="M16.558 34.407h17.37v-6.012h-17.37z"/><path fill="#C0E6FF" d="M16.558 40.42h17.37v-6.012h-17.37z"/><path d="M17.27 21.67h15.944v-4.587H17.271v4.586zm16.657 1.425h-17.37a.713.713 0 01-.712-.713V16.37c0-.394.319-.713.713-.713h17.37c.393 0 .712.319.712.713v6.012c0 .394-.319.713-.713.713z" fill="#4A4A4A"/><path d="M17.27 27.682h15.944v-4.587H17.271v4.587zm16.657 1.426h-17.37a.713.713 0 01-.712-.713v-6.013c0-.393.319-.713.713-.713h17.37c.393 0 .712.32.712.713v6.013c0 .394-.319.713-.713.713z" fill="#4A4A4A"/><path d="M17.27 33.695h15.944v-4.587H17.271v4.587zm16.657 1.425h-17.37a.713.713 0 01-.712-.712v-6.013c0-.394.319-.713.713-.713h17.37c.393 0 .712.32.712.713v6.013c0 .393-.319.712-.713.712z" fill="#4A4A4A"/><path d="M17.27 39.707h15.944V35.12H17.271v4.587zm16.657 1.426h-17.37a.713.713 0 01-.712-.713v-6.012c0-.394.319-.713.713-.713h17.37c.393 0 .712.319.712.713v6.012c0 .394-.319.713-.713.713zM10.191 14.678c-1.76 0-3.407.692-4.64 1.947a6.456 6.456 0 00-1.86 4.678c.064 3.517 3.088 6.379 6.74 6.379h27.746c4.616 0 8.397-3.494 8.61-7.954a8.3 8.3 0 00-2.301-6.177 8.29 8.29 0 00-6.052-2.593c-1.005 0-1.992.18-2.933.532a1.144 1.144 0 01-1.528-.85c-.956-4.827-5.23-8.332-10.161-8.332-5.708 0-10.35 4.647-10.35 10.358 0 .373.018.738.055 1.085.039.376-.111.744-.402.985a1.14 1.14 0 01-1.06.213 6.448 6.448 0 00-1.864-.271m27.986 14.43H10.43c-4.424 0-8.087-3.49-8.167-7.779a7.87 7.87 0 012.27-5.703 7.87 7.87 0 015.657-2.374c.638 0 1.266.074 1.87.221a12.288 12.288 0 01-.025-.807c0-6.498 5.282-11.784 11.776-11.784 5.502 0 10.284 3.835 11.492 9.165a9.734 9.734 0 013.13-.515 9.702 9.702 0 017.084 3.035 9.712 9.712 0 012.693 7.229c-.249 5.222-4.656 9.312-10.034 9.312" fill="#4A4A4A"/><path d="M39.071 46.682a.713.713 0 01-.713-.713V35.12H12.127V45.57a.713.713 0 01-1.426 0V34.408c0-.394.319-.713.713-.713H39.07c.394 0 .713.319.713.713v11.561c0 .394-.319.713-.713.713" fill="#4A4A4A"/><path d="M12.983 45.97a1.57 1.57 0 10-3.14 0 1.57 1.57 0 003.14 0M20.444 52.568a.713.713 0 01-.713-.713V40.42a.713.713 0 111.426 0v11.435c0 .394-.319.713-.713.713M30.04 52.568a.713.713 0 01-.712-.713V40.42a.713.713 0 111.426 0v11.435c0 .394-.32.713-.713.713" fill="#2A9EE1"/><path d="M22.014 52.256a1.57 1.57 0 10-3.14 0 1.57 1.57 0 003.14 0M31.61 52.256a1.57 1.57 0 10-3.14 0 1.57 1.57 0 003.14 0" fill="#4A4A4A"/><path d="M40.641 45.97a1.57 1.57 0 10-3.14 0 1.57 1.57 0 003.14 0M1.835 45.65a.784.784 0 10-1.568 0 .784.784 0 001.568 0m3.013 0a.784.784 0 10-1.569 0 .784.784 0 001.569 0m0-3.454a.784.784 0 10-1.569 0 .784.784 0 001.569 0M7.86 45.65a.784.784 0 10-1.569 0 .784.784 0 001.569 0m0-3.454a.784.784 0 10-1.569 0 .784.784 0 001.569 0m-.784-2.67a.784.784 0 110-1.568.784.784 0 010 1.569M50.574 45.65a.784.784 0 10-1.568 0 .784.784 0 001.568 0m-3.012 0a.784.784 0 10-1.568 0 .784.784 0 001.568 0m0-3.454a.784.784 0 10-1.568 0 .784.784 0 001.568 0M44.55 45.65a.784.784 0 10-1.569 0 .784.784 0 001.569 0m0-3.454a.784.784 0 10-1.569 0 .784.784 0 001.569 0m-.784-4.238a.784.784 0 110 1.569.784.784 0 010-1.57M30.451 20.005h1.039v-1.038H30.45zM28.718 20.005h1.038v-1.038h-1.038zM26.984 20.005h1.039v-1.038h-1.039zM30.451 25.908h1.039v-1.039H30.45zM28.718 25.908h1.038v-1.039h-1.038zM26.984 25.908h1.039v-1.039h-1.039zM30.451 31.81h1.039v-1.038H30.45zM28.718 31.81h1.038v-1.038h-1.038zM26.984 31.81h1.039v-1.038h-1.039zM30.451 37.713h1.039v-1.038H30.45zM28.718 37.713h1.038v-1.038h-1.038zM26.984 37.713h1.039v-1.038h-1.039z" fill="#2A9EE1"/></g></svg>