<svg width="63" height="63" viewBox="0 0 63 63" xmlns="http://www.w3.org/2000/svg"><g fill="#7D7D7D" fill-rule="nonzero" stroke="#FFF" stroke-width=".4"><path d="M58.486 1.066H5.107C2.843 1.066 1 2.966 1 5.3v34.917c0 .584.46 1.058 1.027 1.058h59.54c.566 0 1.026-.474 1.026-1.058V5.3c0-2.334-1.843-4.234-4.107-4.234zM60.54 39.16H3.053V5.299c0-1.168.922-2.117 2.054-2.117h53.379c1.132 0 2.054.95 2.054 2.118v33.859z"/><path d="M61.566 39.159H2.026c-.566 0-1.026.474-1.026 1.058v5.29c0 2.334 1.843 4.233 4.107 4.233h53.379c2.264 0 4.107-1.9 4.107-4.233v-5.29c0-.584-.46-1.058-1.027-1.058zm-1.026 6.348c0 1.168-.922 2.117-2.054 2.117H5.107c-1.132 0-2.054-.95-2.054-2.117v-4.232H60.54v4.232h0z"/><path d="M34.876 43.392h-6.16c-.566 0-1.026.474-1.026 1.058 0 .584.46 1.058 1.027 1.058h6.16c.566 0 1.026-.474 1.026-1.058 0-.584-.46-1.058-1.027-1.058zM57.46 5.299H6.133c-.567 0-1.027.474-1.027 1.058v33.86c0 .584.46 1.058 1.027 1.058H57.46c.567 0 1.027-.474 1.027-1.058V6.357c0-.584-.46-1.058-1.027-1.058zm-1.026 33.86H7.159V7.415h49.275v31.744zM45.141 56.09h-26.69c-1.698 0-3.08 1.423-3.08 3.174 0 1.75 1.382 3.174 3.08 3.174h26.69c1.699 0 3.08-1.424 3.08-3.174s-1.382-3.175-3.08-3.175zm0 4.232h-26.69c-.566 0-1.026-.475-1.026-1.058 0-.584.46-1.059 1.026-1.059h26.69c.567 0 1.027.475 1.027 1.059 0 .583-.46 1.058-1.027 1.058z"/><path d="M43.088 56.09c-3.406 0-5.132-2.493-5.132-7.408 0-.584-.46-1.058-1.027-1.058H26.664c-.567 0-1.027.474-1.027 1.058 0 4.915-1.726 7.407-5.133 7.407-.566 0-1.026.474-1.026 1.058 0 .584.46 1.058 1.026 1.058h22.584c.567 0 1.027-.474 1.027-1.058 0-.584-.46-1.058-1.027-1.058zm-17.583 0c1.263-1.444 2.008-3.593 2.157-6.35h8.27c.148 2.757.892 4.906 2.157 6.35H25.505zM50.053 32.243l-2.478-2.554 1.378-1.421c.256-.264.358-.647.27-1.008a1.046 1.046 0 00-.7-.754L38.258 23.33a1.004 1.004 0 00-1.02.266c-.269.275-.367.68-.259 1.052l3.08 10.581c.104.358.382.632.732.723.349.089.722-.015.977-.279l1.452-1.497 2.478 2.556a1.009 1.009 0 001.452 0l2.902-2.994a1.08 1.08 0 000-1.496zm-3.63 2.245l-2.256-2.327a1.315 1.315 0 00-1.895 0l-.74.763-2.039-7.001 6.793 2.1-.794.82a1.21 1.21 0 00-.34.846c0 .32.122.623.342.847l2.381 2.455-1.451 1.497zM44.115 9.531H15.372c-.567 0-1.027.474-1.027 1.058v5.291c0 .584.46 1.058 1.027 1.058h28.743c.567 0 1.026-.474 1.026-1.058v-5.29c0-.585-.46-1.059-1.026-1.059zm-1.027 5.29h-26.69v-3.173h26.69v3.174h0zM27.69 21.17h-8.212c-.567 0-1.027.475-1.027 1.059v4.232c0 .584.46 1.058 1.027 1.058h8.212c.567 0 1.027-.474 1.027-1.058V22.23c0-.584-.46-1.058-1.027-1.058zm-1.026 4.233h-6.16v-2.116h6.16v2.116h0z"/><path d="M44.115 9.531H15.372c-.567 0-1.027.474-1.027 1.058v20.105c0 .584.46 1.058 1.027 1.058H39.81c.325 0 .63-.158.823-.427.194-.268.254-.615.16-.936l-1.3-4.466 4.327 1.338a1 1 0 00.908-.165c.26-.199.414-.514.414-.848V10.589c0-.584-.46-1.058-1.027-1.058zm-1.027 15.294l-4.832-1.494a1.004 1.004 0 00-1.02.266 1.08 1.08 0 00-.258 1.053l1.452 4.986H16.398V11.648h26.69v13.177h0z"/></g></svg>