<svg width="62" height="62" viewBox="0 0 62 62" xmlns="http://www.w3.org/2000/svg"><g fill="#7D7D7D" fill-rule="nonzero"><path d="M31.613 38.16a.972.972 0 00-1.296-.462c-.79.375-1.617.684-2.46.92a.972.972 0 00-.691.746l-1.029 5.144a1.093 1.093 0 01-1.07.876h-2.806c-.518 0-.967-.368-1.069-.876l-1.029-5.144a.973.973 0 00-.691-.746c-1.19-.333-2.34-.81-3.416-1.415a.973.973 0 00-1.016.038l-4.365 2.91c-.431.287-1.01.23-1.376-.136L7.314 38.03a1.094 1.094 0 01-.136-1.376l2.91-4.365a.972.972 0 00.038-1.017 15.448 15.448 0 01-1.415-3.415.972.972 0 00-.746-.692l-5.144-1.028a1.093 1.093 0 01-.876-1.07v-2.806c0-.518.368-.968.876-1.07l5.144-1.028a.973.973 0 00.746-.692c.333-1.19.81-2.34 1.415-3.415a.973.973 0 00-.038-1.017l-2.91-4.364a1.093 1.093 0 01.136-1.376L9.3 7.314a1.094 1.094 0 011.376-.136l4.365 2.91a.972.972 0 001.017.038 15.452 15.452 0 013.415-1.415.972.972 0 00.692-.746l1.028-5.144a1.093 1.093 0 011.07-.876h2.806c.518 0 .968.368 1.07.876l1.028 5.144c.072.36.34.647.692.746 1.19.333 2.34.81 3.415 1.415.32.18.712.165 1.017-.038l4.365-2.91c.43-.287 1.01-.23 1.376.136L40.015 9.3c.367.366.424.945.137 1.376l-2.91 4.365a.972.972 0 00-.039 1.016 15.452 15.452 0 011.416 3.416c.098.352.386.62.745.691l5.144 1.03c.508.1.877.55.877 1.068v2.807c0 .518-.369.967-.877 1.069l-5.144 1.029a.972.972 0 00-.745.692c-.242.863-.561 1.71-.948 2.518a.972.972 0 101.753.841c.35-.728.65-1.486.895-2.259l4.57-.914a3.044 3.044 0 002.44-2.976V22.26a3.044 3.044 0 00-2.44-2.976l-4.57-.914c-.3-.944-.68-1.861-1.135-2.74l2.585-3.878c.8-1.2.64-2.81-.379-3.83L39.406 5.94a3.044 3.044 0 00-3.83-.38l-3.879 2.586a17.414 17.414 0 00-2.739-1.135l-.914-4.57A3.043 3.043 0 0025.068 0H22.26a3.044 3.044 0 00-2.976 2.44l-.914 4.57c-.944.3-1.861.68-2.74 1.135L11.755 5.56c-1.2-.8-2.81-.64-3.83.379L5.938 7.923a3.044 3.044 0 00-.38 3.83l2.586 3.879A17.41 17.41 0 007.01 18.37l-4.57.914A3.043 3.043 0 000 22.261v2.807a3.044 3.044 0 002.44 2.976l4.57.914c.3.944.68 1.861 1.135 2.74L5.56 35.576c-.8 1.2-.64 2.81.379 3.83l1.984 1.985a3.044 3.044 0 003.83.379l3.879-2.586a17.41 17.41 0 002.739 1.135l.914 4.57a3.044 3.044 0 002.976 2.44h2.807a3.044 3.044 0 002.976-2.44l.914-4.57c.75-.238 1.485-.528 2.193-.864a.973.973 0 00.462-1.295z"/><path d="M32.088 29.068a.972.972 0 001.31-.422 10.966 10.966 0 001.198-4.981c0-6.028-4.904-10.932-10.931-10.932a10.872 10.872 0 00-7.631 3.104.972.972 0 001.358 1.392 8.938 8.938 0 016.272-2.551c4.956 0 8.987 4.031 8.987 8.987a8.89 8.89 0 01-.984 4.095.972.972 0 00.421 1.308zM14.561 19.503a.972.972 0 00-1.236.604 10.914 10.914 0 00-.592 3.558c0 6.028 4.904 10.932 10.932 10.932 2.318 0 4.533-.717 6.405-2.073a.973.973 0 00-1.14-1.575 8.921 8.921 0 01-5.265 1.702c-4.956 0-8.987-4.031-8.987-8.987 0-1.002.163-1.987.486-2.925a.972.972 0 00-.603-1.236zM59.721 42.503l-2.812-.562a11.764 11.764 0 00-.617-1.488l1.591-2.387a2.334 2.334 0 00-.29-2.938l-1.305-1.304a2.335 2.335 0 00-2.937-.29l-2.387 1.59c-.48-.239-.979-.445-1.488-.616l-.563-2.812a2.334 2.334 0 00-2.283-1.872h-1.844a2.335 2.335 0 00-2.283 1.872l-.562 2.812c-.51.171-1.008.377-1.489.617l-2.386-1.592a2.335 2.335 0 00-2.938.291l-1.304 1.304a2.334 2.334 0 00-.29 2.938l1.59 2.387a11.754 11.754 0 00-.794 2.066.973.973 0 001.873.524 9.814 9.814 0 01.9-2.17.973.973 0 00-.039-1.017l-1.912-2.869a.384.384 0 01.048-.483l1.304-1.304a.385.385 0 01.483-.048l2.869 1.912a.972.972 0 001.016.038 9.816 9.816 0 012.171-.899.972.972 0 00.692-.746l.675-3.38a.384.384 0 01.376-.308h1.844c.182 0 .34.13.376.308l.676 3.38c.072.36.34.648.692.746a9.814 9.814 0 012.17.9.973.973 0 001.017-.039l2.868-1.912a.384.384 0 01.484.048l1.304 1.304a.385.385 0 01.048.483l-1.913 2.869a.972.972 0 00-.038 1.017c.385.683.688 1.413.9 2.17.098.353.386.62.745.692l3.38.676a.384.384 0 01.308.375v1.845c0 .182-.13.34-.307.375l-3.38.676a.973.973 0 00-.747.692 9.814 9.814 0 01-.899 2.17.973.973 0 00.038 1.017l1.913 2.869c.1.151.08.354-.048.483l-1.304 1.304a.384.384 0 01-.484.048l-2.868-1.912a.973.973 0 00-1.017-.038 9.816 9.816 0 01-2.17.899.972.972 0 00-.692.746l-.676 3.38a.384.384 0 01-.376.308h-1.844a.384.384 0 01-.376-.308l-.676-3.38a.973.973 0 00-.691-.746 9.814 9.814 0 01-2.17-.9.973.973 0 00-1.018.038l-2.868 1.913a.384.384 0 01-.484-.048L35.2 54.913a.385.385 0 01-.047-.484l1.912-2.868a.972.972 0 00.038-1.017 9.816 9.816 0 01-.9-2.17.972.972 0 00-.745-.692l-3.38-.676a.384.384 0 01-.308-.376v-1.844c0-.182.13-.34.308-.376l.207-.04a.972.972 0 10-.382-1.908l-.207.041a2.335 2.335 0 00-1.871 2.283v1.845c0 1.105.787 2.066 1.871 2.282l2.813.563c.17.51.377 1.007.616 1.488l-1.59 2.387a2.334 2.334 0 00.29 2.938l1.304 1.304a2.334 2.334 0 002.938.29l2.386-1.59c.481.239.979.445 1.489.616l.562 2.812a2.335 2.335 0 002.283 1.872h1.845a2.335 2.335 0 002.282-1.872l.563-2.812c.51-.171 1.007-.378 1.488-.617l2.387 1.591c.92.614 2.156.491 2.938-.29l1.304-1.305a2.334 2.334 0 00.29-2.937l-1.59-2.387c.239-.48.445-.979.616-1.488l2.812-.563a2.334 2.334 0 001.872-2.283v-1.844a2.334 2.334 0 00-1.872-2.283z"/><path d="M45.708 42.207c1.93 0 3.501 1.57 3.501 3.501a.973.973 0 001.945 0 5.452 5.452 0 00-5.446-5.446 5.452 5.452 0 00-5.446 5.446 5.452 5.452 0 005.446 5.447 5.395 5.395 0 003.328-1.135.973.973 0 00-1.19-1.54 3.467 3.467 0 01-2.138.73 3.505 3.505 0 01-3.5-3.502c0-1.93 1.57-3.5 3.5-3.5zM29.59 23.665a5.932 5.932 0 00-5.925-5.925 5.932 5.932 0 00-5.925 5.925 5.932 5.932 0 005.925 5.925 5.932 5.932 0 005.925-5.925zm-9.905 0a3.985 3.985 0 013.98-3.98 3.985 3.985 0 013.98 3.98 3.985 3.985 0 01-3.98 3.98 3.985 3.985 0 01-3.98-3.98z"/></g></svg>