<svg width="52" height="62" viewBox="0 0 52 62" xmlns="http://www.w3.org/2000/svg"><g fill="#7D7D7D" fill-rule="nonzero"><path d="M11.034 16.945a53.522 53.522 0 01-4.527-.903 1.289 1.289 0 00-1.149.25c-.304.259-.427.642-.32 1.004.106.36.424.644.832.74a56.68 56.68 0 004.749.948c.069.01.139.016.209.016.607-.001 1.114-.41 1.167-.944.054-.534-.363-1.016-.96-1.111zM15.188 17.012c-.375-.061-.749.113-.977.454a1.303 1.303 0 00-.121 1.186c.153.391.483.657.86.693 3.507.445 7.033.664 10.562.655a82.22 82.22 0 0010.536-.651c.377-.036.708-.301.862-.692a1.303 1.303 0 00-.12-1.188c-.23-.342-.604-.515-.98-.453-3.419.431-6.857.643-10.298.634a80.36 80.36 0 01-10.324-.638zM15.188 35.012c-.375-.061-.749.113-.977.454a1.303 1.303 0 00-.121 1.186c.153.391.483.657.86.693 3.507.445 7.033.664 10.562.655a82.22 82.22 0 0010.536-.651c.377-.036.708-.301.862-.692a1.303 1.303 0 00-.12-1.188c-.23-.342-.604-.515-.98-.453-3.419.431-6.857.643-10.298.634a80.36 80.36 0 01-10.324-.638zM35.81 51.016c-3.419.431-6.857.643-10.298.634a80.36 80.36 0 01-10.324-.638c-.375-.061-.749.113-.977.454a1.303 1.303 0 00-.121 1.186c.153.391.483.657.86.693 3.507.445 7.033.664 10.562.655a82.22 82.22 0 0010.536-.651c.377-.036.708-.301.862-.692a1.303 1.303 0 00-.12-1.188c-.23-.342-.604-.515-.98-.453zM11.034 34.945a53.522 53.522 0 01-4.527-.903 1.289 1.289 0 00-1.149.25c-.304.259-.427.642-.32 1.004.106.36.424.644.832.74a56.68 56.68 0 004.749.948c.069.01.139.016.209.016.607-.001 1.114-.41 1.167-.944.054-.534-.363-1.016-.96-1.111zM11.034 50.945a53.522 53.522 0 01-4.527-.903 1.289 1.289 0 00-1.149.25c-.304.259-.427.642-.32 1.004.106.36.424.644.832.74a56.68 56.68 0 004.749.948c.069.01.139.016.209.016.607-.001 1.114-.41 1.167-.944.054-.534-.363-1.016-.96-1.111z"/><path d="M43.82 1.23A114.73 114.73 0 0026 .005 114.73 114.73 0 008.18 1.23C.93 2.43 0 3.966 0 5.171v49.596C0 59.52 13.08 62 26 62s26-2.48 26-7.233V5.171c0-1.205-.93-2.741-8.18-3.94zm6.1 37.005c0 2.107-9.318 5.166-23.92 5.166-14.602 0-23.92-3.059-23.92-5.166v-12.59c4.7 2.798 16.328 3.291 23.92 3.291 7.592 0 19.22-.493 23.92-3.29v12.59zm0-15.499c0 1.717-7.421 4.133-23.92 4.133-16.499 0-23.92-2.416-23.92-4.133V9.113c4.7 2.798 16.328 3.29 23.92 3.29 7.592 0 19.22-.492 23.92-3.29v13.623zM2.08 5.25C2.85 4.153 10.734 2.07 26 2.07c15.266 0 23.15 2.082 23.92 3.179v.954c0 1.717-7.421 4.133-23.92 4.133-16.499 0-23.92-2.416-23.92-4.133V5.25zM26 59.933c-14.602 0-23.92-3.059-23.92-5.166v-13.51C6.27 44.03 16.178 45.467 26 45.467c9.822 0 19.73-1.437 23.92-4.212v13.511c0 2.107-9.318 5.166-23.92 5.166z"/></g></svg>