<svg width="62" height="62" viewBox="0 0 62 62" xmlns="http://www.w3.org/2000/svg"><g fill="#7D7D7D" fill-rule="nonzero"><path d="M25.679 4.118c-11.902 0-21.55 9.649-21.55 21.55 0 11.903 9.648 21.551 21.55 21.551 11.901 0 21.55-9.648 21.55-21.55-.013-11.897-9.654-21.538-21.55-21.55zm0 2.053A19.477 19.477 0 0141.6 14.452l-2.565 2.566a4.05 4.05 0 00-2.07-.585 4.105 4.105 0 00-4.104 4.105 4.05 4.05 0 00.582 2.072l-6.72 6.72a3.98 3.98 0 00-4.144 0l-4.667-4.668a4.05 4.05 0 00.582-2.072 4.097 4.097 0 00-8.064-1.026H6.624A19.526 19.526 0 0125.679 6.17zm13.34 14.367a2.052 2.052 0 11-4.104 0 2.052 2.052 0 014.104 0zM26.705 32.852a2.052 2.052 0 11-4.105 0 2.052 2.052 0 014.105 0zM16.443 22.59a2.052 2.052 0 11-4.105 0 2.052 2.052 0 014.105 0zm18.71 20.127a19.48 19.48 0 01-9.474 2.45c-10.762.007-19.491-8.71-19.498-19.472 0-.694.036-1.388.11-2.079h4.14a4.105 4.105 0 003.96 3.079 4.05 4.05 0 002.071-.582l4.667 4.667a4.05 4.05 0 00-.582 2.072 4.105 4.105 0 008.21 0 4.05 4.05 0 00-.582-2.072l6.72-6.72a4.05 4.05 0 002.072.582 4.105 4.105 0 004.105-4.104 4.05 4.05 0 00-.582-2.072l2.237-2.236c5.223 9.406 1.831 21.265-7.575 26.487z"/><path d="M51.334 10.276a4.105 4.105 0 003.959-3.079h6.303V5.145h-6.303a4.105 4.105 0 00-3.96-3.079 4.105 4.105 0 00-4.104 4.105 4.05 4.05 0 00.582 2.072l-1.803 1.803C37.38-1.194 21.275-3.312 10.036 5.316c-11.24 8.627-13.358 24.732-4.73 35.972 8.143 10.61 23.07 13.183 34.296 5.913l3.097 3.097 1.451 1.45 8.261 8.262A5.38 5.38 0 1060.02 52.4l-8.261-8.26-1.452-1.452-3.097-3.097a25.57 25.57 0 000-27.847l2.053-2.052c.625.377 1.34.579 2.07.583zm0-6.158a2.052 2.052 0 110 4.105 2.052 2.052 0 010-4.105zm7.234 49.735a3.328 3.328 0 11-4.706 4.706l-8.26-8.261 4.705-4.706 8.261 8.26zm-9.712-9.713l-4.706 4.707-2.84-2.84c.144-.112.28-.234.422-.348a25.855 25.855 0 001.125-.954c.112-.103.219-.205.329-.308a26.4 26.4 0 001.222-1.222c.102-.11.205-.217.308-.329a25.405 25.405 0 00.954-1.124c.113-.142.235-.277.346-.422l2.84 2.84zm-3.98-4.766c-.322.451-.656.894-1.008 1.32-.103.124-.212.244-.318.366a23.12 23.12 0 01-2.48 2.48c-.123.103-.243.215-.367.318-.426.352-.868.686-1.32 1.009-10.623 7.59-25.387 5.13-32.977-5.493-7.59-10.624-5.13-25.388 5.494-32.977 10.623-7.59 25.387-5.13 32.977 5.493a23.64 23.64 0 010 27.484z"/></g></svg>