<svg width="62" height="62" viewBox="0 0 62 62" xmlns="http://www.w3.org/2000/svg"><g fill="#7D7D7D" fill-rule="nonzero"><path d="M4 4h2v2H4zM8 4h2v2H8zM12 4h2v2h-2z"/><path d="M62 25c0-6.877-4.112-12.8-10-15.474V3c0-1.654-1.346-3-3-3H3C1.346 0 0 1.346 0 3v44c0 1.654 1.346 3 3 3h36v6c0 3.309 2.691 6 6 6s6-2.691 6-6V44h-2v-2.495C56.447 39.699 62 32.994 62 25zm-2 0c0 8.271-6.729 15-15 15-3.969 0-7.573-1.561-10.259-4.087l1.45-1.381C38.51 36.677 41.6 38 45 38c7.168 0 13-5.832 13-13s-5.832-13-13-13-13 5.832-13 13c0 3.049 1.062 5.85 2.827 8.07l-1.456 1.387A14.922 14.922 0 0130 25c0-8.271 6.729-15 15-15s15 6.729 15 15zm-9 5V19H40v2h7.5L36.283 31.683A10.928 10.928 0 0134 25c0-6.065 4.935-11 11-11s11 4.935 11 11-4.935 11-11 11a10.94 10.94 0 01-7.359-2.848L49 22.333V30h2zM3 2h46c.551 0 1 .449 1 1v5.753A16.932 16.932 0 0045 8H2V3c0-.551.449-1 1-1zM2 47V10h35.017C31.658 12.864 28 18.511 28 25c0 4.117 1.473 7.896 3.917 10.841l-2.9 2.762L20 29.586l-16 16V48H3c-.551 0-1-.448-1-1zm10-6.586l4-4V48h-4v-7.586zM10 48H6v-1.586l4-4V48zm8-13.586l2-2 2 2V48h-4V34.414zm6 2l4 4V48h-4V36.414zM39 44v4h-9v-7.571l3.291-3.135A16.965 16.965 0 0041 41.505V44h-2zm10 12c0 2.206-1.794 4-4 4s-4-1.794-4-4V46h8v10zm-2-12h-4v-2.128c.657.077 1.322.128 2 .128.678 0 1.343-.051 2-.128V44z"/><path d="M7 18c1.654 0 3-1.346 3-3s-1.346-3-3-3-3 1.346-3 3 1.346 3 3 3zm0-4c.551 0 1 .449 1 1 0 .551-.449 1-1 1-.551 0-1-.449-1-1 0-.551.449-1 1-1zM12 12h14v2H12zM12 16h14v2H12zM7 26c1.654 0 3-1.346 3-3s-1.346-3-3-3-3 1.346-3 3 1.346 3 3 3zm0-4c.551 0 1 .449 1 1 0 .551-.449 1-1 1-.551 0-1-.449-1-1 0-.551.449-1 1-1zM12 20h14v2H12zM12 24h14v2H12zM44 52h2v2h-2zM44 48h2v2h-2zM44 56h2v2h-2z"/></g></svg>