<svg xmlns="http://www.w3.org/2000/svg" xmlns:xlink="http://www.w3.org/1999/xlink" viewBox="0 0 253.07 215.77"><defs><style>.cls-1{fill:#828282;}.cls-2{fill:none;}.cls-3{isolation:isolate;}.cls-4,.cls-5,.cls-6,.cls-7{mix-blend-mode:multiply;}.cls-4{fill:url(#_ÂÁ_Ï_ÌÌ_È_ËÂÌÚ_2);}.cls-5{fill:url(#_ÂÁ_Ï_ÌÌ_È_ËÂÌÚ_2-2);}.cls-6{fill:url(#_ÂÁ_Ï_ÌÌ_È_ËÂÌÚ_2-3);}.cls-7{fill:url(#_ÂÁ_Ï_ÌÌ_È_ËÂÌÚ_2-4);}.cls-8{fill:#012235;}.cls-9{fill:#0e89a5;}.cls-10{fill:#77cefa;}.cls-11{fill:#034462;}.cls-12{fill:#fff;}.cls-13{fill:#ed9f19;}.cls-14{fill:#e57917;}.cls-15{fill:#e5e3e4;}.cls-16{fill:#f5c300;}.cls-17{fill:#ab3529;}.cls-18{fill:#ef7f74;}.cls-19{fill:#fca251;}.cls-20{fill:#f16900;}.cls-21{fill:#727272;}.cls-22{fill:#b8bdc0;}.cls-23{clip-path:url(#clip-path);}.cls-24{fill:#bcbcbc;}.cls-25{clip-path:url(#clip-path-2);}.cls-26{clip-path:url(#clip-path-3);}</style><linearGradient id="_ÂÁ_Ï_ÌÌ_È_ËÂÌÚ_2" x1="168.66" y1="206.5" x2="220.44" y2="120.21" gradientUnits="userSpaceOnUse"><stop offset="0.13" stop-color="#a1a1bd"/><stop offset="0.89" stop-color="#fff"/></linearGradient><linearGradient id="_ÂÁ_Ï_ÌÌ_È_ËÂÌÚ_2-2" x1="31.64" y1="180.83" x2="83.42" y2="94.54" xlink:href="#_ÂÁ_Ï_ÌÌ_È_ËÂÌÚ_2"/><linearGradient id="_ÂÁ_Ï_ÌÌ_È_ËÂÌÚ_2-3" x1="136.45" y1="119.68" x2="188.23" y2="33.39" xlink:href="#_ÂÁ_Ï_ÌÌ_È_ËÂÌÚ_2"/><linearGradient id="_ÂÁ_Ï_ÌÌ_È_ËÂÌÚ_2-4" x1="92.56" y1="220.64" x2="144.68" y2="133.78" xlink:href="#_ÂÁ_Ï_ÌÌ_È_ËÂÌÚ_2"/><clipPath id="clip-path"><path class="cls-1" d="M68,203.64l-7.23-4.08a13.23,13.23,0,0,1-4.52-5.32l7.23,4.08A13.23,13.23,0,0,0,68,203.64Z"/></clipPath><clipPath id="clip-path-2"><path class="cls-2" d="M77.17,154.08,69.94,150a33.44,33.44,0,0,1,3.88-2.9l.69-.42A25.08,25.08,0,0,1,77.78,145L85,149.11a24.47,24.47,0,0,0-3.27,1.65l-.69.42A32.61,32.61,0,0,0,77.17,154.08Z"/></clipPath><clipPath id="clip-path-3"><path class="cls-2" d="M65,171.11,57.78,167c.4-.91.83-1.83,1.28-2.74a49.67,49.67,0,0,1,4.2-6.93l7.22,4.07a51.38,51.38,0,0,0-4.2,6.94C65.83,169.27,65.41,170.19,65,171.11Z"/></clipPath></defs><g class="cls-3"><g id="Layer_2" data-name="Layer 2"><g id="Layer_1-2" data-name="Layer 1"><path class="cls-4" d="M251.87,129.53l-2.27-1.28a2.35,2.35,0,0,0-2.34,0L138.2,191.45a2.36,2.36,0,0,0,0,4.07l2.1,1.25a2.35,2.35,0,0,0,2.39,0l109.22-63.16A2.36,2.36,0,0,0,251.87,129.53Z"/><path class="cls-5" d="M114.84,103.86l-2.26-1.28a2.37,2.37,0,0,0-2.35,0l-109,63.19a2.36,2.36,0,0,0,0,4.07l2.11,1.25a2.38,2.38,0,0,0,2.39,0L114.86,108A2.36,2.36,0,0,0,114.84,103.86Z"/><path class="cls-6" d="M219.66,42.71l-2.27-1.28a2.35,2.35,0,0,0-2.34,0L106,104.62a2.37,2.37,0,0,0,0,4.08l2.1,1.25a2.35,2.35,0,0,0,2.39,0L219.68,46.8A2.35,2.35,0,0,0,219.66,42.71Z"/><path class="cls-7" d="M181.84,146.51l-15-9a4.51,4.51,0,0,0-4.57-.05L56.57,198.33a4.51,4.51,0,0,0-.12,7.74l14.61,9a4.53,4.53,0,0,0,4.61.07l106.08-60.9A4.5,4.5,0,0,0,181.84,146.51Z"/><rect class="cls-8" x="141.67" y="69.35" width="2" height="46.28" transform="translate(-7.88 171.49) rotate(-60.64)"/><rect class="cls-8" x="44.95" y="130.94" width="2" height="46.28" transform="translate(-110.87 118.6) rotate(-60.64)"/><polygon class="cls-8" points="105.3 94.49 107.95 95.7 107.95 46.78 105.3 45.56 105.3 94.49"/><polygon class="cls-9" points="107.95 46.75 107.95 95.7 168.67 60.45 168.66 11.84 107.95 46.75"/><polygon class="cls-8" points="105.3 45.56 107.95 46.76 168.67 11.84 166.03 10.64 105.3 45.56"/><polygon class="cls-8" points="105.3 44.07 107.95 45.28 107.95 36.35 105.3 35.14 105.3 44.07"/><polygon class="cls-10" points="107.95 36.33 107.95 45.28 168.67 10.03 168.66 1.42 107.95 36.33"/><polygon class="cls-11" points="105.3 35.14 107.95 36.34 168.67 1.42 166.4 0 105.3 35.14"/><polygon class="cls-12" points="147.98 38.18 160.66 41.27 148.67 57.7 149.48 58.29 162.34 40.66 148.22 37.21 147.98 38.18"/><polygon class="cls-12" points="129.63 49.3 115.88 66.25 129.81 70.42 130.1 69.47 117.59 65.72 130.41 49.93 129.63 49.3"/><rect class="cls-8" x="55.84" y="74.7" width="54.52" height="2" transform="translate(-26.86 52.35) rotate(-30.34)"/><path class="cls-13" d="M185.4,122.7c-1.88-1.73-2.39-5.34-2.45-7.2v48.55a4.71,4.71,0,0,0,2.32,4.06,4.31,4.31,0,0,0,3.85.24,5.27,5.27,0,0,0,1.51-.67,4.61,4.61,0,0,0,1.72-3.63V120.78C192.35,124.54,188.18,125.26,185.4,122.7Z"/><polygon class="cls-14" points="137.58 188.3 182.95 162.24 182.95 115.16 137.58 141.22 137.58 188.3"/><path class="cls-12" d="M143.74,111.06a8.51,8.51,0,0,0-1.09,4.15v54.53l44-25.38V84.61l-40.62,23.92A7.38,7.38,0,0,0,143.74,111.06Z"/><path class="cls-15" d="M190.9,85l-.48-.28a4.56,4.56,0,0,0-4.22.06l-39.47,23.37a5.86,5.86,0,0,1,8.3,3.37,8,8,0,0,1,.51,3.5l36.2-21a6.62,6.62,0,0,0,1.5-3.75,6.33,6.33,0,0,0-.39-2.79A5.22,5.22,0,0,0,190.9,85Z"/><polygon class="cls-8" points="163.71 124.25 169.88 120.79 169.91 110.1 163.75 113.56 163.71 124.25"/><polygon class="cls-8" points="158.38 122.73 166.74 138.02 175.23 113.29 166.79 121.6 158.38 122.73"/><path class="cls-16" d="M144.62,194.12l46-26.44a4.61,4.61,0,0,0,1.72-3.63V120.68L146.7,146.84Z"/><path class="cls-13" d="M139.75,151a6.44,6.44,0,0,1-2.24-4.66v43.79a4.73,4.73,0,0,0,2.24,4.05,4.52,4.52,0,0,0,6.8-4.05V148.81C146.55,152.44,142.76,153.67,139.75,151Z"/><path class="cls-16" d="M164.09,128.69l-16.62,9.47a1.85,1.85,0,0,0-.92,1.59v28.93l20.26-11.56V130.27A1.82,1.82,0,0,0,164.09,128.69Z"/><polygon class="cls-17" points="0.72 154.99 3.38 156.21 3.38 107.28 0.72 106.06 0.72 154.99"/><polygon class="cls-9" points="3.37 107.26 3.38 156.2 64.1 120.95 64.09 72.34 3.37 107.26"/><polygon class="cls-18" points="0.72 106.06 3.38 107.26 64.1 72.34 61.45 71.14 0.72 106.06"/><polygon class="cls-8" points="0.72 104.57 3.38 105.79 3.38 96.86 0.72 95.64 0.72 104.57"/><polygon class="cls-10" points="3.37 96.83 3.38 105.78 64.1 70.53 64.09 61.92 3.37 96.83"/><polygon class="cls-11" points="0.72 95.64 3.38 96.84 64.1 61.92 61.83 60.5 0.72 95.64"/><polygon class="cls-19" points="24.01 130.62 46.64 103.61 24.01 100.28 24.01 130.62"/><polygon class="cls-20" points="27.56 134.17 50.19 107.16 27.56 103.83 27.56 134.17"/><path class="cls-12" d="M55,72.58a1.16,1.16,0,0,0-.45,1.12c.07.41.4.58.72.38A1.16,1.16,0,0,0,55.72,73C55.65,72.55,55.32,72.38,55,72.58Z"/><path class="cls-12" d="M57.53,71.08a1.17,1.17,0,0,0-.46,1.12c.08.41.4.58.72.38a1.16,1.16,0,0,0,.46-1.12C58.17,71.05,57.85,70.88,57.53,71.08Z"/><path class="cls-12" d="M60.05,69.58a1.16,1.16,0,0,0-.45,1.12c.07.41.39.58.72.38A1.18,1.18,0,0,0,60.77,70C60.7,69.55,60.37,69.38,60.05,69.58Z"/><path class="cls-12" d="M159.57,12.08a1.17,1.17,0,0,0-.45,1.11c.08.42.4.59.72.39a1.14,1.14,0,0,0,.45-1.12C160.22,12.05,159.9,11.88,159.57,12.08Z"/><path class="cls-12" d="M162.1,10.58a1.13,1.13,0,0,0-.45,1.11c.07.42.39.59.72.39a1.18,1.18,0,0,0,.45-1.12C162.74,10.55,162.42,10.38,162.1,10.58Z"/><path class="cls-12" d="M164.62,9.08a1.17,1.17,0,0,0-.45,1.11c.07.42.4.59.72.39a1.14,1.14,0,0,0,.45-1.12C165.27,9.05,165,8.88,164.62,9.08Z"/><rect class="cls-12" x="118.59" y="51.5" width="42.65" height="1" transform="translate(48.47 169.97) rotate(-72.61)"/><g class="cls-3"><path class="cls-21" d="M63.37,197.64a.89.89,0,0,0,.41.76l18.5,10.44a.9.9,0,0,1-.41-.76Z"/></g><path class="cls-15" d="M91.73,152.33l-4,1.68,16.61,9.37,4-1.68a.74.74,0,0,1,.65,0l-16.61-9.37A.77.77,0,0,0,91.73,152.33Z"/><path class="cls-22" d="M81.54,204,63,193.56l.33,4.08a.89.89,0,0,0,.41.76l18.5,10.44a.9.9,0,0,1-.41-.76Z"/><path class="cls-22" d="M85.79,142.48l12.86,7.3c1.8-2.31,3.09-4.92,4.2-4.3l-7.27-4.1C94.53,140.78,87.68,139.87,85.79,142.48Z"/><path class="cls-22" d="M85.1,148.06c3.31,1.87,8.5,8.25,8.5,17.44,0,25.16-25.64,40.33-32.6,28.17,13.06,22.81,53.45-6.76,38.51-38C97.92,152.35,85.1,148.06,85.1,148.06Z"/><path class="cls-22" d="M68,203.64l-7.23-4.08L58.8,204c-.36.82-.27,1.62.19,1.88,6.17,3.47,1.06.6,7.23,4.08-.46-.27-.55-1.06-.19-1.88Z"/><g class="cls-3"><path class="cls-15" d="M82.56,140.78c-1.46-.83.94,1.88-.85,1.82l11.55,6.48a51.48,51.48,0,0,1,6.25,1.15l-7.19-4Z"/></g><g class="cls-3"><path class="cls-1" d="M68,203.64l-7.23-4.08a13.23,13.23,0,0,1-4.52-5.32l7.23,4.08A13.23,13.23,0,0,0,68,203.64Z"/><g class="cls-23"><path class="cls-15" d="M63.44,198.32l-7.23-4.08a13.23,13.23,0,0,0,4.52,5.32L68,203.64A13.23,13.23,0,0,1,63.44,198.32Z"/></g></g><path class="cls-24" d="M84.86,138l-4.78,1,7.22,4.08,4.79-.95a.67.67,0,0,1,.51.06l-7.23-4.08A.72.72,0,0,0,84.86,138Z"/><path class="cls-22" d="M78.57,140.85,77.78,145,85,149.11l.79-4.18a2.46,2.46,0,0,1,1.5-1.86L80.08,139A2.46,2.46,0,0,0,78.57,140.85Z"/><path class="cls-15" d="M58.65,200.85l-1.31-5.13-7.23-4.08,1.32,5.13a.81.81,0,0,0,.37.52c6.17,3.49,1.06.61,7.23,4.09A.87.87,0,0,1,58.65,200.85Z"/><path class="cls-22" d="M50.09,191a.45.45,0,0,0,0,.11,1.46,1.46,0,0,0,0,.52l7.23,4.08a1.43,1.43,0,0,1,0-.51s0-.08,0-.12c.16-1.34,1.25-2,4.11-4.43l-7.23-4.08C51.47,188.92,50.27,189.57,50.09,191Z"/><g class="cls-3"><g class="cls-25"><path class="cls-15" d="M69.94,150l7.23,4.08a29.53,29.53,0,0,1,7.84-5L77.78,145A29.24,29.24,0,0,0,69.94,150Z"/></g></g><path class="cls-15" d="M54.74,176.84a35.76,35.76,0,0,0-.57,9.47l0,.27,7.23,4.08c0-.1,0-.18,0-.27a35.76,35.76,0,0,1,.57-9.47Z"/><path class="cls-24" d="M67.36,147c-.41.24-4.59,4.92-4.91,5.27l7.23,4.08c1.11-1.23,2.07-2.19,2.79-3,1.7-1.93,2.36-2.74,3-2.36l-7.23-4.08A.88.88,0,0,0,67.36,147Z"/><path class="cls-24" d="M60.42,172.58l-7.23-4.08-2,6.54c-.23.73-.09,1.37.31,1.59l7.22,4.08c-.39-.22-.53-.86-.3-1.59Z"/><g class="cls-3"><g class="cls-26"><path class="cls-15" d="M59.42,163.59l-.36.7c-.45.91-.88,1.83-1.28,2.74L65,171.11c.4-.92.82-1.84,1.27-2.74l.36-.7a51.79,51.79,0,0,1,3.84-6.24l-7.22-4.07A49.69,49.69,0,0,0,59.42,163.59Z"/></g></g><path class="cls-22" d="M69,158.15V158a1.9,1.9,0,0,1,.05-.4,1.1,1.1,0,0,1,0-.16,3.1,3.1,0,0,1,.21-.55,2.54,2.54,0,0,1,.4-.57l-7.23-4.08a2.5,2.5,0,0,0-.39.57h0a2.74,2.74,0,0,0-.21.54l0,.16a1.92,1.92,0,0,0-.05.41v.15a1.55,1.55,0,0,0,.11.46l1.39,2.83,7.22,4.07-1.38-2.82A1.15,1.15,0,0,1,69,158.15Z"/><path class="cls-22" d="M54.82,166.91c-.58,0-1.12.57-1.4,1.07l0,.06h0a2.53,2.53,0,0,0-.19.45l7.23,4.08a2.53,2.53,0,0,1,.19-.45,2.11,2.11,0,0,1,.39-.56,2.28,2.28,0,0,1,.22-.22c.67-.57.87-.35,3.79-.24L57.78,167Z"/><path class="cls-12" d="M108.27,161.7l-3.35,1.41c0-.1,0-.19,0-.29a22.21,22.21,0,0,0-2-7.84l2.66-3.7a2,2,0,0,0,.29-2.25L103,145.61a.79.79,0,0,0-1.08-.06,2.41,2.41,0,0,0-.66.6l-2.62,3.63a11.63,11.63,0,0,0-6.49-2.14L92.7,145l.2-1.31,0-.37a1.63,1.63,0,0,0,0-.38,1,1,0,0,0,0-.35.63.63,0,0,0-.82-.42l-4.79.95a1.29,1.29,0,0,0-.39.16,2.67,2.67,0,0,0-1.11,1.7L85,149.11a24.47,24.47,0,0,0-3.27,1.65l-.69.42a32.61,32.61,0,0,0-3.88,2.9l-1.38-2.81a.78.78,0,0,0-1.2-.23,1.88,1.88,0,0,0-.45.37l-4.46,4.9a2.3,2.3,0,0,0-.58,2.3l1.38,2.82a51.38,51.38,0,0,0-4.2,6.94c-.45.9-.87,1.82-1.27,2.74l-3-.12a1.15,1.15,0,0,0-.59.18,2.54,2.54,0,0,0-1,1.41l-2.05,6.54c-.29.9,0,1.65.61,1.68l3,.12a35.76,35.76,0,0,0-.57,9.47c0,.09,0,.17,0,.27l-3.24,2.77a2.52,2.52,0,0,0-.85,2.29l1.31,5.13a.78.78,0,0,0,1.27.44,1.44,1.44,0,0,0,.25-.18l3.27-2.79A13.23,13.23,0,0,0,68,203.64L66,208.07c-.39.89-.25,1.74.31,1.93l4.07,1.31a1.05,1.05,0,0,0,.79-.14,2.6,2.6,0,0,0,.94-1.14l2-4.48A17.18,17.18,0,0,0,81.54,204l.33,4.09c.07.77.65,1.07,1.35.65l4.92-3.11a2.62,2.62,0,0,0,1.11-2.22l-.34-4.08a42.55,42.55,0,0,0,6.93-7.58l2.49,1.7a.86.86,0,0,0,.94-.06,2.41,2.41,0,0,0,.81-.86l3.46-6.09c.47-.83.47-1.79,0-2.11l-2.47-1.68a47.28,47.28,0,0,0,3.25-10.2l3.39-1.43a1.51,1.51,0,0,0,.18-.09,2.67,2.67,0,0,0,1.15-2l.39-6.2C109.46,161.88,109,161.42,108.27,161.7ZM97.16,183.44A35.87,35.87,0,0,1,84.9,197.71l-.56.34c-9.85,5.87-18.3,1.47-19.25-10-.47-5.64,1-12.12,4-18.27s7.44-11.22,12.26-14.27l.58-.36c9.83-5.86,18.29-1.45,19.23,10C101.68,170.8,100.24,177.29,97.16,183.44Z"/></g></g></g></svg>