<svg xmlns="http://www.w3.org/2000/svg" xmlns:xlink="http://www.w3.org/1999/xlink" viewBox="0 0 213.23 160.59"><defs><style>.cls-1{isolation:isolate;}.cls-2{opacity:0.3;fill:url(#linear-gradient);}.cls-2,.cls-3{mix-blend-mode:screen;}.cls-3{opacity:0.1;fill:url(#linear-gradient-2);}.cls-4{fill:#74f9fc;}.cls-5{fill:#223068;}.cls-6{fill:url(#radial-gradient);}.cls-7{fill:url(#radial-gradient-2);}.cls-8{fill:url(#linear-gradient-3);}.cls-9{fill:url(#linear-gradient-4);}.cls-10{opacity:0.57;}.cls-11{fill:url(#linear-gradient-6);}.cls-12{fill:url(#linear-gradient-7);}.cls-13{fill:url(#linear-gradient-8);}.cls-14{fill:url(#linear-gradient-9);}.cls-15{fill:url(#linear-gradient-10);}.cls-16{fill:url(#linear-gradient-11);}.cls-17{fill:url(#linear-gradient-12);}.cls-18{fill:url(#linear-gradient-13);}.cls-19{fill:url(#linear-gradient-14);}.cls-20{fill:url(#radial-gradient-3);}.cls-21{fill:#162560;}.cls-22{fill:url(#radial-gradient-4);}.cls-23{fill:url(#radial-gradient-5);}.cls-24{fill:url(#linear-gradient-15);}.cls-25{fill:url(#linear-gradient-16);}.cls-26{fill:url(#linear-gradient-18);}.cls-27{fill:url(#linear-gradient-19);}.cls-28{fill:url(#linear-gradient-20);}.cls-29{fill:url(#linear-gradient-21);}.cls-30{fill:url(#linear-gradient-22);}.cls-31{fill:url(#linear-gradient-23);}.cls-32{fill:url(#linear-gradient-24);}.cls-33{fill:url(#linear-gradient-25);}.cls-34{fill:url(#linear-gradient-26);}.cls-35{fill:url(#linear-gradient-27);}.cls-36{fill:url(#linear-gradient-28);}.cls-37{fill:url(#linear-gradient-29);}.cls-38{opacity:0.8;}.cls-39{fill:#f16900;}</style><linearGradient id="linear-gradient" y1="91.66" x2="212.55" y2="91.66" gradientUnits="userSpaceOnUse"><stop offset="0" stop-color="#6deaf6"/><stop offset="0.23" stop-color="#5ac8f3"/><stop offset="0.76" stop-color="#307eed"/><stop offset="1" stop-color="#2061ea"/></linearGradient><linearGradient id="linear-gradient-2" x1="0.68" y1="99.25" x2="213.23" y2="99.25" xlink:href="#linear-gradient"/><radialGradient id="radial-gradient" cx="134.72" cy="81.18" r="20.46" gradientTransform="translate(215.17 -53.97) rotate(89.69)" gradientUnits="userSpaceOnUse"><stop offset="0" stop-color="#6be4f3"/><stop offset="0.22" stop-color="#95bea8"/><stop offset="0.67" stop-color="#f16900"/><stop offset="0.84" stop-color="#753300"/><stop offset="1"/></radialGradient><radialGradient id="radial-gradient-2" cx="134.72" cy="69.69" r="20.46" gradientTransform="translate(203.67 -65.41) rotate(89.69)" xlink:href="#radial-gradient"/><linearGradient id="linear-gradient-3" x1="123.84" y1="44.8" x2="145.09" y2="69.32" gradientTransform="translate(191.34 -77.68) rotate(89.69)" gradientUnits="userSpaceOnUse"><stop offset="0" stop-color="#21acef"/><stop offset="1" stop-color="#0974c2"/></linearGradient><linearGradient id="linear-gradient-4" x1="134.72" y1="63.56" x2="134.72" y2="50.81" gradientUnits="userSpaceOnUse"><stop offset="0" stop-color="#21acef"/><stop offset="1" stop-color="#6deaf6"/></linearGradient><linearGradient id="linear-gradient-6" x1="134.9" y1="78.6" x2="134.9" y2="75.64" gradientUnits="userSpaceOnUse"><stop offset="0" stop-color="#6deaf6"/><stop offset="1" stop-color="#21acef"/></linearGradient><linearGradient id="linear-gradient-7" x1="129.97" y1="78.03" x2="129.97" y2="75.07" xlink:href="#linear-gradient-6"/><linearGradient id="linear-gradient-8" x1="139.91" y1="78.03" x2="139.91" y2="75.07" xlink:href="#linear-gradient-6"/><linearGradient id="linear-gradient-9" x1="134.9" y1="90.3" x2="134.9" y2="87.35" xlink:href="#linear-gradient-6"/><linearGradient id="linear-gradient-10" x1="129.97" y1="89.73" x2="129.97" y2="86.77" xlink:href="#linear-gradient-6"/><linearGradient id="linear-gradient-11" x1="139.91" y1="89.73" x2="139.91" y2="86.77" xlink:href="#linear-gradient-6"/><linearGradient id="linear-gradient-12" x1="134.9" y1="102" x2="134.9" y2="99.05" xlink:href="#linear-gradient-6"/><linearGradient id="linear-gradient-13" x1="129.97" y1="101.43" x2="129.97" y2="98.48" xlink:href="#linear-gradient-6"/><linearGradient id="linear-gradient-14" x1="139.91" y1="101.43" x2="139.91" y2="98.48" xlink:href="#linear-gradient-6"/><radialGradient id="radial-gradient-3" cx="75.69" cy="81.18" r="20.46" gradientTransform="translate(156.47 5.05) rotate(89.69)" gradientUnits="userSpaceOnUse"><stop offset="0" stop-color="#6be4f3"/><stop offset="0.22" stop-color="#95bea8"/><stop offset="0.67" stop-color="#f16900"/><stop offset="0.84" stop-color="#753300"/><stop offset="1"/></radialGradient><radialGradient id="radial-gradient-4" cx="75.69" cy="69.57" r="20.46" gradientTransform="translate(144.85 -6.5) rotate(89.69)" xlink:href="#radial-gradient"/><radialGradient id="radial-gradient-5" cx="75.69" cy="58.07" r="20.46" gradientTransform="translate(133.36 -17.93) rotate(89.69)" xlink:href="#radial-gradient"/><linearGradient id="linear-gradient-15" x1="64.82" y1="33.19" x2="86.06" y2="57.7" gradientTransform="translate(121.02 -30.2) rotate(89.69)" xlink:href="#linear-gradient-3"/><linearGradient id="linear-gradient-16" x1="75.69" y1="51.95" x2="75.69" y2="39.2" xlink:href="#linear-gradient-4"/><linearGradient id="linear-gradient-18" x1="75.87" y1="66.99" x2="75.87" y2="64.03" xlink:href="#linear-gradient-6"/><linearGradient id="linear-gradient-19" x1="70.94" y1="66.41" x2="70.94" y2="63.46" xlink:href="#linear-gradient-6"/><linearGradient id="linear-gradient-20" x1="80.88" y1="66.41" x2="80.88" y2="63.46" xlink:href="#linear-gradient-6"/><linearGradient id="linear-gradient-21" x1="75.87" y1="78.69" x2="75.87" y2="75.74" xlink:href="#linear-gradient-6"/><linearGradient id="linear-gradient-22" x1="70.94" y1="78.12" x2="70.94" y2="75.16" xlink:href="#linear-gradient-6"/><linearGradient id="linear-gradient-23" x1="80.88" y1="78.12" x2="80.88" y2="75.16" xlink:href="#linear-gradient-6"/><linearGradient id="linear-gradient-24" x1="75.87" y1="90.39" x2="75.87" y2="87.44" xlink:href="#linear-gradient-6"/><linearGradient id="linear-gradient-25" x1="70.94" y1="89.82" x2="70.94" y2="86.87" xlink:href="#linear-gradient-6"/><linearGradient id="linear-gradient-26" x1="80.88" y1="89.82" x2="80.88" y2="86.87" xlink:href="#linear-gradient-6"/><linearGradient id="linear-gradient-27" x1="75.87" y1="101.51" x2="75.87" y2="98.56" xlink:href="#linear-gradient-6"/><linearGradient id="linear-gradient-28" x1="70.94" y1="100.94" x2="70.94" y2="97.98" xlink:href="#linear-gradient-6"/><linearGradient id="linear-gradient-29" x1="80.88" y1="100.94" x2="80.88" y2="97.98" xlink:href="#linear-gradient-6"/></defs><g class="cls-1"><g id="Layer_2" data-name="Layer 2"><g id="Layer_1-2" data-name="Layer 1"><polygon class="cls-2" points="212.55 91.64 106.27 30.32 106.27 30.32 106.27 30.32 0 91.64 106.27 153 106.27 152.99 106.27 153 212.55 91.64"/><polygon class="cls-3" points="213.23 99.24 106.96 37.92 106.95 37.92 106.95 37.92 0.68 99.24 106.95 160.59 106.95 160.59 106.96 160.59 213.23 99.24"/><rect class="cls-4" x="109.66" y="81.76" width="50.12" height="7.93"/><path class="cls-5" d="M159.78,79.64h-8.57c-9.51-4.85-23.8-4.86-33.22,0h-8.33V90.3h0c0,3.74,2.44,7.49,7.39,10.35,9.82,5.67,25.69,5.7,35.44.06,5-2.86,7.38-6.64,7.28-10.41h0Z"/><ellipse class="cls-6" cx="134.72" cy="81.18" rx="14.47" ry="25.06" transform="translate(52.81 215.46) rotate(-89.69)"/><rect class="cls-4" x="109.66" y="70.38" width="50.12" height="10.66"/><path class="cls-5" d="M159.78,68.26h-8.57c-9.51-4.85-23.8-4.86-33.22,0h-8.33V78.92h0c0,3.74,2.44,7.49,7.39,10.35,9.82,5.67,25.69,5.7,35.44.06,5-2.86,7.38-6.64,7.28-10.41h0Z"/><ellipse class="cls-7" cx="134.72" cy="69.69" rx="14.47" ry="25.06" transform="translate(64.3 204.02) rotate(-89.69)"/><rect class="cls-4" x="109.66" y="58.88" width="50.12" height="10.66"/><path class="cls-5" d="M159.78,56.77h-8.57c-9.51-4.86-23.8-4.87-33.22,0h-8.33V67.43h0c0,3.73,2.44,7.48,7.39,10.34,9.82,5.67,25.69,5.7,35.44.07,5-2.87,7.38-6.65,7.28-10.41h0Z"/><ellipse class="cls-8" cx="134.72" cy="57.35" rx="14.47" ry="25.06" transform="translate(76.64 191.76) rotate(-89.69)"/><path class="cls-9" d="M142.44,61.81c-4.24,2.45-11.13,2.43-15.4,0s-4.28-6.44,0-8.89,11.13-2.43,15.39,0S146.68,59.36,142.44,61.81Z"/><g class="cls-10"><path class="cls-9" d="M142.44,61.81c-4.24,2.45-11.13,2.43-15.4,0s-4.28-6.44,0-8.89,11.13-2.43,15.39,0S146.68,59.36,142.44,61.81Z"/></g><path class="cls-11" d="M136.37,77.12a1.48,1.48,0,1,1-1.47-1.48A1.47,1.47,0,0,1,136.37,77.12Z"/><path class="cls-12" d="M131.44,76.55A1.48,1.48,0,1,1,130,75.07,1.48,1.48,0,0,1,131.44,76.55Z"/><path class="cls-13" d="M141.39,76.55a1.48,1.48,0,1,1-1.48-1.48A1.48,1.48,0,0,1,141.39,76.55Z"/><circle class="cls-14" cx="134.9" cy="88.82" r="1.48"/><path class="cls-15" d="M131.44,88.25A1.48,1.48,0,1,1,130,86.77,1.47,1.47,0,0,1,131.44,88.25Z"/><path class="cls-16" d="M141.39,88.25a1.48,1.48,0,1,1-1.48-1.48A1.48,1.48,0,0,1,141.39,88.25Z"/><path class="cls-17" d="M136.37,100.53a1.48,1.48,0,1,1-1.47-1.48A1.47,1.47,0,0,1,136.37,100.53Z"/><path class="cls-18" d="M131.44,100A1.48,1.48,0,1,1,130,98.48,1.47,1.47,0,0,1,131.44,100Z"/><path class="cls-19" d="M141.39,100a1.48,1.48,0,1,1-1.48-1.48A1.47,1.47,0,0,1,141.39,100Z"/><rect class="cls-4" x="50.63" y="81.76" width="50.12" height="7.93"/><path class="cls-5" d="M100.75,79.65H92.19c-9.52-4.86-23.8-4.87-33.22,0H50.63V90.3h0c0,3.74,2.44,7.49,7.39,10.35,9.82,5.67,25.68,5.7,35.44.06,5-2.86,7.37-6.64,7.27-10.41h0Z"/><ellipse class="cls-20" cx="75.69" cy="81.18" rx="14.47" ry="25.06" transform="translate(-5.9 156.44) rotate(-89.69)"/><rect class="cls-4" x="50.63" y="70.38" width="50.12" height="10.66"/><ellipse class="cls-21" cx="75.69" cy="79.07" rx="14.47" ry="25.06" transform="translate(-3.79 154.34) rotate(-89.69)"/><rect class="cls-21" x="50.63" y="68.26" width="50.12" height="10.66"/><rect class="cls-4" x="50.63" y="70.15" width="50.12" height="7.93"/><path class="cls-5" d="M100.75,68H92.19c-9.52-4.85-23.8-4.86-33.22,0H50.63V78.69h0c0,3.74,2.44,7.49,7.39,10.35,9.82,5.67,25.68,5.7,35.44.06,5-2.86,7.37-6.64,7.27-10.41h0Z"/><ellipse class="cls-22" cx="75.69" cy="69.57" rx="14.47" ry="25.06" transform="translate(5.71 144.89) rotate(-89.69)"/><rect class="cls-4" x="50.63" y="58.76" width="50.12" height="10.66"/><path class="cls-5" d="M100.75,56.65H92.19c-9.52-4.85-23.8-4.86-33.22,0H50.63V67.31h0c0,3.74,2.44,7.49,7.39,10.35,9.82,5.67,25.68,5.69,35.44.06,5-2.86,7.37-6.64,7.27-10.41h0Z"/><ellipse class="cls-23" cx="75.69" cy="58.07" rx="14.47" ry="25.06" transform="translate(17.21 133.45) rotate(-89.69)"/><rect class="cls-4" x="50.63" y="47.27" width="50.12" height="10.66"/><path class="cls-5" d="M100.75,45.15H92.19c-9.52-4.85-23.8-4.86-33.22,0H50.63V55.81h0c0,3.74,2.44,7.49,7.39,10.35,9.82,5.67,25.68,5.7,35.44.06,5-2.86,7.37-6.64,7.27-10.41h0Z"/><ellipse class="cls-24" cx="75.69" cy="45.74" rx="14.47" ry="25.06" transform="translate(29.55 121.18) rotate(-89.69)"/><path class="cls-25" d="M83.42,50.2a17.05,17.05,0,0,1-15.4,0c-4.27-2.46-4.29-6.44,0-8.89a17,17,0,0,1,15.4,0C87.63,43.77,87.66,47.75,83.42,50.2Z"/><g class="cls-10"><path class="cls-25" d="M83.42,50.2a17.05,17.05,0,0,1-15.4,0c-4.27-2.46-4.29-6.44,0-8.89a17,17,0,0,1,15.4,0C87.63,43.77,87.66,47.75,83.42,50.2Z"/></g><path class="cls-26" d="M77.35,65.51A1.48,1.48,0,1,1,75.87,64,1.48,1.48,0,0,1,77.35,65.51Z"/><path class="cls-27" d="M72.42,64.94a1.48,1.48,0,1,1-1.48-1.48A1.47,1.47,0,0,1,72.42,64.94Z"/><path class="cls-28" d="M82.36,64.94a1.48,1.48,0,1,1-1.48-1.48A1.47,1.47,0,0,1,82.36,64.94Z"/><path class="cls-29" d="M77.35,77.21a1.48,1.48,0,1,1-1.48-1.47A1.48,1.48,0,0,1,77.35,77.21Z"/><path class="cls-30" d="M72.42,76.64a1.48,1.48,0,1,1-1.48-1.48A1.48,1.48,0,0,1,72.42,76.64Z"/><path class="cls-31" d="M82.36,76.64a1.48,1.48,0,1,1-1.48-1.48A1.48,1.48,0,0,1,82.36,76.64Z"/><path class="cls-32" d="M77.35,88.92a1.48,1.48,0,1,1-1.48-1.48A1.47,1.47,0,0,1,77.35,88.92Z"/><path class="cls-33" d="M72.42,88.34a1.48,1.48,0,1,1-1.48-1.47A1.48,1.48,0,0,1,72.42,88.34Z"/><path class="cls-34" d="M82.36,88.34a1.48,1.48,0,1,1-1.48-1.47A1.48,1.48,0,0,1,82.36,88.34Z"/><path class="cls-35" d="M77.35,100a1.48,1.48,0,1,1-1.48-1.47A1.48,1.48,0,0,1,77.35,100Z"/><path class="cls-36" d="M72.42,99.46A1.48,1.48,0,1,1,70.94,98,1.48,1.48,0,0,1,72.42,99.46Z"/><path class="cls-37" d="M82.36,99.46A1.48,1.48,0,1,1,80.88,98,1.48,1.48,0,0,1,82.36,99.46Z"/><g class="cls-38"><polygon class="cls-39" points="143.41 11.7 140.74 10.16 140.74 7.1 143.41 8.64 143.41 11.7"/><polygon class="cls-39" points="127.05 1.89 125.95 1.26 125.95 0 127.05 0.63 127.05 1.89"/><polygon class="cls-39" points="138.16 21.83 137.06 21.2 137.06 19.94 138.16 20.57 138.16 21.83"/><polygon class="cls-39" points="135.93 47.42 134.51 46.59 134.51 44.96 135.93 45.78 135.93 47.42"/><polygon class="cls-39" points="126.83 27.81 128.25 26.99 128.25 25.35 126.83 26.18 126.83 27.81"/><polygon class="cls-39" points="133.09 10.88 134.38 10.14 134.38 8.66 133.09 9.4 133.09 10.88"/><polygon class="cls-39" points="131.78 50.19 133.07 49.45 133.07 47.97 131.78 48.71 131.78 50.19"/><polygon class="cls-39" points="141.16 30.6 142.45 29.86 142.45 28.37 141.16 29.12 141.16 30.6"/><polygon class="cls-39" points="138.9 36.1 140.32 35.27 140.32 33.64 138.9 34.46 138.9 36.1"/><polygon class="cls-39" points="134.74 20.29 136.16 19.47 136.16 17.84 134.74 18.66 134.74 20.29"/></g><g class="cls-38"><polygon class="cls-39" points="69.43 11.62 68.33 10.99 68.33 9.73 69.43 10.36 69.43 11.62"/><polygon class="cls-39" points="81.81 7.22 80.72 6.59 80.72 5.33 81.81 5.97 81.81 7.22"/><polygon class="cls-39" points="76.46 41.34 75.04 40.52 75.04 38.88 76.46 39.7 76.46 41.34"/><polygon class="cls-39" points="78.81 17.09 80.23 16.27 80.23 14.64 78.81 15.46 78.81 17.09"/><polygon class="cls-39" points="70.21 27.33 71.51 26.58 71.51 25.1 70.21 25.84 70.21 27.33"/><polygon class="cls-39" points="72.31 44.11 73.6 43.37 73.6 41.89 72.31 42.63 72.31 44.11"/><polygon class="cls-39" points="79.44 30.02 80.86 29.2 80.86 27.56 79.44 28.39 79.44 30.02"/><polygon class="cls-39" points="75.27 14.21 76.69 13.39 76.69 11.76 75.27 12.58 75.27 14.21"/></g></g></g></g></svg>