<svg id="Layer_1" data-name="Layer 1" xmlns="http://www.w3.org/2000/svg" xmlns:xlink="http://www.w3.org/1999/xlink" viewBox="0 0 200 200"><defs><style>.cls-1{opacity:0.3;fill:url(#linear-gradient);}.cls-2{fill:#fff;}.cls-3{fill:url(#linear-gradient-2);}.cls-4{fill:url(#linear-gradient-3);}.cls-5{fill:url(#linear-gradient-4);}.cls-6{fill:url(#linear-gradient-5);}.cls-7{fill:url(#linear-gradient-6);}.cls-8{fill:url(#linear-gradient-7);}.cls-9{fill:url(#linear-gradient-8);}.cls-10{fill:url(#linear-gradient-9);}.cls-11{fill:url(#linear-gradient-10);}</style><linearGradient id="linear-gradient" x1="107.11" y1="203.03" x2="107.11" y2="14.93" gradientUnits="userSpaceOnUse"><stop offset="0" stop-color="#5f1499"/><stop offset="1" stop-color="#00b9ff"/></linearGradient><linearGradient id="linear-gradient-2" x1="156.15" y1="203.03" x2="156.15" y2="14.93" xlink:href="#linear-gradient"/><linearGradient id="linear-gradient-3" x1="156.15" y1="203.03" x2="156.15" y2="14.93" xlink:href="#linear-gradient"/><linearGradient id="linear-gradient-4" x1="54.25" y1="203.03" x2="54.25" y2="14.93" xlink:href="#linear-gradient"/><linearGradient id="linear-gradient-5" x1="118.41" y1="203.03" x2="118.41" y2="14.93" xlink:href="#linear-gradient"/><linearGradient id="linear-gradient-6" x1="91.15" y1="203.03" x2="91.15" y2="14.93" xlink:href="#linear-gradient"/><linearGradient id="linear-gradient-7" x1="118.41" y1="203.03" x2="118.41" y2="14.93" xlink:href="#linear-gradient"/><linearGradient id="linear-gradient-8" x1="35.06" y1="203.03" x2="35.06" y2="14.93" xlink:href="#linear-gradient"/><linearGradient id="linear-gradient-9" x1="44.9" y1="203.03" x2="44.9" y2="14.93" xlink:href="#linear-gradient"/><linearGradient id="linear-gradient-10" x1="50.66" y1="203.03" x2="50.66" y2="14.93" xlink:href="#linear-gradient"/></defs><circle class="cls-1" cx="107.11" cy="105.27" r="52.71"/><path class="cls-2" d="M38.27,107.65a22.44,22.44,0,0,1,16-6.62,22.79,22.79,0,0,1,5.22.61A60.21,60.21,0,0,1,59,93.81a59.44,59.44,0,0,1,.33-6.33l0-.09a36.48,36.48,0,0,0-10,0L47,93.74a1.49,1.49,0,0,1-1,.94,28.33,28.33,0,0,0-6.35,2.63,1.5,1.5,0,0,1-1.38,0l-6.07-2.88a36.2,36.2,0,0,0-7.08,7.07L28,107.61a1.53,1.53,0,0,1,0,1.38,29.57,29.57,0,0,0-2.65,6.36,1.49,1.49,0,0,1-.94,1L18,118.62a37,37,0,0,0,0,10l6.34,2.26a1.49,1.49,0,0,1,.94,1,28.92,28.92,0,0,0,2.64,6.35,1.5,1.5,0,0,1,.05,1.38l-2.89,6.07a36.53,36.53,0,0,0,7.08,7.08l6.07-2.89a1.5,1.5,0,0,1,1.38.05A29.41,29.41,0,0,0,46,152.58a1.49,1.49,0,0,1,1,.94l2.26,6.34a37.28,37.28,0,0,0,10,0l2.26-6.34a1.49,1.49,0,0,1,1-.94,29.15,29.15,0,0,0,6.36-2.65,1.53,1.53,0,0,1,1.38,0l6.06,2.89a36.53,36.53,0,0,0,7.08-7.08l-2.88-6.07h0a59.73,59.73,0,0,1-6.1-5.81,22.73,22.73,0,0,1-10.88,10.41,1.49,1.49,0,0,1-1.92-.64,21,21,0,0,1-3.47,1,1.49,1.49,0,0,1-1.32,1.53,24.63,24.63,0,0,1-2.58.14,22.61,22.61,0,0,1-22.58-22.58q0-.64,0-1.26A1.48,1.48,0,0,1,33.27,121h0a20.8,20.8,0,0,1,.64-3.12h0a1.51,1.51,0,0,1-.9-1.93,22.6,22.6,0,0,1,1.38-3.05,1.5,1.5,0,0,1,2-.6l0,0a20.91,20.91,0,0,1,1.88-2.47l-.07,0A1.51,1.51,0,0,1,38.27,107.65Z"/><path class="cls-2" d="M97.25,72.65A29.91,29.91,0,0,1,148.3,94.88,37.43,37.43,0,0,1,168.08,96c0-.74,0-1.47,0-2.17a49.74,49.74,0,0,0-.52-7.12l-8.82-3.14a1.51,1.51,0,0,1-.94-1,39.75,39.75,0,0,0-3.6-8.66,1.53,1.53,0,0,1,0-1.38l4-8.45A49.79,49.79,0,0,0,148.16,54l-8.45,4a1.53,1.53,0,0,1-1.38,0,39,39,0,0,0-8.66-3.59,1.51,1.51,0,0,1-1-.94l-3.15-8.83a49.89,49.89,0,0,0-14.23,0l-3.15,8.83a1.51,1.51,0,0,1-1,.94A39,39,0,0,0,98.48,58a1.53,1.53,0,0,1-1.38,0l-8.45-4A49.79,49.79,0,0,0,78.58,64.05l4,8.45a1.53,1.53,0,0,1,0,1.38A39.75,39.75,0,0,0,79,82.54a1.51,1.51,0,0,1-.94,1L69.2,86.69a48.94,48.94,0,0,0,0,14.23L78,104.07a1.49,1.49,0,0,1,.94,1,40,40,0,0,0,3.6,8.66,1.53,1.53,0,0,1,0,1.38l-4,8.44a49.54,49.54,0,0,0,10.07,10.07l8.45-4a1.5,1.5,0,0,1,1.38,0,39.52,39.52,0,0,0,8.66,3.59,1.47,1.47,0,0,1,1,.94l3.15,8.83a49.63,49.63,0,0,0,7.12.51c.7,0,1.42,0,2.16-.05a37.86,37.86,0,0,1-1.11-19.77A29.7,29.7,0,0,1,97.25,115a26.43,26.43,0,0,1-2.52-2.86A1.49,1.49,0,0,1,95,110l0,0a28.31,28.31,0,0,1-3-5.61l0,0a1.67,1.67,0,0,1-.49.08,1.51,1.51,0,0,1-1.42-1A29.88,29.88,0,0,1,91,81.9a1.5,1.5,0,0,1,2-.78l0,0a28.48,28.48,0,0,1,4.32-6.35l0,0A1.49,1.49,0,0,1,97.25,72.65Z"/><path class="cls-2" d="M179,126.31a1.51,1.51,0,0,1-.94-1,21.74,21.74,0,0,0-2-4.8,1.53,1.53,0,0,1-.05-1.38l2.13-4.47a27.66,27.66,0,0,0-5.07-5.07l-4.47,2.12a1.5,1.5,0,0,1-1.38,0,21.94,21.94,0,0,0-4.8-2,1.53,1.53,0,0,1-1-.94l-1.66-4.67a27.76,27.76,0,0,0-7.17,0l-1.67,4.67a1.51,1.51,0,0,1-1,.94,22.14,22.14,0,0,0-4.8,2,1.5,1.5,0,0,1-1.38,0l-4.46-2.12a27.71,27.71,0,0,0-5.08,5.07l2.13,4.47a1.53,1.53,0,0,1,0,1.38,21.31,21.31,0,0,0-2,4.8,1.51,1.51,0,0,1-.94,1L128.65,128a28.05,28.05,0,0,0,0,7.17l4.67,1.67a1.49,1.49,0,0,1,.94,1,21.57,21.57,0,0,0,2,4.81,1.51,1.51,0,0,1,0,1.37l-2.13,4.47a27.4,27.4,0,0,0,5.08,5.07l4.46-2.12a1.53,1.53,0,0,1,1.38,0,21.69,21.69,0,0,0,4.8,2,1.49,1.49,0,0,1,1,.94l1.67,4.67a28.67,28.67,0,0,0,7.17,0l1.66-4.67a1.51,1.51,0,0,1,1-.94,21.5,21.5,0,0,0,4.8-2,1.53,1.53,0,0,1,1.38,0l4.47,2.12a27.35,27.35,0,0,0,5.07-5.07L176,144a1.5,1.5,0,0,1,.05-1.37,22,22,0,0,0,2-4.81,1.49,1.49,0,0,1,.94-1l4.67-1.67a28.05,28.05,0,0,0,0-7.17Zm-22.83,15.35a10.11,10.11,0,1,1,10.1-10.1A10.11,10.11,0,0,1,156.15,141.66Z"/><circle class="cls-2" cx="54.25" cy="123.62" r="5.71"/><path class="cls-2" d="M131.34,93.81a12.94,12.94,0,1,0-12.93,12.93A12.94,12.94,0,0,0,131.34,93.81Z"/><path class="cls-3" d="M185.51,125.45l-4.8-1.71a24.2,24.2,0,0,0-1.67-4l2.19-4.6a1.51,1.51,0,0,0-.14-1.52,30.82,30.82,0,0,0-7-7,1.5,1.5,0,0,0-1.53-.14L168,108.67a24.56,24.56,0,0,0-4-1.67l-1.71-4.8a1.51,1.51,0,0,0-1.17-1,31.19,31.19,0,0,0-9.88,0,1.51,1.51,0,0,0-1.16,1l-1.72,4.8a24.45,24.45,0,0,0-4,1.67l-4.6-2.19a1.49,1.49,0,0,0-1.52.14,31.07,31.07,0,0,0-7,7,1.49,1.49,0,0,0-.13,1.52l2.19,4.6a24.56,24.56,0,0,0-1.67,4l-4.8,1.71a1.49,1.49,0,0,0-1,1.17,30.7,30.7,0,0,0,0,9.88,1.49,1.49,0,0,0,1,1.16l4.8,1.72a24.45,24.45,0,0,0,1.67,4l-2.19,4.6a1.49,1.49,0,0,0,.13,1.52,30.91,30.91,0,0,0,7,7,1.51,1.51,0,0,0,1.52.13l4.6-2.19a24.45,24.45,0,0,0,4,1.67l1.72,4.8a1.49,1.49,0,0,0,1.16,1,30.7,30.7,0,0,0,9.88,0,1.49,1.49,0,0,0,1.17-1l1.71-4.8a24.56,24.56,0,0,0,4-1.67l4.59,2.19a1.5,1.5,0,0,0,1.53-.14,30.82,30.82,0,0,0,7-7,1.51,1.51,0,0,0,.14-1.52l-2.19-4.6a24.45,24.45,0,0,0,1.67-4l4.8-1.72a1.51,1.51,0,0,0,1-1.16,31.48,31.48,0,0,0,0-9.88A1.51,1.51,0,0,0,185.51,125.45Zm-1.86,9.69L179,136.81a1.49,1.49,0,0,0-.94,1,22.14,22.14,0,0,1-2,4.8A1.5,1.5,0,0,0,176,144l2.13,4.47a27.35,27.35,0,0,1-5.07,5.07l-4.47-2.12a1.53,1.53,0,0,0-1.38,0,21.5,21.5,0,0,1-4.8,2,1.51,1.51,0,0,0-1,.94l-1.66,4.67a28.67,28.67,0,0,1-7.17,0l-1.67-4.67a1.49,1.49,0,0,0-1-.94,21.69,21.69,0,0,1-4.8-2,1.53,1.53,0,0,0-1.38,0l-4.46,2.12a27.4,27.4,0,0,1-5.08-5.07L136.3,144a1.53,1.53,0,0,0,0-1.38,21.69,21.69,0,0,1-2-4.8,1.49,1.49,0,0,0-.94-1l-4.67-1.67a28.05,28.05,0,0,1,0-7.17l4.67-1.66a1.51,1.51,0,0,0,.94-1,21.31,21.31,0,0,1,2-4.8,1.53,1.53,0,0,0,0-1.38l-2.13-4.47a27.71,27.71,0,0,1,5.08-5.07l4.46,2.12a1.5,1.5,0,0,0,1.38,0,22.14,22.14,0,0,1,4.8-2,1.51,1.51,0,0,0,1-.94l1.67-4.67a27.76,27.76,0,0,1,7.17,0l1.66,4.67a1.53,1.53,0,0,0,1,.94,21.94,21.94,0,0,1,4.8,2,1.5,1.5,0,0,0,1.38,0l4.47-2.12a27.66,27.66,0,0,1,5.07,5.07L176,119.12a1.53,1.53,0,0,0,.05,1.38,21.74,21.74,0,0,1,2,4.8,1.51,1.51,0,0,0,.94,1l4.67,1.66a28.05,28.05,0,0,1,0,7.17Z"/><path class="cls-4" d="M156.15,121.45a10.11,10.11,0,1,0,10.1,10.11A10.12,10.12,0,0,0,156.15,121.45Zm0,17.21a7.11,7.11,0,1,1,7.1-7.1A7.11,7.11,0,0,1,156.15,138.66Z"/><path class="cls-5" d="M54.25,114.91A8.71,8.71,0,1,0,63,123.62,8.73,8.73,0,0,0,54.25,114.91Zm0,14.42A5.71,5.71,0,1,1,60,123.62,5.72,5.72,0,0,1,54.25,129.33Z"/><path class="cls-6" d="M145.2,97.08l0,.12v0l.06.16.05.12.07.1.09.14.07.07.14.14.07,0,.16.11.09,0,.18.08.09,0,.2,0h.2a1.18,1.18,0,0,0,.37,0A34.75,34.75,0,0,1,156.15,97a34.36,34.36,0,0,1,12.75,2.43,1.5,1.5,0,0,0,2-1.27c.12-1.51.18-3,.18-4.39a52,52,0,0,0-.69-8.47,1.49,1.49,0,0,0-1-1.17L160.52,81a42.84,42.84,0,0,0-3.27-7.88l4.07-8.56a1.5,1.5,0,0,0-.13-1.53,52.83,52.83,0,0,0-12-12,1.51,1.51,0,0,0-1.52-.14L139.12,55a42.53,42.53,0,0,0-7.89-3.27l-3.18-9a1.54,1.54,0,0,0-1.17-1,53,53,0,0,0-16.95,0,1.54,1.54,0,0,0-1.17,1l-3.18,9A42.53,42.53,0,0,0,97.69,55l-8.56-4.08a1.49,1.49,0,0,0-1.52.14,52.83,52.83,0,0,0-12,12,1.5,1.5,0,0,0-.13,1.53l4.07,8.56A42.84,42.84,0,0,0,76.29,81l-8.94,3.19a1.49,1.49,0,0,0-1,1.17,52.33,52.33,0,0,0,0,16.94,1.49,1.49,0,0,0,1,1.17l8.94,3.19a43.13,43.13,0,0,0,3.27,7.88l-4.07,8.56a1.48,1.48,0,0,0,.13,1.52,52.67,52.67,0,0,0,12,12,1.51,1.51,0,0,0,1.52.14l8.56-4.08a42.53,42.53,0,0,0,7.89,3.27l3.18,9a1.53,1.53,0,0,0,1.17,1,52.07,52.07,0,0,0,8.48.69c1.4,0,2.87-.06,4.38-.18a1.5,1.5,0,0,0,1.28-2,34.7,34.7,0,0,1-1.22-21.84,1.47,1.47,0,0,0-.31-1.36,1.5,1.5,0,0,0-1.3-.52,26.8,26.8,0,0,1-21.87-7.74,24.92,24.92,0,0,1-2.26-2.56A1.49,1.49,0,0,0,95,110l0,0a1.49,1.49,0,0,0-.28,2.1A26.43,26.43,0,0,0,97.25,115a29.7,29.7,0,0,0,22.21,8.75,37.86,37.86,0,0,0,1.11,19.77c-.74,0-1.46.05-2.16.05a49.63,49.63,0,0,1-7.12-.51l-3.15-8.83a1.47,1.47,0,0,0-1-.94,39.52,39.52,0,0,1-8.66-3.59,1.5,1.5,0,0,0-1.38,0l-8.45,4a49.54,49.54,0,0,1-10.07-10.07l4-8.44a1.53,1.53,0,0,0,0-1.38,40,40,0,0,1-3.6-8.66,1.49,1.49,0,0,0-.94-1l-8.82-3.15a48.94,48.94,0,0,1,0-14.23L78,83.55a1.51,1.51,0,0,0,.94-1,39.75,39.75,0,0,1,3.6-8.66,1.53,1.53,0,0,0,0-1.38l-4-8.45A49.79,49.79,0,0,1,88.65,54l8.45,4a1.53,1.53,0,0,0,1.38,0,39,39,0,0,1,8.66-3.59,1.49,1.49,0,0,0,1-.95l3.15-8.82a49.89,49.89,0,0,1,14.23,0l3.15,8.82a1.49,1.49,0,0,0,1,.95A39,39,0,0,1,138.33,58a1.53,1.53,0,0,0,1.38,0l8.45-4a49.79,49.79,0,0,1,10.07,10.07l-4,8.45a1.53,1.53,0,0,0,0,1.38,39.75,39.75,0,0,1,3.6,8.66,1.51,1.51,0,0,0,.94,1l8.82,3.14a49.74,49.74,0,0,1,.52,7.12c0,.7,0,1.43,0,2.17a37.43,37.43,0,0,0-19.78-1.1A29.91,29.91,0,0,0,97.25,72.65a1.49,1.49,0,0,0,0,2.12l0,0a1.49,1.49,0,0,0,2.09,0,26.92,26.92,0,0,1,45.8,21.88v.28Z"/><path class="cls-7" d="M91,81.9a29.88,29.88,0,0,0-.88,21.56,1.51,1.51,0,0,0,1.42,1,1.67,1.67,0,0,0,.49-.08l0,0a1.49,1.49,0,0,0,.89-1.88,26.9,26.9,0,0,1,.79-19.4,1.5,1.5,0,0,0-.74-2l0,0A1.5,1.5,0,0,0,91,81.9Z"/><path class="cls-8" d="M134.34,93.81a15.94,15.94,0,1,0-15.93,15.93A15.95,15.95,0,0,0,134.34,93.81Zm-28.87,0a12.94,12.94,0,1,1,12.94,12.93A12.95,12.95,0,0,1,105.47,93.81Z"/><path class="cls-9" d="M34.39,112.85A22.6,22.6,0,0,0,33,115.9a1.51,1.51,0,0,0,.9,1.93h0a1.41,1.41,0,0,0,.49.09,1.5,1.5,0,0,0,1.41-1A19,19,0,0,1,37,114.29a1.49,1.49,0,0,0-.56-2l0,0A1.5,1.5,0,0,0,34.39,112.85Z"/><path class="cls-10" d="M31.69,122.37q0,.61,0,1.26a22.61,22.61,0,0,0,22.58,22.58,24.63,24.63,0,0,0,2.58-.14,1.49,1.49,0,0,0,1.32-1.53v-.13a1.51,1.51,0,0,0-1.66-1.33,18.57,18.57,0,0,1-2.24.13,19.61,19.61,0,0,1-19.58-19.58c0-.37,0-.74,0-1.1a1.51,1.51,0,0,0-1.4-1.58h0A1.48,1.48,0,0,0,31.69,122.37Z"/><path class="cls-11" d="M47.89,162.68a39.15,39.15,0,0,0,12.72,0,1.5,1.5,0,0,0,1.17-1l2.3-6.47a32.38,32.38,0,0,0,5.58-2.31l6.19,2.95a1.51,1.51,0,0,0,1.52-.14,39.58,39.58,0,0,0,9-9,1.51,1.51,0,0,0,.14-1.52l-3.06-6.42a1.5,1.5,0,0,0-.55-1.11,55.74,55.74,0,0,1-7.75-7.61,1.5,1.5,0,0,0-1.4-.52,1.48,1.48,0,0,0-1.15.95,19.66,19.66,0,0,1-10.29,11,1.49,1.49,0,0,0-.75,2l.06.11a1.49,1.49,0,0,0,1.92.64,22.73,22.73,0,0,0,10.88-10.41,59.73,59.73,0,0,0,6.1,5.81h0l2.88,6.07a36.53,36.53,0,0,1-7.08,7.08l-6.06-2.89a1.53,1.53,0,0,0-1.38,0,29.15,29.15,0,0,1-6.36,2.65,1.49,1.49,0,0,0-1,.94l-2.26,6.34a37.28,37.28,0,0,1-10,0L47,153.52a1.49,1.49,0,0,0-1-.94,29.41,29.41,0,0,1-6.35-2.64,1.5,1.5,0,0,0-1.38-.05l-6.07,2.89a36.53,36.53,0,0,1-7.08-7.08L28,139.63a1.5,1.5,0,0,0-.05-1.38,28.92,28.92,0,0,1-2.64-6.35,1.49,1.49,0,0,0-.94-1L18,128.63a37,37,0,0,1,0-10l6.34-2.26a1.49,1.49,0,0,0,.94-1A29.57,29.57,0,0,1,27.94,109a1.53,1.53,0,0,0,0-1.38l-2.89-6.07a36.2,36.2,0,0,1,7.08-7.07l6.07,2.88a1.5,1.5,0,0,0,1.38,0A28.33,28.33,0,0,1,46,94.68a1.49,1.49,0,0,0,1-.94l2.26-6.35a36.48,36.48,0,0,1,10,0l0,.09A59.44,59.44,0,0,0,59,93.81a60.21,60.21,0,0,0,.51,7.83,22.79,22.79,0,0,0-5.22-.61,22.44,22.44,0,0,0-16,6.62,1.51,1.51,0,0,0,0,2.12l.07,0a1.49,1.49,0,0,0,2,0,19.59,19.59,0,0,1,20.41-4.61,1.49,1.49,0,0,0,2-1.66,57.15,57.15,0,0,1-.48-16,1.57,1.57,0,0,0-.07-.68l-.45-1.26a1.49,1.49,0,0,0-1.17-1,39.62,39.62,0,0,0-12.72,0,1.5,1.5,0,0,0-1.17,1L44.41,92a31.25,31.25,0,0,0-5.57,2.32l-6.19-2.95a1.51,1.51,0,0,0-1.52.14,39.58,39.58,0,0,0-9,9A1.51,1.51,0,0,0,22,102l3,6.19a32.24,32.24,0,0,0-2.31,5.58l-6.47,2.3a1.48,1.48,0,0,0-1,1.17,39.15,39.15,0,0,0,0,12.72,1.48,1.48,0,0,0,1,1.17l6.47,2.31A32,32,0,0,0,24.94,139l-3,6.19a1.51,1.51,0,0,0,.14,1.52,39.42,39.42,0,0,0,9,9,1.51,1.51,0,0,0,1.52.14l6.19-2.95a31.64,31.64,0,0,0,5.57,2.31l2.31,6.47A1.5,1.5,0,0,0,47.89,162.68Z"/></svg>