<svg id="Layer_1" data-name="Layer 1" xmlns="http://www.w3.org/2000/svg" viewBox="0 0 143 36">
  <defs>
    <style>
      .cls-1 {
        fill: #457c9f;
      }

      .cls-2 {
        fill: #024960;
      }

      .cls-3 {
        fill: #e27025;
      }
    </style>
  </defs>
  <title>new_3forge_website_logo</title>
  <g>
    <g>
      <rect class="cls-1" x="1.36653" y="24.91731" width="9.6395" height="9.73876" rx="2.57543"/>
      <rect class="cls-2" x="1.36653" y="12.78669" width="9.6395" height="9.73876" rx="2.57543"/>
      <rect class="cls-3" x="1.36653" y="0.65607" width="9.6395" height="9.73876" rx="2.57543"/>
      <rect class="cls-2" x="13.38439" y="12.78669" width="9.6395" height="9.73876" rx="2.57543"/>
      <rect class="cls-3" x="13.38439" y="0.65607" width="9.6395" height="9.73876" rx="2.57543"/>
      <rect class="cls-3" x="25.39642" y="0.65607" width="9.6395" height="9.73876" rx="2.57543"/>
    </g>
    <g>
      <path class="cls-2" d="M85.67952,26.7282a7.75272,7.75272,0,0,1-5.90789-2.204,8.80986,8.80986,0,0,1-2.09043-6.30533,10.49674,10.49674,0,0,1,.56049-3.5351,7.3169,7.3169,0,0,1,1.60572-2.66295,7.00762,7.00762,0,0,1,2.52979-1.66825,8.99248,8.99248,0,0,1,3.30232-.58154,9.08368,9.08368,0,0,1,3.33257.58154,7.01127,7.01127,0,0,1,2.52963,1.66825,7.15335,7.15335,0,0,1,1.59059,2.66295,10.76893,10.76893,0,0,1,.54538,3.5351,10.6047,10.6047,0,0,1-.5605,3.566,7.469,7.469,0,0,1-1.60571,2.67823,6.90664,6.90664,0,0,1-2.5298,1.68353A8.994,8.994,0,0,1,85.67952,26.7282Zm0-3.42816a3.05527,3.05527,0,0,0,2.71142-1.3162,6.67651,6.67651,0,0,0,.89384-3.76493,6.52221,6.52221,0,0,0-.89384-3.734,3.50219,3.50219,0,0,0-5.423,0,6.51834,6.51834,0,0,0-.89384,3.734,6.749,6.749,0,0,0,.87872,3.78021A3.05849,3.05849,0,0,0,85.67952,23.3Z"/>
      <path class="cls-2" d="M105.92717,10.05307c-.05418-.00715-.10428-.015-.16133-.02163a8.84649,8.84649,0,0,0-.99986-.04615,4.76679,4.76679,0,0,0-2.36293.6277,5.35593,5.35593,0,0,0-1.90883,1.88213V10.26093H96.374V26.714h4.2415V16.99471a3.20864,3.20864,0,0,1,.25739-1.25509,3.08453,3.08453,0,0,1,.80294-1.10165,2.78506,2.78506,0,0,1,1.15125-.6277,5.20161,5.20161,0,0,1,1.333-.1684,7.47116,7.47116,0,0,1,1.767.17938Z"/>
      <path class="cls-2" d="M59.05467,17.03106a5.008,5.008,0,0,0-2.56-2.09636,5.25938,5.25938,0,0,0,2.13592-2.005,5.54063,5.54063,0,0,0,.68167-2.7699A5.80138,5.80138,0,0,0,58.87286,7.91a4.80313,4.80313,0,0,0-1.333-1.82136,6.5828,6.5828,0,0,0-2.22673-1.20891A9.90469,9.90469,0,0,0,52.1926,4.436a9.79853,9.79853,0,0,0-3.18118.459,6.52333,6.52333,0,0,0-2.2571,1.28566,6.027,6.027,0,0,0-1.45416,1.95884,11.03362,11.03362,0,0,0-.80123,2.44159h4.21054a3.56152,3.56152,0,0,1,1.12-1.82949,3.73637,3.73637,0,0,1,2.33272-.67321,4.02079,4.02079,0,0,1,1.36343.19894,2.25215,2.25215,0,0,1,.87856.551,2.13232,2.13232,0,0,1,.48472.82633,3.25467,3.25467,0,0,1,.15151.99471A2.39555,2.39555,0,0,1,52.344,13.37341H49.9809v3.76492h2.12082a3.81824,3.81824,0,0,1,2.56.68881,2.87953,2.87953,0,0,1,.77252,2.24948,2.65886,2.65886,0,0,1-.92408,2.28034,3.87485,3.87485,0,0,1-2.37824.68882A3.50223,3.50223,0,0,1,49.6477,22.25a3.79658,3.79658,0,0,1-.95676-2.36175h-4.3411a10.727,10.727,0,0,0,.42008,2.13226A6.29112,6.29112,0,0,0,46.07269,24.362a6.71807,6.71807,0,0,0,2.40865,1.6988,9.42136,9.42136,0,0,0,3.77177.65793,10.2805,10.2805,0,0,0,3.42362-.50515A6.43523,6.43523,0,0,0,58.0246,24.821a5.25825,5.25825,0,0,0,1.34828-2.14253,8.562,8.562,0,0,0,.4241-2.75461A5.84434,5.84434,0,0,0,59.05467,17.03106Z"/>
      <polygon class="cls-2" points="77.247 8.395 77.247 4.477 63.038 4.477 63.038 26.728 67.553 26.728 67.553 17.244 74.618 17.244 74.618 13.326 67.553 13.326 67.553 8.395 77.247 8.395"/>
      <path class="cls-2" d="M119.32327,10.26093v1.80576a5.37175,5.37175,0,0,0-2.19643-1.80576,6.46941,6.46941,0,0,0-2.46917-.48987,6.79921,6.79921,0,0,0-2.89337.59682,6.1263,6.1263,0,0,0-2.16622,1.653,7.43468,7.43468,0,0,0-1.34817,2.52511,10.49739,10.49739,0,0,0-.46957,3.214,9.42874,9.42874,0,0,0,1.65124,5.846,5.85981,5.85981,0,0,0,4.98365,2.1734,6.25535,6.25535,0,0,0,2.772-.59682,5.09145,5.09145,0,0,0,2.01486-1.7599v.48953q0,1.01034-.07578,1.95887a5.27915,5.27915,0,0,1-.3938,1.68352,2.65571,2.65571,0,0,1-.98478,1.17837,3.31012,3.31012,0,0,1-1.848.444,9.22565,9.22565,0,0,1-1.2877-.07671,2.59057,2.59057,0,0,1-.90877-.29061,1.66659,1.66659,0,0,1-.606-.58155,2.65122,2.65122,0,0,1-.29083-.73013H108.4842a7.18619,7.18619,0,0,0,.5838,2.06161,4.94714,4.94714,0,0,0,1.55775,1.65264,5.98768,5.98768,0,0,0,2.22673.97942,14.24163,14.24163,0,0,0,3.257.32149,9.5825,9.5825,0,0,0,3.49924-.56626,4.90625,4.90625,0,0,0,2.12309-1.66825,6.9677,6.9677,0,0,0,1.30277-2.67823,14.36239,14.36239,0,0,0,.4091-3.59622V10.26093Zm-.09089,7.86632a6.23708,6.23708,0,0,1-.27269,1.97413,3.46283,3.46283,0,0,1-.75742,1.3162,2.85341,2.85341,0,0,1-1.16636.73465,4.5753,4.5753,0,0,1-1.46947.22949,3.074,3.074,0,0,1-2.3782-1.05582,5.34742,5.34742,0,0,1-.95433-3.59654,6.80748,6.80748,0,0,1,.27266-2.05085,4.0217,4.0217,0,0,1,.7423-1.40786,2.748,2.748,0,0,1,1.09059-.79576,3.55455,3.55455,0,0,1,1.31787-.24512,5.42724,5.42724,0,0,1,1.27255.15312,2.57366,2.57366,0,0,1,1.15125.62738,3.35939,3.35939,0,0,1,.83319,1.362,7.0436,7.0436,0,0,1,.31806,2.32651Z"/>
      <path class="cls-2" d="M137.00094,21.46765a2.64113,2.64113,0,0,1-2.90554,1.92406,3.3527,3.3527,0,0,1-2.72671-1.08639,4.80667,4.80667,0,0,1-.96944-3.015h10.96728v-1.7141a8.386,8.386,0,0,0-1.83305-5.69322,6.85066,6.85066,0,0,0-5.46837-2.112,8.78475,8.78475,0,0,0-3.2114.56627,6.80209,6.80209,0,0,0-2.49958,1.66824,7.6436,7.6436,0,0,0-1.62082,2.67823,10.44057,10.44057,0,0,0-.57561,3.59655,9.01053,9.01053,0,0,0,1.98445,6.24388q1.984,2.204,5.923,2.204a7.73775,7.73775,0,0,0,4.98365-1.39257,6.20085,6.20085,0,0,0,2.09378-3.868Zm-6.26853-6.35541a3.42155,3.42155,0,0,1,.6818-1.102,3.14564,3.14564,0,0,1,1.07547-.74993,3.71,3.71,0,0,1,1.48454-.27534,3.15012,3.15012,0,0,1,2.49938.91833,3.78057,3.78057,0,0,1,.80294,2.57094h-6.81666A4.22051,4.22051,0,0,1,130.73241,15.11224Z"/>
    </g>
  </g>
</svg>
