<?xml version="1.0" encoding="UTF-8"?>
<svg id="Layer_1" data-name="Layer 1" xmlns="http://www.w3.org/2000/svg" viewBox="0 0 939.01 719.67">
  <defs>
    <style>
      .cls-1 {
        fill: #3b91bb;
      }
    </style>
  </defs>
  <path class="cls-1" d="M54.57,267.8l152.87,68.26c.46.2.94.31,1.42.46.31.1.61.23.93.29.93.2,1.87.32,2.8.32s1.88-.13,2.8-.34c.33-.07.61-.2.93-.3.47-.15.96-.25,1.42-.47l152.56-69.03c3.69-1.67,6-4.97,5.99-8.56l-.46-186.35c0-.89-.16-1.74-.43-2.57-.09-.26-.23-.5-.35-.75-.23-.55-.48-1.08-.83-1.59-.2-.28-.45-.52-.67-.79-.36-.41-.73-.82-1.17-1.19-.3-.25-.64-.46-.97-.69-.28-.18-.5-.4-.81-.58-.21-.12-.44-.16-.65-.26-.18-.09-.31-.21-.5-.29L216.56.93c-3.04-1.25-6.58-1.24-9.62.02L54.39,64.21c-.19.08-.33.2-.5.29-.21.1-.45.15-.65.26-.3.17-.52.39-.81.58-.33.22-.67.44-.96.7-.44.37-.8.77-1.16,1.2-.22.26-.47.51-.66.79-.34.5-.6,1.04-.83,1.6-.11.25-.25.48-.34.74-.27.83-.42,1.69-.42,2.58l.46,186.36c0,3.56,2.33,6.85,6.03,8.5h0Z"/>
  <polygon class="cls-1" points="70.45 88.12 200.94 141.37 201.37 311.65 70.86 253.37 70.45 88.12"/>
  <polygon class="cls-1" points="223.72 311.61 223.29 141.32 353.55 87.42 353.96 252.66 223.72 311.61"/>
  <polygon class="cls-1" points="211.82 20.36 338.7 72.2 212.08 124.6 85.2 72.83 211.82 20.36"/>
  <path class="cls-1" d="M938.19,450.5c-.09-.26-.23-.5-.35-.75-.23-.55-.48-1.08-.83-1.59-.19-.28-.44-.52-.67-.79-.36-.41-.73-.82-1.17-1.19-.3-.25-.64-.46-.97-.69-.28-.18-.5-.4-.81-.58-.21-.12-.44-.16-.65-.26-.18-.09-.31-.21-.5-.29l-146.5-59.86-.46-186.05c0-.89-.16-1.74-.43-2.57-.09-.26-.23-.5-.35-.75-.23-.55-.48-1.08-.83-1.59-.2-.28-.45-.52-.67-.79-.36-.41-.73-.82-1.17-1.19-.3-.25-.64-.46-.97-.69-.28-.18-.5-.4-.81-.58-.2-.12-.44-.16-.65-.26-.18-.09-.33-.21-.5-.29l-152.88-62.46c-3.04-1.25-6.58-1.23-9.62.02l-152.57,63.22c-.19.08-.33.2-.5.29-.21.1-.45.15-.65.26-.3.17-.52.39-.8.58-.33.22-.67.44-.97.7-.44.36-.79.76-1.15,1.18-.23.26-.48.51-.68.8-.34.5-.59,1.03-.82,1.58-.11.25-.25.49-.34.75-.28.86-.43,1.71-.43,2.6l.46,186.06-141.41,58.6-148.05-60.49c-3.04-1.25-6.58-1.24-9.62.02L6.33,446.69c-.19.08-.33.2-.5.29-.21.1-.45.15-.65.26-.3.17-.52.39-.81.58-.33.22-.67.44-.96.7-.44.37-.8.77-1.16,1.2-.22.26-.47.51-.66.79-.34.5-.6,1.04-.83,1.6-.11.25-.25.48-.34.74-.27.83-.42,1.69-.42,2.58l.46,186.36c0,3.59,2.34,6.88,6.03,8.53l152.87,68.26c.46.2.94.31,1.42.46.31.1.61.23.93.29.93.2,1.87.32,2.8.32s1.88-.13,2.8-.34c.33-.07.61-.2.93-.3.47-.15.96-.25,1.42-.47l147.39-66.69,147.72,65.96c.46.2.94.31,1.42.46.31.1.61.23.93.29.93.2,1.87.32,2.8.32s1.88-.13,2.8-.34c.33-.07.61-.2.93-.3.47-.15.96-.25,1.42-.47l147.4-66.69,147.72,65.96c.46.2.95.31,1.43.46.3.1.61.22.92.29.93.2,1.87.32,2.8.32s1.88-.13,2.8-.34c.33-.07.61-.2.93-.3.47-.15.96-.25,1.42-.47l152.53-69.03c3.69-1.67,6-4.97,5.99-8.56l-.46-186.39c.05-.89-.12-1.73-.37-2.56h.01ZM774.87,505.56l-126.88-51.77,126.62-52.47,126.88,51.84-126.62,52.4ZM610.81,438l-130.53-58.27-.41-165.25,130.52,53.24.42,170.29h0ZM762.98,213.78l.41,165.25-130.24,58.92-.42-170.29,78.8-32.61,51.45-21.28ZM469.17,402.08l126.89,51.84-126.63,52.4-126.88-51.77,126.62-52.47ZM621.26,146.71l126.88,51.84-126.62,52.4-126.89-51.77,126.63-52.47ZM163.72,402.84l126.88,51.84-126.62,52.4-126.88-51.77,126.62-52.47ZM22.34,470.62l130.5,53.25.42,170.27-130.51-58.28-.41-165.25ZM175.19,523.81l130.25-53.9.41,165.24-130.24,58.94-.42-170.28ZM327.78,469.86l130.52,53.25.42,170.29-130.53-58.28-.41-165.25ZM480.64,523.05l102.22-42.29,28.04-11.61.41,165.24-130.24,58.94-.43-170.28ZM633.24,469.09l130.52,53.25.42,170.27-130.53-58.28-.41-165.25ZM786.52,692.57l-.42-170.29,130.23-53.9.41,165.24-130.22,58.95Z"/>
  <path class="cls-1" d="M338.91,313.21c-3.16-4.57-10.04-6.05-15.32-3.31-5.3,2.73-7.02,8.65-3.85,13.22l30.12,43.44-31.2-5.65c-5.99-1.09-11.96,2.25-13.23,7.45-1.27,5.21,2.59,10.31,8.63,11.41l60.26,10.9c.78.14,1.56.21,2.34.21,4.91-.01,9.38-2.84,10.73-7.08l16.01-50.03c1.64-5.13-1.85-10.43-7.79-11.84-5.93-1.41-12.09,1.6-13.73,6.73l-10.17,31.8-32.78-47.25Z"/>
</svg>