<?xml version="1.0" encoding="UTF-8"?>
<svg width="1200pt" height="1200pt" version="1.1" viewBox="0 0 1200 1200" xmlns="http://www.w3.org/2000/svg">
 <path fill="#3B91BB" d="m193.69 310.55v348.89c0 118.97 53.156 221.26 150.52 289.64l230.81 162.14c0.75 0.51562 1.6875 0.51562 2.4375 0l230.81-162.14c2.3906-1.6875 4.7812-3.375 7.0781-5.1094 0.51562-0.375 0.79688-0.9375 0.84375-1.5469 0.046875-0.65625-0.14062-1.2188-0.60938-1.6875l-26.531-26.531c-10.266-10.266-15.469-23.766-15.562-37.312 0-0.5625-0.23438-1.0781-0.60938-1.5l-15.562-15.562c-0.75-0.75-1.875-0.84375-2.7656-0.23438-119.58 85.969-287.26 75.188-394.78-32.344-119.53-119.53-119.53-313.31 0-432.84s313.31-119.53 432.84 0c107.53 107.53 118.31 275.16 32.344 394.78-0.60938 0.84375-0.51562 2.0156 0.23438 2.7656l15.562 15.562c0.42188 0.42188 0.89062 0.60938 1.5 0.60938 13.5 0.09375 27 5.2969 37.312 15.562l23.578 23.578c0.46875 0.46875 1.0781 0.70312 1.7344 0.60938s1.2188-0.42188 1.5469-0.98438c34.312-54.562 52.312-118.22 52.312-187.5v-348.84c0-0.89062-0.5625-1.6875-1.4062-2.0156-137.72-50.906-265.26-122.16-379.74-219.61-0.79688-0.70312-1.9688-0.70312-2.7656 0-114.47 97.453-242.02 168.71-379.74 219.61-0.89062 0.32812-1.4062 1.0781-1.4062 2.0156zm408 304.74c-1.5469 12.984-12.422 22.594-25.453 22.594-13.078 0-23.906-9.6562-25.453-22.594l-15.141-126.42c-1.7344-14.391 9.375-26.906 23.859-26.906h33.375c14.484 0 25.594 12.516 23.859 26.906zm-25.453 69.844c19.031 0 34.5 15.422 34.5 34.5 0 19.031-15.422 34.5-34.5 34.5-19.031 0-34.5-15.422-34.5-34.5 0-19.031 15.422-34.5 34.5-34.5zm256.13 157.22c7.9688-3.9375 17.953-2.5781 24.562 4.0312l143.21 143.21c8.2969 8.2969 8.2969 21.844 0 30.141l-15.094 15.094c-8.2969 8.2969-21.844 8.2969-30.141 0l-143.21-143.26c-6.6094-6.6094-7.9688-16.594-4.0312-24.562 0.42188-0.84375 0.23438-1.7812-0.42187-2.4375l-47.531-47.531c-0.79688-0.79688-2.0625-0.84375-2.9062-0.09375-107.62 94.547-271.69 90.422-374.44-12.281-107.02-107.02-107.02-280.55 0-387.56 107.02-107.02 280.55-107.02 387.56 0 102.75 102.75 106.83 266.76 12.281 374.44-0.75 0.84375-0.70313 2.1094 0.09375 2.9062l47.531 47.531c0.75 0.60938 1.6875 0.79688 2.5312 0.375zm-401.29-376.64c80.156-80.156 210.19-80.156 290.34 0 80.156 80.156 80.156 210.19 0 290.34-80.156 80.156-210.19 80.156-290.34 0-80.203-80.156-80.203-210.14 0-290.34z" fill-rule="evenodd"/>
</svg>
