<?xml version="1.0" encoding="UTF-8"?>
<svg width="1200pt" height="1200pt" version="1.1" viewBox="0 0 1200 1200" xmlns="http://www.w3.org/2000/svg">
 <path fill="#3B91BB" d="m523.2 30h-468c-13.199 0-25.199 10.801-25.199 25.199v468c0 13.199 10.801 25.199 25.199 25.199h468c13.199 0 25.199-10.801 25.199-25.199v-468c0-13.199-12-25.199-25.199-25.199zm-444 50.398h91.199l-91.199 91.199zm0 160.8 162-160.8h76.801l-238.8 237.6zm0 146.4 308.4-307.2h76.801l-384 384-0.003906-76.797zm418.8 111.6h-91.199l91.199-91.199zm0-162-160.8 162h-76.801l237.6-237.6zm0-146.4-307.2 308.4h-76.801l384-384z"/>
 <path fill="#3B91BB" d="m1144.8 30h-468c-13.199 0-25.199 10.801-25.199 25.199v468c0 13.199 10.801 25.199 25.199 25.199h468c13.199 0 25.199-10.801 25.199-25.199v-468c0-13.199-10.801-25.199-25.199-25.199zm-442.8 50.398h91.199l-91.199 91.199zm0 160.8 160.8-160.8h76.801l-237.6 237.6zm0 146.4 307.2-307.2h76.801l-384 384zm418.8 111.6h-91.199l91.199-91.199zm0-162-162 162h-76.801l237.6-237.6v75.602zm0-146.4-308.4 308.4h-76.801l384-384 0.003906 75.602z"/>
 <path fill="#3B91BB" d="m523.2 651.6h-468c-13.199 0-25.199 10.801-25.199 25.199v468c0 13.199 10.801 25.199 25.199 25.199h468c13.199 0 25.199-10.801 25.199-25.199v-468c0-14.402-12-25.199-25.199-25.199z"/>
 <path fill="#3B91BB" d="m1144.8 651.6h-468c-13.199 0-25.199 10.801-25.199 25.199v468c0 13.199 10.801 25.199 25.199 25.199h468c13.199 0 25.199-10.801 25.199-25.199v-468c0-14.402-10.801-25.199-25.199-25.199zm-442.8 49.199h91.199l-91.199 91.199zm0 162 160.8-160.8h76.801l-237.6 236.4zm0 146.4 307.2-307.2h76.801l-384 384zm418.8 110.4h-91.199l91.199-91.199zm0-160.8-162 160.8h-76.801l237.6-237.6v76.801zm0-146.4-308.4 307.2h-76.801l384-384 0.003906 76.797z"/>
</svg>
