<?xml version="1.0" encoding="UTF-8"?>
<svg width="1200pt" height="1200pt" version="1.1" viewBox="0 0 1200 1200" xmlns="http://www.w3.org/2000/svg">
 <path fill="#3B91BB" transform="rotate(180 600 600)" d="m1098.5 827.71c-26.734-26.734-62.27-41.461-100.04-41.461-18.277 0-35.941 3.6016-52.402 10.164l-206.36-323.23c69.973-81.66 67.199-204.24-10.117-281.55-81.191-81.168-212.79-81.168-293.96 0-81.168 81.18-81.168 212.79 0 293.95 5.2695 5.2578 11.23 9.2266 16.906 13.812l-190.87 298.98c-52.453-23.746-118.49-15.121-160.3 26.762-55.199 55.164-55.199 144.95 0 200.11 26.699 26.734 62.23 41.461 100.04 41.461 37.766 0 73.309-14.723 100.04-41.461 55.199-55.164 55.199-144.95 0-200.11-3.1797-3.1797-6.8984-5.5547-10.355-8.3633l190.07-297.73c30.457 17.113 63.961 26.531 97.922 27.109v239.46c-30.277 4.2109-58.355 17.531-80.375 39.539-55.199 55.164-55.199 144.95 0 200.15 26.734 26.699 62.27 41.426 100.04 41.426 37.801 0 73.332-14.723 100.04-41.461 55.199-55.164 55.199-144.95 0.035157-200.11-23.137-23.137-52.992-36.602-85.078-39.996v-241.66c36.227-5.4727 70.836-20.832 100.64-45.48l201.36 315.43c-6.0234 4.3672-11.965 8.8789-17.328 14.242-26.734 26.734-41.461 62.27-41.461 100.07 0 37.801 14.723 73.332 41.426 100.04 26.734 26.734 62.27 41.461 100.07 41.461 37.766 0 73.309-14.723 100.04-41.426 26.738-26.742 41.461-62.289 41.461-100.09 0-37.797-14.723-73.332-41.461-100.03zm-825.62 168.94c-38.242 38.242-104.77 38.137-142.96 0.035156-39.395-39.434-39.395-103.56 0.035157-142.98 19.055-19.094 44.438-29.617 71.449-29.617 26.977 0 52.355 10.523 71.473 29.617 39.398 39.422 39.398 103.55 0 142.95zm397.35-142.95c39.395 39.434 39.395 103.56 0 142.98-38.137 38.113-104.68 38.172-142.96 0-39.395-39.434-39.395-103.56 0-142.98 19.117-19.094 44.508-29.617 71.473-29.617 27.012 0.003906 52.402 10.527 71.484 29.617zm399.72 145.52c-38.242 38.242-104.77 38.207-142.96-0.035156-19.094-19.055-29.617-44.438-29.617-71.449 0-27.012 10.523-52.391 29.652-71.473 19.055-19.094 44.438-29.617 71.449-29.617 26.977 0 52.355 10.523 71.473 29.652 19.094 19.055 29.617 44.438 29.617 71.449 0 27.004-10.527 52.383-29.617 71.473z"/>
</svg>
