<?xml version="1.0" encoding="UTF-8"?>
<svg width="1200pt" height="1200pt" version="1.1" viewBox="0 0 1200 1200" xmlns="http://www.w3.org/2000/svg">
 <path fill="#3B91BB" d="m579 1017.8c40.312-5.8594 82.922-32.859 94.312-74.859l91.453-337.55c8.3906-31.078-34.781-55.688-57.234-33.141l-246.61 248.02c-46.547 46.922-31.922 142.45 36 181.92 24.656 14.25 53.438 19.734 81.609 15.609zm-12.703-104.3c-5.4375 1.6875-11.344 1.125-16.359-1.5469-10.266-6-13.781-19.172-7.875-29.531 3.5625-6.2812 10.078-10.359 17.344-10.828 7.2188-0.46875 14.203 2.7656 18.609 8.5312 4.3594 5.7656 5.5312 13.359 3.1406 20.203s-8.0625 12-15.094 13.781zm41.391 6.2344c-15 25.922-48.141 34.781-74.062 19.828-12.422-7.1719-21.516-19.031-25.266-32.906-3.7031-13.922-1.7344-28.688 5.4844-41.156 11.016-18.938 32.344-29.438 54.094-26.578s39.656 18.516 45.375 39.656c3.75 13.922 1.7812 28.734-5.5312 41.156zm143.16-512.86 137.16-136.92c-79.969-55.266-174.24-86.25-271.45-89.156v188.53c47.062 2.3906 93.047 15.234 134.53 37.547zm-456 190.31h-194.06c-17.109 94.875-6.8906 192.71 29.438 282l6 1.7812 157.92-101.02c-16.781-59.859-16.781-123.14 0-183zm600-32.625c-23.906-56.859-63.797-105.56-114.84-140.16l134.39-134.76c87.984 69.469 150.47 166.18 177.61 274.92zm205.22 32.625h-194.29c16.734 59.859 16.734 123.14 0 183l159.61 101.53 3.4688-1.0781c0.375-0.42188 0.65625-0.89062 0.84375-1.4531 36.234-89.344 46.453-187.13 29.391-282zm-680.06-172.78c-50.859 34.688-90.656 83.344-114.47 140.16h-197.53c27.141-108.75 89.625-205.45 177.61-274.92zm-108-154.45 137.16 136.92c41.531-22.312 87.469-35.156 134.53-37.547v-188.53c-97.266 2.8594-191.63 33.844-271.69 89.156z" fill-rule="evenodd"/>
</svg>
