<svg xmlns="http://www.w3.org/2000/svg" xmlns:xlink="http://www.w3.org/1999/xlink" width="40" zoomAndPan="magnify" viewBox="0 0 30 30.000001" height="40" preserveAspectRatio="xMidYMid meet" version="1.0"><defs><clipPath id="821ce8e246"><path d="M 9.476562 8.710938 L 20.363281 8.710938 L 20.363281 20.324219 L 9.476562 20.324219 Z M 9.476562 8.710938 " clip-rule="nonzero"/></clipPath></defs><g clip-path="url(#821ce8e246)"><path fill="#818ce4" d="M 17.398438 14.203125 C 17.964844 13.609375 18.277344 12.800781 18.277344 11.980469 C 18.277344 10.167969 16.804688 8.710938 15.007812 8.710938 C 13.207031 8.710938 11.734375 10.167969 11.734375 11.980469 C 11.734375 12.816406 12.046875 13.609375 12.613281 14.203125 C 10.773438 15.253906 9.511719 17.632812 9.511719 20.109375 C 9.511719 20.222656 9.609375 20.324219 9.722656 20.324219 L 20.261719 20.324219 C 20.375 20.324219 20.472656 20.222656 20.472656 20.109375 C 20.488281 17.632812 19.226562 15.253906 17.398438 14.203125 Z M 12.175781 11.980469 C 12.175781 10.421875 13.449219 9.148438 15.007812 9.148438 C 16.566406 9.148438 17.839844 10.421875 17.839844 11.980469 C 17.839844 12.789062 17.5 13.554688 16.890625 14.089844 C 16.367188 14.558594 15.699219 14.8125 15.007812 14.8125 C 14.921875 14.8125 14.835938 14.8125 14.75 14.800781 C 14.652344 14.785156 14.539062 14.769531 14.441406 14.757812 C 14.101562 14.6875 13.773438 14.558594 13.476562 14.359375 C 13.351562 14.273438 13.238281 14.191406 13.125 14.089844 C 12.515625 13.554688 12.175781 12.773438 12.175781 11.980469 Z M 9.949219 19.898438 C 10.023438 17.589844 11.226562 15.421875 12.9375 14.515625 C 12.953125 14.53125 12.980469 14.542969 13.011719 14.558594 C 13.039062 14.585938 13.082031 14.617188 13.125 14.644531 C 13.164062 14.671875 13.207031 14.699219 13.25 14.730469 C 13.292969 14.757812 13.320312 14.769531 13.363281 14.800781 C 13.40625 14.828125 13.449219 14.855469 13.503906 14.871094 C 13.546875 14.882812 13.578125 14.914062 13.617188 14.925781 C 13.660156 14.957031 13.71875 14.96875 13.761719 14.984375 C 13.804688 14.996094 13.84375 15.011719 13.875 15.027344 C 13.929688 15.039062 13.972656 15.054688 14.03125 15.082031 C 14.070312 15.097656 14.113281 15.109375 14.144531 15.125 C 14.199219 15.140625 14.257812 15.152344 14.3125 15.167969 C 14.355469 15.183594 14.382812 15.183594 14.425781 15.195312 C 14.484375 15.210938 14.554688 15.210938 14.609375 15.222656 C 14.636719 15.222656 14.679688 15.238281 14.710938 15.238281 C 14.808594 15.253906 14.90625 15.253906 14.992188 15.253906 C 15.078125 15.253906 15.191406 15.253906 15.277344 15.238281 C 15.304688 15.238281 15.347656 15.222656 15.375 15.222656 C 15.429688 15.210938 15.503906 15.210938 15.558594 15.195312 C 15.601562 15.195312 15.628906 15.183594 15.671875 15.167969 C 15.730469 15.152344 15.785156 15.140625 15.84375 15.125 C 15.882812 15.109375 15.925781 15.097656 15.957031 15.082031 C 16.011719 15.070312 16.054688 15.054688 16.109375 15.027344 C 16.152344 15.011719 16.195312 14.996094 16.222656 14.984375 C 16.265625 14.96875 16.324219 14.941406 16.367188 14.914062 C 16.410156 14.898438 16.4375 14.871094 16.480469 14.855469 C 16.523438 14.828125 16.578125 14.8125 16.621094 14.785156 C 16.664062 14.757812 16.691406 14.742188 16.734375 14.714844 C 16.777344 14.6875 16.820312 14.65625 16.863281 14.628906 C 16.90625 14.601562 16.933594 14.574219 16.960938 14.542969 C 16.988281 14.53125 17.003906 14.515625 17.03125 14.503906 C 18.746094 15.410156 19.949219 17.589844 20.019531 19.882812 L 9.949219 19.882812 Z M 9.949219 19.898438 " fill-opacity="1" fill-rule="nonzero"/></g></svg>