<svg id="Layer_1" data-name="Layer 1" xmlns="http://www.w3.org/2000/svg" xmlns:xlink="http://www.w3.org/1999/xlink" viewBox="0 0 200 200"><defs><style>.cls-1{opacity:0.3;}.cls-2{fill:url(#linear-gradient);}.cls-3{fill:url(#linear-gradient-2);}.cls-4{fill:url(#linear-gradient-3);}.cls-5{fill:url(#linear-gradient-4);}.cls-6{fill:none;}.cls-7{fill:url(#linear-gradient-6);}.cls-8{fill:url(#linear-gradient-7);}.cls-9{fill:#fff;}.cls-10{fill:url(#linear-gradient-8);}.cls-11{fill:url(#linear-gradient-9);}.cls-12{fill:url(#linear-gradient-10);}.cls-13{fill:url(#linear-gradient-11);}.cls-14{fill:url(#linear-gradient-12);}.cls-15{fill:url(#linear-gradient-13);}.cls-16{fill:url(#linear-gradient-14);}.cls-17{fill:url(#linear-gradient-15);}.cls-18{fill:url(#linear-gradient-16);}.cls-19{fill:url(#linear-gradient-17);}.cls-20{fill:url(#linear-gradient-18);}.cls-21{fill:url(#linear-gradient-20);}.cls-22{fill:url(#linear-gradient-21);}</style><linearGradient id="linear-gradient" x1="99.65" y1="205.51" x2="99.65" y2="-6.73" gradientUnits="userSpaceOnUse"><stop offset="0" stop-color="#5f1499"/><stop offset="1" stop-color="#00b9ff"/></linearGradient><linearGradient id="linear-gradient-2" x1="88.14" y1="205.51" x2="88.14" y2="-6.73" xlink:href="#linear-gradient"/><linearGradient id="linear-gradient-3" x1="102.34" y1="205.51" x2="102.34" y2="-6.73" xlink:href="#linear-gradient"/><linearGradient id="linear-gradient-4" x1="95.24" y1="205.51" x2="95.24" y2="-6.73" xlink:href="#linear-gradient"/><linearGradient id="linear-gradient-6" x1="142.94" y1="205.51" x2="142.94" y2="-6.73" xlink:href="#linear-gradient"/><linearGradient id="linear-gradient-7" x1="87.18" y1="205.51" x2="87.18" y2="-6.73" xlink:href="#linear-gradient"/><linearGradient id="linear-gradient-8" x1="55.62" y1="205.51" x2="55.62" y2="-6.73" xlink:href="#linear-gradient"/><linearGradient id="linear-gradient-9" x1="79.86" y1="205.51" x2="79.86" y2="-6.73" xlink:href="#linear-gradient"/><linearGradient id="linear-gradient-10" x1="106.13" y1="205.51" x2="106.13" y2="-6.73" xlink:href="#linear-gradient"/><linearGradient id="linear-gradient-11" x1="148.75" y1="205.51" x2="148.75" y2="-6.73" xlink:href="#linear-gradient"/><linearGradient id="linear-gradient-12" x1="102.62" y1="205.51" x2="102.62" y2="-6.73" xlink:href="#linear-gradient"/><linearGradient id="linear-gradient-13" x1="89.19" y1="205.51" x2="89.19" y2="-6.73" xlink:href="#linear-gradient"/><linearGradient id="linear-gradient-14" x1="100.79" y1="205.51" x2="100.79" y2="-6.73" xlink:href="#linear-gradient"/><linearGradient id="linear-gradient-15" x1="94.99" y1="205.51" x2="94.99" y2="-6.73" xlink:href="#linear-gradient"/><linearGradient id="linear-gradient-16" x1="113.04" y1="205.51" x2="113.04" y2="-6.73" xlink:href="#linear-gradient"/><linearGradient id="linear-gradient-17" x1="28.61" y1="205.51" x2="28.61" y2="-6.73" xlink:href="#linear-gradient"/><linearGradient id="linear-gradient-18" x1="41.11" y1="205.51" x2="41.11" y2="-6.73" xlink:href="#linear-gradient"/><linearGradient id="linear-gradient-20" x1="25.62" y1="205.51" x2="25.62" y2="-6.73" xlink:href="#linear-gradient"/><linearGradient id="linear-gradient-21" x1="176.65" y1="205.51" x2="176.65" y2="-6.73" xlink:href="#linear-gradient"/></defs><g class="cls-1"><circle class="cls-2" cx="99.65" cy="110.31" r="52.71"/></g><path class="cls-3" d="M89.1,77.18H87.18a1.5,1.5,0,0,1,0-3H89.1a1.5,1.5,0,0,1,0,3Z"/><path class="cls-4" d="M103.3,77.18h-1.92a1.5,1.5,0,0,1,0-3h1.92a1.5,1.5,0,1,1,0,3Z"/><path class="cls-5" d="M95.24,71a1.5,1.5,0,0,1-1.5-1.5V67.62a1.5,1.5,0,0,1,3,0v1.92A1.5,1.5,0,0,1,95.24,71Z"/><path class="cls-5" d="M95.24,85.24a1.5,1.5,0,0,1-1.5-1.5V81.82a1.5,1.5,0,0,1,3,0v1.92A1.5,1.5,0,0,1,95.24,85.24Z"/><polygon class="cls-6" points="159.87 103.56 155.08 103.56 155.08 165.18 130.8 165.18 130.8 103.56 126.01 103.56 142.94 75.68 159.87 103.56"/><path class="cls-7" d="M155.08,166.68H130.8c-.63,0-1.13-.67-1.13-1.5V105.06H126a1.15,1.15,0,0,1-1-.85,1.88,1.88,0,0,1,.14-1.59l16.92-27.88a1,1,0,0,1,1.77,0l16.93,27.88a1.92,1.92,0,0,1,.14,1.59,1.16,1.16,0,0,1-1,.85h-3.66v60.12C156.21,166,155.7,166.68,155.08,166.68Zm-23.14-3h22V103.56a1.36,1.36,0,0,1,1.14-1.5h2.42l-14.56-24-14.56,24h2.42a1.36,1.36,0,0,1,1.14,1.5Z"/><path class="cls-8" d="M25.62,173.93a1.5,1.5,0,0,1-.7-2.83l29.59-15.53,24-45.34a1.52,1.52,0,0,1,1.48-.79l25.46,2.66,42.11-52.48a1.48,1.48,0,0,1,2.1-.23,1.49,1.49,0,0,1,.24,2.1L107.3,114.61a1.52,1.52,0,0,1-1.33.55l-25.26-2.63L56.94,157.38a1.47,1.47,0,0,1-.63.63l-30,15.75A1.44,1.44,0,0,1,25.62,173.93Z"/><circle class="cls-9" cx="55.62" cy="156.68" r="4.48"/><path class="cls-10" d="M55.62,162.66a6,6,0,1,1,6-6A6,6,0,0,1,55.62,162.66Zm0-9a3,3,0,1,0,3,3A3,3,0,0,0,55.62,153.7Z"/><circle class="cls-9" cx="79.86" cy="110.93" r="4.48"/><path class="cls-11" d="M79.86,116.91a6,6,0,1,1,6-6A6,6,0,0,1,79.86,116.91Zm0-9a3,3,0,1,0,3,3A3,3,0,0,0,79.86,108Z"/><circle class="cls-9" cx="106.13" cy="113.67" r="4.48"/><path class="cls-12" d="M106.13,119.65a6,6,0,1,1,6-6A6,6,0,0,1,106.13,119.65Zm0-9a3,3,0,1,0,3,3A3,3,0,0,0,106.13,110.7Z"/><circle class="cls-9" cx="148.75" cy="60.55" r="4.48"/><path class="cls-13" d="M148.75,66.53a6,6,0,1,1,6-6A6,6,0,0,1,148.75,66.53Zm0-9a3,3,0,1,0,3,3A3,3,0,0,0,148.75,57.58Z"/><path class="cls-14" d="M179.62,173.93h-154a1.5,1.5,0,0,1-1.5-1.5v-123a1.5,1.5,0,0,1,3,0v121.5h152.5a1.5,1.5,0,0,1,0,3Z"/><path class="cls-15" d="M89.19,139a5.17,5.17,0,0,1-1.55-.24,5.26,5.26,0,0,1-3.16-2.59,5.31,5.31,0,0,1-.4-4.06,5.34,5.34,0,0,1,6.66-3.56A5.34,5.34,0,0,1,89.19,139Zm0-7.68A2.36,2.36,0,0,0,87,133a2.34,2.34,0,0,0,3.34,2.74,2.34,2.34,0,0,0,1.13-1.38h0a2.32,2.32,0,0,0-1.56-2.91A2.25,2.25,0,0,0,89.18,131.35Z"/><path class="cls-16" d="M100.8,150a5.49,5.49,0,0,1-1.55-.23,5.26,5.26,0,0,1-3.16-2.59,5.32,5.32,0,0,1-.4-4.06A5.26,5.26,0,0,1,98.28,140a5.32,5.32,0,0,1,4.06-.4,5.26,5.26,0,0,1,3.16,2.59,5.32,5.32,0,0,1,.4,4.06,5.33,5.33,0,0,1-5.1,3.79Zm0-7.67A2.34,2.34,0,0,0,98.56,144a2.33,2.33,0,0,0,4.47,1.35h0a2.34,2.34,0,0,0-1.56-2.91A2.24,2.24,0,0,0,100.79,142.32Z"/><path class="cls-17" d="M88.7,147.89a1.5,1.5,0,0,1-1.13-2.49L100.15,131a1.5,1.5,0,1,1,2.26,2L89.83,147.37A1.5,1.5,0,0,1,88.7,147.89Z"/><path class="cls-18" d="M112.66,155.89H77.32a1.5,1.5,0,0,1,0-3H112l35.65-35.64a1.49,1.49,0,0,1,2.12,0,1.51,1.51,0,0,1,0,2.12l-36.09,36.09A1.51,1.51,0,0,1,112.66,155.89Z"/><path class="cls-19" d="M36.77,143.18H20.45a1.5,1.5,0,1,1,0-3H36.77a1.5,1.5,0,1,1,0,3Z"/><path class="cls-20" d="M61.77,112.43H20.45a1.5,1.5,0,1,1,0-3H61.77a1.5,1.5,0,1,1,0,3Z"/><path class="cls-19" d="M36.77,81.68H20.45a1.5,1.5,0,0,1,0-3H36.77a1.5,1.5,0,1,1,0,3Z"/><path class="cls-21" d="M31.55,56.86a1.5,1.5,0,0,1-1.06-.43l-4.87-4.88-4.88,4.88a1.5,1.5,0,0,1-2.12-2.13l5.93-5.93a1.52,1.52,0,0,1,2.13,0l5.93,5.93a1.5,1.5,0,0,1-1.06,2.56Z"/><path class="cls-22" d="M173.68,179.86a1.5,1.5,0,0,1-1.06-2.56l4.87-4.87-4.87-4.87a1.51,1.51,0,0,1,0-2.12,1.49,1.49,0,0,1,2.12,0l5.94,5.93a1.51,1.51,0,0,1,0,2.12l-5.94,5.94A1.48,1.48,0,0,1,173.68,179.86Z"/></svg>