<svg id="Layer_1" data-name="Layer 1" xmlns="http://www.w3.org/2000/svg" xmlns:xlink="http://www.w3.org/1999/xlink" viewBox="0 0 200 200"><defs><style>.cls-1{opacity:0.3;fill:url(#linear-gradient);}.cls-2{fill:#fff;}.cls-3{fill:url(#linear-gradient-2);}.cls-4{fill:url(#linear-gradient-3);}.cls-5{fill:url(#linear-gradient-4);}.cls-6{fill:url(#linear-gradient-5);}.cls-7{fill:url(#linear-gradient-6);}.cls-8{fill:url(#linear-gradient-7);}.cls-9{fill:url(#linear-gradient-8);}.cls-10{fill:url(#linear-gradient-13);}.cls-11{fill:url(#linear-gradient-14);}.cls-12{fill:url(#linear-gradient-15);}.cls-13{fill:url(#linear-gradient-20);}.cls-14{fill:url(#linear-gradient-21);}.cls-15{fill:url(#linear-gradient-23);}.cls-16{fill:url(#linear-gradient-24);}</style><linearGradient id="linear-gradient" x1="99.63" y1="206.22" x2="99.63" y2="17.39" gradientUnits="userSpaceOnUse"><stop offset="0" stop-color="#5f1499"/><stop offset="1" stop-color="#00b9ff"/></linearGradient><linearGradient id="linear-gradient-2" x1="137.59" y1="207.6" x2="137.59" y2="16.97" xlink:href="#linear-gradient"/><linearGradient id="linear-gradient-3" x1="60.04" y1="207.6" x2="60.04" y2="16.97" xlink:href="#linear-gradient"/><linearGradient id="linear-gradient-4" x1="66.88" y1="207.6" x2="66.88" y2="16.97" xlink:href="#linear-gradient"/><linearGradient id="linear-gradient-5" x1="73.71" y1="207.6" x2="73.71" y2="16.97" xlink:href="#linear-gradient"/><linearGradient id="linear-gradient-6" x1="93.38" y1="207.6" x2="93.38" y2="16.97" xlink:href="#linear-gradient"/><linearGradient id="linear-gradient-7" x1="115.42" y1="207.6" x2="115.42" y2="16.97" xlink:href="#linear-gradient"/><linearGradient id="linear-gradient-8" x1="86.13" y1="207.6" x2="86.13" y2="16.97" xlink:href="#linear-gradient"/><linearGradient id="linear-gradient-13" x1="86.56" y1="207.6" x2="86.56" y2="16.97" xlink:href="#linear-gradient"/><linearGradient id="linear-gradient-14" x1="111.73" y1="207.6" x2="111.73" y2="16.97" xlink:href="#linear-gradient"/><linearGradient id="linear-gradient-15" x1="92.75" y1="207.6" x2="92.75" y2="16.97" xlink:href="#linear-gradient"/><linearGradient id="linear-gradient-20" x1="90.57" y1="207.6" x2="90.57" y2="16.97" xlink:href="#linear-gradient"/><linearGradient id="linear-gradient-21" x1="112.42" y1="207.6" x2="112.42" y2="16.97" xlink:href="#linear-gradient"/><linearGradient id="linear-gradient-23" x1="110.81" y1="207.6" x2="110.81" y2="16.97" xlink:href="#linear-gradient"/><linearGradient id="linear-gradient-24" x1="101.8" y1="207.6" x2="101.8" y2="16.97" xlink:href="#linear-gradient"/></defs><path class="cls-1" d="M99.63,166.19c-29.12,0-52.72-22.6-52.72-51.71a52.72,52.72,0,1,1,105.43,0c0,29.11-23.6,51.71-52.71,51.71"/><path class="cls-2" d="M117.46,70.05H146a3.12,3.12,0,0,0,3.11-3.11V52.15a3.11,3.11,0,0,0-3.11-3.1H51.52a3.11,3.11,0,0,0-3.11,3.1V66.94a3.12,3.12,0,0,0,3.11,3.11h65.94ZM137.59,56.3a3.25,3.25,0,1,1-3.25,3.25A3.24,3.24,0,0,1,137.59,56.3Zm-24.21-1.5h4.08a1.5,1.5,0,0,1,0,3h-4.08a1.5,1.5,0,0,1,0-3Zm-31,0h22a1.5,1.5,0,0,1,0,3h-22a1.5,1.5,0,0,1,0-3Zm0,6.5h7.5a1.5,1.5,0,0,1,0,3h-7.5a1.5,1.5,0,0,1,0-3ZM61.54,62.8a1.5,1.5,0,0,1-3,0V56.3a1.5,1.5,0,0,1,3,0Zm6.84,0a1.5,1.5,0,1,1-3,0V56.3a1.5,1.5,0,0,1,3,0Zm6.83,0a1.5,1.5,0,0,1-3,0V56.3a1.5,1.5,0,0,1,3,0Z"/><rect class="cls-2" x="81.58" y="73.05" width="34.38" height="5.46"/><path class="cls-2" d="M149.13,84.61A3.12,3.12,0,0,0,146,81.5H51.52a3.12,3.12,0,0,0-3.11,3.11V99.4a3.11,3.11,0,0,0,3.11,3.1H146a3.11,3.11,0,0,0,3.11-3.1ZM61.54,95.25a1.5,1.5,0,0,1-3,0v-6.5a1.5,1.5,0,0,1,3,0Zm6.84,0a1.5,1.5,0,0,1-3,0v-6.5a1.5,1.5,0,0,1,3,0Zm3.83,0v-6.5a1.5,1.5,0,0,1,3,0v6.5a1.5,1.5,0,0,1-3,0Zm10.17-5a1.5,1.5,0,0,1,0-3h8.37a1.5,1.5,0,0,1,0,3Zm20.75,6.5H82.38a1.5,1.5,0,0,1,0-3h20.75a1.5,1.5,0,0,1,0,3ZM124,90.25H99.46a1.5,1.5,0,1,1,0-3H124a1.5,1.5,0,0,1,0,3Zm13.59,5A3.25,3.25,0,1,1,140.84,92,3.25,3.25,0,0,1,137.59,95.25Z"/><rect class="cls-2" x="81.58" y="105.5" width="34.38" height="5.46"/><path class="cls-2" d="M117.46,114H51.52a3.12,3.12,0,0,0-3.11,3.11v14.79a3.11,3.11,0,0,0,3.11,3.1H146a3.11,3.11,0,0,0,3.11-3.1V117.07A3.12,3.12,0,0,0,146,114ZM61.54,127.71a1.5,1.5,0,0,1-3,0v-6.5a1.5,1.5,0,0,1,3,0Zm6.84,0a1.5,1.5,0,0,1-3,0v-6.5a1.5,1.5,0,1,1,3,0Zm6.83,0a1.5,1.5,0,0,1-3,0v-6.5a1.5,1.5,0,0,1,3,0Zm32.17-8h10.08a1.5,1.5,0,0,1,0,3H107.38a1.5,1.5,0,0,1,0-3Zm-25,0H98.77a1.5,1.5,0,0,1,0,3H82.38a1.5,1.5,0,0,1,0-3Zm7.5,9.5h-7.5a1.5,1.5,0,1,1,0-3h7.5a1.5,1.5,0,0,1,0,3Zm34.12,0H97.63a1.5,1.5,0,1,1,0-3H124a1.5,1.5,0,1,1,0,3Zm13.59-1.5a3.25,3.25,0,1,1,3.25-3.25A3.25,3.25,0,0,1,137.59,127.71Z"/><path class="cls-2" d="M162.18,110.8a3.24,3.24,0,1,0,3.24,3.24A3.25,3.25,0,0,0,162.18,110.8Z"/><path class="cls-2" d="M25.41,105.16a3.24,3.24,0,1,0,3.24,3.24A3.25,3.25,0,0,0,25.41,105.16Z"/><path class="cls-2" d="M112.18,36.22A3.24,3.24,0,1,0,115.42,33,3.24,3.24,0,0,0,112.18,36.22Z"/><circle class="cls-3" cx="137.59" cy="59.55" r="3.25"/><path class="cls-4" d="M60,54.8a1.5,1.5,0,0,0-1.5,1.5v6.5a1.5,1.5,0,0,0,3,0V56.3A1.5,1.5,0,0,0,60,54.8Z"/><path class="cls-5" d="M66.88,54.8a1.5,1.5,0,0,0-1.5,1.5v6.5a1.5,1.5,0,1,0,3,0V56.3A1.5,1.5,0,0,0,66.88,54.8Z"/><path class="cls-6" d="M73.71,54.8a1.5,1.5,0,0,0-1.5,1.5v6.5a1.5,1.5,0,0,0,3,0V56.3A1.5,1.5,0,0,0,73.71,54.8Z"/><path class="cls-7" d="M82.38,57.8h22a1.5,1.5,0,0,0,0-3h-22a1.5,1.5,0,0,0,0,3Z"/><path class="cls-8" d="M113.38,57.8h4.08a1.5,1.5,0,0,0,0-3h-4.08a1.5,1.5,0,0,0,0,3Z"/><path class="cls-9" d="M82.38,64.3h7.5a1.5,1.5,0,0,0,0-3h-7.5a1.5,1.5,0,0,0,0,3Z"/><circle class="cls-3" cx="137.59" cy="92" r="3.25"/><path class="cls-4" d="M60,87.25a1.51,1.51,0,0,0-1.5,1.5v6.5a1.5,1.5,0,0,0,3,0v-6.5A1.5,1.5,0,0,0,60,87.25Z"/><path class="cls-5" d="M66.88,87.25a1.5,1.5,0,0,0-1.5,1.5v6.5a1.5,1.5,0,0,0,3,0v-6.5A1.51,1.51,0,0,0,66.88,87.25Z"/><path class="cls-6" d="M75.21,95.25v-6.5a1.5,1.5,0,0,0-3,0v6.5a1.5,1.5,0,0,0,3,0Z"/><path class="cls-10" d="M92.25,88.75a1.5,1.5,0,0,0-1.5-1.5H82.38a1.5,1.5,0,0,0,0,3h8.37A1.5,1.5,0,0,0,92.25,88.75Z"/><path class="cls-11" d="M124,87.25H99.46a1.5,1.5,0,1,0,0,3H124a1.5,1.5,0,0,0,0-3Z"/><path class="cls-12" d="M103.13,93.75H82.38a1.5,1.5,0,0,0,0,3h20.75a1.5,1.5,0,0,0,0-3Z"/><circle class="cls-3" cx="137.59" cy="124.46" r="3.25"/><path class="cls-4" d="M60,119.71a1.51,1.51,0,0,0-1.5,1.5v6.5a1.5,1.5,0,0,0,3,0v-6.5A1.5,1.5,0,0,0,60,119.71Z"/><path class="cls-5" d="M66.88,119.71a1.5,1.5,0,0,0-1.5,1.5v6.5a1.5,1.5,0,0,0,3,0v-6.5A1.51,1.51,0,0,0,66.88,119.71Z"/><path class="cls-6" d="M73.71,119.71a1.5,1.5,0,0,0-1.5,1.5v6.5a1.5,1.5,0,0,0,3,0v-6.5A1.5,1.5,0,0,0,73.71,119.71Z"/><path class="cls-13" d="M82.38,122.71H98.77a1.5,1.5,0,0,0,0-3H82.38a1.5,1.5,0,0,0,0,3Z"/><path class="cls-14" d="M107.38,122.71h10.08a1.5,1.5,0,0,0,0-3H107.38a1.5,1.5,0,0,0,0,3Z"/><path class="cls-9" d="M89.88,126.21h-7.5a1.5,1.5,0,1,0,0,3h7.5a1.5,1.5,0,0,0,0-3Z"/><path class="cls-15" d="M124,126.21H97.63a1.5,1.5,0,1,0,0,3H124a1.5,1.5,0,1,0,0-3Z"/><path class="cls-16" d="M190.45,92.45l-2.06-9.27v0l0-.15-.05-.13-.06-.11-.09-.14-.09-.11-.1-.11-.11-.09-.12-.09h0l-.13-.06-.11-.06-.19,0-.09,0L187,82h-.08l-.21,0h-.08l-9.27,2.06a1.5,1.5,0,0,0-1.14,1.79A1.51,1.51,0,0,0,178,87l5.87-1.31-13.48,22.51a9.45,9.45,0,0,1-2.68,2.9,6.23,6.23,0,0,0-11-.09,9.43,9.43,0,0,1-2.94-3.51l-2.48-5.06a6.06,6.06,0,0,0,.84-3.07V84.61A6.12,6.12,0,0,0,146,78.5h-6.45l-2.66-5.45H146a6.12,6.12,0,0,0,6.11-6.11V52.15a6.11,6.11,0,0,0-6.11-6.1H123.7l-2.86-5.86c-.08-.16-.17-.32-.26-.48a6.14,6.14,0,0,0,1.08-3.49,6.24,6.24,0,0,0-11.7-3h-.86A12.29,12.29,0,0,0,98,41.2l-1.86,4.85H51.52a6.11,6.11,0,0,0-6.11,6.1V66.94a6.12,6.12,0,0,0,6.11,6.11H78.58V78.5H51.52a6.12,6.12,0,0,0-6.11,6.11V99.4a6.11,6.11,0,0,0,6.11,6.1H73.35l-1,2.62A9.43,9.43,0,0,1,70.62,111H55.53l-13.91-8.35a12.43,12.43,0,0,0-13.26.3,6.13,6.13,0,0,0-2.95-.75,6.23,6.23,0,0,0-4,11l-5.06,10.1A3.26,3.26,0,1,0,19,124.59l5.05-10.11a6.1,6.1,0,0,0,1.36.16A6.23,6.23,0,0,0,30.65,105a9.59,9.59,0,0,1,1.92-.8,9.38,9.38,0,0,1,7.51,1l9.94,6a6.11,6.11,0,0,0-4.61,5.91v14.79a6.11,6.11,0,0,0,6.11,6.1H146a6.11,6.11,0,0,0,6.11-6.1V117.07A6.12,6.12,0,0,0,146,111H119V105.5H146a6.05,6.05,0,0,0,3-.8l2,4.15a12.35,12.35,0,0,0,4.87,5.26,6.24,6.24,0,0,0,12.47.12,12.35,12.35,0,0,0,4.54-4.46l13.33-22.26,1.24,5.59A1.51,1.51,0,0,0,189,94.28a1.22,1.22,0,0,0,.32,0A1.5,1.5,0,0,0,190.45,92.45Zm-165,19.19a3.24,3.24,0,1,1,3.24-3.24A3.25,3.25,0,0,1,25.41,111.64ZM146,102.5H51.52a3.11,3.11,0,0,1-3.11-3.1V84.61a3.12,3.12,0,0,1,3.11-3.11H146a3.12,3.12,0,0,1,3.11,3.11V99.4A3.11,3.11,0,0,1,146,102.5Zm3.11,14.57v14.79A3.11,3.11,0,0,1,146,135H51.52a3.11,3.11,0,0,1-3.11-3.1V117.07A3.12,3.12,0,0,1,51.52,114H146A3.12,3.12,0,0,1,149.13,117.07ZM116,111H81.58V105.5H116Zm-67.55-44V52.15a3.11,3.11,0,0,1,3.11-3.1H146a3.11,3.11,0,0,1,3.11,3.1V66.94A3.12,3.12,0,0,1,146,70.05H51.52A3.12,3.12,0,0,1,48.41,66.94Zm33.17,6.11H116V78.5H81.58Zm54.65,5.45H119V73.05h14.61ZM118.66,36.22A3.24,3.24,0,1,1,115.42,33,3.25,3.25,0,0,1,118.66,36.22Zm-17.84,6.06a9.35,9.35,0,0,1,8.36-6.06,6.25,6.25,0,0,0,6.24,6.24,6.13,6.13,0,0,0,2.85-.7l2.09,4.29h-21ZM75.14,109.2l1.42-3.7h2V111h-4.3A12,12,0,0,0,75.14,109.2ZM165.42,114a3.24,3.24,0,1,1-3.24-3.24A3.25,3.25,0,0,1,165.42,114Z"/></svg>