<svg xmlns="http://www.w3.org/2000/svg" xmlns:xlink="http://www.w3.org/1999/xlink" viewBox="0 0 262.39 215.32"><defs><style>.cls-1{isolation:isolate;}.cls-2,.cls-3{mix-blend-mode:multiply;}.cls-2{fill:url(#_ÂÁ_Ï_ÌÌ_È_ËÂÌÚ_12);}.cls-3{fill:url(#_ÂÁ_Ï_ÌÌ_È_ËÂÌÚ_12-2);}.cls-4{fill:#0e89a5;}.cls-5{fill:#034462;}.cls-6{fill:#012235;}.cls-7{fill:#025a82;}.cls-8{fill:#f2a437;}.cls-9{fill:#ffc904;}.cls-10{fill:#0cd9d4;}.cls-11{fill:#f16900;}.cls-12{fill:#d7e7f7;}.cls-13{fill:#445394;}</style><linearGradient id="_ÂÁ_Ï_ÌÌ_È_ËÂÌÚ_12" x1="162.67" y1="210.26" x2="210.24" y2="132.73" gradientUnits="userSpaceOnUse"><stop offset="0" stop-color="#a1a1bd"/><stop offset="1" stop-color="#fff"/></linearGradient><linearGradient id="_ÂÁ_Ï_ÌÌ_È_ËÂÌÚ_12-2" x1="50.19" y1="144.78" x2="97.76" y2="67.25" xlink:href="#_ÂÁ_Ï_ÌÌ_È_ËÂÌÚ_12"/></defs><g class="cls-1"><g id="Layer_2" data-name="Layer 2"><g id="Layer_1-2" data-name="Layer 1"><path class="cls-2" d="M114.29,178.25l62.38,36.56a3.66,3.66,0,0,0,3.69,0l80.23-47a3.65,3.65,0,0,0,0-6.3l-61-35.58a3.65,3.65,0,0,0-3.63,0l-81.65,46A3.65,3.65,0,0,0,114.29,178.25Z"/><path class="cls-3" d="M1.8,112.77l62.39,36.57a3.69,3.69,0,0,0,3.69,0l80.22-47a3.65,3.65,0,0,0,0-6.3l-61-35.58a3.67,3.67,0,0,0-3.63,0l-81.65,46A3.65,3.65,0,0,0,1.8,112.77Z"/><polygon class="cls-4" points="212.25 172.02 178.48 191.85 113.57 154.93 147.83 134.82 212.25 172.02"/><polygon class="cls-5" points="212.25 193.49 178.48 213.32 178.48 191.85 212.25 172.02 212.25 193.49"/><polygon class="cls-6" points="178.48 213.41 113.25 176.21 113.25 154.65 178.48 191.85 178.48 213.41"/><polygon class="cls-5" points="174.6 206.72 140.47 187.26 140.47 174.64 174.6 194.11 174.6 206.72"/><polygon class="cls-7" points="141.65 186.08 174.6 204.87 174.6 206.72 140.47 187.26 140.47 174.64 141.65 175.32 141.65 186.08"/><polygon class="cls-6" points="207.02 192.69 182.1 206.9 182.1 194.28 207.02 180.07 207.02 192.69"/><polygon class="cls-5" points="204.28 194.25 202.39 195.33 202.39 182.71 204.28 181.64 204.28 194.25"/><polygon class="cls-8" points="204.28 194.25 202.39 195.33 202.39 191.75 204.28 190.68 204.28 194.25"/><polygon class="cls-9" points="204.28 186.97 202.39 188.05 202.39 182.71 204.28 181.64 204.28 186.97"/><polygon class="cls-5" points="201.16 196.02 199.28 197.1 199.28 184.48 201.16 183.41 201.16 196.02"/><polygon class="cls-8" points="201.16 186.98 199.28 188.06 199.28 184.48 201.16 183.41 201.16 186.98"/><polygon class="cls-9" points="201.16 196.02 199.28 197.1 199.28 191.77 201.16 190.69 201.16 196.02"/><polygon class="cls-5" points="198.08 197.77 196.19 198.85 196.19 186.23 198.08 185.15 198.08 197.77"/><polygon class="cls-8" points="198.08 197.77 196.19 198.85 196.19 195.27 198.08 194.19 198.08 197.77"/><polygon class="cls-9" points="198.08 190.48 196.19 191.56 196.19 186.23 198.08 185.15 198.08 190.48"/><polygon class="cls-5" points="194.96 199.54 193.08 200.62 193.08 188 194.96 186.92 194.96 199.54"/><polygon class="cls-8" points="194.96 190.5 193.08 191.58 193.08 188 194.96 186.92 194.96 190.5"/><polygon class="cls-9" points="194.96 199.54 193.08 200.62 193.08 195.28 194.96 194.21 194.96 199.54"/><polygon class="cls-5" points="191.88 201.28 189.99 202.36 189.99 189.74 191.88 188.66 191.88 201.28"/><polygon class="cls-8" points="191.88 201.28 189.99 202.36 189.99 198.78 191.88 197.71 191.88 201.28"/><polygon class="cls-9" points="191.88 194 189.99 195.08 189.99 189.74 191.88 188.66 191.88 194"/><polygon class="cls-5" points="188.76 203.05 186.88 204.13 186.88 191.51 188.76 190.44 188.76 203.05"/><polygon class="cls-8" points="188.76 194.01 186.88 195.09 186.88 191.51 188.76 190.44 188.76 194.01"/><polygon class="cls-9" points="188.76 203.05 186.88 204.13 186.88 198.8 188.76 197.72 188.76 203.05"/><polygon class="cls-5" points="185.68 204.8 183.79 205.88 183.79 193.26 185.68 192.18 185.68 204.8"/><polygon class="cls-8" points="185.68 204.8 183.79 205.88 183.79 202.3 185.68 201.22 185.68 204.8"/><polygon class="cls-9" points="185.68 197.51 183.79 198.59 183.79 193.26 185.68 192.18 185.68 197.51"/><polygon class="cls-7" points="205.83 180.75 207.02 180.07 207.02 192.69 182.1 206.9 182.1 205.04 205.83 191.51 205.83 180.75"/><polygon class="cls-10" points="172.42 196.44 170.56 195.38 170.56 193.5 172.42 194.56 172.42 196.44"/><polygon class="cls-9" points="172.42 199.18 170.56 198.12 170.56 196.24 172.42 197.3 172.42 199.18"/><polygon class="cls-10" points="172.42 201.92 170.56 200.85 170.56 198.98 172.42 200.04 172.42 201.92"/><polygon class="cls-10" points="169.78 194.96 167.91 193.9 167.91 192.01 169.78 193.07 169.78 194.96"/><polygon class="cls-10" points="169.78 197.69 167.91 196.63 167.91 194.75 169.78 195.81 169.78 197.69"/><polygon class="cls-8" points="169.78 200.43 167.91 199.37 167.91 197.49 169.78 198.55 169.78 200.43"/><polygon class="cls-8" points="167.13 193.47 165.27 192.41 165.27 190.53 167.13 191.59 167.13 193.47"/><polygon class="cls-10" points="167.13 196.2 165.27 195.14 165.27 193.26 167.13 194.32 167.13 196.2"/><polygon class="cls-10" points="167.13 198.94 165.27 197.88 165.27 196 167.13 197.06 167.13 198.94"/><polygon class="cls-9" points="164.48 191.98 162.62 190.92 162.62 189.04 164.48 190.1 164.48 191.98"/><polygon class="cls-10" points="164.48 194.72 162.62 193.65 162.62 191.77 164.48 192.84 164.48 194.72"/><polygon class="cls-8" points="164.48 197.45 162.62 196.39 162.62 194.51 164.48 195.57 164.48 197.45"/><polygon class="cls-10" points="161.9 190.51 160.04 189.45 160.04 187.56 161.9 188.63 161.9 190.51"/><polygon class="cls-10" points="161.9 195.98 160.04 194.92 160.04 193.04 161.9 194.1 161.9 195.98"/><polygon class="cls-10" points="159.25 191.75 157.39 190.69 157.39 188.81 159.25 189.88 159.25 191.75"/><polygon class="cls-8" points="159.25 194.49 157.39 193.43 157.39 191.55 159.25 192.61 159.25 194.49"/><polygon class="cls-8" points="156.6 187.53 154.74 186.47 154.74 184.59 156.6 185.65 156.6 187.53"/><polygon class="cls-10" points="156.6 193 154.74 191.94 154.74 190.06 156.6 191.12 156.6 193"/><polygon class="cls-10" points="153.95 188.78 152.09 187.72 152.09 185.84 153.95 186.9 153.95 188.78"/><g class="cls-1"><path class="cls-11" d="M160.24,162.52a10.83,10.83,0,0,0,1.51.26,10.29,10.29,0,0,0,1.57,0,7.46,7.46,0,0,0,3.11-.89,4,4,0,0,0,1.35-1.23,2.6,2.6,0,0,0,.35-.92c0-.12,0-3.65,0-3.65a2.19,2.19,0,0,1,0,.36,2.33,2.33,0,0,1-.36.92,3.79,3.79,0,0,1-1.35,1.23,7.28,7.28,0,0,1-3.11.89,9,9,0,0,1-1.56,0,8.21,8.21,0,0,1-1.51-.26,7.29,7.29,0,0,1-2.13-.91,3.26,3.26,0,0,1-1.7-2.6V159a3.23,3.23,0,0,0,1.71,2.6A7.36,7.36,0,0,0,160.24,162.52Z"/><path class="cls-11" d="M166.42,158.61a8.7,8.7,0,0,1-8.31-.29c-2.28-1.5-2.27-3.79,0-5.12a8.7,8.7,0,0,1,8.31.3C168.74,155,168.72,157.28,166.42,158.61Z"/></g><path class="cls-12" d="M162,157.85a2,2,0,0,1-1.71-1L125.66,99.27a47.67,47.67,0,0,1-6.79-24.52V35.6a2,2,0,1,1,4,0V74.75a43.65,43.65,0,0,0,6.22,22.46l34.58,57.61a2,2,0,0,1-.69,2.74A2,2,0,0,1,162,157.85Z"/><polygon class="cls-4" points="99.82 106.89 66.05 126.73 1.14 89.8 35.39 69.69 99.82 106.89"/><polygon class="cls-5" points="99.82 128.36 66.05 148.19 66.05 126.73 99.82 106.89 99.82 128.36"/><polygon class="cls-6" points="66.05 148.19 0.82 111.08 0.82 89.52 66.05 126.73 66.05 148.19"/><polygon class="cls-5" points="62.16 141.6 28.03 122.13 28.03 109.51 62.16 128.98 62.16 141.6"/><polygon class="cls-7" points="29.22 120.95 62.16 139.74 62.16 141.6 28.03 122.13 28.03 109.51 29.22 110.19 29.22 120.95"/><polygon class="cls-6" points="94.58 127.56 69.67 141.77 69.67 129.15 94.58 114.94 94.58 127.56"/><polygon class="cls-5" points="91.84 129.13 89.95 130.2 89.95 117.59 91.84 116.51 91.84 129.13"/><polygon class="cls-8" points="91.84 129.13 89.95 130.2 89.95 126.63 91.84 125.55 91.84 129.13"/><polygon class="cls-9" points="91.84 121.84 89.95 122.92 89.95 117.59 91.84 116.51 91.84 121.84"/><polygon class="cls-5" points="88.73 130.9 86.84 131.97 86.84 119.36 88.73 118.28 88.73 130.9"/><polygon class="cls-8" points="88.73 121.86 86.84 122.93 86.84 119.36 88.73 118.28 88.73 121.86"/><polygon class="cls-9" points="88.73 130.9 86.84 131.97 86.84 126.64 88.73 125.56 88.73 130.9"/><polygon class="cls-5" points="85.64 132.64 83.75 133.72 83.75 121.1 85.64 120.02 85.64 132.64"/><polygon class="cls-8" points="85.64 132.64 83.75 133.72 83.75 130.14 85.64 129.06 85.64 132.64"/><polygon class="cls-9" points="85.64 125.36 83.75 126.43 83.75 121.1 85.64 120.02 85.64 125.36"/><polygon class="cls-5" points="82.53 134.41 80.64 135.49 80.64 122.87 82.53 121.79 82.53 134.41"/><polygon class="cls-8" points="82.53 125.37 80.64 126.45 80.64 122.87 82.53 121.79 82.53 125.37"/><polygon class="cls-9" points="82.53 134.41 80.64 135.49 80.64 130.15 82.53 129.08 82.53 134.41"/><polygon class="cls-5" points="79.44 136.16 77.56 137.23 77.56 124.61 79.44 123.54 79.44 136.16"/><polygon class="cls-8" points="79.44 136.16 77.56 137.23 77.56 133.65 79.44 132.58 79.44 136.16"/><polygon class="cls-9" points="79.44 128.87 77.56 129.95 77.56 124.61 79.44 123.54 79.44 128.87"/><polygon class="cls-5" points="76.33 137.93 74.44 139 74.44 126.38 76.33 125.31 76.33 137.93"/><polygon class="cls-8" points="76.33 128.89 74.44 129.96 74.44 126.38 76.33 125.31 76.33 128.89"/><polygon class="cls-9" points="76.33 137.93 74.44 139 74.44 133.67 76.33 132.59 76.33 137.93"/><polygon class="cls-5" points="73.25 139.67 71.36 140.75 71.36 128.13 73.25 127.05 73.25 139.67"/><polygon class="cls-8" points="73.25 139.67 71.36 140.75 71.36 137.17 73.25 136.09 73.25 139.67"/><polygon class="cls-9" points="73.25 132.39 71.36 133.46 71.36 128.13 73.25 127.05 73.25 132.39"/><polygon class="cls-7" points="93.4 115.62 94.58 114.94 94.58 127.56 69.67 141.77 69.67 139.91 93.4 126.38 93.4 115.62"/><polygon class="cls-10" points="59.99 131.32 58.13 130.26 58.13 128.38 59.99 129.44 59.99 131.32"/><polygon class="cls-9" points="59.99 134.05 58.13 132.99 58.13 131.11 59.99 132.17 59.99 134.05"/><polygon class="cls-10" points="59.99 136.79 58.13 135.73 58.13 133.85 59.99 134.91 59.99 136.79"/><polygon class="cls-10" points="57.34 129.83 55.48 128.77 55.48 126.89 57.34 127.95 57.34 129.83"/><polygon class="cls-10" points="57.34 132.56 55.48 131.5 55.48 129.62 57.34 130.68 57.34 132.56"/><polygon class="cls-8" points="57.34 135.3 55.48 134.24 55.48 132.36 57.34 133.42 57.34 135.3"/><polygon class="cls-8" points="54.69 128.34 52.83 127.28 52.83 125.4 54.69 126.46 54.69 128.34"/><polygon class="cls-10" points="54.69 131.08 52.83 130.01 52.83 128.13 54.69 129.19 54.69 131.08"/><polygon class="cls-10" points="54.69 133.81 52.83 132.75 52.83 130.87 54.69 131.93 54.69 133.81"/><polygon class="cls-9" points="52.05 126.85 50.19 125.79 50.19 123.91 52.05 124.97 52.05 126.85"/><polygon class="cls-10" points="52.05 129.59 50.19 128.53 50.19 126.65 52.05 127.71 52.05 129.59"/><polygon class="cls-8" points="52.05 132.32 50.19 131.26 50.19 129.38 52.05 130.44 52.05 132.32"/><polygon class="cls-10" points="49.47 125.38 47.61 124.32 47.61 122.44 49.47 123.5 49.47 125.38"/><polygon class="cls-10" points="49.47 130.85 47.61 129.79 47.61 127.91 49.47 128.97 49.47 130.85"/><polygon class="cls-10" points="46.82 126.63 44.96 125.57 44.96 123.69 46.82 124.75 46.82 126.63"/><polygon class="cls-8" points="46.82 129.36 44.96 128.3 44.96 126.42 46.82 127.48 46.82 129.36"/><polygon class="cls-8" points="44.17 122.4 42.31 121.34 42.31 119.46 44.17 120.52 44.17 122.4"/><polygon class="cls-10" points="44.17 127.88 42.31 126.81 42.31 124.93 44.17 126 44.17 127.88"/><polygon class="cls-10" points="41.52 123.65 39.66 122.59 39.66 120.71 41.52 121.77 41.52 123.65"/><g class="cls-1"><path class="cls-11" d="M43.5,102.49a9.35,9.35,0,0,0,1.51.27,10.16,10.16,0,0,0,1.56,0,7.42,7.42,0,0,0,3.11-.89A4,4,0,0,0,51,100.65a2.45,2.45,0,0,0,.36-.92,2.22,2.22,0,0,0,0-.37V96.08a2.19,2.19,0,0,1,0,.36,2.33,2.33,0,0,1-.36.92,3.79,3.79,0,0,1-1.35,1.23,7.27,7.27,0,0,1-3.1.89,9.15,9.15,0,0,1-1.57,0,9.53,9.53,0,0,1-1.51-.26,7,7,0,0,1-2.12-.92,3.22,3.22,0,0,1-1.71-2.59V99a3.24,3.24,0,0,0,1.7,2.6A7,7,0,0,0,43.5,102.49Z"/><path class="cls-11" d="M49.67,98.59a8.66,8.66,0,0,1-8.3-.3c-2.29-1.49-2.28-3.78,0-5.11a8.66,8.66,0,0,1,8.3.3C52,95,52,97.26,49.67,98.59Z"/></g><polygon class="cls-4" points="183.27 37.2 149.5 57.04 84.59 20.11 118.84 0 183.27 37.2"/><polygon class="cls-5" points="183.27 58.67 149.5 78.5 149.5 57.04 183.27 37.2 183.27 58.67"/><polygon class="cls-6" points="149.5 78.59 84.27 41.4 84.27 19.83 149.5 57.04 149.5 78.59"/><polygon class="cls-5" points="145.62 71.91 111.48 52.44 111.48 39.83 145.62 59.29 145.62 71.91"/><polygon class="cls-7" points="112.67 51.26 145.62 70.05 145.62 71.91 111.48 52.44 111.48 39.83 112.67 40.5 112.67 51.26"/><polygon class="cls-6" points="178.04 57.87 153.12 72.08 153.12 59.47 178.04 45.26 178.04 57.87"/><polygon class="cls-5" points="175.29 59.44 173.4 60.52 173.4 47.9 175.29 46.82 175.29 59.44"/><polygon class="cls-8" points="175.29 59.44 173.4 60.52 173.4 56.94 175.29 55.86 175.29 59.44"/><polygon class="cls-9" points="175.29 52.15 173.4 53.23 173.4 47.9 175.29 46.82 175.29 52.15"/><polygon class="cls-5" points="172.18 61.21 170.29 62.28 170.29 49.67 172.18 48.59 172.18 61.21"/><polygon class="cls-8" points="172.18 52.17 170.29 53.24 170.29 49.67 172.18 48.59 172.18 52.17"/><polygon class="cls-9" points="172.18 61.21 170.29 62.28 170.29 56.95 172.18 55.87 172.18 61.21"/><polygon class="cls-5" points="169.09 62.95 167.21 64.03 167.21 51.41 169.09 50.33 169.09 62.95"/><polygon class="cls-8" points="169.09 62.95 167.21 64.03 167.21 60.45 169.09 59.37 169.09 62.95"/><polygon class="cls-9" points="169.09 55.67 167.21 56.74 167.21 51.41 169.09 50.33 169.09 55.67"/><polygon class="cls-5" points="165.98 64.72 164.09 65.8 164.09 53.18 165.98 52.1 165.98 64.72"/><polygon class="cls-8" points="165.98 55.68 164.09 56.76 164.09 53.18 165.98 52.1 165.98 55.68"/><polygon class="cls-9" points="165.98 64.72 164.09 65.8 164.09 60.47 165.98 59.39 165.98 64.72"/><polygon class="cls-5" points="162.9 66.47 161.01 67.54 161.01 54.93 162.9 53.85 162.9 66.47"/><polygon class="cls-8" points="162.9 66.47 161.01 67.54 161.01 63.97 162.9 62.89 162.9 66.47"/><polygon class="cls-9" points="162.9 59.18 161.01 60.26 161.01 54.93 162.9 53.85 162.9 59.18"/><polygon class="cls-5" points="159.78 68.24 157.9 69.31 157.9 56.7 159.78 55.62 159.78 68.24"/><polygon class="cls-8" points="159.78 59.2 157.9 60.27 157.9 56.7 159.78 55.62 159.78 59.2"/><polygon class="cls-9" points="159.78 68.24 157.9 69.31 157.9 63.98 159.78 62.9 159.78 68.24"/><polygon class="cls-5" points="156.7 69.98 154.81 71.06 154.81 58.44 156.7 57.36 156.7 69.98"/><polygon class="cls-8" points="156.7 69.98 154.81 71.06 154.81 67.48 156.7 66.4 156.7 69.98"/><polygon class="cls-9" points="156.7 62.7 154.81 63.77 154.81 58.44 156.7 57.36 156.7 62.7"/><polygon class="cls-7" points="176.85 45.93 178.04 45.26 178.04 57.87 153.12 72.08 153.12 70.22 176.85 56.69 176.85 45.93"/><polygon class="cls-10" points="143.44 61.63 141.58 60.57 141.58 58.69 143.44 59.75 143.44 61.63"/><polygon class="cls-9" points="143.44 64.36 141.58 63.3 141.58 61.42 143.44 62.48 143.44 64.36"/><polygon class="cls-10" points="143.44 67.1 141.58 66.04 141.58 64.16 143.44 65.22 143.44 67.1"/><polygon class="cls-10" points="140.79 60.14 138.93 59.08 138.93 57.2 140.79 58.26 140.79 60.14"/><polygon class="cls-10" points="140.79 62.88 138.93 61.81 138.93 59.94 140.79 60.99 140.79 62.88"/><polygon class="cls-8" points="140.79 65.61 138.93 64.55 138.93 62.67 140.79 63.73 140.79 65.61"/><polygon class="cls-8" points="138.15 58.65 136.28 57.59 136.28 55.71 138.15 56.77 138.15 58.65"/><polygon class="cls-10" points="138.15 61.39 136.28 60.33 136.28 58.45 138.15 59.51 138.15 61.39"/><polygon class="cls-10" points="138.15 64.12 136.28 63.06 136.28 61.18 138.15 62.24 138.15 64.12"/><polygon class="cls-9" points="135.5 57.16 133.64 56.1 133.64 54.22 135.5 55.28 135.5 57.16"/><polygon class="cls-10" points="135.5 59.9 133.64 58.84 133.64 56.96 135.5 58.02 135.5 59.9"/><polygon class="cls-8" points="135.5 62.63 133.64 61.57 133.64 59.69 135.5 60.75 135.5 62.63"/><polygon class="cls-10" points="132.92 55.69 131.06 54.63 131.06 52.75 132.92 53.81 132.92 55.69"/><polygon class="cls-10" points="132.92 61.16 131.06 60.1 131.06 58.22 132.92 59.28 132.92 61.16"/><polygon class="cls-10" points="130.27 56.94 128.41 55.88 128.41 54 130.27 55.06 130.27 56.94"/><polygon class="cls-8" points="130.27 59.67 128.41 58.61 128.41 56.73 130.27 57.8 130.27 59.67"/><polygon class="cls-8" points="127.62 52.72 125.76 51.65 125.76 49.77 127.62 50.83 127.62 52.72"/><polygon class="cls-10" points="127.62 58.19 125.76 57.13 125.76 55.24 127.62 56.31 127.62 58.19"/><polygon class="cls-10" points="124.97 53.96 123.11 52.9 123.11 51.02 124.97 52.08 124.97 53.96"/><path class="cls-12" d="M45.89,97.84a2,2,0,0,1-.36-4l75.58-13.69a2,2,0,0,1,.72,3.94L46.24,97.81Z"/><g class="cls-1"><path class="cls-8" d="M124.7,82.27a9.59,9.59,0,0,0-.53-1.44,9,9,0,0,0-.77-1.36,7.44,7.44,0,0,0-2.32-2.26,3.82,3.82,0,0,0-1.74-.55,2.23,2.23,0,0,0-1,.15A1.66,1.66,0,0,0,118,77l-2.85,1.65a1.66,1.66,0,0,1,.33-.16,2.62,2.62,0,0,1,1-.15,3.72,3.72,0,0,1,1.74.56,7.4,7.4,0,0,1,2.32,2.25,10.11,10.11,0,0,1,.77,1.36,9.54,9.54,0,0,1,.52,1.44,7.38,7.38,0,0,1,.27,2.3A3.24,3.24,0,0,1,120.71,89l2.85-1.64a3.24,3.24,0,0,0,1.4-2.77A7,7,0,0,0,124.7,82.27Z"/><path class="cls-11" d="M118.24,78.86a8.67,8.67,0,0,1,3.88,7.35c-.16,2.73-2.15,3.85-4.45,2.52a8.67,8.67,0,0,1-3.88-7.35C113.94,78.65,115.93,77.52,118.24,78.86Z"/></g><path class="cls-13" d="M118.81,86.47c.61,0,1-.52,1-1.35a4.42,4.42,0,0,0-2-3.73,1.78,1.78,0,0,0-.88-.27c-.6,0-1,.52-1,1.35a4.4,4.4,0,0,0,2,3.73,1.75,1.75,0,0,0,.87.27Z"/></g></g></g></svg>