<svg width="35" height="38" viewBox="0 0 35 38" xmlns="http://www.w3.org/2000/svg" xmlns:xlink="http://www.w3.org/1999/xlink"><defs><path id="a" d="M0 .021h34.028V37.6H0z"/></defs><g fill="none" fill-rule="evenodd" opacity=".5"><g transform="translate(0 .179)"><mask id="b" fill="#fff"><use xlink:href="#a"/></mask><path d="M1.446 8.2c.058 11.208 5.86 21.566 15.568 27.821a35.074 35.074 0 005.251-4.14c4.923-4.716 8.252-10.66 9.625-17.195.448-2.129.68-4.31.691-6.486-3.71-.33-6.674-3.17-7.03-6.734H8.476C8.12 5.03 5.156 7.87 1.446 8.2m15.568 29.4a.724.724 0 01-.384-.11C6.217 30.965 0 19.952 0 8.03V7.51c0-.4.323-.723.723-.723 3.498 0 6.344-2.71 6.344-6.042 0-.4.323-.723.723-.723h18.448c.4 0 .722.323.722.723 0 3.332 2.847 6.042 6.345 6.042.4 0 .723.323.723.723v.522c0 2.331-.244 4.67-.724 6.953-1.433 6.82-4.905 13.023-10.04 17.94a36.51 36.51 0 01-5.866 4.566.724.724 0 01-.384.11" fill="#7D7D7D" mask="url(#b)"/></g><path d="M12.302 17.99a1.058 1.058 0 00-.747 1.802l3.61 3.61 7.307-7.308a1.057 1.057 0 00-1.494-1.493l-5.302 5.303a.722.722 0 01-1.022 0l-1.605-1.605a1.05 1.05 0 00-.747-.308m2.863 7.155a.72.72 0 01-.511-.212l-4.12-4.12a2.505 2.505 0 010-3.537 2.504 2.504 0 013.537 0l1.094 1.094 4.792-4.792c.944-.944 2.593-.944 3.537 0a2.504 2.504 0 010 3.537l-7.818 7.818a.72.72 0 01-.511.212" fill="#7D7D7D"/></g></svg>