<?xml version="1.0" encoding="UTF-8" standalone="no" ?>
<!DOCTYPE svg PUBLIC "-//W3C//DTD SVG 1.1//EN" "http://www.w3.org/Graphics/SVG/1.1/DTD/svg11.dtd">
<svg xmlns="http://www.w3.org/2000/svg" xmlns:xlink="http://www.w3.org/1999/xlink" version="1.1" width="1080" height="1080" viewBox="0 0 1080 1080" xml:space="preserve">
<desc>Created with Fabric.js 5.2.4</desc>
<defs>
</defs>
<g transform="matrix(1 0 0 1 540 540)" id="01263813-34a6-4f54-bc0c-fbfba82d3be4"  >
<rect style="stroke: none; stroke-width: 1; stroke-dasharray: none; stroke-linecap: butt; stroke-dashoffset: 0; stroke-linejoin: miter; stroke-miterlimit: 4; fill: rgb(255,255,255); fill-rule: nonzero; opacity: 1; visibility: hidden;" vector-effect="non-scaling-stroke"  x="-540" y="-540" rx="0" ry="0" width="1080" height="1080" />
</g>
<g transform="matrix(1 0 0 1 540 540)" id="02c42d00-f465-441e-a489-1aa6dbdf6bc3"  >
</g>
<g transform="matrix(9.23 0 0 9.23 540 540)" id="Fill-1"  >
<path style="stroke: none; stroke-width: 1; stroke-dasharray: none; stroke-linecap: butt; stroke-dashoffset: 0; stroke-linejoin: miter; stroke-miterlimit: 4; fill: rgb(255,255,255); fill-rule: evenodd; opacity: 1;"  transform=" translate(-58.5, -18)" d="M 27 35.86 L 32 35.86 L 42.4 2.53 L 37.5 2.53 L 30 27.25 L 22.4 2.53 L 16.5 2.53 L 19 10.53 L 13.5 27.25 L 6 2.53 L 0 2.53 L 10.4 35.86 L 15.3 35.86 L 21.3 17.86 Z M 51.6 35.66 L 53.6 32.72 L 54.1 32.72 L 54.800000000000004 35.86 L 61.50000000000001 35.86 L 62.900000000000006 31.4 L 59.1 31.4 L 59.1 18.23 C 59.1 12.05 56.2 9.52 49.5 9.52 L 44.3 9.52 L 42.8 14.079999999999998 L 49.099999999999994 14.079999999999998 C 51.99999999999999 14.079999999999998 53.39999999999999 15.299999999999999 53.39999999999999 18.229999999999997 L 53.39999999999999 19.449999999999996 L 46.99999999999999 20.259999999999994 C 43.199999999999996 20.769999999999996 39.29999999999999 22.259999999999994 39.29999999999999 27.549999999999994 L 39.29999999999999 28.469999999999995 C 39.29999999999999 33.23 42.49999999999999 35.959999999999994 47.79999999999999 35.959999999999994 C 49.074552197785415 36.067496080859044 50.358105094710105 35.96616295741762 51.6 35.66 Z M 45.1 28.359999999999996 L 45.1 27.649999999999995 C 45.1 25.729999999999997 46.4 24.819999999999993 48.300000000000004 24.509999999999994 L 53.400000000000006 23.809999999999995 L 53.400000000000006 30.689999999999994 C 51.991487526003915 31.21342126584132 50.502571592132966 31.487517153667557 49.00000000000001 31.499999999999993 C 46.5 31.5 45.1 30.19 45.1 28.36 Z M 77 14 L 78.4 9.54 L 72 9.54 L 72 4.46 L 77.3 4.46 L 78.7 0 L 72.8 0 C 68.39999999999999 0 66.3 2.53 66.3 6.18 L 66.3 9.52 L 62.9 9.52 L 61.5 14 L 66.3 14 L 66.3 35.86 L 72 35.86 L 72 14 Z M 93.6 14.51 L 95.19999999999999 9.64 L 87.6 9.64 L 86.3 12.64 L 85.7 12.64 L 84.7 9.64 L 80.8 9.64 L 80.8 35.86 L 86.5 35.86 L 86.5 14.49 Z M 105.69999999999999 35.68 L 107.69999999999999 32.74 L 108.19999999999999 32.74 L 108.89999999999999 35.88 L 115.6 35.88 L 117 31.4 L 113.2 31.4 L 113.2 18.23 C 113.2 12.05 110.3 9.52 103.60000000000001 9.52 L 98.4 9.52 L 96.9 14.079999999999998 L 103.2 14.079999999999998 C 106.10000000000001 14.079999999999998 107.5 15.299999999999999 107.5 18.229999999999997 L 107.5 19.449999999999996 L 101.1 20.259999999999994 C 97.3 20.769999999999996 93.39999999999999 22.259999999999994 93.39999999999999 27.549999999999994 L 93.39999999999999 28.469999999999995 C 93.39999999999999 33.23 96.6 35.959999999999994 101.89999999999999 35.959999999999994 C 103.1745135531454 36.07629463670515 104.45952390117351 35.97484645133451 105.7 35.66 Z M 99.29999999999998 28.38 L 99.29999999999998 27.669999999999998 C 99.29999999999998 25.75 100.59999999999998 24.839999999999996 102.49999999999999 24.529999999999998 L 107.59999999999998 23.83 L 107.59999999999998 30.709999999999997 C 106.19148752600388 31.233421265841322 104.70257159213294 31.50751715366756 103.19999999999997 31.519999999999996 C 100.6 31.5 99.3 30.19 99.3 28.36 Z" stroke-linecap="round" />
</g>
</svg>