<svg xmlns="http://www.w3.org/2000/svg" xmlns:xlink="http://www.w3.org/1999/xlink" width="100" zoomAndPan="magnify" viewBox="0 0 75 74.999997" height="100" preserveAspectRatio="xMidYMid meet" version="1.0"><defs><g/><clipPath id="5a9eb72f5b"><path d="M 16.148438 7.5 L 58.851562 7.5 L 58.851562 50.199219 L 16.148438 50.199219 Z M 16.148438 7.5 " clip-rule="nonzero"/></clipPath></defs><g fill="#000000" fill-opacity="1"><g transform="translate(31.023457, 59.702774)"><g><path d="M 1.4375 0 C 1.375 0 1.332031 -0.03125 1.3125 -0.09375 L 0.125 -4.59375 C 0.125 -4.601562 0.125 -4.613281 0.125 -4.625 C 0.125 -4.6875 0.160156 -4.71875 0.234375 -4.71875 L 1 -4.71875 C 1.0625 -4.71875 1.101562 -4.6875 1.125 -4.625 L 1.75 -1.9375 C 1.757812 -1.914062 1.769531 -1.90625 1.78125 -1.90625 C 1.789062 -1.90625 1.800781 -1.914062 1.8125 -1.9375 L 2.421875 -4.625 C 2.429688 -4.6875 2.46875 -4.71875 2.53125 -4.71875 L 3.296875 -4.71875 C 3.367188 -4.71875 3.410156 -4.6875 3.421875 -4.625 L 4.09375 -1.9375 C 4.09375 -1.914062 4.097656 -1.90625 4.109375 -1.90625 C 4.117188 -1.90625 4.128906 -1.914062 4.140625 -1.9375 L 4.75 -4.625 C 4.757812 -4.6875 4.796875 -4.71875 4.859375 -4.71875 L 5.609375 -4.71875 C 5.640625 -4.71875 5.660156 -4.707031 5.671875 -4.6875 C 5.691406 -4.664062 5.703125 -4.632812 5.703125 -4.59375 L 4.609375 -0.09375 C 4.597656 -0.03125 4.554688 0 4.484375 0 L 3.734375 0 C 3.660156 0 3.617188 -0.03125 3.609375 -0.09375 L 2.9375 -2.96875 C 2.925781 -2.988281 2.914062 -3 2.90625 -3 C 2.894531 -3 2.882812 -2.988281 2.875 -2.96875 L 2.25 -0.09375 C 2.238281 -0.03125 2.203125 0 2.140625 0 Z M 1.4375 0 "/></g></g></g><g fill="#000000" fill-opacity="1"><g transform="translate(36.995104, 59.702774)"><g><path d="M 2.03125 -0.75 C 2.320312 -0.757812 2.546875 -0.863281 2.703125 -1.0625 C 2.734375 -1.09375 2.765625 -1.109375 2.796875 -1.109375 C 2.816406 -1.109375 2.84375 -1.097656 2.875 -1.078125 L 3.25 -0.703125 C 3.28125 -0.671875 3.296875 -0.644531 3.296875 -0.625 C 3.296875 -0.59375 3.285156 -0.566406 3.265625 -0.546875 C 3.117188 -0.359375 2.925781 -0.210938 2.6875 -0.109375 C 2.457031 -0.00390625 2.207031 0.046875 1.9375 0.046875 C 1.519531 0.046875 1.175781 -0.0546875 0.90625 -0.265625 C 0.632812 -0.472656 0.453125 -0.765625 0.359375 -1.140625 C 0.304688 -1.335938 0.28125 -1.546875 0.28125 -1.765625 C 0.28125 -2.023438 0.300781 -2.242188 0.34375 -2.421875 C 0.4375 -2.753906 0.617188 -3.019531 0.890625 -3.21875 C 1.160156 -3.425781 1.484375 -3.53125 1.859375 -3.53125 C 2.304688 -3.53125 2.65625 -3.398438 2.90625 -3.140625 C 3.164062 -2.878906 3.335938 -2.507812 3.421875 -2.03125 C 3.429688 -1.882812 3.441406 -1.722656 3.453125 -1.546875 C 3.453125 -1.472656 3.414062 -1.4375 3.34375 -1.4375 L 1.265625 -1.4375 C 1.242188 -1.4375 1.234375 -1.421875 1.234375 -1.390625 C 1.242188 -1.296875 1.257812 -1.226562 1.28125 -1.1875 C 1.320312 -1.039062 1.40625 -0.929688 1.53125 -0.859375 C 1.664062 -0.785156 1.832031 -0.75 2.03125 -0.75 Z M 1.84375 -2.703125 C 1.707031 -2.703125 1.585938 -2.664062 1.484375 -2.59375 C 1.390625 -2.53125 1.328125 -2.4375 1.296875 -2.3125 C 1.265625 -2.226562 1.25 -2.171875 1.25 -2.140625 C 1.238281 -2.109375 1.25 -2.09375 1.28125 -2.09375 L 2.4375 -2.09375 C 2.457031 -2.09375 2.46875 -2.101562 2.46875 -2.125 C 2.46875 -2.175781 2.457031 -2.226562 2.4375 -2.28125 C 2.394531 -2.414062 2.320312 -2.519531 2.21875 -2.59375 C 2.125 -2.664062 2 -2.703125 1.84375 -2.703125 Z M 1.84375 -2.703125 "/></g></g></g><g fill="#000000" fill-opacity="1"><g transform="translate(40.832094, 59.702774)"><g><path d="M 3.421875 -2.578125 C 3.503906 -2.359375 3.546875 -2.082031 3.546875 -1.75 C 3.546875 -1.425781 3.507812 -1.15625 3.4375 -0.9375 C 3.34375 -0.644531 3.175781 -0.40625 2.9375 -0.21875 C 2.707031 -0.0390625 2.441406 0.046875 2.140625 0.046875 C 1.804688 0.046875 1.546875 -0.0703125 1.359375 -0.3125 C 1.347656 -0.320312 1.335938 -0.328125 1.328125 -0.328125 C 1.316406 -0.328125 1.3125 -0.316406 1.3125 -0.296875 L 1.3125 -0.109375 C 1.3125 -0.0351562 1.273438 0 1.203125 0 L 0.484375 0 C 0.398438 0 0.359375 -0.0351562 0.359375 -0.109375 L 0.359375 -4.609375 C 0.359375 -4.679688 0.398438 -4.71875 0.484375 -4.71875 L 1.203125 -4.71875 C 1.273438 -4.71875 1.3125 -4.679688 1.3125 -4.609375 L 1.3125 -3.21875 C 1.3125 -3.195312 1.316406 -3.179688 1.328125 -3.171875 C 1.335938 -3.171875 1.347656 -3.179688 1.359375 -3.203125 C 1.546875 -3.421875 1.804688 -3.53125 2.140625 -3.53125 C 2.441406 -3.53125 2.707031 -3.441406 2.9375 -3.265625 C 3.164062 -3.097656 3.328125 -2.867188 3.421875 -2.578125 Z M 2.40625 -1.0625 C 2.5 -1.238281 2.546875 -1.460938 2.546875 -1.734375 C 2.546875 -2.023438 2.492188 -2.257812 2.390625 -2.4375 C 2.285156 -2.601562 2.128906 -2.6875 1.921875 -2.6875 C 1.734375 -2.6875 1.582031 -2.601562 1.46875 -2.4375 C 1.375 -2.269531 1.328125 -2.035156 1.328125 -1.734375 C 1.328125 -1.453125 1.367188 -1.226562 1.453125 -1.0625 C 1.566406 -0.875 1.722656 -0.78125 1.921875 -0.78125 C 2.140625 -0.78125 2.300781 -0.875 2.40625 -1.0625 Z M 2.40625 -1.0625 "/></g></g></g><g fill="#000000" fill-opacity="1"><g transform="translate(1.350466, 66.261507)"><g><path d="M 0.5625 0 C 0.507812 0 0.484375 -0.0195312 0.484375 -0.0625 L 0.484375 -3.59375 C 0.484375 -3.644531 0.507812 -3.671875 0.5625 -3.671875 L 1.78125 -3.671875 C 2.125 -3.671875 2.394531 -3.578125 2.59375 -3.390625 C 2.800781 -3.210938 2.90625 -2.96875 2.90625 -2.65625 L 2.90625 -1.015625 C 2.90625 -0.703125 2.800781 -0.453125 2.59375 -0.265625 C 2.394531 -0.0859375 2.125 0 1.78125 0 Z M 0.859375 -0.34375 C 0.859375 -0.332031 0.867188 -0.328125 0.890625 -0.328125 L 1.796875 -0.328125 C 2.023438 -0.328125 2.203125 -0.390625 2.328125 -0.515625 C 2.460938 -0.648438 2.53125 -0.832031 2.53125 -1.0625 L 2.53125 -2.59375 C 2.53125 -2.820312 2.460938 -3.003906 2.328125 -3.140625 C 2.203125 -3.273438 2.023438 -3.34375 1.796875 -3.34375 L 0.890625 -3.34375 C 0.867188 -3.34375 0.859375 -3.332031 0.859375 -3.3125 Z M 0.859375 -0.34375 "/></g></g></g><g fill="#000000" fill-opacity="1"><g transform="translate(4.498469, 66.261507)"><g><path d="M 1.328125 -2.6875 C 1.648438 -2.6875 1.894531 -2.601562 2.0625 -2.4375 C 2.238281 -2.28125 2.328125 -2.070312 2.328125 -1.8125 L 2.328125 -0.0625 C 2.328125 -0.0195312 2.300781 0 2.25 0 L 2.015625 0 C 1.972656 0 1.953125 -0.0195312 1.953125 -0.0625 L 1.953125 -0.25 C 1.953125 -0.257812 1.945312 -0.265625 1.9375 -0.265625 C 1.9375 -0.273438 1.929688 -0.273438 1.921875 -0.265625 C 1.828125 -0.160156 1.707031 -0.0820312 1.5625 -0.03125 C 1.425781 0.0195312 1.273438 0.046875 1.109375 0.046875 C 0.859375 0.046875 0.648438 -0.015625 0.484375 -0.140625 C 0.316406 -0.265625 0.234375 -0.457031 0.234375 -0.71875 C 0.234375 -0.976562 0.328125 -1.1875 0.515625 -1.34375 C 0.710938 -1.5 0.976562 -1.578125 1.3125 -1.578125 L 1.921875 -1.578125 C 1.941406 -1.578125 1.953125 -1.582031 1.953125 -1.59375 L 1.953125 -1.796875 C 1.953125 -1.972656 1.898438 -2.109375 1.796875 -2.203125 C 1.703125 -2.304688 1.550781 -2.359375 1.34375 -2.359375 C 1.175781 -2.359375 1.039062 -2.328125 0.9375 -2.265625 C 0.832031 -2.203125 0.765625 -2.117188 0.734375 -2.015625 C 0.722656 -1.972656 0.695312 -1.953125 0.65625 -1.953125 L 0.40625 -1.984375 C 0.351562 -1.992188 0.332031 -2.015625 0.34375 -2.046875 C 0.375 -2.234375 0.476562 -2.382812 0.65625 -2.5 C 0.84375 -2.625 1.066406 -2.6875 1.328125 -2.6875 Z M 1.1875 -0.28125 C 1.394531 -0.28125 1.570312 -0.332031 1.71875 -0.4375 C 1.875 -0.539062 1.953125 -0.675781 1.953125 -0.84375 L 1.953125 -1.25 C 1.953125 -1.269531 1.941406 -1.28125 1.921875 -1.28125 L 1.375 -1.28125 C 1.144531 -1.28125 0.957031 -1.234375 0.8125 -1.140625 C 0.675781 -1.046875 0.609375 -0.914062 0.609375 -0.75 C 0.609375 -0.59375 0.660156 -0.472656 0.765625 -0.390625 C 0.878906 -0.316406 1.019531 -0.28125 1.1875 -0.28125 Z M 1.1875 -0.28125 "/></g></g></g><g fill="#000000" fill-opacity="1"><g transform="translate(7.086011, 66.261507)"><g><path d="M 1.28125 0.03125 C 1.09375 0.03125 0.921875 0 0.765625 -0.0625 C 0.617188 -0.125 0.503906 -0.207031 0.421875 -0.3125 C 0.335938 -0.414062 0.296875 -0.535156 0.296875 -0.671875 L 0.296875 -0.71875 C 0.296875 -0.757812 0.316406 -0.78125 0.359375 -0.78125 L 0.59375 -0.78125 C 0.613281 -0.78125 0.628906 -0.773438 0.640625 -0.765625 C 0.648438 -0.765625 0.65625 -0.753906 0.65625 -0.734375 L 0.65625 -0.6875 C 0.65625 -0.570312 0.710938 -0.472656 0.828125 -0.390625 C 0.953125 -0.304688 1.101562 -0.265625 1.28125 -0.265625 C 1.457031 -0.265625 1.601562 -0.300781 1.71875 -0.375 C 1.832031 -0.457031 1.890625 -0.566406 1.890625 -0.703125 C 1.890625 -0.785156 1.859375 -0.851562 1.796875 -0.90625 C 1.742188 -0.96875 1.675781 -1.015625 1.59375 -1.046875 C 1.519531 -1.078125 1.398438 -1.113281 1.234375 -1.15625 C 1.046875 -1.21875 0.890625 -1.273438 0.765625 -1.328125 C 0.640625 -1.378906 0.53125 -1.457031 0.4375 -1.5625 C 0.351562 -1.664062 0.3125 -1.789062 0.3125 -1.9375 C 0.3125 -2.164062 0.398438 -2.34375 0.578125 -2.46875 C 0.753906 -2.601562 0.984375 -2.671875 1.265625 -2.671875 C 1.453125 -2.671875 1.617188 -2.640625 1.765625 -2.578125 C 1.921875 -2.515625 2.035156 -2.425781 2.109375 -2.3125 C 2.191406 -2.207031 2.234375 -2.085938 2.234375 -1.953125 C 2.234375 -1.910156 2.210938 -1.890625 2.171875 -1.890625 L 1.953125 -1.890625 C 1.910156 -1.890625 1.890625 -1.898438 1.890625 -1.921875 L 1.890625 -1.953125 C 1.890625 -2.066406 1.832031 -2.164062 1.71875 -2.25 C 1.601562 -2.332031 1.453125 -2.375 1.265625 -2.375 C 1.085938 -2.375 0.941406 -2.335938 0.828125 -2.265625 C 0.722656 -2.191406 0.671875 -2.09375 0.671875 -1.96875 C 0.671875 -1.851562 0.722656 -1.765625 0.828125 -1.703125 C 0.929688 -1.640625 1.09375 -1.570312 1.3125 -1.5 C 1.507812 -1.445312 1.671875 -1.394531 1.796875 -1.34375 C 1.921875 -1.289062 2.03125 -1.210938 2.125 -1.109375 C 2.21875 -1.015625 2.265625 -0.882812 2.265625 -0.71875 C 2.265625 -0.488281 2.175781 -0.304688 2 -0.171875 C 1.820312 -0.0351562 1.582031 0.03125 1.28125 0.03125 Z M 1.28125 0.03125 "/></g></g></g><g fill="#000000" fill-opacity="1"><g transform="translate(9.521652, 66.261507)"><g><path d="M 1.515625 -2.6875 C 1.796875 -2.6875 2.015625 -2.601562 2.171875 -2.4375 C 2.335938 -2.269531 2.421875 -2.050781 2.421875 -1.78125 L 2.421875 -0.0625 C 2.421875 -0.0195312 2.398438 0 2.359375 0 L 2.125 0 C 2.082031 0 2.0625 -0.0195312 2.0625 -0.0625 L 2.0625 -1.703125 C 2.0625 -1.898438 2.003906 -2.054688 1.890625 -2.171875 C 1.773438 -2.296875 1.625 -2.359375 1.4375 -2.359375 C 1.257812 -2.359375 1.109375 -2.304688 0.984375 -2.203125 C 0.867188 -2.109375 0.804688 -1.976562 0.796875 -1.8125 L 0.796875 -0.0625 C 0.796875 -0.0195312 0.769531 0 0.71875 0 L 0.484375 0 C 0.441406 0 0.421875 -0.0195312 0.421875 -0.0625 L 0.421875 -3.59375 C 0.421875 -3.644531 0.441406 -3.671875 0.484375 -3.671875 L 0.71875 -3.671875 C 0.769531 -3.671875 0.796875 -3.644531 0.796875 -3.59375 L 0.796875 -2.390625 C 0.796875 -2.378906 0.796875 -2.367188 0.796875 -2.359375 C 0.804688 -2.359375 0.8125 -2.363281 0.8125 -2.375 C 0.96875 -2.582031 1.203125 -2.6875 1.515625 -2.6875 Z M 1.515625 -2.6875 "/></g></g></g><g fill="#000000" fill-opacity="1"><g transform="translate(12.255858, 66.261507)"><g><path d="M 2.453125 -1.96875 C 2.492188 -1.832031 2.515625 -1.617188 2.515625 -1.328125 C 2.515625 -1.035156 2.488281 -0.8125 2.4375 -0.65625 C 2.375 -0.4375 2.257812 -0.265625 2.09375 -0.140625 C 1.9375 -0.015625 1.734375 0.046875 1.484375 0.046875 C 1.347656 0.046875 1.222656 0.0195312 1.109375 -0.03125 C 0.992188 -0.09375 0.898438 -0.175781 0.828125 -0.28125 C 0.816406 -0.28125 0.804688 -0.28125 0.796875 -0.28125 C 0.796875 -0.28125 0.796875 -0.273438 0.796875 -0.265625 L 0.796875 -0.0625 C 0.796875 -0.0195312 0.769531 0 0.71875 0 L 0.484375 0 C 0.441406 0 0.421875 -0.0195312 0.421875 -0.0625 L 0.421875 -3.59375 C 0.421875 -3.644531 0.441406 -3.671875 0.484375 -3.671875 L 0.71875 -3.671875 C 0.769531 -3.671875 0.796875 -3.644531 0.796875 -3.59375 L 0.796875 -2.390625 C 0.796875 -2.378906 0.796875 -2.367188 0.796875 -2.359375 C 0.804688 -2.359375 0.816406 -2.363281 0.828125 -2.375 C 0.898438 -2.476562 0.992188 -2.554688 1.109375 -2.609375 C 1.222656 -2.660156 1.347656 -2.6875 1.484375 -2.6875 C 1.734375 -2.6875 1.941406 -2.625 2.109375 -2.5 C 2.273438 -2.375 2.390625 -2.195312 2.453125 -1.96875 Z M 2.046875 -0.6875 C 2.085938 -0.757812 2.113281 -0.84375 2.125 -0.9375 C 2.132812 -1.03125 2.140625 -1.160156 2.140625 -1.328125 C 2.140625 -1.492188 2.128906 -1.625 2.109375 -1.71875 C 2.097656 -1.820312 2.070312 -1.910156 2.03125 -1.984375 C 1.976562 -2.097656 1.898438 -2.1875 1.796875 -2.25 C 1.703125 -2.320312 1.582031 -2.359375 1.4375 -2.359375 C 1.3125 -2.359375 1.195312 -2.320312 1.09375 -2.25 C 1 -2.1875 0.929688 -2.09375 0.890625 -1.96875 C 0.859375 -1.894531 0.832031 -1.8125 0.8125 -1.71875 C 0.800781 -1.625 0.796875 -1.492188 0.796875 -1.328125 C 0.796875 -1.160156 0.800781 -1.03125 0.8125 -0.9375 C 0.832031 -0.84375 0.859375 -0.757812 0.890625 -0.6875 C 0.929688 -0.5625 1 -0.460938 1.09375 -0.390625 C 1.1875 -0.316406 1.304688 -0.28125 1.453125 -0.28125 C 1.597656 -0.28125 1.722656 -0.316406 1.828125 -0.390625 C 1.929688 -0.460938 2.003906 -0.5625 2.046875 -0.6875 Z M 2.046875 -0.6875 "/></g></g></g><g fill="#000000" fill-opacity="1"><g transform="translate(15.005776, 66.261507)"><g><path d="M 1.4375 0.046875 C 1.175781 0.046875 0.957031 -0.015625 0.78125 -0.140625 C 0.601562 -0.273438 0.476562 -0.457031 0.40625 -0.6875 C 0.351562 -0.84375 0.328125 -1.054688 0.328125 -1.328125 C 0.328125 -1.597656 0.351562 -1.8125 0.40625 -1.96875 C 0.46875 -2.1875 0.585938 -2.359375 0.765625 -2.484375 C 0.953125 -2.617188 1.175781 -2.6875 1.4375 -2.6875 C 1.6875 -2.6875 1.898438 -2.617188 2.078125 -2.484375 C 2.253906 -2.359375 2.378906 -2.1875 2.453125 -1.96875 C 2.492188 -1.800781 2.515625 -1.585938 2.515625 -1.328125 C 2.515625 -1.054688 2.492188 -0.84375 2.453125 -0.6875 C 2.378906 -0.457031 2.253906 -0.273438 2.078125 -0.140625 C 1.898438 -0.015625 1.6875 0.046875 1.4375 0.046875 Z M 1.4375 -0.28125 C 1.601562 -0.28125 1.742188 -0.328125 1.859375 -0.421875 C 1.984375 -0.515625 2.066406 -0.640625 2.109375 -0.796875 C 2.128906 -0.910156 2.140625 -1.085938 2.140625 -1.328125 C 2.140625 -1.578125 2.128906 -1.753906 2.109375 -1.859375 C 2.066406 -2.015625 1.984375 -2.132812 1.859375 -2.21875 C 1.742188 -2.3125 1.597656 -2.359375 1.421875 -2.359375 C 1.253906 -2.359375 1.109375 -2.3125 0.984375 -2.21875 C 0.867188 -2.132812 0.789062 -2.015625 0.75 -1.859375 C 0.726562 -1.753906 0.71875 -1.578125 0.71875 -1.328125 C 0.71875 -1.078125 0.726562 -0.898438 0.75 -0.796875 C 0.789062 -0.640625 0.867188 -0.515625 0.984375 -0.421875 C 1.109375 -0.328125 1.257812 -0.28125 1.4375 -0.28125 Z M 1.4375 -0.28125 "/></g></g></g><g fill="#000000" fill-opacity="1"><g transform="translate(17.776645, 66.261507)"><g><path d="M 1.328125 -2.6875 C 1.648438 -2.6875 1.894531 -2.601562 2.0625 -2.4375 C 2.238281 -2.28125 2.328125 -2.070312 2.328125 -1.8125 L 2.328125 -0.0625 C 2.328125 -0.0195312 2.300781 0 2.25 0 L 2.015625 0 C 1.972656 0 1.953125 -0.0195312 1.953125 -0.0625 L 1.953125 -0.25 C 1.953125 -0.257812 1.945312 -0.265625 1.9375 -0.265625 C 1.9375 -0.273438 1.929688 -0.273438 1.921875 -0.265625 C 1.828125 -0.160156 1.707031 -0.0820312 1.5625 -0.03125 C 1.425781 0.0195312 1.273438 0.046875 1.109375 0.046875 C 0.859375 0.046875 0.648438 -0.015625 0.484375 -0.140625 C 0.316406 -0.265625 0.234375 -0.457031 0.234375 -0.71875 C 0.234375 -0.976562 0.328125 -1.1875 0.515625 -1.34375 C 0.710938 -1.5 0.976562 -1.578125 1.3125 -1.578125 L 1.921875 -1.578125 C 1.941406 -1.578125 1.953125 -1.582031 1.953125 -1.59375 L 1.953125 -1.796875 C 1.953125 -1.972656 1.898438 -2.109375 1.796875 -2.203125 C 1.703125 -2.304688 1.550781 -2.359375 1.34375 -2.359375 C 1.175781 -2.359375 1.039062 -2.328125 0.9375 -2.265625 C 0.832031 -2.203125 0.765625 -2.117188 0.734375 -2.015625 C 0.722656 -1.972656 0.695312 -1.953125 0.65625 -1.953125 L 0.40625 -1.984375 C 0.351562 -1.992188 0.332031 -2.015625 0.34375 -2.046875 C 0.375 -2.234375 0.476562 -2.382812 0.65625 -2.5 C 0.84375 -2.625 1.066406 -2.6875 1.328125 -2.6875 Z M 1.1875 -0.28125 C 1.394531 -0.28125 1.570312 -0.332031 1.71875 -0.4375 C 1.875 -0.539062 1.953125 -0.675781 1.953125 -0.84375 L 1.953125 -1.25 C 1.953125 -1.269531 1.941406 -1.28125 1.921875 -1.28125 L 1.375 -1.28125 C 1.144531 -1.28125 0.957031 -1.234375 0.8125 -1.140625 C 0.675781 -1.046875 0.609375 -0.914062 0.609375 -0.75 C 0.609375 -0.59375 0.660156 -0.472656 0.765625 -0.390625 C 0.878906 -0.316406 1.019531 -0.28125 1.1875 -0.28125 Z M 1.1875 -0.28125 "/></g></g></g><g fill="#000000" fill-opacity="1"><g transform="translate(20.364187, 66.261507)"><g><path d="M 1.484375 -2.671875 C 1.597656 -2.671875 1.695312 -2.648438 1.78125 -2.609375 C 1.8125 -2.597656 1.820312 -2.570312 1.8125 -2.53125 L 1.765625 -2.296875 C 1.753906 -2.253906 1.722656 -2.238281 1.671875 -2.25 C 1.609375 -2.269531 1.523438 -2.28125 1.421875 -2.28125 C 1.234375 -2.269531 1.082031 -2.203125 0.96875 -2.078125 C 0.851562 -1.953125 0.796875 -1.789062 0.796875 -1.59375 L 0.796875 -0.0625 C 0.796875 -0.0195312 0.769531 0 0.71875 0 L 0.484375 0 C 0.441406 0 0.421875 -0.0195312 0.421875 -0.0625 L 0.421875 -2.578125 C 0.421875 -2.628906 0.441406 -2.65625 0.484375 -2.65625 L 0.71875 -2.65625 C 0.769531 -2.65625 0.796875 -2.628906 0.796875 -2.578125 L 0.796875 -2.28125 C 0.796875 -2.269531 0.796875 -2.265625 0.796875 -2.265625 C 0.804688 -2.265625 0.8125 -2.269531 0.8125 -2.28125 C 0.882812 -2.40625 0.976562 -2.5 1.09375 -2.5625 C 1.207031 -2.632812 1.335938 -2.671875 1.484375 -2.671875 Z M 1.484375 -2.671875 "/></g></g></g><g fill="#000000" fill-opacity="1"><g transform="translate(22.181749, 66.261507)"><g><path d="M 2.046875 -3.59375 C 2.046875 -3.644531 2.066406 -3.671875 2.109375 -3.671875 L 2.34375 -3.671875 C 2.394531 -3.671875 2.421875 -3.644531 2.421875 -3.59375 L 2.421875 -0.0625 C 2.421875 -0.0195312 2.394531 0 2.34375 0 L 2.109375 0 C 2.066406 0 2.046875 -0.0195312 2.046875 -0.0625 L 2.046875 -0.265625 C 2.046875 -0.273438 2.039062 -0.28125 2.03125 -0.28125 C 2.03125 -0.28125 2.023438 -0.28125 2.015625 -0.28125 C 1.941406 -0.175781 1.847656 -0.09375 1.734375 -0.03125 C 1.617188 0.0195312 1.488281 0.046875 1.34375 0.046875 C 1.101562 0.046875 0.898438 -0.015625 0.734375 -0.140625 C 0.566406 -0.265625 0.453125 -0.4375 0.390625 -0.65625 C 0.335938 -0.8125 0.3125 -1.035156 0.3125 -1.328125 C 0.3125 -1.617188 0.332031 -1.832031 0.375 -1.96875 C 0.4375 -2.195312 0.550781 -2.375 0.71875 -2.5 C 0.894531 -2.625 1.101562 -2.6875 1.34375 -2.6875 C 1.476562 -2.6875 1.601562 -2.660156 1.71875 -2.609375 C 1.84375 -2.554688 1.941406 -2.476562 2.015625 -2.375 C 2.023438 -2.363281 2.03125 -2.359375 2.03125 -2.359375 C 2.039062 -2.367188 2.046875 -2.378906 2.046875 -2.390625 Z M 1.953125 -0.6875 C 1.984375 -0.757812 2.003906 -0.84375 2.015625 -0.9375 C 2.023438 -1.03125 2.03125 -1.160156 2.03125 -1.328125 C 2.03125 -1.492188 2.023438 -1.625 2.015625 -1.71875 C 2.003906 -1.8125 1.976562 -1.894531 1.9375 -1.96875 C 1.894531 -2.09375 1.828125 -2.1875 1.734375 -2.25 C 1.640625 -2.320312 1.523438 -2.359375 1.390625 -2.359375 C 1.253906 -2.359375 1.132812 -2.320312 1.03125 -2.25 C 0.925781 -2.1875 0.851562 -2.097656 0.8125 -1.984375 C 0.769531 -1.910156 0.738281 -1.820312 0.71875 -1.71875 C 0.695312 -1.625 0.6875 -1.492188 0.6875 -1.328125 C 0.6875 -1.160156 0.691406 -1.03125 0.703125 -0.9375 C 0.722656 -0.84375 0.75 -0.757812 0.78125 -0.6875 C 0.820312 -0.5625 0.894531 -0.460938 1 -0.390625 C 1.113281 -0.316406 1.242188 -0.28125 1.390625 -0.28125 C 1.523438 -0.28125 1.640625 -0.316406 1.734375 -0.390625 C 1.828125 -0.460938 1.898438 -0.5625 1.953125 -0.6875 Z M 1.953125 -0.6875 "/></g></g></g><g fill="#000000" fill-opacity="1"><g transform="translate(24.931667, 66.261507)"><g><path d="M 1.28125 0.03125 C 1.09375 0.03125 0.921875 0 0.765625 -0.0625 C 0.617188 -0.125 0.503906 -0.207031 0.421875 -0.3125 C 0.335938 -0.414062 0.296875 -0.535156 0.296875 -0.671875 L 0.296875 -0.71875 C 0.296875 -0.757812 0.316406 -0.78125 0.359375 -0.78125 L 0.59375 -0.78125 C 0.613281 -0.78125 0.628906 -0.773438 0.640625 -0.765625 C 0.648438 -0.765625 0.65625 -0.753906 0.65625 -0.734375 L 0.65625 -0.6875 C 0.65625 -0.570312 0.710938 -0.472656 0.828125 -0.390625 C 0.953125 -0.304688 1.101562 -0.265625 1.28125 -0.265625 C 1.457031 -0.265625 1.601562 -0.300781 1.71875 -0.375 C 1.832031 -0.457031 1.890625 -0.566406 1.890625 -0.703125 C 1.890625 -0.785156 1.859375 -0.851562 1.796875 -0.90625 C 1.742188 -0.96875 1.675781 -1.015625 1.59375 -1.046875 C 1.519531 -1.078125 1.398438 -1.113281 1.234375 -1.15625 C 1.046875 -1.21875 0.890625 -1.273438 0.765625 -1.328125 C 0.640625 -1.378906 0.53125 -1.457031 0.4375 -1.5625 C 0.351562 -1.664062 0.3125 -1.789062 0.3125 -1.9375 C 0.3125 -2.164062 0.398438 -2.34375 0.578125 -2.46875 C 0.753906 -2.601562 0.984375 -2.671875 1.265625 -2.671875 C 1.453125 -2.671875 1.617188 -2.640625 1.765625 -2.578125 C 1.921875 -2.515625 2.035156 -2.425781 2.109375 -2.3125 C 2.191406 -2.207031 2.234375 -2.085938 2.234375 -1.953125 C 2.234375 -1.910156 2.210938 -1.890625 2.171875 -1.890625 L 1.953125 -1.890625 C 1.910156 -1.890625 1.890625 -1.898438 1.890625 -1.921875 L 1.890625 -1.953125 C 1.890625 -2.066406 1.832031 -2.164062 1.71875 -2.25 C 1.601562 -2.332031 1.453125 -2.375 1.265625 -2.375 C 1.085938 -2.375 0.941406 -2.335938 0.828125 -2.265625 C 0.722656 -2.191406 0.671875 -2.09375 0.671875 -1.96875 C 0.671875 -1.851562 0.722656 -1.765625 0.828125 -1.703125 C 0.929688 -1.640625 1.09375 -1.570312 1.3125 -1.5 C 1.507812 -1.445312 1.671875 -1.394531 1.796875 -1.34375 C 1.921875 -1.289062 2.03125 -1.210938 2.125 -1.109375 C 2.21875 -1.015625 2.265625 -0.882812 2.265625 -0.71875 C 2.265625 -0.488281 2.175781 -0.304688 2 -0.171875 C 1.820312 -0.0351562 1.582031 0.03125 1.28125 0.03125 Z M 1.28125 0.03125 "/></g></g></g><g fill="#000000" fill-opacity="1"><g transform="translate(27.367307, 66.261507)"><g/></g></g><g fill="#000000" fill-opacity="1"><g transform="translate(28.325846, 66.261507)"><g><path d="M 3.109375 -0.078125 C 3.117188 -0.0664062 3.125 -0.0546875 3.125 -0.046875 C 3.125 -0.015625 3.101562 0 3.0625 0 L 2.8125 0 C 2.769531 0 2.738281 -0.0078125 2.71875 -0.03125 L 2.421875 -0.375 C 2.410156 -0.394531 2.398438 -0.398438 2.390625 -0.390625 C 2.222656 -0.234375 2.050781 -0.117188 1.875 -0.046875 C 1.707031 0.015625 1.523438 0.046875 1.328125 0.046875 C 1.015625 0.046875 0.765625 -0.0234375 0.578125 -0.171875 C 0.390625 -0.316406 0.296875 -0.53125 0.296875 -0.8125 C 0.296875 -1.050781 0.363281 -1.253906 0.5 -1.421875 C 0.632812 -1.597656 0.828125 -1.765625 1.078125 -1.921875 C 1.085938 -1.941406 1.085938 -1.957031 1.078125 -1.96875 C 0.878906 -2.207031 0.742188 -2.390625 0.671875 -2.515625 C 0.609375 -2.640625 0.578125 -2.765625 0.578125 -2.890625 C 0.578125 -3.128906 0.65625 -3.320312 0.8125 -3.46875 C 0.976562 -3.625 1.191406 -3.703125 1.453125 -3.703125 C 1.722656 -3.703125 1.941406 -3.628906 2.109375 -3.484375 C 2.273438 -3.335938 2.359375 -3.144531 2.359375 -2.90625 C 2.359375 -2.6875 2.289062 -2.5 2.15625 -2.34375 C 2.03125 -2.195312 1.851562 -2.046875 1.625 -1.890625 C 1.613281 -1.878906 1.609375 -1.867188 1.609375 -1.859375 L 2.21875 -1.140625 L 2.390625 -0.921875 C 2.410156 -0.910156 2.425781 -0.910156 2.4375 -0.921875 C 2.539062 -1.054688 2.648438 -1.203125 2.765625 -1.359375 C 2.796875 -1.390625 2.828125 -1.394531 2.859375 -1.375 L 3.03125 -1.28125 C 3.050781 -1.269531 3.0625 -1.253906 3.0625 -1.234375 C 3.0625 -1.222656 3.054688 -1.207031 3.046875 -1.1875 C 2.867188 -0.9375 2.738281 -0.757812 2.65625 -0.65625 L 2.640625 -0.640625 C 2.640625 -0.628906 2.648438 -0.613281 2.671875 -0.59375 L 2.90625 -0.328125 Z M 1.46875 -3.359375 C 1.3125 -3.359375 1.1875 -3.316406 1.09375 -3.234375 C 1 -3.148438 0.953125 -3.035156 0.953125 -2.890625 C 0.953125 -2.804688 0.976562 -2.710938 1.03125 -2.609375 C 1.082031 -2.515625 1.191406 -2.363281 1.359375 -2.15625 C 1.367188 -2.144531 1.382812 -2.144531 1.40625 -2.15625 C 1.59375 -2.28125 1.738281 -2.398438 1.84375 -2.515625 C 1.945312 -2.628906 2 -2.757812 2 -2.90625 C 2 -3.039062 1.945312 -3.148438 1.84375 -3.234375 C 1.75 -3.316406 1.625 -3.359375 1.46875 -3.359375 Z M 1.328125 -0.28125 C 1.484375 -0.28125 1.628906 -0.304688 1.765625 -0.359375 C 1.898438 -0.421875 2.035156 -0.515625 2.171875 -0.640625 C 2.179688 -0.648438 2.179688 -0.664062 2.171875 -0.6875 L 1.9375 -0.953125 C 1.875 -1.035156 1.816406 -1.097656 1.765625 -1.140625 C 1.535156 -1.398438 1.390625 -1.578125 1.328125 -1.671875 C 1.316406 -1.679688 1.300781 -1.679688 1.28125 -1.671875 C 1.082031 -1.523438 0.929688 -1.382812 0.828125 -1.25 C 0.722656 -1.125 0.671875 -0.976562 0.671875 -0.8125 C 0.671875 -0.644531 0.726562 -0.515625 0.84375 -0.421875 C 0.96875 -0.328125 1.128906 -0.28125 1.328125 -0.28125 Z M 1.328125 -0.28125 "/></g></g></g><g fill="#000000" fill-opacity="1"><g transform="translate(31.704318, 66.261507)"><g/></g></g><g fill="#000000" fill-opacity="1"><g transform="translate(32.662857, 66.261507)"><g><path d="M 1.5625 0.046875 C 1.300781 0.046875 1.078125 0.00390625 0.890625 -0.078125 C 0.703125 -0.160156 0.554688 -0.273438 0.453125 -0.421875 C 0.347656 -0.566406 0.296875 -0.738281 0.296875 -0.9375 L 0.296875 -1.078125 C 0.296875 -1.128906 0.316406 -1.15625 0.359375 -1.15625 L 0.59375 -1.15625 C 0.632812 -1.15625 0.65625 -1.128906 0.65625 -1.078125 L 0.65625 -0.953125 C 0.65625 -0.753906 0.738281 -0.59375 0.90625 -0.46875 C 1.070312 -0.34375 1.300781 -0.28125 1.59375 -0.28125 C 1.851562 -0.28125 2.050781 -0.335938 2.1875 -0.453125 C 2.332031 -0.566406 2.40625 -0.71875 2.40625 -0.90625 C 2.40625 -1.03125 2.375 -1.132812 2.3125 -1.21875 C 2.25 -1.300781 2.148438 -1.378906 2.015625 -1.453125 C 1.878906 -1.535156 1.6875 -1.628906 1.4375 -1.734375 C 1.175781 -1.835938 0.972656 -1.925781 0.828125 -2 C 0.691406 -2.082031 0.578125 -2.1875 0.484375 -2.3125 C 0.390625 -2.4375 0.34375 -2.59375 0.34375 -2.78125 C 0.34375 -3.070312 0.445312 -3.296875 0.65625 -3.453125 C 0.863281 -3.617188 1.144531 -3.703125 1.5 -3.703125 C 1.882812 -3.703125 2.1875 -3.609375 2.40625 -3.421875 C 2.632812 -3.242188 2.75 -3.007812 2.75 -2.71875 L 2.75 -2.609375 C 2.75 -2.566406 2.726562 -2.546875 2.6875 -2.546875 L 2.453125 -2.546875 C 2.398438 -2.546875 2.375 -2.566406 2.375 -2.609375 L 2.375 -2.6875 C 2.375 -2.894531 2.296875 -3.0625 2.140625 -3.1875 C 1.984375 -3.3125 1.765625 -3.375 1.484375 -3.375 C 1.234375 -3.375 1.039062 -3.320312 0.90625 -3.21875 C 0.78125 -3.125 0.71875 -2.984375 0.71875 -2.796875 C 0.71875 -2.660156 0.75 -2.550781 0.8125 -2.46875 C 0.875 -2.394531 0.960938 -2.328125 1.078125 -2.265625 C 1.203125 -2.203125 1.390625 -2.125 1.640625 -2.03125 C 1.898438 -1.925781 2.109375 -1.828125 2.265625 -1.734375 C 2.421875 -1.640625 2.546875 -1.523438 2.640625 -1.390625 C 2.734375 -1.265625 2.78125 -1.109375 2.78125 -0.921875 C 2.78125 -0.628906 2.671875 -0.394531 2.453125 -0.21875 C 2.242188 -0.0390625 1.945312 0.046875 1.5625 0.046875 Z M 1.5625 0.046875 "/></g></g></g><g fill="#000000" fill-opacity="1"><g transform="translate(35.643244, 66.261507)"><g><path d="M 1.421875 0.046875 C 1.171875 0.046875 0.953125 -0.015625 0.765625 -0.140625 C 0.585938 -0.273438 0.46875 -0.457031 0.40625 -0.6875 C 0.351562 -0.84375 0.328125 -1.054688 0.328125 -1.328125 C 0.328125 -1.585938 0.351562 -1.800781 0.40625 -1.96875 C 0.46875 -2.1875 0.585938 -2.359375 0.765625 -2.484375 C 0.953125 -2.617188 1.171875 -2.6875 1.421875 -2.6875 C 1.671875 -2.6875 1.890625 -2.617188 2.078125 -2.484375 C 2.265625 -2.359375 2.382812 -2.203125 2.4375 -2.015625 C 2.457031 -1.960938 2.46875 -1.914062 2.46875 -1.875 L 2.46875 -1.859375 C 2.46875 -1.828125 2.445312 -1.804688 2.40625 -1.796875 L 2.1875 -1.765625 L 2.171875 -1.765625 C 2.140625 -1.765625 2.117188 -1.785156 2.109375 -1.828125 C 2.109375 -1.835938 2.101562 -1.859375 2.09375 -1.890625 C 2.0625 -2.023438 1.984375 -2.132812 1.859375 -2.21875 C 1.742188 -2.3125 1.597656 -2.359375 1.421875 -2.359375 C 1.242188 -2.359375 1.097656 -2.3125 0.984375 -2.21875 C 0.867188 -2.132812 0.789062 -2.015625 0.75 -1.859375 C 0.71875 -1.722656 0.703125 -1.546875 0.703125 -1.328125 C 0.703125 -1.097656 0.71875 -0.921875 0.75 -0.796875 C 0.789062 -0.640625 0.867188 -0.515625 0.984375 -0.421875 C 1.097656 -0.328125 1.242188 -0.28125 1.421875 -0.28125 C 1.585938 -0.28125 1.734375 -0.320312 1.859375 -0.40625 C 1.984375 -0.5 2.0625 -0.613281 2.09375 -0.75 C 2.09375 -0.757812 2.09375 -0.769531 2.09375 -0.78125 C 2.101562 -0.832031 2.128906 -0.851562 2.171875 -0.84375 L 2.40625 -0.8125 C 2.445312 -0.800781 2.46875 -0.773438 2.46875 -0.734375 L 2.4375 -0.640625 C 2.382812 -0.429688 2.265625 -0.265625 2.078125 -0.140625 C 1.890625 -0.015625 1.671875 0.046875 1.421875 0.046875 Z M 1.421875 0.046875 "/></g></g></g><g fill="#000000" fill-opacity="1"><g transform="translate(38.277928, 66.261507)"><g><path d="M 1.515625 -2.6875 C 1.796875 -2.6875 2.015625 -2.601562 2.171875 -2.4375 C 2.335938 -2.269531 2.421875 -2.050781 2.421875 -1.78125 L 2.421875 -0.0625 C 2.421875 -0.0195312 2.398438 0 2.359375 0 L 2.125 0 C 2.082031 0 2.0625 -0.0195312 2.0625 -0.0625 L 2.0625 -1.703125 C 2.0625 -1.898438 2.003906 -2.054688 1.890625 -2.171875 C 1.773438 -2.296875 1.625 -2.359375 1.4375 -2.359375 C 1.257812 -2.359375 1.109375 -2.304688 0.984375 -2.203125 C 0.867188 -2.109375 0.804688 -1.976562 0.796875 -1.8125 L 0.796875 -0.0625 C 0.796875 -0.0195312 0.769531 0 0.71875 0 L 0.484375 0 C 0.441406 0 0.421875 -0.0195312 0.421875 -0.0625 L 0.421875 -3.59375 C 0.421875 -3.644531 0.441406 -3.671875 0.484375 -3.671875 L 0.71875 -3.671875 C 0.769531 -3.671875 0.796875 -3.644531 0.796875 -3.59375 L 0.796875 -2.390625 C 0.796875 -2.378906 0.796875 -2.367188 0.796875 -2.359375 C 0.804688 -2.359375 0.8125 -2.363281 0.8125 -2.375 C 0.96875 -2.582031 1.203125 -2.6875 1.515625 -2.6875 Z M 1.515625 -2.6875 "/></g></g></g><g fill="#000000" fill-opacity="1"><g transform="translate(41.012133, 66.261507)"><g><path d="M 1.453125 -0.28125 C 1.609375 -0.28125 1.742188 -0.3125 1.859375 -0.375 C 1.972656 -0.445312 2.0625 -0.546875 2.125 -0.671875 C 2.125 -0.691406 2.132812 -0.703125 2.15625 -0.703125 C 2.175781 -0.710938 2.191406 -0.710938 2.203125 -0.703125 L 2.359375 -0.625 C 2.398438 -0.59375 2.410156 -0.5625 2.390625 -0.53125 C 2.304688 -0.351562 2.179688 -0.210938 2.015625 -0.109375 C 1.847656 -0.00390625 1.648438 0.046875 1.421875 0.046875 C 1.171875 0.046875 0.960938 -0.0078125 0.796875 -0.125 C 0.628906 -0.238281 0.507812 -0.398438 0.4375 -0.609375 C 0.375 -0.785156 0.34375 -1.023438 0.34375 -1.328125 C 0.34375 -1.484375 0.34375 -1.601562 0.34375 -1.6875 C 0.351562 -1.78125 0.367188 -1.863281 0.390625 -1.9375 C 0.441406 -2.164062 0.554688 -2.347656 0.734375 -2.484375 C 0.921875 -2.617188 1.140625 -2.6875 1.390625 -2.6875 C 1.703125 -2.6875 1.941406 -2.609375 2.109375 -2.453125 C 2.285156 -2.296875 2.394531 -2.078125 2.4375 -1.796875 C 2.457031 -1.679688 2.46875 -1.503906 2.46875 -1.265625 C 2.46875 -1.222656 2.445312 -1.203125 2.40625 -1.203125 L 0.734375 -1.203125 C 0.710938 -1.203125 0.703125 -1.191406 0.703125 -1.171875 C 0.703125 -0.992188 0.710938 -0.867188 0.734375 -0.796875 C 0.773438 -0.640625 0.859375 -0.515625 0.984375 -0.421875 C 1.109375 -0.328125 1.265625 -0.28125 1.453125 -0.28125 Z M 1.390625 -2.359375 C 1.222656 -2.359375 1.082031 -2.3125 0.96875 -2.21875 C 0.851562 -2.132812 0.78125 -2.019531 0.75 -1.875 C 0.726562 -1.800781 0.710938 -1.679688 0.703125 -1.515625 C 0.703125 -1.492188 0.710938 -1.484375 0.734375 -1.484375 L 2.078125 -1.484375 C 2.097656 -1.484375 2.109375 -1.492188 2.109375 -1.515625 C 2.097656 -1.671875 2.085938 -1.785156 2.078125 -1.859375 C 2.035156 -2.015625 1.957031 -2.132812 1.84375 -2.21875 C 1.726562 -2.3125 1.578125 -2.359375 1.390625 -2.359375 Z M 1.390625 -2.359375 "/></g></g></g><g fill="#000000" fill-opacity="1"><g transform="translate(43.720147, 66.261507)"><g><path d="M 2.046875 -3.59375 C 2.046875 -3.644531 2.066406 -3.671875 2.109375 -3.671875 L 2.34375 -3.671875 C 2.394531 -3.671875 2.421875 -3.644531 2.421875 -3.59375 L 2.421875 -0.0625 C 2.421875 -0.0195312 2.394531 0 2.34375 0 L 2.109375 0 C 2.066406 0 2.046875 -0.0195312 2.046875 -0.0625 L 2.046875 -0.265625 C 2.046875 -0.273438 2.039062 -0.28125 2.03125 -0.28125 C 2.03125 -0.28125 2.023438 -0.28125 2.015625 -0.28125 C 1.941406 -0.175781 1.847656 -0.09375 1.734375 -0.03125 C 1.617188 0.0195312 1.488281 0.046875 1.34375 0.046875 C 1.101562 0.046875 0.898438 -0.015625 0.734375 -0.140625 C 0.566406 -0.265625 0.453125 -0.4375 0.390625 -0.65625 C 0.335938 -0.8125 0.3125 -1.035156 0.3125 -1.328125 C 0.3125 -1.617188 0.332031 -1.832031 0.375 -1.96875 C 0.4375 -2.195312 0.550781 -2.375 0.71875 -2.5 C 0.894531 -2.625 1.101562 -2.6875 1.34375 -2.6875 C 1.476562 -2.6875 1.601562 -2.660156 1.71875 -2.609375 C 1.84375 -2.554688 1.941406 -2.476562 2.015625 -2.375 C 2.023438 -2.363281 2.03125 -2.359375 2.03125 -2.359375 C 2.039062 -2.367188 2.046875 -2.378906 2.046875 -2.390625 Z M 1.953125 -0.6875 C 1.984375 -0.757812 2.003906 -0.84375 2.015625 -0.9375 C 2.023438 -1.03125 2.03125 -1.160156 2.03125 -1.328125 C 2.03125 -1.492188 2.023438 -1.625 2.015625 -1.71875 C 2.003906 -1.8125 1.976562 -1.894531 1.9375 -1.96875 C 1.894531 -2.09375 1.828125 -2.1875 1.734375 -2.25 C 1.640625 -2.320312 1.523438 -2.359375 1.390625 -2.359375 C 1.253906 -2.359375 1.132812 -2.320312 1.03125 -2.25 C 0.925781 -2.1875 0.851562 -2.097656 0.8125 -1.984375 C 0.769531 -1.910156 0.738281 -1.820312 0.71875 -1.71875 C 0.695312 -1.625 0.6875 -1.492188 0.6875 -1.328125 C 0.6875 -1.160156 0.691406 -1.03125 0.703125 -0.9375 C 0.722656 -0.84375 0.75 -0.757812 0.78125 -0.6875 C 0.820312 -0.5625 0.894531 -0.460938 1 -0.390625 C 1.113281 -0.316406 1.242188 -0.28125 1.390625 -0.28125 C 1.523438 -0.28125 1.640625 -0.316406 1.734375 -0.390625 C 1.828125 -0.460938 1.898438 -0.5625 1.953125 -0.6875 Z M 1.953125 -0.6875 "/></g></g></g><g fill="#000000" fill-opacity="1"><g transform="translate(46.470065, 66.261507)"><g><path d="M 2.015625 -2.578125 C 2.015625 -2.628906 2.039062 -2.65625 2.09375 -2.65625 L 2.328125 -2.65625 C 2.367188 -2.65625 2.390625 -2.628906 2.390625 -2.578125 L 2.390625 -0.0625 C 2.390625 -0.0195312 2.367188 0 2.328125 0 L 2.09375 0 C 2.039062 0 2.015625 -0.0195312 2.015625 -0.0625 L 2.015625 -0.265625 C 2.015625 -0.273438 2.007812 -0.28125 2 -0.28125 C 2 -0.289062 1.992188 -0.289062 1.984375 -0.28125 C 1.835938 -0.0703125 1.609375 0.03125 1.296875 0.03125 C 1.128906 0.03125 0.972656 0 0.828125 -0.0625 C 0.691406 -0.132812 0.582031 -0.234375 0.5 -0.359375 C 0.414062 -0.492188 0.375 -0.648438 0.375 -0.828125 L 0.375 -2.578125 C 0.375 -2.628906 0.394531 -2.65625 0.4375 -2.65625 L 0.6875 -2.65625 C 0.726562 -2.65625 0.75 -2.628906 0.75 -2.578125 L 0.75 -0.9375 C 0.75 -0.738281 0.800781 -0.578125 0.90625 -0.453125 C 1.019531 -0.335938 1.175781 -0.28125 1.375 -0.28125 C 1.570312 -0.28125 1.726562 -0.335938 1.84375 -0.453125 C 1.957031 -0.578125 2.015625 -0.738281 2.015625 -0.9375 Z M 2.015625 -2.578125 "/></g></g></g><g fill="#000000" fill-opacity="1"><g transform="translate(49.188555, 66.261507)"><g><path d="M 0.484375 0 C 0.441406 0 0.421875 -0.0195312 0.421875 -0.0625 L 0.421875 -3.59375 C 0.421875 -3.644531 0.441406 -3.671875 0.484375 -3.671875 L 0.71875 -3.671875 C 0.769531 -3.671875 0.796875 -3.644531 0.796875 -3.59375 L 0.796875 -0.0625 C 0.796875 -0.0195312 0.769531 0 0.71875 0 Z M 0.484375 0 "/></g></g></g><g fill="#000000" fill-opacity="1"><g transform="translate(50.314708, 66.261507)"><g><path d="M 1.453125 -0.28125 C 1.609375 -0.28125 1.742188 -0.3125 1.859375 -0.375 C 1.972656 -0.445312 2.0625 -0.546875 2.125 -0.671875 C 2.125 -0.691406 2.132812 -0.703125 2.15625 -0.703125 C 2.175781 -0.710938 2.191406 -0.710938 2.203125 -0.703125 L 2.359375 -0.625 C 2.398438 -0.59375 2.410156 -0.5625 2.390625 -0.53125 C 2.304688 -0.351562 2.179688 -0.210938 2.015625 -0.109375 C 1.847656 -0.00390625 1.648438 0.046875 1.421875 0.046875 C 1.171875 0.046875 0.960938 -0.0078125 0.796875 -0.125 C 0.628906 -0.238281 0.507812 -0.398438 0.4375 -0.609375 C 0.375 -0.785156 0.34375 -1.023438 0.34375 -1.328125 C 0.34375 -1.484375 0.34375 -1.601562 0.34375 -1.6875 C 0.351562 -1.78125 0.367188 -1.863281 0.390625 -1.9375 C 0.441406 -2.164062 0.554688 -2.347656 0.734375 -2.484375 C 0.921875 -2.617188 1.140625 -2.6875 1.390625 -2.6875 C 1.703125 -2.6875 1.941406 -2.609375 2.109375 -2.453125 C 2.285156 -2.296875 2.394531 -2.078125 2.4375 -1.796875 C 2.457031 -1.679688 2.46875 -1.503906 2.46875 -1.265625 C 2.46875 -1.222656 2.445312 -1.203125 2.40625 -1.203125 L 0.734375 -1.203125 C 0.710938 -1.203125 0.703125 -1.191406 0.703125 -1.171875 C 0.703125 -0.992188 0.710938 -0.867188 0.734375 -0.796875 C 0.773438 -0.640625 0.859375 -0.515625 0.984375 -0.421875 C 1.109375 -0.328125 1.265625 -0.28125 1.453125 -0.28125 Z M 1.390625 -2.359375 C 1.222656 -2.359375 1.082031 -2.3125 0.96875 -2.21875 C 0.851562 -2.132812 0.78125 -2.019531 0.75 -1.875 C 0.726562 -1.800781 0.710938 -1.679688 0.703125 -1.515625 C 0.703125 -1.492188 0.710938 -1.484375 0.734375 -1.484375 L 2.078125 -1.484375 C 2.097656 -1.484375 2.109375 -1.492188 2.109375 -1.515625 C 2.097656 -1.671875 2.085938 -1.785156 2.078125 -1.859375 C 2.035156 -2.015625 1.957031 -2.132812 1.84375 -2.21875 C 1.726562 -2.3125 1.578125 -2.359375 1.390625 -2.359375 Z M 1.390625 -2.359375 "/></g></g></g><g fill="#000000" fill-opacity="1"><g transform="translate(53.022722, 66.261507)"><g><path d="M 2.046875 -3.59375 C 2.046875 -3.644531 2.066406 -3.671875 2.109375 -3.671875 L 2.34375 -3.671875 C 2.394531 -3.671875 2.421875 -3.644531 2.421875 -3.59375 L 2.421875 -0.0625 C 2.421875 -0.0195312 2.394531 0 2.34375 0 L 2.109375 0 C 2.066406 0 2.046875 -0.0195312 2.046875 -0.0625 L 2.046875 -0.265625 C 2.046875 -0.273438 2.039062 -0.28125 2.03125 -0.28125 C 2.03125 -0.28125 2.023438 -0.28125 2.015625 -0.28125 C 1.941406 -0.175781 1.847656 -0.09375 1.734375 -0.03125 C 1.617188 0.0195312 1.488281 0.046875 1.34375 0.046875 C 1.101562 0.046875 0.898438 -0.015625 0.734375 -0.140625 C 0.566406 -0.265625 0.453125 -0.4375 0.390625 -0.65625 C 0.335938 -0.8125 0.3125 -1.035156 0.3125 -1.328125 C 0.3125 -1.617188 0.332031 -1.832031 0.375 -1.96875 C 0.4375 -2.195312 0.550781 -2.375 0.71875 -2.5 C 0.894531 -2.625 1.101562 -2.6875 1.34375 -2.6875 C 1.476562 -2.6875 1.601562 -2.660156 1.71875 -2.609375 C 1.84375 -2.554688 1.941406 -2.476562 2.015625 -2.375 C 2.023438 -2.363281 2.03125 -2.359375 2.03125 -2.359375 C 2.039062 -2.367188 2.046875 -2.378906 2.046875 -2.390625 Z M 1.953125 -0.6875 C 1.984375 -0.757812 2.003906 -0.84375 2.015625 -0.9375 C 2.023438 -1.03125 2.03125 -1.160156 2.03125 -1.328125 C 2.03125 -1.492188 2.023438 -1.625 2.015625 -1.71875 C 2.003906 -1.8125 1.976562 -1.894531 1.9375 -1.96875 C 1.894531 -2.09375 1.828125 -2.1875 1.734375 -2.25 C 1.640625 -2.320312 1.523438 -2.359375 1.390625 -2.359375 C 1.253906 -2.359375 1.132812 -2.320312 1.03125 -2.25 C 0.925781 -2.1875 0.851562 -2.097656 0.8125 -1.984375 C 0.769531 -1.910156 0.738281 -1.820312 0.71875 -1.71875 C 0.695312 -1.625 0.6875 -1.492188 0.6875 -1.328125 C 0.6875 -1.160156 0.691406 -1.03125 0.703125 -0.9375 C 0.722656 -0.84375 0.75 -0.757812 0.78125 -0.6875 C 0.820312 -0.5625 0.894531 -0.460938 1 -0.390625 C 1.113281 -0.316406 1.242188 -0.28125 1.390625 -0.28125 C 1.523438 -0.28125 1.640625 -0.316406 1.734375 -0.390625 C 1.828125 -0.460938 1.898438 -0.5625 1.953125 -0.6875 Z M 1.953125 -0.6875 "/></g></g></g><g fill="#000000" fill-opacity="1"><g transform="translate(55.77264, 66.261507)"><g/></g></g><g fill="#000000" fill-opacity="1"><g transform="translate(56.731179, 66.261507)"><g><path d="M 2.640625 0 C 2.597656 0 2.570312 -0.015625 2.5625 -0.046875 L 1.796875 -1.671875 C 1.785156 -1.679688 1.773438 -1.6875 1.765625 -1.6875 L 0.890625 -1.6875 C 0.867188 -1.6875 0.859375 -1.675781 0.859375 -1.65625 L 0.859375 -0.0625 C 0.859375 -0.0195312 0.835938 0 0.796875 0 L 0.5625 0 C 0.507812 0 0.484375 -0.0195312 0.484375 -0.0625 L 0.484375 -3.59375 C 0.484375 -3.644531 0.507812 -3.671875 0.5625 -3.671875 L 1.90625 -3.671875 C 2.195312 -3.671875 2.4375 -3.578125 2.625 -3.390625 C 2.8125 -3.203125 2.90625 -2.960938 2.90625 -2.671875 C 2.90625 -2.421875 2.835938 -2.210938 2.703125 -2.046875 C 2.578125 -1.878906 2.398438 -1.769531 2.171875 -1.71875 C 2.148438 -1.707031 2.144531 -1.695312 2.15625 -1.6875 L 2.9375 -0.078125 C 2.945312 -0.0664062 2.953125 -0.0546875 2.953125 -0.046875 C 2.953125 -0.015625 2.929688 0 2.890625 0 Z M 0.890625 -3.34375 C 0.867188 -3.34375 0.859375 -3.332031 0.859375 -3.3125 L 0.859375 -2.015625 C 0.859375 -1.992188 0.867188 -1.984375 0.890625 -1.984375 L 1.859375 -1.984375 C 2.054688 -1.984375 2.21875 -2.046875 2.34375 -2.171875 C 2.46875 -2.296875 2.53125 -2.457031 2.53125 -2.65625 C 2.53125 -2.863281 2.46875 -3.03125 2.34375 -3.15625 C 2.21875 -3.28125 2.054688 -3.34375 1.859375 -3.34375 Z M 0.890625 -3.34375 "/></g></g></g><g fill="#000000" fill-opacity="1"><g transform="translate(59.847752, 66.261507)"><g><path d="M 1.453125 -0.28125 C 1.609375 -0.28125 1.742188 -0.3125 1.859375 -0.375 C 1.972656 -0.445312 2.0625 -0.546875 2.125 -0.671875 C 2.125 -0.691406 2.132812 -0.703125 2.15625 -0.703125 C 2.175781 -0.710938 2.191406 -0.710938 2.203125 -0.703125 L 2.359375 -0.625 C 2.398438 -0.59375 2.410156 -0.5625 2.390625 -0.53125 C 2.304688 -0.351562 2.179688 -0.210938 2.015625 -0.109375 C 1.847656 -0.00390625 1.648438 0.046875 1.421875 0.046875 C 1.171875 0.046875 0.960938 -0.0078125 0.796875 -0.125 C 0.628906 -0.238281 0.507812 -0.398438 0.4375 -0.609375 C 0.375 -0.785156 0.34375 -1.023438 0.34375 -1.328125 C 0.34375 -1.484375 0.34375 -1.601562 0.34375 -1.6875 C 0.351562 -1.78125 0.367188 -1.863281 0.390625 -1.9375 C 0.441406 -2.164062 0.554688 -2.347656 0.734375 -2.484375 C 0.921875 -2.617188 1.140625 -2.6875 1.390625 -2.6875 C 1.703125 -2.6875 1.941406 -2.609375 2.109375 -2.453125 C 2.285156 -2.296875 2.394531 -2.078125 2.4375 -1.796875 C 2.457031 -1.679688 2.46875 -1.503906 2.46875 -1.265625 C 2.46875 -1.222656 2.445312 -1.203125 2.40625 -1.203125 L 0.734375 -1.203125 C 0.710938 -1.203125 0.703125 -1.191406 0.703125 -1.171875 C 0.703125 -0.992188 0.710938 -0.867188 0.734375 -0.796875 C 0.773438 -0.640625 0.859375 -0.515625 0.984375 -0.421875 C 1.109375 -0.328125 1.265625 -0.28125 1.453125 -0.28125 Z M 1.390625 -2.359375 C 1.222656 -2.359375 1.082031 -2.3125 0.96875 -2.21875 C 0.851562 -2.132812 0.78125 -2.019531 0.75 -1.875 C 0.726562 -1.800781 0.710938 -1.679688 0.703125 -1.515625 C 0.703125 -1.492188 0.710938 -1.484375 0.734375 -1.484375 L 2.078125 -1.484375 C 2.097656 -1.484375 2.109375 -1.492188 2.109375 -1.515625 C 2.097656 -1.671875 2.085938 -1.785156 2.078125 -1.859375 C 2.035156 -2.015625 1.957031 -2.132812 1.84375 -2.21875 C 1.726562 -2.3125 1.578125 -2.359375 1.390625 -2.359375 Z M 1.390625 -2.359375 "/></g></g></g><g fill="#000000" fill-opacity="1"><g transform="translate(62.555769, 66.261507)"><g><path d="M 2.46875 -1.984375 C 2.519531 -1.828125 2.546875 -1.609375 2.546875 -1.328125 C 2.546875 -1.035156 2.523438 -0.816406 2.484375 -0.671875 C 2.421875 -0.453125 2.304688 -0.273438 2.140625 -0.140625 C 1.972656 -0.015625 1.765625 0.046875 1.515625 0.046875 C 1.378906 0.046875 1.253906 0.0195312 1.140625 -0.03125 C 1.023438 -0.09375 0.929688 -0.171875 0.859375 -0.265625 C 0.847656 -0.273438 0.835938 -0.28125 0.828125 -0.28125 C 0.828125 -0.28125 0.828125 -0.273438 0.828125 -0.265625 L 0.828125 0.953125 C 0.828125 0.992188 0.800781 1.015625 0.75 1.015625 L 0.515625 1.015625 C 0.472656 1.015625 0.453125 0.992188 0.453125 0.953125 L 0.453125 -2.578125 C 0.453125 -2.628906 0.472656 -2.65625 0.515625 -2.65625 L 0.75 -2.65625 C 0.800781 -2.65625 0.828125 -2.628906 0.828125 -2.578125 L 0.828125 -2.375 C 0.828125 -2.363281 0.828125 -2.359375 0.828125 -2.359375 C 0.835938 -2.359375 0.847656 -2.363281 0.859375 -2.375 C 0.929688 -2.46875 1.023438 -2.539062 1.140625 -2.59375 C 1.253906 -2.65625 1.378906 -2.6875 1.515625 -2.6875 C 1.765625 -2.6875 1.96875 -2.625 2.125 -2.5 C 2.289062 -2.375 2.40625 -2.203125 2.46875 -1.984375 Z M 2.0625 -0.671875 C 2.101562 -0.742188 2.128906 -0.828125 2.140625 -0.921875 C 2.160156 -1.015625 2.171875 -1.148438 2.171875 -1.328125 C 2.171875 -1.492188 2.164062 -1.617188 2.15625 -1.703125 C 2.144531 -1.796875 2.117188 -1.878906 2.078125 -1.953125 C 2.035156 -2.078125 1.960938 -2.175781 1.859375 -2.25 C 1.753906 -2.320312 1.628906 -2.359375 1.484375 -2.359375 C 1.335938 -2.359375 1.21875 -2.320312 1.125 -2.25 C 1.03125 -2.175781 0.960938 -2.082031 0.921875 -1.96875 C 0.890625 -1.894531 0.863281 -1.8125 0.84375 -1.71875 C 0.832031 -1.625 0.828125 -1.492188 0.828125 -1.328125 C 0.828125 -1.160156 0.832031 -1.023438 0.84375 -0.921875 C 0.863281 -0.828125 0.890625 -0.742188 0.921875 -0.671875 C 0.960938 -0.554688 1.03125 -0.460938 1.125 -0.390625 C 1.226562 -0.316406 1.34375 -0.28125 1.46875 -0.28125 C 1.613281 -0.28125 1.734375 -0.3125 1.828125 -0.375 C 1.929688 -0.445312 2.007812 -0.546875 2.0625 -0.671875 Z M 2.0625 -0.671875 "/></g></g></g><g fill="#000000" fill-opacity="1"><g transform="translate(65.337113, 66.261507)"><g><path d="M 1.4375 0.046875 C 1.175781 0.046875 0.957031 -0.015625 0.78125 -0.140625 C 0.601562 -0.273438 0.476562 -0.457031 0.40625 -0.6875 C 0.351562 -0.84375 0.328125 -1.054688 0.328125 -1.328125 C 0.328125 -1.597656 0.351562 -1.8125 0.40625 -1.96875 C 0.46875 -2.1875 0.585938 -2.359375 0.765625 -2.484375 C 0.953125 -2.617188 1.175781 -2.6875 1.4375 -2.6875 C 1.6875 -2.6875 1.898438 -2.617188 2.078125 -2.484375 C 2.253906 -2.359375 2.378906 -2.1875 2.453125 -1.96875 C 2.492188 -1.800781 2.515625 -1.585938 2.515625 -1.328125 C 2.515625 -1.054688 2.492188 -0.84375 2.453125 -0.6875 C 2.378906 -0.457031 2.253906 -0.273438 2.078125 -0.140625 C 1.898438 -0.015625 1.6875 0.046875 1.4375 0.046875 Z M 1.4375 -0.28125 C 1.601562 -0.28125 1.742188 -0.328125 1.859375 -0.421875 C 1.984375 -0.515625 2.066406 -0.640625 2.109375 -0.796875 C 2.128906 -0.910156 2.140625 -1.085938 2.140625 -1.328125 C 2.140625 -1.578125 2.128906 -1.753906 2.109375 -1.859375 C 2.066406 -2.015625 1.984375 -2.132812 1.859375 -2.21875 C 1.742188 -2.3125 1.597656 -2.359375 1.421875 -2.359375 C 1.253906 -2.359375 1.109375 -2.3125 0.984375 -2.21875 C 0.867188 -2.132812 0.789062 -2.015625 0.75 -1.859375 C 0.726562 -1.753906 0.71875 -1.578125 0.71875 -1.328125 C 0.71875 -1.078125 0.726562 -0.898438 0.75 -0.796875 C 0.789062 -0.640625 0.867188 -0.515625 0.984375 -0.421875 C 1.109375 -0.328125 1.257812 -0.28125 1.4375 -0.28125 Z M 1.4375 -0.28125 "/></g></g></g><g fill="#000000" fill-opacity="1"><g transform="translate(68.107982, 66.261507)"><g><path d="M 1.484375 -2.671875 C 1.597656 -2.671875 1.695312 -2.648438 1.78125 -2.609375 C 1.8125 -2.597656 1.820312 -2.570312 1.8125 -2.53125 L 1.765625 -2.296875 C 1.753906 -2.253906 1.722656 -2.238281 1.671875 -2.25 C 1.609375 -2.269531 1.523438 -2.28125 1.421875 -2.28125 C 1.234375 -2.269531 1.082031 -2.203125 0.96875 -2.078125 C 0.851562 -1.953125 0.796875 -1.789062 0.796875 -1.59375 L 0.796875 -0.0625 C 0.796875 -0.0195312 0.769531 0 0.71875 0 L 0.484375 0 C 0.441406 0 0.421875 -0.0195312 0.421875 -0.0625 L 0.421875 -2.578125 C 0.421875 -2.628906 0.441406 -2.65625 0.484375 -2.65625 L 0.71875 -2.65625 C 0.769531 -2.65625 0.796875 -2.628906 0.796875 -2.578125 L 0.796875 -2.28125 C 0.796875 -2.269531 0.796875 -2.265625 0.796875 -2.265625 C 0.804688 -2.265625 0.8125 -2.269531 0.8125 -2.28125 C 0.882812 -2.40625 0.976562 -2.5 1.09375 -2.5625 C 1.207031 -2.632812 1.335938 -2.671875 1.484375 -2.671875 Z M 1.484375 -2.671875 "/></g></g></g><g fill="#000000" fill-opacity="1"><g transform="translate(69.925547, 66.261507)"><g><path d="M 1.609375 -2.40625 C 1.609375 -2.363281 1.582031 -2.34375 1.53125 -2.34375 L 0.96875 -2.34375 C 0.945312 -2.34375 0.9375 -2.332031 0.9375 -2.3125 L 0.9375 -0.78125 C 0.9375 -0.613281 0.972656 -0.492188 1.046875 -0.421875 C 1.128906 -0.359375 1.25 -0.328125 1.40625 -0.328125 L 1.515625 -0.328125 C 1.566406 -0.328125 1.59375 -0.304688 1.59375 -0.265625 L 1.59375 -0.078125 C 1.59375 -0.0351562 1.566406 -0.0078125 1.515625 0 L 1.34375 0 C 1.09375 0 0.898438 -0.046875 0.765625 -0.140625 C 0.640625 -0.234375 0.578125 -0.410156 0.578125 -0.671875 L 0.578125 -2.3125 C 0.578125 -2.332031 0.570312 -2.34375 0.5625 -2.34375 L 0.25 -2.34375 C 0.207031 -2.34375 0.1875 -2.363281 0.1875 -2.40625 L 0.1875 -2.578125 C 0.1875 -2.628906 0.207031 -2.65625 0.25 -2.65625 L 0.5625 -2.65625 C 0.570312 -2.65625 0.578125 -2.660156 0.578125 -2.671875 L 0.578125 -3.265625 C 0.578125 -3.304688 0.601562 -3.328125 0.65625 -3.328125 L 0.875 -3.328125 C 0.914062 -3.328125 0.9375 -3.304688 0.9375 -3.265625 L 0.9375 -2.671875 C 0.9375 -2.660156 0.945312 -2.65625 0.96875 -2.65625 L 1.53125 -2.65625 C 1.582031 -2.65625 1.609375 -2.628906 1.609375 -2.578125 Z M 1.609375 -2.40625 "/></g></g></g><g fill="#000000" fill-opacity="1"><g transform="translate(71.743112, 66.261507)"><g><path d="M 1.28125 0.03125 C 1.09375 0.03125 0.921875 0 0.765625 -0.0625 C 0.617188 -0.125 0.503906 -0.207031 0.421875 -0.3125 C 0.335938 -0.414062 0.296875 -0.535156 0.296875 -0.671875 L 0.296875 -0.71875 C 0.296875 -0.757812 0.316406 -0.78125 0.359375 -0.78125 L 0.59375 -0.78125 C 0.613281 -0.78125 0.628906 -0.773438 0.640625 -0.765625 C 0.648438 -0.765625 0.65625 -0.753906 0.65625 -0.734375 L 0.65625 -0.6875 C 0.65625 -0.570312 0.710938 -0.472656 0.828125 -0.390625 C 0.953125 -0.304688 1.101562 -0.265625 1.28125 -0.265625 C 1.457031 -0.265625 1.601562 -0.300781 1.71875 -0.375 C 1.832031 -0.457031 1.890625 -0.566406 1.890625 -0.703125 C 1.890625 -0.785156 1.859375 -0.851562 1.796875 -0.90625 C 1.742188 -0.96875 1.675781 -1.015625 1.59375 -1.046875 C 1.519531 -1.078125 1.398438 -1.113281 1.234375 -1.15625 C 1.046875 -1.21875 0.890625 -1.273438 0.765625 -1.328125 C 0.640625 -1.378906 0.53125 -1.457031 0.4375 -1.5625 C 0.351562 -1.664062 0.3125 -1.789062 0.3125 -1.9375 C 0.3125 -2.164062 0.398438 -2.34375 0.578125 -2.46875 C 0.753906 -2.601562 0.984375 -2.671875 1.265625 -2.671875 C 1.453125 -2.671875 1.617188 -2.640625 1.765625 -2.578125 C 1.921875 -2.515625 2.035156 -2.425781 2.109375 -2.3125 C 2.191406 -2.207031 2.234375 -2.085938 2.234375 -1.953125 C 2.234375 -1.910156 2.210938 -1.890625 2.171875 -1.890625 L 1.953125 -1.890625 C 1.910156 -1.890625 1.890625 -1.898438 1.890625 -1.921875 L 1.890625 -1.953125 C 1.890625 -2.066406 1.832031 -2.164062 1.71875 -2.25 C 1.601562 -2.332031 1.453125 -2.375 1.265625 -2.375 C 1.085938 -2.375 0.941406 -2.335938 0.828125 -2.265625 C 0.722656 -2.191406 0.671875 -2.09375 0.671875 -1.96875 C 0.671875 -1.851562 0.722656 -1.765625 0.828125 -1.703125 C 0.929688 -1.640625 1.09375 -1.570312 1.3125 -1.5 C 1.507812 -1.445312 1.671875 -1.394531 1.796875 -1.34375 C 1.921875 -1.289062 2.03125 -1.210938 2.125 -1.109375 C 2.21875 -1.015625 2.265625 -0.882812 2.265625 -0.71875 C 2.265625 -0.488281 2.175781 -0.304688 2 -0.171875 C 1.820312 -0.0351562 1.582031 0.03125 1.28125 0.03125 Z M 1.28125 0.03125 "/></g></g></g><g clip-path="url(#5a9eb72f5b)"><path fill="#ff914d" d="M 21.035156 32.332031 L 36.535156 32.332031 C 36.960938 32.332031 37.308594 31.988281 37.308594 31.5625 L 37.308594 21.132812 C 37.308594 20.707031 36.960938 20.359375 36.535156 20.359375 L 21.035156 20.359375 C 20.609375 20.359375 20.265625 20.707031 20.265625 21.132812 L 20.265625 31.5625 C 20.265625 31.988281 20.609375 32.332031 21.035156 32.332031 Z M 36.535156 33.3125 L 21.035156 33.3125 C 20.070312 33.3125 19.28125 32.527344 19.28125 31.5625 L 19.28125 21.132812 C 19.28125 20.167969 20.070312 19.378906 21.035156 19.378906 L 36.535156 19.378906 C 37.503906 19.378906 38.289062 20.167969 38.289062 21.132812 L 38.289062 31.5625 C 38.289062 32.527344 37.503906 33.3125 36.535156 33.3125 Z M 37.984375 44.503906 L 23.929688 44.503906 C 23.660156 44.503906 23.441406 44.726562 23.441406 44.996094 C 23.441406 45.265625 23.660156 45.484375 23.929688 45.484375 L 37.984375 45.484375 C 38.257812 45.484375 38.476562 45.265625 38.476562 44.996094 C 38.476562 44.726562 38.257812 44.503906 37.984375 44.503906 Z M 51.433594 39.828125 L 23.5625 39.828125 C 23.292969 39.828125 23.074219 40.050781 23.074219 40.320312 C 23.074219 40.589844 23.292969 40.808594 23.5625 40.808594 L 51.433594 40.808594 C 51.703125 40.808594 51.925781 40.589844 51.925781 40.320312 C 51.925781 40.050781 51.703125 39.828125 51.433594 39.828125 Z M 50.414062 33.3125 C 50.683594 33.3125 50.902344 33.09375 50.902344 32.824219 C 50.902344 32.554688 50.683594 32.332031 50.414062 32.332031 L 40.453125 32.332031 C 40.179688 32.332031 39.960938 32.554688 39.960938 32.824219 C 39.960938 33.09375 40.179688 33.3125 40.453125 33.3125 Z M 53.792969 28.359375 L 40.453125 28.359375 C 40.179688 28.359375 39.960938 28.578125 39.960938 28.847656 C 39.960938 29.121094 40.179688 29.339844 40.453125 29.339844 L 53.792969 29.339844 C 54.0625 29.339844 54.285156 29.121094 54.285156 28.847656 C 54.285156 28.578125 54.0625 28.359375 53.792969 28.359375 Z M 30.328125 11.285156 C 30.328125 11.640625 30.617188 11.929688 30.96875 11.929688 C 31.324219 11.929688 31.613281 11.640625 31.613281 11.285156 C 31.613281 10.933594 31.324219 10.644531 30.96875 10.644531 C 30.617188 10.644531 30.328125 10.933594 30.328125 11.285156 Z M 29.347656 11.285156 C 29.347656 10.390625 30.074219 9.664062 30.96875 9.664062 C 31.863281 9.664062 32.59375 10.390625 32.59375 11.285156 C 32.59375 12.179688 31.863281 12.910156 30.96875 12.910156 C 30.074219 12.910156 29.347656 12.179688 29.347656 11.285156 Z M 26.078125 11.285156 C 26.078125 11.640625 26.363281 11.929688 26.71875 11.929688 C 27.074219 11.929688 27.359375 11.640625 27.359375 11.285156 C 27.359375 10.933594 27.074219 10.644531 26.71875 10.644531 C 26.363281 10.644531 26.078125 10.933594 26.078125 11.285156 Z M 25.097656 11.285156 C 25.097656 10.390625 25.824219 9.664062 26.71875 9.664062 C 27.613281 9.664062 28.34375 10.390625 28.34375 11.285156 C 28.34375 12.179688 27.613281 12.910156 26.71875 12.910156 C 25.824219 12.910156 25.097656 12.179688 25.097656 11.285156 Z M 21.824219 11.285156 C 21.824219 11.640625 22.113281 11.929688 22.46875 11.929688 C 22.820312 11.929688 23.109375 11.640625 23.109375 11.285156 C 23.109375 10.933594 22.820312 10.644531 22.46875 10.644531 C 22.113281 10.644531 21.824219 10.933594 21.824219 11.285156 Z M 20.84375 11.285156 C 20.84375 10.390625 21.574219 9.664062 22.46875 9.664062 C 23.363281 9.664062 24.089844 10.390625 24.089844 11.285156 C 24.089844 12.179688 23.363281 12.910156 22.46875 12.910156 C 21.574219 12.910156 20.84375 12.179688 20.84375 11.285156 Z M 57.867188 47.808594 L 57.867188 15.148438 L 17.132812 15.148438 L 17.132812 47.460938 C 17.132812 48.429688 17.921875 49.214844 18.894531 49.214844 L 56.460938 49.214844 C 57.234375 49.214844 57.867188 48.585938 57.867188 47.808594 Z M 17.132812 10.242188 L 17.132812 14.167969 L 57.867188 14.167969 L 57.867188 10.609375 C 57.867188 9.4375 56.910156 8.480469 55.738281 8.480469 L 18.894531 8.480469 C 17.921875 8.480469 17.132812 9.269531 17.132812 10.242188 Z M 58.847656 14.675781 L 58.847656 47.808594 C 58.847656 49.125 57.777344 50.199219 56.460938 50.199219 L 18.894531 50.199219 C 17.382812 50.199219 16.148438 48.96875 16.148438 47.460938 L 16.148438 10.242188 C 16.148438 8.730469 17.382812 7.5 18.894531 7.5 L 55.738281 7.5 C 57.453125 7.5 58.847656 8.894531 58.847656 10.609375 L 58.847656 14.636719 C 58.847656 14.644531 58.851562 14.652344 58.851562 14.65625 C 58.851562 14.664062 58.847656 14.671875 58.847656 14.675781 Z M 54.285156 32.824219 C 54.285156 33.09375 54.0625 33.3125 53.792969 33.3125 L 52.960938 33.3125 C 52.691406 33.3125 52.472656 33.09375 52.472656 32.824219 C 52.472656 32.554688 52.691406 32.332031 52.960938 32.332031 L 53.792969 32.332031 C 54.0625 32.332031 54.285156 32.554688 54.285156 32.824219 " fill-opacity="1" fill-rule="nonzero"/></g></svg>