<svg id="Layer_1" data-name="Layer 1" xmlns="http://www.w3.org/2000/svg" viewBox="0 0 100 75"><defs><style>.cls-1{fill:#00bef2;}.cls-2{fill:#fff;stroke:#fff;stroke-linecap:round;stroke-linejoin:round;stroke-width:0.19px;}</style></defs><g id="layer1"><g id="g1016"><path id="path1008" class="cls-1" d="M50.34,8.09c.06,0,.12.08.22.22s6.65,8,14.61,17.52S79.62,43.16,79.59,43.2s-6.35,5.25-14.08,11.54-14.3,11.65-14.59,11.9c-.52.42-.55.43-.74.25s-6.7-5.5-14.64-12S21.11,43.09,21.14,43s6.56-7.87,14.54-17.33S50.18,8.4,50.21,8.28,50.29,8.09,50.34,8.09Z"/><path id="path923" class="cls-2" d="M49.26,57.63a5.11,5.11,0,0,1-2.45-2.14,5,5,0,0,1,.11-4.11c.48-1,.48-1,.17-1.26s-2.25-1.28-4.59-2.55L38,45.12c-.18-.11-.5,0-1.06.36a4.05,4.05,0,0,1-5.23-.36A3.58,3.58,0,0,1,30.29,42a3.61,3.61,0,0,1,1.17-3,4.2,4.2,0,0,1,4.36-1.1c.84.29.86.29,1.39-.12s5.63-5,8-7.34l1.67-1.59-.5-1.05a4.71,4.71,0,0,1,1.28-5.85,4.21,4.21,0,0,1,3.08-1,4.71,4.71,0,0,1,4.29,6.45c-.32.84-.32.86,0,1.37s4.78,5.9,7.16,8.68a2.89,2.89,0,0,0,1.05.88A5.64,5.64,0,0,0,64.47,38,4.25,4.25,0,0,1,69,45.08a3.67,3.67,0,0,1-2.87,1.1A3.52,3.52,0,0,1,64,45.59a2.87,2.87,0,0,0-1.44-.5c-.37.1-6.14,4-7.42,5.08-.78.64-.84.87-.43,1.82a4.61,4.61,0,0,1-.1,3.33,4.94,4.94,0,0,1-2.73,2.34,3.65,3.65,0,0,1-2.59,0Zm.27-17.21V31.53l-.5-.69a3.22,3.22,0,0,0-.6-.69c-.2,0-10.28,9.17-10.28,9.35a9,9,0,0,0,.34,1,5.08,5.08,0,0,1,.31,1.67c0,.42,0,.89,0,1,0,.36,3.38,2.52,8.44,5.44,1.39.81,1.87,1,2.05.87s.25-1.9.25-9.12Zm4.27,7.87c6.69-4.2,7.93-5,8-5.35a11.93,11.93,0,0,0,.13-1.66L62,40l-3.4-4c-3.65-4.33-5-5.79-5.31-5.79a5.94,5.94,0,0,0-1.22.68l-1,.69,0,8.88c0,8,.11,9.31.41,9.31,0,0,1.09-.63,2.32-1.41Z"/></g></g></svg>