<svg id="Layer_1" data-name="Layer 1" xmlns="http://www.w3.org/2000/svg" viewBox="0 0 100 75"><defs><style>.cls-1{fill:#c12766;}.cls-2{fill:#3e489f;}.cls-3{fill:#714099;}.cls-4{fill:#78932c;}.cls-5{fill:#cf242a;}.cls-6{fill:#fff;}.cls-7{fill:none;stroke:#fff;stroke-miterlimit:24.81;stroke-width:0.51px;}</style></defs><path id="a" class="cls-1" d="M61.51,46.64l-10.1,0-5-8.76,5.07-8.73,10.1,0,5,8.76Z"/><path id="a-2" data-name="a" class="cls-2" d="M45.55,55.8l-10.1,0-5-8.76,5.08-8.73,10.09,0,5,8.76Z"/><path id="a-3" data-name="a" class="cls-3" d="M61.42,65l-10.1,0-5-8.76,5.07-8.73,10.1,0,5,8.76Z"/><path id="a-4" data-name="a" class="cls-4" d="M45.64,37.56l-10.1,0-5-8.76L35.6,20l10.09,0,5,8.76Z"/><path id="a-5" data-name="a" class="cls-5" d="M61.5,28.38l-10.1,0-5-8.76,5.07-8.73,10.1,0,5,8.76Z"/><circle class="cls-6" cx="56.48" cy="19.63" r="1.53"/><circle class="cls-6" cx="40.62" cy="28.8" r="1.53"/><circle class="cls-6" cx="40.54" cy="47.04" r="1.53"/><circle class="cls-6" cx="56.39" cy="56.24" r="1.53"/><path class="cls-7" d="M55.52,20.06,41.63,28m-1.07,2,0,16m1,1.71,13.76,8.18"/><circle class="cls-6" cx="56.49" cy="37.88" r="1.53"/><path class="cls-7" d="M56.44,20.71l.05,16m0,2.34,0,16m-1-16.56-13.89,8m.06-16.95,13.77,8.19"/></svg>