<svg id="Layer_1" data-name="Layer 1" xmlns="http://www.w3.org/2000/svg" viewBox="0 0 100 75"><defs><style>.cls-1{fill:#fff;}.cls-2{fill:#4eb7ce;}.cls-3{fill:#f8c300;}.cls-4{opacity:0.1;}</style></defs><path class="cls-1" d="M50.33,61c.68,0,1.34,0,2-.1H48.35A16.41,16.41,0,0,0,50.33,61Z"/><path d="M76.07,39.93l-2.3,4.53-2.24.43-.08.27A22.2,22.2,0,0,1,53.21,60.31l-.41.06-.5,0h0c-.63.06-1.29.07-1.93.07s-1.29,0-1.93-.07h0l-.36,0-.41-.06a22.06,22.06,0,0,1-13-6.33,23,23,0,0,1-1.85-2.1l-.1-.14-6.18-1.35.5.91A26.68,26.68,0,0,0,77,40.16Z"/><path d="M71.68,22.3a26.7,26.7,0,0,0-47.35,10l.87.33,2-3.59,2.91.17.14-.29a22.54,22.54,0,0,1,4.4-6.27,22.2,22.2,0,0,1,31.39,0l.42.43.16.15L72.26,23Z"/><polygon class="cls-2" points="25.03 39.48 28.64 46.97 48.81 50.89 48.85 48.81 48.85 34.79 28.68 33.07 25.03 39.48"/><polygon class="cls-3" points="52.01 44.25 72.26 40.87 76.07 33.48 72.61 26.99 52.05 28.17 52.05 31.34 52.03 38.03 52.01 44.25"/><path d="M78.56,33.17l-4.87-9.36-21.75.71V47.76l21.27-4ZM52.05,31.34l0-3.17L72.61,27l3.47,6.49-3.8,7.39L52,44.27l0-6.22Z"/><polygon points="48.85 48.81 48.81 50.89 28.64 46.97 25.03 39.48 28.68 33.07 48.85 34.79 48.85 31.14 27.67 29.89 22.56 39.12 27.63 49.77 48.85 54.42 48.85 48.81"/><polygon points="51.95 24.52 51.95 22.53 48.85 22.53 48.85 31.14 48.85 34.79 48.85 48.81 48.85 54.42 48.85 61.47 51.95 61.47 51.95 47.76 51.95 24.52"/><g class="cls-4"><path class="cls-1" d="M52.05,28.21l0,3.16h.16L52,38.07,52,42c9.89-1.72,18.44-4.84,24.06-8.47L72.59,27Z"/><path d="M73.69,23.81l-21.75.71V42l.07,0L52,38l.18-6.69h-.16l0-3.17L72.61,27l3.46,6.49c.69-.45,1.33-.91,1.93-1.37Z"/><path d="M28.68,33.07l20.17,1.7V31.12L27.67,29.87,22.56,39.1l1.21,2.58q1.25.34,2.61.6L25,39.46Z"/><path class="cls-1" d="M52,22.53H48.85V34.79l-20.17-1.7L25,39.46l1.35,2.82a71,71,0,0,0,22.45.14l1.93-.29,1.16-.2V22.53Z"/></g></svg>