<svg id="Layer_1" data-name="Layer 1" xmlns="http://www.w3.org/2000/svg" xmlns:xlink="http://www.w3.org/1999/xlink" viewBox="0 0 100 75"><defs><style>.cls-1{fill:none;}.cls-2{clip-path:url(#clip-path);}.cls-3{fill:#fff;}.cls-4{fill:#a4c639;}</style><clipPath id="clip-path"><rect class="cls-1" x="28.34" y="13.23" width="40.63" height="47.77"/></clipPath></defs><g class="cls-2"><path class="cls-3" d="M56.53,13.36a1.34,1.34,0,0,1,.66.18,1.41,1.41,0,0,1,.55,1.9l-1.51,2.72a12.4,12.4,0,0,1,6.05,10.5v.82A3.81,3.81,0,0,1,69,32V43.72a3.81,3.81,0,0,1-6.69,2.5v1.65a4,4,0,0,1-4,4h-1v5.23a3.81,3.81,0,0,1-7.62,0V51.9H47.83v5.23a3.82,3.82,0,0,1-7.63,0V51.9h-1a4,4,0,0,1-4-4V46.22a3.77,3.77,0,0,1-2.87,1.32,3.81,3.81,0,0,1-3.81-3.82V32a3.81,3.81,0,0,1,3.81-3.82,3.77,3.77,0,0,1,2.87,1.32v-.67h0v-.14A12.38,12.38,0,0,1,41.2,18.17l-1.51-2.73a1.4,1.4,0,0,1,.54-1.9,1.35,1.35,0,0,1,.67-.18,1.42,1.42,0,0,1,1.23.72l1.59,2.86a14.62,14.62,0,0,1,10,0l1.58-2.86A1.42,1.42,0,0,1,56.53,13.36Z"/><path class="cls-4" d="M32.27,29.16A2.8,2.8,0,0,1,35.09,32V43.72a2.82,2.82,0,1,1-5.64,0V32a2.8,2.8,0,0,1,2.82-2.82m32.89,0A2.8,2.8,0,0,1,68,32V43.72a2.82,2.82,0,0,1-5.64,0V32a2.8,2.8,0,0,1,2.82-2.82"/><path class="cls-4" d="M44,42.56a2.8,2.8,0,0,1,2.82,2.82V57.13a2.82,2.82,0,0,1-5.64,0V45.38A2.8,2.8,0,0,1,44,42.56m9.4,0a2.8,2.8,0,0,1,2.82,2.82V57.13a2.82,2.82,0,0,1-5.64,0V45.38a2.8,2.8,0,0,1,2.82-2.82"/><path class="cls-4" d="M61.29,29.64V47.87a3,3,0,0,1-3,3H39.18a3,3,0,0,1-3-3V29.64ZM56.52,14.36a.32.32,0,0,1,.19.05.39.39,0,0,1,.16.54l-2,3.59a11.51,11.51,0,0,1,6.41,10.11H36.14a11.47,11.47,0,0,1,6.41-10.11l-2-3.59a.38.38,0,0,1,.15-.54.36.36,0,0,1,.19-.05.39.39,0,0,1,.36.2l2,3.63a13.55,13.55,0,0,1,10.88,0l2-3.63a.38.38,0,0,1,.35-.2"/><path class="cls-3" d="M42.91,21.94a1.05,1.05,0,1,1,0,2.1,1.05,1.05,0,1,1,0-2.1m11.61,0a1,1,0,1,1,0,2.1,1,1,0,0,1,0-2.1"/></g></svg>