<?xml version="1.0" encoding="UTF-8"?>
<svg xmlns="http://www.w3.org/2000/svg" xmlns:xlink="http://www.w3.org/1999/xlink" width="80px" height="60px" viewBox="0 0 80 60" version="1.1">
<g id="surface1">
<path style="fill-rule:evenodd;fill:rgb(0%,0%,0%);fill-opacity:1;stroke-width:5.1286;stroke-linecap:butt;stroke-linejoin:miter;stroke:rgb(99.215686%,93.333333%,12.941176%);stroke-opacity:1;stroke-miterlimit:4;" d="M 597.310024 637.790095 L 597.310024 830.622203 L 644.673305 830.622203 L 644.673305 742.028418 L 654.43893 742.145605 L 654.43893 830.622203 L 702.339321 830.622203 L 702.339321 637.790095 L 654.43893 637.790095 L 654.43893 709.333092 L 644.673305 709.333092 L 644.673305 637.790095 Z M 597.310024 637.790095 " transform="matrix(0.08,0,0,0.0666666,-0.0426144,4.453334)"/>
<path style="fill-rule:evenodd;fill:rgb(0%,0%,0%);fill-opacity:1;stroke-width:5.1286;stroke-linecap:butt;stroke-linejoin:miter;stroke:rgb(99.215686%,93.333333%,12.941176%);stroke-opacity:1;stroke-miterlimit:4;" d="M 761.226039 637.790095 L 715.132289 637.790095 L 715.132289 830.622203 L 761.226039 830.622203 Z M 761.226039 637.790095 " transform="matrix(0.08,0,0,0.0666666,-0.0426144,4.453334)"/>
<path style="fill-rule:evenodd;fill:rgb(0%,0%,0%);fill-opacity:1;stroke-width:5.1286;stroke-linecap:butt;stroke-linejoin:miter;stroke:rgb(99.215686%,93.333333%,12.941176%);stroke-opacity:1;stroke-miterlimit:4;" d="M 768.794399 637.790095 L 805.22018 830.622203 L 860.200649 830.622203 L 896.62643 637.790095 L 847.700649 637.790095 L 835.591274 720.348722 C 834.614711 723.454192 831.245571 723.454192 830.610805 720.348722 L 818.550258 637.790095 Z M 768.794399 637.790095 " transform="matrix(0.08,0,0,0.0666666,-0.0426144,4.453334)"/>
<path style="fill-rule:evenodd;fill:rgb(0%,0%,0%);fill-opacity:1;stroke-width:5.1286;stroke-linecap:butt;stroke-linejoin:miter;stroke:rgb(99.215686%,93.333333%,12.941176%);stroke-opacity:1;stroke-miterlimit:4;" d="M 997.944789 637.790095 L 906.440883 637.790095 L 906.440883 830.622203 L 997.944789 830.622203 L 997.944789 780.114371 L 947.065883 779.64562 L 947.065883 757.965924 L 971.333461 757.965924 L 971.333461 707.75106 L 947.065883 707.75106 L 947.065883 688.356521 L 997.944789 688.356521 Z M 997.944789 637.790095 " transform="matrix(0.08,0,0,0.0666666,-0.0426144,4.453334)"/>
<path style=" stroke:none;fill-rule:evenodd;fill:rgb(99.215686%,93.333333%,12.941176%);fill-opacity:1;" d="M 40.25 7.984375 C 39.632812 6.574219 18.414062 -0.296875 18.148438 0.457031 C 14.25 1.304688 12.664062 5.042969 9.984375 7.414062 L 4.03125 7.132812 C 1.410156 9.941406 0.0351562 12.8125 0.972656 15.792969 C 4.332031 19.585938 8.230469 22.816406 10.664062 27.582031 C 10.855469 29.828125 22.328125 27.820312 24.789062 27.371094 C 21.429688 29.378906 18.503906 32.484375 19.757812 41.429688 C 20.910156 45.632812 21.695312 50.320312 31.871094 55.070312 C 33.210938 55.695312 35.984375 56.417969 37.699219 56.945312 C 39.339844 57.570312 41.257812 57.828125 46.664062 56.449219 C 49.796875 55.324219 53.175781 54.648438 56.238281 53.527344 L 52.554688 53.671875 C 47.488281 53.761719 43.570312 54.078125 42.367188 52.898438 L 37.699219 46.1875 L 40.417969 41.785156 C 44.183594 42.105469 45.433594 44.648438 48.753906 45.617188 L 52.664062 43.203125 C 64.023438 48.789062 68.539062 39.664062 69.835938 32.554688 C 69.695312 29.660156 62.320312 33.460938 62.769531 32.105469 C 62.941406 28.996094 59.898438 24.929688 57.933594 21.757812 L 60.210938 14.425781 C 61.242188 13.660156 55.429688 5.5 50.6875 4.484375 C 46.523438 3.589844 40.25 7.984375 40.25 7.984375 Z M 40.25 7.984375 "/>
<path style=" stroke:none;fill-rule:evenodd;fill:rgb(78.431373%,75.294118%,21.568627%);fill-opacity:1;" d="M 58.914062 23.570312 C 58.953125 24.355469 58.945312 25.316406 59.039062 25.914062 C 59.023438 26.367188 58.613281 26.382812 58.273438 26.480469 L 60.484375 27.15625 C 60.921875 27.773438 61.273438 28.386719 61.632812 29.003906 C 62.042969 30.515625 61.738281 30.558594 61.460938 30.671875 C 60.660156 30.679688 59.859375 30.679688 59.113281 30.546875 C 59.445312 30.695312 59.523438 30.800781 59.554688 30.992188 C 59.621094 31.335938 59.351562 31.8125 58.914062 32.269531 C 59.566406 32.570312 60.757812 32.867188 61.644531 33.148438 L 62.652344 31.273438 C 62.195312 28.523438 60.808594 25.988281 58.914062 23.570312 Z M 58.914062 23.570312 "/>
<path style=" stroke:none;fill-rule:evenodd;fill:rgb(78.431373%,75.294118%,21.568627%);fill-opacity:1;" d="M 63.039062 32.800781 C 64.261719 33.226562 65.957031 33.101562 68.304688 32.089844 C 68.652344 31.882812 68.976562 32.007812 68.351562 32.347656 C 65.273438 34.648438 63.800781 33.5 63.039062 32.800781 Z M 63.039062 32.800781 "/>
<path style=" stroke:none;fill-rule:evenodd;fill:rgb(78.431373%,75.294118%,21.568627%);fill-opacity:1;" d="M 68.539062 31.789062 C 68.902344 32.371094 68.683594 32.84375 68.5625 33.335938 C 68.179688 35.832031 67.246094 37.804688 65.414062 39.867188 C 59.457031 47.851562 53.441406 42.851562 48.648438 39.601562 L 46.664062 43.746094 C 46.554688 44.109375 46.117188 44.390625 49.214844 45.527344 L 52.371094 43.671875 C 64.410156 51.304688 72.941406 32.988281 68.539062 31.789062 Z M 68.539062 31.789062 "/>
<path style=" stroke:none;fill-rule:evenodd;fill:rgb(78.431373%,75.294118%,21.568627%);fill-opacity:1;" d="M 50.097656 38.921875 C 49.285156 38.972656 46.867188 39.65625 46.757812 40.054688 L 47.871094 38.671875 Z M 50.097656 38.921875 "/>
<path style=" stroke:none;fill-rule:evenodd;fill:rgb(78.431373%,75.294118%,21.568627%);fill-opacity:1;" d="M 48.519531 30.460938 C 48.664062 30.460938 49.382812 30.617188 49.304688 30.582031 C 49.195312 30.53125 49.292969 31.414062 49.515625 31.878906 L 48.648438 33.460938 C 50.316406 31.851562 52.953125 31.960938 55.402344 31.753906 L 54.234375 31.148438 C 54.4375 30.585938 54.199219 30.140625 54.085938 29.660156 Z M 48.519531 30.460938 "/>
<path style=" stroke:none;fill-rule:evenodd;fill:rgb(78.431373%,75.294118%,21.568627%);fill-opacity:1;" d="M 52.617188 25.699219 C 50.828125 26.160156 49.117188 26.90625 47.960938 28.5 C 48.839844 25.871094 49.023438 25.972656 49.304688 25.84375 C 50.53125 25.382812 51.539062 25.667969 52.617188 25.699219 Z M 52.617188 25.699219 "/>
<path style=" stroke:none;fill-rule:evenodd;fill:rgb(98.823529%,96.470588%,62.745098%);fill-opacity:1;" d="M 43.054688 56.484375 C 40.890625 58.476562 36.058594 56.332031 32.046875 55.242188 C 21.851562 49.835938 19.855469 44.75 19.71875 39.757812 C 19.195312 32.613281 21.828125 28.460938 25.160156 27.476562 C 22.953125 31.019531 21.925781 37.375 22.949219 42.101562 C 23.773438 44.734375 23.789062 49.171875 29.070312 51.546875 C 31.660156 52.757812 30.960938 53.703125 32.707031 54.839844 C 34.621094 56.085938 39.964844 57.269531 43.054688 56.484375 Z M 43.054688 56.484375 "/>
<path style=" stroke:none;fill-rule:evenodd;fill:rgb(98.823529%,96.470588%,62.745098%);fill-opacity:1;" d="M 46.289062 23.449219 C 42.625 19.117188 37.46875 17.492188 31.652344 17.3125 C 32.820312 16.996094 33.984375 16.832031 35.148438 16.363281 C 35.433594 16.113281 35.339844 15.671875 35.234375 15.226562 C 29.636719 14.007812 26.101562 12.503906 21.632812 11.109375 L 33.703125 13.523438 C 41.855469 13.78125 41.15625 15.457031 46.289062 23.449219 Z M 46.289062 23.449219 "/>
<path style=" stroke:none;fill-rule:evenodd;fill:rgb(98.823529%,96.470588%,62.745098%);fill-opacity:1;" d="M 50.214844 21.359375 C 47.507812 18.136719 44.878906 14.226562 41.3125 11.738281 C 32.699219 8.496094 24.179688 6.09375 14.199219 3.902344 L 17.382812 0.488281 C 27.976562 2.503906 37.929688 5.875 46.839844 11.433594 C 48.351562 14.613281 49.355469 17.792969 50.214844 21.359375 Z M 50.214844 21.359375 "/>
<path style=" stroke:none;fill-rule:evenodd;fill:rgb(98.823529%,96.470588%,62.745098%);fill-opacity:1;" d="M 55.679688 15.664062 C 55.679688 15.664062 54.160156 12.824219 53.421875 11.742188 C 51.703125 10.15625 50.835938 7.203125 47.320312 5.8125 C 48.433594 6.0625 49.195312 5.761719 51.460938 7.476562 L 55.039062 13.125 Z M 55.679688 15.664062 "/>
<path style=" stroke:none;fill-rule:evenodd;fill:rgb(98.823529%,96.470588%,62.745098%);fill-opacity:1;" d="M 57.570312 20.585938 C 57.917969 18.125 58.585938 14.179688 57.820312 12.617188 C 55.695312 10.242188 53.554688 7.789062 51.417969 5.507812 C 51.0625 5.234375 50.808594 4.859375 50.527344 4.570312 C 53.539062 5.21875 56.679688 6.960938 60.914062 13.84375 Z M 57.570312 20.585938 "/>
<path style=" stroke:none;fill-rule:evenodd;fill:rgb(0%,0%,0%);fill-opacity:1;" d="M 44.917969 20.875 C 43.722656 20.085938 42.652344 17.308594 40.835938 16.730469 C 39.15625 16.613281 38.539062 16.171875 36.328125 16.546875 C 37.132812 16.210938 37.886719 15.785156 38.742188 15.554688 C 39.316406 15.445312 39.859375 15.570312 40.410156 15.632812 C 40.542969 15.578125 40.632812 15.511719 40.601562 15.410156 C 38.375 14.265625 33.8125 14.246094 30.730469 13.59375 C 34.304688 13.695312 38.261719 13.527344 40.949219 14.246094 C 43.113281 15.84375 43.8125 18.855469 44.917969 20.875 Z M 44.917969 20.875 "/>
<path style=" stroke:none;fill-rule:evenodd;fill:rgb(0%,0%,0%);fill-opacity:1;" d="M 51.472656 7.46875 C 51.96875 7.507812 54.636719 11.023438 54.761719 11.609375 C 54.984375 12.890625 55.53125 14.324219 55.679688 15.664062 C 55.242188 14.382812 54.761719 13.097656 54.164062 11.8125 C 53.988281 11.460938 53.542969 10.660156 52.3125 9.527344 C 51.742188 8.730469 51.617188 8.101562 51.472656 7.46875 Z M 51.472656 7.46875 "/>
<path style=" stroke:none;fill-rule:evenodd;fill:rgb(0%,0%,0%);fill-opacity:1;" d="M 60.519531 26.636719 L 59.378906 26.636719 L 60.640625 26.914062 Z M 60.519531 26.636719 "/>
<path style=" stroke:none;fill-rule:evenodd;fill:rgb(0%,0%,0%);fill-opacity:1;" d="M 52.726562 25.6875 C 51.578125 25.570312 50.398438 25.554688 49.25 25.761719 C 48.78125 26.289062 48.75 26.820312 48.542969 27.3125 C 49.941406 26.03125 50.492188 25.953125 52.726562 25.6875 Z M 52.726562 25.6875 "/>
<path style=" stroke:none;fill-rule:evenodd;fill:rgb(0%,0%,0%);fill-opacity:1;" d="M 68.390625 32.304688 C 67.753906 32.730469 67.6875 33.132812 65.796875 33.609375 C 64.417969 33.882812 63.640625 33.421875 62.992188 32.804688 C 63.976562 33.039062 64.132812 33.65625 66.773438 32.960938 Z M 68.390625 32.304688 "/>
<path style=" stroke:none;fill-rule:evenodd;fill:rgb(0%,0%,0%);fill-opacity:1;" d="M 62.664062 32.570312 C 62.203125 33.625 61.707031 34.691406 61.207031 35.679688 C 60.015625 36.839844 60.523438 36.179688 58.742188 37.984375 C 59.3125 37.253906 60.054688 36.546875 60.441406 35.785156 C 60.714844 35.28125 61.054688 34.746094 61.203125 34.300781 C 60.730469 34.101562 59.765625 34.085938 59.632812 34.160156 C 58.050781 34.9375 57.761719 35.761719 56.828125 36.566406 C 57.507812 35.664062 58.085938 34.679688 58.867188 33.867188 C 58.960938 33.761719 59.539062 33.742188 59.898438 33.679688 C 59.339844 33.601562 58.3125 33.433594 58.230469 33.441406 C 57.195312 33.648438 56.617188 34.398438 55.851562 34.898438 C 56.410156 34.222656 56.925781 33.523438 57.636719 32.945312 C 57.707031 32.875 59.628906 33.015625 60.621094 33.347656 L 60.640625 33.675781 L 61.207031 33.867188 L 61.632812 32.976562 Z M 62.664062 32.570312 "/>
<path style=" stroke:none;fill-rule:evenodd;fill:rgb(0%,0%,0%);fill-opacity:1;" d="M 50.121094 38.925781 C 49.867188 38.851562 47.617188 38.613281 47.617188 38.667969 C 46.75 39.179688 46.617188 39.671875 46.636719 40.097656 C 48.074219 38.917969 48.023438 38.914062 50.121094 38.925781 Z M 50.121094 38.925781 "/>
<path style=" stroke:none;fill-rule:evenodd;fill:rgb(0%,0%,0%);fill-opacity:1;" d="M 48.414062 30.441406 C 48.414062 30.441406 50.039062 30.242188 50.007812 30.367188 C 49.886719 30.839844 50.207031 31.984375 50.242188 31.824219 L 49.324219 32.445312 C 51.242188 31.644531 53.257812 31.804688 55.296875 31.683594 C 55.296875 31.683594 53.578125 31.289062 53.683594 31.273438 C 54.066406 31.230469 53.582031 29.78125 53.449219 29.746094 C 53.773438 29.65625 54.097656 29.585938 54.429688 29.519531 C 51.964844 28.980469 50.542969 29.296875 48.414062 30.441406 Z M 48.414062 30.441406 "/>
<path style=" stroke:none;fill-rule:evenodd;fill:rgb(0%,0%,0%);fill-opacity:1;" d="M 62.480469 31.453125 L 62.121094 31.601562 C 62.070312 30.722656 60.929688 30.785156 59.976562 30.777344 L 59.1875 30.617188 C 59.429688 30.804688 60.164062 30.789062 59.867188 31.183594 C 59.617188 31.296875 59.5 31.777344 59.355469 32.179688 L 58.929688 32.195312 C 59.683594 32.441406 60.382812 32.65625 61.207031 32.945312 L 61.695312 33.007812 L 62.867188 32.480469 Z M 62.480469 31.453125 "/>
<path style=" stroke:none;fill-rule:evenodd;fill:rgb(100%,100%,100%);fill-opacity:1;" d="M 51.707031 30.855469 C 51.523438 30.554688 50.601562 30.601562 50.402344 30.792969 C 50.242188 30.953125 50.394531 31.96875 50.601562 31.796875 C 50.898438 31.578125 51.289062 31.488281 51.757812 31.507812 C 51.820312 31.320312 51.796875 31.117188 51.707031 30.855469 Z M 51.707031 30.855469 "/>
<path style=" stroke:none;fill-rule:evenodd;fill:rgb(100%,100%,100%);fill-opacity:1;" d="M 60.535156 32.371094 C 60.621094 32.320312 60.804688 31.808594 60.742188 31.65625 C 60.625 31.296875 59.769531 31.371094 59.769531 31.371094 C 59.558594 31.476562 59.375 32.039062 59.453125 32.222656 C 59.488281 32.378906 60.398438 32.429688 60.535156 32.371094 Z M 60.535156 32.371094 "/>
<path style=" stroke:none;fill-rule:evenodd;fill:rgb(0%,0%,0%);fill-opacity:1;" d="M 23.929688 49.976562 L 24.46875 50.019531 C 27.675781 51.332031 32.953125 53.273438 40.59375 52.230469 L 41.792969 53.804688 C 38.429688 55.164062 34.808594 54.851562 31.417969 54.949219 Z M 23.929688 49.976562 "/>
<path style=" stroke:none;fill-rule:evenodd;fill:rgb(0%,0%,0%);fill-opacity:1;" d="M 19.324219 39.605469 L 20.929688 45.226562 C 25.230469 47.464844 32.574219 50.027344 38.695312 49.820312 L 37.34375 47.234375 C 24.566406 44.976562 23.484375 42.117188 19.324219 39.605469 Z M 19.324219 39.605469 "/>
<path style=" stroke:none;fill-rule:evenodd;fill:rgb(0%,0%,0%);fill-opacity:1;" d="M 23.320312 28.101562 C 24.105469 32.453125 25.15625 35.753906 29.695312 38.519531 C 32.480469 40.1875 35.246094 41.847656 38.605469 43.21875 C 38.605469 43.21875 38.3125 44.496094 38.066406 44.476562 C 28.0625 43.550781 20.738281 36.636719 19.851562 33.476562 C 20.710938 31.054688 21.945312 29.542969 23.320312 28.101562 Z M 23.320312 28.101562 "/>
<path style=" stroke:none;fill-rule:evenodd;fill:rgb(0%,0%,0%);fill-opacity:1;" d="M 28.132812 25.632812 C 29.464844 30.457031 32.644531 35.34375 35.804688 39.777344 C 36.960938 41.003906 37.261719 41.542969 39.046875 42.289062 C 41.460938 42.925781 43.167969 42.761719 44.917969 42.664062 C 44.4375 41.929688 44.011719 41.152344 43.460938 40.457031 C 39.539062 37.871094 41.351562 35.519531 42.394531 34.03125 C 40.210938 33.570312 37.324219 32.597656 36.925781 31.3125 C 36.289062 27.160156 36.613281 25.84375 37.253906 23.710938 C 34.300781 24.230469 31.304688 24.742188 28.132812 25.632812 Z M 28.132812 25.632812 "/>
<path style="fill-rule:evenodd;fill:rgb(0%,0%,0%);fill-opacity:1;stroke-width:0.11397;stroke-linecap:butt;stroke-linejoin:miter;stroke:rgb(0%,0%,0%);stroke-opacity:1;stroke-miterlimit:4;" d="M 216.792446 -66.741437 C 204.634242 -58.831278 192.964321 -47.464085 180.366664 -34.573455 C 159.517055 -13.010947 145.698696 8.024218 124.458461 23.610162 C 120.210414 27.301569 108.296352 33.160947 93.354946 34.039853 C 86.274867 34.391416 81.685024 35.563291 68.745571 33.922666 C 57.319789 27.77032 46.479946 31.754696 35.835414 44.410951 C 24.263149 61.16877 9.517055 92.926596 3.413539 112.848479 C -9.184117 163.766468 22.944789 205.778203 53.755336 238.121966 C 81.196742 264.899321 97.017055 281.65714 108.247524 306.207931 C 116.841274 322.145437 123.091274 344.000915 129.976039 359.352483 C 132.466274 364.215767 131.929164 364.157173 138.520961 365.622017 C 152.87643 368.727487 172.749477 368.727487 190.474086 370.250925 C 198.140102 370.368113 208.638149 370.075144 218.599086 369.020456 C 232.319789 366.44233 248.481899 363.864204 261.958461 359.176702 C 275.239711 355.954045 286.958461 351.442324 297.602992 347.282166 C 296.235805 351.911074 286.128383 356.422795 282.319789 362.282172 C 246.333461 413.786099 236.519008 459.60643 242.769008 531.911146 C 246.333461 563.96194 253.65768 590.50492 264.741664 620.915088 C 269.819789 634.801812 280.659633 656.833071 291.011196 671.481515 C 321.772914 714.958094 390.669399 770.856554 486.567836 792.360469 C 503.267055 794.645626 522.261196 793.415157 540.132289 788.669061 C 587.446742 774.313587 683.882289 740.387792 683.882289 740.387792 C 683.882289 740.387792 598.286586 747.477639 559.077602 743.551856 C 549.995571 742.145605 539.985805 741.676855 533.638149 735.524509 C 532.612758 734.176852 528.755336 726.38388 531.245571 726.325287 C 534.614711 726.208099 544.380336 722.165129 559.419399 720.817472 C 527.290492 717.360439 527.778774 717.419033 525.435024 711.559656 C 521.772914 702.477621 516.206508 690.055741 510.444789 679.157299 C 524.556117 680.387768 555.806117 682.145581 566.450649 671.188546 C 566.450649 671.188546 547.895961 673.297922 531.587367 671.364327 C 526.069789 670.778389 516.694789 667.37995 513.862758 666.383856 C 506.538539 663.512761 500.483852 662.633855 499.067836 660.758854 C 496.528774 654.254945 494.770961 652.145569 491.743617 643.415097 C 487.544399 631.930718 487.25143 619.098681 486.421352 607.321333 C 497.114711 620.504932 510.786586 631.579155 528.804164 637.262751 C 529.048305 636.794001 552.192836 647.34088 568.989711 641.891659 L 572.505336 640.778377 C 572.505336 641.12994 561.372524 641.774471 557.270961 639.723689 C 523.091274 625.192434 517.915492 612.477585 512.349086 606.149457 L 497.602992 584.001011 C 502.09518 575.036164 504.634242 574.684601 510.591274 574.626007 C 528.608852 576.618195 536.421352 578.141634 547.40768 575.504914 C 554.780727 590.739295 556.831508 606.090863 573.677211 617.22368 C 629.829555 633.864312 642.036586 612.24321 655.659633 593.083046 C 696.040492 622.790089 761.811977 631.930718 807.515102 593.61039 C 865.620571 526.403332 884.028774 420.465789 878.852992 414.430631 C 871.577602 402.067344 862.104946 389.411089 853.901821 391.168902 C 824.800258 399.137656 814.058071 413.903287 785.200649 410.504848 C 788.618617 410.329066 794.380336 410.270473 794.429164 409.91891 C 796.675258 385.485306 794.233852 373.649364 793.208461 371.598582 C 784.419399 352.321231 772.895961 331.989191 764.888149 316.75481 C 762.837367 313.590746 756.78268 289.567299 746.577602 280.075108 C 742.231899 276.3837 731.538539 266.539946 731.538539 266.539946 L 730.659633 276.969638 C 730.659633 276.969638 734.810024 277.61417 736.421352 284.059485 C 742.427211 308.551682 773.091274 366.559518 775.337367 369.313425 C 786.226039 386.891557 776.460414 408.747034 784.712367 421.051727 C 785.542446 422.575165 801.606899 420.875946 814.058071 421.637665 C 834.517055 417.243132 833.638149 408.219691 851.31393 406.872034 C 863.227992 405.934533 864.448696 428.317355 864.302211 430.016574 C 862.056117 454.743147 854.536586 483.454096 843.013149 509.704106 C 819.136196 555.817406 792.329555 597.126016 754.341274 602.9268 C 708.052211 611.01274 683.979946 590.739295 658.833461 577.848665 L 649.263149 586.051793 C 616.645961 618.571337 577.87643 615.641649 562.007289 573.219757 C 554.145961 556.754906 543.843227 546.676777 535.005336 532.497084 L 488.325649 566.12991 C 484.468227 574.098663 479.683071 586.696324 473.872524 600.700236 C 469.819789 610.485396 466.450649 627.243216 466.645961 641.12994 C 460.68893 651.38385 487.397914 692.692461 504.292446 717.887783 C 509.272914 725.270599 518.599086 738.219823 518.892055 739.098729 C 522.212367 747.770608 529.536586 755.387798 529.976039 756.325299 C 561.372524 797.223752 490.474086 787.848749 475.825649 785.329216 C 446.968227 780.758902 418.696742 768.629991 392.183071 752.516703 C 390.620571 751.579203 389.106899 750.641703 387.544399 749.704202 C 356.00143 729.840913 326.997524 704.411215 302.290492 679.274486 C 287.544399 662.633855 273.579555 628.473685 263.227992 604.215863 C 247.700649 545.973652 225.435024 445.075174 285.737758 368.551706 C 289.546352 364.215767 293.696742 356.950139 297.212367 355.485294 C 315.132289 343.414977 334.614711 335.094661 355.513149 330.582941 L 353.364711 316.989185 C 342.964321 319.332936 307.759242 332.223566 297.798305 337.614194 C 275.190883 344.176696 256.440883 350.973574 227.583461 358.239202 C 218.208461 359.411077 209.028774 359.411077 200.044399 358.180608 C 179.292446 355.368107 143.940883 357.887639 141.645961 355.778263 C 127.583461 336.207943 123.774867 301.110273 110.981899 282.301671 L 110.640102 281.950109 C 103.169399 271.930574 94.477992 263.727445 85.884242 255.231348 C 55.171352 224.703992 28.901821 195.17273 21.528774 163.942249 C 19.722133 154.743027 14.936977 145.192242 17.427211 117.828949 L 17.524867 117.711762 L 17.573696 117.535981 C 24.946742 92.047689 36.958461 71.246899 57.368617 50.44611 C 78.560024 50.739079 99.604946 51.207829 115.962367 54.371893 C 123.481899 55.602362 139.106899 57.653144 155.22018 63.629709 C 196.040492 78.86409 249.995571 103.883631 249.995571 103.883631 C 209.468227 81.676591 164.204555 52.731267 135.591274 46.930484 C 131.392055 46.285952 128.755336 44.410951 127.485805 41.012512 C 170.503383 15.758596 178.364711 -14.007041 206.636196 -40.667208 C 219.575649 -46.29221 224.604946 -49.163305 235.591274 -50.393774 C 337.153774 -34.33908 401.118617 6.149217 451.655727 33.160947 C 472.212367 44.352357 490.864711 52.789861 508.686977 62.926584 C 524.311977 68.082836 571.479946 103.70785 585.249477 122.926608 C 599.263149 152.457869 609.517055 184.45007 618.843227 215.270395 C 625.53268 246.676657 631.440883 259.391506 631.440883 259.391506 C 631.440883 259.391506 625.727992 233.141496 626.655727 228.3954 C 632.56393 230.621963 646.528774 234.957902 652.290492 234.313371 C 652.290492 234.313371 626.460414 220.953991 623.091274 209.176642 C 612.25143 171.325065 601.362758 112.379728 598.433071 109.332852 C 590.132289 98.961754 555.659633 72.535963 534.468227 60.348458 C 526.460414 55.660956 522.114711 52.848455 521.821742 50.797673 C 528.560024 43.942201 536.909633 34.91876 544.380336 29.17657 C 551.606899 23.668755 558.101039 17.457815 568.110805 13.766408 C 612.104946 -6.038288 637.202602 21.383598 643.208461 15.81719 C 643.208461 15.81719 633.735805 4.977342 637.935024 6.793749 C 642.231899 9.078906 656.245571 11.832813 657.808071 13.239064 C 673.823696 25.836725 715.669399 71.598462 740.962367 119.938325 C 747.017055 131.832861 749.458461 139.567239 746.675258 153.86412 C 743.843227 168.161001 741.645961 175.953973 738.569789 185.504758 C 735.786586 191.832885 720.112758 235.485246 720.161586 241.344624 C 716.987758 265.250883 730.415492 295.250895 730.415492 295.250895 C 730.513149 287.106361 729.927211 282.770422 730.659633 276.969638 L 731.538539 266.59854 C 731.538539 266.59854 730.952602 263.786039 731.099086 262.672757 C 731.78268 255.524317 733.540492 249.489158 734.028774 245.329 C 739.106899 214.098519 747.895961 191.59851 757.856899 164.176624 C 760.786586 157.262559 764.644008 153.39537 764.448696 148.12193 C 764.59518 138.80552 756.245571 126.207859 750.190883 114.020354 C 744.087367 101.598474 736.811977 87.770344 727.241664 73.239088 C 705.415492 41.832825 686.811977 17.282034 652.778774 1.930466 C 643.208461 -2.229692 605.708461 -6.331257 592.817836 -3.870318 C 577.046352 -0.647661 563.520961 2.574997 552.778774 9.489062 C 535.835414 20.32891 522.505336 37.145323 506.880336 47.047671 C 472.310024 29.762508 455.659633 16.813284 452.583461 15.055471 C 432.026821 4.039841 407.368617 -8.733601 380.806117 -20.862512 C 368.110805 -32.698455 289.106899 -61.057841 216.792446 -66.741437 Z M 658.833461 577.848665 C 637.544399 561.208033 619.624477 544.098651 607.808071 526.403332 C 603.950649 547.145527 589.936977 561.911158 579.145961 576.501008 C 576.948696 579.899447 575.435024 584.528355 585.981899 599.411173 C 588.911586 603.336956 599.214321 603.981488 606.196742 603.629925 C 599.067836 598.239298 588.325649 592.614296 586.567836 587.692419 C 599.067836 596.129922 610.591274 598.59086 621.089321 597.243204 C 623.481899 596.950235 626.411586 594.430703 628.755336 590.50492 C 633.394008 580.485384 637.056117 578.08304 640.718227 575.387726 L 649.263149 586.051793 Z M 658.833461 577.848665 " transform="matrix(0.08,0,0,0.0666666,-0.0426144,4.453334)"/>
</g>
</svg>
