<svg id="Layer_1" data-name="Layer 1" xmlns="http://www.w3.org/2000/svg" xmlns:xlink="http://www.w3.org/1999/xlink" viewBox="0 0 100 75"><defs><style>.cls-1{fill:none;}.cls-2{clip-path:url(#clip-path);}</style><clipPath id="clip-path"><rect class="cls-1" x="27.29" y="7.85" width="43.2" height="53.15"/></clipPath></defs><g class="cls-2"><path d="M56.69,16.32a11.72,11.72,0,0,0,2.76-8.47,11.84,11.84,0,0,0-7.82,4,11.09,11.09,0,0,0-2.81,8.2,9.84,9.84,0,0,0,7.87-3.75M63.37,36a11.7,11.7,0,0,0,7.12,10.73,29.34,29.34,0,0,1-3.67,7.55c-2.22,3.23-4.51,6.45-8.13,6.52S54,58.72,49.94,58.72s-5.33,2-8.69,2.17-6.15-3.49-8.38-6.71c-4.56-6.59-8-18.61-3.36-26.73a13,13,0,0,1,11-6.65c3.43-.07,6.67,2.31,8.76,2.31s6-2.85,10.16-2.44a12.41,12.41,0,0,1,9.7,5.27A12,12,0,0,0,63.37,36"/></g></svg>