<?xml version="1.0" encoding="UTF-8" standalone="no"?>
<!DOCTYPE svg PUBLIC "-//W3C//DTD SVG 1.1//EN" "http://www.w3.org/Graphics/SVG/1.1/DTD/svg11.dtd">
<svg width="100%" height="100%" viewBox="0 0 1080 415" version="1.1" xmlns="http://www.w3.org/2000/svg" xmlns:xlink="http://www.w3.org/1999/xlink" xml:space="preserve" xmlns:serif="http://www.serif.com/" style="fill-rule:evenodd;clip-rule:evenodd;stroke-linejoin:round;stroke-miterlimit:2;">
    <g>
        <path d="M263.9,208C283.3,223.7 316.8,225.8 332.8,215.6C316.9,208.6 300,203.9 282.7,201.7C275.8,201.4 269.1,203.6 263.9,208Z" style="fill:none;fill-rule:nonzero;"/>
        <path d="M373.3,104.5C368.5,82.8 356.1,63.6 338.3,50.4C307.7,26.5 263.6,31.8 239.6,62.4C234,69.6 229.8,77.8 227.3,86.6C219.3,113 220.7,141.4 231.3,166.9C236.3,180 244.3,191.9 254.5,201.6C260.4,190.7 270.9,183.1 283,180.8C292.4,178.8 302.2,179.4 311.3,182.6C325.7,187 340,191.9 354.2,196.8C356.9,197.7 358.5,197.5 359.9,195C363.5,189.4 366.8,183.6 369.7,177.5C378.6,154.1 379.9,128.5 373.3,104.5Z" style="fill:none;fill-rule:nonzero;"/>
        <path d="M263.9,208L263.9,208Z" style="fill:rgb(20,147,75);fill-rule:nonzero;"/>
        <path d="M447.7,206.7C445,208.3 442,209.5 438.9,210.2C425.1,213.4 410.7,213.2 397,209.7C389.9,208.2 382.8,206.1 375.1,204C376.5,202.3 377.3,201.3 378,200.3C382.6,194.3 386.8,188.1 390.7,181.6C402.3,160.1 406.5,135.4 402.6,111.3C400,85.1 386.6,61.2 365.6,45.3C336.6,23.6 304,18.9 269.5,28.4C238.6,35.9 213.6,58.5 203.1,88.5C193.2,114.5 193,143.1 202.4,169.3C208.8,189.8 222.5,207.3 240.8,218.5C274.9,238.8 310.5,238.9 346.5,223.5C349.1,222.1 352.2,221.9 355,222.9C371.7,229.2 389.1,233.3 406.8,235.1C423.3,236.8 439.8,231.7 452.4,220.9C454.1,219.7 455.4,218.1 456.6,216.5C453.1,213.3 450.1,210 447.7,206.7ZM263.9,208C269.1,203.6 275.9,201.4 282.7,201.7C300,203.9 316.8,208.6 332.8,215.6C316.8,225.8 283.3,223.7 263.9,208ZM359.9,194.9C358.5,197.3 356.9,197.6 354.2,196.7C340,191.8 325.7,186.9 311.3,182.5C302.2,179.4 292.5,178.7 283,180.7C270.9,183 260.4,190.6 254.5,201.5C244.3,191.8 236.4,180 231.3,166.8C220.7,141.3 219.2,112.9 227.3,86.5C229.8,77.7 234,69.5 239.6,62.3C263.5,31.7 307.7,26.4 338.3,50.3C356.1,63.5 368.5,82.7 373.3,104.4C379.9,128.5 378.7,154 369.7,177.3C366.7,183.4 363.5,189.3 359.9,194.9Z" style="fill:rgb(20,147,75);fill-rule:nonzero;"/>
    </g>
    <path id="Path_187" d="M434.9,162.1L434.9,52.6C434.9,40.9 433.6,39.6 421.9,39.6L414.5,39.6L414.5,28.2L486.4,28.2L486.4,39.2C485.4,39.3 484.3,39.5 483.2,39.5C479.8,39.6 476.4,39.5 472.9,39.6C461.7,39.8 459,42.6 459,53.6C459,89.8 458.9,126 459,162.3C459.1,190.3 474.4,209.7 501.4,215.6C518,219.3 535.3,218.8 551.8,214.3C570.1,210.4 583.4,194.7 584.4,176.1C585.4,167.3 585.9,158.5 586,149.7C586.2,117.6 586.1,85.5 586.1,53.4L586.1,50.9C585.8,42.6 583.7,40.3 575.3,39.8C570.1,39.5 564.8,39.7 559.2,39.7C559.2,36.3 559,33.2 559.3,30.1C559.7,29 560.6,28.2 561.8,28C579.6,27.9 597.4,27.9 615.5,27.9L615.5,39.3C612.8,39.4 610.1,39.5 607.4,39.7C603.5,39.6 600.2,42.7 600.1,46.6C599.9,49 599.7,51.4 599.7,53.8C599.7,90.5 599.9,127.1 599.5,163.7C599.3,172.8 598,181.8 595.5,190.6C591,209.6 576.4,224.5 557.6,229.5C528.4,238.4 497,236.6 469.2,224.2C434,209.3 434.9,162.1 434.9,162.1Z" style="fill:rgb(42,48,137);fill-rule:nonzero;"/>
    <path id="Path_188" d="M981.4,204C989.1,206 996.2,208.1 1003.3,209.7C1017,213.2 1031.4,213.4 1045.2,210.2C1050.8,208.9 1055.9,206.1 1060,202.1C1061,201.1 1063.4,199.9 1063.8,200.2C1065.1,201.4 1066,203 1066.2,204.7C1066.6,211 1063.8,217 1058.8,220.8C1046.2,231.6 1029.7,236.7 1013.2,235C995.5,233.2 978.1,229.1 961.4,222.8C958.6,221.8 955.6,222.1 952.9,223.4C916.9,238.9 881.4,238.7 847.2,218.4C828.9,207.2 815.2,189.7 808.8,169.2C799.4,143.1 799.6,114.4 809.5,88.4C820,58.4 845,35.8 875.9,28.3C910.4,18.8 943,23.6 972,45.2C993,61 1006.5,85 1009,111.2C1012.8,135.3 1008.6,160 997.1,181.5C993.2,187.9 988.9,194.2 984.4,200.2C983.6,201.3 982.8,202.2 981.4,204M860.9,201.4C866.8,190.5 877.3,182.9 889.4,180.6C898.8,178.6 908.6,179.2 917.7,182.4C932.1,186.8 946.4,191.7 960.6,196.6C963.3,197.5 964.9,197.3 966.3,194.8C969.9,189.2 973.2,183.4 976.1,177.3C985.1,154 986.4,128.4 979.7,104.4C974.9,82.7 962.5,63.5 944.7,50.3C914.1,26.4 870,31.7 846,62.3C840.4,69.5 836.2,77.7 833.7,86.5C825.7,112.9 827.1,141.3 837.7,166.8C842.7,179.9 850.6,191.8 860.9,201.4M870.2,208C889.6,223.7 923.1,225.8 939.1,215.6C923.2,208.6 906.3,203.9 889,201.7C882.1,201.4 875.4,203.6 870.2,208" style="fill:rgb(20,147,75);fill-rule:nonzero;"/>
    <path id="Path_191" d="M739.7,229.2C739,218.2 739,218.2 749.2,218C751.7,217.9 754.3,217.9 756.9,217.7C761.7,217.3 763.1,215.4 761.4,210.9C758.3,202.8 755.1,194.7 751.8,186.7C747.2,175.4 742.5,164.1 738,152.7C737.5,150.6 735.4,149.2 733.3,149.5C712.1,149.6 690.8,149.5 669.6,149.6C667.9,149.6 666.3,150.4 665.3,151.8C656.9,170.3 648.7,189 640.5,207.6C640,208.6 639.7,209.7 639.4,210.8C638.5,215 640.2,217.4 644.6,217.7C649.7,218 654.9,218.1 660,218C663.2,217.9 664.4,219.1 664,222.2C663.9,224.5 663.9,226.8 664,229.2L606.1,229.2C605.9,225.7 605.6,222.3 605.3,218.4C607.1,218.1 609,218 610.8,217.9C616.3,218.5 621.4,215.3 623.3,210.1C627.5,201.1 631.7,192 635.8,183C659.7,130.5 683,77.8 704.3,24.2C704.8,21.9 706.8,20.4 709.1,20.6C712.1,20.5 712.6,22.4 713.4,24.4C737.1,82.9 760.9,141.5 784.7,200C786.1,203.6 787.9,207 789.7,210.4C791.8,215.3 796.8,218.3 802.1,217.9C804.1,217.9 806,218 808,218.3L808,229.2L739.7,229.2ZM703.1,65.4L702,65.4L671.9,136.2L731.6,136.2L703.1,65.4" style="fill:rgb(42,48,137);fill-rule:nonzero;"/>
    <path id="Path_192" d="M464,359C465.3,362.8 464.5,364.5 460.6,364.4C454,364.2 447.5,364.2 440.9,364.4C437.3,364.5 435.7,363.4 437,359.1C443.9,360.4 445.5,354.8 447.6,350.1C459.8,322.1 472,294 484.2,266C485,264.6 485.9,263.3 487,262.1C488.2,263.3 489.2,264.7 490.1,266.2C501.4,293.7 512.6,321.2 523.7,348.8C524.1,349.7 524.5,350.6 524.9,351.5C526.9,356 529,360.3 535.1,358.9C536.2,362.6 535.8,364.5 531.7,364.4C523.3,364.2 514.9,364.3 506.5,364.4C502.8,364.4 501.7,362.9 503.1,359L509.8,359C513,359 514.3,357.8 513,354.5C509.3,345.4 505.7,336.3 501.9,327.3C501.1,326 499.6,325.1 498.1,324.9C488.4,324.7 478.7,324.7 469,324.9C467.4,325 466,325.9 465.1,327.2C461.1,335.7 457.2,344.3 453.6,352.9C451.6,357.7 452.6,359 457.9,359.1C459.9,359 462,359 464,359M498.6,318.6L484.6,283.7L483.5,283.8L468.7,318.6L498.6,318.6Z" style="fill:rgb(20,147,75);fill-rule:nonzero;"/>
    <path id="Path_193" d="M580,364.4C578.7,360.7 580.3,359.9 582.9,360.1C585.8,360.3 587.7,359.1 587.7,356.1C587.6,344.7 587.7,333.3 587.2,321.9C587.5,317.7 584.3,313.9 580.1,313.6C579.2,313.5 578.3,313.6 577.4,313.9C572.7,314.7 568,315.9 563.5,317.7C562.2,318.5 561.3,320 561.2,321.6C561,332.7 561.2,343.8 561.1,355C561.1,358.6 562.5,360.1 566.2,360.2C568.2,360.3 571.8,361.5 571.7,362C571.4,366.1 568,364.4 565.7,364.5C559.6,364.7 553.4,364.7 547.3,364.5C546,364.5 544.8,363.2 543.5,362.5C544.6,361.8 545.8,360.4 546.9,360.4C550.6,360.4 551.4,358.5 551.4,355.2C551.3,343.1 551.4,331 551.3,318.8C551.3,311.4 551.2,311.4 543.2,311.4C544.2,310.4 544.9,308.8 546.1,308.5C550.9,307.2 555.8,306.4 561,305.3L561,315.8C562.5,314.7 564.1,313.7 565.7,312.8C570,310.4 574.6,308.4 579.2,306.9C589.8,304.2 596.6,309.3 597,320.3C597.4,331.1 597.2,342 597.3,352.8C597.4,359.2 597.6,359.3 603.8,360.3C604.8,360.5 605.6,361.6 606.4,362.3C605.5,363.1 604.6,364.5 603.6,364.5C595.8,364.4 588,364.4 580,364.4" style="fill:rgb(20,147,75);fill-rule:nonzero;"/>
    <path id="Path_194" d="M741,346.6C745.6,336 750.2,325.6 754.6,315.2C755.7,312.5 754.6,310.8 751.5,310.7L747,310.7C745.8,307.8 746.6,306.6 749.4,306.7C755.2,306.8 761.1,306.8 766.9,306.7C769.6,306.7 770.5,307.8 769.4,310.8C762,308.8 760.4,314.4 758.1,319.4C749,339.5 740,359.6 730.6,379.5C727.6,385.6 724.1,391.5 720.1,397C718.1,399.5 715.4,401.5 712.3,402.5C710,402.9 707.7,402.2 706,400.6C704.7,398.7 704.4,396.2 705.1,394C706.3,392.1 708.4,390.9 710.7,390.9C714.6,391.4 718.5,389.3 720.2,385.8C725,377.6 729.7,369.3 734.2,360.9C734.7,359.5 734.6,358 734,356.6C727.7,342.8 721.1,329 714.9,315.1C713.2,311.2 710.4,310.3 705.2,310.7C706.4,308.9 707.1,306.9 707.9,306.9C716.3,306.7 724.6,306.8 732.9,306.8C733.8,309.9 732.7,310.7 730,310.8C725.5,310.9 724.6,312.1 726.2,315.9C730.4,325.8 734.9,335.7 739.4,345.5C739.8,345.7 740.2,346 741,346.6" style="fill:rgb(20,147,75);fill-rule:nonzero;"/>
    <path id="Path_195" d="M665,360.4C662.1,362.4 659,364.2 655.9,365.9C655,366.3 653.1,365.5 652.3,364.7C649.7,362.3 647.4,359.6 644.7,356.7C643.4,357.9 642.3,359.1 641,360.1C635.6,365.5 627.5,367.2 620.4,364.4C615.3,362.6 612.5,357.1 614.2,351.9C616.9,340.9 625.1,336.1 635.1,333.4C637.9,332.8 640.7,332.4 643.6,332.1C643.6,327.7 643.9,323.2 643.5,318.7C643.1,316.8 642,315 640.4,313.9C634.8,311.3 628.2,311.7 623,315.1C622.2,316.3 621.7,317.7 621.7,319.1C621.6,320.2 622.6,321.6 622.3,322.4C621.5,324.1 620.4,326.2 618.9,326.8C616.4,327.8 615.5,325.6 615.4,323.4C615.2,319.2 617.2,315.1 620.6,312.6C627.3,307 636.1,304.7 644.6,306.5C650.1,307 654.2,312 653.7,317.5L653.7,317.6C653.8,326.4 653.9,335.3 653.7,344.1C653.5,351.7 655.7,357.3 663.6,359.4C664,359.6 664.5,360 665,360.4M643.6,336.1C635.8,335.2 628.2,339.3 624.6,346.3C622.4,350.2 623.7,355.1 627.6,357.3C628,357.5 628.5,357.8 628.9,357.9C635.3,360 642.8,357.3 643.5,352.1C643.8,346.8 643.8,341.5 643.6,336.1" style="fill:rgb(20,147,75);fill-rule:nonzero;"/>
    <path id="Path_196" d="M669.6,264L669.6,260L690.3,256.9L690.3,353.5C690.3,359.3 690.8,359.6 696.6,360.1C698.5,360.2 702,358.6 702.1,362.1C702.2,366 698.5,364.3 696.5,364.3C689.2,364.5 682,364.5 674.7,364.3C673.4,364.3 672.1,363 670.8,362.3C672.1,361.6 673.3,360.3 674.6,360.2C680.1,359.6 680.5,359.4 680.5,353.6L680.5,270.3C680.5,262.8 680.4,262.7 673.2,263.7C672.1,263.8 671,263.9 669.6,264" style="fill:rgb(20,147,75);fill-rule:nonzero;"/>
    <path id="Path_197" d="M924.1,343.4C925.1,344.2 926.1,345 927,345.9C927.4,346.4 927.3,347.3 927.4,347.9C928,351.1 926.8,355 930.4,357.1C935.5,360.8 942,362.3 948.2,361.1C952.7,359.6 955.2,354.7 953.6,350.1C953.1,348.7 952.3,347.5 951.2,346.5C947.3,342.7 942.2,340.1 938.1,336.4C934.1,333.5 930.8,329.8 928.3,325.5C924.1,316.2 931.8,306.3 943.1,306C947.2,306.1 951.3,306.7 955.2,307.7C957.3,308.1 959.1,309 959.5,305.8C959.6,305.2 961,304.4 961.8,304.3C962.3,304.3 963.3,305.5 963.4,306.2C963.5,312 963.6,317.9 963.4,323.7C963.4,324.6 961.6,325.5 960.7,326.3L959.5,325.5C959.4,323.8 959.4,322.2 959.6,320.5C960.6,315.4 957.6,313.1 953.4,311.9C950.5,311.1 947.6,310.6 944.6,310.6C941.2,310.4 938.1,312.4 936.8,315.6C935.5,318.8 936.6,322.4 939.5,324.3C943.2,327.2 947.2,329.7 951,332.4C953.6,334.3 956.3,336.2 958.8,338.4C963.3,341.9 965.3,347.8 963.8,353.3C962.7,359.4 957.7,364.1 951.6,365C946.1,365.4 940.6,365.4 935.1,364.8C932.7,364.7 929.7,362.6 928.6,366.9C928.5,367.3 927.1,367.6 926.4,367.5C926,367.4 925.4,366.6 925.3,366C924.5,358.7 923.7,351.4 923,344L924.1,343.4" style="fill:rgb(20,147,75);fill-rule:nonzero;"/>
    <path id="Path_198" d="M915.6,355.7C914.9,356.7 914.1,357.6 913.3,358.5C902.8,366.6 888.8,368.4 876.6,363.1C868.6,358.7 863.7,350.4 863.8,341.3C862.6,331.5 865.5,321.7 871.6,314.1C882.8,300.4 902.7,304.7 911.3,312.2C913.5,314.1 913.4,315.9 910.7,317.1C907.2,319.3 902.7,319.1 899.5,316.5C898.3,315.5 897,314.5 895.8,313.6C891.1,309.2 883.7,309.4 879.3,314.1C878.2,315.3 877.3,316.8 876.8,318.3C873.1,326 872.4,334.7 874.9,342.9C877.4,352.1 886,358.3 895.5,357.8C900.9,357.4 906.2,356.6 911.5,355.4C912.7,355.1 913.9,354.8 915,354.5L915.6,355.7" style="fill:rgb(20,147,75);fill-rule:nonzero;"/>
    <path id="Path_199" d="M795.6,314C795.6,326.6 795.5,338.4 795.7,350.2C795.7,354.5 799.1,358 803.4,358L804.2,358C808.7,357.7 813.1,357 817.5,356.1C816.8,357.5 816,358.9 814.9,360.1C809.6,364.8 802.3,366.7 795.4,365.2C789.3,363.6 785.3,357.9 785.9,351.7C785.8,341 785.8,330.3 785.8,319.6L785.8,314.3L776.3,313.6L794.4,292.4L795.6,292.6C795.6,296.2 795.8,299.7 795.5,303.3C795.3,306.6 796.3,307.9 799.8,307.7C804.9,307.4 810,307.6 815,307.6C815.3,313.8 815.2,314 809.7,314L795.6,314" style="fill:rgb(20,147,75);fill-rule:nonzero;"/>
    <path id="Path_200" d="M824.3,312.2C824.9,310.9 825.7,309.7 826.6,308.6C827.3,308 828.5,308.2 829.5,308L844.6,304.9C844.8,306.8 845,308.5 845,310.1C845,324.8 845.1,339.5 845,354.2C844.9,358.3 846.1,360.2 850.5,360.2C852.6,360.3 854.6,361 856.4,362.1C855.8,366 852.5,364.2 850.3,364.3C843.2,364.6 836,364.5 828.9,364.3C827.7,364.3 826.4,362.9 825.2,362.2C826.3,361.5 827.4,360.3 828.6,360.2C835.4,359.6 835.4,359.6 835.4,352.8L835.4,319C835.4,311.2 835.1,310.9 827.3,312.3C826.2,312.3 825.3,312.3 824.3,312.2" style="fill:rgb(20,147,75);fill-rule:nonzero;"/>
    <path id="Path_201" d="M841.3,284C839.1,280.5 836.3,278.1 836.4,275.9C836.5,273.9 839.8,272.1 841.6,270.1C843.6,272.1 847.1,274.1 847.2,276.2C847.3,278.3 844.1,280.6 841.3,284" style="fill:rgb(20,147,75);fill-rule:nonzero;"/>
    <path id="Path_202" d="M149.2,229.2C148.5,218.2 148.5,218.2 158.7,218C161.2,217.9 163.8,217.9 166.4,217.7C171.2,217.3 172.6,215.4 170.9,210.9C167.8,202.8 164.6,194.7 161.3,186.7C156.7,175.4 152,164.1 147.5,152.7C147,150.6 144.9,149.2 142.8,149.5C121.6,149.6 100.3,149.5 79.1,149.6C77.4,149.6 75.8,150.4 74.8,151.8C66.4,170.3 58.2,189 50,207.6C49.5,208.6 49.2,209.7 48.9,210.8C48,215 49.7,217.4 54.1,217.7C59.2,218 64.4,218.1 69.5,218C72.7,217.9 73.9,219.1 73.5,222.2C73.4,224.5 73.4,226.8 73.5,229.2L15.5,229.2C15.3,225.7 15,222.3 14.7,218.4C16.5,218.1 18.4,218 20.2,217.9C25.7,218.5 30.8,215.3 32.7,210.1C36.9,201.1 41.1,192 45.2,183C69.1,130.5 92.4,77.8 113.7,24.2C114.2,21.9 116.2,20.4 118.5,20.6C121.5,20.5 122,22.4 122.8,24.4C146.5,82.9 170.3,141.5 194.1,200C195.5,203.6 197.3,207 199.1,210.4C201.2,215.3 206.2,218.3 211.5,217.9C213.5,217.9 215.4,218 217.4,218.3L217.4,229.2L149.2,229.2ZM112.7,65.4L111.6,65.4L81.5,136.2L141.2,136.2L112.7,65.4" style="fill:rgb(42,48,137);fill-rule:nonzero;"/>
</svg>
