<svg id="Layer_1" data-name="Layer 1" xmlns="http://www.w3.org/2000/svg" viewBox="0 0 100 75"><defs><style>.cls-1{fill:#f90;fill-rule:evenodd;}</style></defs><path class="cls-1" d="M48.55,65.74,36,61.24V42.85l12.55,4.27Zm2.29,0,12.55-4.5V42.85L50.84,47.13ZM37.3,41.47,50,37.89l11.78,3.8L50,45.69Zm-3.68-1.41L21.06,35.55V17.13L33.61,21.4Zm2.29,0,12.55-4.5V17.13l-12.55,4.3ZM22.37,15.79,35,12.2,46.81,16,35,20ZM62.92,40.06l-12.55-4.5V17.13L62.92,21.4Zm2.28,0,12.55-4.5V17.13L65.2,21.4ZM51.66,15.79l12.66-3.58L76.1,16,64.32,20Z"/></svg>