<svg id="Layer_1" data-name="Layer 1" xmlns="http://www.w3.org/2000/svg" xmlns:xlink="http://www.w3.org/1999/xlink" viewBox="0 0 100 75"><defs><style>.cls-1{fill:url(#linear-gradient);}.cls-2{fill:url(#linear-gradient-2);}.cls-3{fill:#181f4d;}</style><linearGradient id="linear-gradient" x1="66.05" y1="34.39" x2="73.94" y2="13.17" gradientUnits="userSpaceOnUse"><stop offset="0" stop-color="#168cd4"/><stop offset="0.81" stop-color="#1c1b54"/></linearGradient><linearGradient id="linear-gradient-2" x1="27.87" y1="66.24" x2="41.58" y2="29.35" xlink:href="#linear-gradient"/></defs><path id="path4321" class="cls-1" d="M80.76,17,78.05,12.1a1.22,1.22,0,0,0-.65-.89,1.62,1.62,0,0,0-1.59.16l-7.93,5a3.41,3.41,0,0,0-1.35,1.34L55.15,39.39,62.8,51.55s.09-.12.23-.28L80.71,19.22A2.48,2.48,0,0,0,80.76,17Z"/><path id="path4323" class="cls-2" d="M49.49,33.16l-.32-.57-.1-.12c0-.08-.14-.16-.18-.24a1.68,1.68,0,0,0-1.16-.49H37.46a1.61,1.61,0,0,0-1.45.89L20.35,61.44a1.59,1.59,0,0,0,0,1.58,1.7,1.7,0,0,0,1.35.85h10a2.47,2.47,0,0,0,2.09-1l9.2-17.34,6.41-12.07Z"/><path id="path4325" class="cls-3" d="M61.44,52.49l-11-18.14-.09.16h0L43.9,46.71l2.34,4.15a3,3,0,0,0,2.42,1.22H50.9l10.54.41h0Z"/></svg>