<svg id="Layer_1" data-name="Layer 1" xmlns="http://www.w3.org/2000/svg" xmlns:xlink="http://www.w3.org/1999/xlink" viewBox="0 0 100 75"><defs><style>.cls-1{fill:#fff;}.cls-2{fill-opacity:0.1;}.cls-3{fill:url(#linear-gradient);}.cls-4{fill:url(#linear-gradient-2);}.cls-5{fill:url(#linear-gradient-3);}.cls-6{fill:url(#linear-gradient-4);}.cls-7{fill:url(#linear-gradient-5);}.cls-8{fill:url(#linear-gradient-6);}.cls-9{fill:url(#linear-gradient-7);}</style><linearGradient id="linear-gradient" x1="-25.03" y1="-3047.42" x2="-25.03" y2="-3076.1" gradientTransform="matrix(0.68, 0, 0, -0.68, 66.56, -2034.94)" gradientUnits="userSpaceOnUse"><stop offset="0" stop-color="#81b4e0"/><stop offset="1" stop-color="#0c5a94"/></linearGradient><linearGradient id="linear-gradient-2" x1="-23.81" y1="-3022.59" x2="-23.81" y2="-3054.42" gradientTransform="matrix(0.68, 0, 0, -0.68, 66.56, -2034.94)" gradientUnits="userSpaceOnUse"><stop offset="0" stop-color="#f06b59"/><stop offset="1" stop-color="#df2227"/></linearGradient><linearGradient id="linear-gradient-3" x1="-54.67" y1="-3089.61" x2="-38.58" y2="-3063.03" gradientTransform="matrix(0.68, 0, 0, -0.68, 66.56, -2034.94)" gradientUnits="userSpaceOnUse"><stop offset="0" stop-color="#388b41"/><stop offset="1" stop-color="#4cb749"/></linearGradient><linearGradient id="linear-gradient-4" x1="-0.77" y1="-3092.43" x2="-17.91" y2="-3051.16" gradientTransform="matrix(0.68, 0, 0, -0.68, 66.56, -2034.94)" gradientUnits="userSpaceOnUse"><stop offset="0" stop-color="#e4b022"/><stop offset="0.3" stop-color="#fcd209"/></linearGradient><linearGradient id="linear-gradient-5" x1="-49.34" y1="-3065.96" x2="-49.34" y2="-3037.98" gradientTransform="matrix(0.68, 0, 0, -0.68, 66.56, -2034.94)" gradientUnits="userSpaceOnUse"><stop offset="0" stop-opacity="0.15"/><stop offset="0.3" stop-opacity="0.06"/><stop offset="1" stop-opacity="0.03"/></linearGradient><linearGradient id="linear-gradient-6" x1="-10.72" y1="-3075" x2="-29.95" y2="-3094.58" xlink:href="#linear-gradient-5"/><linearGradient id="linear-gradient-7" x1="-10.99" y1="-3080.63" x2="-8.19" y2="-3053" xlink:href="#linear-gradient-5"/></defs><circle class="cls-1" cx="49.62" cy="37.42" r="26.04"/><path class="cls-2" d="M66.19,42.16a16.57,16.57,0,1,0-33.14,0h4.73a11.84,11.84,0,1,1,23.67,0"/><circle class="cls-2" cx="50.8" cy="40.73" r="9"/><circle class="cls-3" cx="49.62" cy="37.42" r="9.71"/><path class="cls-4" d="M73.29,25.58A26.51,26.51,0,0,0,27.6,22.51L38.25,41A11.85,11.85,0,0,1,49.38,25.58"/><path class="cls-5" d="M27.6,22.51A26.52,26.52,0,0,0,47.49,63.7l11.13-19A11.84,11.84,0,0,1,38.26,41"/><path class="cls-6" d="M47.49,63.7a26.52,26.52,0,0,0,25.8-38.12H49.39a11.84,11.84,0,0,1,9.23,19.18"/><path class="cls-7" d="M27.6,22.51,38.25,41a11.92,11.92,0,0,1,.48-8L28.07,21.8"/><path class="cls-8" d="M47.49,63.7l11.13-19a11.83,11.83,0,0,1-6.87,4L47,63.69"/><path class="cls-9" d="M73.29,25.58H49.39a11.84,11.84,0,0,1,9.23,4.5l15.15-3.79"/></svg>