<?xml version="1.0" encoding="UTF-8"?>
<svg xmlns="http://www.w3.org/2000/svg" xmlns:xlink="http://www.w3.org/1999/xlink" width="100px" height="75px" viewBox="0 0 100 75" version="1.1">
<g id="surface1">
<path style=" stroke:none;fill-rule:nonzero;fill:rgb(100%,100%,100%);fill-opacity:1;" d="M 64.5 75.375 C 43 75.375 21.75 75.375 0.5 75.375 C 0.5 50.375 0.5 25.375 0.5 0.375 C 33.832031 0.375 67.167969 0.375 100.5 0.375 C 100.5 25.375 100.5 50.375 100.5 75.375 C 88.582031 75.375 76.667969 75.375 64.5 75.375 M 78.871094 30.546875 C 78.578125 30.582031 78.28125 30.613281 77.660156 30.679688 C 77.441406 30.667969 77.222656 30.660156 76.667969 30.472656 C 71.136719 30.4375 65.605469 30.402344 60.039062 30.183594 C 60.039062 30.183594 60.070312 30 60.339844 29.765625 C 60.394531 25.691406 60.476562 21.617188 60.460938 17.546875 C 60.460938 17.195312 59.835938 16.84375 59.425781 16.21875 C 58.429688 16.226562 57.433594 16.230469 55.976562 16.214844 C 45.683594 16.226562 35.390625 16.234375 24.683594 16.15625 C 23.769531 16.269531 22.859375 16.382812 21.621094 16.527344 C 20.09375 17.039062 20.386719 17.539062 21.601562 18.382812 C 21.621094 27.125 21.644531 35.871094 21.601562 44.792969 C 21.667969 44.917969 21.785156 44.996094 22.003906 45.222656 C 22.027344 45.285156 22.050781 45.347656 21.921875 45.632812 C 21.824219 46.03125 21.730469 46.429688 21.566406 47.0625 C 21.589844 47.144531 21.617188 47.222656 21.589844 47.644531 C 21.605469 51 21.625 54.355469 21.320312 57.867188 C 21.210938 58.328125 21.105469 58.789062 21.171875 59.492188 C 22.136719 59.503906 23.105469 59.515625 24.527344 59.554688 C 30.160156 59.503906 35.789062 59.449219 41.878906 59.488281 C 46.699219 59.445312 51.515625 59.414062 56.335938 59.359375 C 57.535156 59.347656 58.730469 59.269531 60.128906 59.199219 C 60.175781 59.164062 60.273438 59.113281 60.265625 59.097656 C 60.214844 59.011719 60.140625 58.9375 59.96875 58.859375 C 59.96875 58.859375 59.867188 58.878906 60.023438 58.558594 C 60.0625 57.425781 60.097656 56.296875 60.367188 54.902344 C 60.582031 51.730469 60.792969 48.558594 61.359375 45.378906 C 61.910156 45.285156 62.457031 45.191406 63.402344 45.066406 C 63.933594 45.074219 64.464844 45.085938 65.332031 45.277344 C 69.722656 45.214844 74.109375 45.152344 78.761719 45 C 78.820312 44.875 78.878906 44.75 78.984375 44.347656 C 79.058594 43.8125 79.128906 43.277344 79.339844 42.410156 C 79.296875 40.902344 79.253906 39.390625 79.335938 37.546875 C 79.289062 36.03125 79.242188 34.511719 79.332031 32.746094 C 79.328125 32.476562 79.324219 32.207031 79.441406 31.679688 C 79.289062 31.375 79.136719 31.070312 78.996094 30.730469 C 78.996094 30.730469 79.023438 30.699219 78.871094 30.546875 Z M 78.871094 30.546875 "/>
<path style=" stroke:none;fill-rule:nonzero;fill:rgb(39.607843%,76.862745%,84.705882%);fill-opacity:1;" d="M 25.097656 16.246094 C 35.390625 16.234375 45.683594 16.226562 56.335938 16.3125 C 57.460938 16.585938 58.226562 16.761719 58.996094 17.09375 C 59.160156 21.351562 59.335938 25.453125 59.46875 29.558594 C 59.476562 29.828125 59.164062 30.105469 58.761719 30.375 C 53.539062 30.371094 48.550781 30.351562 43.5625 30.390625 C 42.714844 30.394531 41.867188 30.652344 41.003906 30.875 C 40.984375 30.960938 40.929688 31.128906 40.796875 31.242188 C 40.738281 33.03125 40.816406 34.703125 40.914062 36.550781 C 40.921875 38.609375 40.90625 40.488281 40.777344 42.476562 C 40.605469 43.140625 40.550781 43.695312 40.492188 44.332031 C 40.488281 44.414062 40.472656 44.578125 40.242188 44.589844 C 34.339844 44.601562 28.671875 44.601562 23 44.441406 C 23.167969 41.3125 23.492188 38.351562 23.464844 35.386719 C 23.417969 29.691406 23.152344 23.996094 23.058594 18.300781 C 23.050781 17.839844 23.671875 17.375 24.121094 16.898438 C 24.242188 16.886719 24.480469 16.871094 24.589844 16.835938 C 24.839844 16.738281 24.941406 16.648438 25.03125 16.464844 C 25.054688 16.390625 25.097656 16.246094 25.097656 16.246094 Z M 25.097656 16.246094 "/>
<path style=" stroke:none;fill-rule:nonzero;fill:rgb(61.960784%,80.392157%,43.529412%);fill-opacity:1;" d="M 59.929688 59.222656 C 58.730469 59.269531 57.535156 59.347656 56.335938 59.359375 C 51.515625 59.414062 46.699219 59.445312 41.648438 59.40625 C 41.417969 59.324219 41.410156 59.25 41.386719 59.164062 C 41.277344 58.976562 41.15625 58.910156 40.988281 58.726562 C 40.941406 58.164062 40.902344 57.757812 40.902344 57.355469 C 40.945312 57.359375 41.023438 57.382812 41.210938 57.375 C 41.753906 57.105469 42.105469 56.839844 42.457031 56.574219 C 41.976562 56.339844 41.496094 56.109375 41 55.75 C 40.972656 55.460938 40.960938 55.296875 40.976562 55.035156 C 41.011719 54.878906 41.019531 54.816406 41.171875 54.636719 C 41.367188 52.214844 41.421875 49.90625 41.472656 47.460938 C 41.46875 47.050781 41.46875 46.777344 41.617188 46.492188 C 41.84375 46.238281 41.921875 45.992188 42 45.660156 C 42 45.566406 42.003906 45.382812 42.007812 45.304688 C 42.015625 45.226562 42.027344 45.066406 42.210938 45.050781 C 42.761719 45.011719 43.128906 44.988281 43.664062 44.992188 C 44.054688 45 44.28125 44.980469 44.738281 44.984375 C 48.804688 45.03125 52.640625 45.054688 56.515625 45.203125 C 57.519531 45.601562 58.480469 45.867188 59.460938 46.292969 C 59.492188 47.082031 59.507812 47.714844 59.511719 48.523438 C 59.394531 51.652344 59.253906 54.597656 59.207031 57.546875 C 59.203125 57.992188 59.636719 58.4375 59.867188 58.878906 C 59.867188 58.878906 59.96875 58.859375 59.957031 58.941406 C 59.941406 59.09375 59.933594 59.15625 59.929688 59.222656 Z M 59.929688 59.222656 "/>
<path style=" stroke:none;fill-rule:nonzero;fill:rgb(93.333333%,36.862745%,50.980392%);fill-opacity:1;" d="M 79.191406 32.996094 C 79.242188 34.511719 79.289062 36.03125 79.109375 37.769531 C 78.984375 39.578125 79.09375 41.160156 79.199219 42.742188 C 79.128906 43.277344 79.058594 43.8125 78.742188 44.484375 C 77.167969 44.621094 75.835938 44.617188 74.5 44.484375 C 74.3125 44.132812 74.132812 43.90625 73.949219 43.683594 C 73.796875 43.992188 73.644531 44.304688 73.261719 44.617188 C 68.851562 44.621094 64.675781 44.621094 60.5 44.53125 C 60.5 44.4375 60.5 44.25 60.503906 44.074219 C 60.507812 40.265625 60.511719 36.628906 60.648438 32.910156 C 60.855469 32.382812 60.929688 31.941406 61.148438 31.390625 C 67.175781 31.230469 73.0625 31.183594 78.960938 31.261719 C 78.964844 31.550781 78.949219 31.714844 78.828125 31.953125 C 78.875 32.347656 79.035156 32.671875 79.191406 32.996094 Z M 79.191406 32.996094 "/>
<path style=" stroke:none;fill-rule:nonzero;fill:rgb(98.431373%,83.137255%,35.686275%);fill-opacity:1;" d="M 40.953125 55.128906 C 40.960938 55.296875 40.972656 55.460938 40.984375 55.902344 C 40.996094 56.578125 41.011719 56.980469 41.023438 57.382812 C 41.023438 57.382812 40.945312 57.359375 40.683594 57.363281 C 37.109375 57.371094 33.796875 57.355469 30.484375 57.382812 C 28.136719 57.398438 25.558594 56.90625 23.828125 58.875 C 23.417969 58.882812 23.183594 58.886719 22.839844 58.882812 C 22.734375 58.871094 22.519531 58.84375 22.457031 58.742188 C 22.144531 58.332031 21.894531 58.023438 21.644531 57.710938 C 21.625 54.355469 21.605469 51 21.726562 47.453125 C 21.984375 47.195312 22.097656 47.128906 22.214844 47.058594 C 22.023438 46.980469 21.828125 46.902344 21.632812 46.824219 C 21.730469 46.429688 21.824219 46.03125 22.226562 45.515625 C 28.339844 45.410156 34.152344 45.421875 39.976562 45.546875 C 39.992188 45.816406 39.996094 45.972656 40.003906 46.289062 C 40.164062 48.457031 40.304688 50.464844 40.503906 52.472656 C 40.59375 53.359375 40.800781 54.246094 40.953125 55.128906 Z M 40.953125 55.128906 "/>
<path style=" stroke:none;fill-rule:nonzero;fill:rgb(41.176471%,76.470588%,83.529412%);fill-opacity:1;" d="M 24.003906 16.910156 C 23.671875 17.375 23.050781 17.839844 23.058594 18.300781 C 23.152344 23.996094 23.417969 29.691406 23.464844 35.386719 C 23.492188 38.351562 23.167969 41.3125 22.835938 44.449219 C 22.332031 44.617188 21.996094 44.617188 21.664062 44.617188 C 21.644531 35.871094 21.621094 27.125 21.734375 18.125 C 21.929688 17.546875 21.992188 17.226562 22.25 16.894531 C 22.964844 16.894531 23.484375 16.902344 24.003906 16.910156 Z M 24.003906 16.910156 "/>
<path style=" stroke:none;fill-rule:nonzero;fill:rgb(98.039216%,83.137255%,37.254902%);fill-opacity:1;" d="M 24.003906 58.875 C 25.558594 56.90625 28.136719 57.398438 30.484375 57.382812 C 33.796875 57.355469 37.109375 57.371094 40.644531 57.359375 C 40.902344 57.757812 40.941406 58.164062 41.023438 58.808594 C 41.140625 59.148438 41.257812 59.214844 41.410156 59.25 C 41.410156 59.25 41.417969 59.324219 41.417969 59.359375 C 35.789062 59.449219 30.160156 59.503906 24.292969 59.464844 C 24.054688 59.378906 24.011719 59.230469 24.007812 59.140625 C 24.003906 59.050781 24.003906 58.875 24.003906 58.875 Z M 24.003906 58.875 "/>
<path style=" stroke:none;fill-rule:nonzero;fill:rgb(48.627451%,72.941176%,78.823529%);fill-opacity:1;" d="M 58.996094 30.378906 C 59.164062 30.105469 59.476562 29.828125 59.46875 29.558594 C 59.335938 25.453125 59.160156 21.351562 59.117188 17.0625 C 59.320312 16.855469 59.402344 16.832031 59.644531 16.921875 C 59.894531 21.355469 59.984375 25.675781 60.070312 30 C 60.070312 30 60.039062 30.183594 60.027344 30.375 C 60.007812 30.632812 60.003906 30.699219 59.992188 30.757812 C 59.988281 30.746094 60.015625 30.734375 59.839844 30.742188 C 59.425781 30.769531 59.1875 30.789062 58.980469 30.78125 C 59.007812 30.757812 59.035156 30.691406 59.023438 30.613281 C 59.007812 30.535156 58.996094 30.378906 58.996094 30.378906 Z M 58.996094 30.378906 "/>
<path style=" stroke:none;fill-rule:nonzero;fill:rgb(81.960784%,42.352941%,52.54902%);fill-opacity:1;" d="M 78.945312 31.136719 C 73.0625 31.183594 67.175781 31.230469 60.992188 31.390625 C 60.488281 31.503906 60.28125 31.503906 60.042969 31.375 C 60.015625 31.078125 60.015625 30.90625 60.015625 30.734375 C 60.015625 30.734375 59.988281 30.746094 60.226562 30.753906 C 65.976562 30.722656 71.488281 30.6875 77 30.648438 C 77.222656 30.660156 77.441406 30.667969 77.992188 30.699219 C 78.558594 30.714844 78.789062 30.707031 79.023438 30.699219 C 79.023438 30.699219 78.996094 30.730469 78.984375 30.839844 C 78.976562 30.949219 78.945312 31.136719 78.945312 31.136719 Z M 78.945312 31.136719 "/>
<path style=" stroke:none;fill-rule:nonzero;fill:rgb(89.411765%,98.039216%,80.784314%);fill-opacity:1;" d="M 59.519531 48.34375 C 59.507812 47.714844 59.492188 47.082031 59.488281 46.179688 C 59.664062 45.726562 59.828125 45.546875 60.160156 45.367188 C 60.554688 45.375 60.78125 45.382812 61.007812 45.386719 C 60.792969 48.558594 60.582031 51.730469 60.203125 54.855469 C 59.863281 52.65625 59.691406 50.5 59.519531 48.34375 Z M 59.519531 48.34375 "/>
<path style=" stroke:none;fill-rule:nonzero;fill:rgb(81.960784%,42.352941%,52.54902%);fill-opacity:1;" d="M 74.503906 44.613281 C 75.835938 44.617188 77.167969 44.621094 78.714844 44.621094 C 78.878906 44.75 78.820312 44.875 78.402344 45.011719 C 73.691406 45.046875 69.34375 45.074219 64.996094 45.097656 C 64.464844 45.085938 63.933594 45.074219 62.992188 45.046875 C 61.722656 45.011719 60.859375 44.996094 59.996094 44.992188 C 59.996094 45.003906 60.023438 45.011719 60.023438 44.910156 C 60.042969 44.746094 60.0625 44.683594 60.1875 44.621094 C 60.289062 44.625 60.5 44.625 60.5 44.625 C 64.675781 44.621094 68.851562 44.621094 73.429688 44.621094 C 74.054688 44.617188 74.28125 44.617188 74.503906 44.613281 Z M 74.503906 44.613281 "/>
<path style=" stroke:none;fill-rule:nonzero;fill:rgb(53.333333%,73.333333%,65.490196%);fill-opacity:1;" d="M 21.632812 44.707031 C 21.996094 44.617188 22.332031 44.617188 22.835938 44.613281 C 28.671875 44.601562 34.339844 44.601562 40.257812 44.609375 C 40.503906 44.617188 40.539062 44.652344 40.527344 44.738281 C 40.511719 44.820312 40.503906 44.988281 40.5 44.992188 C 40.5 44.996094 40.488281 44.992188 40.253906 44.996094 C 34 45.007812 27.976562 45.019531 21.953125 45.03125 C 21.785156 44.996094 21.667969 44.917969 21.632812 44.707031 Z M 21.632812 44.707031 "/>
<path style=" stroke:none;fill-rule:nonzero;fill:rgb(77.254902%,84.313725%,62.352941%);fill-opacity:1;" d="M 21.980469 45.125 C 27.976562 45.019531 34 45.007812 40.261719 45.089844 C 40.503906 45.246094 40.507812 45.3125 40.503906 45.378906 C 40.496094 45.378906 40.484375 45.390625 40.351562 45.394531 C 40.136719 45.410156 40.050781 45.421875 39.964844 45.433594 C 34.152344 45.421875 28.339844 45.410156 22.300781 45.40625 C 22.050781 45.347656 22.027344 45.285156 21.980469 45.125 Z M 21.980469 45.125 "/>
<path style=" stroke:none;fill-rule:nonzero;fill:rgb(81.176471%,96.862745%,99.607843%);fill-opacity:1;" d="M 60.207031 29.882812 C 59.984375 25.675781 59.894531 21.355469 59.648438 16.84375 C 59.496094 16.65625 59.5 16.496094 59.5 16.496094 C 59.835938 16.84375 60.460938 17.195312 60.460938 17.546875 C 60.476562 21.617188 60.394531 25.691406 60.207031 29.882812 Z M 60.207031 29.882812 "/>
<path style=" stroke:none;fill-rule:nonzero;fill:rgb(100%,82.745098%,89.019608%);fill-opacity:1;" d="M 76.835938 30.5625 C 71.488281 30.6875 65.976562 30.722656 60.230469 30.765625 C 60.003906 30.699219 60.007812 30.632812 60.042969 30.46875 C 65.605469 30.402344 71.136719 30.4375 76.835938 30.5625 Z M 76.835938 30.5625 "/>
<path style=" stroke:none;fill-rule:nonzero;fill:rgb(65.098039%,76.862745%,51.372549%);fill-opacity:1;" d="M 59.511719 48.523438 C 59.691406 50.5 59.863281 52.65625 60.085938 54.988281 C 60.097656 56.296875 60.0625 57.425781 59.945312 58.71875 C 59.636719 58.4375 59.203125 57.992188 59.207031 57.546875 C 59.253906 54.597656 59.394531 51.652344 59.511719 48.523438 Z M 59.511719 48.523438 "/>
<path style=" stroke:none;fill-rule:nonzero;fill:rgb(100%,82.745098%,89.019608%);fill-opacity:1;" d="M 65.164062 45.1875 C 69.34375 45.074219 73.691406 45.046875 78.269531 45.054688 C 74.109375 45.152344 69.722656 45.214844 65.164062 45.1875 Z M 65.164062 45.1875 "/>
<path style=" stroke:none;fill-rule:nonzero;fill:rgb(89.803922%,38.431373%,51.764706%);fill-opacity:1;" d="M 79.269531 42.578125 C 79.09375 41.160156 78.984375 39.578125 79.042969 37.9375 C 79.253906 39.390625 79.296875 40.902344 79.269531 42.578125 Z M 79.269531 42.578125 "/>
<path style=" stroke:none;fill-rule:nonzero;fill:rgb(94.509804%,100%,100%);fill-opacity:1;" d="M 59.460938 16.355469 C 59.5 16.496094 59.496094 16.65625 59.488281 16.734375 C 59.402344 16.832031 59.320312 16.855469 59.113281 16.90625 C 58.226562 16.761719 57.460938 16.585938 56.566406 16.324219 C 57.433594 16.230469 58.429688 16.226562 59.460938 16.355469 Z M 59.460938 16.355469 "/>
<path style=" stroke:none;fill-rule:nonzero;fill:rgb(100%,100%,91.764706%);fill-opacity:1;" d="M 24.011719 59.230469 C 24.011719 59.230469 24.054688 59.378906 24.0625 59.453125 C 23.105469 59.515625 22.136719 59.503906 21.257812 59.371094 C 21.738281 59.113281 22.128906 58.980469 22.519531 58.84375 C 22.519531 58.84375 22.734375 58.871094 22.929688 58.976562 C 23.417969 59.136719 23.714844 59.183594 24.011719 59.230469 Z M 24.011719 59.230469 "/>
<path style=" stroke:none;fill-rule:nonzero;fill:rgb(66.27451%,89.019608%,92.156863%);fill-opacity:1;" d="M 24.121094 16.898438 C 23.484375 16.902344 22.964844 16.894531 22.222656 16.792969 C 21.984375 16.632812 21.964844 16.5625 21.949219 16.496094 C 22.859375 16.382812 23.769531 16.269531 24.890625 16.199219 C 25.097656 16.246094 25.054688 16.390625 24.914062 16.488281 C 24.628906 16.65625 24.53125 16.75 24.480469 16.871094 C 24.480469 16.871094 24.242188 16.886719 24.121094 16.898438 Z M 24.121094 16.898438 "/>
<path style=" stroke:none;fill-rule:nonzero;fill:rgb(100%,100%,89.411765%);fill-opacity:1;" d="M 22.457031 58.742188 C 22.128906 58.980469 21.738281 59.113281 21.171875 59.25 C 21.105469 58.789062 21.210938 58.328125 21.480469 57.789062 C 21.894531 58.023438 22.144531 58.332031 22.457031 58.742188 Z M 22.457031 58.742188 "/>
<path style=" stroke:none;fill-rule:nonzero;fill:rgb(94.509804%,100%,100%);fill-opacity:1;" d="M 21.785156 16.511719 C 21.964844 16.5625 21.984375 16.632812 22.027344 16.800781 C 21.992188 17.226562 21.929688 17.546875 21.75 17.949219 C 20.386719 17.539062 20.09375 17.039062 21.785156 16.511719 Z M 21.785156 16.511719 "/>
<path style=" stroke:none;fill-rule:nonzero;fill:rgb(100%,82.745098%,89.019608%);fill-opacity:1;" d="M 60 44.980469 C 60.859375 44.996094 61.722656 45.011719 62.792969 45.0625 C 62.457031 45.191406 61.910156 45.285156 61.183594 45.382812 C 60.78125 45.382812 60.554688 45.375 60.167969 45.269531 C 60 45.109375 60 45.042969 60 44.980469 Z M 60 44.980469 "/>
<path style=" stroke:none;fill-rule:nonzero;fill:rgb(89.803922%,38.431373%,51.764706%);fill-opacity:1;" d="M 79.261719 32.871094 C 79.035156 32.671875 78.875 32.347656 78.921875 31.96875 C 79.128906 31.914062 79.316406 31.9375 79.316406 31.9375 C 79.324219 32.207031 79.328125 32.476562 79.261719 32.871094 Z M 79.261719 32.871094 "/>
<path style=" stroke:none;fill-rule:nonzero;fill:rgb(95.686275%,61.176471%,70.588235%);fill-opacity:1;" d="M 79.378906 31.808594 C 79.316406 31.9375 79.128906 31.914062 79.03125 31.898438 C 78.949219 31.714844 78.964844 31.550781 78.960938 31.261719 C 78.945312 31.136719 78.976562 30.949219 78.980469 30.855469 C 79.136719 31.070312 79.289062 31.375 79.378906 31.808594 Z M 79.378906 31.808594 "/>
<path style=" stroke:none;fill-rule:nonzero;fill:rgb(98.823529%,89.803922%,60%);fill-opacity:1;" d="M 21.601562 46.945312 C 21.828125 46.902344 22.023438 46.980469 22.214844 47.058594 C 22.097656 47.128906 21.984375 47.195312 21.753906 47.28125 C 21.617188 47.222656 21.589844 47.144531 21.601562 46.945312 Z M 21.601562 46.945312 "/>
<path style=" stroke:none;fill-rule:nonzero;fill:rgb(100%,82.745098%,89.019608%);fill-opacity:1;" d="M 78.945312 30.621094 C 78.789062 30.707031 78.558594 30.714844 78.15625 30.683594 C 78.28125 30.613281 78.578125 30.582031 78.945312 30.621094 Z M 78.945312 30.621094 "/>
<path style=" stroke:none;fill-rule:nonzero;fill:rgb(89.411765%,98.039216%,80.784314%);fill-opacity:1;" d="M 60.027344 59.210938 C 59.933594 59.15625 59.941406 59.09375 60.011719 58.941406 C 60.140625 58.9375 60.214844 59.011719 60.265625 59.097656 C 60.273438 59.113281 60.175781 59.164062 60.027344 59.210938 Z M 60.027344 59.210938 "/>
<path style=" stroke:none;fill-rule:nonzero;fill:rgb(90.196078%,100%,100%);fill-opacity:1;" d="M 40.929688 31.128906 C 40.929688 31.128906 40.984375 30.960938 41.234375 30.859375 C 47.335938 30.738281 53.183594 30.714844 59.035156 30.691406 C 59.035156 30.691406 59.007812 30.757812 58.828125 30.882812 C 53.773438 31.046875 48.894531 31.148438 44.019531 31.09375 C 42.121094 31.074219 41.355469 31.414062 41.453125 32.953125 C 41.621094 35.492188 41.546875 38.042969 41.480469 40.589844 C 41.449219 41.800781 41.207031 43.007812 41.03125 44.242188 C 41.003906 44.265625 40.917969 44.273438 40.945312 44.117188 C 40.945312 43.429688 40.921875 42.902344 40.894531 42.371094 C 40.90625 40.488281 40.921875 38.609375 40.953125 36.378906 C 40.957031 34.398438 40.941406 32.761719 40.929688 31.128906 Z M 40.929688 31.128906 "/>
<path style=" stroke:none;fill-rule:nonzero;fill:rgb(56.078431%,78.039216%,82.352941%);fill-opacity:1;" d="M 59.023438 30.613281 C 53.183594 30.714844 47.335938 30.738281 41.253906 30.773438 C 41.867188 30.652344 42.714844 30.394531 43.5625 30.390625 C 48.550781 30.351562 53.539062 30.371094 58.761719 30.375 C 58.996094 30.378906 59.007812 30.535156 59.023438 30.613281 Z M 59.023438 30.613281 "/>
<path style=" stroke:none;fill-rule:nonzero;fill:rgb(56.078431%,78.039216%,82.352941%);fill-opacity:1;" d="M 40.796875 31.242188 C 40.941406 32.761719 40.957031 34.398438 40.933594 36.203125 C 40.816406 34.703125 40.738281 33.03125 40.796875 31.242188 Z M 40.796875 31.242188 "/>
<path style=" stroke:none;fill-rule:nonzero;fill:rgb(56.078431%,78.039216%,82.352941%);fill-opacity:1;" d="M 40.777344 42.476562 C 40.921875 42.902344 40.945312 43.429688 40.839844 44.109375 C 40.707031 44.257812 40.492188 44.253906 40.492188 44.253906 C 40.550781 43.695312 40.605469 43.140625 40.777344 42.476562 Z M 40.777344 42.476562 "/>
<path style=" stroke:none;fill-rule:nonzero;fill:rgb(44.705882%,76.078431%,78.431373%);fill-opacity:1;" d="M 40.492188 44.332031 C 40.492188 44.253906 40.707031 44.257812 40.8125 44.265625 C 40.917969 44.273438 41.003906 44.265625 41.007812 44.339844 C 40.996094 44.480469 40.984375 44.546875 40.863281 44.621094 C 40.753906 44.628906 40.539062 44.652344 40.539062 44.652344 C 40.539062 44.652344 40.503906 44.617188 40.488281 44.597656 C 40.472656 44.578125 40.488281 44.414062 40.492188 44.332031 Z M 40.492188 44.332031 "/>
<path style=" stroke:none;fill-rule:nonzero;fill:rgb(43.529412%,75.686275%,82.352941%);fill-opacity:1;" d="M 24.589844 16.835938 C 24.53125 16.75 24.628906 16.65625 24.886719 16.558594 C 24.941406 16.648438 24.839844 16.738281 24.589844 16.835938 Z M 24.589844 16.835938 "/>
<path style=" stroke:none;fill-rule:nonzero;fill:rgb(99.607843%,99.607843%,99.607843%);fill-opacity:1;" d="M 40.96875 44.609375 C 40.984375 44.546875 40.996094 44.480469 41.035156 44.316406 C 41.207031 43.007812 41.449219 41.800781 41.480469 40.589844 C 41.546875 38.042969 41.621094 35.492188 41.453125 32.953125 C 41.355469 31.414062 42.121094 31.074219 44.019531 31.09375 C 48.894531 31.148438 53.773438 31.046875 58.800781 30.910156 C 59.1875 30.789062 59.425781 30.769531 59.839844 30.742188 C 60.015625 30.90625 60.015625 31.078125 60.011719 31.523438 C 60.027344 32.195312 60.050781 32.589844 60.039062 33.164062 C 59.96875 36.847656 59.933594 40.355469 59.761719 43.878906 C 59.414062 44.007812 59.207031 44.125 58.8125 44.246094 C 58.078125 44.472656 57.527344 44.699219 56.847656 44.957031 C 56.636719 45.015625 56.554688 45.046875 56.472656 45.078125 C 52.640625 45.054688 48.804688 45.03125 44.714844 44.875 C 44.300781 44.632812 44.136719 44.519531 43.976562 44.40625 C 43.816406 44.59375 43.65625 44.777344 43.496094 44.964844 C 43.128906 44.988281 42.761719 45.011719 42.078125 45.011719 C 41.675781 44.96875 41.589844 44.949219 41.433594 44.859375 C 41.257812 44.699219 41.125 44.640625 40.96875 44.609375 Z M 40.96875 44.609375 "/>
<path style=" stroke:none;fill-rule:nonzero;fill:rgb(84.313725%,84.705882%,43.137255%);fill-opacity:1;" d="M 40.976562 55.035156 C 40.800781 54.246094 40.59375 53.359375 40.503906 52.472656 C 40.304688 50.464844 40.164062 48.457031 40.113281 46.246094 C 40.363281 45.960938 40.457031 45.863281 40.632812 45.746094 C 40.753906 45.75 40.996094 45.75 41.046875 45.847656 C 41.21875 46.132812 41.34375 46.316406 41.46875 46.5 C 41.46875 46.777344 41.46875 47.050781 41.332031 47.578125 C 41.136719 50.140625 41.082031 52.445312 41.027344 54.753906 C 41.019531 54.816406 41.011719 54.878906 40.976562 55.035156 Z M 40.976562 55.035156 "/>
<path style=" stroke:none;fill-rule:nonzero;fill:rgb(69.019608%,78.039216%,38.039216%);fill-opacity:1;" d="M 41.171875 54.636719 C 41.082031 52.445312 41.136719 50.140625 41.335938 47.714844 C 41.421875 49.90625 41.367188 52.214844 41.171875 54.636719 Z M 41.171875 54.636719 "/>
<path style=" stroke:none;fill-rule:nonzero;fill:rgb(69.803922%,80.392157%,59.215686%);fill-opacity:1;" d="M 56.515625 45.203125 C 56.554688 45.046875 56.636719 45.015625 57.058594 44.980469 C 58.09375 44.96875 58.792969 44.957031 59.625 44.964844 C 59.847656 44.992188 59.933594 45 60.023438 45.011719 C 60.023438 45.011719 59.996094 45.003906 59.996094 44.992188 C 60 45.042969 60 45.109375 59.996094 45.269531 C 59.828125 45.546875 59.664062 45.726562 59.472656 46.023438 C 58.480469 45.867188 57.519531 45.601562 56.515625 45.203125 Z M 56.515625 45.203125 "/>
<path style=" stroke:none;fill-rule:nonzero;fill:rgb(63.529412%,80%,40.784314%);fill-opacity:1;" d="M 41.210938 57.375 C 41.011719 56.980469 40.996094 56.578125 41 56.027344 C 41.496094 56.109375 41.976562 56.339844 42.457031 56.574219 C 42.105469 56.839844 41.753906 57.105469 41.210938 57.375 Z M 41.210938 57.375 "/>
<path style=" stroke:none;fill-rule:nonzero;fill:rgb(63.529412%,80%,40.784314%);fill-opacity:1;" d="M 41.617188 46.492188 C 41.34375 46.316406 41.21875 46.132812 41.210938 45.847656 C 41.554688 45.75 41.777344 45.75 42 45.75 C 41.921875 45.992188 41.84375 46.238281 41.617188 46.492188 Z M 41.617188 46.492188 "/>
<path style=" stroke:none;fill-rule:nonzero;fill:rgb(95.686275%,100%,89.803922%);fill-opacity:1;" d="M 43.664062 44.992188 C 43.65625 44.777344 43.816406 44.59375 43.976562 44.40625 C 44.136719 44.519531 44.300781 44.632812 44.484375 44.855469 C 44.28125 44.980469 44.054688 45 43.664062 44.992188 Z M 43.664062 44.992188 "/>
<path style=" stroke:none;fill-rule:nonzero;fill:rgb(63.921569%,78.823529%,47.058824%);fill-opacity:1;" d="M 42 45.660156 C 41.777344 45.75 41.554688 45.75 41.164062 45.75 C 40.996094 45.75 40.753906 45.75 40.625 45.65625 C 40.496094 45.566406 40.484375 45.390625 40.484375 45.390625 C 40.484375 45.390625 40.496094 45.378906 40.6875 45.378906 C 41.257812 45.378906 41.632812 45.382812 42.003906 45.382812 C 42.003906 45.382812 42 45.566406 42 45.660156 Z M 42 45.660156 "/>
<path style=" stroke:none;fill-rule:nonzero;fill:rgb(69.803922%,80.392157%,59.215686%);fill-opacity:1;" d="M 42.007812 45.304688 C 41.632812 45.382812 41.257812 45.378906 40.695312 45.375 C 40.507812 45.3125 40.503906 45.246094 40.492188 45.089844 C 40.488281 44.992188 40.5 44.996094 40.667969 44.992188 C 41.058594 44.972656 41.277344 44.949219 41.5 44.929688 C 41.589844 44.949219 41.675781 44.96875 41.894531 45.027344 C 42.027344 45.066406 42.015625 45.226562 42.007812 45.304688 Z M 42.007812 45.304688 "/>
<path style=" stroke:none;fill-rule:nonzero;fill:rgb(69.019608%,78.039216%,38.039216%);fill-opacity:1;" d="M 41.386719 59.164062 C 41.257812 59.214844 41.140625 59.148438 41.03125 58.960938 C 41.15625 58.910156 41.277344 58.976562 41.386719 59.164062 Z M 41.386719 59.164062 "/>
<path style=" stroke:none;fill-rule:nonzero;fill:rgb(85.882353%,51.764706%,60.392157%);fill-opacity:1;" d="M 59.894531 43.867188 C 59.933594 40.355469 59.96875 36.847656 60.148438 33.164062 C 60.292969 32.992188 60.515625 32.996094 60.515625 32.996094 C 60.511719 36.628906 60.507812 40.265625 60.398438 44.074219 C 60.289062 44.25 60.078125 44.265625 60.035156 44.167969 C 59.960938 44 59.925781 43.933594 59.894531 43.867188 Z M 59.894531 43.867188 "/>
<path style=" stroke:none;fill-rule:nonzero;fill:rgb(89.803922%,38.431373%,51.764706%);fill-opacity:1;" d="M 60.648438 32.910156 C 60.515625 32.996094 60.292969 32.992188 60.183594 32.988281 C 60.050781 32.589844 60.027344 32.195312 60.039062 31.652344 C 60.28125 31.503906 60.488281 31.503906 60.847656 31.503906 C 60.929688 31.941406 60.855469 32.382812 60.648438 32.910156 Z M 60.648438 32.910156 "/>
<path style=" stroke:none;fill-rule:nonzero;fill:rgb(89.803922%,38.431373%,51.764706%);fill-opacity:1;" d="M 74.5 44.484375 C 74.28125 44.617188 74.054688 44.617188 73.664062 44.617188 C 73.644531 44.304688 73.796875 43.992188 73.949219 43.683594 C 74.132812 43.90625 74.3125 44.132812 74.5 44.484375 Z M 74.5 44.484375 "/>
<path style=" stroke:none;fill-rule:nonzero;fill:rgb(89.803922%,38.431373%,51.764706%);fill-opacity:1;" d="M 60.078125 44.265625 C 60.078125 44.265625 60.289062 44.25 60.394531 44.25 C 60.5 44.25 60.5 44.4375 60.5 44.53125 C 60.5 44.625 60.289062 44.625 60.164062 44.535156 C 60.035156 44.441406 60.078125 44.265625 60.078125 44.265625 Z M 60.078125 44.265625 "/>
<path style=" stroke:none;fill-rule:nonzero;fill:rgb(92.54902%,84.705882%,45.098039%);fill-opacity:1;" d="M 40.351562 45.394531 C 40.484375 45.390625 40.496094 45.566406 40.503906 45.652344 C 40.457031 45.863281 40.363281 45.960938 40.113281 46.082031 C 39.996094 45.972656 39.992188 45.816406 39.976562 45.546875 C 40.050781 45.421875 40.136719 45.410156 40.351562 45.394531 Z M 40.351562 45.394531 "/>
<path style=" stroke:none;fill-rule:nonzero;fill:rgb(96.078431%,83.529412%,43.137255%);fill-opacity:1;" d="M 24.007812 59.140625 C 23.714844 59.183594 23.417969 59.136719 23.035156 58.992188 C 23.183594 58.886719 23.417969 58.882812 23.828125 58.875 C 24.003906 58.875 24.003906 59.050781 24.007812 59.140625 Z M 24.007812 59.140625 "/>
<path style=" stroke:none;fill-rule:nonzero;fill:rgb(100%,92.941176%,97.647059%);fill-opacity:1;" d="M 60.035156 44.167969 C 60.078125 44.265625 60.035156 44.441406 60.058594 44.53125 C 60.0625 44.683594 60.042969 44.746094 60.023438 44.910156 C 59.933594 45 59.847656 44.992188 59.566406 44.875 C 59.25 44.59375 59.121094 44.421875 58.996094 44.246094 C 59.207031 44.125 59.414062 44.007812 59.761719 43.878906 C 59.925781 43.933594 59.960938 44 60.035156 44.167969 Z M 60.035156 44.167969 "/>
<path style=" stroke:none;fill-rule:nonzero;fill:rgb(95.686275%,100%,89.803922%);fill-opacity:1;" d="M 41.433594 44.859375 C 41.277344 44.949219 41.058594 44.972656 40.671875 44.992188 C 40.503906 44.988281 40.511719 44.820312 40.527344 44.738281 C 40.539062 44.652344 40.753906 44.628906 40.863281 44.621094 C 41.125 44.640625 41.257812 44.699219 41.433594 44.859375 Z M 41.433594 44.859375 "/>
<path style=" stroke:none;fill-rule:nonzero;fill:rgb(95.686275%,100%,89.803922%);fill-opacity:1;" d="M 58.8125 44.246094 C 59.121094 44.421875 59.25 44.59375 59.433594 44.859375 C 58.792969 44.957031 58.09375 44.96875 57.1875 44.949219 C 57.527344 44.699219 58.078125 44.472656 58.8125 44.246094 Z M 58.8125 44.246094 "/>
</g>
</svg>
