<?xml version="1.0" encoding="UTF-8"?>
<svg xmlns="http://www.w3.org/2000/svg" xmlns:xlink="http://www.w3.org/1999/xlink" width="100px" height="75px" viewBox="0 0 100 75" version="1.1">
<g id="surface1">
<rect x="0" y="0" width="100" height="75" style="fill:rgb(1.960784%,1.960784%,15.294118%);fill-opacity:1;stroke:none;"/>
<path style=" stroke:none;fill-rule:nonzero;fill:rgb(41.176471%,76.470588%,84.313725%);fill-opacity:1;" d="M 3.847656 28.125 L 3.847656 40.125 L 8.769531 40.125 L 8.769531 28.125 Z M 3.847656 28.125 "/>
<path style=" stroke:none;fill-rule:nonzero;fill:rgb(98.823529%,98.823529%,99.215686%);fill-opacity:1;" d="M 8.769531 28.125 L 8.769531 34.125 L 13.691406 34.125 L 13.691406 28.125 Z M 8.769531 28.125 "/>
<path style=" stroke:none;fill-rule:nonzero;fill:rgb(83.529412%,40.392157%,52.941176%);fill-opacity:1;" d="M 57.847656 30.9375 L 57.847656 42.375 L 58 42.375 L 58 34.6875 Z M 57.847656 30.9375 "/>
<path style=" stroke:none;fill-rule:nonzero;fill:rgb(98.823529%,98.823529%,99.215686%);fill-opacity:1;" d="M 58 30.9375 L 58 42.1875 L 59.382812 42.1875 C 59.382812 40.507812 58.984375 37.902344 59.644531 36.382812 C 60.332031 34.800781 62.101562 35.035156 62.71875 36.5625 C 63.316406 38.035156 62.921875 40.574219 62.921875 42.1875 L 64.308594 42.1875 C 64.308594 39.125 64.953125 32.636719 60.769531 33.851562 C 60.253906 34 59.820312 34.339844 59.382812 34.6875 L 59.382812 30.9375 Z M 58 30.9375 "/>
<path style=" stroke:none;fill-rule:nonzero;fill:rgb(83.529412%,40.392157%,52.941176%);fill-opacity:1;" d="M 24.921875 31.5 L 24.921875 31.6875 L 28.460938 31.6875 Z M 24.921875 31.5 "/>
<path style=" stroke:none;fill-rule:nonzero;fill:rgb(98.823529%,98.823529%,99.215686%);fill-opacity:1;" d="M 24.921875 31.6875 L 24.921875 42.1875 C 26.632812 42.1875 28.738281 42.605469 30.308594 41.625 C 32.941406 39.980469 33.253906 34.6875 30.765625 32.644531 C 29.09375 31.269531 26.835938 31.6875 24.921875 31.6875 Z M 24.921875 31.6875 "/>
<path style=" stroke:none;fill-rule:nonzero;fill:rgb(79.607843%,81.176471%,40.392157%);fill-opacity:1;" d="M 28.921875 31.6875 L 29.078125 31.875 Z M 28.921875 31.6875 "/>
<path style=" stroke:none;fill-rule:nonzero;fill:rgb(41.176471%,76.470588%,84.313725%);fill-opacity:1;" d="M 29.078125 31.6875 L 29.230469 31.875 Z M 29.078125 31.6875 "/>
<path style=" stroke:none;fill-rule:nonzero;fill:rgb(83.529412%,40.392157%,52.941176%);fill-opacity:1;" d="M 29.230469 31.6875 L 29.382812 31.875 Z M 29.230469 31.6875 "/>
<path style=" stroke:none;fill-rule:nonzero;fill:rgb(79.607843%,81.176471%,40.392157%);fill-opacity:1;" d="M 29.539062 31.875 L 29.691406 32.0625 Z M 29.539062 31.875 "/>
<path style=" stroke:none;fill-rule:nonzero;fill:rgb(83.529412%,40.392157%,52.941176%);fill-opacity:1;" d="M 29.691406 31.875 L 29.847656 32.0625 Z M 29.691406 31.875 "/>
<path style=" stroke:none;fill-rule:nonzero;fill:rgb(41.176471%,76.470588%,84.313725%);fill-opacity:1;" d="M 30 32.0625 L 30.152344 32.25 Z M 30 32.0625 "/>
<path style=" stroke:none;fill-rule:nonzero;fill:rgb(79.607843%,81.176471%,40.392157%);fill-opacity:1;" d="M 30.308594 32.25 L 30.460938 32.4375 Z M 30.308594 32.25 "/>
<path style=" stroke:none;fill-rule:nonzero;fill:rgb(83.529412%,40.392157%,52.941176%);fill-opacity:1;" d="M 30.617188 32.4375 L 30.769531 32.625 Z M 30.617188 32.4375 "/>
<path style=" stroke:none;fill-rule:nonzero;fill:rgb(79.607843%,81.176471%,40.392157%);fill-opacity:1;" d="M 30.769531 32.625 L 30.921875 32.8125 Z M 30.769531 32.625 "/>
<path style=" stroke:none;fill-rule:nonzero;fill:rgb(83.529412%,40.392157%,52.941176%);fill-opacity:1;" d="M 26.460938 33 L 26.460938 33.1875 L 28.308594 33.1875 Z M 26.460938 33 "/>
<path style=" stroke:none;fill-rule:nonzero;fill:rgb(41.176471%,76.470588%,84.313725%);fill-opacity:1;" d="M 28.308594 33 L 28.460938 33.1875 Z M 28.308594 33 "/>
<path style=" stroke:none;fill-rule:nonzero;fill:rgb(79.607843%,81.176471%,40.392157%);fill-opacity:1;" d="M 28.460938 33 L 28.617188 33.1875 L 28.460938 33 M 26.308594 33.1875 L 26.308594 40.875 L 26.460938 40.875 C 26.460938 38.683594 27 35.203125 26.308594 33.1875 Z M 26.308594 33.1875 "/>
<path style=" stroke:none;fill-rule:nonzero;fill:rgb(1.960784%,1.960784%,15.294118%);fill-opacity:1;" d="M 26.460938 33.1875 L 26.460938 40.875 C 27.632812 40.875 29.003906 40.964844 29.972656 40.003906 C 31.453125 38.535156 31.230469 34.976562 29.691406 33.695312 C 28.785156 32.941406 27.5 33.1875 26.460938 33.1875 Z M 26.460938 33.1875 "/>
<path style=" stroke:none;fill-rule:nonzero;fill:rgb(83.529412%,40.392157%,52.941176%);fill-opacity:1;" d="M 28.921875 33.1875 L 29.078125 33.375 Z M 28.921875 33.1875 "/>
<path style=" stroke:none;fill-rule:nonzero;fill:rgb(79.607843%,81.176471%,40.392157%);fill-opacity:1;" d="M 29.078125 33.1875 L 29.230469 33.375 Z M 29.078125 33.1875 "/>
<path style=" stroke:none;fill-rule:nonzero;fill:rgb(41.176471%,76.470588%,84.313725%);fill-opacity:1;" d="M 29.382812 33.375 L 29.539062 33.5625 Z M 29.382812 33.375 "/>
<path style=" stroke:none;fill-rule:nonzero;fill:rgb(79.607843%,81.176471%,40.392157%);fill-opacity:1;" d="M 29.691406 33.5625 L 29.847656 33.75 L 29.691406 33.5625 M 31.539062 33.5625 L 31.691406 33.75 Z M 31.539062 33.5625 "/>
<path style=" stroke:none;fill-rule:nonzero;fill:rgb(83.529412%,40.392157%,52.941176%);fill-opacity:1;" d="M 36.617188 33.5625 L 36.617188 33.75 L 37.230469 33.75 L 36.617188 33.5625 M 44.460938 33.5625 L 44.460938 33.75 L 45.230469 33.75 L 44.460938 33.5625 M 53.078125 33.5625 L 53.078125 33.75 L 53.691406 33.75 L 53.078125 33.5625 M 61.230469 33.5625 L 61.230469 33.75 L 61.847656 33.75 L 61.230469 33.5625 M 68.460938 33.5625 L 68.460938 33.75 L 69.078125 33.75 L 68.460938 33.5625 M 84.460938 33.5625 L 84.460938 33.75 L 85.230469 33.75 L 84.460938 33.5625 M 92.769531 33.5625 L 92.769531 33.75 L 93.382812 33.75 Z M 92.769531 33.5625 "/>
<path style=" stroke:none;fill-rule:nonzero;fill:rgb(41.176471%,76.470588%,84.313725%);fill-opacity:1;" d="M 29.847656 33.75 L 30 33.9375 L 29.847656 33.75 M 31.691406 33.75 L 31.847656 33.9375 Z M 31.691406 33.75 "/>
<path style=" stroke:none;fill-rule:nonzero;fill:rgb(83.529412%,40.392157%,52.941176%);fill-opacity:1;" d="M 35.691406 33.75 L 35.847656 33.9375 Z M 35.691406 33.75 "/>
<path style=" stroke:none;fill-rule:nonzero;fill:rgb(41.176471%,76.470588%,84.313725%);fill-opacity:1;" d="M 35.847656 33.75 L 36 33.9375 Z M 35.847656 33.75 "/>
<path style=" stroke:none;fill-rule:nonzero;fill:rgb(98.823529%,98.823529%,99.215686%);fill-opacity:1;" d="M 40.152344 39.75 C 38.089844 39.75 35.859375 42.570312 34.921875 38.625 L 40.308594 38.625 C 40.308594 37.050781 40.152344 35.625 39.074219 34.574219 C 37.167969 32.71875 34.066406 33.992188 33.609375 36.9375 C 32.824219 42.011719 38.375 44.679688 40.152344 39.75 Z M 40.152344 39.75 "/>
<path style=" stroke:none;fill-rule:nonzero;fill:rgb(79.607843%,81.176471%,40.392157%);fill-opacity:1;" d="M 37.847656 33.75 L 38 33.9375 Z M 37.847656 33.75 "/>
<path style=" stroke:none;fill-rule:nonzero;fill:rgb(83.529412%,40.392157%,52.941176%);fill-opacity:1;" d="M 38 33.75 L 38.152344 33.9375 Z M 38 33.75 "/>
<path style=" stroke:none;fill-rule:nonzero;fill:rgb(41.176471%,76.470588%,84.313725%);fill-opacity:1;" d="M 43.691406 33.75 L 43.847656 33.9375 Z M 43.691406 33.75 "/>
<path style=" stroke:none;fill-rule:nonzero;fill:rgb(79.607843%,81.176471%,40.392157%);fill-opacity:1;" d="M 43.847656 33.75 L 44 33.9375 Z M 43.847656 33.75 "/>
<path style=" stroke:none;fill-rule:nonzero;fill:rgb(98.823529%,98.823529%,99.215686%);fill-opacity:1;" d="M 48 39.75 C 46.277344 39.75 43.292969 42.65625 42.921875 38.625 L 48.152344 38.625 C 48.152344 37.09375 48.117188 35.664062 47.0625 34.601562 C 44.929688 32.453125 41.6875 34.277344 41.410156 37.5 C 41.007812 42.253906 46.734375 44.574219 48 39.75 Z M 48 39.75 "/>
<path style=" stroke:none;fill-rule:nonzero;fill:rgb(79.607843%,81.176471%,40.392157%);fill-opacity:1;" d="M 45.691406 33.75 L 45.847656 33.9375 Z M 45.691406 33.75 "/>
<path style=" stroke:none;fill-rule:nonzero;fill:rgb(83.529412%,40.392157%,52.941176%);fill-opacity:1;" d="M 45.847656 33.75 L 46 33.9375 Z M 45.847656 33.75 "/>
<path style=" stroke:none;fill-rule:nonzero;fill:rgb(79.607843%,81.176471%,40.392157%);fill-opacity:1;" d="M 49.539062 33.75 L 49.539062 33.9375 L 50.921875 33.9375 Z M 49.539062 33.75 "/>
<path style=" stroke:none;fill-rule:nonzero;fill:rgb(83.529412%,40.392157%,52.941176%);fill-opacity:1;" d="M 52.308594 33.75 L 52.460938 33.9375 Z M 52.308594 33.75 "/>
<path style=" stroke:none;fill-rule:nonzero;fill:rgb(79.607843%,81.176471%,40.392157%);fill-opacity:1;" d="M 52.460938 33.75 L 52.617188 33.9375 Z M 52.460938 33.75 "/>
<path style=" stroke:none;fill-rule:nonzero;fill:rgb(98.823529%,98.823529%,99.215686%);fill-opacity:1;" d="M 50.921875 35.0625 L 50.921875 33.9375 L 49.539062 33.9375 L 49.539062 46.3125 L 50.921875 46.3125 L 50.921875 41.0625 C 51.390625 41.570312 51.847656 42.011719 52.460938 42.226562 C 57.707031 44.074219 57.984375 32.335938 52.617188 33.847656 C 51.9375 34.039062 51.429688 34.507812 50.921875 35.0625 Z M 50.921875 35.0625 "/>
<path style=" stroke:none;fill-rule:nonzero;fill:rgb(79.607843%,81.176471%,40.392157%);fill-opacity:1;" d="M 54.152344 33.75 L 54.308594 33.9375 Z M 54.152344 33.75 "/>
<path style=" stroke:none;fill-rule:nonzero;fill:rgb(83.529412%,40.392157%,52.941176%);fill-opacity:1;" d="M 54.308594 33.75 L 54.460938 33.9375 L 54.308594 33.75 M 60.460938 33.75 L 60.617188 33.9375 Z M 60.460938 33.75 "/>
<path style=" stroke:none;fill-rule:nonzero;fill:rgb(79.607843%,81.176471%,40.392157%);fill-opacity:1;" d="M 60.617188 33.75 L 60.769531 33.9375 L 60.617188 33.75 M 62.308594 33.75 L 62.460938 33.9375 Z M 62.308594 33.75 "/>
<path style=" stroke:none;fill-rule:nonzero;fill:rgb(83.529412%,40.392157%,52.941176%);fill-opacity:1;" d="M 62.460938 33.75 L 62.617188 33.9375 L 62.460938 33.75 M 67.691406 33.75 L 67.847656 33.9375 Z M 67.691406 33.75 "/>
<path style=" stroke:none;fill-rule:nonzero;fill:rgb(79.607843%,81.176471%,40.392157%);fill-opacity:1;" d="M 67.847656 33.75 L 68 33.9375 Z M 67.847656 33.75 "/>
<path style=" stroke:none;fill-rule:nonzero;fill:rgb(98.823529%,98.823529%,99.215686%);fill-opacity:1;" d="M 71.230469 41.0625 L 71.230469 42.1875 L 72.617188 42.1875 L 72.617188 33.9375 L 71.230469 33.9375 L 71.230469 35.0625 C 70.765625 34.546875 70.316406 34.082031 69.691406 33.882812 C 64.355469 32.175781 64.28125 43.757812 69.539062 42.277344 C 70.214844 42.085938 70.722656 41.617188 71.230469 41.0625 Z M 71.230469 41.0625 "/>
<path style=" stroke:none;fill-rule:nonzero;fill:rgb(79.607843%,81.176471%,40.392157%);fill-opacity:1;" d="M 69.539062 33.75 L 69.691406 33.9375 Z M 69.539062 33.75 "/>
<path style=" stroke:none;fill-rule:nonzero;fill:rgb(41.176471%,76.470588%,84.313725%);fill-opacity:1;" d="M 69.691406 33.75 L 69.847656 33.9375 Z M 69.691406 33.75 "/>
<path style=" stroke:none;fill-rule:nonzero;fill:rgb(79.607843%,81.176471%,40.392157%);fill-opacity:1;" d="M 71.230469 33.75 L 71.230469 33.9375 L 72.617188 33.9375 L 71.230469 33.75 M 73.847656 33.75 L 73.847656 33.9375 L 75.382812 33.9375 Z M 73.847656 33.75 "/>
<path style=" stroke:none;fill-rule:nonzero;fill:rgb(41.176471%,76.470588%,84.313725%);fill-opacity:1;" d="M 79.230469 33.75 L 79.382812 33.9375 Z M 79.230469 33.75 "/>
<path style=" stroke:none;fill-rule:nonzero;fill:rgb(79.607843%,81.176471%,40.392157%);fill-opacity:1;" d="M 79.382812 33.75 L 79.382812 33.9375 L 80.769531 33.9375 Z M 79.382812 33.75 "/>
<path style=" stroke:none;fill-rule:nonzero;fill:rgb(83.529412%,40.392157%,52.941176%);fill-opacity:1;" d="M 80.769531 33.75 L 80.921875 33.9375 Z M 80.769531 33.75 "/>
<path style=" stroke:none;fill-rule:nonzero;fill:rgb(41.176471%,76.470588%,84.313725%);fill-opacity:1;" d="M 83.691406 33.75 L 83.847656 33.9375 Z M 83.691406 33.75 "/>
<path style=" stroke:none;fill-rule:nonzero;fill:rgb(79.607843%,81.176471%,40.392157%);fill-opacity:1;" d="M 83.847656 33.75 L 84 33.9375 Z M 83.847656 33.75 "/>
<path style=" stroke:none;fill-rule:nonzero;fill:rgb(98.823529%,98.823529%,99.215686%);fill-opacity:1;" d="M 88 39.75 C 86.277344 39.75 83.292969 42.65625 82.921875 38.625 L 88.152344 38.625 C 88.152344 37.171875 88.140625 35.820312 87.203125 34.75 C 85.03125 32.265625 81.652344 34.34375 81.410156 37.6875 C 81.074219 42.363281 86.773438 44.433594 88 39.75 Z M 88 39.75 "/>
<path style=" stroke:none;fill-rule:nonzero;fill:rgb(79.607843%,81.176471%,40.392157%);fill-opacity:1;" d="M 85.691406 33.75 L 85.847656 33.9375 Z M 85.691406 33.75 "/>
<path style=" stroke:none;fill-rule:nonzero;fill:rgb(41.176471%,76.470588%,84.313725%);fill-opacity:1;" d="M 85.847656 33.75 L 86 33.9375 L 85.847656 33.75 M 89.539062 33.75 L 89.691406 33.9375 Z M 89.539062 33.75 "/>
<path style=" stroke:none;fill-rule:nonzero;fill:rgb(79.607843%,81.176471%,40.392157%);fill-opacity:1;" d="M 91.078125 42.375 L 91.078125 42.1875 L 89.691406 42.1875 L 89.691406 33.9375 L 91.078125 33.9375 C 90.695312 33.742188 90.003906 33.574219 89.695312 34.050781 C 89.417969 34.476562 89.539062 35.308594 89.539062 35.8125 C 89.539062 37.191406 88.988281 40.988281 89.695312 42.074219 C 89.984375 42.515625 90.671875 42.375 91.078125 42.375 Z M 91.078125 42.375 "/>
<path style=" stroke:none;fill-rule:nonzero;fill:rgb(41.176471%,76.470588%,84.313725%);fill-opacity:1;" d="M 92.152344 33.75 L 92.308594 33.9375 Z M 92.152344 33.75 "/>
<path style=" stroke:none;fill-rule:nonzero;fill:rgb(98.823529%,98.823529%,99.215686%);fill-opacity:1;" d="M 91.078125 34.6875 L 91.078125 33.9375 L 89.691406 33.9375 L 89.691406 42.1875 L 91.078125 42.1875 C 91.078125 40.527344 90.664062 37.878906 91.300781 36.378906 C 91.941406 34.863281 93.613281 34.96875 94.292969 36.378906 C 95.019531 37.882812 94.617188 40.5 94.617188 42.1875 L 96 42.1875 C 96 39.03125 96.605469 32.839844 92.460938 33.8125 C 91.921875 33.941406 91.507812 34.296875 91.078125 34.6875 Z M 91.078125 34.6875 "/>
<path style=" stroke:none;fill-rule:nonzero;fill:rgb(41.176471%,76.470588%,84.313725%);fill-opacity:1;" d="M 94 33.75 L 94.152344 33.9375 Z M 94 33.75 "/>
<path style=" stroke:none;fill-rule:nonzero;fill:rgb(83.529412%,40.392157%,52.941176%);fill-opacity:1;" d="M 30 33.9375 L 30.152344 34.125 Z M 30 33.9375 "/>
<path style=" stroke:none;fill-rule:nonzero;fill:rgb(41.176471%,76.470588%,84.313725%);fill-opacity:1;" d="M 35.382812 33.9375 L 35.539062 34.125 Z M 35.382812 33.9375 "/>
<path style=" stroke:none;fill-rule:nonzero;fill:rgb(79.607843%,81.176471%,40.392157%);fill-opacity:1;" d="M 38.308594 33.9375 L 38.460938 34.125 Z M 38.308594 33.9375 "/>
<path style=" stroke:none;fill-rule:nonzero;fill:rgb(83.529412%,40.392157%,52.941176%);fill-opacity:1;" d="M 43.230469 33.9375 L 43.382812 34.125 L 43.230469 33.9375 M 46.308594 33.9375 L 46.460938 34.125 Z M 46.308594 33.9375 "/>
<path style=" stroke:none;fill-rule:nonzero;fill:rgb(79.607843%,81.176471%,40.392157%);fill-opacity:1;" d="M 52 33.9375 L 52.152344 34.125 L 52 33.9375 M 54.617188 33.9375 L 54.769531 34.125 Z M 54.617188 33.9375 "/>
<path style=" stroke:none;fill-rule:nonzero;fill:rgb(41.176471%,76.470588%,84.313725%);fill-opacity:1;" d="M 60.152344 33.9375 L 60.308594 34.125 L 60.152344 33.9375 M 62.769531 33.9375 L 62.921875 34.125 Z M 62.769531 33.9375 "/>
<path style=" stroke:none;fill-rule:nonzero;fill:rgb(79.607843%,81.176471%,40.392157%);fill-opacity:1;" d="M 67.382812 33.9375 L 67.539062 34.125 Z M 67.382812 33.9375 "/>
<path style=" stroke:none;fill-rule:nonzero;fill:rgb(83.529412%,40.392157%,52.941176%);fill-opacity:1;" d="M 70.152344 33.9375 L 70.308594 34.125 Z M 70.152344 33.9375 "/>
<path style=" stroke:none;fill-rule:nonzero;fill:rgb(98.823529%,98.823529%,99.215686%);fill-opacity:1;" d="M 73.847656 33.9375 C 74.476562 35.933594 75.097656 37.9375 75.722656 39.9375 C 75.925781 40.585938 76.085938 41.753906 76.65625 42.074219 C 77.125 42.335938 77.96875 42.265625 78.292969 41.753906 C 79.507812 39.851562 80.15625 36.226562 80.769531 33.9375 L 79.230469 33.9375 L 77.382812 40.6875 C 76.496094 38.253906 76.414062 33.9375 73.847656 33.9375 Z M 73.847656 33.9375 "/>
<path style=" stroke:none;fill-rule:nonzero;fill:rgb(83.529412%,40.392157%,52.941176%);fill-opacity:1;" d="M 75.382812 33.9375 L 75.539062 34.125 L 75.382812 33.9375 M 83.230469 33.9375 L 83.382812 34.125 L 83.230469 33.9375 M 86.308594 33.9375 L 86.460938 34.125 L 86.308594 33.9375 M 91.691406 33.9375 L 91.847656 34.125 L 91.691406 33.9375 M 94.460938 33.9375 L 94.617188 34.125 Z M 94.460938 33.9375 "/>
<path style=" stroke:none;fill-rule:nonzero;fill:rgb(1.960784%,1.960784%,15.294118%);fill-opacity:1;" d="M 8.769531 34.125 L 8.769531 40.125 L 13.691406 40.125 L 13.691406 34.125 Z M 8.769531 34.125 "/>
<path style=" stroke:none;fill-rule:nonzero;fill:rgb(83.529412%,40.392157%,52.941176%);fill-opacity:1;" d="M 13.691406 34.125 L 13.691406 40.125 L 18.617188 40.125 L 18.617188 34.125 L 13.691406 34.125 M 30.152344 34.125 L 30.308594 34.3125 Z M 30.152344 34.125 "/>
<path style=" stroke:none;fill-rule:nonzero;fill:rgb(79.607843%,81.176471%,40.392157%);fill-opacity:1;" d="M 31.847656 34.125 L 32 34.3125 Z M 31.847656 34.125 "/>
<path style=" stroke:none;fill-rule:nonzero;fill:rgb(41.176471%,76.470588%,84.313725%);fill-opacity:1;" d="M 35.078125 34.125 L 35.230469 34.3125 Z M 35.078125 34.125 "/>
<path style=" stroke:none;fill-rule:nonzero;fill:rgb(79.607843%,81.176471%,40.392157%);fill-opacity:1;" d="M 38.617188 34.125 L 38.769531 34.3125 Z M 38.617188 34.125 "/>
<path style=" stroke:none;fill-rule:nonzero;fill:rgb(83.529412%,40.392157%,52.941176%);fill-opacity:1;" d="M 42.921875 34.125 L 43.078125 34.3125 L 42.921875 34.125 M 46.617188 34.125 L 46.769531 34.3125 Z M 46.617188 34.125 "/>
<path style=" stroke:none;fill-rule:nonzero;fill:rgb(79.607843%,81.176471%,40.392157%);fill-opacity:1;" d="M 51.691406 34.125 L 51.847656 34.3125 L 51.691406 34.125 M 54.921875 34.125 L 55.078125 34.3125 Z M 54.921875 34.125 "/>
<path style=" stroke:none;fill-rule:nonzero;fill:rgb(41.176471%,76.470588%,84.313725%);fill-opacity:1;" d="M 59.847656 34.125 L 60 34.3125 L 59.847656 34.125 M 63.078125 34.125 L 63.230469 34.3125 Z M 63.078125 34.125 "/>
<path style=" stroke:none;fill-rule:nonzero;fill:rgb(79.607843%,81.176471%,40.392157%);fill-opacity:1;" d="M 67.078125 34.125 L 67.230469 34.3125 L 67.078125 34.125 M 70.308594 34.125 L 70.460938 34.3125 Z M 70.308594 34.125 "/>
<path style=" stroke:none;fill-rule:nonzero;fill:rgb(83.529412%,40.392157%,52.941176%);fill-opacity:1;" d="M 73.847656 34.125 L 74 34.3125 Z M 73.847656 34.125 "/>
<path style=" stroke:none;fill-rule:nonzero;fill:rgb(79.607843%,81.176471%,40.392157%);fill-opacity:1;" d="M 75.382812 34.125 L 75.539062 34.3125 Z M 75.382812 34.125 "/>
<path style=" stroke:none;fill-rule:nonzero;fill:rgb(83.529412%,40.392157%,52.941176%);fill-opacity:1;" d="M 79.078125 34.125 L 79.230469 34.3125 Z M 79.078125 34.125 "/>
<path style=" stroke:none;fill-rule:nonzero;fill:rgb(79.607843%,81.176471%,40.392157%);fill-opacity:1;" d="M 80.617188 34.125 L 80.769531 34.3125 Z M 80.617188 34.125 "/>
<path style=" stroke:none;fill-rule:nonzero;fill:rgb(83.529412%,40.392157%,52.941176%);fill-opacity:1;" d="M 82.921875 34.125 L 83.078125 34.3125 L 82.921875 34.125 M 86.617188 34.125 L 86.769531 34.3125 Z M 86.617188 34.125 "/>
<path style=" stroke:none;fill-rule:nonzero;fill:rgb(79.607843%,81.176471%,40.392157%);fill-opacity:1;" d="M 91.539062 34.125 L 91.691406 34.3125 L 91.539062 34.125 M 30.308594 34.3125 L 30.460938 34.5 Z M 30.308594 34.3125 "/>
<path style=" stroke:none;fill-rule:nonzero;fill:rgb(83.529412%,40.392157%,52.941176%);fill-opacity:1;" d="M 34.769531 34.3125 L 34.921875 34.5 Z M 34.769531 34.3125 "/>
<path style=" stroke:none;fill-rule:nonzero;fill:rgb(41.176471%,76.470588%,84.313725%);fill-opacity:1;" d="M 38.921875 34.3125 L 39.078125 34.5 Z M 38.921875 34.3125 "/>
<path style=" stroke:none;fill-rule:nonzero;fill:rgb(79.607843%,81.176471%,40.392157%);fill-opacity:1;" d="M 46.769531 34.3125 L 46.921875 34.5 Z M 46.769531 34.3125 "/>
<path style=" stroke:none;fill-rule:nonzero;fill:rgb(83.529412%,40.392157%,52.941176%);fill-opacity:1;" d="M 51.382812 34.3125 L 51.539062 34.5 L 51.382812 34.3125 M 55.230469 34.3125 L 55.382812 34.5 Z M 55.230469 34.3125 "/>
<path style=" stroke:none;fill-rule:nonzero;fill:rgb(79.607843%,81.176471%,40.392157%);fill-opacity:1;" d="M 59.691406 34.3125 L 59.847656 34.5 L 59.691406 34.3125 M 63.230469 34.3125 L 63.382812 34.5 Z M 63.230469 34.3125 "/>
<path style=" stroke:none;fill-rule:nonzero;fill:rgb(83.529412%,40.392157%,52.941176%);fill-opacity:1;" d="M 66.769531 34.3125 L 66.921875 34.5 L 66.769531 34.3125 M 70.617188 34.3125 L 70.769531 34.5 Z M 70.617188 34.3125 "/>
<path style=" stroke:none;fill-rule:nonzero;fill:rgb(79.607843%,81.176471%,40.392157%);fill-opacity:1;" d="M 79.078125 34.3125 L 79.230469 34.5 Z M 79.078125 34.3125 "/>
<path style=" stroke:none;fill-rule:nonzero;fill:rgb(83.529412%,40.392157%,52.941176%);fill-opacity:1;" d="M 80.617188 34.3125 L 80.769531 34.5 Z M 80.617188 34.3125 "/>
<path style=" stroke:none;fill-rule:nonzero;fill:rgb(79.607843%,81.176471%,40.392157%);fill-opacity:1;" d="M 82.769531 34.3125 L 82.921875 34.5 L 82.769531 34.3125 M 86.769531 34.3125 L 86.921875 34.5 Z M 86.769531 34.3125 "/>
<path style=" stroke:none;fill-rule:nonzero;fill:rgb(83.529412%,40.392157%,52.941176%);fill-opacity:1;" d="M 91.230469 34.3125 L 91.382812 34.5 L 91.230469 34.3125 M 94.921875 34.3125 L 95.078125 34.5 Z M 94.921875 34.3125 "/>
<path style=" stroke:none;fill-rule:nonzero;fill:rgb(79.607843%,81.176471%,40.392157%);fill-opacity:1;" d="M 32 34.5 L 32.152344 34.6875 Z M 32 34.5 "/>
<path style=" stroke:none;fill-rule:nonzero;fill:rgb(41.176471%,76.470588%,84.313725%);fill-opacity:1;" d="M 34.617188 34.5 L 34.769531 34.6875 Z M 34.617188 34.5 "/>
<path style=" stroke:none;fill-rule:nonzero;fill:rgb(79.607843%,81.176471%,40.392157%);fill-opacity:1;" d="M 39.078125 34.5 L 39.230469 34.6875 Z M 39.078125 34.5 "/>
<path style=" stroke:none;fill-rule:nonzero;fill:rgb(83.529412%,40.392157%,52.941176%);fill-opacity:1;" d="M 42.460938 34.5 L 42.617188 34.6875 Z M 42.460938 34.5 "/>
<path style=" stroke:none;fill-rule:nonzero;fill:rgb(41.176471%,76.470588%,84.313725%);fill-opacity:1;" d="M 51.230469 34.5 L 51.382812 34.6875 L 51.230469 34.5 M 55.382812 34.5 L 55.539062 34.6875 Z M 55.382812 34.5 "/>
<path style=" stroke:none;fill-rule:nonzero;fill:rgb(83.529412%,40.392157%,52.941176%);fill-opacity:1;" d="M 59.382812 34.5 L 59.539062 34.6875 Z M 59.382812 34.5 "/>
<path style=" stroke:none;fill-rule:nonzero;fill:rgb(41.176471%,76.470588%,84.313725%);fill-opacity:1;" d="M 66.617188 34.5 L 66.769531 34.6875 L 66.617188 34.5 M 70.769531 34.5 L 70.921875 34.6875 Z M 70.769531 34.5 "/>
<path style=" stroke:none;fill-rule:nonzero;fill:rgb(79.607843%,81.176471%,40.392157%);fill-opacity:1;" d="M 74 34.5 L 74.152344 34.6875 Z M 74 34.5 "/>
<path style=" stroke:none;fill-rule:nonzero;fill:rgb(83.529412%,40.392157%,52.941176%);fill-opacity:1;" d="M 75.539062 34.5 L 75.691406 34.6875 L 75.539062 34.5 M 82.460938 34.5 L 82.617188 34.6875 L 82.460938 34.5 M 91.078125 34.5 L 91.230469 34.6875 Z M 91.078125 34.5 "/>
<path style=" stroke:none;fill-rule:nonzero;fill:rgb(41.176471%,76.470588%,84.313725%);fill-opacity:1;" d="M 95.078125 34.5 L 95.230469 34.6875 Z M 95.078125 34.5 "/>
<path style=" stroke:none;fill-rule:nonzero;fill:rgb(83.529412%,40.392157%,52.941176%);fill-opacity:1;" d="M 30.460938 34.6875 L 30.617188 34.875 Z M 30.460938 34.6875 "/>
<path style=" stroke:none;fill-rule:nonzero;fill:rgb(79.607843%,81.176471%,40.392157%);fill-opacity:1;" d="M 34.460938 34.6875 L 34.617188 34.875 L 34.460938 34.6875 M 39.230469 34.6875 L 39.382812 34.875 Z M 39.230469 34.6875 "/>
<path style=" stroke:none;fill-rule:nonzero;fill:rgb(41.176471%,76.470588%,84.313725%);fill-opacity:1;" d="M 42.308594 34.6875 L 42.460938 34.875 L 42.308594 34.6875 M 51.078125 34.6875 L 51.230469 34.875 Z M 51.078125 34.6875 "/>
<path style=" stroke:none;fill-rule:nonzero;fill:rgb(79.607843%,81.176471%,40.392157%);fill-opacity:1;" d="M 55.539062 34.6875 L 55.691406 34.875 L 55.539062 34.6875 M 63.539062 34.6875 L 63.691406 34.875 Z M 63.539062 34.6875 "/>
<path style=" stroke:none;fill-rule:nonzero;fill:rgb(41.176471%,76.470588%,84.313725%);fill-opacity:1;" d="M 66.460938 34.6875 L 66.617188 34.875 L 66.460938 34.6875 M 70.921875 34.6875 L 71.078125 34.875 Z M 70.921875 34.6875 "/>
<path style=" stroke:none;fill-rule:nonzero;fill:rgb(83.529412%,40.392157%,52.941176%);fill-opacity:1;" d="M 74 34.6875 L 74.152344 34.875 Z M 74 34.6875 "/>
<path style=" stroke:none;fill-rule:nonzero;fill:rgb(79.607843%,81.176471%,40.392157%);fill-opacity:1;" d="M 75.539062 34.6875 L 75.691406 34.875 Z M 75.539062 34.6875 "/>
<path style=" stroke:none;fill-rule:nonzero;fill:rgb(83.529412%,40.392157%,52.941176%);fill-opacity:1;" d="M 78.921875 34.6875 L 79.078125 34.875 Z M 78.921875 34.6875 "/>
<path style=" stroke:none;fill-rule:nonzero;fill:rgb(41.176471%,76.470588%,84.313725%);fill-opacity:1;" d="M 80.460938 34.6875 L 80.617188 34.875 Z M 80.460938 34.6875 "/>
<path style=" stroke:none;fill-rule:nonzero;fill:rgb(83.529412%,40.392157%,52.941176%);fill-opacity:1;" d="M 82.308594 34.6875 L 82.460938 34.875 L 82.308594 34.6875 M 87.230469 34.6875 L 87.382812 34.875 Z M 87.230469 34.6875 "/>
<path style=" stroke:none;fill-rule:nonzero;fill:rgb(41.176471%,76.470588%,84.313725%);fill-opacity:1;" d="M 95.230469 34.6875 L 95.382812 34.875 L 95.230469 34.6875 M 32.152344 34.875 L 32.308594 35.0625 Z M 32.152344 34.875 "/>
<path style=" stroke:none;fill-rule:nonzero;fill:rgb(79.607843%,81.176471%,40.392157%);fill-opacity:1;" d="M 34.308594 34.875 L 34.460938 35.0625 L 34.308594 34.875 M 39.382812 34.875 L 39.539062 35.0625 Z M 39.382812 34.875 "/>
<path style=" stroke:none;fill-rule:nonzero;fill:rgb(83.529412%,40.392157%,52.941176%);fill-opacity:1;" d="M 42.152344 34.875 L 42.308594 35.0625 Z M 42.152344 34.875 "/>
<path style=" stroke:none;fill-rule:nonzero;fill:rgb(79.607843%,81.176471%,40.392157%);fill-opacity:1;" d="M 50.921875 34.875 L 51.078125 35.0625 Z M 50.921875 34.875 "/>
<path style=" stroke:none;fill-rule:nonzero;fill:rgb(41.176471%,76.470588%,84.313725%);fill-opacity:1;" d="M 55.691406 34.875 L 55.847656 35.0625 Z M 55.691406 34.875 "/>
<path style=" stroke:none;fill-rule:nonzero;fill:rgb(79.607843%,81.176471%,40.392157%);fill-opacity:1;" d="M 63.691406 34.875 L 63.847656 35.0625 Z M 63.691406 34.875 "/>
<path style=" stroke:none;fill-rule:nonzero;fill:rgb(41.176471%,76.470588%,84.313725%);fill-opacity:1;" d="M 66.308594 34.875 L 66.460938 35.0625 Z M 66.308594 34.875 "/>
<path style=" stroke:none;fill-rule:nonzero;fill:rgb(79.607843%,81.176471%,40.392157%);fill-opacity:1;" d="M 71.078125 34.875 L 71.230469 35.0625 Z M 71.078125 34.875 "/>
<path style=" stroke:none;fill-rule:nonzero;fill:rgb(83.529412%,40.392157%,52.941176%);fill-opacity:1;" d="M 82.152344 34.875 L 82.308594 35.0625 L 82.152344 34.875 M 87.382812 34.875 L 87.539062 35.0625 L 87.382812 34.875 M 95.382812 34.875 L 95.539062 35.0625 L 95.382812 34.875 M 30.617188 35.0625 L 30.769531 35.25 Z M 30.617188 35.0625 "/>
<path style=" stroke:none;fill-rule:nonzero;fill:rgb(41.176471%,76.470588%,84.313725%);fill-opacity:1;" d="M 34.152344 35.0625 L 34.308594 35.25 Z M 34.152344 35.0625 "/>
<path style=" stroke:none;fill-rule:nonzero;fill:rgb(79.607843%,81.176471%,40.392157%);fill-opacity:1;" d="M 36.617188 35.0625 L 36.617188 35.25 L 37.230469 35.25 L 36.617188 35.0625 M 39.539062 35.0625 L 39.691406 35.25 Z M 39.539062 35.0625 "/>
<path style=" stroke:none;fill-rule:nonzero;fill:rgb(83.529412%,40.392157%,52.941176%);fill-opacity:1;" d="M 42 35.0625 L 42.152344 35.25 Z M 42 35.0625 "/>
<path style=" stroke:none;fill-rule:nonzero;fill:rgb(79.607843%,81.176471%,40.392157%);fill-opacity:1;" d="M 44.460938 35.0625 L 44.460938 35.25 L 45.078125 35.25 Z M 44.460938 35.0625 "/>
<path style=" stroke:none;fill-rule:nonzero;fill:rgb(83.529412%,40.392157%,52.941176%);fill-opacity:1;" d="M 55.847656 35.0625 L 56 35.25 L 55.847656 35.0625 M 63.847656 35.0625 L 64 35.25 L 63.847656 35.0625 M 66.152344 35.0625 L 66.308594 35.25 Z M 66.152344 35.0625 "/>
<path style=" stroke:none;fill-rule:nonzero;fill:rgb(41.176471%,76.470588%,84.313725%);fill-opacity:1;" d="M 74.152344 35.0625 L 74.308594 35.25 Z M 74.152344 35.0625 "/>
<path style=" stroke:none;fill-rule:nonzero;fill:rgb(83.529412%,40.392157%,52.941176%);fill-opacity:1;" d="M 75.691406 35.0625 L 75.847656 35.25 Z M 75.691406 35.0625 "/>
<path style=" stroke:none;fill-rule:nonzero;fill:rgb(79.607843%,81.176471%,40.392157%);fill-opacity:1;" d="M 84.460938 35.0625 L 84.460938 35.25 L 85.078125 35.25 Z M 84.460938 35.0625 "/>
<path style=" stroke:none;fill-rule:nonzero;fill:rgb(83.529412%,40.392157%,52.941176%);fill-opacity:1;" d="M 34 35.25 L 34.152344 35.4375 L 34 35.25 M 36.152344 35.25 L 36.308594 35.4375 Z M 36.152344 35.25 "/>
<path style=" stroke:none;fill-rule:nonzero;fill:rgb(1.960784%,1.960784%,15.294118%);fill-opacity:1;" d="M 35.078125 37.3125 L 38.769531 37.3125 C 38.519531 34.566406 35.464844 34.714844 35.078125 37.3125 Z M 35.078125 37.3125 "/>
<path style=" stroke:none;fill-rule:nonzero;fill:rgb(83.529412%,40.392157%,52.941176%);fill-opacity:1;" d="M 37.539062 35.25 L 37.691406 35.4375 L 37.539062 35.25 M 39.691406 35.25 L 39.847656 35.4375 Z M 39.691406 35.25 "/>
<path style=" stroke:none;fill-rule:nonzero;fill:rgb(41.176471%,76.470588%,84.313725%);fill-opacity:1;" d="M 44 35.25 L 44.152344 35.4375 Z M 44 35.25 "/>
<path style=" stroke:none;fill-rule:nonzero;fill:rgb(1.960784%,1.960784%,15.294118%);fill-opacity:1;" d="M 42.921875 37.3125 L 46.617188 37.3125 C 46.355469 34.464844 43.441406 34.828125 42.921875 37.3125 Z M 42.921875 37.3125 "/>
<path style=" stroke:none;fill-rule:nonzero;fill:rgb(83.529412%,40.392157%,52.941176%);fill-opacity:1;" d="M 45.382812 35.25 L 45.539062 35.4375 Z M 45.382812 35.25 "/>
<path style=" stroke:none;fill-rule:nonzero;fill:rgb(79.607843%,81.176471%,40.392157%);fill-opacity:1;" d="M 45.539062 35.25 L 45.691406 35.4375 L 45.539062 35.25 M 47.539062 35.25 L 47.691406 35.4375 L 47.539062 35.25 M 52.308594 35.25 L 52.460938 35.4375 Z M 52.308594 35.25 "/>
<path style=" stroke:none;fill-rule:nonzero;fill:rgb(83.529412%,40.392157%,52.941176%);fill-opacity:1;" d="M 52.460938 35.25 L 52.617188 35.4375 Z M 52.460938 35.25 "/>
<path style=" stroke:none;fill-rule:nonzero;fill:rgb(1.960784%,1.960784%,15.294118%);fill-opacity:1;" d="M 52.617188 35.355469 C 50.082031 36.128906 50.828125 41.597656 53.539062 40.769531 C 56.046875 40.003906 55.335938 34.523438 52.617188 35.355469 Z M 52.617188 35.355469 "/>
<path style=" stroke:none;fill-rule:nonzero;fill:rgb(83.529412%,40.392157%,52.941176%);fill-opacity:1;" d="M 53.539062 35.25 L 53.691406 35.4375 Z M 53.539062 35.25 "/>
<path style=" stroke:none;fill-rule:nonzero;fill:rgb(79.607843%,81.176471%,40.392157%);fill-opacity:1;" d="M 53.691406 35.25 L 53.847656 35.4375 Z M 53.691406 35.25 "/>
<path style=" stroke:none;fill-rule:nonzero;fill:rgb(41.176471%,76.470588%,84.313725%);fill-opacity:1;" d="M 60.460938 35.25 L 60.617188 35.4375 L 60.460938 35.25 M 61.691406 35.25 L 61.847656 35.4375 Z M 61.691406 35.25 "/>
<path style=" stroke:none;fill-rule:nonzero;fill:rgb(79.607843%,81.176471%,40.392157%);fill-opacity:1;" d="M 68.308594 35.25 L 68.460938 35.4375 Z M 68.308594 35.25 "/>
<path style=" stroke:none;fill-rule:nonzero;fill:rgb(83.529412%,40.392157%,52.941176%);fill-opacity:1;" d="M 68.460938 35.25 L 68.617188 35.4375 Z M 68.460938 35.25 "/>
<path style=" stroke:none;fill-rule:nonzero;fill:rgb(1.960784%,1.960784%,15.294118%);fill-opacity:1;" d="M 68.617188 35.355469 C 66.101562 36.125 66.871094 41.527344 69.539062 40.773438 C 72.128906 40.042969 71.332031 34.523438 68.617188 35.355469 Z M 68.617188 35.355469 "/>
<path style=" stroke:none;fill-rule:nonzero;fill:rgb(83.529412%,40.392157%,52.941176%);fill-opacity:1;" d="M 69.539062 35.25 L 69.691406 35.4375 Z M 69.539062 35.25 "/>
<path style=" stroke:none;fill-rule:nonzero;fill:rgb(79.607843%,81.176471%,40.392157%);fill-opacity:1;" d="M 69.691406 35.25 L 69.847656 35.4375 Z M 69.691406 35.25 "/>
<path style=" stroke:none;fill-rule:nonzero;fill:rgb(41.176471%,76.470588%,84.313725%);fill-opacity:1;" d="M 78.769531 35.25 L 78.921875 35.4375 Z M 78.769531 35.25 "/>
<path style=" stroke:none;fill-rule:nonzero;fill:rgb(83.529412%,40.392157%,52.941176%);fill-opacity:1;" d="M 80.308594 35.25 L 80.460938 35.4375 Z M 80.308594 35.25 "/>
<path style=" stroke:none;fill-rule:nonzero;fill:rgb(41.176471%,76.470588%,84.313725%);fill-opacity:1;" d="M 84 35.25 L 84.152344 35.4375 Z M 84 35.25 "/>
<path style=" stroke:none;fill-rule:nonzero;fill:rgb(1.960784%,1.960784%,15.294118%);fill-opacity:1;" d="M 82.921875 37.3125 L 86.617188 37.3125 C 86.355469 34.472656 83.453125 34.835938 82.921875 37.3125 Z M 82.921875 37.3125 "/>
<path style=" stroke:none;fill-rule:nonzero;fill:rgb(83.529412%,40.392157%,52.941176%);fill-opacity:1;" d="M 85.382812 35.25 L 85.539062 35.4375 Z M 85.382812 35.25 "/>
<path style=" stroke:none;fill-rule:nonzero;fill:rgb(79.607843%,81.176471%,40.392157%);fill-opacity:1;" d="M 85.539062 35.25 L 85.691406 35.4375 L 85.539062 35.25 M 87.539062 35.25 L 87.691406 35.4375 L 87.539062 35.25 M 92 35.25 L 92.152344 35.4375 Z M 92 35.25 "/>
<path style=" stroke:none;fill-rule:nonzero;fill:rgb(83.529412%,40.392157%,52.941176%);fill-opacity:1;" d="M 92.152344 35.25 L 92.308594 35.4375 L 92.152344 35.25 M 93.230469 35.25 L 93.382812 35.4375 Z M 93.230469 35.25 "/>
<path style=" stroke:none;fill-rule:nonzero;fill:rgb(41.176471%,76.470588%,84.313725%);fill-opacity:1;" d="M 93.382812 35.25 L 93.539062 35.4375 L 93.382812 35.25 M 95.539062 35.25 L 95.691406 35.4375 Z M 95.539062 35.25 "/>
<path style=" stroke:none;fill-rule:nonzero;fill:rgb(79.607843%,81.176471%,40.392157%);fill-opacity:1;" d="M 30.769531 35.4375 L 30.921875 35.625 Z M 30.769531 35.4375 "/>
<path style=" stroke:none;fill-rule:nonzero;fill:rgb(83.529412%,40.392157%,52.941176%);fill-opacity:1;" d="M 32.308594 35.4375 L 32.460938 35.625 L 32.308594 35.4375 M 35.847656 35.4375 L 36 35.625 L 35.847656 35.4375 M 37.847656 35.4375 L 38 35.625 Z M 37.847656 35.4375 "/>
<path style=" stroke:none;fill-rule:nonzero;fill:rgb(79.607843%,81.176471%,40.392157%);fill-opacity:1;" d="M 41.847656 35.4375 L 42 35.625 Z M 41.847656 35.4375 "/>
<path style=" stroke:none;fill-rule:nonzero;fill:rgb(41.176471%,76.470588%,84.313725%);fill-opacity:1;" d="M 43.691406 35.4375 L 43.847656 35.625 Z M 43.691406 35.4375 "/>
<path style=" stroke:none;fill-rule:nonzero;fill:rgb(79.607843%,81.176471%,40.392157%);fill-opacity:1;" d="M 45.847656 35.4375 L 46 35.625 Z M 45.847656 35.4375 "/>
<path style=" stroke:none;fill-rule:nonzero;fill:rgb(83.529412%,40.392157%,52.941176%);fill-opacity:1;" d="M 47.691406 35.4375 L 47.847656 35.625 Z M 47.691406 35.4375 "/>
<path style=" stroke:none;fill-rule:nonzero;fill:rgb(79.607843%,81.176471%,40.392157%);fill-opacity:1;" d="M 52 35.4375 L 52.152344 35.625 L 52 35.4375 M 54 35.4375 L 54.152344 35.625 Z M 54 35.4375 "/>
<path style=" stroke:none;fill-rule:nonzero;fill:rgb(83.529412%,40.392157%,52.941176%);fill-opacity:1;" d="M 60.152344 35.4375 L 60.308594 35.625 L 60.152344 35.4375 M 62 35.4375 L 62.152344 35.625 L 62 35.4375 M 64 35.4375 L 64.152344 35.625 Z M 64 35.4375 "/>
<path style=" stroke:none;fill-rule:nonzero;fill:rgb(79.607843%,81.176471%,40.392157%);fill-opacity:1;" d="M 66 35.4375 L 66.152344 35.625 L 66 35.4375 M 68 35.4375 L 68.152344 35.625 Z M 68 35.4375 "/>
<path style=" stroke:none;fill-rule:nonzero;fill:rgb(41.176471%,76.470588%,84.313725%);fill-opacity:1;" d="M 70 35.4375 L 70.152344 35.625 L 70 35.4375 M 81.847656 35.4375 L 82 35.625 Z M 81.847656 35.4375 "/>
<path style=" stroke:none;fill-rule:nonzero;fill:rgb(79.607843%,81.176471%,40.392157%);fill-opacity:1;" d="M 83.691406 35.4375 L 83.847656 35.625 L 83.691406 35.4375 M 85.847656 35.4375 L 86 35.625 Z M 85.847656 35.4375 "/>
<path style=" stroke:none;fill-rule:nonzero;fill:rgb(83.529412%,40.392157%,52.941176%);fill-opacity:1;" d="M 87.691406 35.4375 L 87.847656 35.625 Z M 87.691406 35.4375 "/>
<path style=" stroke:none;fill-rule:nonzero;fill:rgb(79.607843%,81.176471%,40.392157%);fill-opacity:1;" d="M 91.691406 35.4375 L 91.847656 35.625 L 91.691406 35.4375 M 93.691406 35.4375 L 93.847656 35.625 Z M 93.691406 35.4375 "/>
<path style=" stroke:none;fill-rule:nonzero;fill:rgb(83.529412%,40.392157%,52.941176%);fill-opacity:1;" d="M 30.769531 35.625 L 30.921875 35.8125 Z M 30.769531 35.625 "/>
<path style=" stroke:none;fill-rule:nonzero;fill:rgb(41.176471%,76.470588%,84.313725%);fill-opacity:1;" d="M 32.308594 35.625 L 32.460938 35.8125 Z M 32.308594 35.625 "/>
<path style=" stroke:none;fill-rule:nonzero;fill:rgb(83.529412%,40.392157%,52.941176%);fill-opacity:1;" d="M 33.847656 35.625 L 34 35.8125 Z M 33.847656 35.625 "/>
<path style=" stroke:none;fill-rule:nonzero;fill:rgb(79.607843%,81.176471%,40.392157%);fill-opacity:1;" d="M 35.539062 35.625 L 35.691406 35.8125 L 35.539062 35.625 M 38.152344 35.625 L 38.308594 35.8125 L 38.152344 35.625 M 39.847656 35.625 L 40 35.8125 Z M 39.847656 35.625 "/>
<path style=" stroke:none;fill-rule:nonzero;fill:rgb(83.529412%,40.392157%,52.941176%);fill-opacity:1;" d="M 43.539062 35.625 L 43.691406 35.8125 L 43.539062 35.625 M 46 35.625 L 46.152344 35.8125 L 46 35.625 M 51.847656 35.625 L 52 35.8125 L 51.847656 35.625 M 56.152344 35.625 L 56.308594 35.8125 Z M 56.152344 35.625 "/>
<path style=" stroke:none;fill-rule:nonzero;fill:rgb(79.607843%,81.176471%,40.392157%);fill-opacity:1;" d="M 59.847656 35.625 L 60 35.8125 L 59.847656 35.625 M 64 35.625 L 64.152344 35.8125 Z M 64 35.625 "/>
<path style=" stroke:none;fill-rule:nonzero;fill:rgb(83.529412%,40.392157%,52.941176%);fill-opacity:1;" d="M 65.847656 35.625 L 66 35.8125 L 65.847656 35.625 M 67.847656 35.625 L 68 35.8125 L 67.847656 35.625 M 74.308594 35.625 L 74.460938 35.8125 Z M 74.308594 35.625 "/>
<path style=" stroke:none;fill-rule:nonzero;fill:rgb(41.176471%,76.470588%,84.313725%);fill-opacity:1;" d="M 75.847656 35.625 L 76 35.8125 Z M 75.847656 35.625 "/>
<path style=" stroke:none;fill-rule:nonzero;fill:rgb(79.607843%,81.176471%,40.392157%);fill-opacity:1;" d="M 80.152344 35.625 L 80.308594 35.8125 Z M 80.152344 35.625 "/>
<path style=" stroke:none;fill-rule:nonzero;fill:rgb(83.529412%,40.392157%,52.941176%);fill-opacity:1;" d="M 83.539062 35.625 L 83.691406 35.8125 L 83.539062 35.625 M 86 35.625 L 86.152344 35.8125 Z M 86 35.625 "/>
<path style=" stroke:none;fill-rule:nonzero;fill:rgb(41.176471%,76.470588%,84.313725%);fill-opacity:1;" d="M 91.539062 35.625 L 91.691406 35.8125 Z M 91.539062 35.625 "/>
<path style=" stroke:none;fill-rule:nonzero;fill:rgb(83.529412%,40.392157%,52.941176%);fill-opacity:1;" d="M 93.847656 35.625 L 94 35.8125 L 93.847656 35.625 M 95.691406 35.625 L 95.847656 35.8125 Z M 95.691406 35.625 "/>
<path style=" stroke:none;fill-rule:nonzero;fill:rgb(79.607843%,81.176471%,40.392157%);fill-opacity:1;" d="M 32.308594 35.8125 L 32.460938 36 L 32.308594 35.8125 M 35.382812 35.8125 L 35.539062 36 Z M 35.382812 35.8125 "/>
<path style=" stroke:none;fill-rule:nonzero;fill:rgb(41.176471%,76.470588%,84.313725%);fill-opacity:1;" d="M 38.308594 35.8125 L 38.460938 36 Z M 38.308594 35.8125 "/>
<path style=" stroke:none;fill-rule:nonzero;fill:rgb(79.607843%,81.176471%,40.392157%);fill-opacity:1;" d="M 41.691406 35.8125 L 41.847656 36 Z M 41.691406 35.8125 "/>
<path style=" stroke:none;fill-rule:nonzero;fill:rgb(83.529412%,40.392157%,52.941176%);fill-opacity:1;" d="M 46.152344 35.8125 L 46.308594 36 L 46.152344 35.8125 M 47.847656 35.8125 L 48 36 Z M 47.847656 35.8125 "/>
<path style=" stroke:none;fill-rule:nonzero;fill:rgb(79.607843%,81.176471%,40.392157%);fill-opacity:1;" d="M 51.539062 35.8125 L 51.691406 36 L 51.539062 35.8125 M 54.460938 35.8125 L 54.617188 36 L 54.460938 35.8125 M 70.460938 35.8125 L 70.617188 36 Z M 70.460938 35.8125 "/>
<path style=" stroke:none;fill-rule:nonzero;fill:rgb(41.176471%,76.470588%,84.313725%);fill-opacity:1;" d="M 78.617188 35.8125 L 78.769531 36 Z M 78.617188 35.8125 "/>
<path style=" stroke:none;fill-rule:nonzero;fill:rgb(83.529412%,40.392157%,52.941176%);fill-opacity:1;" d="M 80.152344 35.8125 L 80.308594 36 Z M 80.152344 35.8125 "/>
<path style=" stroke:none;fill-rule:nonzero;fill:rgb(79.607843%,81.176471%,40.392157%);fill-opacity:1;" d="M 81.691406 35.8125 L 81.847656 36 Z M 81.691406 35.8125 "/>
<path style=" stroke:none;fill-rule:nonzero;fill:rgb(83.529412%,40.392157%,52.941176%);fill-opacity:1;" d="M 83.382812 35.8125 L 83.539062 36 L 83.382812 35.8125 M 86.152344 35.8125 L 86.308594 36 L 86.152344 35.8125 M 87.847656 35.8125 L 88 36 Z M 87.847656 35.8125 "/>
<path style=" stroke:none;fill-rule:nonzero;fill:rgb(79.607843%,81.176471%,40.392157%);fill-opacity:1;" d="M 91.382812 35.8125 L 91.539062 36 Z M 91.382812 35.8125 "/>
<path style=" stroke:none;fill-rule:nonzero;fill:rgb(83.529412%,40.392157%,52.941176%);fill-opacity:1;" d="M 94 35.8125 L 94.152344 36 L 94 35.8125 M 33.691406 36 L 33.847656 36.1875 Z M 33.691406 36 "/>
<path style=" stroke:none;fill-rule:nonzero;fill:rgb(79.607843%,81.176471%,40.392157%);fill-opacity:1;" d="M 38.460938 36 L 38.617188 36.1875 Z M 38.460938 36 "/>
<path style=" stroke:none;fill-rule:nonzero;fill:rgb(41.176471%,76.470588%,84.313725%);fill-opacity:1;" d="M 40 36 L 40.152344 36.1875 Z M 40 36 "/>
<path style=" stroke:none;fill-rule:nonzero;fill:rgb(83.529412%,40.392157%,52.941176%);fill-opacity:1;" d="M 43.230469 36 L 43.382812 36.1875 L 43.230469 36 M 46.308594 36 L 46.460938 36.1875 L 46.308594 36 M 56.308594 36 L 56.460938 36.1875 L 56.308594 36 M 62.460938 36 L 62.617188 36.1875 L 62.460938 36 M 64.152344 36 L 64.308594 36.1875 L 64.152344 36 M 65.691406 36 L 65.847656 36.1875 Z M 65.691406 36 "/>
<path style=" stroke:none;fill-rule:nonzero;fill:rgb(79.607843%,81.176471%,40.392157%);fill-opacity:1;" d="M 74.460938 36 L 74.617188 36.1875 Z M 74.460938 36 "/>
<path style=" stroke:none;fill-rule:nonzero;fill:rgb(83.529412%,40.392157%,52.941176%);fill-opacity:1;" d="M 83.230469 36 L 83.382812 36.1875 L 83.230469 36 M 86.308594 36 L 86.460938 36.1875 Z M 86.308594 36 "/>
<path style=" stroke:none;fill-rule:nonzero;fill:rgb(79.607843%,81.176471%,40.392157%);fill-opacity:1;" d="M 94.152344 36 L 94.308594 36.1875 Z M 94.152344 36 "/>
<path style=" stroke:none;fill-rule:nonzero;fill:rgb(83.529412%,40.392157%,52.941176%);fill-opacity:1;" d="M 35.230469 36.1875 L 35.382812 36.375 Z M 35.230469 36.1875 "/>
<path style=" stroke:none;fill-rule:nonzero;fill:rgb(41.176471%,76.470588%,84.313725%);fill-opacity:1;" d="M 41.539062 36.1875 L 41.691406 36.375 Z M 41.539062 36.1875 "/>
<path style=" stroke:none;fill-rule:nonzero;fill:rgb(79.607843%,81.176471%,40.392157%);fill-opacity:1;" d="M 43.078125 36.1875 L 43.230469 36.375 Z M 43.078125 36.1875 "/>
<path style=" stroke:none;fill-rule:nonzero;fill:rgb(83.529412%,40.392157%,52.941176%);fill-opacity:1;" d="M 48 36.1875 L 48.152344 36.375 Z M 48 36.1875 "/>
<path style=" stroke:none;fill-rule:nonzero;fill:rgb(79.607843%,81.176471%,40.392157%);fill-opacity:1;" d="M 56.308594 36.1875 L 56.460938 36.375 Z M 56.308594 36.1875 "/>
<path style=" stroke:none;fill-rule:nonzero;fill:rgb(41.176471%,76.470588%,84.313725%);fill-opacity:1;" d="M 59.539062 36.1875 L 59.691406 36.375 Z M 59.539062 36.1875 "/>
<path style=" stroke:none;fill-rule:nonzero;fill:rgb(79.607843%,81.176471%,40.392157%);fill-opacity:1;" d="M 62.617188 36.1875 L 62.769531 36.375 Z M 62.617188 36.1875 "/>
<path style=" stroke:none;fill-rule:nonzero;fill:rgb(41.176471%,76.470588%,84.313725%);fill-opacity:1;" d="M 64.152344 36.1875 L 64.308594 36.375 Z M 64.152344 36.1875 "/>
<path style=" stroke:none;fill-rule:nonzero;fill:rgb(79.607843%,81.176471%,40.392157%);fill-opacity:1;" d="M 65.691406 36.1875 L 65.847656 36.375 Z M 65.691406 36.1875 "/>
<path style=" stroke:none;fill-rule:nonzero;fill:rgb(83.529412%,40.392157%,52.941176%);fill-opacity:1;" d="M 67.382812 36.1875 L 67.539062 36.375 L 67.382812 36.1875 M 74.460938 36.1875 L 74.617188 36.375 Z M 74.460938 36.1875 "/>
<path style=" stroke:none;fill-rule:nonzero;fill:rgb(41.176471%,76.470588%,84.313725%);fill-opacity:1;" d="M 76 36.1875 L 76.152344 36.375 Z M 76 36.1875 "/>
<path style=" stroke:none;fill-rule:nonzero;fill:rgb(83.529412%,40.392157%,52.941176%);fill-opacity:1;" d="M 78.460938 36.1875 L 78.617188 36.375 Z M 78.460938 36.1875 "/>
<path style=" stroke:none;fill-rule:nonzero;fill:rgb(41.176471%,76.470588%,84.313725%);fill-opacity:1;" d="M 80 36.1875 L 80.152344 36.375 L 80 36.1875 M 81.539062 36.1875 L 81.691406 36.375 Z M 81.539062 36.1875 "/>
<path style=" stroke:none;fill-rule:nonzero;fill:rgb(79.607843%,81.176471%,40.392157%);fill-opacity:1;" d="M 83.078125 36.1875 L 83.230469 36.375 L 83.078125 36.1875 M 86.460938 36.1875 L 86.617188 36.375 Z M 86.460938 36.1875 "/>
<path style=" stroke:none;fill-rule:nonzero;fill:rgb(83.529412%,40.392157%,52.941176%);fill-opacity:1;" d="M 88 36.1875 L 88.152344 36.375 L 88 36.1875 M 91.230469 36.1875 L 91.382812 36.375 L 91.230469 36.1875 M 95.898438 36.3125 L 95.949219 36.4375 Z M 95.898438 36.3125 "/>
<path style=" stroke:none;fill-rule:nonzero;fill:rgb(79.607843%,81.176471%,40.392157%);fill-opacity:1;" d="M 30.921875 36.375 L 30.921875 37.6875 L 31.078125 37.6875 Z M 30.921875 36.375 "/>
<path style=" stroke:none;fill-rule:nonzero;fill:rgb(41.176471%,76.470588%,84.313725%);fill-opacity:1;" d="M 38.617188 36.375 L 38.769531 36.5625 Z M 38.617188 36.375 "/>
<path style=" stroke:none;fill-rule:nonzero;fill:rgb(83.529412%,40.392157%,52.941176%);fill-opacity:1;" d="M 40.152344 36.375 L 40.308594 36.5625 L 40.152344 36.375 M 46.460938 36.375 L 46.617188 36.5625 Z M 46.460938 36.375 "/>
<path style=" stroke:none;fill-rule:nonzero;fill:rgb(41.176471%,76.470588%,84.313725%);fill-opacity:1;" d="M 48 36.375 L 48.152344 36.5625 L 48 36.375 M 51.230469 36.375 L 51.382812 36.5625 L 51.230469 36.375 M 54.769531 36.375 L 54.921875 36.5625 Z M 54.769531 36.375 "/>
<path style=" stroke:none;fill-rule:nonzero;fill:rgb(83.529412%,40.392157%,52.941176%);fill-opacity:1;" d="M 62.617188 36.375 L 62.769531 36.5625 Z M 62.617188 36.375 "/>
<path style=" stroke:none;fill-rule:nonzero;fill:rgb(79.607843%,81.176471%,40.392157%);fill-opacity:1;" d="M 64.152344 36.375 L 64.308594 36.5625 L 64.152344 36.375 M 67.230469 36.375 L 67.382812 36.5625 Z M 67.230469 36.375 "/>
<path style=" stroke:none;fill-rule:nonzero;fill:rgb(41.176471%,76.470588%,84.313725%);fill-opacity:1;" d="M 70.769531 36.375 L 70.921875 36.5625 L 70.769531 36.375 M 78.460938 36.375 L 78.617188 36.5625 Z M 78.460938 36.375 "/>
<path style=" stroke:none;fill-rule:nonzero;fill:rgb(83.529412%,40.392157%,52.941176%);fill-opacity:1;" d="M 86.460938 36.375 L 86.617188 36.5625 Z M 86.460938 36.375 "/>
<path style=" stroke:none;fill-rule:nonzero;fill:rgb(41.176471%,76.470588%,84.313725%);fill-opacity:1;" d="M 88 36.375 L 88.152344 36.5625 L 88 36.375 M 94.308594 36.375 L 94.460938 36.5625 Z M 94.308594 36.375 "/>
<path style=" stroke:none;fill-rule:nonzero;fill:rgb(83.529412%,40.392157%,52.941176%);fill-opacity:1;" d="M 33.539062 36.5625 L 33.691406 36.75 L 33.539062 36.5625 M 35.078125 36.5625 L 35.230469 36.75 Z M 35.078125 36.5625 "/>
<path style=" stroke:none;fill-rule:nonzero;fill:rgb(41.176471%,76.470588%,84.313725%);fill-opacity:1;" d="M 40.152344 36.5625 L 40.308594 36.75 Z M 40.152344 36.5625 "/>
<path style=" stroke:none;fill-rule:nonzero;fill:rgb(79.607843%,81.176471%,40.392157%);fill-opacity:1;" d="M 42.921875 36.5625 L 43.078125 36.75 Z M 42.921875 36.5625 "/>
<path style=" stroke:none;fill-rule:nonzero;fill:rgb(83.529412%,40.392157%,52.941176%);fill-opacity:1;" d="M 56.460938 36.5625 L 56.617188 36.75 L 56.460938 36.5625 M 65.539062 36.5625 L 65.691406 36.75 Z M 65.539062 36.5625 "/>
<path style=" stroke:none;fill-rule:nonzero;fill:rgb(41.176471%,76.470588%,84.313725%);fill-opacity:1;" d="M 74.617188 36.5625 L 74.769531 36.75 Z M 74.617188 36.5625 "/>
<path style=" stroke:none;fill-rule:nonzero;fill:rgb(83.529412%,40.392157%,52.941176%);fill-opacity:1;" d="M 76.152344 36.5625 L 76.308594 36.75 Z M 76.152344 36.5625 "/>
<path style=" stroke:none;fill-rule:nonzero;fill:rgb(79.607843%,81.176471%,40.392157%);fill-opacity:1;" d="M 79.847656 36.5625 L 80 36.75 L 79.847656 36.5625 M 82.921875 36.5625 L 83.078125 36.75 Z M 82.921875 36.5625 "/>
<path style=" stroke:none;fill-rule:nonzero;fill:rgb(41.176471%,76.470588%,84.313725%);fill-opacity:1;" d="M 91.078125 36.5625 L 91.230469 36.75 Z M 91.078125 36.5625 "/>
<path style=" stroke:none;fill-rule:nonzero;fill:rgb(83.529412%,40.392157%,52.941176%);fill-opacity:1;" d="M 94.308594 36.5625 L 94.460938 36.75 Z M 94.308594 36.5625 "/>
<path style=" stroke:none;fill-rule:nonzero;fill:rgb(79.607843%,81.176471%,40.392157%);fill-opacity:1;" d="M 95.847656 36.5625 L 95.847656 37.125 L 96 37.125 L 95.847656 36.5625 M 33.539062 36.75 L 33.691406 36.9375 L 33.539062 36.75 M 40.152344 36.75 L 40.308594 36.9375 Z M 40.152344 36.75 "/>
<path style=" stroke:none;fill-rule:nonzero;fill:rgb(83.529412%,40.392157%,52.941176%);fill-opacity:1;" d="M 41.382812 36.75 L 41.539062 36.9375 L 41.382812 36.75 M 42.921875 36.75 L 43.078125 36.9375 Z M 42.921875 36.75 "/>
<path style=" stroke:none;fill-rule:nonzero;fill:rgb(79.607843%,81.176471%,40.392157%);fill-opacity:1;" d="M 46.617188 36.75 L 46.769531 36.9375 Z M 46.617188 36.75 "/>
<path style=" stroke:none;fill-rule:nonzero;fill:rgb(41.176471%,76.470588%,84.313725%);fill-opacity:1;" d="M 51.078125 36.75 L 51.230469 36.9375 L 51.078125 36.75 M 54.921875 36.75 L 55.078125 36.9375 Z M 54.921875 36.75 "/>
<path style=" stroke:none;fill-rule:nonzero;fill:rgb(79.607843%,81.176471%,40.392157%);fill-opacity:1;" d="M 56.460938 36.75 L 56.617188 36.9375 Z M 56.460938 36.75 "/>
<path style=" stroke:none;fill-rule:nonzero;fill:rgb(41.176471%,76.470588%,84.313725%);fill-opacity:1;" d="M 59.382812 36.75 L 59.539062 36.9375 Z M 59.382812 36.75 "/>
<path style=" stroke:none;fill-rule:nonzero;fill:rgb(79.607843%,81.176471%,40.392157%);fill-opacity:1;" d="M 62.769531 36.75 L 62.921875 36.9375 Z M 62.769531 36.75 "/>
<path style=" stroke:none;fill-rule:nonzero;fill:rgb(41.176471%,76.470588%,84.313725%);fill-opacity:1;" d="M 65.539062 36.75 L 65.691406 36.9375 Z M 65.539062 36.75 "/>
<path style=" stroke:none;fill-rule:nonzero;fill:rgb(79.607843%,81.176471%,40.392157%);fill-opacity:1;" d="M 67.078125 36.75 L 67.230469 36.9375 Z M 67.078125 36.75 "/>
<path style=" stroke:none;fill-rule:nonzero;fill:rgb(41.176471%,76.470588%,84.313725%);fill-opacity:1;" d="M 70.921875 36.75 L 71.078125 36.9375 L 70.921875 36.75 M 76.152344 36.75 L 76.308594 36.9375 Z M 76.152344 36.75 "/>
<path style=" stroke:none;fill-rule:nonzero;fill:rgb(83.529412%,40.392157%,52.941176%);fill-opacity:1;" d="M 78.308594 36.75 L 78.460938 36.9375 L 78.308594 36.75 M 79.847656 36.75 L 80 36.9375 L 79.847656 36.75 M 81.382812 36.75 L 81.539062 36.9375 L 81.382812 36.75 M 82.921875 36.75 L 83.078125 36.9375 Z M 82.921875 36.75 "/>
<path style=" stroke:none;fill-rule:nonzero;fill:rgb(41.176471%,76.470588%,84.313725%);fill-opacity:1;" d="M 86.617188 36.75 L 86.769531 36.9375 Z M 86.617188 36.75 "/>
<path style=" stroke:none;fill-rule:nonzero;fill:rgb(83.529412%,40.392157%,52.941176%);fill-opacity:1;" d="M 91.078125 36.75 L 91.230469 36.9375 Z M 91.078125 36.75 "/>
<path style=" stroke:none;fill-rule:nonzero;fill:rgb(79.607843%,81.176471%,40.392157%);fill-opacity:1;" d="M 34.972656 37.0625 L 35.027344 37.1875 L 34.972656 37.0625 M 38.820312 37.0625 L 38.871094 37.1875 L 38.820312 37.0625 M 41.382812 36.9375 L 41.539062 37.125 Z M 41.382812 36.9375 "/>
<path style=" stroke:none;fill-rule:nonzero;fill:rgb(83.529412%,40.392157%,52.941176%);fill-opacity:1;" d="M 46.617188 36.9375 L 46.769531 37.125 L 46.617188 36.9375 M 59.382812 36.9375 L 59.539062 37.125 Z M 59.382812 36.9375 "/>
<path style=" stroke:none;fill-rule:nonzero;fill:rgb(41.176471%,76.470588%,84.313725%);fill-opacity:1;" d="M 62.769531 36.9375 L 62.921875 37.125 Z M 62.769531 36.9375 "/>
<path style=" stroke:none;fill-rule:nonzero;fill:rgb(79.607843%,81.176471%,40.392157%);fill-opacity:1;" d="M 65.539062 36.9375 L 65.691406 37.125 Z M 65.539062 36.9375 "/>
<path style=" stroke:none;fill-rule:nonzero;fill:rgb(83.529412%,40.392157%,52.941176%);fill-opacity:1;" d="M 67.078125 36.9375 L 67.230469 37.125 Z M 67.078125 36.9375 "/>
<path style=" stroke:none;fill-rule:nonzero;fill:rgb(79.607843%,81.176471%,40.392157%);fill-opacity:1;" d="M 74.769531 36.9375 L 74.921875 37.125 Z M 74.769531 36.9375 "/>
<path style=" stroke:none;fill-rule:nonzero;fill:rgb(41.176471%,76.470588%,84.313725%);fill-opacity:1;" d="M 78.308594 36.9375 L 78.460938 37.125 L 78.308594 36.9375 M 81.382812 36.9375 L 81.539062 37.125 Z M 81.382812 36.9375 "/>
<path style=" stroke:none;fill-rule:nonzero;fill:rgb(83.529412%,40.392157%,52.941176%);fill-opacity:1;" d="M 86.617188 36.9375 L 86.769531 37.125 L 86.617188 36.9375 M 88.152344 36.9375 L 88.152344 37.5 L 88.308594 37.5 Z M 88.152344 36.9375 "/>
<path style=" stroke:none;fill-rule:nonzero;fill:rgb(79.607843%,81.176471%,40.392157%);fill-opacity:1;" d="M 94.460938 36.9375 C 94.460938 39.097656 93.691406 42.371094 96 42.375 L 96 42.1875 L 94.617188 42.1875 Z M 94.460938 36.9375 "/>
<path style=" stroke:none;fill-rule:nonzero;fill:rgb(41.176471%,76.470588%,84.313725%);fill-opacity:1;" d="M 46.617188 37.125 L 46.769531 37.3125 Z M 46.617188 37.125 "/>
<path style=" stroke:none;fill-rule:nonzero;fill:rgb(83.529412%,40.392157%,52.941176%);fill-opacity:1;" d="M 48.152344 37.125 L 48.152344 38.625 L 48.308594 38.625 L 48.152344 37.125 M 62.820312 37.25 L 62.871094 37.375 L 62.820312 37.25 M 74.769531 37.125 L 74.921875 37.3125 L 74.769531 37.125 M 76.308594 37.125 L 76.460938 37.3125 Z M 76.308594 37.125 "/>
<path style=" stroke:none;fill-rule:nonzero;fill:rgb(41.176471%,76.470588%,84.313725%);fill-opacity:1;" d="M 79.691406 37.125 L 79.847656 37.3125 Z M 79.691406 37.125 "/>
<path style=" stroke:none;fill-rule:nonzero;fill:rgb(79.607843%,81.176471%,40.392157%);fill-opacity:1;" d="M 81.382812 37.125 L 81.539062 37.3125 Z M 81.382812 37.125 "/>
<path style=" stroke:none;fill-rule:nonzero;fill:rgb(41.176471%,76.470588%,84.313725%);fill-opacity:1;" d="M 86.617188 37.125 L 86.769531 37.3125 Z M 86.617188 37.125 "/>
<path style=" stroke:none;fill-rule:nonzero;fill:rgb(79.607843%,81.176471%,40.392157%);fill-opacity:1;" d="M 50.921875 37.3125 L 51.078125 37.5 L 50.921875 37.3125 M 55.078125 37.3125 L 55.230469 37.5 L 55.078125 37.3125 M 66.972656 37.4375 L 67.027344 37.5625 L 66.972656 37.4375 M 71.078125 37.3125 L 71.230469 37.5 Z M 71.078125 37.3125 "/>
<path style=" stroke:none;fill-rule:nonzero;fill:rgb(41.176471%,76.470588%,84.313725%);fill-opacity:1;" d="M 76.308594 37.3125 L 76.460938 37.5 Z M 76.308594 37.3125 "/>
<path style=" stroke:none;fill-rule:nonzero;fill:rgb(83.529412%,40.392157%,52.941176%);fill-opacity:1;" d="M 78.152344 37.3125 L 78.308594 37.5 L 78.152344 37.3125 M 50.921875 37.5 L 50.921875 38.625 L 51.078125 38.625 L 50.921875 37.5 M 55.078125 37.5 L 55.078125 38.4375 L 55.230469 38.4375 L 55.078125 37.5 M 71.128906 37.625 L 71.179688 37.75 Z M 71.128906 37.625 "/>
<path style=" stroke:none;fill-rule:nonzero;fill:rgb(79.607843%,81.176471%,40.392157%);fill-opacity:1;" d="M 74.921875 37.5 L 75.078125 37.6875 L 74.921875 37.5 M 78.152344 37.5 L 78.308594 37.6875 Z M 78.152344 37.5 "/>
<path style=" stroke:none;fill-rule:nonzero;fill:rgb(41.176471%,76.470588%,84.313725%);fill-opacity:1;" d="M 88.152344 37.5 L 88.308594 37.6875 Z M 88.152344 37.5 "/>
<path style=" stroke:none;fill-rule:nonzero;fill:rgb(83.529412%,40.392157%,52.941176%);fill-opacity:1;" d="M 33.382812 37.6875 L 33.382812 38.4375 L 33.539062 38.4375 L 33.382812 37.6875 M 66.921875 37.6875 L 66.921875 38.25 L 67.078125 38.25 L 66.921875 37.6875 M 74.921875 37.6875 L 75.078125 37.875 L 74.921875 37.6875 M 76.460938 37.6875 L 76.617188 37.875 L 76.460938 37.6875 M 79.539062 37.6875 L 79.691406 37.875 Z M 79.539062 37.6875 "/>
<path style=" stroke:none;fill-rule:nonzero;fill:rgb(79.607843%,81.176471%,40.392157%);fill-opacity:1;" d="M 88.203125 37.8125 L 88.257812 37.9375 L 88.203125 37.8125 M 32.359375 38 L 32.410156 38.125 L 32.359375 38 M 76.460938 37.875 L 76.617188 38.0625 Z M 76.460938 37.875 "/>
<path style=" stroke:none;fill-rule:nonzero;fill:rgb(83.529412%,40.392157%,52.941176%);fill-opacity:1;" d="M 78 37.875 L 78.152344 38.0625 Z M 78 37.875 "/>
<path style=" stroke:none;fill-rule:nonzero;fill:rgb(41.176471%,76.470588%,84.313725%);fill-opacity:1;" d="M 75.078125 38.0625 L 75.230469 38.25 Z M 75.078125 38.0625 "/>
<path style=" stroke:none;fill-rule:nonzero;fill:rgb(79.607843%,81.176471%,40.392157%);fill-opacity:1;" d="M 78 38.0625 L 78.152344 38.25 L 78 38.0625 M 79.382812 38.0625 L 79.539062 38.25 Z M 79.382812 38.0625 "/>
<path style=" stroke:none;fill-rule:nonzero;fill:rgb(41.176471%,76.470588%,84.313725%);fill-opacity:1;" d="M 88.152344 38.0625 L 88.308594 38.25 L 88.152344 38.0625 M 30.769531 38.25 L 30.921875 38.4375 Z M 30.769531 38.25 "/>
<path style=" stroke:none;fill-rule:nonzero;fill:rgb(83.529412%,40.392157%,52.941176%);fill-opacity:1;" d="M 32.308594 38.25 L 32.460938 38.4375 Z M 32.308594 38.25 "/>
<path style=" stroke:none;fill-rule:nonzero;fill:rgb(41.176471%,76.470588%,84.313725%);fill-opacity:1;" d="M 66.921875 38.25 L 67.078125 38.4375 Z M 66.921875 38.25 "/>
<path style=" stroke:none;fill-rule:nonzero;fill:rgb(83.529412%,40.392157%,52.941176%);fill-opacity:1;" d="M 71.128906 38.375 L 71.179688 38.5 L 71.128906 38.375 M 76.617188 38.25 L 76.769531 38.4375 L 76.617188 38.25 M 79.382812 38.25 L 79.539062 38.4375 L 79.382812 38.25 M 88.203125 38.375 L 88.257812 38.5 Z M 88.203125 38.375 "/>
<path style=" stroke:none;fill-rule:nonzero;fill:rgb(79.607843%,81.176471%,40.392157%);fill-opacity:1;" d="M 30.769531 38.4375 L 30.921875 38.625 Z M 30.769531 38.4375 "/>
<path style=" stroke:none;fill-rule:nonzero;fill:rgb(41.176471%,76.470588%,84.313725%);fill-opacity:1;" d="M 55.078125 38.4375 L 55.230469 38.625 Z M 55.078125 38.4375 "/>
<path style=" stroke:none;fill-rule:nonzero;fill:rgb(79.607843%,81.176471%,40.392157%);fill-opacity:1;" d="M 66.921875 38.4375 L 67.078125 38.625 L 66.921875 38.4375 M 75.230469 38.4375 L 75.382812 38.625 L 75.230469 38.4375 M 76.617188 38.4375 L 76.769531 38.625 Z M 76.617188 38.4375 "/>
<path style=" stroke:none;fill-rule:nonzero;fill:rgb(83.529412%,40.392157%,52.941176%);fill-opacity:1;" d="M 77.847656 38.4375 L 78 38.625 Z M 77.847656 38.4375 "/>
<path style=" stroke:none;fill-rule:nonzero;fill:rgb(79.607843%,81.176471%,40.392157%);fill-opacity:1;" d="M 34.921875 38.625 L 35.078125 38.8125 Z M 34.921875 38.625 "/>
<path style=" stroke:none;fill-rule:nonzero;fill:rgb(83.529412%,40.392157%,52.941176%);fill-opacity:1;" d="M 35.078125 38.625 L 35.078125 38.8125 L 40.308594 38.8125 L 35.078125 38.625 M 42.921875 38.625 L 42.921875 38.8125 L 48.152344 38.8125 Z M 42.921875 38.625 "/>
<path style=" stroke:none;fill-rule:nonzero;fill:rgb(79.607843%,81.176471%,40.392157%);fill-opacity:1;" d="M 50.921875 38.625 L 51.078125 38.8125 L 50.921875 38.625 M 55.078125 38.625 L 55.230469 38.8125 L 55.078125 38.625 M 71.078125 38.625 L 71.230469 38.8125 Z M 71.078125 38.625 "/>
<path style=" stroke:none;fill-rule:nonzero;fill:rgb(83.529412%,40.392157%,52.941176%);fill-opacity:1;" d="M 75.230469 38.625 L 75.382812 38.8125 Z M 75.230469 38.625 "/>
<path style=" stroke:none;fill-rule:nonzero;fill:rgb(79.607843%,81.176471%,40.392157%);fill-opacity:1;" d="M 77.847656 38.625 L 78 38.8125 Z M 77.847656 38.625 "/>
<path style=" stroke:none;fill-rule:nonzero;fill:rgb(41.176471%,76.470588%,84.313725%);fill-opacity:1;" d="M 79.230469 38.625 L 79.382812 38.8125 Z M 79.230469 38.625 "/>
<path style=" stroke:none;fill-rule:nonzero;fill:rgb(83.529412%,40.392157%,52.941176%);fill-opacity:1;" d="M 82.921875 38.625 L 82.921875 38.8125 L 88.152344 38.8125 Z M 82.921875 38.625 "/>
<path style=" stroke:none;fill-rule:nonzero;fill:rgb(41.176471%,76.470588%,84.313725%);fill-opacity:1;" d="M 30.617188 38.8125 L 30.769531 39 Z M 30.617188 38.8125 "/>
<path style=" stroke:none;fill-rule:nonzero;fill:rgb(79.607843%,81.176471%,40.392157%);fill-opacity:1;" d="M 32.152344 38.8125 L 32.308594 39 Z M 32.152344 38.8125 "/>
<path style=" stroke:none;fill-rule:nonzero;fill:rgb(41.176471%,76.470588%,84.313725%);fill-opacity:1;" d="M 34.921875 38.8125 L 35.078125 39 Z M 34.921875 38.8125 "/>
<path style=" stroke:none;fill-rule:nonzero;fill:rgb(79.607843%,81.176471%,40.392157%);fill-opacity:1;" d="M 41.4375 38.9375 L 41.488281 39.0625 Z M 41.4375 38.9375 "/>
<path style=" stroke:none;fill-rule:nonzero;fill:rgb(83.529412%,40.392157%,52.941176%);fill-opacity:1;" d="M 76.769531 38.8125 L 76.921875 39 Z M 76.769531 38.8125 "/>
<path style=" stroke:none;fill-rule:nonzero;fill:rgb(79.607843%,81.176471%,40.392157%);fill-opacity:1;" d="M 81.382812 38.8125 L 81.539062 39 Z M 81.382812 38.8125 "/>
<path style=" stroke:none;fill-rule:nonzero;fill:rgb(83.529412%,40.392157%,52.941176%);fill-opacity:1;" d="M 32.152344 39 L 32.308594 39.1875 Z M 32.152344 39 "/>
<path style=" stroke:none;fill-rule:nonzero;fill:rgb(79.607843%,81.176471%,40.392157%);fill-opacity:1;" d="M 34.921875 39 L 35.078125 39.1875 Z M 34.921875 39 "/>
<path style=" stroke:none;fill-rule:nonzero;fill:rgb(83.529412%,40.392157%,52.941176%);fill-opacity:1;" d="M 54.921875 39 L 55.078125 39.1875 Z M 54.921875 39 "/>
<path style=" stroke:none;fill-rule:nonzero;fill:rgb(79.607843%,81.176471%,40.392157%);fill-opacity:1;" d="M 56.460938 39 L 56.617188 39.1875 L 56.460938 39 M 65.539062 39 L 65.691406 39.1875 Z M 65.539062 39 "/>
<path style=" stroke:none;fill-rule:nonzero;fill:rgb(83.529412%,40.392157%,52.941176%);fill-opacity:1;" d="M 67.078125 39 L 67.230469 39.1875 Z M 67.078125 39 "/>
<path style=" stroke:none;fill-rule:nonzero;fill:rgb(41.176471%,76.470588%,84.313725%);fill-opacity:1;" d="M 75.382812 39 L 75.539062 39.1875 Z M 75.382812 39 "/>
<path style=" stroke:none;fill-rule:nonzero;fill:rgb(79.607843%,81.176471%,40.392157%);fill-opacity:1;" d="M 76.769531 39 L 76.921875 39.1875 Z M 76.769531 39 "/>
<path style=" stroke:none;fill-rule:nonzero;fill:rgb(83.529412%,40.392157%,52.941176%);fill-opacity:1;" d="M 77.691406 39 L 77.847656 39.1875 Z M 77.691406 39 "/>
<path style=" stroke:none;fill-rule:nonzero;fill:rgb(41.176471%,76.470588%,84.313725%);fill-opacity:1;" d="M 81.382812 39 L 81.539062 39.1875 Z M 81.382812 39 "/>
<path style=" stroke:none;fill-rule:nonzero;fill:rgb(79.607843%,81.176471%,40.392157%);fill-opacity:1;" d="M 30.460938 39.1875 L 30.617188 39.375 L 30.460938 39.1875 M 33.539062 39.1875 L 33.691406 39.375 Z M 33.539062 39.1875 "/>
<path style=" stroke:none;fill-rule:nonzero;fill:rgb(83.529412%,40.392157%,52.941176%);fill-opacity:1;" d="M 41.382812 39.1875 L 41.539062 39.375 L 41.382812 39.1875 M 42.921875 39.1875 L 43.078125 39.375 Z M 42.921875 39.1875 "/>
<path style=" stroke:none;fill-rule:nonzero;fill:rgb(41.176471%,76.470588%,84.313725%);fill-opacity:1;" d="M 51.078125 39.1875 L 51.230469 39.375 Z M 51.078125 39.1875 "/>
<path style=" stroke:none;fill-rule:nonzero;fill:rgb(79.607843%,81.176471%,40.392157%);fill-opacity:1;" d="M 54.921875 39.1875 L 55.078125 39.375 Z M 54.921875 39.1875 "/>
<path style=" stroke:none;fill-rule:nonzero;fill:rgb(41.176471%,76.470588%,84.313725%);fill-opacity:1;" d="M 56.460938 39.1875 L 56.617188 39.375 L 56.460938 39.1875 M 65.539062 39.1875 L 65.691406 39.375 Z M 65.539062 39.1875 "/>
<path style=" stroke:none;fill-rule:nonzero;fill:rgb(79.607843%,81.176471%,40.392157%);fill-opacity:1;" d="M 67.078125 39.1875 L 67.230469 39.375 Z M 67.078125 39.1875 "/>
<path style=" stroke:none;fill-rule:nonzero;fill:rgb(41.176471%,76.470588%,84.313725%);fill-opacity:1;" d="M 70.921875 39.1875 L 71.078125 39.375 Z M 70.921875 39.1875 "/>
<path style=" stroke:none;fill-rule:nonzero;fill:rgb(83.529412%,40.392157%,52.941176%);fill-opacity:1;" d="M 75.382812 39.1875 L 75.539062 39.375 Z M 75.382812 39.1875 "/>
<path style=" stroke:none;fill-rule:nonzero;fill:rgb(79.607843%,81.176471%,40.392157%);fill-opacity:1;" d="M 77.691406 39.1875 L 77.847656 39.375 Z M 77.691406 39.1875 "/>
<path style=" stroke:none;fill-rule:nonzero;fill:rgb(83.529412%,40.392157%,52.941176%);fill-opacity:1;" d="M 79.078125 39.1875 L 79.230469 39.375 L 79.078125 39.1875 M 81.382812 39.1875 L 81.539062 39.375 L 81.382812 39.1875 M 82.921875 39.1875 L 83.078125 39.375 L 82.921875 39.1875 M 30.308594 39.375 L 30.460938 39.5625 L 30.308594 39.375 M 32 39.375 L 32.152344 39.5625 L 32 39.375 M 33.539062 39.375 L 33.691406 39.5625 L 33.539062 39.375 M 35.078125 39.375 L 35.230469 39.5625 Z M 35.078125 39.375 "/>
<path style=" stroke:none;fill-rule:nonzero;fill:rgb(41.176471%,76.470588%,84.313725%);fill-opacity:1;" d="M 42.921875 39.375 L 43.078125 39.5625 Z M 42.921875 39.375 "/>
<path style=" stroke:none;fill-rule:nonzero;fill:rgb(83.529412%,40.392157%,52.941176%);fill-opacity:1;" d="M 56.460938 39.375 L 56.617188 39.5625 L 56.460938 39.375 M 65.539062 39.375 L 65.691406 39.5625 L 65.539062 39.375 M 76.921875 39.375 L 77.078125 39.5625 Z M 76.921875 39.375 "/>
<path style=" stroke:none;fill-rule:nonzero;fill:rgb(79.607843%,81.176471%,40.392157%);fill-opacity:1;" d="M 82.921875 39.375 L 83.078125 39.5625 Z M 82.921875 39.375 "/>
<path style=" stroke:none;fill-rule:nonzero;fill:rgb(41.176471%,76.470588%,84.313725%);fill-opacity:1;" d="M 51.230469 39.5625 L 51.382812 39.75 Z M 51.230469 39.5625 "/>
<path style=" stroke:none;fill-rule:nonzero;fill:rgb(79.607843%,81.176471%,40.392157%);fill-opacity:1;" d="M 54.769531 39.5625 L 54.921875 39.75 L 54.769531 39.5625 M 67.230469 39.5625 L 67.382812 39.75 Z M 67.230469 39.5625 "/>
<path style=" stroke:none;fill-rule:nonzero;fill:rgb(41.176471%,76.470588%,84.313725%);fill-opacity:1;" d="M 70.769531 39.5625 L 70.921875 39.75 Z M 70.769531 39.5625 "/>
<path style=" stroke:none;fill-rule:nonzero;fill:rgb(83.529412%,40.392157%,52.941176%);fill-opacity:1;" d="M 75.539062 39.5625 L 75.691406 39.75 Z M 75.539062 39.5625 "/>
<path style=" stroke:none;fill-rule:nonzero;fill:rgb(41.176471%,76.470588%,84.313725%);fill-opacity:1;" d="M 77.539062 39.5625 L 77.691406 39.75 Z M 77.539062 39.5625 "/>
<path style=" stroke:none;fill-rule:nonzero;fill:rgb(79.607843%,81.176471%,40.392157%);fill-opacity:1;" d="M 78.921875 39.5625 L 79.078125 39.75 L 78.921875 39.5625 M 81.539062 39.5625 L 81.691406 39.75 Z M 81.539062 39.5625 "/>
<path style=" stroke:none;fill-rule:nonzero;fill:rgb(83.529412%,40.392157%,52.941176%);fill-opacity:1;" d="M 31.847656 39.75 L 32 39.9375 Z M 31.847656 39.75 "/>
<path style=" stroke:none;fill-rule:nonzero;fill:rgb(79.607843%,81.176471%,40.392157%);fill-opacity:1;" d="M 33.691406 39.75 L 33.847656 39.9375 Z M 33.691406 39.75 "/>
<path style=" stroke:none;fill-rule:nonzero;fill:rgb(83.529412%,40.392157%,52.941176%);fill-opacity:1;" d="M 35.230469 39.75 L 35.382812 39.9375 L 35.230469 39.75 M 38.460938 39.75 L 38.617188 39.9375 Z M 38.460938 39.75 "/>
<path style=" stroke:none;fill-rule:nonzero;fill:rgb(41.176471%,76.470588%,84.313725%);fill-opacity:1;" d="M 41.539062 39.75 L 41.691406 39.9375 Z M 41.539062 39.75 "/>
<path style=" stroke:none;fill-rule:nonzero;fill:rgb(79.607843%,81.176471%,40.392157%);fill-opacity:1;" d="M 43.078125 39.75 L 43.230469 39.9375 Z M 43.078125 39.75 "/>
<path style=" stroke:none;fill-rule:nonzero;fill:rgb(83.529412%,40.392157%,52.941176%);fill-opacity:1;" d="M 54.617188 39.75 L 54.769531 39.9375 Z M 54.617188 39.75 "/>
<path style=" stroke:none;fill-rule:nonzero;fill:rgb(79.607843%,81.176471%,40.392157%);fill-opacity:1;" d="M 56.308594 39.75 L 56.460938 39.9375 Z M 56.308594 39.75 "/>
<path style=" stroke:none;fill-rule:nonzero;fill:rgb(41.176471%,76.470588%,84.313725%);fill-opacity:1;" d="M 65.691406 39.75 L 65.847656 39.9375 Z M 65.691406 39.75 "/>
<path style=" stroke:none;fill-rule:nonzero;fill:rgb(83.529412%,40.392157%,52.941176%);fill-opacity:1;" d="M 67.382812 39.75 L 67.539062 39.9375 L 67.382812 39.75 M 78.921875 39.75 L 79.078125 39.9375 L 78.921875 39.75 M 81.539062 39.75 L 81.691406 39.9375 Z M 81.539062 39.75 "/>
<path style=" stroke:none;fill-rule:nonzero;fill:rgb(79.607843%,81.176471%,40.392157%);fill-opacity:1;" d="M 83.078125 39.75 L 83.230469 39.9375 Z M 83.078125 39.75 "/>
<path style=" stroke:none;fill-rule:nonzero;fill:rgb(83.529412%,40.392157%,52.941176%);fill-opacity:1;" d="M 88 39.75 L 88.152344 39.9375 Z M 88 39.75 "/>
<path style=" stroke:none;fill-rule:nonzero;fill:rgb(79.607843%,81.176471%,40.392157%);fill-opacity:1;" d="M 31.691406 39.9375 L 31.847656 40.125 Z M 31.691406 39.9375 "/>
<path style=" stroke:none;fill-rule:nonzero;fill:rgb(83.529412%,40.392157%,52.941176%);fill-opacity:1;" d="M 33.691406 39.9375 L 33.847656 40.125 Z M 33.691406 39.9375 "/>
<path style=" stroke:none;fill-rule:nonzero;fill:rgb(41.176471%,76.470588%,84.313725%);fill-opacity:1;" d="M 40 39.9375 L 40.152344 40.125 Z M 40 39.9375 "/>
<path style=" stroke:none;fill-rule:nonzero;fill:rgb(83.529412%,40.392157%,52.941176%);fill-opacity:1;" d="M 43.230469 39.9375 L 43.382812 40.125 Z M 43.230469 39.9375 "/>
<path style=" stroke:none;fill-rule:nonzero;fill:rgb(79.607843%,81.176471%,40.392157%);fill-opacity:1;" d="M 46.308594 39.9375 L 46.460938 40.125 Z M 46.308594 39.9375 "/>
<path style=" stroke:none;fill-rule:nonzero;fill:rgb(83.529412%,40.392157%,52.941176%);fill-opacity:1;" d="M 67.539062 39.9375 L 67.691406 40.125 Z M 67.539062 39.9375 "/>
<path style=" stroke:none;fill-rule:nonzero;fill:rgb(79.607843%,81.176471%,40.392157%);fill-opacity:1;" d="M 75.691406 39.9375 L 75.847656 40.125 Z M 75.691406 39.9375 "/>
<path style=" stroke:none;fill-rule:nonzero;fill:rgb(41.176471%,76.470588%,84.313725%);fill-opacity:1;" d="M 77.078125 39.9375 L 77.230469 40.125 Z M 77.078125 39.9375 "/>
<path style=" stroke:none;fill-rule:nonzero;fill:rgb(83.529412%,40.392157%,52.941176%);fill-opacity:1;" d="M 83.230469 39.9375 L 83.382812 40.125 Z M 83.230469 39.9375 "/>
<path style=" stroke:none;fill-rule:nonzero;fill:rgb(79.607843%,81.176471%,40.392157%);fill-opacity:1;" d="M 86.308594 39.9375 L 86.460938 40.125 L 86.308594 39.9375 M 3.847656 40.125 L 3.847656 46.125 L 13.691406 46.125 L 13.691406 40.125 Z M 3.847656 40.125 "/>
<path style=" stroke:none;fill-rule:nonzero;fill:rgb(83.529412%,40.392157%,52.941176%);fill-opacity:1;" d="M 29.691406 40.125 L 29.847656 40.3125 Z M 29.691406 40.125 "/>
<path style=" stroke:none;fill-rule:nonzero;fill:rgb(79.607843%,81.176471%,40.392157%);fill-opacity:1;" d="M 35.382812 40.125 L 35.539062 40.3125 L 35.382812 40.125 M 38.308594 40.125 L 38.460938 40.3125 L 38.308594 40.125 M 41.691406 40.125 L 41.847656 40.3125 Z M 41.691406 40.125 "/>
<path style=" stroke:none;fill-rule:nonzero;fill:rgb(41.176471%,76.470588%,84.313725%);fill-opacity:1;" d="M 46.152344 40.125 L 46.308594 40.3125 Z M 46.152344 40.125 "/>
<path style=" stroke:none;fill-rule:nonzero;fill:rgb(83.529412%,40.392157%,52.941176%);fill-opacity:1;" d="M 47.847656 40.125 L 48 40.3125 Z M 47.847656 40.125 "/>
<path style=" stroke:none;fill-rule:nonzero;fill:rgb(79.607843%,81.176471%,40.392157%);fill-opacity:1;" d="M 51.539062 40.125 L 51.691406 40.3125 L 51.539062 40.125 M 65.847656 40.125 L 66 40.3125 L 65.847656 40.125 M 70.460938 40.125 L 70.617188 40.3125 Z M 70.460938 40.125 "/>
<path style=" stroke:none;fill-rule:nonzero;fill:rgb(83.529412%,40.392157%,52.941176%);fill-opacity:1;" d="M 75.691406 40.125 L 75.847656 40.3125 Z M 75.691406 40.125 "/>
<path style=" stroke:none;fill-rule:nonzero;fill:rgb(41.176471%,76.470588%,84.313725%);fill-opacity:1;" d="M 77.382812 40.125 L 77.539062 40.3125 L 77.382812 40.125 M 78.769531 40.125 L 78.921875 40.3125 L 78.769531 40.125 M 81.691406 40.125 L 81.847656 40.3125 Z M 81.691406 40.125 "/>
<path style=" stroke:none;fill-rule:nonzero;fill:rgb(83.529412%,40.392157%,52.941176%);fill-opacity:1;" d="M 83.382812 40.125 L 83.539062 40.3125 L 83.382812 40.125 M 86.152344 40.125 L 86.308594 40.3125 L 86.152344 40.125 M 87.847656 40.125 L 88 40.3125 L 87.847656 40.125 M 29.382812 40.3125 L 29.539062 40.5 L 29.382812 40.3125 M 31.539062 40.3125 L 31.691406 40.5 L 31.539062 40.3125 M 33.847656 40.3125 L 34 40.5 Z M 33.847656 40.3125 "/>
<path style=" stroke:none;fill-rule:nonzero;fill:rgb(79.607843%,81.176471%,40.392157%);fill-opacity:1;" d="M 38.152344 40.3125 L 38.308594 40.5 L 38.152344 40.3125 M 39.847656 40.3125 L 40 40.5 Z M 39.847656 40.3125 "/>
<path style=" stroke:none;fill-rule:nonzero;fill:rgb(83.529412%,40.392157%,52.941176%);fill-opacity:1;" d="M 43.539062 40.3125 L 43.691406 40.5 Z M 43.539062 40.3125 "/>
<path style=" stroke:none;fill-rule:nonzero;fill:rgb(41.176471%,76.470588%,84.313725%);fill-opacity:1;" d="M 46 40.3125 L 46.152344 40.5 Z M 46 40.3125 "/>
<path style=" stroke:none;fill-rule:nonzero;fill:rgb(83.529412%,40.392157%,52.941176%);fill-opacity:1;" d="M 54.152344 40.3125 L 54.308594 40.5 L 54.152344 40.3125 M 56.152344 40.3125 L 56.308594 40.5 L 56.152344 40.3125 M 67.847656 40.3125 L 68 40.5 L 67.847656 40.3125 M 83.539062 40.3125 L 83.691406 40.5 L 83.539062 40.3125 M 86 40.3125 L 86.152344 40.5 L 86 40.3125 M 29.078125 40.5 L 29.230469 40.6875 Z M 29.078125 40.5 "/>
<path style=" stroke:none;fill-rule:nonzero;fill:rgb(41.176471%,76.470588%,84.313725%);fill-opacity:1;" d="M 31.382812 40.5 L 31.539062 40.6875 Z M 31.382812 40.5 "/>
<path style=" stroke:none;fill-rule:nonzero;fill:rgb(79.607843%,81.176471%,40.392157%);fill-opacity:1;" d="M 34 40.5 L 34.152344 40.6875 Z M 34 40.5 "/>
<path style=" stroke:none;fill-rule:nonzero;fill:rgb(83.529412%,40.392157%,52.941176%);fill-opacity:1;" d="M 35.847656 40.5 L 36 40.6875 Z M 35.847656 40.5 "/>
<path style=" stroke:none;fill-rule:nonzero;fill:rgb(41.176471%,76.470588%,84.313725%);fill-opacity:1;" d="M 41.847656 40.5 L 42 40.6875 Z M 41.847656 40.5 "/>
<path style=" stroke:none;fill-rule:nonzero;fill:rgb(79.607843%,81.176471%,40.392157%);fill-opacity:1;" d="M 43.691406 40.5 L 43.847656 40.6875 L 43.691406 40.5 M 45.847656 40.5 L 46 40.6875 Z M 45.847656 40.5 "/>
<path style=" stroke:none;fill-rule:nonzero;fill:rgb(83.529412%,40.392157%,52.941176%);fill-opacity:1;" d="M 47.691406 40.5 L 47.847656 40.6875 Z M 47.691406 40.5 "/>
<path style=" stroke:none;fill-rule:nonzero;fill:rgb(41.176471%,76.470588%,84.313725%);fill-opacity:1;" d="M 52 40.5 L 52.152344 40.6875 Z M 52 40.5 "/>
<path style=" stroke:none;fill-rule:nonzero;fill:rgb(79.607843%,81.176471%,40.392157%);fill-opacity:1;" d="M 54 40.5 L 54.152344 40.6875 L 54 40.5 M 56 40.5 L 56.152344 40.6875 L 56 40.5 M 66 40.5 L 66.152344 40.6875 L 66 40.5 M 68 40.5 L 68.152344 40.6875 Z M 68 40.5 "/>
<path style=" stroke:none;fill-rule:nonzero;fill:rgb(41.176471%,76.470588%,84.313725%);fill-opacity:1;" d="M 70 40.5 L 70.152344 40.6875 L 70 40.5 M 75.847656 40.5 L 76 40.6875 Z M 75.847656 40.5 "/>
<path style=" stroke:none;fill-rule:nonzero;fill:rgb(79.607843%,81.176471%,40.392157%);fill-opacity:1;" d="M 77.230469 40.5 L 77.382812 40.6875 L 77.230469 40.5 M 78.617188 40.5 L 78.769531 40.6875 Z M 78.617188 40.5 "/>
<path style=" stroke:none;fill-rule:nonzero;fill:rgb(83.529412%,40.392157%,52.941176%);fill-opacity:1;" d="M 81.847656 40.5 L 82 40.6875 Z M 81.847656 40.5 "/>
<path style=" stroke:none;fill-rule:nonzero;fill:rgb(79.607843%,81.176471%,40.392157%);fill-opacity:1;" d="M 83.691406 40.5 L 83.847656 40.6875 L 83.691406 40.5 M 85.847656 40.5 L 86 40.6875 Z M 85.847656 40.5 "/>
<path style=" stroke:none;fill-rule:nonzero;fill:rgb(83.529412%,40.392157%,52.941176%);fill-opacity:1;" d="M 87.691406 40.5 L 87.847656 40.6875 L 87.691406 40.5 M 28.410156 40.75 L 28.511719 40.8125 Z M 28.410156 40.75 "/>
<path style=" stroke:none;fill-rule:nonzero;fill:rgb(79.607843%,81.176471%,40.392157%);fill-opacity:1;" d="M 28.617188 40.6875 L 28.769531 40.875 Z M 28.617188 40.6875 "/>
<path style=" stroke:none;fill-rule:nonzero;fill:rgb(41.176471%,76.470588%,84.313725%);fill-opacity:1;" d="M 31.230469 40.6875 L 31.382812 40.875 Z M 31.230469 40.6875 "/>
<path style=" stroke:none;fill-rule:nonzero;fill:rgb(83.529412%,40.392157%,52.941176%);fill-opacity:1;" d="M 36.152344 40.6875 L 36.308594 40.875 L 36.152344 40.6875 M 37.539062 40.6875 L 37.691406 40.875 Z M 37.539062 40.6875 "/>
<path style=" stroke:none;fill-rule:nonzero;fill:rgb(79.607843%,81.176471%,40.392157%);fill-opacity:1;" d="M 37.691406 40.6875 L 37.847656 40.875 Z M 37.691406 40.6875 "/>
<path style=" stroke:none;fill-rule:nonzero;fill:rgb(83.529412%,40.392157%,52.941176%);fill-opacity:1;" d="M 39.691406 40.6875 L 39.847656 40.875 Z M 39.691406 40.6875 "/>
<path style=" stroke:none;fill-rule:nonzero;fill:rgb(41.176471%,76.470588%,84.313725%);fill-opacity:1;" d="M 44 40.6875 L 44.152344 40.875 L 44 40.6875 M 45.539062 40.6875 L 45.691406 40.875 Z M 45.539062 40.6875 "/>
<path style=" stroke:none;fill-rule:nonzero;fill:rgb(79.607843%,81.176471%,40.392157%);fill-opacity:1;" d="M 47.539062 40.6875 L 47.691406 40.875 L 47.539062 40.6875 M 52.308594 40.6875 L 52.460938 40.875 Z M 52.308594 40.6875 "/>
<path style=" stroke:none;fill-rule:nonzero;fill:rgb(83.529412%,40.392157%,52.941176%);fill-opacity:1;" d="M 52.460938 40.6875 L 52.617188 40.875 L 52.460938 40.6875 M 53.539062 40.6875 L 53.691406 40.875 Z M 53.539062 40.6875 "/>
<path style=" stroke:none;fill-rule:nonzero;fill:rgb(79.607843%,81.176471%,40.392157%);fill-opacity:1;" d="M 53.691406 40.6875 L 53.847656 40.875 L 53.691406 40.6875 M 68.308594 40.6875 L 68.460938 40.875 Z M 68.308594 40.6875 "/>
<path style=" stroke:none;fill-rule:nonzero;fill:rgb(83.529412%,40.392157%,52.941176%);fill-opacity:1;" d="M 68.460938 40.6875 L 68.617188 40.875 L 68.460938 40.6875 M 69.539062 40.6875 L 69.691406 40.875 Z M 69.539062 40.6875 "/>
<path style=" stroke:none;fill-rule:nonzero;fill:rgb(79.607843%,81.176471%,40.392157%);fill-opacity:1;" d="M 69.691406 40.6875 L 69.847656 40.875 Z M 69.691406 40.6875 "/>
<path style=" stroke:none;fill-rule:nonzero;fill:rgb(83.529412%,40.392157%,52.941176%);fill-opacity:1;" d="M 78.617188 40.6875 L 78.769531 40.875 Z M 78.617188 40.6875 "/>
<path style=" stroke:none;fill-rule:nonzero;fill:rgb(79.607843%,81.176471%,40.392157%);fill-opacity:1;" d="M 82 40.6875 L 82.152344 40.875 Z M 82 40.6875 "/>
<path style=" stroke:none;fill-rule:nonzero;fill:rgb(41.176471%,76.470588%,84.313725%);fill-opacity:1;" d="M 84 40.6875 L 84.152344 40.875 Z M 84 40.6875 "/>
<path style=" stroke:none;fill-rule:nonzero;fill:rgb(83.529412%,40.392157%,52.941176%);fill-opacity:1;" d="M 84.152344 40.6875 L 84.308594 40.875 Z M 84.152344 40.6875 "/>
<path style=" stroke:none;fill-rule:nonzero;fill:rgb(41.176471%,76.470588%,84.313725%);fill-opacity:1;" d="M 85.539062 40.6875 L 85.691406 40.875 Z M 85.539062 40.6875 "/>
<path style=" stroke:none;fill-rule:nonzero;fill:rgb(79.607843%,81.176471%,40.392157%);fill-opacity:1;" d="M 87.539062 40.6875 L 87.691406 40.875 Z M 87.539062 40.6875 "/>
<path style=" stroke:none;fill-rule:nonzero;fill:rgb(41.176471%,76.470588%,84.313725%);fill-opacity:1;" d="M 31.078125 40.875 L 31.230469 41.0625 Z M 31.078125 40.875 "/>
<path style=" stroke:none;fill-rule:nonzero;fill:rgb(83.529412%,40.392157%,52.941176%);fill-opacity:1;" d="M 34.152344 40.875 L 34.308594 41.0625 Z M 34.152344 40.875 "/>
<path style=" stroke:none;fill-rule:nonzero;fill:rgb(79.607843%,81.176471%,40.392157%);fill-opacity:1;" d="M 36.617188 40.875 L 36.617188 41.0625 L 37.382812 41.0625 L 36.617188 40.875 M 39.539062 40.875 L 39.691406 41.0625 L 39.539062 40.875 M 44.460938 40.875 L 44.460938 41.0625 L 45.230469 41.0625 Z M 44.460938 40.875 "/>
<path style=" stroke:none;fill-rule:nonzero;fill:rgb(83.529412%,40.392157%,52.941176%);fill-opacity:1;" d="M 55.847656 40.875 L 56 41.0625 L 55.847656 40.875 M 66.152344 40.875 L 66.308594 41.0625 Z M 66.152344 40.875 "/>
<path style=" stroke:none;fill-rule:nonzero;fill:rgb(79.607843%,81.176471%,40.392157%);fill-opacity:1;" d="M 84.460938 40.875 L 84.460938 41.0625 L 85.230469 41.0625 Z M 84.460938 40.875 "/>
<path style=" stroke:none;fill-rule:nonzero;fill:rgb(83.529412%,40.392157%,52.941176%);fill-opacity:1;" d="M 30.921875 41.0625 L 31.078125 41.25 Z M 30.921875 41.0625 "/>
<path style=" stroke:none;fill-rule:nonzero;fill:rgb(41.176471%,76.470588%,84.313725%);fill-opacity:1;" d="M 34.308594 41.0625 L 34.460938 41.25 Z M 34.308594 41.0625 "/>
<path style=" stroke:none;fill-rule:nonzero;fill:rgb(79.607843%,81.176471%,40.392157%);fill-opacity:1;" d="M 39.382812 41.0625 L 39.539062 41.25 Z M 39.382812 41.0625 "/>
<path style=" stroke:none;fill-rule:nonzero;fill:rgb(83.529412%,40.392157%,52.941176%);fill-opacity:1;" d="M 42.152344 41.0625 L 42.308594 41.25 Z M 42.152344 41.0625 "/>
<path style=" stroke:none;fill-rule:nonzero;fill:rgb(79.607843%,81.176471%,40.392157%);fill-opacity:1;" d="M 50.921875 41.0625 L 51.078125 41.25 Z M 50.921875 41.0625 "/>
<path style=" stroke:none;fill-rule:nonzero;fill:rgb(41.176471%,76.470588%,84.313725%);fill-opacity:1;" d="M 55.691406 41.0625 L 55.847656 41.25 Z M 55.691406 41.0625 "/>
<path style=" stroke:none;fill-rule:nonzero;fill:rgb(83.529412%,40.392157%,52.941176%);fill-opacity:1;" d="M 66.308594 41.0625 L 66.460938 41.25 Z M 66.308594 41.0625 "/>
<path style=" stroke:none;fill-rule:nonzero;fill:rgb(79.607843%,81.176471%,40.392157%);fill-opacity:1;" d="M 71.078125 41.0625 L 71.230469 41.25 Z M 71.078125 41.0625 "/>
<path style=" stroke:none;fill-rule:nonzero;fill:rgb(83.529412%,40.392157%,52.941176%);fill-opacity:1;" d="M 76 41.0625 L 76.152344 41.25 Z M 76 41.0625 "/>
<path style=" stroke:none;fill-rule:nonzero;fill:rgb(41.176471%,76.470588%,84.313725%);fill-opacity:1;" d="M 78.460938 41.0625 L 78.617188 41.25 Z M 78.460938 41.0625 "/>
<path style=" stroke:none;fill-rule:nonzero;fill:rgb(83.529412%,40.392157%,52.941176%);fill-opacity:1;" d="M 87.382812 41.0625 L 87.539062 41.25 Z M 87.382812 41.0625 "/>
<path style=" stroke:none;fill-rule:nonzero;fill:rgb(79.607843%,81.176471%,40.392157%);fill-opacity:1;" d="M 30.617188 41.25 L 30.769531 41.4375 Z M 30.617188 41.25 "/>
<path style=" stroke:none;fill-rule:nonzero;fill:rgb(41.176471%,76.470588%,84.313725%);fill-opacity:1;" d="M 34.460938 41.25 L 34.617188 41.4375 Z M 34.460938 41.25 "/>
<path style=" stroke:none;fill-rule:nonzero;fill:rgb(79.607843%,81.176471%,40.392157%);fill-opacity:1;" d="M 39.230469 41.25 L 39.382812 41.4375 Z M 39.230469 41.25 "/>
<path style=" stroke:none;fill-rule:nonzero;fill:rgb(83.529412%,40.392157%,52.941176%);fill-opacity:1;" d="M 42.308594 41.25 L 42.460938 41.4375 Z M 42.308594 41.25 "/>
<path style=" stroke:none;fill-rule:nonzero;fill:rgb(41.176471%,76.470588%,84.313725%);fill-opacity:1;" d="M 51.078125 41.25 L 51.230469 41.4375 L 51.078125 41.25 M 55.539062 41.25 L 55.691406 41.4375 L 55.539062 41.25 M 66.460938 41.25 L 66.617188 41.4375 L 66.460938 41.25 M 70.921875 41.25 L 71.078125 41.4375 Z M 70.921875 41.25 "/>
<path style=" stroke:none;fill-rule:nonzero;fill:rgb(83.529412%,40.392157%,52.941176%);fill-opacity:1;" d="M 87.230469 41.25 L 87.382812 41.4375 L 87.230469 41.25 M 30.460938 41.4375 L 30.617188 41.625 L 30.460938 41.4375 M 34.617188 41.4375 L 34.769531 41.625 Z M 34.617188 41.4375 "/>
<path style=" stroke:none;fill-rule:nonzero;fill:rgb(79.607843%,81.176471%,40.392157%);fill-opacity:1;" d="M 39.078125 41.4375 L 39.230469 41.625 Z M 39.078125 41.4375 "/>
<path style=" stroke:none;fill-rule:nonzero;fill:rgb(41.176471%,76.470588%,84.313725%);fill-opacity:1;" d="M 51.230469 41.4375 L 51.382812 41.625 L 51.230469 41.4375 M 55.382812 41.4375 L 55.539062 41.625 Z M 55.382812 41.4375 "/>
<path style=" stroke:none;fill-rule:nonzero;fill:rgb(83.529412%,40.392157%,52.941176%);fill-opacity:1;" d="M 66.617188 41.4375 L 66.769531 41.625 Z M 66.617188 41.4375 "/>
<path style=" stroke:none;fill-rule:nonzero;fill:rgb(41.176471%,76.470588%,84.313725%);fill-opacity:1;" d="M 70.769531 41.4375 L 70.921875 41.625 Z M 70.769531 41.4375 "/>
<path style=" stroke:none;fill-rule:nonzero;fill:rgb(79.607843%,81.176471%,40.392157%);fill-opacity:1;" d="M 76.152344 41.4375 L 76.308594 41.625 Z M 76.152344 41.4375 "/>
<path style=" stroke:none;fill-rule:nonzero;fill:rgb(83.529412%,40.392157%,52.941176%);fill-opacity:1;" d="M 87.078125 41.4375 L 87.230469 41.625 L 87.078125 41.4375 M 30.152344 41.625 L 30.308594 41.8125 Z M 30.152344 41.625 "/>
<path style=" stroke:none;fill-rule:nonzero;fill:rgb(41.176471%,76.470588%,84.313725%);fill-opacity:1;" d="M 38.921875 41.625 L 39.078125 41.8125 Z M 38.921875 41.625 "/>
<path style=" stroke:none;fill-rule:nonzero;fill:rgb(79.607843%,81.176471%,40.392157%);fill-opacity:1;" d="M 42.769531 41.625 L 42.921875 41.8125 L 42.769531 41.625 M 46.769531 41.625 L 46.921875 41.8125 Z M 46.769531 41.625 "/>
<path style=" stroke:none;fill-rule:nonzero;fill:rgb(83.529412%,40.392157%,52.941176%);fill-opacity:1;" d="M 51.382812 41.625 L 51.539062 41.8125 L 51.382812 41.625 M 55.230469 41.625 L 55.382812 41.8125 L 55.230469 41.625 M 66.769531 41.625 L 66.921875 41.8125 L 66.769531 41.625 M 70.617188 41.625 L 70.769531 41.8125 L 70.617188 41.625 M 76.152344 41.625 L 76.308594 41.8125 L 76.152344 41.625 M 78.308594 41.625 L 78.460938 41.8125 Z M 78.308594 41.625 "/>
<path style=" stroke:none;fill-rule:nonzero;fill:rgb(79.607843%,81.176471%,40.392157%);fill-opacity:1;" d="M 82.769531 41.625 L 82.921875 41.8125 L 82.769531 41.625 M 86.769531 41.625 L 86.921875 41.8125 L 86.769531 41.625 M 29.691406 41.8125 L 29.847656 42 Z M 29.691406 41.8125 "/>
<path style=" stroke:none;fill-rule:nonzero;fill:rgb(83.529412%,40.392157%,52.941176%);fill-opacity:1;" d="M 29.847656 41.8125 L 30 42 L 29.847656 41.8125 M 35.078125 41.8125 L 35.230469 42 L 35.078125 41.8125 M 42.921875 41.8125 L 43.078125 42 L 42.921875 41.8125 M 46.617188 41.8125 L 46.769531 42 Z M 46.617188 41.8125 "/>
<path style=" stroke:none;fill-rule:nonzero;fill:rgb(79.607843%,81.176471%,40.392157%);fill-opacity:1;" d="M 51.691406 41.8125 L 51.847656 42 L 51.691406 41.8125 M 54.921875 41.8125 L 55.078125 42 Z M 54.921875 41.8125 "/>
<path style=" stroke:none;fill-rule:nonzero;fill:rgb(41.176471%,76.470588%,84.313725%);fill-opacity:1;" d="M 67.078125 41.8125 L 67.230469 42 Z M 67.078125 41.8125 "/>
<path style=" stroke:none;fill-rule:nonzero;fill:rgb(79.607843%,81.176471%,40.392157%);fill-opacity:1;" d="M 70.308594 41.8125 L 70.460938 42 Z M 70.308594 41.8125 "/>
<path style=" stroke:none;fill-rule:nonzero;fill:rgb(83.529412%,40.392157%,52.941176%);fill-opacity:1;" d="M 82.921875 41.8125 L 83.078125 42 L 82.921875 41.8125 M 86.617188 41.8125 L 86.769531 42 Z M 86.617188 41.8125 "/>
<path style=" stroke:none;fill-rule:nonzero;fill:rgb(41.176471%,76.470588%,84.313725%);fill-opacity:1;" d="M 29.230469 42 L 29.382812 42.1875 Z M 29.230469 42 "/>
<path style=" stroke:none;fill-rule:nonzero;fill:rgb(83.529412%,40.392157%,52.941176%);fill-opacity:1;" d="M 29.382812 42 L 29.539062 42.1875 L 29.382812 42 M 35.382812 42 L 35.539062 42.1875 Z M 35.382812 42 "/>
<path style=" stroke:none;fill-rule:nonzero;fill:rgb(79.607843%,81.176471%,40.392157%);fill-opacity:1;" d="M 38.308594 42 L 38.460938 42.1875 Z M 38.308594 42 "/>
<path style=" stroke:none;fill-rule:nonzero;fill:rgb(83.529412%,40.392157%,52.941176%);fill-opacity:1;" d="M 38.460938 42 L 38.617188 42.1875 L 38.460938 42 M 43.230469 42 L 43.382812 42.1875 L 43.230469 42 M 46.308594 42 L 46.460938 42.1875 Z M 46.308594 42 "/>
<path style=" stroke:none;fill-rule:nonzero;fill:rgb(79.607843%,81.176471%,40.392157%);fill-opacity:1;" d="M 52 42 L 52.152344 42.1875 L 52 42 M 54.617188 42 L 54.769531 42.1875 L 54.617188 42 M 67.382812 42 L 67.539062 42.1875 L 67.382812 42 M 70 42 L 70.152344 42.1875 Z M 70 42 "/>
<path style=" stroke:none;fill-rule:nonzero;fill:rgb(41.176471%,76.470588%,84.313725%);fill-opacity:1;" d="M 76.308594 42 L 76.460938 42.1875 Z M 76.308594 42 "/>
<path style=" stroke:none;fill-rule:nonzero;fill:rgb(79.607843%,81.176471%,40.392157%);fill-opacity:1;" d="M 78.152344 42 L 76.460938 42.1875 L 76.460938 42.375 L 78.308594 42.1875 Z M 78.152344 42 "/>
<path style=" stroke:none;fill-rule:nonzero;fill:rgb(83.529412%,40.392157%,52.941176%);fill-opacity:1;" d="M 83.230469 42 L 83.382812 42.1875 Z M 83.230469 42 "/>
<path style=" stroke:none;fill-rule:nonzero;fill:rgb(79.607843%,81.176471%,40.392157%);fill-opacity:1;" d="M 83.382812 42 L 83.539062 42.1875 Z M 83.382812 42 "/>
<path style=" stroke:none;fill-rule:nonzero;fill:rgb(83.529412%,40.392157%,52.941176%);fill-opacity:1;" d="M 86.308594 42 L 86.460938 42.1875 Z M 86.308594 42 "/>
<path style=" stroke:none;fill-rule:nonzero;fill:rgb(79.607843%,81.176471%,40.392157%);fill-opacity:1;" d="M 24.921875 42.1875 L 24.921875 42.375 L 28.308594 42.375 Z M 24.921875 42.1875 "/>
<path style=" stroke:none;fill-rule:nonzero;fill:rgb(83.529412%,40.392157%,52.941176%);fill-opacity:1;" d="M 28.308594 42.1875 L 28.308594 42.375 L 28.769531 42.375 L 28.308594 42.1875 M 35.691406 42.1875 L 35.847656 42.375 Z M 35.691406 42.1875 "/>
<path style=" stroke:none;fill-rule:nonzero;fill:rgb(41.176471%,76.470588%,84.313725%);fill-opacity:1;" d="M 35.847656 42.1875 L 36 42.375 Z M 35.847656 42.1875 "/>
<path style=" stroke:none;fill-rule:nonzero;fill:rgb(79.607843%,81.176471%,40.392157%);fill-opacity:1;" d="M 36 42.1875 L 36.152344 42.375 L 36 42.1875 M 37.847656 42.1875 L 38 42.375 Z M 37.847656 42.1875 "/>
<path style=" stroke:none;fill-rule:nonzero;fill:rgb(83.529412%,40.392157%,52.941176%);fill-opacity:1;" d="M 38 42.1875 L 38.152344 42.375 L 38 42.1875 M 43.691406 42.1875 L 43.847656 42.375 Z M 43.691406 42.1875 "/>
<path style=" stroke:none;fill-rule:nonzero;fill:rgb(79.607843%,81.176471%,40.392157%);fill-opacity:1;" d="M 43.847656 42.1875 L 44 42.375 L 43.847656 42.1875 M 45.691406 42.1875 L 45.847656 42.375 Z M 45.691406 42.1875 "/>
<path style=" stroke:none;fill-rule:nonzero;fill:rgb(41.176471%,76.470588%,84.313725%);fill-opacity:1;" d="M 45.847656 42.1875 L 46 42.375 Z M 45.847656 42.1875 "/>
<path style=" stroke:none;fill-rule:nonzero;fill:rgb(83.529412%,40.392157%,52.941176%);fill-opacity:1;" d="M 46 42.1875 L 46.152344 42.375 Z M 46 42.1875 "/>
<path style=" stroke:none;fill-rule:nonzero;fill:rgb(41.176471%,76.470588%,84.313725%);fill-opacity:1;" d="M 52.308594 42.1875 L 52.460938 42.375 Z M 52.308594 42.1875 "/>
<path style=" stroke:none;fill-rule:nonzero;fill:rgb(79.607843%,81.176471%,40.392157%);fill-opacity:1;" d="M 52.460938 42.1875 L 52.617188 42.375 L 52.460938 42.1875 M 54.152344 42.1875 L 54.308594 42.375 Z M 54.152344 42.1875 "/>
<path style=" stroke:none;fill-rule:nonzero;fill:rgb(83.529412%,40.392157%,52.941176%);fill-opacity:1;" d="M 54.308594 42.1875 L 54.460938 42.375 Z M 54.308594 42.1875 "/>
<path style=" stroke:none;fill-rule:nonzero;fill:rgb(79.607843%,81.176471%,40.392157%);fill-opacity:1;" d="M 58 42.1875 L 58 42.375 L 59.382812 42.375 L 58 42.1875 M 62.921875 42.1875 L 62.921875 42.375 L 64.308594 42.375 Z M 62.921875 42.1875 "/>
<path style=" stroke:none;fill-rule:nonzero;fill:rgb(83.529412%,40.392157%,52.941176%);fill-opacity:1;" d="M 67.691406 42.1875 L 67.847656 42.375 Z M 67.691406 42.1875 "/>
<path style=" stroke:none;fill-rule:nonzero;fill:rgb(79.607843%,81.176471%,40.392157%);fill-opacity:1;" d="M 67.847656 42.1875 L 68 42.375 L 67.847656 42.1875 M 69.539062 42.1875 L 69.691406 42.375 Z M 69.539062 42.1875 "/>
<path style=" stroke:none;fill-rule:nonzero;fill:rgb(41.176471%,76.470588%,84.313725%);fill-opacity:1;" d="M 69.691406 42.1875 L 69.847656 42.375 Z M 69.691406 42.1875 "/>
<path style=" stroke:none;fill-rule:nonzero;fill:rgb(79.607843%,81.176471%,40.392157%);fill-opacity:1;" d="M 71.230469 42.1875 L 71.230469 42.375 L 72.617188 42.375 Z M 71.230469 42.1875 "/>
<path style=" stroke:none;fill-rule:nonzero;fill:rgb(83.529412%,40.392157%,52.941176%);fill-opacity:1;" d="M 78.152344 42.1875 L 78.308594 42.375 L 78.152344 42.1875 M 83.691406 42.1875 L 83.847656 42.375 Z M 83.691406 42.1875 "/>
<path style=" stroke:none;fill-rule:nonzero;fill:rgb(79.607843%,81.176471%,40.392157%);fill-opacity:1;" d="M 83.847656 42.1875 L 84 42.375 L 83.847656 42.1875 M 85.691406 42.1875 L 85.847656 42.375 Z M 85.691406 42.1875 "/>
<path style=" stroke:none;fill-rule:nonzero;fill:rgb(41.176471%,76.470588%,84.313725%);fill-opacity:1;" d="M 85.847656 42.1875 L 86 42.375 Z M 85.847656 42.1875 "/>
<path style=" stroke:none;fill-rule:nonzero;fill:rgb(83.529412%,40.392157%,52.941176%);fill-opacity:1;" d="M 86 42.1875 L 86.152344 42.375 Z M 86 42.1875 "/>
<path style=" stroke:none;fill-rule:nonzero;fill:rgb(41.176471%,76.470588%,84.313725%);fill-opacity:1;" d="M 89.539062 42.1875 L 89.691406 42.375 L 89.539062 42.1875 M 94.460938 42.1875 L 94.617188 42.375 Z M 94.460938 42.1875 "/>
<path style=" stroke:none;fill-rule:nonzero;fill:rgb(83.529412%,40.392157%,52.941176%);fill-opacity:1;" d="M 36.617188 42.375 L 36.617188 42.5625 L 37.382812 42.5625 L 36.617188 42.375 M 44.460938 42.375 L 44.460938 42.5625 L 45.230469 42.5625 L 44.460938 42.375 M 53.078125 42.375 L 53.078125 42.5625 L 53.691406 42.5625 L 53.078125 42.375 M 68.460938 42.375 L 68.460938 42.5625 L 69.078125 42.5625 L 68.460938 42.375 M 84.460938 42.375 L 84.460938 42.5625 L 85.230469 42.5625 Z M 84.460938 42.375 "/>
</g>
</svg>
