<?xml version="1.0" encoding="UTF-8"?>
<svg xmlns="http://www.w3.org/2000/svg" xmlns:xlink="http://www.w3.org/1999/xlink" width="100px" height="75px" viewBox="0 0 100 75" version="1.1">
<g id="surface1">
<path style=" stroke:none;fill-rule:nonzero;fill:rgb(0%,56.862745%,88.627451%);fill-opacity:1;" d="M 98.882812 28.359375 C 98.605469 28.121094 96.105469 26.132812 90.742188 26.132812 C 89.355469 26.132812 87.917969 26.277344 86.53125 26.523438 C 85.515625 19.105469 79.640625 15.515625 79.40625 15.328125 L 77.96875 14.453125 L 77.046875 15.855469 C 75.894531 17.742188 75.007812 19.878906 74.503906 22.058594 C 73.53125 26.277344 74.132812 30.25 76.167969 33.640625 C 73.71875 35.097656 69.742188 35.4375 68.90625 35.488281 L 3.238281 35.488281 C 1.523438 35.488281 0.136719 36.941406 0.136719 38.738281 C 0.046875 44.75 1.011719 50.757812 3 56.429688 C 5.265625 62.632812 8.640625 67.242188 12.988281 70.050781 C 17.890625 73.195312 25.890625 74.992188 34.90625 74.992188 C 38.972656 74.992188 43.046875 74.601562 47.070312 73.824219 C 52.667969 72.761719 58.035156 70.722656 62.976562 67.769531 C 67.046875 65.292969 70.699219 62.148438 73.800781 58.464844 C 79.023438 52.304688 82.125 45.421875 84.390625 39.316406 C 84.714844 39.316406 84.988281 39.316406 85.3125 39.316406 C 91.003906 39.316406 94.515625 36.941406 96.453125 34.902344 C 97.753906 33.640625 98.71875 32.085938 99.417969 30.34375 L 99.832031 29.082031 Z M 58.234375 33.496094 L 67.023438 33.496094 C 67.4375 33.496094 67.8125 33.15625 67.8125 32.671875 L 67.8125 24.429688 C 67.8125 23.996094 67.488281 23.605469 67.023438 23.605469 L 58.234375 23.605469 C 57.824219 23.605469 57.449219 23.945312 57.449219 24.429688 L 57.449219 32.671875 C 57.496094 33.15625 57.824219 33.496094 58.234375 33.496094 Z M 45.984375 9.894531 L 54.769531 9.894531 C 55.183594 9.894531 55.558594 9.550781 55.558594 9.066406 L 55.558594 0.824219 C 55.558594 0.390625 55.183594 0 54.769531 0 L 45.984375 0 C 45.570312 0 45.195312 0.339844 45.195312 0.824219 L 45.195312 9.066406 C 45.195312 9.5 45.5625 9.894531 45.984375 9.894531 Z M 45.984375 21.714844 L 54.769531 21.714844 C 55.183594 21.714844 55.558594 21.324219 55.558594 20.890625 L 55.558594 12.648438 C 55.558594 12.214844 55.183594 11.824219 54.769531 11.824219 L 45.984375 11.824219 C 45.570312 11.824219 45.195312 12.164062 45.195312 12.648438 L 45.195312 20.890625 C 45.195312 21.332031 45.5625 21.714844 45.984375 21.714844 Z M 33.820312 21.714844 L 42.609375 21.714844 C 43.023438 21.714844 43.394531 21.324219 43.394531 20.890625 L 43.394531 12.648438 C 43.394531 12.214844 43.070312 11.824219 42.609375 11.824219 L 33.820312 11.824219 C 33.40625 11.824219 33.03125 12.164062 33.03125 12.648438 L 33.03125 20.890625 C 33.03125 21.332031 33.355469 21.714844 33.820312 21.714844 Z M 21.46875 21.714844 L 30.257812 21.714844 C 30.671875 21.714844 31.042969 21.324219 31.042969 20.890625 L 31.042969 12.648438 C 31.042969 12.214844 30.71875 11.824219 30.257812 11.824219 L 21.46875 11.824219 C 21.054688 11.824219 20.683594 12.164062 20.683594 12.648438 L 20.683594 20.890625 C 20.730469 21.332031 21.054688 21.714844 21.46875 21.714844 Z M 45.984375 33.496094 L 54.769531 33.496094 C 55.183594 33.496094 55.558594 33.15625 55.558594 32.671875 L 55.558594 24.429688 C 55.558594 23.996094 55.234375 23.605469 54.769531 23.605469 L 45.984375 23.605469 C 45.570312 23.605469 45.195312 23.945312 45.195312 24.429688 L 45.195312 32.671875 C 45.195312 33.15625 45.5625 33.496094 45.984375 33.496094 Z M 33.820312 33.496094 L 42.609375 33.496094 C 43.023438 33.496094 43.394531 33.15625 43.394531 32.671875 L 43.394531 24.429688 C 43.394531 23.996094 43.070312 23.605469 42.609375 23.605469 L 33.820312 23.605469 C 33.40625 23.605469 33.03125 23.945312 33.03125 24.429688 L 33.03125 32.671875 C 33.03125 33.15625 33.355469 33.496094 33.820312 33.496094 Z M 21.46875 33.496094 L 30.257812 33.496094 C 30.671875 33.496094 31.042969 33.15625 31.042969 32.671875 L 31.042969 24.429688 C 31.042969 23.996094 30.71875 23.605469 30.257812 23.605469 L 21.46875 23.605469 C 21.054688 23.605469 20.683594 23.945312 20.683594 24.429688 L 20.683594 32.671875 C 20.730469 33.15625 21.054688 33.496094 21.46875 33.496094 Z M 9.355469 33.496094 L 18.144531 33.496094 C 18.558594 33.496094 18.929688 33.15625 18.929688 32.671875 L 18.929688 24.429688 C 18.929688 23.996094 18.605469 23.605469 18.144531 23.605469 L 9.355469 23.605469 C 8.941406 23.605469 8.566406 23.945312 8.566406 24.429688 L 8.566406 32.671875 C 8.617188 33.15625 8.941406 33.496094 9.355469 33.496094 Z M 9.355469 33.496094 "/>
</g>
</svg>
