<svg id="Layer_1" data-name="Layer 1" xmlns="http://www.w3.org/2000/svg" viewBox="0 0 100 75"><defs><style>.cls-1{fill:#0078d7;}</style></defs><path class="cls-1" d="M40.5,42.07a8.77,8.77,0,0,0,2.13,6A9.57,9.57,0,0,0,45,50a13.58,13.58,0,0,0,2.84,1.38,18.8,18.8,0,0,0,3.14.81,21.36,21.36,0,0,0,7-.06,28,28,0,0,0,3.5-.89,29.92,29.92,0,0,0,3.35-1.33l3.4-1.68V59a37.69,37.69,0,0,1-3.84,1.63L60.54,61.8a29.15,29.15,0,0,1-3.95.7,37.23,37.23,0,0,1-4.15.23,23.35,23.35,0,0,1-5.52-.66,22.16,22.16,0,0,1-5-1.89,20.68,20.68,0,0,1-4.27-3,18.63,18.63,0,0,1-3.34-4,19.37,19.37,0,0,1-2.16-4.81,19.86,19.86,0,0,1-.75-5.53,20.68,20.68,0,0,1,.85-6,19.09,19.09,0,0,1,6.41-9.46,20.9,20.9,0,0,1,5.23-3,11.05,11.05,0,0,0-2.46,3.76,16.25,16.25,0,0,0-1.14,4.36H58.4a18,18,0,0,0-.56-4.79,8,8,0,0,0-1.8-3.4,7.53,7.53,0,0,0-3.2-2,14.66,14.66,0,0,0-4.74-.68,22.8,22.8,0,0,0-6.56,1,28,28,0,0,0-6.23,2.7,30.34,30.34,0,0,0-5.43,4.12,25.88,25.88,0,0,0-4.17,5.15,29.83,29.83,0,0,1,1.37-6.18,26.49,26.49,0,0,1,2.59-5.48,24.85,24.85,0,0,1,3.68-4.56A22,22,0,0,1,38,14.85a23.47,23.47,0,0,1,5.54-2.24,28.44,28.44,0,0,1,6.32-.72,22.07,22.07,0,0,1,3.89.35,28.84,28.84,0,0,1,3.79,1,22.51,22.51,0,0,1,6.55,3.51A22.26,22.26,0,0,1,69,21.91a23.43,23.43,0,0,1,3,6.49,26.44,26.44,0,0,1,1,7.36v6.31Z"/></svg>