<svg id="Layer_1" data-name="Layer 1" xmlns="http://www.w3.org/2000/svg" xmlns:xlink="http://www.w3.org/1999/xlink" viewBox="0 0 100 75"><defs><style>.cls-1{fill:url(#radial-gradient);}.cls-2{fill:url(#radial-gradient-2);}.cls-3{fill:url(#radial-gradient-3);}.cls-4{fill:url(#radial-gradient-4);}.cls-5{fill:url(#radial-gradient-5);}.cls-6{fill:url(#linear-gradient);}.cls-7{fill:url(#radial-gradient-6);}.cls-8{fill:url(#radial-gradient-7);}.cls-10,.cls-9{opacity:0.53;isolation:isolate;}.cls-9{fill:url(#radial-gradient-8);}.cls-10{fill:url(#radial-gradient-9);}.cls-11{fill:url(#radial-gradient-10);}.cls-12{fill:url(#linear-gradient-2);}.cls-13{fill:url(#linear-gradient-3);}.cls-14{fill:url(#linear-gradient-4);}</style><radialGradient id="radial-gradient" cx="-241.74" cy="-1497.93" r="0.36" gradientTransform="translate(38531.62 238346.68) scale(159.1)" gradientUnits="userSpaceOnUse"><stop offset="0" stop-color="#fff44f"/><stop offset="0.29" stop-color="#ff980e"/><stop offset="0.43" stop-color="#ff5d36"/><stop offset="0.53" stop-color="#ff3750"/><stop offset="0.75" stop-color="#f5156c"/><stop offset="0.76" stop-color="#f1136e"/><stop offset="0.88" stop-color="#da057a"/><stop offset="0.95" stop-color="#d2007f"/></radialGradient><radialGradient id="radial-gradient-2" cx="-242" cy="-1497.92" r="0.21" gradientTransform="translate(38531.34 238346.68) scale(159.1)" gradientUnits="userSpaceOnUse"><stop offset="0" stop-color="#b5007f"/><stop offset="1" stop-color="#f5156c" stop-opacity="0"/></radialGradient><radialGradient id="radial-gradient-3" cx="-241.71" cy="-1497.95" r="0.43" gradientTransform="translate(38531.65 238346.68) scale(159.1)" gradientUnits="userSpaceOnUse"><stop offset="0" stop-color="#fd0" stop-opacity="0.6"/><stop offset="0.09" stop-color="#ffd702" stop-opacity="0.58"/><stop offset="0.2" stop-color="#fec606" stop-opacity="0.52"/><stop offset="0.32" stop-color="#fda90e" stop-opacity="0.43"/><stop offset="0.45" stop-color="#fc8119" stop-opacity="0.3"/><stop offset="0.57" stop-color="#fa4e27" stop-opacity="0.14"/><stop offset="0.66" stop-color="#f92433" stop-opacity="0"/></radialGradient><radialGradient id="radial-gradient-4" cx="-241.86" cy="-1497.82" r="0.55" gradientTransform="translate(38531.5 238346.68) scale(159.1)" gradientUnits="userSpaceOnUse"><stop offset="0.15" stop-color="#960e18"/><stop offset="0.18" stop-color="#b11927" stop-opacity="0.74"/><stop offset="0.22" stop-color="#db293d" stop-opacity="0.34"/><stop offset="0.26" stop-color="#f5334b" stop-opacity="0.09"/><stop offset="0.27" stop-color="#ff3750" stop-opacity="0"/></radialGradient><radialGradient id="radial-gradient-5" cx="-241.9" cy="-1497.82" r="0.55" gradientTransform="translate(38531.45 238346.68) scale(159.1)" gradientUnits="userSpaceOnUse"><stop offset="0.11" stop-color="#960e18"/><stop offset="0.15" stop-color="#b11927" stop-opacity="0.74"/><stop offset="0.21" stop-color="#db293d" stop-opacity="0.34"/><stop offset="0.26" stop-color="#f5334b" stop-opacity="0.09"/><stop offset="0.28" stop-color="#ff3750" stop-opacity="0"/></radialGradient><linearGradient id="linear-gradient" x1="-242.14" y1="-1488.03" x2="-242.01" y2="-1487.88" gradientTransform="translate(27896.22 112978.31) scale(114.97 75.91)" gradientUnits="userSpaceOnUse"><stop offset="0" stop-color="#ffbc04"/><stop offset="0.17" stop-color="#ffab02" stop-opacity="0.62"/><stop offset="0.34" stop-color="#ff9b01" stop-opacity="0.29"/><stop offset="0.45" stop-color="#ff9200" stop-opacity="0.08"/><stop offset="0.51" stop-color="#ff8e00" stop-opacity="0"/></linearGradient><radialGradient id="radial-gradient-6" cx="-241.79" cy="-1496.91" r="0.38" gradientTransform="translate(34557.36 213533.77) scale(142.64)" gradientUnits="userSpaceOnUse"><stop offset="0" stop-color="#ff980e"/><stop offset="0.3" stop-color="#ff7139"/><stop offset="0.48" stop-color="#ff5b51"/><stop offset="0.63" stop-color="#ff4f5e"/><stop offset="0.74" stop-color="#ff4055"/><stop offset="0.84" stop-color="#ff3750"/></radialGradient><radialGradient id="radial-gradient-7" cx="-241.79" cy="-1496.91" r="0.38" gradientTransform="translate(34557.36 213533.77) scale(142.64)" gradientUnits="userSpaceOnUse"><stop offset="0.08" stop-color="#ffde08"/><stop offset="0.15" stop-color="#ffdb08" stop-opacity="0.97"/><stop offset="0.25" stop-color="#ffd209" stop-opacity="0.88"/><stop offset="0.37" stop-color="#ffc40b" stop-opacity="0.73"/><stop offset="0.51" stop-color="#ffb00d" stop-opacity="0.53"/><stop offset="0.67" stop-color="#ff970f" stop-opacity="0.28"/><stop offset="0.82" stop-color="#ff7b12" stop-opacity="0"/></radialGradient><radialGradient id="radial-gradient-8" cx="-232.13" cy="-1503.56" r="0.19" gradientTransform="translate(-199356.09 85624.01) rotate(75.55) scale(142.64)" gradientUnits="userSpaceOnUse"><stop offset="0.36" stop-color="#ff3750"/><stop offset="0.44" stop-color="#ff4d47" stop-opacity="0.63"/><stop offset="0.55" stop-color="#ff673d" stop-opacity="0.18"/><stop offset="0.59" stop-color="#ff7139" stop-opacity="0"/></radialGradient><radialGradient id="radial-gradient-9" cx="-241.91" cy="-1496.77" r="0.19" gradientTransform="translate(34557.34 213533.77) scale(142.64)" gradientUnits="userSpaceOnUse"><stop offset="0.22" stop-color="#ff3750" stop-opacity="0.8"/><stop offset="0.27" stop-color="#ff444b" stop-opacity="0.63"/><stop offset="0.41" stop-color="#ff643e" stop-opacity="0.18"/><stop offset="0.47" stop-color="#ff7139" stop-opacity="0"/></radialGradient><radialGradient id="radial-gradient-10" cx="-241.88" cy="-1494.03" r="0.83" gradientTransform="translate(26774.93 164906.78) scale(110.37)" gradientUnits="userSpaceOnUse"><stop offset="0.05" stop-color="#fff44f"/><stop offset="0.46" stop-color="#ff980e"/><stop offset="0.52" stop-color="#ff8424"/><stop offset="0.59" stop-color="#ff7634"/><stop offset="0.64" stop-color="#ff7139"/></radialGradient><linearGradient id="linear-gradient-2" x1="-241.79" y1="-1496.96" x2="-241.95" y2="-1496.7" gradientTransform="translate(38610.28 212380.39) scale(159.43 141.86)" gradientUnits="userSpaceOnUse"><stop offset="0" stop-color="#fff44f" stop-opacity="0.8"/><stop offset="0.09" stop-color="#fff44f" stop-opacity="0.7"/><stop offset="0.75" stop-color="#fff44f" stop-opacity="0"/></linearGradient><linearGradient id="linear-gradient-3" x1="-242.11" y1="-1492.3" x2="-242.11" y2="-1492.61" gradientTransform="translate(26424.36 148716.96) scale(108.92 99.63)" gradientUnits="userSpaceOnUse"><stop offset="0" stop-color="#3a8ee6"/><stop offset="0.24" stop-color="#5c79f0"/><stop offset="0.63" stop-color="#9059ff"/><stop offset="1" stop-color="#c139e6"/></linearGradient><linearGradient id="linear-gradient-4" x1="-242.22" y1="-1492.59" x2="-241.98" y2="-1492.37" gradientTransform="translate(26424.36 148716.96) scale(108.92 99.63)" gradientUnits="userSpaceOnUse"><stop offset="0.81" stop-color="#9059ff" stop-opacity="0"/><stop offset="1" stop-color="#6e008b" stop-opacity="0.5"/></linearGradient></defs><path class="cls-1" d="M70.25,22.25A25.12,25.12,0,0,0,51,12.33a22.73,22.73,0,0,0-12.31,3.09,25,25,0,0,1,11.44-2.78c10.08.16,20.88,7,22.47,19.3,1.82,14.13-8,26-21.92,26-15.24,0-24.53-13.5-22.15-25.56.16-.64.08-1.2.24-1.75a23.16,23.16,0,0,1,2.7-8.89c-1.75.87-4,3.81-5.08,6.43a26.45,26.45,0,0,0-1.67,12.78c0,.32.08.64.08,1A25.48,25.48,0,1,0,70.25,22.25Z"/><path class="cls-2" d="M70.25,22.25A25.12,25.12,0,0,0,51,12.33a22.73,22.73,0,0,0-12.31,3.09,25,25,0,0,1,11.44-2.78c10.08.16,20.88,7,22.47,19.3,1.82,14.13-8,26-21.92,26-15.24,0-24.53-13.5-22.15-25.56.16-.64.08-1.2.24-1.75a23.16,23.16,0,0,1,2.7-8.89c-1.75.87-4,3.81-5.08,6.43a26.45,26.45,0,0,0-1.67,12.78c0,.32.08.64.08,1A25.48,25.48,0,1,0,70.25,22.25Z"/><path class="cls-3" d="M70.25,22.25A25.12,25.12,0,0,0,51,12.33a22.73,22.73,0,0,0-12.31,3.09,25,25,0,0,1,11.44-2.78c10.08.16,20.88,7,22.47,19.3,1.82,14.13-8,26-21.92,26-15.24,0-24.53-13.5-22.15-25.56.16-.64.08-1.2.24-1.75a23.16,23.16,0,0,1,2.7-8.89c-1.75.87-4,3.81-5.08,6.43a26.45,26.45,0,0,0-1.67,12.78c0,.32.08.64.08,1A25.48,25.48,0,1,0,70.25,22.25Z"/><path class="cls-4" d="M70.25,22.25A25.12,25.12,0,0,0,51,12.33a22.73,22.73,0,0,0-12.31,3.09,25,25,0,0,1,11.44-2.78c10.08.16,20.88,7,22.47,19.3,1.82,14.13-8,26-21.92,26-15.24,0-24.53-13.5-22.15-25.56.16-.64.08-1.2.24-1.75a23.16,23.16,0,0,1,2.7-8.89c-1.75.87-4,3.81-5.08,6.43a26.45,26.45,0,0,0-1.67,12.78c0,.32.08.64.08,1A25.48,25.48,0,1,0,70.25,22.25Z"/><path class="cls-5" d="M70.25,22.25A25.12,25.12,0,0,0,51,12.33a22.73,22.73,0,0,0-12.31,3.09,25,25,0,0,1,11.44-2.78c10.08.16,20.88,7,22.47,19.3,1.82,14.13-8,26-21.92,26-15.24,0-24.53-13.5-22.15-25.56.16-.64.08-1.2.24-1.75a23.16,23.16,0,0,1,2.7-8.89c-1.75.87-4,3.81-5.08,6.43a26.45,26.45,0,0,0-1.67,12.78c0,.32.08.64.08,1A25.48,25.48,0,1,0,70.25,22.25Z"/><path class="cls-6" d="M72.56,31.94a22.14,22.14,0,0,1,.16,4.6c.87-.16,1.66-.23,2.54-.31a25.46,25.46,0,0,0-5.08-13.9A24.72,24.72,0,0,0,51,12.33a22.73,22.73,0,0,0-12.31,3.09,25,25,0,0,1,11.44-2.78C60.17,12.72,71,19.55,72.56,31.94Z"/><path class="cls-7" d="M73.19,31.22c-1.43-12.86-12.94-18.66-23.1-18.58a24,24,0,0,0-11.44,2.78,9.79,9.79,0,0,0-2.22,1.75c.08-.08.32-.24.72-.56h.07a18.8,18.8,0,0,1,4.93-2.3,27,27,0,0,1,8.33-1A21.12,21.12,0,0,1,70.33,33.61c.24,8.33-6.67,15-14.53,15.4A14.31,14.31,0,0,1,40.72,36.94c-1.27-8.5,4.44-15.72,9.61-17.55-2.78-2.46-9.85-2.22-15.09,1.59a18,18,0,0,0-7.07,12.07A20.7,20.7,0,0,0,29.68,44.4,22.45,22.45,0,0,0,48.82,58a15.1,15.1,0,0,0,1.9.08C67.48,58.06,74.78,45.36,73.19,31.22Z"/><path class="cls-8" d="M73.19,31.22c-1.43-12.86-12.94-18.66-23.1-18.58a24,24,0,0,0-11.44,2.78,9.79,9.79,0,0,0-2.22,1.75c.08-.08.32-.24.72-.56h.07a18.8,18.8,0,0,1,4.93-2.3,27,27,0,0,1,8.33-1A21.12,21.12,0,0,1,70.33,33.61c.24,8.33-6.67,15-14.53,15.4A14.31,14.31,0,0,1,40.72,36.94c-1.27-8.5,4.44-15.72,9.61-17.55-2.78-2.46-9.85-2.22-15.09,1.59a18,18,0,0,0-7.07,12.07A20.7,20.7,0,0,0,29.68,44.4,22.45,22.45,0,0,0,48.82,58a15.1,15.1,0,0,0,1.9.08C67.48,58.06,74.78,45.36,73.19,31.22Z"/><path class="cls-9" d="M73.19,31.22c-1.43-12.86-12.94-18.66-23.1-18.58a24,24,0,0,0-11.44,2.78,9.79,9.79,0,0,0-2.22,1.75c.08-.08.32-.24.72-.56h.07a18.8,18.8,0,0,1,4.93-2.3,27,27,0,0,1,8.33-1A21.12,21.12,0,0,1,70.33,33.61c.24,8.33-6.67,15-14.53,15.4A14.31,14.31,0,0,1,40.72,36.94c-1.27-8.5,4.44-15.72,9.61-17.55-2.78-2.46-9.85-2.22-15.09,1.59a18,18,0,0,0-7.07,12.07A20.7,20.7,0,0,0,29.68,44.4,22.45,22.45,0,0,0,48.82,58a15.1,15.1,0,0,0,1.9.08C67.48,58.06,74.78,45.36,73.19,31.22Z"/><path class="cls-10" d="M73.19,31.22c-1.43-12.86-12.94-18.66-23.1-18.58a24,24,0,0,0-11.44,2.78,9.79,9.79,0,0,0-2.22,1.75c.08-.08.32-.24.72-.56h.07a18.8,18.8,0,0,1,4.93-2.3,27,27,0,0,1,8.33-1A21.12,21.12,0,0,1,70.33,33.61c.24,8.33-6.67,15-14.53,15.4A14.31,14.31,0,0,1,40.72,36.94c-1.27-8.5,4.44-15.72,9.61-17.55-2.78-2.46-9.85-2.22-15.09,1.59a18,18,0,0,0-7.07,12.07A20.7,20.7,0,0,0,29.68,44.4,22.45,22.45,0,0,0,48.82,58a15.1,15.1,0,0,0,1.9.08C67.48,58.06,74.78,45.36,73.19,31.22Z"/><path class="cls-11" d="M55.8,48.93c10.8-.64,15.49-9.61,15.8-16,.48-9.92-5.47-20.64-21.12-19.69a26.75,26.75,0,0,0-8.33,1,16.56,16.56,0,0,0-4.93,2.3h-.07a4.4,4.4,0,0,0-.72.56,20.75,20.75,0,0,1,13.34-2.46C58.74,15.82,67,22.81,67,31.94,67,39,61.52,44.4,55.09,44c-9.53-.56-11.91-10.33-7-14.53-1.35-.32-3.89.23-5.63,2.86C40.88,34.72,41,38.29,42,40.83A13.81,13.81,0,0,0,55.8,48.93Z"/><path class="cls-12" d="M70.25,22.25A31.53,31.53,0,0,0,68,19.71a22.94,22.94,0,0,0-2-1.83c.39.4.79.72,1.19,1.12a14.71,14.71,0,0,1,3.09,5.16c1.35,4.05,1.27,9.05-1.27,12.94A15.08,15.08,0,0,1,55.8,44h-.71c-9.53-.56-11.91-10.33-7-14.53-1.35-.32-3.89.23-5.63,2.86C40.88,34.72,41,38.29,42,40.83a14.06,14.06,0,0,1-1.27-4c-1.27-8.34,4.44-15.56,9.61-17.39-2.78-2.46-9.85-2.3-15.09,1.59a17.65,17.65,0,0,0-6.43,9.29,24.54,24.54,0,0,1,2.62-8.65c-1.75.87-4,3.81-5.08,6.43a26.45,26.45,0,0,0-1.67,12.78c0,.32.08.64.08,1A25.47,25.47,0,1,0,70.25,22.25Z"/><path class="cls-13" d="M70.25,24.16A13.61,13.61,0,0,0,67.16,19a18.71,18.71,0,0,0-5.8-4.13,24.19,24.19,0,0,0-5.71-2,25.07,25.07,0,0,0-10.56-.08,18.87,18.87,0,0,0-8.82,4.29A27.24,27.24,0,0,1,41.51,15a21.26,21.26,0,0,1,19.77,5.16,21.93,21.93,0,0,1,2.78,3.33c3.1,5.08,2.78,11.36.4,15.09-1.83,2.78-5.64,5.4-9.29,5.32A15.07,15.07,0,0,0,69,37C71.52,33.21,71.6,28.21,70.25,24.16Z"/><path class="cls-14" d="M70.25,24.16A13.61,13.61,0,0,0,67.16,19a18.71,18.71,0,0,0-5.8-4.13,24.19,24.19,0,0,0-5.71-2,25.07,25.07,0,0,0-10.56-.08,18.87,18.87,0,0,0-8.82,4.29A27.24,27.24,0,0,1,41.51,15a21.26,21.26,0,0,1,19.77,5.16,21.93,21.93,0,0,1,2.78,3.33c3.1,5.08,2.78,11.36.4,15.09-1.83,2.78-5.64,5.4-9.29,5.32A15.07,15.07,0,0,0,69,37C71.52,33.21,71.6,28.21,70.25,24.16Z"/></svg>