<svg id="Layer_1" data-name="Layer 1" xmlns="http://www.w3.org/2000/svg" viewBox="0 0 100 75"><defs><style>.cls-1{fill:#0e91bb;}.cls-2{fill:#f16900;}.cls-3{fill:#77cefa;}</style></defs><path class="cls-1" d="M66.61,16.81l-8.08-7a1.45,1.45,0,0,0-1-.34H36A3.81,3.81,0,0,0,32,13V43.48A3.81,3.81,0,0,0,36,47H63a3.81,3.81,0,0,0,4-3.52V17.64A1.11,1.11,0,0,0,66.61,16.81Zm-2.3,26.67A1.26,1.26,0,0,1,63,44.65H36a1.26,1.26,0,0,1-1.35-1.17V13A1.27,1.27,0,0,1,36,11.77H56.23v4.7a2.54,2.54,0,0,0,2.69,2.35h5.39Z"/><g id="Page-1"><g id="Group"><g id="_3forge" data-name=" 3forge"><path class="cls-1" d="M44.52,60.28a4.84,4.84,0,0,1-.33,1.81,3.66,3.66,0,0,1-1.47,1.82,4.72,4.72,0,0,1-4.83,0A3.84,3.84,0,0,1,36.41,62a5.05,5.05,0,0,1-.29-1.44.28.28,0,0,1,.23-.31h2a.31.31,0,0,1,.33.27v0a2.73,2.73,0,0,0,.18.8,1.37,1.37,0,0,0,.54.73,1.48,1.48,0,0,0,.88.27,1.41,1.41,0,0,0,1.4-.89A3.06,3.06,0,0,0,42,60.21a3.23,3.23,0,0,0-.29-1.4,1.41,1.41,0,0,0-1.4-.83,1.6,1.6,0,0,0-.83.34.41.41,0,0,1-.18,0,.3.3,0,0,1-.25-.12L38,57a.41.41,0,0,1-.07-.22.29.29,0,0,1,.11-.21l2.83-2.47a.07.07,0,0,0,0-.09s0,0-.09,0H36.66a.28.28,0,0,1-.31-.23V52a.28.28,0,0,1,.24-.31h7.46a.27.27,0,0,1,.31.23V53.8a.5.5,0,0,1-.17.38l-2.38,2.18c-.07.08,0,.13.08.15a3,3,0,0,1,2.27,1.87A4.76,4.76,0,0,1,44.52,60.28Z"/><path class="cls-1" d="M50.61,55.38V56.9a.27.27,0,0,1-.23.31H48.65a.09.09,0,0,0-.1.09v6.81a.27.27,0,0,1-.22.31.21.21,0,0,1-.11,0H46.3a.27.27,0,0,1-.31-.23V57.34a.1.1,0,0,0-.08-.11h-1a.27.27,0,0,1-.31-.23V55.38a.27.27,0,0,1,.23-.3h1S46,55,46,55v-.41a3.66,3.66,0,0,1,.35-1.75A1.88,1.88,0,0,1,47.45,52a6.26,6.26,0,0,1,2.15-.23h.6a.28.28,0,0,1,.31.23v1.36a.28.28,0,0,1-.24.31h-.58a1,1,0,0,0-1.13,1.17V55a.09.09,0,0,0,.08.11h1.68a.27.27,0,0,1,.3.24A.13.13,0,0,1,50.61,55.38Z"/><path class="cls-1" d="M51.89,63.76a3.93,3.93,0,0,1-1.49-2.17,6.46,6.46,0,0,1-.26-1.85,6.06,6.06,0,0,1,.28-1.93,3.87,3.87,0,0,1,1.49-2.1A4.37,4.37,0,0,1,54.53,55a4.21,4.21,0,0,1,2.55.76,3.86,3.86,0,0,1,1.48,2.09,6.07,6.07,0,0,1,.28,1.9,7.15,7.15,0,0,1-.24,1.84,4.06,4.06,0,0,1-4.08,3A4.26,4.26,0,0,1,51.89,63.76ZM55.52,62a2,2,0,0,0,.59-1,4.22,4.22,0,0,0,.16-1.27,5.05,5.05,0,0,0-.14-1.29,1.9,1.9,0,0,0-.6-1,1.55,1.55,0,0,0-1-.35,1.53,1.53,0,0,0-1,.35,1.9,1.9,0,0,0-.6,1,5.05,5.05,0,0,0-.14,1.29A5,5,0,0,0,52.88,61a2,2,0,0,0,.61,1,1.61,1.61,0,0,0,2,0Z"/><path class="cls-1" d="M64.93,55.18a.31.31,0,0,1,.17.38l-.35,1.91a.22.22,0,0,1-.1.2.57.57,0,0,1-.26,0,2.52,2.52,0,0,0-.54-.08,1.9,1.9,0,0,0-.42,0,1.81,1.81,0,0,0-1.1.48,1.49,1.49,0,0,0-.46,1.14v4.86a.27.27,0,0,1-.23.31h-2a.29.29,0,0,1-.32-.23V55.4a.27.27,0,0,1,.23-.31h2a.27.27,0,0,1,.31.23.11.11,0,0,1,0,.08v.54c0,.05,0,.08,0,.09S62,56,62,56a2.28,2.28,0,0,1,2-1.07A1.89,1.89,0,0,1,64.93,55.18Z"/><path class="cls-1" d="M70.7,55.09h2a.27.27,0,0,1,.3.24s0,.05,0,.07v8.19A3.92,3.92,0,0,1,71.59,67a5.6,5.6,0,0,1-3.5,1,10.24,10.24,0,0,1-1.36-.09c-.18,0-.28-.12-.28-.32l.08-1.69a.29.29,0,0,1,.1-.23.24.24,0,0,1,.24,0,10.38,10.38,0,0,0,1.11.09,2.78,2.78,0,0,0,1.79-.51,2,2,0,0,0,.63-1.61s0-.06,0-.07a.08.08,0,0,0-.09,0,2.56,2.56,0,0,1-2,.72,4.26,4.26,0,0,1-2.15-.56,3.21,3.21,0,0,1-1.4-1.85,7,7,0,0,1-.27-2.14,6.73,6.73,0,0,1,.32-2.31,3.64,3.64,0,0,1,1.29-1.77A3.48,3.48,0,0,1,68.17,55a2.76,2.76,0,0,1,2.14.82s.07.05.1,0a.1.1,0,0,0,0-.09V55.4a.29.29,0,0,1,.24-.31Zm-.3,4.59a8.44,8.44,0,0,0,0-.87,4,4,0,0,0-.13-.58,1.59,1.59,0,0,0-.53-.79,1.48,1.48,0,0,0-1-.3,1.44,1.44,0,0,0-.93.3,1.68,1.68,0,0,0-.54.79A3.49,3.49,0,0,0,67,59.7a3.42,3.42,0,0,0,.22,1.45,1.57,1.57,0,0,0,1.54,1.08,1.49,1.49,0,0,0,1.46-1A6,6,0,0,0,70.4,59.68Z"/><path class="cls-1" d="M80,61.57a.38.38,0,0,1,.24-.13.26.26,0,0,1,.2.1l1,1a.28.28,0,0,1,.11.22.34.34,0,0,1-.07.22,4.18,4.18,0,0,1-1.53,1.17,5,5,0,0,1-2,.42,4.36,4.36,0,0,1-2.77-.85,4.21,4.21,0,0,1-1.48-2.34,6.43,6.43,0,0,1-.22-1.69,7,7,0,0,1,.2-1.77,3.85,3.85,0,0,1,1.46-2.15,4.22,4.22,0,0,1,2.61-.82A3.76,3.76,0,0,1,80.51,56,5.25,5.25,0,0,1,81.86,59c0,.4.09.84.11,1.32a.28.28,0,0,1-.24.32H76.09c-.07,0-.11,0-.11.1a2.77,2.77,0,0,0,.13.57,1.46,1.46,0,0,0,.72.86,2.63,2.63,0,0,0,1.29.3A2.36,2.36,0,0,0,80,61.57Zm-3.27-4.13a1.37,1.37,0,0,0-.54.79c-.06.23-.1.38-.11.45s0,.11.09.11h3.09c.06,0,.09,0,.09-.07a1.25,1.25,0,0,0-.08-.42,1.52,1.52,0,0,0-1.58-1.14A1.57,1.57,0,0,0,76.68,57.44Z"/></g><rect id="Rectangle" class="cls-2" x="20.84" y="51.85" width="3.75" height="3.75" rx="0.83"/><rect id="Rectangle-2" class="cls-2" x="25.42" y="51.85" width="3.75" height="3.75" rx="0.83"/><rect id="Rectangle-3" class="cls-1" x="20.84" y="56.44" width="3.75" height="3.75" rx="0.83"/><rect id="Rectangle-4" class="cls-3" x="20.84" y="61.02" width="3.75" height="3.75" rx="0.83"/><rect id="Rectangle-5" class="cls-1" x="25.42" y="56.44" width="3.75" height="3.75" rx="0.83"/><rect id="Rectangle-6" class="cls-2" x="30" y="51.85" width="3.75" height="3.75" rx="0.83"/></g></g><path class="cls-2" d="M43.48,20.7a.15.15,0,0,1-.11,0H39c-.05,0-.07,0-.07.07v2.43s0,.06.07.06h3a.17.17,0,0,1,.16.16v1a.16.16,0,0,1,0,.11.15.15,0,0,1-.11,0H39c-.05,0-.07,0-.07.07v3.72a.16.16,0,0,1-.05.11.14.14,0,0,1-.11,0H37.53a.14.14,0,0,1-.11,0,.16.16,0,0,1-.05-.11V19.6a.16.16,0,0,1,.05-.11.14.14,0,0,1,.11,0h5.84a.16.16,0,0,1,.11,0,.15.15,0,0,1,0,.11v1A.15.15,0,0,1,43.48,20.7Z"/><path class="cls-2" d="M45.5,28.5a.15.15,0,0,1,0-.11V19.6a.15.15,0,0,1,0-.11.16.16,0,0,1,.11,0h1.2a.17.17,0,0,1,.16.16v8.79a.16.16,0,0,1,0,.11.15.15,0,0,1-.11,0h-1.2A.15.15,0,0,1,45.5,28.5Z"/><path class="cls-2" d="M53.45,22.08a2.25,2.25,0,0,1,1,.79A2,2,0,0,1,54.75,24v4.38a.14.14,0,0,1-.15.15H53.4a.14.14,0,0,1-.15-.15V28a0,0,0,0,0,0,0l0,0a2.37,2.37,0,0,1-1.85.71,2.51,2.51,0,0,1-1.6-.5,1.73,1.73,0,0,1-.64-1.47,1.93,1.93,0,0,1,.71-1.58,3.19,3.19,0,0,1,2-.56h1.39a.06.06,0,0,0,.07-.07v-.31a1,1,0,0,0-.3-.78,1.26,1.26,0,0,0-.9-.28,1.56,1.56,0,0,0-.8.17.77.77,0,0,0-.38.49c0,.1-.09.15-.19.13l-1.26-.16-.11,0a.08.08,0,0,1,0-.09,1.82,1.82,0,0,1,.85-1.3A3.27,3.27,0,0,1,52,21.8,3.4,3.4,0,0,1,53.45,22.08Zm-.66,5a1,1,0,0,0,.46-.86v-.61s0-.06-.07-.06H52.09a2,2,0,0,0-1.09.26.83.83,0,0,0-.39.74.75.75,0,0,0,.3.64,1.32,1.32,0,0,0,.79.23A1.75,1.75,0,0,0,52.79,27.11Z"/><path class="cls-2" d="M60.54,23.08a.14.14,0,0,1-.11,0H59.11s-.07,0-.07.07v3.13a.94.94,0,0,0,.22.71.9.9,0,0,0,.68.23h.39a.15.15,0,0,1,.11,0,.16.16,0,0,1,.05.11v1a.17.17,0,0,1-.16.17h-.68a2.75,2.75,0,0,1-1.53-.35,1.55,1.55,0,0,1-.52-1.33v-3.7c0-.05,0-.07-.06-.07h-.75a.14.14,0,0,1-.15-.15v-.91a.17.17,0,0,1,0-.12.15.15,0,0,1,.11,0h.75s.06,0,.06-.07V20.31a.16.16,0,0,1,0-.11.14.14,0,0,1,.11,0h1.13a.14.14,0,0,1,.15.15v1.52c0,.05,0,.07.07.07h1.32a.14.14,0,0,1,.11,0,.18.18,0,0,1,.05.12V23A.16.16,0,0,1,60.54,23.08Z"/><path class="cls-2" d="M43.48,33.7a.15.15,0,0,1-.11,0H39c-.05,0-.07,0-.07.07v2.43s0,.06.07.06h3a.17.17,0,0,1,.16.16v1a.16.16,0,0,1,0,.11.15.15,0,0,1-.11,0H39c-.05,0-.07,0-.07.07v3.72a.16.16,0,0,1-.05.11.14.14,0,0,1-.11,0H37.53a.14.14,0,0,1-.11,0,.16.16,0,0,1-.05-.11V32.6a.16.16,0,0,1,.05-.11.14.14,0,0,1,.11-.05h5.84a.16.16,0,0,1,.11.05.15.15,0,0,1,0,.11v1A.15.15,0,0,1,43.48,33.7Z"/><path class="cls-2" d="M45.65,33.73a.9.9,0,0,1-.26-.66.93.93,0,1,1,1.85,0,.9.9,0,0,1-.26.66,1,1,0,0,1-1.33,0Zm-.07,7.77a.15.15,0,0,1,0-.11V35a.14.14,0,0,1,.15-.15h1.2A.14.14,0,0,1,47,35v6.35a.14.14,0,0,1-.15.15h-1.2A.15.15,0,0,1,45.58,41.5Z"/><path class="cls-2" d="M49.73,41.5a.16.16,0,0,1,0-.11V32.6a.17.17,0,0,1,.16-.16H51a.16.16,0,0,1,.11.05.15.15,0,0,1,0,.11v8.79a.14.14,0,0,1-.15.15h-1.2A.15.15,0,0,1,49.73,41.5Z"/><path class="cls-2" d="M59.35,38.2v.4c0,.11-.05.16-.15.16H55.12s-.07,0-.07.07a2,2,0,0,0,.12.58,1.43,1.43,0,0,0,1.52,1,1.61,1.61,0,0,0,1.4-.73.17.17,0,0,1,.13-.08.13.13,0,0,1,.09,0l.81.67a.13.13,0,0,1,0,.2,2.74,2.74,0,0,1-1.07.89,3.49,3.49,0,0,1-1.49.31,3,3,0,0,1-1.72-.46,2.57,2.57,0,0,1-1-1.27,5.11,5.11,0,0,1-.3-2,4.05,4.05,0,0,1,.16-1.22,2.59,2.59,0,0,1,1-1.44,2.87,2.87,0,0,1,1.74-.52,2.65,2.65,0,0,1,2.88,2.67A4.12,4.12,0,0,1,59.35,38.2Zm-3.73-1.86a1.19,1.19,0,0,0-.45.67,2.3,2.3,0,0,0-.11.57s0,.06.06.06h2.64a.05.05,0,0,0,.06-.06,2.36,2.36,0,0,0-.08-.5,1.2,1.2,0,0,0-.46-.72,1.35,1.35,0,0,0-.86-.26A1.29,1.29,0,0,0,55.62,36.34Z"/></svg>