<svg id="Layer_1" data-name="Layer 1" xmlns="http://www.w3.org/2000/svg" viewBox="0 0 100 75"><defs><style>.cls-1{fill:#f03c2e;}</style></defs><path class="cls-1" d="M75.51,35.15,52.36,12a3.42,3.42,0,0,0-4.83,0h0l-4.8,4.81,6.1,6.09A4.05,4.05,0,0,1,54,28.07L59.84,34a4.05,4.05,0,1,1-2.44,2.29l-5.48-5.48V45.18A4.34,4.34,0,0,1,53,46a4.07,4.07,0,0,1-5.75,5.75h0a4.06,4.06,0,0,1,0-5.74h0a3.94,3.94,0,0,1,1.33-.89V30.51a4,4,0,0,1-1.33-.89,4.06,4.06,0,0,1-.87-4.44l-6-6L24.49,35a3.42,3.42,0,0,0,0,4.83h0L47.64,63a3.42,3.42,0,0,0,4.83,0h0l23-23a3.41,3.41,0,0,0,0-4.82h0"/></svg>