<svg id="Layer_1" data-name="Layer 1" xmlns="http://www.w3.org/2000/svg" viewBox="0 0 100 75"><defs><style>.cls-1{fill:#ea4335;}.cls-2{fill:#4285f4;}.cls-3{fill:#34a853;}.cls-4{fill:#fbbc05;}</style></defs><path class="cls-1" d="M58.76,24.89l2.05,0,5.57-5.57L66.65,17A25,25,0,0,0,25.86,29.15,3,3,0,0,1,27.77,29L38.9,27.21s.57-.94.86-.9a13.88,13.88,0,0,1,19-1.43Z"/><path class="cls-2" d="M74.2,29.17A25.07,25.07,0,0,0,66.64,17l-7.88,7.89A13.87,13.87,0,0,1,63.94,35.7v1.39a7,7,0,1,1,0,13.91H50l-1.4,1.4v8.35L50,62.13h13.9a18.07,18.07,0,0,0,10.26-33Z"/><path class="cls-3" d="M36.11,62.14H50V51H36.11a6.91,6.91,0,0,1-2.86-.62l-2,.61-5.57,5.57-.48,1.88a18,18,0,0,0,10.92,3.69Z"/><path class="cls-4" d="M36.11,26A18.08,18.08,0,0,0,25.19,58.46l8.07-8.07a7,7,0,1,1,9.19-9.19l8.07-8.06A18,18,0,0,0,36.11,26Z"/></svg>