<svg id="Layer_1" data-name="Layer 1" xmlns="http://www.w3.org/2000/svg" viewBox="0 0 100 75"><defs><style>.cls-1{fill:#ff0;}.cls-2{fill:#ffc;}.cls-3{fill:#cc0;}</style></defs><path class="cls-1" d="M39.88,21.92l-5.07.82-4.62,2-3.93,2.47L22.52,31.8,20.41,34l-2,.76-.54-1.32,1-1.37L19,30.18l.63,0,.69.63-.19-2-.76-.51,0-.75-1.81,1-1.64,1.93-.35,1.74.71,1.38.65,2.36,1.33.63,1.4-.07L21,35.85l-.88,4.5.88,5-1,2.31-3.2,3.44.57,2.06,1.51,2.39,2.86,2,1.51.2,1.69.06-1,4.31,3.86,1.59,4.81.63,1.65-1.08.13-2.91,1.83-3,.13-2.41,4.43.32,4.12-.38-4.12,2.47.7,3,2.6,4,2.53,1.08,2-.83L49.44,63l4.24-3.23.83.69,6.65.26,1.33-1.08.12-1.9-.44-.82-.32-5.13-2.21-4.44.38-2,1.33.7,3.73,3.48,1.84.13,2-.83,2-1.52L72,44l6,.38L81.55,43l2.91-2.73,2.09-3.92.51-4.63-.44-5.38-1.14-4.81L84.34,20l-1.59-.51-2.78,3-2.54.89-2.21-3.68-2.22-2L71.8,17,67,13,63.12,10.9l-3.86-.32-4.5.76L50.83,12.8,48.11,15,46,17.61l-2.22.63-3.86,3.68"/><path class="cls-2" d="M25.18,33.35c-4.34,5.06-3.37,11.2-2.17,17.21q-1-2.43-1.93-4.86l-.71-4.46.21-4.56,1.82-4.36,2.74-4.06,4.26-3.54,4.66-1.93,5.47-.71-5.07,5.78c-4.07,1.32-6.47,2.21-9.28,5.49"/><path class="cls-2" d="M45.61,17.92A33.85,33.85,0,0,0,39,26.53c-1.37,2.47-2.92,4.84-4.36,7.28a9.07,9.07,0,0,0-1,3.68L31.52,35l1-3L36,25.73l7.3-7.2,2.33-.61m14.9-7.29c-2.41.9-6.43,1.2-6.7,4-.2,2,.14,3,1.33,5-2.93-3-3.66-2.57-9.32-1.62l2.43-3.45,4.26-2.64L58,10.73l2.53-.1"/><path class="cls-3" d="M67.18,48.14c.81.5.79.86.65,1.2l1.91-.76L71,46.92l.92-2.36-1.17-.88-5.12.66c-.12.34-.25.68-.38,1,0,.49.08,1,.11,1.47.17.29.33.58.49.87.26.12.51.25.76.38l.6,0m-.47-8.74c-2.57.74-2.55.94-3.3,3.49a9.94,9.94,0,0,1,3.3-3.49m17-19a2.47,2.47,0,0,0-1.19.73,7,7,0,0,1-2.15,2.28,6.66,6.66,0,0,1-1.58.69c-.45.14-.72,0-1.1.29l.68.12h1.5l1.85-1.14,1.09-1.14.9-1.83M42.92,26.06a40.74,40.74,0,0,1-3.41,7.62,23,23,0,0,0,4.26-6.28c.44-.93.52-2,1.73-1.61.06.92.25,1.85.31,2.77.65-4.7,2.5-6.66,6.79-8.48L49,20.51l-3.43.76-1.68,2.45-.93,2.34M51.24,26c.93,4.36,2.26,8.55,2.84,13,.38,2.88.42,4.27-1,6.75a9.42,9.42,0,0,0-4.09.58c-6.1,2-9.59,4.93-13.7-1l3.93,1.86L42,46.57l5-2.89,3.86-.76,1.25-5.22-.92-6.91c0-1.09-.08-2.17-.11-3.26L51.24,26m10.5,27c-.51,3.54,1.18,5.45.48,6.42-.2.28-.47.76-.77.9-1.07.47-2.54-.09-2.64.19H55.27l-1.41-.6L56,57.28Q57.1,55,58.15,52.66L59.51,48h.71l1.52,5"/><path class="cls-3" d="M55.8,42.63c.29,1.61.79,2,1.54,3.55A41.21,41.21,0,0,1,55.06,54a6.21,6.21,0,0,1-1.47,2.2,38.67,38.67,0,0,1-3.84,3.38c-1,.76-1.7.38-2.93.21-.52.94-.67,1.47-1.63,1.95-1.48.74-2.81-.85-4-1.79l2.52,3.93,1.74,1.63,1.47.22,2-1.2c.34-.65.68-1.3,1-2l2.17-1.64,2.67-2.28,1.69-2.39L58,53.42q1-2.94,2-5.88c0-.74.11-1.48.16-2.23l-2.45-1.08c-.6-.57-1.26-1-1.86-1.6M36.29,54a19.67,19.67,0,0,0,8.16-1.3,21.86,21.86,0,0,1,2.28-2.88,9.79,9.79,0,0,0-1.25,4L44.66,55l-6.2.16-2-.22-.22-.22.06-.76m-.38-1.9-.22-1.93c-.47,2.82-.35,4.71-1.65,7.24a9.52,9.52,0,0,1-3.54,2.7,5.22,5.22,0,0,1,.09,1.63c-.25,1.83-3.9,1-5.41.95l7.24,1.87,1.64-.66.54-3.15,1.52-2.83.28-1.74-.49-4.08M31.83,36.12a4.93,4.93,0,0,0,.44,3.16c.77,1.54,1.71,3,2.55,4.51l.27-3-3.26-4.63M20.66,46.49c-.24.5-.47,1-.71,1.51a18.86,18.86,0,0,0,2.46,5.47,4,4,0,0,1-.87,1.74A18.4,18.4,0,0,0,18.39,55L22,57.83l1.79-.33,1.8-1.8-2.56-4c-.8-1.74-1.61-3.49-2.41-5.24M83.75,19.65c.74,3.33,1.7,6.4,1.61,9.81-.11,4.18-.92,9.46-4.8,12-4.34,2.82-9.43,1.48-14.19.27l5.82,2.4,5.44.27,3.69-1.09,2.89-2.39,2.17-4.57.82-5.28c-.22-1.72-.44-3.44-.65-5.16l-1.2-5.12-1.6-1.13M19,29.57c-2,1.28-2.74,1.85-2.53,4.22l.59,2.14.84.56,1,.35,1.86-.45,1-3-2.65,1.3h-.61l-.69-1,.83-1.23.44-2.33.57.17.69.54-.1-1.23-.47-.78-.46-.39L19,29.57m44.2-18.73c1.75,1.63,3.9,3,5.3,5,.54.77,1.14,1.16,0,2.25a5.23,5.23,0,0,1,2.64-.19c1.77.21,3.43,2.73,3.54,4.54,0,.16-.49.55-1.86.93,0,.05-.78-.11-.76-.06.14.39.33.45.62.64a4.33,4.33,0,0,0,.4,1.57,12.05,12.05,0,0,1,2.55.25,2.27,2.27,0,0,1,.22,1.41l1-.16-.27-2.23.87-1.47-1.25-2.83-2.4-2.28h-.23c-.89-.56-1.79-1.11-2.69-1.66L66.45,13l-3.26-2.13m3,13.41a2.75,2.75,0,0,1-.41.59A3.94,3.94,0,0,1,67.08,27l-2.47,1.22-2.09,2a3.11,3.11,0,0,1-1.59-1.82,2.52,2.52,0,0,1-1.44.12,1.19,1.19,0,0,0,.71-.24l1.33-1.38,2.35-1.78,1.54-.5c.19-.08.52-.27.72-.35"/><path class="cls-3" d="M68.41,26.7c-2.62,1.41-5.13,2.83-6.47,5.51,0-3.4,3.42-4.9,6.47-5.51m-7-6.69a7.71,7.71,0,0,0-3.14,6.61c-.64-2.25-.41-4.39,1.53-5.95l1-.48.62-.18"/><path d="M87.6,26.17a20.55,20.55,0,0,0-1.75-5.93,2.24,2.24,0,0,0-.44-.57,4.57,4.57,0,0,0-1.61-1,2.42,2.42,0,0,0-1.89,0,1.37,1.37,0,0,0-.39.29,8.42,8.42,0,0,0-1,1.23,6.45,6.45,0,0,1-1.06,1.32,5.9,5.9,0,0,1-1.6.86,11.19,11.19,0,0,0-.82-1.62,16.79,16.79,0,0,0-1.27-1.71A8.11,8.11,0,0,0,74.65,18c-.41-.31-.82-.57-1.3-.87a26.44,26.44,0,0,1-3.52-2.76c-.51-.45-1-.9-1.53-1.31a13.41,13.41,0,0,0-7.84-3.45,19.55,19.55,0,0,0-8.75,2,12.58,12.58,0,0,0-3.81,2.41,22.55,22.55,0,0,0-2.74,3.19,5,5,0,0,0-1.5.31A5.82,5.82,0,0,0,42,18.57c-.45.39-.88.8-1.31,1.21s-.78.77-1.16,1.17a37.28,37.28,0,0,0-7.65,1.86,20.06,20.06,0,0,0-6.26,3.87A16.65,16.65,0,0,0,23.39,29a18.35,18.35,0,0,0-1.61,2.56,17.09,17.09,0,0,1-1.25,1.3,4.81,4.81,0,0,1-1.4.91h0c-.3.11-.42.18-.44.18a.64.64,0,0,1,0-.14,4,4,0,0,0,.92-2.76,3,3,0,0,1,.26.37c.1.15.2.3.32.45l.5.64.17-.79a5.51,5.51,0,0,0,.09-2.3,2.1,2.1,0,0,0-.74-1.25c0-.1.07-.19.11-.28.13-.32.25-.65.36-1l.22-.61-.64.11a9.43,9.43,0,0,0-4,2.51A6.26,6.26,0,0,0,15,30.59a3.14,3.14,0,0,0-.3,1.87,3.06,3.06,0,0,0,.88,1.61c.09.37.17.69.26,1a7.5,7.5,0,0,0,.36.91,2.75,2.75,0,0,0,1.68,1.49,3.49,3.49,0,0,0,1.79.06,15.94,15.94,0,0,0-.23,2.19,28.8,28.8,0,0,0,.12,3.48c0,.28.06.6.11,1s.09.58.14.87l-.34.93L19,47.38l-1.17,1.15-1.09,1.08-.26.26c-.74.71-.89.85-.68,2.1a8,8,0,0,0,.77,2.28,8.66,8.66,0,0,0,1.47,2,10.55,10.55,0,0,0,3.39,2.25,4.46,4.46,0,0,0,2.28.31c0,.11-.07.23-.11.34-.12.33-.25.64-.39,1-.91,2,0,3,1.47,3.67a14.25,14.25,0,0,0,2.37.76l.54.15a21.47,21.47,0,0,0,4.06.81c1.63.11,3.1-.23,3.49-1.69A6.84,6.84,0,0,0,35.38,61a8.82,8.82,0,0,1,1-1.81,2,2,0,0,1,.17-.25,3.17,3.17,0,0,0,.59-1.36,5.83,5.83,0,0,0-.06-1.46c0-.06,0-.15,0-.26a24.31,24.31,0,0,0,2.83.19c.47,0,1,0,1.42,0l-.37.19-.18.09c-1.25.65-1.31,1.87-.91,3.13a12.67,12.67,0,0,0,1.54,3,10.69,10.69,0,0,0,3,3.42,3.93,3.93,0,0,0,4.23-.13,3.43,3.43,0,0,0,1.52-1.61c.11-.2.24-.41.38-.63.36-.24,1.26-1,2.14-1.71l.94-.77a2.41,2.41,0,0,0,.86.37,9.27,9.27,0,0,0,1.6.2c.48,0,2,0,3,0h.71a5,5,0,0,0,2.49-.4A2.5,2.5,0,0,0,63.4,59a3.88,3.88,0,0,0,0-1.21,3.63,3.63,0,0,0-.44-1c0-.52,0-1,0-1.56s0-1.1,0-1.65a7.79,7.79,0,0,0-.22-1.7,10.83,10.83,0,0,0-.57-1.61c-.16-.38-.3-.76-.44-1.14l-.36.13.05,0,.31-.11h0a18.13,18.13,0,0,0-.73-1.75c0-.12,0-.24.06-.38l.57.55.85.82a10.05,10.05,0,0,0,1.93,1.59,4.34,4.34,0,0,0,2.56.62,6.08,6.08,0,0,0,3.22-1.22,5.34,5.34,0,0,0,2-2.64l.27-.89.22-.71a17.59,17.59,0,0,0,4.76.18A11.78,11.78,0,0,0,81.61,44a10.78,10.78,0,0,0,4.29-4.23h0a16.61,16.61,0,0,0,2-6.63,29.47,29.47,0,0,0-.31-7Zm-19.84,16A10.55,10.55,0,0,1,65.49,41a5.81,5.81,0,0,1,0,2.9c-.44,1.51-1.16,4,.88,4.43a2.64,2.64,0,0,0,2.23-.42,4.18,4.18,0,0,1-2,0,1.28,1.28,0,0,1-1-.87,3.35,3.35,0,0,0,1,.35c1.52.36,3-.37,3.24-1.42a10,10,0,0,1,.49-1.78c.31.1.64.19,1,.27l-.56,1.84a4.46,4.46,0,0,1-4.07,2.84c-1.54,0-2.53-1-3.6-2-.73-.66-1.44-1.28-2.15-1.9a16.5,16.5,0,0,1-5.26-2.65,9.26,9.26,0,0,0,3.91,3.07c-.26,2.64-1.17,4.56-1.95,7.08-.36,1.14-3.15,5.71-3.92,6.16-.55.32-4,3.23-4.66,3.61-.48.64-.9,1.53-1.63,1.91-2.22,1.18-3.64-1.07-4.84-3-.54-.87-2-3.35-.73-4a36.43,36.43,0,0,0,3.21-2c.18.34.5.66.71,1l-.14-1.11a9.19,9.19,0,0,1,0-1.89c.06-.66.11-1.31.16-2-.19.67-.57,1.33-.76,2-.08.26-.14.48-.18.68a22.41,22.41,0,0,1-8.52.11c-.18-1.06-.4-2.15-.59-2.94,0,.88,0,3.32,0,4.68a3.5,3.5,0,0,1-.59,2.32,23.34,23.34,0,0,0-1.45,2.46,6.12,6.12,0,0,1-.17,2.34c-.4,1.42-4.4.32-5.46,0-1.3-.35-4-.88-3.31-2.62a22,22,0,0,0,1.26-5.26c-2.38-3.44-4.59-8.14-5-12.3a15.47,15.47,0,0,1,.57-7.21,18.43,18.43,0,0,1,5.15-8c3.36-3,6.5-4.13,11.42-4.88-1.19,1.32-2.36,2.72-3.63,4.22a21.34,21.34,0,0,0-2.88,4.72c-1.13,2.29-1.11,3.16.39,5.18a13.3,13.3,0,0,1,2.56,4.21,8.65,8.65,0,0,0-.79,3.09c1.58,1.73,2.76,2.92,4.3,3.28a5.56,5.56,0,0,0,4.11-.4c3-1.53,5.77-3.51,9.15-3.59,1.57-3.84,1.41-7.06.66-10.78a52.79,52.79,0,0,1-.88-7.53A17.91,17.91,0,0,0,50.91,33c.56,3.2,1,6.74-.57,9.55-3.06.23-5.68,2.09-8.43,3.52a4.63,4.63,0,0,1-3.49.29c-1.14-.31-1.91-1.06-3.13-2.47a6.08,6.08,0,0,1,1-3.36c1-2.07,2.2-4,3.47-6a58.39,58.39,0,0,0-4.24,5.32,12.91,12.91,0,0,0-2.25-3.5c-1.08-1.47-1.19-2.11-.38-3.8a17.06,17.06,0,0,1,2.88-4.69c2.39-2.58,4.58-5.46,7.2-8,1.42-1.38,2-1.33,3.87-1.62,1.71-.25,3.37-.58,5.1-1-1.68.15-3.3.21-4.93.25h-.05c1.6-2.05,2.54-3.19,5.15-4.33,6.42-2.79,10.51-3.09,15.56,1.15,1.31,1.1,2.45,2.17,3.78,3.12a4.89,4.89,0,0,0-1.45.34,6.16,6.16,0,0,1,2.13.13l.6.37A5.48,5.48,0,0,1,74.78,20a18.36,18.36,0,0,1,1.72,2.89c-.32-.12-.59-.21-.83-.28a1.78,1.78,0,0,0-1.69.1l0,0a8.17,8.17,0,0,1-1.86.63,2.21,2.21,0,0,0,1.17,0l.11,0a1.69,1.69,0,0,0-.23.73,1.73,1.73,0,0,0,.19,1h0a.91.91,0,0,0,.19.3l-.76.3a12.11,12.11,0,0,1,3.45-.06c.08.37.16.76.23,1.16l-.44,0h0a2.19,2.19,0,0,0-2-.18c-2.56.59-2,2-3.14,4.19,1.22-1.5,1.13-3.06,3.13-3.53a3.12,3.12,0,0,1,1.09-.2,2.51,2.51,0,0,0-1.25,1.3c-.55,1.54-.21,2.85-.81,4.29.75-1.29.79-2.55,1.46-3.91a2.77,2.77,0,0,1,1.67-1.28h.45a11.6,11.6,0,0,1,.16,2.42,28.1,28.1,0,0,1-.63,3.94c.67-.87,1-2.7,1.28-4a11.5,11.5,0,0,0,0-4.41c-.37-2,1.67-1.66,2.85-2.6a31.05,31.05,0,0,0,2.28-2.56c.79-.77,2,.36,2.35,1.12a27.76,27.76,0,0,1,1.61,11.71c-.4,3.7-2.19,7.74-5.45,9.56-4.16,2.33-9.07.91-13.2-.48ZM61.85,58.6c-.14,1.53-.65,1.63-2,1.6-.61,0-3,0-3.65-.07a3.52,3.52,0,0,1-1.62-.35c1.36-1,3.69-5.15,4.14-6.57s1-2.82,1.39-4.21a18.19,18.19,0,0,0,.58,1.77,6.66,6.66,0,0,1,.68,2.78l.1,3.51a2,2,0,0,1,.37,1.54ZM20.73,47a31.57,31.57,0,0,0,4,8.43v0a3.1,3.1,0,0,1-.47,1.17c-1.17,1.57-4.15-.73-5-1.61a5.93,5.93,0,0,1-1.72-3.17c-.11-.78,0-.8.54-1.35l2.2-2.23L20.73,47ZM19.07,28.16a9.31,9.31,0,0,0-.49,1.21c-.46,1.61.22,3.05-1.25,4.22.69,1.39.66,1.95,2.26,1.3a5,5,0,0,0,1.58-1c-.22.57-.42,1.15-.61,1.73l-.09.3c-1.14.49-2.65.79-3.22-.41a11.58,11.58,0,0,1-.65-1.89c-1.88-2,.94-4.54,2.47-5.46ZM20,30.23a.87.87,0,0,0-.72-.36,3.09,3.09,0,0,1,.11-.56,2.29,2.29,0,0,1,.07-.28c.39.23.5.64.54,1.2Zm56.53-7.3.21.46-.16.13a1.91,1.91,0,0,0-.39-.58ZM22.1,31.8ZM36.59,55.44Zm17,5.07Zm6.9-13.12ZM19.27,34.15h0l0,0,0,0Zm66.3,5.45Zm-73-5.92c.3-3.4,1-4.87,3.38-7.42-3,2.13-3.78,3.1-3.38,7.42"/><path d="M11.83,30.9a7.12,7.12,0,0,1,1.59-3.36c-1.53,1.07-1.73,1.51-1.59,3.36M47.35,9.59c-1.81.44-2.16.77-2.7,2.55a6.9,6.9,0,0,1,2.7-2.55"/><path d="M50.21,9.33c-3.6.88-4.65,1.51-5.85,5.68C45.88,12,47,10.83,50.21,9.33M58,24.53a6,6,0,0,1,3.7-4.6c-3.5.87-4.15,2.34-3.7,4.6m22.24.12a5.69,5.69,0,0,0,3.57-4.37A8.27,8.27,0,0,1,80,24.14a4,4,0,0,1-2.51.2c1,.29,1.69.67,2.7.31M66.1,26.31a2.36,2.36,0,0,0-1.32-1.2,6.62,6.62,0,0,0,1.4-.91c-1.14.53-2.47.4-3.45,1.06s-2,2.43-2.93,3.21a7.16,7.16,0,0,0,1.81-1.12,2.34,2.34,0,0,0,1.26,2.06,5.44,5.44,0,0,0-.76,1.4,13.39,13.39,0,0,1,6.36-4.11,6.82,6.82,0,0,0-2.16.36,2.47,2.47,0,0,0-.21-.75M63.7,41.24c-.08.51-.19,1.15-.27,1.66.21-.58.47-1.25.73-1.8s.41-.64,1-1c.4-.22,1.13-.52,1.53-.74l-1.56.29c-1.11.19-1.24.45-1.41,1.54M44.83,21.49c-1.28,1.26-2.53,5.61-2.92,7.35.62-1.44,2.19-5.49,3.4-6.51a4,4,0,0,1,.81-.59c-.86,1.44-.8,1.8-.5,3.74.26-2,.94-2.73,2.06-4.2a28.06,28.06,0,0,0,3.62-1.16c-1.41.16-2.83.31-4.24.44a2.56,2.56,0,0,0-2.23.93"/><path class="cls-2" d="M62.3,28.89a1,1,0,0,1,.46-1.31,1,1,0,0,1,1.32.47.69.69,0,0,1,0,.13,6.38,6.38,0,0,0-1.26,1.23,1,1,0,0,1-.57-.52m10.94-4.24A.73.73,0,0,1,74,24a.74.74,0,0,1,.67.8.72.72,0,0,1-.07.25,6.06,6.06,0,0,0-1.12.31,1,1,0,0,1-.27-.7"/></svg>