<?xml version="1.0" encoding="UTF-8"?>
<svg xmlns="http://www.w3.org/2000/svg" xmlns:xlink="http://www.w3.org/1999/xlink" width="100px" height="75px" viewBox="0 0 100 75" version="1.1">
<g id="surface1">
<path style=" stroke:none;fill-rule:nonzero;fill:rgb(0%,0%,0%);fill-opacity:1;" d="M 31.394531 64.320312 L 25.410156 64.320312 L 25.410156 62.695312 L 33.902344 62.695312 L 33.902344 63.375 L 27.917969 72.902344 L 33.902344 72.902344 L 33.902344 74.519531 L 25.410156 74.519531 L 25.410156 73.84375 Z M 85.714844 67.851562 C 83.472656 67.304688 83.0625 66.71875 83.0625 65.722656 C 83.0625 64.730469 83.894531 64.011719 85.089844 64.011719 C 86.136719 64.015625 87.152344 64.449219 87.9375 65.238281 L 88.054688 65.339844 L 88.890625 64.074219 L 88.785156 63.976562 C 87.761719 62.992188 86.457031 62.472656 85.117188 62.519531 C 83.097656 62.519531 81.632812 63.914062 81.632812 65.871094 C 81.632812 68.054688 83.035156 68.851562 85.160156 69.375 C 87.289062 69.898438 87.699219 70.46875 87.699219 71.453125 C 87.699219 72.515625 86.820312 73.261719 85.570312 73.261719 C 84.261719 73.261719 83.277344 72.800781 82.171875 71.667969 L 82.066406 71.554688 L 81.171875 72.761719 L 81.273438 72.867188 C 82.421875 74.105469 83.953125 74.785156 85.535156 74.757812 C 87.664062 74.757812 89.152344 73.34375 89.152344 71.300781 C 89.140625 69.464844 88.117188 68.449219 85.714844 67.851562 Z M 66.371094 70.980469 C 65.433594 72.847656 63.507812 73.765625 61.683594 73.214844 C 59.855469 72.660156 58.582031 70.777344 58.582031 68.625 C 58.582031 66.472656 59.855469 64.589844 61.683594 64.039062 C 63.507812 63.488281 65.433594 64.402344 66.371094 66.273438 L 67.585938 65.472656 C 66.328125 62.980469 63.753906 61.757812 61.3125 62.5 C 58.871094 63.242188 57.171875 65.757812 57.171875 68.636719 C 57.171875 71.511719 58.871094 74.03125 61.3125 74.769531 C 63.753906 75.511719 66.328125 74.292969 67.585938 71.796875 Z M 13.035156 74.519531 L 14.589844 74.519531 L 18.167969 64.972656 L 21.75 74.519531 L 23.300781 74.519531 L 18.878906 62.707031 L 16.773438 62.707031 C 16.773438 62.707031 17.398438 62.886719 16.921875 64.171875 Z M 69.226562 74.519531 L 70.78125 74.519531 L 74.359375 64.972656 L 77.941406 74.519531 L 79.496094 74.519531 L 75.070312 62.707031 L 72.96875 62.707031 C 72.96875 62.707031 73.589844 62.886719 73.113281 64.171875 Z M 0 62.707031 C 0.324219 62.84375 0.566406 63.164062 0.636719 63.550781 C 0.726562 64.078125 0.761719 64.613281 0.742188 65.148438 L 0.742188 74.519531 L 2.359375 74.519531 L 2.359375 69.367188 L 8.328125 69.367188 L 8.328125 74.519531 L 9.945312 74.519531 L 9.945312 62.707031 L 8.328125 62.707031 L 8.328125 67.84375 L 2.359375 67.84375 L 2.359375 62.707031 Z M 37.191406 62.707031 C 37.515625 62.84375 37.757812 63.164062 37.828125 63.550781 C 37.914062 64.078125 37.949219 64.613281 37.933594 65.148438 L 37.933594 74.519531 L 44.761719 74.519531 L 44.761719 72.921875 L 39.550781 72.921875 L 39.550781 69.359375 L 44.460938 69.359375 L 44.460938 67.851562 L 39.550781 67.851562 L 39.550781 64.3125 L 44.753906 64.3125 L 44.753906 62.714844 Z M 48.589844 62.707031 C 48.914062 62.847656 49.15625 63.164062 49.226562 63.554688 C 49.3125 64.078125 49.347656 64.613281 49.332031 65.148438 L 49.332031 74.519531 L 55.667969 74.519531 L 55.667969 72.921875 L 50.949219 72.921875 L 50.949219 62.707031 Z M 96.519531 74.519531 L 96.519531 64.28125 L 99.996094 64.28125 L 99.996094 62.707031 L 91.378906 62.707031 L 91.378906 64.28125 L 94.882812 64.28125 L 94.882812 72.078125 C 94.902344 72.613281 94.867188 73.148438 94.777344 73.671875 C 94.707031 74.0625 94.46875 74.382812 94.140625 74.519531 Z M 96.519531 74.519531 "/>
<path style=" stroke:none;fill-rule:nonzero;fill:rgb(0%,88.235294%,88.235294%);fill-opacity:1;" d="M 73.382812 37.144531 L 73.246094 37.144531 C 71.117188 37.144531 68.867188 34.582031 68.867188 32.15625 L 68.867188 32.003906 L 68.539062 32.003906 L 68.539062 32.15625 C 68.539062 34.582031 66.285156 37.144531 64.15625 37.144531 L 64.019531 37.144531 L 64.019531 37.515625 L 64.15625 37.515625 C 66.285156 37.515625 68.539062 40.082031 68.539062 42.507812 L 68.539062 42.664062 L 68.867188 42.664062 L 68.867188 42.507812 C 68.867188 40.082031 71.117188 37.515625 73.246094 37.515625 L 73.382812 37.515625 Z M 73.382812 37.144531 "/>
<path style=" stroke:none;fill-rule:nonzero;fill:rgb(0%,88.235294%,88.235294%);fill-opacity:1;" d="M 35.921875 5.175781 L 35.789062 5.175781 C 33.65625 5.175781 31.40625 2.609375 31.40625 0.183594 L 31.40625 0.03125 L 31.082031 0.03125 L 31.082031 0.183594 C 31.082031 2.609375 28.828125 5.175781 26.699219 5.175781 L 26.566406 5.175781 L 26.566406 5.546875 L 26.699219 5.546875 C 28.828125 5.546875 31.082031 8.109375 31.082031 10.535156 L 31.082031 10.6875 L 31.410156 10.6875 L 31.410156 10.535156 C 31.410156 8.109375 33.664062 5.546875 35.792969 5.546875 L 35.925781 5.546875 L 35.925781 5.175781 Z M 35.921875 5.175781 "/>
<path style=" stroke:none;fill-rule:nonzero;fill:rgb(0%,88.235294%,88.235294%);fill-opacity:1;" d="M 35.921875 15.832031 L 35.789062 15.832031 C 33.65625 15.832031 31.40625 13.265625 31.40625 10.839844 L 31.40625 10.6875 L 31.082031 10.6875 L 31.082031 10.839844 C 31.082031 13.265625 28.828125 15.832031 26.699219 15.832031 L 26.566406 15.832031 L 26.566406 16.203125 L 26.699219 16.203125 C 28.828125 16.203125 31.082031 18.769531 31.082031 21.195312 L 31.082031 21.34375 L 31.410156 21.34375 L 31.410156 21.195312 C 31.410156 18.769531 33.664062 16.203125 35.792969 16.203125 L 35.925781 16.203125 L 35.925781 15.832031 Z M 35.921875 15.832031 "/>
<path style=" stroke:none;fill-rule:nonzero;fill:rgb(0%,88.235294%,88.235294%);fill-opacity:1;" d="M 45.285156 15.832031 L 45.148438 15.832031 C 43.019531 15.832031 40.765625 13.265625 40.765625 10.839844 L 40.765625 10.6875 L 40.429688 10.6875 L 40.429688 10.839844 C 40.429688 13.265625 38.179688 15.832031 36.046875 15.832031 L 35.914062 15.832031 L 35.914062 16.203125 L 36.046875 16.203125 C 38.179688 16.203125 40.429688 18.769531 40.429688 21.195312 L 40.429688 21.34375 L 40.757812 21.34375 L 40.757812 21.195312 C 40.757812 18.769531 43.011719 16.203125 45.140625 16.203125 L 45.277344 16.203125 L 45.277344 15.832031 Z M 45.285156 15.832031 "/>
<path style=" stroke:none;fill-rule:nonzero;fill:rgb(0%,88.235294%,88.235294%);fill-opacity:1;" d="M 35.921875 26.488281 L 35.789062 26.488281 C 33.65625 26.488281 31.40625 23.921875 31.40625 21.5 L 31.40625 21.34375 L 31.082031 21.34375 L 31.082031 21.5 C 31.082031 23.921875 28.828125 26.488281 26.699219 26.488281 L 26.566406 26.488281 L 26.566406 26.859375 L 26.699219 26.859375 C 28.828125 26.859375 31.082031 29.425781 31.082031 31.851562 L 31.082031 32.003906 L 31.410156 32.003906 L 31.410156 31.851562 C 31.410156 29.425781 33.664062 26.859375 35.792969 26.859375 L 35.925781 26.859375 L 35.925781 26.488281 Z M 35.921875 26.488281 "/>
<path style=" stroke:none;fill-rule:nonzero;fill:rgb(0%,88.235294%,88.235294%);fill-opacity:1;" d="M 45.285156 26.488281 L 45.148438 26.488281 C 43.019531 26.488281 40.765625 23.921875 40.765625 21.5 L 40.765625 21.34375 L 40.429688 21.34375 L 40.429688 21.5 C 40.429688 23.921875 38.179688 26.488281 36.046875 26.488281 L 35.914062 26.488281 L 35.914062 26.859375 L 36.046875 26.859375 C 38.179688 26.859375 40.429688 29.425781 40.429688 31.851562 L 40.429688 32.003906 L 40.757812 32.003906 L 40.757812 31.851562 C 40.757812 29.425781 43.011719 26.859375 45.140625 26.859375 L 45.277344 26.859375 L 45.277344 26.488281 Z M 45.285156 26.488281 "/>
<path style=" stroke:none;fill-rule:nonzero;fill:rgb(0%,88.235294%,88.235294%);fill-opacity:1;" d="M 54.648438 26.488281 L 54.511719 26.488281 C 52.382812 26.488281 50.128906 23.921875 50.128906 21.5 L 50.128906 21.34375 L 49.800781 21.34375 L 49.800781 21.5 C 49.800781 23.921875 47.550781 26.488281 45.417969 26.488281 L 45.285156 26.488281 L 45.285156 26.859375 L 45.417969 26.859375 C 47.550781 26.859375 49.800781 29.425781 49.800781 31.851562 L 49.800781 32.003906 L 50.128906 32.003906 L 50.128906 31.851562 C 50.128906 29.425781 52.382812 26.859375 54.511719 26.859375 L 54.648438 26.859375 Z M 54.648438 26.488281 "/>
<path style=" stroke:none;fill-rule:nonzero;fill:rgb(0%,88.235294%,88.235294%);fill-opacity:1;" d="M 35.921875 37.144531 L 35.789062 37.144531 C 33.65625 37.144531 31.40625 34.582031 31.40625 32.15625 L 31.40625 32.003906 L 31.082031 32.003906 L 31.082031 32.15625 C 31.082031 34.582031 28.828125 37.144531 26.699219 37.144531 L 26.566406 37.144531 L 26.566406 37.515625 L 26.699219 37.515625 C 28.828125 37.515625 31.082031 40.082031 31.082031 42.507812 L 31.082031 42.664062 L 31.410156 42.664062 L 31.410156 42.507812 C 31.410156 40.082031 33.664062 37.515625 35.792969 37.515625 L 35.925781 37.515625 L 35.925781 37.144531 Z M 35.921875 37.144531 "/>
<path style=" stroke:none;fill-rule:nonzero;fill:rgb(0%,88.235294%,88.235294%);fill-opacity:1;" d="M 45.285156 37.144531 L 45.148438 37.144531 C 43.019531 37.144531 40.765625 34.582031 40.765625 32.15625 L 40.765625 32.003906 L 40.429688 32.003906 L 40.429688 32.15625 C 40.429688 34.582031 38.179688 37.144531 36.046875 37.144531 L 35.914062 37.144531 L 35.914062 37.515625 L 36.046875 37.515625 C 38.179688 37.515625 40.429688 40.082031 40.429688 42.507812 L 40.429688 42.664062 L 40.757812 42.664062 L 40.757812 42.507812 C 40.757812 40.082031 43.011719 37.515625 45.140625 37.515625 L 45.277344 37.515625 L 45.277344 37.144531 Z M 45.285156 37.144531 "/>
<path style=" stroke:none;fill-rule:nonzero;fill:rgb(0%,88.235294%,88.235294%);fill-opacity:1;" d="M 64.007812 15.832031 L 63.875 15.832031 C 61.746094 15.832031 59.492188 13.265625 59.492188 10.839844 L 59.492188 10.6875 L 59.164062 10.6875 L 59.164062 10.839844 C 59.164062 13.265625 56.910156 15.832031 54.78125 15.832031 L 54.648438 15.832031 L 54.648438 16.203125 L 54.78125 16.203125 C 56.910156 16.203125 59.164062 18.769531 59.164062 21.195312 L 59.164062 21.34375 L 59.492188 21.34375 L 59.492188 21.195312 C 59.492188 18.769531 61.746094 16.203125 63.875 16.203125 L 64.007812 16.203125 Z M 64.007812 15.832031 "/>
<path style=" stroke:none;fill-rule:nonzero;fill:rgb(0%,88.235294%,88.235294%);fill-opacity:1;" d="M 64.007812 26.488281 L 63.875 26.488281 C 61.746094 26.488281 59.492188 23.921875 59.492188 21.5 L 59.492188 21.34375 L 59.164062 21.34375 L 59.164062 21.5 C 59.164062 23.921875 56.910156 26.488281 54.78125 26.488281 L 54.648438 26.488281 L 54.648438 26.859375 L 54.78125 26.859375 C 56.910156 26.859375 59.164062 29.425781 59.164062 31.851562 L 59.164062 32.003906 L 59.492188 32.003906 L 59.492188 31.851562 C 59.492188 29.425781 61.746094 26.859375 63.875 26.859375 L 64.007812 26.859375 Z M 64.007812 26.488281 "/>
<path style=" stroke:none;fill-rule:nonzero;fill:rgb(0%,88.235294%,88.235294%);fill-opacity:1;" d="M 64.007812 37.144531 L 63.875 37.144531 C 61.746094 37.144531 59.492188 34.582031 59.492188 32.15625 L 59.492188 32.003906 L 59.164062 32.003906 L 59.164062 32.15625 C 59.164062 34.582031 56.910156 37.144531 54.78125 37.144531 L 54.648438 37.144531 L 54.648438 37.515625 L 54.78125 37.515625 C 56.910156 37.515625 59.164062 40.082031 59.164062 42.507812 L 59.164062 42.664062 L 59.492188 42.664062 L 59.492188 42.507812 C 59.492188 40.082031 61.746094 37.515625 63.875 37.515625 L 64.007812 37.515625 Z M 64.007812 37.144531 "/>
<path style=" stroke:none;fill-rule:nonzero;fill:rgb(0%,88.235294%,88.235294%);fill-opacity:1;" d="M 73.382812 15.832031 L 73.246094 15.832031 C 71.117188 15.832031 68.867188 13.265625 68.867188 10.839844 L 68.867188 10.6875 L 68.539062 10.6875 L 68.539062 10.839844 C 68.539062 13.265625 66.285156 15.832031 64.15625 15.832031 L 64.019531 15.832031 L 64.019531 16.203125 L 64.15625 16.203125 C 66.285156 16.203125 68.539062 18.769531 68.539062 21.195312 L 68.539062 21.34375 L 68.867188 21.34375 L 68.867188 21.195312 C 68.867188 18.769531 71.117188 16.203125 73.246094 16.203125 L 73.382812 16.203125 Z M 73.382812 15.832031 "/>
<path style=" stroke:none;fill-rule:nonzero;fill:rgb(0%,88.235294%,88.235294%);fill-opacity:1;" d="M 73.382812 5.175781 L 73.246094 5.175781 C 71.117188 5.175781 68.867188 2.609375 68.867188 0.183594 L 68.867188 0.03125 L 68.539062 0.03125 L 68.539062 0.183594 C 68.539062 2.609375 66.285156 5.175781 64.15625 5.175781 L 64.019531 5.175781 L 64.019531 5.546875 L 64.15625 5.546875 C 66.285156 5.546875 68.539062 8.109375 68.539062 10.535156 L 68.539062 10.6875 L 68.867188 10.6875 L 68.867188 10.535156 C 68.867188 8.109375 71.117188 5.546875 73.246094 5.546875 L 73.382812 5.546875 Z M 73.382812 5.175781 "/>
<path style=" stroke:none;fill-rule:nonzero;fill:rgb(0%,88.235294%,88.235294%);fill-opacity:1;" d="M 73.382812 26.488281 L 73.246094 26.488281 C 71.117188 26.488281 68.867188 23.921875 68.867188 21.5 L 68.867188 21.34375 L 68.539062 21.34375 L 68.539062 21.5 C 68.539062 23.921875 66.285156 26.488281 64.15625 26.488281 L 64.019531 26.488281 L 64.019531 26.859375 L 64.15625 26.859375 C 66.285156 26.859375 68.539062 29.425781 68.539062 31.851562 L 68.539062 32.003906 L 68.867188 32.003906 L 68.867188 31.851562 C 68.867188 29.425781 71.117188 26.859375 73.246094 26.859375 L 73.382812 26.859375 Z M 73.382812 26.488281 "/>
<path style=" stroke:none;fill-rule:nonzero;fill:rgb(0%,88.235294%,88.235294%);fill-opacity:1;" d="M 73.382812 47.804688 L 73.246094 47.804688 C 71.117188 47.804688 68.867188 45.238281 68.867188 42.8125 L 68.867188 42.664062 L 68.539062 42.664062 L 68.539062 42.8125 C 68.539062 45.238281 66.285156 47.804688 64.15625 47.804688 L 64.019531 47.804688 L 64.019531 48.183594 L 64.15625 48.183594 C 66.285156 48.183594 68.539062 50.746094 68.539062 53.171875 L 68.539062 53.328125 L 68.867188 53.328125 L 68.867188 53.171875 C 68.867188 50.746094 71.117188 48.183594 73.246094 48.183594 L 73.382812 48.183594 Z M 73.382812 47.804688 "/>
<path style=" stroke:none;fill-rule:nonzero;fill:rgb(0%,88.235294%,88.235294%);fill-opacity:1;" d="M 35.921875 47.804688 L 35.789062 47.804688 C 33.65625 47.804688 31.40625 45.238281 31.40625 42.8125 L 31.40625 42.664062 L 31.082031 42.664062 L 31.082031 42.8125 C 31.082031 45.238281 28.828125 47.804688 26.699219 47.804688 L 26.566406 47.804688 L 26.566406 48.183594 L 26.699219 48.183594 C 28.828125 48.183594 31.082031 50.746094 31.082031 53.171875 L 31.082031 53.328125 L 31.410156 53.328125 L 31.410156 53.171875 C 31.410156 50.746094 33.664062 48.183594 35.792969 48.183594 L 35.925781 48.183594 L 35.925781 47.8125 Z M 35.921875 47.804688 "/>
</g>
</svg>
