<?xml version="1.0" encoding="UTF-8"?>
<svg xmlns="http://www.w3.org/2000/svg" xmlns:xlink="http://www.w3.org/1999/xlink" width="100px" height="75px" viewBox="0 0 100 75" version="1.1">
<g id="surface1">
<path style=" stroke:none;fill-rule:nonzero;fill:rgb(0%,88.235294%,88.235294%);fill-opacity:1;" d="M 100 52.242188 L 99.714844 52.242188 C 95.160156 52.242188 90.351562 48.628906 90.351562 45.214844 L 90.351562 45.011719 L 89.65625 45.011719 L 89.65625 45.226562 C 89.65625 48.640625 84.839844 52.253906 80.285156 52.253906 L 80 52.253906 L 80 52.777344 L 80.269531 52.777344 C 84.824219 52.777344 89.640625 56.382812 89.640625 59.796875 L 89.640625 60.011719 L 90.335938 60.011719 L 90.335938 59.796875 C 90.335938 56.382812 95.144531 52.777344 99.699219 52.777344 L 99.984375 52.777344 L 99.984375 52.253906 Z M 100 52.242188 "/>
<path style=" stroke:none;fill-rule:nonzero;fill:rgb(0%,88.235294%,88.235294%);fill-opacity:1;" d="M 20 7.234375 L 19.714844 7.234375 C 15.160156 7.234375 10.351562 3.628906 10.351562 0.214844 L 10.351562 0 L 9.648438 0 L 9.648438 0.214844 C 9.648438 3.628906 4.839844 7.234375 0.285156 7.234375 L 0 7.234375 L 0 7.765625 L 0.285156 7.765625 C 4.839844 7.765625 9.648438 11.371094 9.648438 14.785156 L 9.648438 15 L 10.351562 15 L 10.351562 14.785156 C 10.351562 11.371094 15.160156 7.765625 19.714844 7.765625 L 20 7.765625 Z M 20 7.234375 "/>
<path style=" stroke:none;fill-rule:nonzero;fill:rgb(0%,88.235294%,88.235294%);fill-opacity:1;" d="M 20 22.242188 L 19.714844 22.242188 C 15.160156 22.242188 10.351562 18.628906 10.351562 15.191406 L 10.351562 14.976562 L 9.648438 14.976562 L 9.648438 15.191406 C 9.648438 18.605469 4.839844 22.21875 0.285156 22.21875 L 0 22.21875 L 0 22.742188 L 0.285156 22.742188 C 4.839844 22.742188 9.648438 26.347656 9.648438 29.765625 L 9.648438 29.976562 L 10.351562 29.976562 L 10.351562 29.765625 C 10.351562 26.347656 15.160156 22.742188 19.714844 22.742188 L 20 22.742188 L 20 22.21875 Z M 20 22.242188 "/>
<path style=" stroke:none;fill-rule:nonzero;fill:rgb(0%,88.235294%,88.235294%);fill-opacity:1;" d="M 40 22.242188 L 39.714844 22.242188 C 35.160156 22.242188 30.351562 18.628906 30.351562 15.214844 L 30.351562 15 L 29.648438 15 L 29.648438 15.191406 C 29.648438 18.605469 24.839844 22.21875 20.285156 22.21875 L 20 22.21875 L 20 22.742188 L 20.253906 22.742188 C 24.808594 22.742188 29.617188 26.347656 29.617188 29.765625 L 29.617188 29.976562 L 30.324219 29.976562 L 30.324219 29.765625 C 30.324219 26.347656 35.132812 22.742188 39.683594 22.742188 L 39.96875 22.742188 L 39.96875 22.21875 Z M 40 22.242188 "/>
<path style=" stroke:none;fill-rule:nonzero;fill:rgb(0%,88.235294%,88.235294%);fill-opacity:1;" d="M 20 37.242188 L 19.714844 37.242188 C 15.160156 37.242188 10.351562 33.628906 10.351562 30.214844 L 10.351562 30 L 9.648438 30 L 9.648438 30.214844 C 9.648438 33.628906 4.839844 37.242188 0.285156 37.242188 L 0 37.242188 L 0 37.765625 L 0.285156 37.765625 C 4.839844 37.765625 9.648438 41.371094 9.648438 44.785156 L 9.648438 45.011719 L 10.351562 45.011719 L 10.351562 44.785156 C 10.351562 41.371094 15.160156 37.765625 19.714844 37.765625 L 20 37.765625 Z M 20 37.242188 "/>
<path style=" stroke:none;fill-rule:nonzero;fill:rgb(0%,88.235294%,88.235294%);fill-opacity:1;" d="M 40 37.242188 L 39.714844 37.242188 C 35.160156 37.242188 30.351562 33.628906 30.351562 30.214844 L 30.351562 30 L 29.648438 30 L 29.648438 30.214844 C 29.648438 33.628906 24.839844 37.242188 20.285156 37.242188 L 20 37.242188 L 20 37.765625 L 20.253906 37.765625 C 24.808594 37.765625 29.617188 41.371094 29.617188 44.785156 L 29.617188 45.011719 L 30.324219 45.011719 L 30.324219 44.785156 C 30.324219 41.371094 35.132812 37.765625 39.683594 37.765625 L 39.96875 37.765625 L 39.96875 37.242188 Z M 40 37.242188 "/>
<path style=" stroke:none;fill-rule:nonzero;fill:rgb(0%,88.235294%,88.235294%);fill-opacity:1;" d="M 60.015625 37.242188 L 59.714844 37.242188 C 55.160156 37.242188 50.351562 33.628906 50.351562 30.214844 L 50.351562 30 L 49.648438 30 L 49.648438 30.214844 C 49.648438 33.628906 44.839844 37.242188 40.285156 37.242188 L 40 37.242188 L 40 37.765625 L 40.285156 37.765625 C 44.839844 37.765625 49.648438 41.371094 49.648438 44.785156 L 49.648438 45.011719 L 50.351562 45.011719 L 50.351562 44.785156 C 50.351562 41.371094 55.160156 37.765625 59.714844 37.765625 L 60.015625 37.765625 Z M 60.015625 37.242188 "/>
<path style=" stroke:none;fill-rule:nonzero;fill:rgb(0%,88.235294%,88.235294%);fill-opacity:1;" d="M 20 52.242188 L 19.714844 52.242188 C 15.160156 52.242188 10.351562 48.628906 10.351562 45.214844 L 10.351562 45.011719 L 9.648438 45.011719 L 9.648438 45.226562 C 9.648438 48.640625 4.839844 52.253906 0.285156 52.253906 L 0 52.253906 L 0 52.777344 L 0.285156 52.777344 C 4.839844 52.777344 9.648438 56.382812 9.648438 59.796875 L 9.648438 60.011719 L 10.351562 60.011719 L 10.351562 59.796875 C 10.351562 56.382812 15.160156 52.777344 19.714844 52.777344 L 20 52.777344 Z M 20 52.242188 "/>
<path style=" stroke:none;fill-rule:nonzero;fill:rgb(0%,88.235294%,88.235294%);fill-opacity:1;" d="M 40 52.242188 L 39.714844 52.242188 C 35.160156 52.242188 30.351562 48.628906 30.351562 45.214844 L 30.351562 45.011719 L 29.648438 45.011719 L 29.648438 45.226562 C 29.648438 48.640625 24.839844 52.253906 20.285156 52.253906 L 20 52.253906 L 20 52.777344 L 20.253906 52.777344 C 24.808594 52.777344 29.617188 56.382812 29.617188 59.796875 L 29.617188 60.011719 L 30.324219 60.011719 L 30.324219 59.796875 C 30.324219 56.382812 35.132812 52.777344 39.683594 52.777344 L 39.96875 52.777344 L 39.96875 52.253906 Z M 40 52.242188 "/>
<path style=" stroke:none;fill-rule:nonzero;fill:rgb(0%,88.235294%,88.235294%);fill-opacity:1;" d="M 80 22.242188 L 79.714844 22.242188 C 75.160156 22.242188 70.351562 18.628906 70.351562 15.214844 L 70.351562 15 L 69.65625 15 L 69.65625 15.191406 C 69.65625 18.605469 64.839844 22.21875 60.285156 22.21875 L 60.015625 22.21875 L 60.015625 22.742188 L 60.300781 22.742188 C 64.855469 22.742188 69.667969 26.347656 69.667969 29.765625 L 69.667969 29.976562 L 70.367188 29.976562 L 70.367188 29.765625 C 70.367188 26.347656 75.175781 22.742188 79.730469 22.742188 L 80.015625 22.742188 L 80.015625 22.21875 Z M 80 22.242188 "/>
<path style=" stroke:none;fill-rule:nonzero;fill:rgb(0%,88.235294%,88.235294%);fill-opacity:1;" d="M 80 37.242188 L 79.714844 37.242188 C 75.160156 37.242188 70.351562 33.628906 70.351562 30.214844 L 70.351562 30 L 69.65625 30 L 69.65625 30.214844 C 69.65625 33.628906 64.839844 37.242188 60.285156 37.242188 L 60.015625 37.242188 L 60.015625 37.765625 L 60.300781 37.765625 C 64.855469 37.765625 69.667969 41.371094 69.667969 44.785156 L 69.667969 45.011719 L 70.367188 45.011719 L 70.367188 44.785156 C 70.367188 41.371094 75.175781 37.765625 79.730469 37.765625 L 80.015625 37.765625 L 80.015625 37.242188 Z M 80 37.242188 "/>
<path style=" stroke:none;fill-rule:nonzero;fill:rgb(0%,88.235294%,88.235294%);fill-opacity:1;" d="M 80 52.242188 L 79.714844 52.242188 C 75.160156 52.242188 70.351562 48.628906 70.351562 45.214844 L 70.351562 45.011719 L 69.65625 45.011719 L 69.65625 45.226562 C 69.65625 48.640625 64.839844 52.253906 60.285156 52.253906 L 60.015625 52.253906 L 60.015625 52.777344 L 60.300781 52.777344 C 64.855469 52.777344 69.667969 56.382812 69.667969 59.796875 L 69.667969 60.011719 L 70.367188 60.011719 L 70.367188 59.796875 C 70.367188 56.382812 75.175781 52.777344 79.730469 52.777344 L 80.015625 52.777344 L 80.015625 52.253906 Z M 80 52.242188 "/>
<path style=" stroke:none;fill-rule:nonzero;fill:rgb(0%,88.235294%,88.235294%);fill-opacity:1;" d="M 100 22.242188 L 99.714844 22.242188 C 95.160156 22.242188 90.351562 18.628906 90.351562 15.214844 L 90.351562 15 L 89.65625 15 L 89.65625 15.191406 C 89.65625 18.605469 84.839844 22.21875 80.285156 22.21875 L 80 22.21875 L 80 22.742188 L 80.269531 22.742188 C 84.824219 22.742188 89.640625 26.347656 89.640625 29.765625 L 89.640625 29.976562 L 90.335938 29.976562 L 90.335938 29.765625 C 90.335938 26.347656 95.144531 22.742188 99.699219 22.742188 L 99.984375 22.742188 L 99.984375 22.21875 Z M 100 22.242188 "/>
<path style=" stroke:none;fill-rule:nonzero;fill:rgb(0%,88.235294%,88.235294%);fill-opacity:1;" d="M 100 7.234375 L 99.714844 7.234375 C 95.160156 7.234375 90.351562 3.628906 90.351562 0.214844 L 90.351562 0 L 89.65625 0 L 89.65625 0.214844 C 89.65625 3.628906 84.839844 7.234375 80.285156 7.234375 L 80 7.234375 L 80 7.765625 L 80.269531 7.765625 C 84.824219 7.765625 89.640625 11.371094 89.640625 14.785156 L 89.640625 15 L 90.335938 15 L 90.335938 14.785156 C 90.335938 11.371094 95.144531 7.765625 99.699219 7.765625 L 99.984375 7.765625 L 99.984375 7.234375 Z M 100 7.234375 "/>
<path style=" stroke:none;fill-rule:nonzero;fill:rgb(0%,88.235294%,88.235294%);fill-opacity:1;" d="M 100 37.242188 L 99.714844 37.242188 C 95.160156 37.242188 90.351562 33.628906 90.351562 30.214844 L 90.351562 30 L 89.65625 30 L 89.65625 30.214844 C 89.65625 33.628906 84.839844 37.242188 80.285156 37.242188 L 80 37.242188 L 80 37.765625 L 80.269531 37.765625 C 84.824219 37.765625 89.640625 41.371094 89.640625 44.785156 L 89.640625 45.011719 L 90.335938 45.011719 L 90.335938 44.785156 C 90.335938 41.371094 95.144531 37.765625 99.699219 37.765625 L 99.984375 37.765625 L 99.984375 37.242188 Z M 100 37.242188 "/>
<path style=" stroke:none;fill-rule:nonzero;fill:rgb(0%,88.235294%,88.235294%);fill-opacity:1;" d="M 100 67.242188 L 99.714844 67.242188 C 95.160156 67.242188 90.351562 63.628906 90.351562 60.214844 L 90.351562 60 L 89.65625 60 L 89.65625 60.203125 C 89.65625 63.617188 84.839844 67.230469 80.285156 67.230469 L 80 67.230469 L 80 67.753906 L 80.269531 67.753906 C 84.824219 67.753906 89.640625 71.359375 89.640625 74.773438 L 89.640625 74.988281 L 90.335938 74.988281 L 90.335938 74.773438 C 90.335938 71.359375 95.144531 67.753906 99.699219 67.753906 L 99.984375 67.753906 L 99.984375 67.230469 Z M 100 67.242188 "/>
<path style=" stroke:none;fill-rule:nonzero;fill:rgb(0%,88.235294%,88.235294%);fill-opacity:1;" d="M 20 67.242188 L 19.714844 67.242188 C 15.160156 67.242188 10.351562 63.628906 10.351562 60.214844 L 10.351562 60 L 9.648438 60 L 9.648438 60.203125 C 9.648438 63.617188 4.839844 67.230469 0.285156 67.230469 L 0 67.230469 L 0 67.753906 L 0.285156 67.753906 C 4.839844 67.753906 9.648438 71.359375 9.648438 74.773438 L 9.648438 74.988281 L 10.351562 74.988281 L 10.351562 74.773438 C 10.351562 71.359375 15.160156 67.753906 19.714844 67.753906 L 20 67.753906 L 20 67.230469 Z M 20 67.242188 "/>
</g>
</svg>
