<svg id="Layer_1" data-name="Layer 1" xmlns="http://www.w3.org/2000/svg" viewBox="0 0 100 75"><defs><style>.cls-1{fill:#2d7de4;}.cls-2{fill:#041a3b;}</style></defs><path class="cls-1" d="M62.07,8.7H49.13V25.86H66.29v-13A4.19,4.19,0,0,0,62.1,8.7"/><path class="cls-2" d="M62.07,30.41H53.35a4.19,4.19,0,0,0-4.19,4.19v13H66.29V34.63a4.19,4.19,0,0,0-4.19-4.19"/><path class="cls-2" d="M44.11,47.57H33.69a4.29,4.29,0,0,1-4.29-4.29V13A4.29,4.29,0,0,1,33.69,8.7H44.11Z"/><path class="cls-2" d="M64.3,62.93c-1.23,0-1.82.41-1.82,1.24s.44,1.24,1.41,1.24a4.18,4.18,0,0,0,2.51-.76V63.08a16.19,16.19,0,0,0-2.09-.15m3.9,4H67.12l-.48-.79a5.17,5.17,0,0,1-2.75.79c-2.14,0-3.23-.92-3.23-2.74s1.22-2.8,3.64-2.8a16.18,16.18,0,0,1,2.09.14v-.63c0-.9-.71-1.33-2.16-1.33a9.64,9.64,0,0,0-2.67.4l-.2.06V58.49h.11a9.87,9.87,0,0,1,2.76-.42c2.64,0,4,1,4,2.82Z"/><path class="cls-2" d="M22,66.94H20.12V61.37a1.75,1.75,0,0,0-1.68-1.76h-.05a3.49,3.49,0,0,0-2.32,1v6.33H14.25V54.7h.94a.88.88,0,0,1,.84.88v3.24a4.19,4.19,0,0,1,2.52-.77c2.22,0,3.35,1.13,3.35,3.35Z"/><path class="cls-2" d="M26.83,62.93c-1.23,0-1.82.41-1.82,1.24s.44,1.24,1.4,1.24a4.18,4.18,0,0,0,2.51-.76V63.08a16.19,16.19,0,0,0-2.09-.15m3.9,4H29.66l-.49-.79a5.14,5.14,0,0,1-2.75.79c-2.13,0-3.22-.92-3.22-2.74s1.22-2.8,3.63-2.8a16.34,16.34,0,0,1,2.1.14v-.63c0-.9-.71-1.33-2.16-1.33a9.71,9.71,0,0,0-2.68.4l-.2.06V58.49H24a10,10,0,0,1,2.77-.42c2.64,0,4,1,4,2.82Z"/><path class="cls-2" d="M39.06,66.94h-7V65.59l0,0,5-6H32.21V58.05h7v1.43l0,0-4.92,6h4.79Z"/><path class="cls-2" d="M41.81,61.5H46.1a1.82,1.82,0,0,0-1.66-2,1.6,1.6,0,0,0-.38,0,2,2,0,0,0-2.23,1.73,1.64,1.64,0,0,0,0,.22m2.75,5.42c-3,0-4.58-1.52-4.58-4.54S41.37,58,44.09,58c2.52,0,3.81,1.27,3.81,3.78a8.32,8.32,0,0,1-.07,1.12v.13h-6c.06,1.58,1,2.33,2.93,2.33a9.24,9.24,0,0,0,2.51-.32l.2,0v1.54h-.11a9.88,9.88,0,0,1-2.81.34"/><path class="cls-2" d="M51.22,66.94H49.46V54.7h.93a.87.87,0,0,1,.83.88Z"/><path class="cls-2" d="M57.27,66.94c-3.14,0-4.73-1.55-4.73-4.61,0-2.84,1.59-4.28,4.73-4.28a10.14,10.14,0,0,1,2.33.25h.11v1.54l-.2,0a10.16,10.16,0,0,0-2.34-.24c-1.91,0-2.83.9-2.83,2.75,0,2.07.92,3.08,2.83,3.08a10.22,10.22,0,0,0,2.34-.24h.19v1.54h-.12a10.64,10.64,0,0,1-2.32.25"/><path class="cls-2" d="M73.15,66.94a12,12,0,0,1-3.1-.41h-.11V64.85l.19.07a9.68,9.68,0,0,0,3,.48c1.9,0,1.9-.84,1.9-1.07,0-.43-.13-1-1.28-1H72.54c-2,0-3-.9-3-2.68s1.26-2.6,3.73-2.6a12,12,0,0,1,3.09.41h.11v1.67l-.19-.06a9.62,9.62,0,0,0-3-.48c-2,0-2,.84-2,1.07,0,.68.38,1,1.19,1h1.26c2,0,3.09.9,3.09,2.68S75.6,67,73.14,67"/><path class="cls-2" d="M82.14,66.94H80.55c-1.53,0-2.31-.84-2.31-2.46V56.66h1.22l.33,1.39h2.35v1.53H80.05v4.78c0,.72.28,1,.88,1h1.21Z"/><path class="cls-2" d="M85,57a1.43,1.43,0,0,1-.11.58,1.31,1.31,0,0,1-.28.45,1.38,1.38,0,0,1-1.44.27,1.26,1.26,0,0,1-.42-.27,1.51,1.51,0,0,1-.29-.45,1.62,1.62,0,0,1-.11-.58,1.73,1.73,0,0,1,.11-.6,1.42,1.42,0,0,1,.29-.43,1.07,1.07,0,0,1,.42-.28,1.46,1.46,0,0,1,1,0,1.11,1.11,0,0,1,.43.28,1.23,1.23,0,0,1,.28.43A1.52,1.52,0,0,1,85,57Zm-.28,0a1.4,1.4,0,0,0-.06-.5,1.31,1.31,0,0,0-.21-.36,1,1,0,0,0-.34-.23,1,1,0,0,0-.42-.09,1.06,1.06,0,0,0-.42.09.9.9,0,0,0-.32.23,1.13,1.13,0,0,0-.22.36,1.5,1.5,0,0,0-.08.47,1.44,1.44,0,0,0,.08.46,1.07,1.07,0,0,0,.22.37.9.9,0,0,0,.32.23,1,1,0,0,0,.42.08,1,1,0,0,0,.76-.31,1.23,1.23,0,0,0,.21-.37A1.28,1.28,0,0,0,84.72,57Zm-.66.77a3.79,3.79,0,0,0-.2-.34,2.35,2.35,0,0,0-.19-.25h-.26v.59h-.27V56.23h.43a.82.82,0,0,1,.51.12.42.42,0,0,1,.17.37.37.37,0,0,1-.07.25.46.46,0,0,1-.22.17l.09.12.1.15.11.18.1.19Zm-.65-.84h.15a.93.93,0,0,0,.29,0,.2.2,0,0,0,.12-.2.23.23,0,0,0-.15-.18.75.75,0,0,0-.26,0h-.19Z"/></svg>