<?xml version="1.0" encoding="UTF-8"?>
<svg xmlns="http://www.w3.org/2000/svg" xmlns:xlink="http://www.w3.org/1999/xlink" width="100px" height="75px" viewBox="0 0 100 75" version="1.1">
<g id="surface1">
<path style=" stroke:none;fill-rule:nonzero;fill:rgb(0.392157%,0.392157%,0%);fill-opacity:1;" d="M 71.320312 75.125 C 71.160156 75.125 71 75.125 70.78125 75.066406 C 70.722656 69.550781 70.722656 64.09375 70.722656 58.628906 C 68.832031 58.628906 67.023438 58.628906 65.078125 58.628906 C 65.078125 60.597656 65.078125 62.535156 65.078125 64.46875 C 65.007812 64.46875 64.933594 64.464844 64.859375 64.464844 C 64.859375 62.519531 64.859375 60.570312 64.859375 58.636719 C 63.011719 58.636719 61.25 58.636719 59.425781 58.636719 C 59.425781 61.519531 59.425781 64.367188 59.425781 67.226562 C 57.234375 67.234375 55.074219 67.421875 53.140625 66.238281 C 53.261719 66.910156 53.675781 67.238281 54.308594 67.375 C 54.8125 67.484375 55.332031 67.617188 55.847656 67.617188 C 59.09375 67.613281 62.339844 67.574219 65.589844 67.546875 C 66.304688 67.542969 67.019531 67.546875 67.734375 67.546875 C 64.773438 68.457031 61.808594 69.328125 58.824219 70.132812 C 56.734375 70.695312 54.628906 71.222656 52.5 71.664062 C 51.582031 71.859375 50.589844 71.804688 49.632812 71.863281 C 53.039062 72.15625 56.226562 71.332031 59.460938 70.496094 C 59.460938 72.082031 59.460938 73.605469 59.460938 75.125 C 39.695312 75.125 19.929688 75.125 0.15625 75.125 C 0.15625 50.132812 0.15625 25.140625 0.15625 0.136719 C 33.464844 0.136719 66.78125 0.136719 100.148438 0.136719 C 100.148438 19.578125 100.148438 39.027344 100.078125 58.539062 C 96.820312 58.597656 93.632812 58.597656 90.390625 58.597656 C 90.390625 64.144531 90.390625 69.636719 90.390625 75.125 C 89.136719 75.125 87.882812 75.125 86.558594 75.070312 C 86.761719 73.71875 87.023438 72.417969 87.316406 71.121094 C 87.625 69.746094 87.972656 68.378906 88.289062 67.003906 C 88.730469 65.070312 89.15625 63.136719 89.582031 61.203125 C 89.773438 60.351562 89.945312 59.5 90.132812 58.625 C 88.210938 58.625 86.394531 58.625 84.566406 58.625 C 84.175781 60.820312 83.792969 62.996094 83.410156 65.167969 C 83.023438 62.984375 82.636719 60.796875 82.257812 58.636719 C 78.570312 58.636719 74.957031 58.636719 71.320312 58.636719 C 71.320312 64.160156 71.320312 69.644531 71.320312 75.125 M 59.167969 55.875 C 59.113281 55.867188 59.058594 55.859375 58.921875 55.804688 C 58.722656 55.597656 58.492188 55.398438 58.324219 55.171875 C 57.65625 54.261719 57.667969 54.078125 58.464844 53.230469 C 59.488281 52.140625 60.46875 51.035156 60.878906 49.601562 C 61.148438 49.847656 61.34375 50.03125 61.558594 50.300781 C 63.816406 52.699219 66.625 54.519531 70.0625 55.554688 C 73.839844 56.695312 77.792969 56.210938 80.5625 53.214844 C 81.550781 52.144531 82.433594 51 83.285156 49.851562 C 85.046875 47.472656 85.980469 44.847656 86.445312 42.097656 C 86.578125 41.324219 86.5625 40.554688 85.875 39.820312 C 84.996094 39.339844 84.285156 39.808594 83.515625 40.082031 C 82.726562 40.367188 81.925781 40.652344 81.09375 40.800781 C 80.449219 40.917969 79.746094 40.855469 79.074219 40.816406 C 78.625 40.792969 78.421875 40.90625 78.265625 41.265625 C 77.796875 42.339844 77.316406 43.414062 76.761719 44.457031 C 76.441406 45.058594 75.941406 45.585938 75.121094 45.863281 C 75.667969 44.878906 76.175781 43.960938 76.695312 43.023438 C 75.601562 42.691406 74.671875 42.648438 73.863281 43.300781 C 73.429688 43.644531 73.019531 44.007812 72.589844 44.355469 C 72.46875 44.453125 72.320312 44.53125 72.1875 44.617188 C 72.863281 43.761719 73.082031 42.617188 74.496094 42.195312 C 73.652344 42 72.875 41.757812 72.105469 42.21875 C 71.640625 42.496094 71.203125 42.804688 70.679688 43.050781 C 70.65625 43.039062 70.628906 43.023438 70.644531 42.929688 C 72.394531 40.953125 71.773438 41.152344 74.769531 41.542969 C 75.039062 41.578125 75.308594 41.632812 75.5625 41.710938 C 75.707031 41.757812 75.824219 41.871094 75.941406 41.964844 C 76.152344 42.136719 76.347656 42.3125 76.621094 42.550781 C 76.84375 42.0625 76.988281 41.742188 77.132812 41.421875 C 76.347656 41.203125 75.644531 41.007812 74.929688 40.734375 C 74.929688 40.683594 74.933594 40.636719 75.0625 40.574219 C 75.382812 40.503906 75.808594 40.742188 75.992188 40.28125 C 76.277344 39.5625 75.964844 39.308594 74.820312 39.269531 C 75.03125 39.011719 75.328125 38.734375 74.621094 38.621094 C 74.621094 38.621094 74.621094 38.566406 74.753906 38.566406 C 75.179688 38.582031 75.605469 38.589844 76.027344 38.617188 C 76.84375 38.664062 77.65625 38.722656 77.867188 39.761719 C 78.054688 39.464844 78.191406 39.347656 78.191406 39.234375 C 78.21875 38.230469 78.234375 37.234375 77.539062 36.332031 C 77.152344 35.824219 76.824219 35.28125 76.511719 34.738281 C 76.179688 34.15625 75.917969 33.53125 74.976562 33.449219 C 75.195312 33.429688 75.414062 33.414062 75.671875 33.394531 C 75.074219 32.246094 74.492188 31.121094 73.902344 29.933594 C 73.886719 29.890625 73.867188 29.847656 73.867188 29.734375 C 73.84375 29.695312 73.820312 29.652344 73.777344 29.523438 C 73.625 29.285156 73.472656 29.046875 73.320312 28.808594 C 73.25 28.835938 73.179688 28.863281 73.109375 28.886719 C 73.109375 29.265625 73.109375 29.644531 73.109375 30.023438 C 72.289062 28.453125 71.785156 26.855469 72.304688 25.082031 C 73.089844 23.019531 73.875 20.960938 74.648438 18.898438 C 75.09375 17.707031 74.800781 16.609375 74.09375 15.535156 C 72.1875 12.648438 69.792969 10.074219 67.070312 7.695312 C 66.164062 6.902344 65.101562 6.5 63.78125 6.300781 C 64.011719 6.5625 64.203125 6.78125 64.277344 7.03125 C 63.941406 6.96875 63.601562 6.921875 63.273438 6.839844 C 62.699219 6.699219 62.148438 6.492188 61.566406 6.386719 C 58.121094 5.746094 54.875 7.359375 52.300781 10.03125 C 52.65625 10.230469 53.011719 10.414062 53.351562 10.617188 C 55.324219 11.816406 57.324219 12.992188 59.242188 14.246094 C 59.707031 14.550781 60.058594 15.097656 60.210938 15.585938 C 60.917969 17.859375 61.558594 20.148438 62.171875 22.445312 C 62.40625 23.320312 62.972656 23.945312 63.832031 24.429688 C 64.230469 24.65625 64.625 24.882812 65.019531 25.109375 C 64.996094 25.152344 64.972656 25.191406 64.953125 25.230469 C 64.238281 25.085938 63.527344 24.9375 62.773438 24.78125 C 62.816406 25.316406 62.859375 25.808594 62.800781 26.261719 C 62.738281 26.101562 62.667969 25.945312 62.621094 25.785156 C 61.742188 22.765625 60.628906 19.808594 59.15625 16.949219 C 58.894531 16.441406 58.605469 15.902344 58.164062 15.5 C 56.261719 13.761719 54.066406 12.308594 51.59375 11.1875 C 48.214844 9.652344 44.769531 8.226562 41.390625 6.699219 C 35.96875 4.25 30.300781 2.394531 24.1875 1.582031 C 22.730469 1.386719 21.4375 1.851562 20.414062 2.632812 C 19.523438 3.308594 18.855469 4.195312 18.011719 5.039062 C 16.597656 6.664062 14.96875 8.109375 12.839844 9.234375 C 16.582031 10.191406 19.820312 11.855469 23.085938 13.480469 C 22.882812 13.488281 22.703125 13.453125 22.53125 13.394531 C 21.683594 13.089844 20.828125 12.792969 19.988281 12.472656 C 16.371094 11.101562 12.660156 10.066406 8.625 9.960938 C 5.453125 9.882812 5.429688 9.824219 3.714844 12.089844 C 2.601562 13.566406 1.664062 15.09375 1.78125 16.925781 C 1.917969 19.089844 2.652344 21.097656 4.289062 22.773438 C 5.941406 24.46875 7.71875 26.085938 9.554688 27.648438 C 10.941406 28.828125 11.9375 30.132812 12.492188 31.71875 C 12.847656 32.734375 13.367188 33.707031 13.808594 34.703125 C 14.046875 35.242188 14.492188 35.425781 15.191406 35.425781 C 16.992188 35.4375 18.789062 35.527344 20.585938 35.566406 C 21.359375 35.582031 22.175781 35.667969 22.902344 35.507812 C 25.246094 34.996094 27.632812 34.542969 29.859375 33.777344 C 34.058594 32.339844 38.402344 31.34375 42.796875 30.457031 C 44.070312 30.199219 45.359375 30 46.675781 29.769531 C 46.46875 30.628906 46.246094 31.398438 46.101562 32.179688 C 45.722656 34.238281 45.996094 36.289062 46.152344 38.351562 C 46.265625 39.769531 47.203125 40.542969 48.511719 41.167969 C 49.070312 41.4375 49.667969 41.660156 50.269531 41.859375 C 51.1875 42.15625 52.125 42.417969 53.089844 42.703125 C 52.871094 43.035156 52.679688 43.324219 52.492188 43.617188 C 50.8125 46.234375 51.195312 48.144531 53.761719 50.1875 C 54.242188 50.566406 54.6875 51.007812 55.023438 51.480469 C 55.582031 52.265625 56.050781 53.09375 56.539062 53.914062 C 57.082031 54.828125 57.75 55.640625 58.992188 56.089844 C 59.035156 56.109375 59.082031 56.117188 59.210938 56.1875 C 61.203125 56.652344 63.585938 55.953125 64.96875 54.476562 C 64.714844 54.210938 64.453125 53.945312 64.125 53.605469 C 63.789062 53.929688 63.476562 54.171875 63.257812 54.460938 C 62.4375 55.550781 62.054688 55.699219 60.5625 55.359375 C 60.070312 55.246094 59.589844 55.082031 59.105469 54.941406 C 59.085938 54.96875 59.070312 54.996094 59.054688 55.023438 C 59.535156 55.3125 60.019531 55.597656 60.621094 55.957031 C 60.058594 55.957031 59.683594 55.957031 59.269531 55.933594 C 59.269531 55.933594 59.214844 55.933594 59.167969 55.875 M 31.335938 34.621094 C 31.335938 34.621094 31.285156 34.621094 31.191406 34.632812 C 30.742188 34.859375 30.253906 35.042969 29.859375 35.320312 C 29.640625 35.472656 29.441406 35.792969 29.46875 36.019531 C 29.554688 36.699219 29.753906 37.367188 29.902344 38.140625 C 29.945312 38.300781 29.992188 38.464844 30.035156 38.625 C 30.992188 42.425781 33.042969 45.683594 36.882812 48.003906 C 39.128906 49.359375 41.40625 50.675781 43.722656 51.941406 C 45.171875 52.734375 46.722656 53.402344 48.257812 54.140625 C 48.488281 53.679688 48.671875 53.324219 48.871094 52.921875 C 47.011719 52.253906 45.769531 51.054688 44.839844 49.703125 C 42.816406 46.761719 40.828125 43.796875 39.0625 40.746094 C 37.679688 38.359375 36.648438 35.832031 35.425781 33.292969 C 34.152344 33.523438 32.769531 33.902344 31.398438 34.542969 C 31.378906 34.582031 31.359375 34.625 31.335938 34.621094 M 35.898438 64.453125 C 36 64.472656 36.101562 64.492188 36.28125 64.574219 C 40.898438 65.796875 45.601562 66.070312 50.445312 65.460938 C 49.71875 64.488281 49.046875 63.5625 48.328125 62.664062 C 48.210938 62.519531 47.878906 62.417969 47.644531 62.417969 C 43.695312 62.394531 39.914062 61.652344 36.226562 60.554688 C 34.351562 59.996094 32.527344 59.324219 30.675781 58.707031 C 30.675781 58.707031 30.667969 58.707031 30.65625 58.640625 C 30.605469 58.628906 30.554688 58.617188 30.429688 58.542969 C 29.332031 58.074219 28.234375 57.605469 27.136719 57.136719 C 27.089844 57.191406 27.046875 57.25 27 57.304688 C 27.714844 58.492188 28.382812 59.703125 29.164062 60.859375 C 29.585938 61.488281 30.054688 62.246094 30.75 62.558594 C 32.378906 63.289062 34.15625 63.789062 35.882812 64.375 C 35.882812 64.375 35.871094 64.367188 35.898438 64.453125 M 41.261719 68.773438 C 40.957031 68.773438 40.648438 68.773438 40.207031 68.773438 C 40.402344 68.902344 40.472656 68.960938 40.554688 68.996094 C 43.429688 70.300781 46.464844 71.1875 49.757812 71.332031 C 50.984375 71.386719 52.25 71.5 53.46875 70.855469 C 54.0625 70.429688 53.964844 69.917969 53.625 69.449219 C 53.140625 68.777344 52.582031 68.148438 52.0625 67.511719 C 50.246094 68.152344 48.421875 68.542969 46.515625 68.628906 C 44.800781 68.703125 43.085938 68.746094 41.261719 68.773438 M 28.367188 46.824219 C 27.289062 45.535156 26.207031 44.246094 25.148438 42.980469 C 25.214844 42.910156 25.140625 42.953125 25.128906 43.003906 C 24.621094 45.257812 24.628906 47.523438 24.929688 49.792969 C 24.949219 49.921875 25.042969 50.074219 25.164062 50.160156 C 26.371094 51.027344 27.589844 51.886719 28.855469 52.824219 C 29.832031 53.429688 30.777344 54.085938 31.796875 54.640625 C 35.160156 56.464844 38.914062 57.507812 42.757812 58.355469 C 44.050781 58.640625 45.359375 58.886719 46.625 59.140625 C 46.878906 57.953125 47.121094 56.839844 47.363281 55.699219 C 47.242188 55.675781 47.074219 55.636719 46.90625 55.617188 C 42.582031 55.097656 38.667969 53.722656 35.035156 51.730469 C 32.558594 50.371094 30.398438 48.714844 28.367188 46.824219 Z M 28.367188 46.824219 "/>
<path style=" stroke:none;fill-rule:nonzero;fill:rgb(95.294118%,89.803922%,12.54902%);fill-opacity:1;" d="M 71.390625 75.125 C 71.320312 69.644531 71.320312 64.160156 71.320312 58.636719 C 74.957031 58.636719 78.570312 58.636719 82.257812 58.636719 C 82.636719 60.796875 83.023438 62.984375 83.410156 65.167969 C 83.792969 62.996094 84.175781 60.820312 84.566406 58.625 C 86.394531 58.625 88.210938 58.625 90.132812 58.625 C 89.945312 59.5 89.773438 60.351562 89.582031 61.203125 C 89.15625 63.136719 88.730469 65.070312 88.289062 67.003906 C 87.972656 68.378906 87.625 69.746094 87.316406 71.121094 C 87.023438 72.417969 86.761719 73.71875 86.488281 75.070312 C 84.480469 75.125 82.476562 75.125 80.398438 75.074219 C 80.277344 74.929688 80.203125 74.839844 80.183594 74.746094 C 79.824219 73.042969 79.488281 71.339844 79.117188 69.644531 C 78.734375 67.886719 78.328125 66.132812 77.917969 64.382812 C 77.503906 62.601562 77.074219 60.820312 76.652344 59.039062 C 76.625 59.042969 76.601562 59.046875 76.578125 59.046875 C 76.578125 64.40625 76.578125 69.765625 76.578125 75.125 C 74.871094 75.125 73.167969 75.125 71.390625 75.125 M 84.1875 64.257812 C 84.105469 64.691406 84.070312 65.136719 83.921875 65.550781 C 83.847656 65.765625 83.570312 65.929688 83.382812 66.113281 C 83.214844 65.9375 82.941406 65.777344 82.894531 65.578125 C 82.703125 64.742188 82.578125 63.890625 82.429688 63.046875 C 82.195312 61.730469 81.964844 60.417969 81.730469 59.101562 C 80.222656 59.101562 78.785156 59.101562 77.300781 59.101562 C 78.484375 64.320312 79.65625 69.492188 80.835938 74.6875 C 82.332031 74.6875 83.757812 74.667969 85.179688 74.699219 C 85.742188 74.714844 85.945312 74.570312 86.050781 74.101562 C 86.855469 70.433594 87.703125 66.773438 88.535156 63.109375 C 88.835938 61.785156 89.121094 60.460938 89.433594 59.0625 C 88.050781 59.0625 86.753906 59.050781 85.460938 59.078125 C 85.304688 59.082031 85.054688 59.304688 85.027344 59.449219 C 84.734375 61.011719 84.476562 62.582031 84.1875 64.257812 M 75.96875 65.421875 C 75.96875 63.320312 75.96875 61.21875 75.96875 59.101562 C 74.578125 59.101562 73.269531 59.101562 71.9375 59.101562 C 71.9375 64.308594 71.9375 69.488281 71.9375 74.65625 C 73.300781 74.65625 74.609375 74.65625 75.96875 74.65625 C 75.96875 71.589844 75.96875 68.566406 75.96875 65.421875 Z M 75.96875 65.421875 "/>
<path style=" stroke:none;fill-rule:nonzero;fill:rgb(96.078431%,90.588235%,12.54902%);fill-opacity:1;" d="M 59.53125 75.125 C 59.460938 73.605469 59.460938 72.082031 59.460938 70.496094 C 56.226562 71.332031 53.039062 72.15625 49.632812 71.863281 C 50.589844 71.804688 51.582031 71.859375 52.5 71.664062 C 54.628906 71.222656 56.734375 70.695312 58.824219 70.132812 C 61.808594 69.328125 64.773438 68.457031 67.734375 67.546875 C 67.019531 67.546875 66.304688 67.542969 65.589844 67.546875 C 62.339844 67.574219 59.09375 67.613281 55.847656 67.617188 C 55.332031 67.617188 54.8125 67.484375 54.308594 67.375 C 53.675781 67.238281 53.261719 66.910156 53.140625 66.238281 C 55.074219 67.421875 57.234375 67.234375 59.425781 67.226562 C 59.425781 64.367188 59.425781 61.519531 59.425781 58.636719 C 61.25 58.636719 63.011719 58.636719 64.859375 58.636719 C 64.859375 60.570312 64.859375 62.519531 64.859375 64.464844 C 64.933594 64.464844 65.007812 64.46875 65.078125 64.46875 C 65.078125 62.535156 65.078125 60.597656 65.078125 58.628906 C 67.023438 58.628906 68.832031 58.628906 70.722656 58.628906 C 70.722656 64.09375 70.722656 69.550781 70.722656 75.066406 C 68.914062 75.125 67.109375 75.125 65.234375 75.066406 C 65.164062 72.9375 65.164062 70.867188 65.164062 68.796875 C 65.070312 68.792969 64.972656 68.792969 64.878906 68.792969 C 64.851562 70.902344 64.878906 73.015625 64.863281 75.125 C 63.109375 75.125 61.355469 75.125 59.53125 75.125 M 61.023438 67.332031 C 64.035156 67.242188 67.042969 67.15625 70.027344 67.066406 C 70.027344 64.332031 70.027344 61.714844 70.027344 59.113281 C 68.589844 59.113281 67.207031 59.113281 65.769531 59.113281 C 65.769531 61.097656 65.769531 63.027344 65.769531 64.960938 C 65.253906 64.960938 64.796875 64.960938 64.257812 64.960938 C 64.257812 62.96875 64.257812 61.023438 64.257812 59.09375 C 62.832031 59.09375 61.488281 59.09375 60.117188 59.09375 C 60.117188 61.847656 60.117188 64.566406 60.117188 67.335938 C 60.398438 67.335938 60.640625 67.335938 61.023438 67.332031 M 70.085938 71.808594 C 70.085938 70.292969 70.085938 68.78125 70.085938 67.191406 C 68.601562 67.648438 67.207031 68.078125 65.828125 68.503906 C 65.828125 70.566406 65.828125 72.601562 65.828125 74.652344 C 67.257812 74.652344 68.644531 74.652344 70.085938 74.652344 C 70.085938 73.71875 70.085938 72.824219 70.085938 71.808594 M 60.078125 70.71875 C 60.078125 72.027344 60.078125 73.335938 60.078125 74.644531 C 61.527344 74.644531 62.886719 74.644531 64.25 74.644531 C 64.25 72.734375 64.25 70.867188 64.25 68.917969 C 62.914062 69.3125 61.640625 69.667969 60.390625 70.070312 C 60.226562 70.121094 60.179688 70.421875 60.078125 70.71875 Z M 60.078125 70.71875 "/>
<path style=" stroke:none;fill-rule:nonzero;fill:rgb(97.647059%,91.764706%,12.941176%);fill-opacity:1;" d="M 90.460938 75.125 C 90.390625 69.636719 90.390625 64.144531 90.390625 58.597656 C 93.632812 58.597656 96.820312 58.597656 100.078125 58.597656 C 100.148438 60.144531 100.148438 61.691406 100.078125 63.296875 C 98.417969 63.355469 96.828125 63.355469 95.238281 63.355469 C 95.238281 63.722656 95.238281 64.023438 95.238281 64.375 C 96.039062 64.375 96.800781 64.375 97.554688 64.375 C 97.554688 65.980469 97.554688 67.53125 97.554688 69.132812 C 96.753906 69.132812 95.992188 69.132812 95.242188 69.132812 C 95.242188 69.574219 95.242188 69.957031 95.242188 70.367188 C 96.910156 70.367188 98.53125 70.367188 100.148438 70.367188 C 100.148438 71.945312 100.148438 73.527344 100.148438 75.125 C 96.945312 75.125 93.738281 75.125 90.460938 75.125 M 94.371094 59.058594 C 93.257812 59.058594 92.144531 59.058594 91.03125 59.058594 C 91.03125 64.3125 91.03125 69.476562 91.03125 74.652344 C 93.910156 74.652344 96.746094 74.652344 99.597656 74.652344 C 99.597656 73.390625 99.597656 72.167969 99.597656 70.882812 C 97.90625 70.882812 96.265625 70.882812 94.613281 70.882812 C 94.613281 70.101562 94.613281 69.386719 94.613281 68.605469 C 95.421875 68.605469 96.183594 68.605469 96.945312 68.605469 C 96.945312 67.339844 96.945312 66.136719 96.945312 64.875 C 96.148438 64.875 95.386719 64.875 94.59375 64.875 C 94.59375 64.179688 94.59375 63.542969 94.59375 62.832031 C 96.277344 62.832031 97.9375 62.832031 99.59375 62.832031 C 99.59375 61.539062 99.59375 60.320312 99.59375 59.058594 C 97.867188 59.058594 96.191406 59.058594 94.371094 59.058594 Z M 94.371094 59.058594 "/>
<path style=" stroke:none;fill-rule:nonzero;fill:rgb(0%,0%,0%);fill-opacity:1;" d="M 76.648438 75.125 C 76.578125 69.765625 76.578125 64.40625 76.578125 59.046875 C 76.601562 59.046875 76.625 59.042969 76.652344 59.039062 C 77.074219 60.820312 77.503906 62.601562 77.917969 64.382812 C 78.328125 66.132812 78.734375 67.886719 79.117188 69.644531 C 79.488281 71.339844 79.824219 73.042969 80.183594 74.746094 C 80.203125 74.839844 80.277344 74.929688 80.328125 75.074219 C 79.125 75.125 77.921875 75.125 76.648438 75.125 Z M 76.648438 75.125 "/>
<path style=" stroke:none;fill-rule:nonzero;fill:rgb(0%,0%,0%);fill-opacity:1;" d="M 100.148438 70.308594 C 98.53125 70.367188 96.910156 70.367188 95.242188 70.367188 C 95.242188 69.957031 95.242188 69.574219 95.242188 69.132812 C 95.992188 69.132812 96.753906 69.132812 97.554688 69.132812 C 97.554688 67.53125 97.554688 65.980469 97.554688 64.375 C 96.800781 64.375 96.039062 64.375 95.238281 64.375 C 95.238281 64.023438 95.238281 63.722656 95.238281 63.355469 C 96.828125 63.355469 98.417969 63.355469 100.078125 63.355469 C 100.148438 65.652344 100.148438 67.953125 100.148438 70.308594 Z M 100.148438 70.308594 "/>
<path style=" stroke:none;fill-rule:nonzero;fill:rgb(0%,0%,0%);fill-opacity:1;" d="M 64.914062 75.125 C 64.878906 73.015625 64.851562 70.902344 64.878906 68.792969 C 64.972656 68.792969 65.070312 68.792969 65.164062 68.796875 C 65.164062 70.867188 65.164062 72.9375 65.164062 75.066406 C 65.097656 75.125 65.03125 75.125 64.914062 75.125 Z M 64.914062 75.125 "/>
<path style=" stroke:none;fill-rule:nonzero;fill:rgb(98.823529%,92.941176%,12.941176%);fill-opacity:1;" d="M 61.539062 50.214844 C 61.34375 50.03125 61.148438 49.847656 60.878906 49.601562 C 60.46875 51.035156 59.488281 52.140625 58.464844 53.230469 C 57.667969 54.078125 57.65625 54.261719 58.324219 55.171875 C 58.492188 55.398438 58.722656 55.597656 58.964844 55.859375 C 59.007812 55.910156 59.007812 55.96875 58.988281 55.988281 C 58.96875 56.011719 58.933594 56.054688 58.933594 56.054688 C 57.75 55.640625 57.082031 54.828125 56.539062 53.914062 C 56.050781 53.09375 55.582031 52.265625 55.023438 51.480469 C 54.6875 51.007812 54.242188 50.566406 53.761719 50.1875 C 51.195312 48.144531 50.8125 46.234375 52.492188 43.617188 C 52.679688 43.324219 52.871094 43.035156 53.089844 42.703125 C 52.125 42.417969 51.1875 42.15625 50.269531 41.859375 C 49.667969 41.660156 49.070312 41.4375 48.511719 41.167969 C 47.203125 40.542969 46.265625 39.769531 46.152344 38.351562 C 45.996094 36.289062 45.722656 34.238281 46.101562 32.179688 C 46.246094 31.398438 46.46875 30.628906 46.675781 29.769531 C 45.359375 30 44.070312 30.199219 42.796875 30.457031 C 38.402344 31.34375 34.058594 32.339844 29.859375 33.777344 C 27.632812 34.542969 25.246094 34.996094 22.902344 35.507812 C 22.175781 35.667969 21.359375 35.582031 20.585938 35.566406 C 18.789062 35.527344 16.992188 35.4375 15.191406 35.425781 C 14.492188 35.425781 14.046875 35.242188 13.808594 34.703125 C 13.367188 33.707031 12.847656 32.734375 12.492188 31.71875 C 11.9375 30.132812 10.941406 28.828125 9.554688 27.648438 C 7.71875 26.085938 5.941406 24.46875 4.289062 22.773438 C 2.652344 21.097656 1.917969 19.089844 1.78125 16.925781 C 1.664062 15.09375 2.601562 13.566406 3.714844 12.089844 C 5.429688 9.824219 5.453125 9.882812 8.625 9.960938 C 12.660156 10.066406 16.371094 11.101562 19.988281 12.472656 C 20.828125 12.792969 21.683594 13.089844 22.53125 13.394531 C 22.703125 13.453125 22.882812 13.488281 23.085938 13.480469 C 19.820312 11.855469 16.582031 10.191406 12.839844 9.234375 C 14.96875 8.109375 16.597656 6.664062 18.097656 5.042969 C 22.808594 6.175781 27.488281 7.164062 32.039062 8.46875 C 37.820312 10.125 43.492188 12.046875 49.226562 13.828125 C 51.140625 14.425781 52.828125 15.285156 54.085938 16.636719 C 55.996094 18.691406 57.871094 20.773438 59.71875 22.871094 C 60.605469 23.875 61.378906 24.953125 62.234375 25.980469 C 62.367188 26.136719 62.675781 26.195312 62.902344 26.296875 C 62.859375 25.808594 62.816406 25.316406 62.773438 24.78125 C 63.527344 24.9375 64.238281 25.085938 64.953125 25.230469 C 64.972656 25.191406 64.996094 25.152344 65.019531 25.109375 C 64.625 24.882812 64.230469 24.65625 63.832031 24.429688 C 62.972656 23.945312 62.40625 23.320312 62.171875 22.445312 C 61.558594 20.148438 60.917969 17.859375 60.210938 15.585938 C 60.058594 15.097656 59.707031 14.550781 59.242188 14.246094 C 57.324219 12.992188 55.324219 11.816406 53.351562 10.617188 C 53.011719 10.414062 52.65625 10.230469 52.300781 10.03125 C 54.875 7.359375 58.121094 5.746094 61.566406 6.386719 C 62.148438 6.492188 62.699219 6.699219 63.273438 6.839844 C 63.601562 6.921875 63.941406 6.96875 64.363281 7.046875 C 67.039062 9.925781 69.632812 12.78125 72.203125 15.652344 C 72.417969 15.894531 72.605469 16.214844 72.621094 16.503906 C 72.699219 17.933594 72.792969 19.371094 72.722656 20.800781 C 72.65625 22.25 72.40625 23.695312 72.234375 25.144531 C 71.785156 26.855469 72.289062 28.453125 73.109375 30.023438 C 73.109375 29.644531 73.109375 29.265625 73.109375 28.886719 C 73.179688 28.863281 73.25 28.835938 73.320312 28.808594 C 73.472656 29.046875 73.625 29.285156 73.773438 29.601562 C 73.796875 29.722656 73.824219 29.761719 73.851562 29.804688 C 73.867188 29.847656 73.886719 29.890625 73.890625 30.027344 C 73.878906 30.765625 73.855469 31.410156 73.890625 32.054688 C 73.917969 32.554688 73.925781 33.023438 73.160156 33.265625 C 73.898438 33.496094 74.53125 33.683594 75.152344 33.894531 C 75.394531 33.976562 75.703125 34.0625 75.832031 34.226562 C 76.644531 35.277344 77.347656 36.375 77.460938 37.65625 C 77.5 38.125 77.3125 38.472656 76.625 38.449219 C 76.050781 38.429688 75.476562 38.429688 74.90625 38.4375 C 74.808594 38.4375 74.714844 38.523438 74.621094 38.566406 C 74.621094 38.566406 74.621094 38.621094 74.625 38.703125 C 74.578125 39.128906 74.527344 39.472656 74.476562 39.816406 C 74.472656 39.816406 74.480469 39.816406 74.425781 39.824219 C 73.785156 40.433594 73.917969 40.664062 74.941406 40.808594 C 75.644531 41.007812 76.347656 41.203125 77.132812 41.421875 C 76.988281 41.742188 76.84375 42.0625 76.621094 42.550781 C 76.347656 42.3125 76.152344 42.136719 75.941406 41.964844 C 75.824219 41.871094 75.707031 41.757812 75.5625 41.710938 C 75.308594 41.632812 75.039062 41.578125 74.769531 41.542969 C 71.773438 41.152344 72.394531 40.953125 70.597656 42.988281 C 70.523438 43.070312 70.503906 43.101562 70.460938 43.167969 C 70.445312 43.238281 70.460938 43.28125 70.476562 43.324219 C 70.515625 43.289062 70.554688 43.253906 70.632812 43.210938 C 70.699219 43.171875 70.726562 43.136719 70.753906 43.101562 C 71.203125 42.804688 71.640625 42.496094 72.105469 42.21875 C 72.875 41.757812 73.652344 42 74.496094 42.195312 C 73.082031 42.617188 72.863281 43.761719 72.1875 44.617188 C 72.320312 44.53125 72.46875 44.453125 72.589844 44.355469 C 73.019531 44.007812 73.429688 43.644531 73.863281 43.300781 C 74.671875 42.648438 75.601562 42.691406 76.695312 43.023438 C 76.175781 43.960938 75.667969 44.878906 75.121094 45.863281 C 75.941406 45.585938 76.441406 45.058594 76.761719 44.457031 C 77.316406 43.414062 77.796875 42.339844 78.265625 41.265625 C 78.421875 40.90625 78.625 40.792969 79.074219 40.816406 C 79.746094 40.855469 80.449219 40.917969 81.09375 40.800781 C 81.925781 40.652344 82.726562 40.367188 83.515625 40.082031 C 84.285156 39.808594 84.996094 39.339844 85.875 39.902344 C 85.675781 40.09375 85.488281 40.230469 85.273438 40.324219 C 83.617188 41.042969 81.867188 41.464844 79.957031 41.460938 C 79.929688 41.460938 79.886719 41.429688 79.859375 41.402344 C 79.746094 41.355469 79.664062 41.335938 79.523438 41.320312 C 79.375 41.320312 79.277344 41.328125 79.160156 41.332031 C 80.71875 42.6875 83.566406 42.433594 85.140625 40.820312 C 85.136719 40.820312 85.136719 40.828125 85.179688 40.824219 C 85.25 40.773438 85.277344 40.730469 85.351562 40.691406 C 85.582031 40.59375 85.761719 40.496094 86.007812 40.363281 C 86.023438 40.558594 86.058594 40.699219 86.035156 40.835938 C 85.921875 41.492188 85.8125 42.148438 85.667969 42.800781 C 84.707031 47.078125 82.039062 50.574219 78.339844 53.527344 C 76.09375 55.324219 73.332031 55.800781 70.359375 54.921875 C 68.003906 54.226562 65.980469 53.039062 64.046875 51.734375 C 63.246094 51.191406 62.378906 50.71875 61.539062 50.214844 M 60.449219 35.269531 C 61.40625 34.566406 62.335938 33.832031 63.335938 33.171875 C 63.828125 32.847656 64.453125 32.664062 65.058594 32.394531 C 65.058594 32.394531 65.109375 32.398438 65.203125 32.421875 C 65.292969 32.390625 65.382812 32.359375 65.542969 32.304688 C 65.582031 32.269531 65.621094 32.238281 65.660156 32.207031 C 65.636719 32.203125 65.613281 32.195312 65.589844 32.195312 C 64.722656 32.183594 63.855469 32.183594 62.988281 32.164062 C 62.003906 32.140625 61.324219 32.457031 61.023438 33.359375 C 61.015625 33.441406 61.003906 33.519531 60.992188 33.644531 C 60.992188 33.644531 60.964844 33.675781 60.878906 33.730469 C 60.707031 34.257812 60.535156 34.785156 60.300781 35.335938 C 60.304688 35.378906 60.304688 35.417969 60.308594 35.460938 C 60.324219 35.410156 60.339844 35.359375 60.449219 35.269531 M 69.375 18.191406 C 69.039062 16.839844 68.949219 15.398438 68.300781 14.160156 C 67.535156 12.699219 66.292969 11.40625 65.234375 10.054688 C 65.070312 9.839844 64.777344 9.695312 64.460938 9.476562 C 62.738281 8.097656 61.207031 7.460938 60.066406 7.5625 C 60.988281 8.296875 62.066406 9.035156 62.964844 9.910156 C 63.753906 10.675781 64.367188 11.574219 65 12.445312 C 66.125 13.988281 67.21875 15.546875 68.292969 17.113281 C 68.679688 17.675781 68.980469 18.28125 69.316406 18.867188 C 69.382812 18.851562 69.445312 18.832031 69.511719 18.8125 C 69.457031 18.632812 69.402344 18.453125 69.375 18.191406 M 68.71875 39.484375 C 68.164062 39.234375 67.960938 38.875 67.992188 38.332031 C 68.011719 37.945312 67.796875 37.546875 67.742188 37.089844 C 67.792969 37.058594 67.847656 37.03125 67.898438 36.996094 C 67.898438 36.996094 67.875 36.957031 67.859375 36.953125 C 67.171875 36.867188 66.488281 36.738281 65.796875 36.707031 C 64.015625 36.632812 62.476562 37.238281 60.957031 38.019531 C 61.070312 38.082031 61.164062 38.136719 61.332031 38.257812 C 61.460938 38.367188 61.667969 38.460938 61.699219 38.585938 C 61.914062 39.449219 62.160156 40.324219 61.398438 41.117188 C 61.320312 41.203125 61.3125 41.335938 61.257812 41.488281 C 61.386719 41.472656 61.472656 41.480469 61.515625 41.453125 C 63.035156 40.480469 64.792969 40.132812 66.664062 40.042969 C 67.320312 40.011719 67.96875 39.890625 68.699219 39.785156 C 68.804688 39.777344 68.910156 39.769531 69.128906 39.75 C 68.9375 39.644531 68.855469 39.601562 68.71875 39.484375 M 56.003906 25.917969 C 56.003906 25.917969 56 25.925781 56.105469 25.859375 C 55.671875 24.886719 55.300781 23.890625 54.789062 22.945312 C 54.042969 21.570312 53.234375 20.21875 52.375 18.890625 C 51.890625 18.144531 51.074219 17.714844 50.015625 17.644531 C 47.65625 17.484375 45.300781 17.3125 42.863281 17.074219 C 42.59375 17.042969 42.320312 17.023438 42.054688 16.972656 C 38.488281 16.261719 34.921875 15.542969 31.355469 14.832031 C 30.476562 14.65625 29.59375 14.5 28.710938 14.332031 C 28.695312 14.382812 28.679688 14.433594 28.664062 14.488281 C 33.492188 16.066406 38.226562 17.84375 43.265625 18.945312 C 43.75 19.050781 44.296875 19.078125 44.316406 19.722656 C 44.332031 20.324219 44.085938 20.648438 43.394531 20.816406 C 42.28125 21.085938 41.183594 21.402344 39.96875 21.730469 C 41.136719 21.839844 42.175781 21.917969 43.207031 22.039062 C 46.71875 22.457031 50.042969 23.347656 52.886719 25.160156 C 54.421875 26.140625 55.757812 27.339844 57.199219 28.503906 C 57.234375 28.53125 57.269531 28.554688 57.308594 28.582031 C 57.289062 28.519531 57.269531 28.457031 57.238281 28.300781 C 56.820312 27.539062 56.398438 26.777344 56.082031 26.03125 C 56.089844 25.988281 56.09375 25.941406 56.101562 25.898438 C 56.066406 25.90625 56.027344 25.910156 56.003906 25.917969 M 58.4375 50.046875 C 58.464844 50.074219 58.484375 50.101562 58.515625 50.121094 C 58.527344 50.128906 58.566406 50.117188 58.582031 50.105469 C 59.4375 49.484375 60.230469 48.769531 61.503906 48.789062 C 61.515625 48.789062 61.527344 48.722656 61.539062 48.6875 C 59.851562 48.222656 58.980469 48.355469 58.4375 50.046875 Z M 58.4375 50.046875 "/>
<path style=" stroke:none;fill-rule:nonzero;fill:rgb(98.431373%,96.078431%,62.352941%);fill-opacity:1;" d="M 62.851562 26.28125 C 62.675781 26.195312 62.367188 26.136719 62.234375 25.980469 C 61.378906 24.953125 60.605469 23.875 59.71875 22.871094 C 57.871094 20.773438 55.996094 18.691406 54.085938 16.636719 C 52.828125 15.285156 51.140625 14.425781 49.226562 13.828125 C 43.492188 12.046875 37.820312 10.125 32.039062 8.46875 C 27.488281 7.164062 22.808594 6.175781 18.136719 5.019531 C 18.855469 4.195312 19.523438 3.308594 20.414062 2.632812 C 21.4375 1.851562 22.730469 1.386719 24.1875 1.582031 C 30.300781 2.394531 35.96875 4.25 41.390625 6.699219 C 44.769531 8.226562 48.214844 9.652344 51.59375 11.1875 C 54.066406 12.308594 56.261719 13.761719 58.164062 15.5 C 58.605469 15.902344 58.894531 16.441406 59.15625 16.949219 C 60.628906 19.808594 61.742188 22.765625 62.621094 25.785156 C 62.667969 25.945312 62.738281 26.101562 62.851562 26.28125 Z M 62.851562 26.28125 "/>
<path style=" stroke:none;fill-rule:nonzero;fill:rgb(98.431373%,92.54902%,12.941176%);fill-opacity:1;" d="M 31.488281 34.523438 C 32.769531 33.902344 34.152344 33.523438 35.425781 33.292969 C 36.648438 35.832031 37.679688 38.359375 39.0625 40.746094 C 40.828125 43.796875 42.816406 46.761719 44.839844 49.703125 C 45.769531 51.054688 47.011719 52.253906 48.871094 52.921875 C 48.671875 53.324219 48.488281 53.679688 48.257812 54.140625 C 46.722656 53.402344 45.171875 52.734375 43.722656 51.941406 C 41.40625 50.675781 39.128906 49.359375 36.882812 48.003906 C 33.042969 45.683594 30.992188 42.425781 30.035156 38.625 C 29.992188 38.464844 29.945312 38.300781 29.9375 38.058594 C 30.351562 37.105469 30.738281 36.238281 31.097656 35.363281 C 31.195312 35.125 31.226562 34.867188 31.285156 34.621094 C 31.285156 34.621094 31.335938 34.621094 31.382812 34.636719 C 31.449219 34.609375 31.46875 34.566406 31.488281 34.523438 Z M 31.488281 34.523438 "/>
<path style=" stroke:none;fill-rule:nonzero;fill:rgb(98.431373%,92.54902%,12.941176%);fill-opacity:1;" d="M 28.398438 46.902344 C 30.398438 48.714844 32.558594 50.371094 35.035156 51.730469 C 38.667969 53.722656 42.582031 55.097656 46.90625 55.617188 C 47.074219 55.636719 47.242188 55.675781 47.363281 55.699219 C 47.121094 56.839844 46.878906 57.953125 46.625 59.140625 C 45.359375 58.886719 44.050781 58.640625 42.757812 58.355469 C 38.914062 57.507812 35.160156 56.464844 31.796875 54.640625 C 30.777344 54.085938 29.832031 53.429688 28.835938 52.730469 C 28.675781 50.730469 28.539062 48.816406 28.398438 46.902344 Z M 28.398438 46.902344 "/>
<path style=" stroke:none;fill-rule:nonzero;fill:rgb(98.431373%,92.54902%,12.941176%);fill-opacity:1;" d="M 30.679688 58.699219 C 32.527344 59.324219 34.351562 59.996094 36.226562 60.554688 C 39.914062 61.652344 43.695312 62.394531 47.644531 62.417969 C 47.878906 62.417969 48.210938 62.519531 48.328125 62.664062 C 49.046875 63.5625 49.71875 64.488281 50.445312 65.460938 C 45.601562 66.070312 40.898438 65.796875 36.21875 64.503906 C 36.0625 64.410156 35.964844 64.390625 35.871094 64.367188 C 35.871094 64.367188 35.882812 64.375 35.871094 64.335938 C 34.933594 63.644531 33.929688 63.054688 33.105469 62.324219 C 31.949219 61.300781 31.050781 60.113281 30.679688 58.699219 Z M 30.679688 58.699219 "/>
<path style=" stroke:none;fill-rule:nonzero;fill:rgb(97.254902%,94.901961%,61.176471%);fill-opacity:1;" d="M 72.269531 25.113281 C 72.40625 23.695312 72.65625 22.25 72.722656 20.800781 C 72.792969 19.371094 72.699219 17.933594 72.621094 16.503906 C 72.605469 16.214844 72.417969 15.894531 72.203125 15.652344 C 69.632812 12.78125 67.039062 9.925781 64.421875 7.03125 C 64.203125 6.78125 64.011719 6.5625 63.78125 6.300781 C 65.101562 6.5 66.164062 6.902344 67.070312 7.695312 C 69.792969 10.074219 72.1875 12.648438 74.09375 15.535156 C 74.800781 16.609375 75.09375 17.707031 74.648438 18.898438 C 73.875 20.960938 73.089844 23.019531 72.269531 25.113281 Z M 72.269531 25.113281 "/>
<path style=" stroke:none;fill-rule:nonzero;fill:rgb(76.862745%,73.72549%,20.784314%);fill-opacity:1;" d="M 79.984375 41.464844 C 81.867188 41.464844 83.617188 41.042969 85.273438 40.324219 C 85.488281 40.230469 85.675781 40.09375 85.90625 39.9375 C 86.5625 40.554688 86.578125 41.324219 86.445312 42.097656 C 85.980469 44.847656 85.046875 47.472656 83.285156 49.851562 C 82.433594 51 81.550781 52.144531 80.5625 53.214844 C 77.792969 56.210938 73.839844 56.695312 70.0625 55.554688 C 66.625 54.519531 63.816406 52.699219 61.550781 50.257812 C 62.378906 50.71875 63.246094 51.191406 64.046875 51.734375 C 65.980469 53.039062 68.003906 54.226562 70.359375 54.921875 C 73.332031 55.800781 76.09375 55.324219 78.339844 53.527344 C 82.039062 50.574219 84.707031 47.078125 85.667969 42.800781 C 85.8125 42.148438 85.921875 41.492188 86.035156 40.835938 C 86.058594 40.699219 86.023438 40.558594 86.007812 40.363281 C 85.761719 40.496094 85.582031 40.59375 85.300781 40.695312 C 85.179688 40.742188 85.15625 40.785156 85.136719 40.828125 C 85.136719 40.828125 85.136719 40.820312 85.089844 40.796875 C 84.652344 40.917969 84.277344 41.082031 83.878906 41.203125 C 82.613281 41.585938 81.34375 42 79.984375 41.464844 Z M 79.984375 41.464844 "/>
<path style=" stroke:none;fill-rule:nonzero;fill:rgb(98.039216%,92.156863%,12.941176%);fill-opacity:1;" d="M 41.367188 68.804688 C 43.085938 68.746094 44.800781 68.703125 46.515625 68.628906 C 48.421875 68.542969 50.246094 68.152344 52.0625 67.511719 C 52.582031 68.148438 53.140625 68.777344 53.625 69.449219 C 53.964844 69.917969 54.0625 70.429688 53.351562 70.867188 C 50.808594 71.179688 48.421875 70.980469 46.074219 70.460938 C 44.414062 70.097656 42.773438 69.675781 41.367188 68.804688 Z M 41.367188 68.804688 "/>
<path style=" stroke:none;fill-rule:nonzero;fill:rgb(97.647059%,95.294118%,61.568627%);fill-opacity:1;" d="M 28.382812 46.863281 C 28.539062 48.816406 28.675781 50.730469 28.8125 52.695312 C 27.589844 51.886719 26.371094 51.027344 25.164062 50.160156 C 25.042969 50.074219 24.949219 49.921875 24.929688 49.792969 C 24.628906 47.523438 24.621094 45.257812 25.128906 43.003906 C 25.140625 42.953125 25.214844 42.910156 25.148438 42.980469 C 26.207031 44.246094 27.289062 45.535156 28.382812 46.863281 Z M 28.382812 46.863281 "/>
<path style=" stroke:none;fill-rule:nonzero;fill:rgb(96.862745%,94.509804%,61.176471%);fill-opacity:1;" d="M 30.675781 58.703125 C 31.050781 60.113281 31.949219 61.300781 33.105469 62.324219 C 33.929688 63.054688 34.933594 63.644531 35.867188 64.339844 C 34.15625 63.789062 32.378906 63.289062 30.75 62.558594 C 30.054688 62.246094 29.585938 61.488281 29.164062 60.859375 C 28.382812 59.703125 27.714844 58.492188 27 57.304688 C 27.046875 57.25 27.089844 57.191406 27.136719 57.136719 C 28.234375 57.605469 29.332031 58.074219 30.480469 58.601562 C 30.578125 58.675781 30.625 58.691406 30.667969 58.707031 C 30.667969 58.707031 30.675781 58.707031 30.675781 58.703125 Z M 30.675781 58.703125 "/>
<path style=" stroke:none;fill-rule:nonzero;fill:rgb(75.294118%,72.156863%,20.392157%);fill-opacity:1;" d="M 74.6875 38.566406 C 74.714844 38.523438 74.808594 38.4375 74.90625 38.4375 C 75.476562 38.429688 76.050781 38.429688 76.625 38.449219 C 77.3125 38.472656 77.5 38.125 77.460938 37.65625 C 77.347656 36.375 76.644531 35.277344 75.832031 34.226562 C 75.703125 34.0625 75.394531 33.976562 75.152344 33.894531 C 74.53125 33.683594 73.898438 33.496094 73.160156 33.265625 C 73.925781 33.023438 73.917969 32.554688 73.890625 32.054688 C 73.855469 31.410156 73.878906 30.765625 73.894531 30.0625 C 74.492188 31.121094 75.074219 32.246094 75.671875 33.394531 C 75.414062 33.414062 75.195312 33.429688 74.976562 33.449219 C 75.917969 33.53125 76.179688 34.15625 76.511719 34.738281 C 76.824219 35.28125 77.152344 35.824219 77.539062 36.332031 C 78.234375 37.234375 78.21875 38.230469 78.191406 39.234375 C 78.191406 39.347656 78.054688 39.464844 77.867188 39.761719 C 77.65625 38.722656 76.84375 38.664062 76.027344 38.617188 C 75.605469 38.589844 75.179688 38.582031 74.6875 38.566406 Z M 74.6875 38.566406 "/>
<path style=" stroke:none;fill-rule:nonzero;fill:rgb(74.117647%,71.372549%,20.392157%);fill-opacity:1;" d="M 59.3125 55.957031 C 59.683594 55.957031 60.058594 55.957031 60.621094 55.957031 C 60.019531 55.597656 59.535156 55.3125 59.054688 55.023438 C 59.070312 54.996094 59.085938 54.96875 59.105469 54.941406 C 59.589844 55.082031 60.070312 55.246094 60.5625 55.359375 C 62.054688 55.699219 62.4375 55.550781 63.257812 54.460938 C 63.476562 54.171875 63.789062 53.929688 64.125 53.605469 C 64.453125 53.945312 64.714844 54.210938 64.96875 54.476562 C 63.585938 55.953125 61.203125 56.652344 59.207031 56.132812 C 59.242188 56.035156 59.277344 55.996094 59.3125 55.957031 Z M 59.3125 55.957031 "/>
<path style=" stroke:none;fill-rule:nonzero;fill:rgb(92.156863%,89.803922%,55.686275%);fill-opacity:1;" d="M 41.316406 68.789062 C 42.773438 69.675781 44.414062 70.097656 46.074219 70.460938 C 48.421875 70.980469 50.808594 71.179688 53.300781 70.878906 C 52.25 71.5 50.984375 71.386719 49.757812 71.332031 C 46.464844 71.1875 43.429688 70.300781 40.554688 68.996094 C 40.472656 68.960938 40.402344 68.902344 40.207031 68.773438 C 40.648438 68.773438 40.957031 68.773438 41.316406 68.789062 Z M 41.316406 68.789062 "/>
<path style=" stroke:none;fill-rule:nonzero;fill:rgb(96.470588%,94.117647%,60%);fill-opacity:1;" d="M 31.238281 34.628906 C 31.226562 34.867188 31.195312 35.125 31.097656 35.363281 C 30.738281 36.238281 30.351562 37.105469 29.941406 38.007812 C 29.753906 37.367188 29.554688 36.699219 29.46875 36.019531 C 29.441406 35.792969 29.640625 35.472656 29.859375 35.320312 C 30.253906 35.042969 30.742188 34.859375 31.238281 34.628906 Z M 31.238281 34.628906 "/>
<path style=" stroke:none;fill-rule:nonzero;fill:rgb(96.078431%,96.078431%,96.078431%);fill-opacity:1;" d="M 74.785156 39.351562 C 75.964844 39.308594 76.277344 39.5625 75.992188 40.28125 C 75.808594 40.742188 75.382812 40.503906 74.945312 40.566406 C 73.980469 40.550781 74.671875 40.039062 74.480469 39.816406 C 74.480469 39.816406 74.472656 39.816406 74.519531 39.800781 C 74.636719 39.640625 74.710938 39.496094 74.785156 39.351562 Z M 74.785156 39.351562 "/>
<path style=" stroke:none;fill-rule:nonzero;fill:rgb(74.117647%,71.372549%,24.705882%);fill-opacity:1;" d="M 74.425781 39.824219 C 74.671875 40.039062 73.980469 40.550781 74.882812 40.570312 C 74.933594 40.636719 74.929688 40.683594 74.933594 40.773438 C 73.917969 40.664062 73.785156 40.433594 74.425781 39.824219 Z M 74.425781 39.824219 "/>
<path style=" stroke:none;fill-rule:nonzero;fill:rgb(74.117647%,71.372549%,24.705882%);fill-opacity:1;" d="M 74.800781 39.308594 C 74.710938 39.496094 74.636719 39.640625 74.519531 39.804688 C 74.527344 39.472656 74.578125 39.128906 74.628906 38.726562 C 75.328125 38.734375 75.03125 39.011719 74.800781 39.308594 Z M 74.800781 39.308594 "/>
<path style=" stroke:none;fill-rule:nonzero;fill:rgb(96.862745%,94.509804%,61.176471%);fill-opacity:1;" d="M 35.882812 64.410156 C 35.964844 64.390625 36.0625 64.410156 36.179688 64.472656 C 36.101562 64.492188 36 64.472656 35.882812 64.410156 Z M 35.882812 64.410156 "/>
<path style=" stroke:none;fill-rule:nonzero;fill:rgb(98.823529%,92.941176%,12.941176%);fill-opacity:1;" d="M 59.289062 55.945312 C 59.277344 55.996094 59.242188 56.035156 59.167969 56.097656 C 59.082031 56.117188 59.035156 56.109375 58.964844 56.074219 C 58.933594 56.054688 58.96875 56.011719 59.042969 55.984375 C 59.148438 55.949219 59.179688 55.941406 59.214844 55.933594 C 59.214844 55.933594 59.269531 55.933594 59.289062 55.945312 Z M 59.289062 55.945312 "/>
<path style=" stroke:none;fill-rule:nonzero;fill:rgb(75.294118%,72.156863%,20.392157%);fill-opacity:1;" d="M 73.859375 29.769531 C 73.824219 29.761719 73.796875 29.722656 73.78125 29.648438 C 73.820312 29.652344 73.84375 29.695312 73.859375 29.769531 Z M 73.859375 29.769531 "/>
<path style=" stroke:none;fill-rule:nonzero;fill:rgb(96.470588%,94.117647%,60%);fill-opacity:1;" d="M 31.445312 34.53125 C 31.46875 34.566406 31.449219 34.609375 31.386719 34.660156 C 31.359375 34.625 31.378906 34.582031 31.445312 34.53125 Z M 31.445312 34.53125 "/>
<path style=" stroke:none;fill-rule:nonzero;fill:rgb(98.431373%,92.54902%,12.941176%);fill-opacity:1;" d="M 30.660156 58.671875 C 30.625 58.691406 30.578125 58.675781 30.519531 58.632812 C 30.554688 58.617188 30.605469 58.628906 30.660156 58.671875 Z M 30.660156 58.671875 "/>
<path style=" stroke:none;fill-rule:nonzero;fill:rgb(74.117647%,71.372549%,20.392157%);fill-opacity:1;" d="M 59.191406 55.902344 C 59.179688 55.941406 59.148438 55.949219 59.0625 55.964844 C 59.007812 55.96875 59.007812 55.910156 59.007812 55.882812 C 59.058594 55.859375 59.113281 55.867188 59.191406 55.902344 Z M 59.191406 55.902344 "/>
<path style=" stroke:none;fill-rule:nonzero;fill:rgb(0.784314%,0.784314%,0%);fill-opacity:1;" d="M 84.195312 64.207031 C 84.476562 62.582031 84.734375 61.011719 85.027344 59.449219 C 85.054688 59.304688 85.304688 59.082031 85.460938 59.078125 C 86.753906 59.050781 88.050781 59.0625 89.433594 59.0625 C 89.121094 60.460938 88.835938 61.785156 88.535156 63.109375 C 87.703125 66.773438 86.855469 70.433594 86.050781 74.101562 C 85.945312 74.570312 85.742188 74.714844 85.179688 74.699219 C 83.757812 74.667969 82.332031 74.6875 80.835938 74.6875 C 79.65625 69.492188 78.484375 64.320312 77.300781 59.101562 C 78.785156 59.101562 80.222656 59.101562 81.730469 59.101562 C 81.964844 60.417969 82.195312 61.730469 82.429688 63.046875 C 82.578125 63.890625 82.703125 64.742188 82.894531 65.578125 C 82.941406 65.777344 83.214844 65.9375 83.382812 66.113281 C 83.570312 65.929688 83.847656 65.765625 83.921875 65.550781 C 84.070312 65.136719 84.105469 64.691406 84.195312 64.207031 Z M 84.195312 64.207031 "/>
<path style=" stroke:none;fill-rule:nonzero;fill:rgb(0.392157%,0.392157%,0%);fill-opacity:1;" d="M 75.96875 65.484375 C 75.96875 68.566406 75.96875 71.589844 75.96875 74.65625 C 74.609375 74.65625 73.300781 74.65625 71.9375 74.65625 C 71.9375 69.488281 71.9375 64.308594 71.9375 59.101562 C 73.269531 59.101562 74.578125 59.101562 75.96875 59.101562 C 75.96875 61.21875 75.96875 63.320312 75.96875 65.484375 Z M 75.96875 65.484375 "/>
<path style=" stroke:none;fill-rule:nonzero;fill:rgb(1.568627%,1.176471%,0%);fill-opacity:1;" d="M 60.957031 67.332031 C 60.640625 67.335938 60.398438 67.335938 60.117188 67.335938 C 60.117188 64.566406 60.117188 61.847656 60.117188 59.09375 C 61.488281 59.09375 62.832031 59.09375 64.257812 59.09375 C 64.257812 61.023438 64.257812 62.96875 64.257812 64.960938 C 64.796875 64.960938 65.253906 64.960938 65.769531 64.960938 C 65.769531 63.027344 65.769531 61.097656 65.769531 59.113281 C 67.207031 59.113281 68.589844 59.113281 70.027344 59.113281 C 70.027344 61.714844 70.027344 64.332031 70.027344 67.066406 C 67.042969 67.15625 64.035156 67.242188 60.957031 67.332031 Z M 60.957031 67.332031 "/>
<path style=" stroke:none;fill-rule:nonzero;fill:rgb(2.745098%,2.745098%,0.392157%);fill-opacity:1;" d="M 70.085938 71.871094 C 70.085938 72.824219 70.085938 73.71875 70.085938 74.652344 C 68.644531 74.652344 67.257812 74.652344 65.828125 74.652344 C 65.828125 72.601562 65.828125 70.566406 65.828125 68.503906 C 67.207031 68.078125 68.601562 67.648438 70.085938 67.191406 C 70.085938 68.78125 70.085938 70.292969 70.085938 71.871094 Z M 70.085938 71.871094 "/>
<path style=" stroke:none;fill-rule:nonzero;fill:rgb(1.960784%,1.960784%,0.392157%);fill-opacity:1;" d="M 60.078125 70.664062 C 60.179688 70.421875 60.226562 70.121094 60.390625 70.070312 C 61.640625 69.667969 62.914062 69.3125 64.25 68.917969 C 64.25 70.867188 64.25 72.734375 64.25 74.644531 C 62.886719 74.644531 61.527344 74.644531 60.078125 74.644531 C 60.078125 73.335938 60.078125 72.027344 60.078125 70.664062 Z M 60.078125 70.664062 "/>
<path style=" stroke:none;fill-rule:nonzero;fill:rgb(1.568627%,1.568627%,0%);fill-opacity:1;" d="M 94.445312 59.058594 C 96.191406 59.058594 97.867188 59.058594 99.59375 59.058594 C 99.59375 60.320312 99.59375 61.539062 99.59375 62.832031 C 97.9375 62.832031 96.277344 62.832031 94.59375 62.832031 C 94.59375 63.542969 94.59375 64.179688 94.59375 64.875 C 95.386719 64.875 96.148438 64.875 96.945312 64.875 C 96.945312 66.136719 96.945312 67.339844 96.945312 68.605469 C 96.183594 68.605469 95.421875 68.605469 94.613281 68.605469 C 94.613281 69.386719 94.613281 70.101562 94.613281 70.882812 C 96.265625 70.882812 97.90625 70.882812 99.597656 70.882812 C 99.597656 72.167969 99.597656 73.390625 99.597656 74.652344 C 96.746094 74.652344 93.910156 74.652344 91.03125 74.652344 C 91.03125 69.476562 91.03125 64.3125 91.03125 59.058594 C 92.144531 59.058594 93.257812 59.058594 94.445312 59.058594 Z M 94.445312 59.058594 "/>
<path style=" stroke:none;fill-rule:nonzero;fill:rgb(98.039216%,95.686275%,61.568627%);fill-opacity:1;" d="M 55.980469 26.015625 C 56.398438 26.777344 56.820312 27.539062 57.226562 28.359375 C 57.214844 28.417969 57.183594 28.441406 57.183594 28.441406 C 55.757812 27.339844 54.421875 26.140625 52.886719 25.160156 C 50.042969 23.347656 46.71875 22.457031 43.207031 22.039062 C 42.175781 21.917969 41.136719 21.839844 39.96875 21.730469 C 41.183594 21.402344 42.28125 21.085938 43.394531 20.816406 C 44.085938 20.648438 44.332031 20.324219 44.316406 19.722656 C 44.296875 19.078125 43.75 19.050781 43.265625 18.945312 C 38.226562 17.84375 33.492188 16.066406 28.664062 14.488281 C 28.679688 14.433594 28.695312 14.382812 28.710938 14.332031 C 29.59375 14.5 30.476562 14.65625 31.355469 14.832031 C 34.921875 15.542969 38.488281 16.261719 42.054688 16.972656 C 42.320312 17.023438 42.59375 17.042969 42.835938 17.121094 C 41.617188 17.167969 40.425781 17.167969 39.234375 17.167969 C 40.183594 17.398438 41.144531 17.515625 42.097656 17.664062 C 44.5 18.03125 46.902344 18.386719 49.296875 18.800781 C 49.863281 18.898438 50.386719 19.1875 50.925781 19.390625 C 50.902344 19.46875 50.878906 19.542969 50.851562 19.621094 C 50.277344 19.589844 49.695312 19.488281 49.132812 19.542969 C 48.578125 19.59375 48.027344 19.769531 47.507812 19.949219 C 46.984375 20.128906 46.5 20.382812 46.0625 20.578125 C 47.332031 20.683594 48.617188 20.847656 49.910156 20.878906 C 51.554688 20.925781 52.582031 21.6875 53.410156 22.738281 C 53.972656 23.453125 54.492188 24.1875 55.054688 24.902344 C 55.339844 25.261719 55.683594 25.585938 56 25.925781 C 56 25.925781 56.003906 25.917969 55.992188 25.941406 C 55.976562 25.964844 55.980469 26.015625 55.980469 26.015625 Z M 55.980469 26.015625 "/>
<path style=" stroke:none;fill-rule:nonzero;fill:rgb(3.137255%,3.137255%,1.568627%);fill-opacity:1;" d="M 56.050781 25.894531 C 55.683594 25.585938 55.339844 25.261719 55.054688 24.902344 C 54.492188 24.1875 53.972656 23.453125 53.410156 22.738281 C 52.582031 21.6875 51.554688 20.925781 49.910156 20.878906 C 48.617188 20.847656 47.332031 20.683594 46.0625 20.578125 C 46.5 20.382812 46.984375 20.128906 47.507812 19.949219 C 48.027344 19.769531 48.578125 19.59375 49.132812 19.542969 C 49.695312 19.488281 50.277344 19.589844 50.851562 19.621094 C 50.878906 19.542969 50.902344 19.46875 50.925781 19.390625 C 50.386719 19.1875 49.863281 18.898438 49.296875 18.800781 C 46.902344 18.386719 44.5 18.03125 42.097656 17.664062 C 41.144531 17.515625 40.183594 17.398438 39.234375 17.167969 C 40.425781 17.167969 41.617188 17.167969 42.875 17.15625 C 45.300781 17.3125 47.65625 17.484375 50.015625 17.644531 C 51.074219 17.714844 51.890625 18.144531 52.375 18.890625 C 53.234375 20.21875 54.042969 21.570312 54.789062 22.945312 C 55.300781 23.890625 55.671875 24.886719 56.050781 25.894531 Z M 56.050781 25.894531 "/>
<path style=" stroke:none;fill-rule:nonzero;fill:rgb(3.137255%,2.745098%,0.784314%);fill-opacity:1;" d="M 61.257812 38.1875 C 61.164062 38.136719 61.070312 38.082031 60.957031 38.019531 C 62.476562 37.238281 64.015625 36.632812 65.796875 36.707031 C 66.488281 36.738281 67.171875 36.867188 67.859375 36.953125 C 67.875 36.957031 67.898438 36.996094 67.898438 36.996094 C 67.847656 37.03125 67.792969 37.058594 67.652344 37.128906 C 67.175781 37.191406 67.015625 37.300781 67.144531 37.679688 C 67.316406 38.183594 67.386719 38.710938 67.519531 39.308594 C 67.875 39.378906 68.324219 39.46875 68.773438 39.558594 C 68.855469 39.601562 68.9375 39.644531 69.128906 39.75 C 68.910156 39.769531 68.804688 39.777344 68.589844 39.78125 C 66.476562 39.824219 64.464844 39.832031 62.511719 40.371094 C 62.472656 40.332031 62.457031 40.3125 62.464844 40.261719 C 62.613281 40.058594 62.851562 39.890625 62.835938 39.738281 C 62.78125 39.183594 62.644531 38.636719 62.523438 38.007812 C 62.101562 38.066406 61.679688 38.128906 61.257812 38.1875 M 63.074219 39.238281 C 63.132812 39.445312 63.195312 39.652344 63.246094 39.832031 C 63.839844 39.679688 64.34375 39.550781 64.84375 39.421875 C 64.886719 38.632812 64.75 38.460938 64.042969 38.433594 C 63.460938 38.410156 62.984375 38.5 63.074219 39.238281 Z M 63.074219 39.238281 "/>
<path style=" stroke:none;fill-rule:nonzero;fill:rgb(97.254902%,94.901961%,60.392157%);fill-opacity:1;" d="M 69.351562 18.277344 C 69.402344 18.453125 69.457031 18.632812 69.511719 18.8125 C 69.445312 18.832031 69.382812 18.851562 69.316406 18.867188 C 68.980469 18.28125 68.679688 17.675781 68.292969 17.113281 C 67.21875 15.546875 66.125 13.988281 65 12.445312 C 64.367188 11.574219 63.753906 10.675781 62.964844 9.910156 C 62.066406 9.035156 60.988281 8.296875 60.066406 7.5625 C 61.207031 7.460938 62.738281 8.097656 64.5 9.550781 C 64.746094 10.710938 65.234375 11.664062 66.039062 12.566406 C 66.875 13.503906 67.535156 14.566406 68.152344 15.621094 C 68.644531 16.46875 68.957031 17.386719 69.351562 18.277344 Z M 69.351562 18.277344 "/>
<path style=" stroke:none;fill-rule:nonzero;fill:rgb(5.098039%,5.098039%,1.960784%);fill-opacity:1;" d="M 69.363281 18.234375 C 68.957031 17.386719 68.644531 16.46875 68.152344 15.621094 C 67.535156 14.566406 66.875 13.503906 66.039062 12.566406 C 65.234375 11.664062 64.746094 10.710938 64.542969 9.574219 C 64.777344 9.695312 65.070312 9.839844 65.234375 10.054688 C 66.292969 11.40625 67.535156 12.699219 68.300781 14.160156 C 68.949219 15.398438 69.039062 16.839844 69.363281 18.234375 Z M 69.363281 18.234375 "/>
<path style=" stroke:none;fill-rule:nonzero;fill:rgb(76.862745%,73.72549%,20.392157%);fill-opacity:1;" d="M 61.296875 38.222656 C 61.679688 38.128906 62.101562 38.066406 62.523438 38.007812 C 62.644531 38.636719 62.78125 39.183594 62.835938 39.738281 C 62.851562 39.890625 62.613281 40.058594 62.417969 40.261719 C 62.304688 40.335938 62.257812 40.367188 62.210938 40.394531 C 62.320312 40.398438 62.425781 40.398438 62.535156 40.398438 C 64.464844 39.832031 66.476562 39.824219 68.550781 39.792969 C 67.96875 39.890625 67.320312 40.011719 66.664062 40.042969 C 64.792969 40.132812 63.035156 40.480469 61.515625 41.453125 C 61.472656 41.480469 61.386719 41.472656 61.257812 41.488281 C 61.3125 41.335938 61.320312 41.203125 61.398438 41.117188 C 62.160156 40.324219 61.914062 39.449219 61.699219 38.585938 C 61.667969 38.460938 61.460938 38.367188 61.296875 38.222656 Z M 61.296875 38.222656 "/>
<path style=" stroke:none;fill-rule:nonzero;fill:rgb(4.705882%,4.313725%,1.176471%);fill-opacity:1;" d="M 61.097656 33.300781 C 61.324219 32.457031 62.003906 32.140625 62.988281 32.164062 C 63.855469 32.183594 64.722656 32.183594 65.589844 32.195312 C 65.613281 32.195312 65.636719 32.203125 65.660156 32.207031 C 65.621094 32.238281 65.582031 32.269531 65.457031 32.308594 C 65.285156 32.339844 65.195312 32.371094 65.109375 32.398438 C 65.109375 32.398438 65.058594 32.394531 64.976562 32.398438 C 63.335938 32.496094 62.074219 33.089844 60.964844 34.140625 C 60.964844 33.878906 60.964844 33.777344 60.964844 33.675781 C 60.964844 33.675781 60.992188 33.644531 61.03125 33.59375 C 61.078125 33.460938 61.085938 33.382812 61.097656 33.300781 Z M 61.097656 33.300781 "/>
<path style=" stroke:none;fill-rule:nonzero;fill:rgb(6.27451%,5.882353%,1.568627%);fill-opacity:1;" d="M 79.957031 41.460938 C 81.34375 42 82.613281 41.585938 83.878906 41.203125 C 84.277344 41.082031 84.652344 40.917969 85.09375 40.796875 C 83.566406 42.433594 80.71875 42.6875 79.160156 41.332031 C 79.277344 41.328125 79.375 41.320312 79.554688 41.347656 C 79.71875 41.394531 79.804688 41.414062 79.886719 41.429688 C 79.886719 41.429688 79.929688 41.460938 79.957031 41.460938 Z M 79.957031 41.460938 "/>
<path style=" stroke:none;fill-rule:nonzero;fill:rgb(76.078431%,72.941176%,20.392157%);fill-opacity:1;" d="M 60.921875 33.703125 C 60.964844 33.777344 60.964844 33.878906 60.964844 34.140625 C 62.074219 33.089844 63.335938 32.496094 64.953125 32.410156 C 64.453125 32.664062 63.828125 32.847656 63.335938 33.171875 C 62.335938 33.832031 61.40625 34.566406 60.40625 35.289062 C 60.359375 35.308594 60.363281 35.308594 60.363281 35.308594 C 60.535156 34.785156 60.707031 34.257812 60.921875 33.703125 Z M 60.921875 33.703125 "/>
<path style=" stroke:none;fill-rule:nonzero;fill:rgb(7.058824%,6.666667%,1.568627%);fill-opacity:1;" d="M 58.441406 50.003906 C 58.980469 48.355469 59.851562 48.222656 61.539062 48.6875 C 61.527344 48.722656 61.515625 48.789062 61.503906 48.789062 C 60.230469 48.769531 59.4375 49.484375 58.582031 50.105469 C 58.566406 50.117188 58.527344 50.128906 58.515625 50.121094 C 58.484375 50.101562 58.464844 50.074219 58.441406 50.003906 Z M 58.441406 50.003906 "/>
<path style=" stroke:none;fill-rule:nonzero;fill:rgb(76.470588%,73.333333%,20.392157%);fill-opacity:1;" d="M 68.746094 39.519531 C 68.324219 39.46875 67.875 39.378906 67.519531 39.308594 C 67.386719 38.710938 67.316406 38.183594 67.144531 37.679688 C 67.015625 37.300781 67.175781 37.191406 67.625 37.15625 C 67.796875 37.546875 68.011719 37.945312 67.992188 38.332031 C 67.960938 38.875 68.164062 39.234375 68.746094 39.519531 Z M 68.746094 39.519531 "/>
<path style=" stroke:none;fill-rule:nonzero;fill:rgb(76.862745%,73.72549%,20.784314%);fill-opacity:1;" d="M 79.859375 41.402344 C 79.804688 41.414062 79.71875 41.394531 79.605469 41.347656 C 79.664062 41.335938 79.746094 41.355469 79.859375 41.402344 Z M 79.859375 41.402344 "/>
<path style=" stroke:none;fill-rule:nonzero;fill:rgb(76.078431%,72.941176%,20.392157%);fill-opacity:1;" d="M 65.15625 32.410156 C 65.195312 32.371094 65.285156 32.339844 65.421875 32.320312 C 65.382812 32.359375 65.292969 32.390625 65.15625 32.410156 Z M 65.15625 32.410156 "/>
<path style=" stroke:none;fill-rule:nonzero;fill:rgb(76.078431%,72.941176%,20.392157%);fill-opacity:1;" d="M 61.0625 33.332031 C 61.085938 33.382812 61.078125 33.460938 61.03125 33.570312 C 61.003906 33.519531 61.015625 33.441406 61.0625 33.332031 Z M 61.0625 33.332031 "/>
<path style=" stroke:none;fill-rule:nonzero;fill:rgb(76.078431%,72.941176%,20.392157%);fill-opacity:1;" d="M 60.359375 35.308594 C 60.339844 35.359375 60.324219 35.410156 60.308594 35.460938 C 60.304688 35.417969 60.304688 35.378906 60.332031 35.324219 C 60.363281 35.308594 60.359375 35.308594 60.359375 35.308594 Z M 60.359375 35.308594 "/>
<path style=" stroke:none;fill-rule:nonzero;fill:rgb(98.039216%,95.686275%,61.568627%);fill-opacity:1;" d="M 57.230469 28.40625 C 57.269531 28.457031 57.289062 28.519531 57.308594 28.582031 C 57.269531 28.554688 57.234375 28.53125 57.191406 28.472656 C 57.183594 28.441406 57.214844 28.417969 57.230469 28.40625 Z M 57.230469 28.40625 "/>
<path style=" stroke:none;fill-rule:nonzero;fill:rgb(6.27451%,5.882353%,1.568627%);fill-opacity:1;" d="M 85.179688 40.824219 C 85.15625 40.785156 85.179688 40.742188 85.25 40.695312 C 85.277344 40.730469 85.25 40.773438 85.179688 40.824219 Z M 85.179688 40.824219 "/>
<path style=" stroke:none;fill-rule:nonzero;fill:rgb(3.137255%,3.137255%,1.568627%);fill-opacity:1;" d="M 56.03125 26.023438 C 55.980469 26.015625 55.976562 25.964844 55.984375 25.941406 C 56.027344 25.910156 56.066406 25.90625 56.101562 25.898438 C 56.09375 25.941406 56.089844 25.988281 56.03125 26.023438 Z M 56.03125 26.023438 "/>
<path style=" stroke:none;fill-rule:nonzero;fill:rgb(0.392157%,0.392157%,0%);fill-opacity:1;" d="M 70.492188 43.136719 C 70.503906 43.101562 70.523438 43.070312 70.578125 43.027344 C 70.628906 43.023438 70.65625 43.039062 70.71875 43.074219 C 70.726562 43.136719 70.699219 43.171875 70.609375 43.191406 C 70.546875 43.175781 70.492188 43.136719 70.492188 43.136719 Z M 70.492188 43.136719 "/>
<path style=" stroke:none;fill-rule:nonzero;fill:rgb(0.392157%,0.392157%,0%);fill-opacity:1;" d="M 70.570312 43.199219 C 70.554688 43.253906 70.515625 43.289062 70.476562 43.324219 C 70.460938 43.28125 70.445312 43.238281 70.460938 43.167969 C 70.492188 43.136719 70.546875 43.175781 70.570312 43.199219 Z M 70.570312 43.199219 "/>
<path style=" stroke:none;fill-rule:nonzero;fill:rgb(94.901961%,94.901961%,94.901961%);fill-opacity:1;" d="M 63.070312 39.183594 C 62.984375 38.5 63.460938 38.410156 64.042969 38.433594 C 64.75 38.460938 64.886719 38.632812 64.84375 39.421875 C 64.34375 39.550781 63.839844 39.679688 63.246094 39.832031 C 63.195312 39.652344 63.132812 39.445312 63.070312 39.183594 Z M 63.070312 39.183594 "/>
<path style=" stroke:none;fill-rule:nonzero;fill:rgb(3.137255%,2.745098%,0.784314%);fill-opacity:1;" d="M 62.511719 40.371094 C 62.425781 40.398438 62.320312 40.398438 62.210938 40.394531 C 62.257812 40.367188 62.304688 40.335938 62.394531 40.300781 C 62.457031 40.3125 62.472656 40.332031 62.511719 40.371094 Z M 62.511719 40.371094 "/>
</g>
</svg>
