<svg id="Layer_1" data-name="Layer 1" xmlns="http://www.w3.org/2000/svg" viewBox="0 0 100 75"><defs><style>.cls-1{fill:#1b1918;}.cls-1,.cls-2,.cls-3{fill-rule:evenodd;}.cls-2{fill:#fff;}.cls-3{fill:#09af05;}</style></defs><g id="surface1"><path class="cls-1" d="M2.86,52.6H50.05V23.41H2.86Z"/><path class="cls-2" d="M41.49,32.52H36l.34-1h5.16Z"/><path class="cls-2" d="M26.84,31.57h5.1l.34,1H26.84v-1Z"/><path class="cls-2" d="M22.79,31.57a3.69,3.69,0,0,1,2.2,1H15.74v-1Z"/><path class="cls-2" d="M8.49,32.52h6.42v-1H8.49Z"/><path class="cls-2" d="M41.49,34.29H35.36l.33-.94h5.8Z"/><path class="cls-2" d="M32.91,34.29H26.84v-.94h5.73Z"/><path class="cls-2" d="M25.71,33.35a2.48,2.48,0,0,1,.26.94H15.74v-.94Z"/><path class="cls-2" d="M8.49,34.29h6.42v-.94H8.49Z"/><path class="cls-2" d="M34.74,36.07l.33-.94h4.6v.94Z"/><path class="cls-2" d="M33.2,35.13l.34.94H28.65v-.94Z"/><path class="cls-2" d="M26.05,35.13a3.19,3.19,0,0,1-.13.94h-2.8v-.94Z"/><path class="cls-2" d="M10.28,36.07H13v-.94H10.28Z"/><path class="cls-2" d="M17.6,36.07h2.76v-.94H17.6Z"/><path class="cls-2" d="M31.36,37.1v.72H28.65v-1h5.17l.32.88.31-.88h5.22v1H37V37.1l-.25.72H31.61Z"/><path class="cls-2" d="M17.6,36.87h7.91a3.7,3.7,0,0,1-.78,1H17.6Z"/><path class="cls-2" d="M10.28,37.82H13v-1H10.28Z"/><path class="cls-2" d="M37,39.59h2.7v-.94H37Z"/><path class="cls-2" d="M31.36,38.65H28.65v.94h2.72Z"/><path class="cls-2" d="M36.42,38.65s-.32.94-.33.94H32.24l-.33-.94Z"/><path class="cls-2" d="M17.6,38.65h7.11a4.44,4.44,0,0,1,.85.94h-8Z"/><path class="cls-2" d="M13,39.59v-.94H10.28v.94Z"/><path class="cls-2" d="M37,41.37h2.7v-.94H37Z"/><path class="cls-2" d="M28.65,41.37h2.71v-.94H28.65Z"/><path class="cls-2" d="M35.46,41.37s.33-.94.34-.94H32.53s.33.94.33.94S35.46,41.38,35.46,41.37Z"/><path class="cls-2" d="M17.6,41.37v-.94h2.8v.94Z"/><path class="cls-2" d="M26,40.43a2.66,2.66,0,0,1,.18.94h-3v-.94Z"/><path class="cls-2" d="M10.28,41.37H13v-.94H10.28Z"/><path class="cls-2" d="M37,43.11h4.52v-.94H37Z"/><path class="cls-2" d="M26.84,43.11h4.52v-.94H26.84Z"/><path class="cls-2" d="M34.85,43.11H33.47l-.33-.94h2Z"/><path class="cls-2" d="M8.49,42.17v.94H14.9v-.94Z"/><path class="cls-2" d="M26,42.17a2,2,0,0,1-.36.94H15.74v-.94Z"/><path class="cls-2" d="M34.23,44.89H34.1l-.32-1h.78Z"/><path class="cls-2" d="M37,44.89h4.52v-1H37Z"/><path class="cls-2" d="M15.74,44.89V44H25a3.53,3.53,0,0,1-2.4.94Z"/><path class="cls-2" d="M26.84,44.89h4.52v-1H26.84Z"/><path class="cls-2" d="M14.9,44v.94H8.49V44Z"/><path class="cls-2" d="M43.05,43a1.07,1.07,0,0,1,.51.13,1,1,0,0,1,.38.38,1,1,0,0,1,0,1,.93.93,0,0,1-.38.38,1,1,0,0,1-.51.13,1.08,1.08,0,0,1-.52-.13,1,1,0,0,1-.38-.38,1,1,0,0,1,0-1,1,1,0,0,1,.39-.38A1,1,0,0,1,43.05,43Zm0,.17a1,1,0,0,0-.43.11.82.82,0,0,0-.32.32.83.83,0,0,0,0,.86.76.76,0,0,0,.32.32.81.81,0,0,0,.43.11.84.84,0,0,0,.43-.11.8.8,0,0,0,.31-.32.83.83,0,0,0,0-.86.71.71,0,0,0-.32-.32A.94.94,0,0,0,43.05,43.15Zm-.46,1.43V43.47H43a.94.94,0,0,1,.28,0,.29.29,0,0,1,.19.27.29.29,0,0,1-.09.21.34.34,0,0,1-.23.11l.1,0a1.83,1.83,0,0,1,.16.22l.14.22h-.22l-.1-.17a.81.81,0,0,0-.19-.26.2.2,0,0,0-.14,0h-.11v.47Zm.18-.62H43a.34.34,0,0,0,.21-.05.14.14,0,0,0,.06-.12.14.14,0,0,0,0-.09.13.13,0,0,0-.07-.06l-.18,0h-.21Z"/><path class="cls-3" d="M50.05,52.43H97v-29H50.05Z"/><path class="cls-2" d="M58.14,44.06v-13h3.58q6.86,0,6.86,6.33a6.39,6.39,0,0,1-1.9,4.83,7.09,7.09,0,0,1-5.1,1.82Zm1.52-11.61V42.69h1.93a5.51,5.51,0,0,0,4-1.37A5.14,5.14,0,0,0,67,37.44c0-3.32-1.77-5-5.31-5ZM71.14,44.06v-13h3.69a4,4,0,0,1,2.67.82,2.67,2.67,0,0,1,1,2.15,3.18,3.18,0,0,1-.6,1.92,3.26,3.26,0,0,1-1.65,1.16v0a3.36,3.36,0,0,1,2.1,1,3,3,0,0,1,.79,2.18,3.4,3.4,0,0,1-1.2,2.7,4.42,4.42,0,0,1-3,1Zm1.52-11.61v4.2h1.55a2.94,2.94,0,0,0,2-.61,2.07,2.07,0,0,0,.71-1.69c0-1.27-.83-1.9-2.49-1.9Zm0,5.56v4.68h2.06a3.12,3.12,0,0,0,2.08-.64,2.17,2.17,0,0,0,.74-1.74c0-1.53-1.05-2.3-3.14-2.3Zm16.09,6.05H80.93V42.74L84.71,39a15.26,15.26,0,0,0,2.07-2.42,3.76,3.76,0,0,0,.62-2.06,2.26,2.26,0,0,0-.64-1.73,2.51,2.51,0,0,0-1.83-.62A4.84,4.84,0,0,0,81.6,33.6V32.05a5.58,5.58,0,0,1,3.54-1.19,3.83,3.83,0,0,1,2.73.94,3.3,3.3,0,0,1,1,2.53,4.84,4.84,0,0,1-.69,2.44,15.35,15.35,0,0,1-2.47,2.95l-3,3v0h6Z"/><path class="cls-2" d="M90.36,43.06a1,1,0,0,1,.51.13.92.92,0,0,1,.39.39,1,1,0,0,1,.14.51,1.1,1.1,0,0,1-.14.52,1,1,0,0,1-.38.38,1.1,1.1,0,0,1-.52.14,1.06,1.06,0,0,1-.51-.14,1,1,0,0,1-.38-.38,1.1,1.1,0,0,1-.14-.52,1,1,0,0,1,.14-.51.92.92,0,0,1,.39-.39A1,1,0,0,1,90.36,43.06Zm0,.17a.94.94,0,0,0-.42.11.82.82,0,0,0-.32.32.85.85,0,0,0-.12.43.82.82,0,0,0,.12.43.71.71,0,0,0,.32.32.81.81,0,0,0,.42.12.82.82,0,0,0,.43-.12.71.71,0,0,0,.32-.32.82.82,0,0,0,.12-.43.85.85,0,0,0-.12-.43.82.82,0,0,0-.32-.32A1,1,0,0,0,90.36,43.23Zm-.45,1.43V43.55h.38a1,1,0,0,1,.29,0,.38.38,0,0,1,.14.11.33.33,0,0,1,0,.16.29.29,0,0,1-.09.22.35.35,0,0,1-.23.1.15.15,0,0,1,.09.06.93.93,0,0,1,.17.22l.13.21h-.21l-.1-.17a1,1,0,0,0-.19-.26.26.26,0,0,0-.14,0h-.11v.47Zm.18-.62h.22a.36.36,0,0,0,.21,0,.14.14,0,0,0,.06-.12.16.16,0,0,0,0-.09.28.28,0,0,0-.08-.06h-.38Z"/></g></svg>