<?xml version="1.0" encoding="UTF-8"?>
<!DOCTYPE svg PUBLIC "-//W3C//DTD SVG 1.1//EN" "http://www.w3.org/Graphics/SVG/1.1/DTD/svg11.dtd">
<svg xmlns="http://www.w3.org/2000/svg" version="1.1" width="2500px" height="1875px" style="shape-rendering:geometricPrecision; text-rendering:geometricPrecision; image-rendering:optimizeQuality; fill-rule:evenodd; clip-rule:evenodd" xmlns:xlink="http://www.w3.org/1999/xlink">
<g><path style="opacity:0.99" fill="#3ddbdc" d="M 1274.5,358.5 C 1254.17,347.167 1233.83,335.833 1213.5,324.5C 1218.62,310.593 1228.62,302.927 1243.5,301.5C 1259.09,302.039 1269.26,309.705 1274,324.5C 1274.5,335.828 1274.67,347.162 1274.5,358.5 Z"/></g>
<g><path style="opacity:0.992" fill="#3bd7dd" d="M 1213.5,324.5 C 1233.83,335.833 1254.17,347.167 1274.5,358.5C 1274.5,385.5 1274.5,412.5 1274.5,439.5C 1273.88,439.611 1273.38,439.944 1273,440.5C 1253.74,429.12 1234.24,418.12 1214.5,407.5C 1213.83,402.349 1213.17,397.349 1212.5,392.5C 1212.19,369.788 1212.52,347.121 1213.5,324.5 Z"/></g>
<g><path style="opacity:0.988" fill="#39d2de" d="M 1212.5,392.5 C 1213.17,397.349 1213.83,402.349 1214.5,407.5C 1234.24,418.12 1253.74,429.12 1273,440.5C 1273.38,439.944 1273.88,439.611 1274.5,439.5C 1274.5,453.833 1274.5,468.167 1274.5,482.5C 1254.07,470.737 1233.4,459.404 1212.5,448.5C 1212.5,429.833 1212.5,411.167 1212.5,392.5 Z"/></g>
<g><path style="opacity:0.987" fill="#42e4d9" d="M 1679.5,485.5 C 1679.63,484.624 1679.3,483.957 1678.5,483.5C 1663.67,475.587 1649.01,467.42 1634.5,459C 1631.69,457.259 1628.69,456.092 1625.5,455.5C 1632.24,445.028 1638.74,434.361 1645,423.5C 1657.79,408.514 1672.96,405.681 1690.5,415C 1703.87,427.767 1706.04,442.267 1697,458.5C 1691.3,467.675 1685.47,476.675 1679.5,485.5 Z"/></g>
<g><path style="opacity:0.991" fill="#30c2e3" d="M 879.5,481.5 C 848.908,465.522 818.241,448.856 787.5,431.5C 791.524,416.96 801.191,409.294 816.5,408.5C 827.395,408.737 836.228,413.07 843,421.5C 855.429,441.361 867.596,461.361 879.5,481.5 Z"/></g>
<g><path style="opacity:0.99" fill="#2ebee4" d="M 787.5,431.5 C 818.241,448.856 848.908,465.522 879.5,481.5C 896.47,508.661 913.303,535.995 930,563.5C 932.368,569.978 933.035,576.645 932,583.5C 931.337,587.035 929.837,590.035 927.5,592.5C 901.35,576.707 874.684,561.707 847.5,547.5C 828.359,516.564 809.192,485.564 790,454.5C 786.537,446.986 785.704,439.319 787.5,431.5 Z"/></g>
<g><path style="opacity:0.994" fill="#37cfdf" d="M 1212.5,448.5 C 1233.4,459.404 1254.07,470.737 1274.5,482.5C 1277.21,505.618 1267.04,518.618 1244,521.5C 1227.53,519.447 1217.2,510.447 1213,494.5C 1212.5,479.17 1212.33,463.837 1212.5,448.5 Z"/></g>
<g><path style="opacity:0.991" fill="#3fdfdb" d="M 1625.5,455.5 C 1628.69,456.092 1631.69,457.259 1634.5,459C 1649.01,467.42 1663.67,475.587 1678.5,483.5C 1679.3,483.957 1679.63,484.624 1679.5,485.5C 1670.33,501.84 1660.67,517.84 1650.5,533.5C 1650.59,532.504 1650.25,531.671 1649.5,531C 1632.3,521.234 1614.97,511.734 1597.5,502.5C 1606.57,486.696 1615.9,471.029 1625.5,455.5 Z"/></g>
<g><path style="opacity:0.99" fill="#3ddbdc" d="M 1597.5,502.5 C 1614.97,511.734 1632.3,521.234 1649.5,531C 1650.25,531.671 1650.59,532.504 1650.5,533.5C 1645.65,542.537 1640.32,551.204 1634.5,559.5C 1627.4,554.774 1620.06,550.274 1612.5,546C 1601.89,540.198 1591.23,534.698 1580.5,529.5C 1585.81,520.211 1591.47,511.211 1597.5,502.5 Z"/></g>
<g><path style="opacity:0.988" fill="#3bd7dd" d="M 1580.5,529.5 C 1591.23,534.698 1601.89,540.198 1612.5,546C 1620.06,550.274 1627.4,554.774 1634.5,559.5C 1627.93,570.972 1621.1,582.305 1614,593.5C 1600.97,607.401 1585.8,610.234 1568.5,602C 1558.18,593.917 1554.35,583.417 1557,570.5C 1563.82,556.193 1571.65,542.527 1580.5,529.5 Z"/></g>
<g><path style="opacity:0.985" fill="#2cbae6" d="M 847.5,547.5 C 874.684,561.707 901.35,576.707 927.5,592.5C 919.301,604.419 907.968,608.919 893.5,606C 886.605,603.769 880.771,599.936 876,594.5C 866.274,578.948 856.774,563.281 847.5,547.5 Z"/></g>
<g><path style="opacity:0.669" fill="#32c5e2" d="M 1272.5,617.5 C 1274.59,619.39 1276.92,621.057 1279.5,622.5C 1275.97,625.195 1272.3,627.695 1268.5,630C 1269.17,630.167 1269.83,630.333 1270.5,630.5C 1274.44,628.402 1278.27,626.069 1282,623.5C 1285.58,625.374 1289.08,627.374 1292.5,629.5C 1293.71,630.274 1293.71,631.107 1292.5,632C 1293.67,632.353 1294.84,632.187 1296,631.5C 1297.4,632.394 1298.9,633.061 1300.5,633.5C 1304.44,631.402 1308.27,629.069 1312,626.5C 1312.69,627.332 1312.52,627.998 1311.5,628.5C 1308.36,630.473 1305.36,632.64 1302.5,635C 1303.67,635.419 1304.67,636.085 1305.5,637C 1302.67,639.248 1299.67,641.248 1296.5,643C 1295.55,643.718 1295.38,644.551 1296,645.5C 1303.43,639.716 1311.27,634.882 1319.5,631C 1316.42,633.29 1313.25,635.457 1310,637.5C 1309.69,638.742 1310.19,639.742 1311.5,640.5C 1308.38,643.232 1305.05,645.732 1301.5,648C 1305.47,646.845 1309.13,644.845 1312.5,642C 1315.13,641.075 1316.3,641.909 1316,644.5C 1313.25,646.458 1310.42,648.291 1307.5,650C 1306.3,650.654 1306.3,651.154 1307.5,651.5C 1315.26,646.872 1322.76,641.872 1330,636.5C 1330.62,637.449 1330.45,638.282 1329.5,639C 1326.33,640.752 1323.33,642.752 1320.5,645C 1321.83,645.667 1323.17,646.333 1324.5,647C 1323.33,647.419 1322.33,648.085 1321.5,649C 1323.76,649.044 1325.76,648.211 1327.5,646.5C 1327.06,647.953 1327.73,649.119 1329.5,650C 1328.33,650.419 1327.33,651.085 1326.5,652C 1328.76,652.044 1330.76,651.211 1332.5,649.5C 1332.74,651.478 1334.07,653.145 1336.5,654.5C 1340,651.917 1343.66,649.584 1347.5,647.5C 1348.7,647.846 1348.7,648.346 1347.5,649C 1344.33,650.752 1341.33,652.752 1338.5,655C 1339.61,655.638 1340.78,656.138 1342,656.5C 1345.76,654.198 1349.6,652.365 1353.5,651C 1350.17,653.333 1346.83,655.667 1343.5,658C 1344.83,658.667 1346.17,659.333 1347.5,660C 1343.83,662.333 1340.17,664.667 1336.5,667C 1337.5,667.667 1338.5,667.667 1339.5,667C 1345.83,662.667 1352.17,658.333 1358.5,654C 1359.5,653.333 1360.5,653.333 1361.5,654C 1357.83,656.333 1354.17,658.667 1350.5,661C 1351.5,662 1352.5,663 1353.5,664C 1349.83,666.333 1346.17,668.667 1342.5,671C 1343.5,671.667 1344.5,671.667 1345.5,671C 1351.83,666.667 1358.17,662.333 1364.5,658C 1365.5,657.333 1366.5,657.333 1367.5,658C 1363.83,660.333 1360.17,662.667 1356.5,665C 1357.31,665.308 1357.97,665.808 1358.5,666.5C 1355.03,668.808 1351.69,671.308 1348.5,674C 1356.48,669.742 1364.32,664.908 1372,659.5C 1372.69,660.332 1372.52,660.998 1371.5,661.5C 1368.3,663.864 1364.97,666.03 1361.5,668C 1362.83,668.667 1364.17,669.333 1365.5,670C 1364.17,671 1362.83,672 1361.5,673C 1363.96,672.592 1366.29,671.926 1368.5,671C 1369.17,671.667 1369.83,672.333 1370.5,673C 1369.17,674 1367.83,675 1366.5,676C 1371.57,674.319 1376.23,671.652 1380.5,668C 1382.27,666.244 1383.94,666.244 1385.5,668C 1381.83,670.333 1378.17,672.667 1374.5,675C 1375.31,675.308 1375.97,675.808 1376.5,676.5C 1373.03,678.808 1369.69,681.308 1366.5,684C 1374.48,679.742 1382.32,674.908 1390,669.5C 1390.69,670.332 1390.52,670.998 1389.5,671.5C 1386.3,673.864 1382.97,676.03 1379.5,678C 1381.27,678.535 1381.6,679.369 1380.5,680.5C 1377.36,682.473 1374.36,684.64 1371.5,687C 1372.42,687.374 1373.25,687.874 1374,688.5C 1381.43,682.716 1389.27,677.882 1397.5,674C 1394.67,676.248 1391.67,678.248 1388.5,680C 1387.17,681 1387.17,682 1388.5,683C 1385.67,685.248 1382.67,687.248 1379.5,689C 1378.55,689.718 1378.38,690.551 1379,691.5C 1386.43,685.716 1394.27,680.882 1402.5,677C 1403.83,677.667 1403.83,678.333 1402.5,679C 1396.37,683.871 1390.04,688.537 1383.5,693C 1384.42,693.278 1385.08,693.778 1385.5,694.5C 1344.87,683.696 1303.54,677.363 1261.5,675.5C 1264.5,672.466 1267.84,669.632 1271.5,667C 1268.34,665.587 1265.34,663.92 1262.5,662C 1260.44,661.695 1258.44,661.695 1256.5,662C 1264.5,656.667 1272.5,651.333 1280.5,646C 1280,645.833 1279.5,645.667 1279,645.5C 1271.93,649.621 1265.09,654.121 1258.5,659C 1256.65,658.217 1254.65,657.884 1252.5,658C 1247.34,661.749 1242,665.249 1236.5,668.5C 1235.3,668.154 1235.3,667.654 1236.5,667C 1245.17,661.333 1253.83,655.667 1262.5,650C 1263.7,649.346 1263.7,648.846 1262.5,648.5C 1258.57,650.714 1254.73,653.048 1251,655.5C 1249.53,655.097 1248.19,654.43 1247,653.5C 1240.83,657.667 1234.67,661.833 1228.5,666C 1226.96,667.187 1225.29,667.52 1223.5,667C 1237.83,657.333 1252.17,647.667 1266.5,638C 1265.5,637.333 1264.5,637.333 1263.5,638C 1256.58,642.376 1249.75,646.876 1243,651.5C 1240.42,650.126 1237.92,648.626 1235.5,647C 1242.17,642.667 1248.83,638.333 1255.5,634C 1256.71,633.107 1256.71,632.274 1255.5,631.5C 1248.7,635.804 1242.03,640.304 1235.5,645C 1232.07,645.459 1229.07,644.459 1226.5,642C 1233.5,637 1240.5,632 1247.5,627C 1246.5,626.333 1245.5,626.333 1244.5,627C 1237.91,631.879 1231.07,636.379 1224,640.5C 1221.38,639.385 1218.88,638.051 1216.5,636.5C 1210.03,640.47 1203.7,644.637 1197.5,649C 1195.98,650.009 1194.31,650.509 1192.5,650.5C 1194.25,648.777 1196.25,647.277 1198.5,646C 1197.17,645.333 1195.83,645.333 1194.5,646C 1191.42,648.29 1188.25,650.457 1185,652.5C 1177.42,648.293 1169.92,643.96 1162.5,639.5C 1158.5,641.833 1154.5,644.167 1150.5,646.5C 1149.17,645.833 1149.17,645.167 1150.5,644.5C 1153.67,642.748 1156.67,640.748 1159.5,638.5C 1157.89,637.112 1156.06,636.112 1154,635.5C 1150.34,637.818 1146.68,640.151 1143,642.5C 1142.5,642 1142,641.5 1141.5,641C 1145.17,638.667 1148.83,636.333 1152.5,634C 1150.5,633 1148.5,632 1146.5,631C 1149.33,628.752 1152.33,626.752 1155.5,625C 1154.58,624.722 1153.92,624.222 1153.5,623.5C 1192.98,617.769 1232.64,615.769 1272.5,617.5 Z"/></g>
<g><path style="opacity:0.483" fill="#34c9e1" d="M 1272.5,617.5 C 1395.92,624.124 1505.92,665.291 1602.5,741C 1606.62,744.055 1610.29,747.555 1613.5,751.5C 1613.59,752.496 1613.25,753.329 1612.5,754C 1609.58,755.709 1606.75,757.542 1604,759.5C 1603.54,760.744 1604.04,761.577 1605.5,762C 1594.5,769.5 1583.5,777 1572.5,784.5C 1573.03,785.192 1573.69,785.692 1574.5,786C 1572.48,788.009 1570.14,789.509 1567.5,790.5C 1513.71,745.932 1453.04,713.932 1385.5,694.5C 1385.08,693.778 1384.42,693.278 1383.5,693C 1390.04,688.537 1396.37,683.871 1402.5,679C 1403.83,678.333 1403.83,677.667 1402.5,677C 1394.27,680.882 1386.43,685.716 1379,691.5C 1378.38,690.551 1378.55,689.718 1379.5,689C 1382.67,687.248 1385.67,685.248 1388.5,683C 1387.17,682 1387.17,681 1388.5,680C 1391.67,678.248 1394.67,676.248 1397.5,674C 1389.27,677.882 1381.43,682.716 1374,688.5C 1373.25,687.874 1372.42,687.374 1371.5,687C 1374.36,684.64 1377.36,682.473 1380.5,680.5C 1381.6,679.369 1381.27,678.535 1379.5,678C 1382.97,676.03 1386.3,673.864 1389.5,671.5C 1390.52,670.998 1390.69,670.332 1390,669.5C 1382.32,674.908 1374.48,679.742 1366.5,684C 1369.69,681.308 1373.03,678.808 1376.5,676.5C 1375.97,675.808 1375.31,675.308 1374.5,675C 1378.17,672.667 1381.83,670.333 1385.5,668C 1383.94,666.244 1382.27,666.244 1380.5,668C 1376.23,671.652 1371.57,674.319 1366.5,676C 1367.83,675 1369.17,674 1370.5,673C 1369.83,672.333 1369.17,671.667 1368.5,671C 1366.29,671.926 1363.96,672.592 1361.5,673C 1362.83,672 1364.17,671 1365.5,670C 1364.17,669.333 1362.83,668.667 1361.5,668C 1364.97,666.03 1368.3,663.864 1371.5,661.5C 1372.52,660.998 1372.69,660.332 1372,659.5C 1364.32,664.908 1356.48,669.742 1348.5,674C 1351.69,671.308 1355.03,668.808 1358.5,666.5C 1357.97,665.808 1357.31,665.308 1356.5,665C 1360.17,662.667 1363.83,660.333 1367.5,658C 1366.5,657.333 1365.5,657.333 1364.5,658C 1358.17,662.333 1351.83,666.667 1345.5,671C 1344.5,671.667 1343.5,671.667 1342.5,671C 1346.17,668.667 1349.83,666.333 1353.5,664C 1352.5,663 1351.5,662 1350.5,661C 1354.17,658.667 1357.83,656.333 1361.5,654C 1360.5,653.333 1359.5,653.333 1358.5,654C 1352.17,658.333 1345.83,662.667 1339.5,667C 1338.5,667.667 1337.5,667.667 1336.5,667C 1340.17,664.667 1343.83,662.333 1347.5,660C 1346.17,659.333 1344.83,658.667 1343.5,658C 1346.83,655.667 1350.17,653.333 1353.5,651C 1349.6,652.365 1345.76,654.198 1342,656.5C 1340.78,656.138 1339.61,655.638 1338.5,655C 1341.33,652.752 1344.33,650.752 1347.5,649C 1348.7,648.346 1348.7,647.846 1347.5,647.5C 1343.66,649.584 1340,651.917 1336.5,654.5C 1334.07,653.145 1332.74,651.478 1332.5,649.5C 1330.76,651.211 1328.76,652.044 1326.5,652C 1327.33,651.085 1328.33,650.419 1329.5,650C 1327.73,649.119 1327.06,647.953 1327.5,646.5C 1325.76,648.211 1323.76,649.044 1321.5,649C 1322.33,648.085 1323.33,647.419 1324.5,647C 1323.17,646.333 1321.83,645.667 1320.5,645C 1323.33,642.752 1326.33,640.752 1329.5,639C 1330.45,638.282 1330.62,637.449 1330,636.5C 1322.76,641.872 1315.26,646.872 1307.5,651.5C 1306.3,651.154 1306.3,650.654 1307.5,650C 1310.42,648.291 1313.25,646.458 1316,644.5C 1316.3,641.909 1315.13,641.075 1312.5,642C 1309.13,644.845 1305.47,646.845 1301.5,648C 1305.05,645.732 1308.38,643.232 1311.5,640.5C 1310.19,639.742 1309.69,638.742 1310,637.5C 1313.25,635.457 1316.42,633.29 1319.5,631C 1311.27,634.882 1303.43,639.716 1296,645.5C 1295.38,644.551 1295.55,643.718 1296.5,643C 1299.67,641.248 1302.67,639.248 1305.5,637C 1304.67,636.085 1303.67,635.419 1302.5,635C 1305.36,632.64 1308.36,630.473 1311.5,628.5C 1312.52,627.998 1312.69,627.332 1312,626.5C 1308.27,629.069 1304.44,631.402 1300.5,633.5C 1298.9,633.061 1297.4,632.394 1296,631.5C 1294.84,632.187 1293.67,632.353 1292.5,632C 1293.71,631.107 1293.71,630.274 1292.5,629.5C 1289.08,627.374 1285.58,625.374 1282,623.5C 1278.27,626.069 1274.44,628.402 1270.5,630.5C 1269.83,630.333 1269.17,630.167 1268.5,630C 1272.3,627.695 1275.97,625.195 1279.5,622.5C 1276.92,621.057 1274.59,619.39 1272.5,617.5 Z"/></g>
<g><path style="opacity:0.855" fill="#2ebee4" d="M 1153.5,623.5 C 1153.92,624.222 1154.58,624.722 1155.5,625C 1152.33,626.752 1149.33,628.752 1146.5,631C 1148.5,632 1150.5,633 1152.5,634C 1148.83,636.333 1145.17,638.667 1141.5,641C 1142,641.5 1142.5,642 1143,642.5C 1146.68,640.151 1150.34,637.818 1154,635.5C 1156.06,636.112 1157.89,637.112 1159.5,638.5C 1156.67,640.748 1153.67,642.748 1150.5,644.5C 1149.17,645.167 1149.17,645.833 1150.5,646.5C 1154.5,644.167 1158.5,641.833 1162.5,639.5C 1169.92,643.96 1177.42,648.293 1185,652.5C 1188.25,650.457 1191.42,648.29 1194.5,646C 1195.83,645.333 1197.17,645.333 1198.5,646C 1196.25,647.277 1194.25,648.777 1192.5,650.5C 1190.74,651.072 1189.08,651.906 1187.5,653C 1189.17,654.167 1190.83,655.333 1192.5,656.5C 1196,654.582 1199.34,652.416 1202.5,650C 1203.5,649.333 1204.5,649.333 1205.5,650C 1202.31,652.692 1198.97,655.192 1195.5,657.5C 1197,658.752 1198.67,659.752 1200.5,660.5C 1204,658.582 1207.34,656.416 1210.5,654C 1211.5,653.333 1212.5,653.333 1213.5,654C 1210.01,656.911 1206.34,659.578 1202.5,662C 1204.5,663 1206.5,664 1208.5,665C 1204.7,667.305 1201.03,669.805 1197.5,672.5C 1197.83,672.833 1198.17,673.167 1198.5,673.5C 1202,671.582 1205.34,669.416 1208.5,667C 1211.18,666.665 1213.51,667.499 1215.5,669.5C 1212.13,671.891 1208.79,674.224 1205.5,676.5C 1173.01,679.359 1141.01,685.026 1109.5,693.5C 1105.57,690.193 1101.24,687.36 1096.5,685C 1100.17,682.667 1103.83,680.333 1107.5,678C 1107,677.5 1106.5,677 1106,676.5C 1102.15,679.093 1098.15,681.426 1094,683.5C 1091.67,681.957 1089.17,681.457 1086.5,682C 1083.42,684.29 1080.25,686.457 1077,688.5C 1076.5,688 1076,687.5 1075.5,687C 1079.17,684.667 1082.83,682.333 1086.5,680C 1077.78,674.641 1068.78,669.807 1059.5,665.5C 1055.56,667.598 1051.73,669.931 1048,672.5C 1047.5,672 1047,671.5 1046.5,671C 1050.17,668.667 1053.83,666.333 1057.5,664C 1051.77,660.475 1046.1,656.975 1040.5,653.5C 1077.03,639.615 1114.7,629.615 1153.5,623.5 Z"/></g>
<g><path style="opacity:0.759" fill="#30c2e3" d="M 1261.5,675.5 C 1242.82,675.411 1224.16,675.744 1205.5,676.5C 1208.79,674.224 1212.13,671.891 1215.5,669.5C 1213.51,667.499 1211.18,666.665 1208.5,667C 1205.34,669.416 1202,671.582 1198.5,673.5C 1198.17,673.167 1197.83,672.833 1197.5,672.5C 1201.03,669.805 1204.7,667.305 1208.5,665C 1206.5,664 1204.5,663 1202.5,662C 1206.34,659.578 1210.01,656.911 1213.5,654C 1212.5,653.333 1211.5,653.333 1210.5,654C 1207.34,656.416 1204,658.582 1200.5,660.5C 1198.67,659.752 1197,658.752 1195.5,657.5C 1198.97,655.192 1202.31,652.692 1205.5,650C 1204.5,649.333 1203.5,649.333 1202.5,650C 1199.34,652.416 1196,654.582 1192.5,656.5C 1190.83,655.333 1189.17,654.167 1187.5,653C 1189.08,651.906 1190.74,651.072 1192.5,650.5C 1194.31,650.509 1195.98,650.009 1197.5,649C 1203.7,644.637 1210.03,640.47 1216.5,636.5C 1218.88,638.051 1221.38,639.385 1224,640.5C 1231.07,636.379 1237.91,631.879 1244.5,627C 1245.5,626.333 1246.5,626.333 1247.5,627C 1240.5,632 1233.5,637 1226.5,642C 1229.07,644.459 1232.07,645.459 1235.5,645C 1242.03,640.304 1248.7,635.804 1255.5,631.5C 1256.71,632.274 1256.71,633.107 1255.5,634C 1248.83,638.333 1242.17,642.667 1235.5,647C 1237.92,648.626 1240.42,650.126 1243,651.5C 1249.75,646.876 1256.58,642.376 1263.5,638C 1264.5,637.333 1265.5,637.333 1266.5,638C 1252.17,647.667 1237.83,657.333 1223.5,667C 1225.29,667.52 1226.96,667.187 1228.5,666C 1234.67,661.833 1240.83,657.667 1247,653.5C 1248.19,654.43 1249.53,655.097 1251,655.5C 1254.73,653.048 1258.57,650.714 1262.5,648.5C 1263.7,648.846 1263.7,649.346 1262.5,650C 1253.83,655.667 1245.17,661.333 1236.5,667C 1235.3,667.654 1235.3,668.154 1236.5,668.5C 1242,665.249 1247.34,661.749 1252.5,658C 1254.65,657.884 1256.65,658.217 1258.5,659C 1265.09,654.121 1271.93,649.621 1279,645.5C 1279.5,645.667 1280,645.833 1280.5,646C 1272.5,651.333 1264.5,656.667 1256.5,662C 1258.44,661.695 1260.44,661.695 1262.5,662C 1265.34,663.92 1268.34,665.587 1271.5,667C 1267.84,669.632 1264.5,672.466 1261.5,675.5 Z"/></g>
<g><path style="opacity:0.905" fill="#2cb9e6" d="M 1040.5,653.5 C 1046.1,656.975 1051.77,660.475 1057.5,664C 1053.83,666.333 1050.17,668.667 1046.5,671C 1047,671.5 1047.5,672 1048,672.5C 1051.73,669.931 1055.56,667.598 1059.5,665.5C 1068.78,669.807 1077.78,674.641 1086.5,680C 1082.83,682.333 1079.17,684.667 1075.5,687C 1076,687.5 1076.5,688 1077,688.5C 1080.25,686.457 1083.42,684.29 1086.5,682C 1089.17,681.457 1091.67,681.957 1094,683.5C 1098.15,681.426 1102.15,679.093 1106,676.5C 1106.5,677 1107,677.5 1107.5,678C 1103.83,680.333 1100.17,682.667 1096.5,685C 1101.24,687.36 1105.57,690.193 1109.5,693.5C 1092.42,697.603 1075.75,702.936 1059.5,709.5C 1057.23,708.024 1054.9,706.524 1052.5,705C 1059.03,700.304 1065.7,695.804 1072.5,691.5C 1073.83,690.833 1073.83,690.167 1072.5,689.5C 1065.07,694.298 1057.57,698.965 1050,703.5C 1031.03,693.447 1012.53,683.113 994.5,672.5C 1009.6,665.614 1024.94,659.281 1040.5,653.5 Z"/></g>
<g><path style="opacity:0.915" fill="#2ab6e7" d="M 994.5,672.5 C 1012.53,683.113 1031.03,693.447 1050,703.5C 1057.57,698.965 1065.07,694.298 1072.5,689.5C 1073.83,690.167 1073.83,690.833 1072.5,691.5C 1065.7,695.804 1059.03,700.304 1052.5,705C 1054.9,706.524 1057.23,708.024 1059.5,709.5C 1043.9,715.634 1028.57,722.3 1013.5,729.5C 1010.86,727.844 1008.19,726.178 1005.5,724.5C 1007.13,723.01 1008.79,721.51 1010.5,720C 1009.5,719.333 1008.5,719.333 1007.5,720C 1004.34,722.416 1001,724.582 997.5,726.5C 997.167,726.167 996.833,725.833 996.5,725.5C 997.981,724.52 999.315,723.353 1000.5,722C 996.797,720.149 993.13,718.315 989.5,716.5C 987.563,717.26 985.73,718.26 984,719.5C 983.5,719 983,718.5 982.5,718C 984.167,717 985.833,716 987.5,715C 986.09,714.632 985.09,713.799 984.5,712.5C 986.028,711.139 987.695,709.972 989.5,709C 989,708.5 988.5,708 988,707.5C 985.966,709.032 983.799,710.365 981.5,711.5C 971.816,706.138 962.15,700.805 952.5,695.5C 965.824,686.833 979.824,679.167 994.5,672.5 Z"/></g>
<g><path style="opacity:0.93" fill="#28b1e8" d="M 952.5,695.5 C 962.15,700.805 971.816,706.138 981.5,711.5C 983.799,710.365 985.966,709.032 988,707.5C 988.5,708 989,708.5 989.5,709C 987.695,709.972 986.028,711.139 984.5,712.5C 985.09,713.799 986.09,714.632 987.5,715C 985.833,716 984.167,717 982.5,718C 983,718.5 983.5,719 984,719.5C 985.73,718.26 987.563,717.26 989.5,716.5C 993.13,718.315 996.797,720.149 1000.5,722C 999.315,723.353 997.981,724.52 996.5,725.5C 996.833,725.833 997.167,726.167 997.5,726.5C 1001,724.582 1004.34,722.416 1007.5,720C 1008.5,719.333 1009.5,719.333 1010.5,720C 1008.79,721.51 1007.13,723.01 1005.5,724.5C 1008.19,726.178 1010.86,727.844 1013.5,729.5C 984.006,744.407 956.339,762.074 930.5,782.5C 930.489,779.999 929.822,779.832 928.5,782C 927.167,782.667 925.833,782.667 924.5,782C 928.167,779.667 931.833,777.333 935.5,775C 934.5,774.167 933.5,773.333 932.5,772.5C 936.03,769.805 939.696,767.305 943.5,765C 942.167,764.333 940.833,764.333 939.5,765C 936.42,767.29 933.253,769.457 930,771.5C 913.726,762.615 897.559,753.615 881.5,744.5C 903.767,726.248 927.434,709.915 952.5,695.5 Z"/></g>
<g><path style="opacity:0.992" fill="#1fa1ed" d="M 678.5,826.5 C 611.675,790.257 545.341,753.257 479.5,715.5C 489.069,705.151 500.736,701.984 514.5,706C 563.833,732.667 613.167,759.333 662.5,786C 679.477,795.094 684.81,808.594 678.5,826.5 Z"/></g>
<g><path style="opacity:0.991" fill="#3ddcdc" d="M 1996.5,760.5 C 1976.5,748.833 1956.5,737.167 1936.5,725.5C 1943.26,721.93 1949.92,718.097 1956.5,714C 1966.18,707.247 1976.85,704.58 1988.5,706C 2010.67,712.515 2017.84,726.682 2010,748.5C 2006.55,753.787 2002.05,757.787 1996.5,760.5 Z"/></g>
<g><path style="opacity:0.991" fill="#1e9fee" d="M 479.5,715.5 C 545.341,753.257 611.675,790.257 678.5,826.5C 672.746,837.724 663.412,843.391 650.5,843.5C 646.404,843.114 642.404,842.281 638.5,841C 588.532,814.015 538.532,787.015 488.5,760C 472.975,750.081 468.809,736.581 476,719.5C 476.949,717.907 478.115,716.574 479.5,715.5 Z"/></g>
<g><path style="opacity:0.99" fill="#3bd7dd" d="M 1936.5,725.5 C 1956.5,737.167 1976.5,748.833 1996.5,760.5C 1972.16,774.338 1947.49,787.672 1922.5,800.5C 1904.06,790.562 1885.72,780.395 1867.5,770C 1865.09,768.293 1862.42,767.46 1859.5,767.5C 1884.97,753.262 1910.64,739.262 1936.5,725.5 Z"/></g>
<g><path style="opacity:0.928" fill="#26ade9" d="M 881.5,744.5 C 897.559,753.615 913.726,762.615 930,771.5C 933.253,769.457 936.42,767.29 939.5,765C 940.833,764.333 942.167,764.333 943.5,765C 939.696,767.305 936.03,769.805 932.5,772.5C 933.5,773.333 934.5,774.167 935.5,775C 931.833,777.333 928.167,779.667 924.5,782C 925.833,782.667 927.167,782.667 928.5,782C 929.822,779.832 930.489,779.999 930.5,782.5C 925.5,786.5 920.5,790.5 915.5,794.5C 915.44,793.957 915.107,793.624 914.5,793.5C 909.697,796.471 905.03,799.638 900.5,803C 898.956,804.187 897.289,804.52 895.5,804C 902.328,799.085 909.328,794.419 916.5,790C 913.056,787.193 909.223,785.027 905,783.5C 897.709,787.955 890.542,792.621 883.5,797.5C 882.289,796.726 882.289,795.893 883.5,795C 890.167,790.667 896.833,786.333 903.5,782C 899.423,780.213 895.59,778.046 892,775.5C 885.833,779.667 879.667,783.833 873.5,788C 871.956,789.187 870.289,789.52 868.5,789C 875.328,784.085 882.328,779.419 889.5,775C 881.263,769.382 872.596,764.549 863.5,760.5C 869.177,754.824 875.177,749.491 881.5,744.5 Z"/></g>
<g><path style="opacity:0.916" fill="#24aaea" d="M 863.5,760.5 C 872.596,764.549 881.263,769.382 889.5,775C 882.328,779.419 875.328,784.085 868.5,789C 870.289,789.52 871.956,789.187 873.5,788C 879.667,783.833 885.833,779.667 892,775.5C 895.59,778.046 899.423,780.213 903.5,782C 896.833,786.333 890.167,790.667 883.5,795C 882.289,795.893 882.289,796.726 883.5,797.5C 890.542,792.621 897.709,787.955 905,783.5C 909.223,785.027 913.056,787.193 916.5,790C 909.328,794.419 902.328,799.085 895.5,804C 897.289,804.52 898.956,804.187 900.5,803C 905.03,799.638 909.697,796.471 914.5,793.5C 915.107,793.624 915.44,793.957 915.5,794.5C 903.531,805.134 891.865,816.134 880.5,827.5C 879.859,826.518 879.193,825.518 878.5,824.5C 881.975,822.192 885.308,819.692 888.5,817C 887.5,816.333 886.5,816.333 885.5,817C 882.337,819.416 879.004,821.582 875.5,823.5C 874.328,823.081 873.328,822.415 872.5,821.5C 875.975,819.192 879.308,816.692 882.5,814C 882,813.833 881.5,813.667 881,813.5C 877.344,815.818 873.677,818.151 870,820.5C 868.915,819.707 867.748,819.04 866.5,818.5C 862.996,820.418 859.663,822.584 856.5,825C 855.5,825.667 854.5,825.667 853.5,825C 856.692,822.308 860.025,819.808 863.5,817.5C 862.672,816.585 861.672,815.919 860.5,815.5C 856.5,817.833 852.5,820.167 848.5,822.5C 847.167,821.833 847.167,821.167 848.5,820.5C 851.699,818.136 855.032,815.97 858.5,814C 857.271,813.219 855.938,812.719 854.5,812.5C 850.559,814.598 846.725,816.931 843,819.5C 842.5,819 842,818.5 841.5,818C 845.167,815.667 848.833,813.333 852.5,811C 844.104,806.14 835.77,801.307 827.5,796.5C 838.479,783.521 850.479,771.521 863.5,760.5 Z"/></g>
<g><path style="opacity:0.043" fill="#31cee3" d="M 1613.5,751.5 C 1620.76,756.423 1627.43,762.09 1633.5,768.5C 1616.71,780.401 1599.71,792.068 1582.5,803.5C 1580.83,802.5 1579.5,801.167 1578.5,799.5C 1588.42,791.863 1598.75,784.696 1609.5,778C 1608.09,777.632 1607.09,776.799 1606.5,775.5C 1605.28,774.386 1603.94,774.219 1602.5,775C 1593.67,781.248 1584.67,787.248 1575.5,793C 1574.66,794.011 1574.33,795.178 1574.5,796.5C 1572.14,794.471 1569.81,792.471 1567.5,790.5C 1570.14,789.509 1572.48,788.009 1574.5,786C 1573.69,785.692 1573.03,785.192 1572.5,784.5C 1583.5,777 1594.5,769.5 1605.5,762C 1604.04,761.577 1603.54,760.744 1604,759.5C 1606.75,757.542 1609.58,755.709 1612.5,754C 1613.25,753.329 1613.59,752.496 1613.5,751.5 Z"/></g>
<g><path style="opacity:0.993" fill="#39d2de" d="M 1859.5,767.5 C 1862.42,767.46 1865.09,768.293 1867.5,770C 1885.72,780.395 1904.06,790.562 1922.5,800.5C 1910.16,808.004 1897.5,815.004 1884.5,821.5C 1866.19,811.346 1847.86,801.179 1829.5,791C 1827.31,789.933 1825.64,788.433 1824.5,786.5C 1836.01,779.912 1847.67,773.579 1859.5,767.5 Z"/></g>
<g><path style="opacity:0.031" fill="#38bfdf" d="M 1633.5,768.5 C 1635.5,769.833 1637.17,771.5 1638.5,773.5C 1629.74,780.057 1620.74,786.391 1611.5,792.5C 1613.34,793.919 1615.34,795.086 1617.5,796C 1609.45,802.018 1601.12,807.518 1592.5,812.5C 1589.17,809.5 1585.83,806.5 1582.5,803.5C 1599.71,792.068 1616.71,780.401 1633.5,768.5 Z"/></g>
<g><path style="opacity:0.047" fill="#30c0ea" d="M 1578.5,799.5 C 1577.17,798.5 1575.83,797.5 1574.5,796.5C 1574.33,795.178 1574.66,794.011 1575.5,793C 1584.67,787.248 1593.67,781.248 1602.5,775C 1603.94,774.219 1605.28,774.386 1606.5,775.5C 1607.09,776.799 1608.09,777.632 1609.5,778C 1598.75,784.696 1588.42,791.863 1578.5,799.5 Z"/></g>
<g><path style="opacity:0.024" fill="#28d6d6" d="M 1638.5,773.5 C 1642.5,776.833 1646.17,780.5 1649.5,784.5C 1631.98,795.092 1614.98,806.425 1598.5,818.5C 1596.17,816.833 1594.17,814.833 1592.5,812.5C 1601.12,807.518 1609.45,802.018 1617.5,796C 1615.34,795.086 1613.34,793.919 1611.5,792.5C 1620.74,786.391 1629.74,780.057 1638.5,773.5 Z"/></g>
<g><path style="opacity:0.02" fill="#32cdcd" d="M 1649.5,784.5 C 1651.5,785.833 1653.17,787.5 1654.5,789.5C 1636.95,800.102 1619.95,811.436 1603.5,823.5C 1601.5,822.167 1599.83,820.5 1598.5,818.5C 1614.98,806.425 1631.98,795.092 1649.5,784.5 Z"/></g>
<g><path style="opacity:0.993" fill="#37cfdf" d="M 1824.5,786.5 C 1825.64,788.433 1827.31,789.933 1829.5,791C 1847.86,801.179 1866.19,811.346 1884.5,821.5C 1872.37,829.068 1859.71,835.901 1846.5,842C 1831.71,845.429 1819.55,841.263 1810,829.5C 1801.76,810.671 1806.59,796.338 1824.5,786.5 Z"/></g>
<g><path style="opacity:0.016" fill="#3fc0ff" d="M 1654.5,789.5 C 1656.5,790.833 1658.17,792.5 1659.5,794.5C 1642.29,805.598 1625.29,816.932 1608.5,828.5C 1606.5,827.167 1604.83,825.5 1603.5,823.5C 1619.95,811.436 1636.95,800.102 1654.5,789.5 Z"/></g>
<g><path style="opacity:0.012" fill="#54abff" d="M 1659.5,794.5 C 1659.43,796.027 1660.09,797.027 1661.5,797.5C 1662.5,797.833 1663.17,798.5 1663.5,799.5C 1647.74,810.558 1631.74,821.391 1615.5,832C 1614.55,832.483 1613.55,832.649 1612.5,832.5C 1610.83,831.5 1609.5,830.167 1608.5,828.5C 1625.29,816.932 1642.29,805.598 1659.5,794.5 Z"/></g>
<g><path style="opacity:0.006" fill="#00fffe" d="M 1659.5,794.5 C 1660.91,794.973 1661.57,795.973 1661.5,797.5C 1660.09,797.027 1659.43,796.027 1659.5,794.5 Z"/></g>
<g><path style="opacity:0.884" fill="#21a5eb" d="M 827.5,796.5 C 835.77,801.307 844.104,806.14 852.5,811C 848.833,813.333 845.167,815.667 841.5,818C 842,818.5 842.5,819 843,819.5C 846.725,816.931 850.559,814.598 854.5,812.5C 855.938,812.719 857.271,813.219 858.5,814C 855.032,815.97 851.699,818.136 848.5,820.5C 847.167,821.167 847.167,821.833 848.5,822.5C 852.5,820.167 856.5,817.833 860.5,815.5C 861.672,815.919 862.672,816.585 863.5,817.5C 860.025,819.808 856.692,822.308 853.5,825C 854.5,825.667 855.5,825.667 856.5,825C 859.663,822.584 862.996,820.418 866.5,818.5C 867.748,819.04 868.915,819.707 870,820.5C 873.677,818.151 877.344,815.818 881,813.5C 881.5,813.667 882,813.833 882.5,814C 879.308,816.692 875.975,819.192 872.5,821.5C 873.328,822.415 874.328,823.081 875.5,823.5C 879.004,821.582 882.337,819.416 885.5,817C 886.5,816.333 887.5,816.333 888.5,817C 885.308,819.692 881.975,822.192 878.5,824.5C 879.193,825.518 879.859,826.518 880.5,827.5C 864.365,844.962 849.365,863.295 835.5,882.5C 828.24,881.456 827.907,879.622 834.5,877C 834,876.5 833.5,876 833,875.5C 831,876.833 829,878.167 827,879.5C 825.421,877.959 823.587,876.792 821.5,876C 824.997,873.417 828.664,871.084 832.5,869C 832,868.5 831.5,868 831,867.5C 827.148,870.093 823.148,872.426 819,874.5C 817.374,873.711 815.874,872.711 814.5,871.5C 818.03,868.805 821.696,866.305 825.5,864C 826.711,863.107 826.711,862.274 825.5,861.5C 820.926,864.276 816.593,867.276 812.5,870.5C 812.167,870.5 811.833,870.5 811.5,870.5C 807.861,868.345 804.194,866.178 800.5,864C 804.167,861.667 807.833,859.333 811.5,857C 811,856.5 810.5,856 810,855.5C 807.966,857.032 805.799,858.365 803.5,859.5C 802.914,859.291 802.414,858.957 802,858.5C 800.139,859.764 798.139,860.764 796,861.5C 791.716,859.383 787.549,857.05 783.5,854.5C 785.028,853.139 786.695,851.972 788.5,851C 786.942,850.79 785.609,850.29 784.5,849.5C 796.946,830.379 811.279,812.712 827.5,796.5 Z"/></g>
<g><path style="opacity:0.006" fill="#00fffe" d="M 1663.5,799.5 C 1667.33,802.499 1670.66,805.999 1673.5,810C 1657.34,821.248 1641.01,832.248 1624.5,843C 1623.5,843.667 1622.5,843.667 1621.5,843C 1617.92,839.922 1614.92,836.422 1612.5,832.5C 1613.55,832.649 1614.55,832.483 1615.5,832C 1631.74,821.391 1647.74,810.558 1663.5,799.5 Z"/></g>
<g><path style="opacity:0.876" fill="#1fa1ec" d="M 784.5,849.5 C 785.609,850.29 786.942,850.79 788.5,851C 786.695,851.972 785.028,853.139 783.5,854.5C 787.549,857.05 791.716,859.383 796,861.5C 798.139,860.764 800.139,859.764 802,858.5C 802.414,858.957 802.914,859.291 803.5,859.5C 805.799,858.365 807.966,857.032 810,855.5C 810.5,856 811,856.5 811.5,857C 807.833,859.333 804.167,861.667 800.5,864C 804.194,866.178 807.861,868.345 811.5,870.5C 803.487,876.268 795.32,881.934 787,887.5C 780.185,883.851 773.685,879.851 767.5,875.5C 772.175,866.142 777.841,857.475 784.5,849.5 Z"/></g>
<g><path style="opacity:0.714" fill="#31c3e3" d="M 1662.5,861.5 C 1662.39,862.117 1662.06,862.617 1661.5,863C 1674.17,877 1686.83,891 1699.5,905C 1704.34,907.921 1709.34,910.588 1714.5,913C 1719.96,918.771 1725.29,924.604 1730.5,930.5C 1708.12,925.215 1685.46,921.881 1662.5,920.5C 1661.8,918.284 1660.46,916.451 1658.5,915C 1654.37,913.034 1650.37,910.868 1646.5,908.5C 1645.48,909.002 1645.31,909.668 1646,910.5C 1648.5,913 1651,915.5 1653.5,918C 1652.5,918.667 1651.5,918.667 1650.5,918C 1645.83,913 1641.17,908 1636.5,903C 1631.58,900.293 1626.75,897.459 1622,894.5C 1621.33,895.167 1621.33,895.833 1622,896.5C 1628.5,903.667 1635,910.833 1641.5,918C 1640.5,918.667 1639.5,918.667 1638.5,918C 1622.63,899.804 1606.47,881.971 1590,864.5C 1589.5,864.667 1589,864.833 1588.5,865C 1594.5,871.667 1600.5,878.333 1606.5,885C 1603.83,884.333 1601.17,883.667 1598.5,883C 1605.5,890.667 1612.5,898.333 1619.5,906C 1618.09,906.315 1616.76,905.982 1615.5,905C 1603.83,892 1592.17,879 1580.5,866C 1579.55,865.517 1578.55,865.351 1577.5,865.5C 1587.6,863.581 1597.94,862.414 1608.5,862C 1626.5,861.5 1644.5,861.333 1662.5,861.5 Z"/></g>
<g><path style="opacity:0.889" fill="#32c5e2" d="M 1662.5,861.5 C 1684.41,862.947 1706.08,865.947 1727.5,870.5C 1728.65,874.161 1730.81,877.161 1734,879.5C 1733.8,877.255 1732.64,875.422 1730.5,874C 1738.21,877.108 1745.71,880.941 1753,885.5C 1816.63,920.957 1881.47,956.791 1947.5,993C 1948.38,993.708 1949.05,994.542 1949.5,995.5C 1949.83,996.833 1950.17,996.833 1950.5,995.5C 1974.65,1019.99 1994.99,1047.32 2011.5,1077.5C 1979.34,1060.59 1947.67,1042.92 1916.5,1024.5C 1916.17,1023.17 1915.83,1023.17 1915.5,1024.5C 1915.17,1024.5 1914.83,1024.5 1914.5,1024.5C 1909.66,1021.41 1904.66,1018.91 1899.5,1017C 1901.95,1018.74 1903.45,1020.91 1904,1023.5C 1900.46,1020.3 1897.3,1016.8 1894.5,1013C 1886.06,1009.87 1879.23,1004.71 1874,997.5C 1873.84,999.387 1874.67,1000.89 1876.5,1002C 1875.18,1002.19 1873.85,1002.03 1872.5,1001.5C 1830.29,967.961 1782.96,944.294 1730.5,930.5C 1725.29,924.604 1719.96,918.771 1714.5,913C 1709.34,910.588 1704.34,907.921 1699.5,905C 1686.83,891 1674.17,877 1661.5,863C 1662.06,862.617 1662.39,862.117 1662.5,861.5 Z"/></g>
<g><path style="opacity:0.543" fill="#2ebee4" d="M 1662.5,920.5 C 1616.53,916.941 1571.53,921.941 1527.5,935.5C 1513.13,919.802 1499.13,903.802 1485.5,887.5C 1515.33,876.711 1545.99,869.377 1577.5,865.5C 1578.55,865.351 1579.55,865.517 1580.5,866C 1592.17,879 1603.83,892 1615.5,905C 1616.76,905.982 1618.09,906.315 1619.5,906C 1612.5,898.333 1605.5,890.667 1598.5,883C 1601.17,883.667 1603.83,884.333 1606.5,885C 1600.5,878.333 1594.5,871.667 1588.5,865C 1589,864.833 1589.5,864.667 1590,864.5C 1606.47,881.971 1622.63,899.804 1638.5,918C 1639.5,918.667 1640.5,918.667 1641.5,918C 1635,910.833 1628.5,903.667 1622,896.5C 1621.33,895.833 1621.33,895.167 1622,894.5C 1626.75,897.459 1631.58,900.293 1636.5,903C 1641.17,908 1645.83,913 1650.5,918C 1651.5,918.667 1652.5,918.667 1653.5,918C 1651,915.5 1648.5,913 1646,910.5C 1645.31,909.668 1645.48,909.002 1646.5,908.5C 1650.37,910.868 1654.37,913.034 1658.5,915C 1660.46,916.451 1661.8,918.284 1662.5,920.5 Z"/></g>
<g><path style="opacity:0.845" fill="#1fa1ed" d="M 835.5,882.5 C 830.907,888.697 826.573,895.03 822.5,901.5C 822.33,900.178 822.663,899.011 823.5,898C 823,897.5 822.5,897 822,896.5C 819.333,898.5 816.667,900.5 814,902.5C 806.247,898.04 798.414,893.706 790.5,889.5C 785.914,892.376 781.414,895.376 777,898.5C 776.5,898 776,897.5 775.5,897C 788.167,888.667 800.833,880.333 813.5,872C 812.944,871.617 812.611,871.117 812.5,870.5C 816.593,867.276 820.926,864.276 825.5,861.5C 826.711,862.274 826.711,863.107 825.5,864C 821.696,866.305 818.03,868.805 814.5,871.5C 815.874,872.711 817.374,873.711 819,874.5C 823.148,872.426 827.148,870.093 831,867.5C 831.5,868 832,868.5 832.5,869C 828.664,871.084 824.997,873.417 821.5,876C 823.587,876.792 825.421,877.959 827,879.5C 829,878.167 831,876.833 833,875.5C 833.5,876 834,876.5 834.5,877C 827.907,879.622 828.24,881.456 835.5,882.5 Z"/></g>
<g><path style="opacity:0.824" fill="#1e9eee" d="M 811.5,870.5 C 811.833,870.5 812.167,870.5 812.5,870.5C 812.611,871.117 812.944,871.617 813.5,872C 800.833,880.333 788.167,888.667 775.5,897C 776,897.5 776.5,898 777,898.5C 781.414,895.376 785.914,892.376 790.5,889.5C 798.414,893.706 806.247,898.04 814,902.5C 816.667,900.5 819.333,898.5 822,896.5C 822.5,897 823,897.5 823.5,898C 822.663,899.011 822.33,900.178 822.5,901.5C 815.232,913.706 808.232,926.039 801.5,938.5C 801.631,937.761 801.464,937.094 801,936.5C 798,938.5 795,940.5 792,942.5C 790.534,940.675 788.701,940.175 786.5,941C 783.42,943.29 780.253,945.457 777,947.5C 776.5,947 776,946.5 775.5,946C 779.167,943.667 782.833,941.333 786.5,939C 783.751,937.877 781.251,936.377 779,934.5C 775.747,936.543 772.58,938.71 769.5,941C 768.167,941.667 766.833,941.667 765.5,941C 769.167,938.667 772.833,936.333 776.5,934C 774.167,932.333 771.833,930.667 769.5,929C 773.167,926.667 776.833,924.333 780.5,922C 779.167,921.333 777.833,921.333 776.5,922C 773.42,924.29 770.253,926.457 767,928.5C 762.667,925.833 758.333,923.167 754,920.5C 750,923.167 746,925.833 742,928.5C 741.292,927.619 740.458,926.953 739.5,926.5C 747.236,908.48 756.569,891.48 767.5,875.5C 773.685,879.851 780.185,883.851 787,887.5C 795.32,881.934 803.487,876.268 811.5,870.5 Z"/></g>
<g><path style="opacity:0.958" fill="#33c8e2" d="M 1727.5,870.5 C 1814.64,888.641 1889.14,929.308 1951,992.5C 1951.47,993.577 1951.3,994.577 1950.5,995.5C 1950.17,995.5 1949.83,995.5 1949.5,995.5C 1949.05,994.542 1948.38,993.708 1947.5,993C 1881.47,956.791 1816.63,920.957 1753,885.5C 1745.71,880.941 1738.21,877.108 1730.5,874C 1732.64,875.422 1733.8,877.255 1734,879.5C 1730.81,877.161 1728.65,874.161 1727.5,870.5 Z"/></g>
<g><path style="opacity:0.425" fill="#2cbae6" d="M 1485.5,887.5 C 1499.13,903.802 1513.13,919.802 1527.5,935.5C 1514.21,939.373 1501.21,944.04 1488.5,949.5C 1488.61,947.097 1487.61,945.264 1485.5,944C 1477.3,939.064 1468.97,935.064 1460.5,932C 1453.61,923.709 1446.61,915.542 1439.5,907.5C 1454.3,899.772 1469.63,893.105 1485.5,887.5 Z"/></g>
<g><path style="opacity:0.328" fill="#2ab6e6" d="M 1439.5,907.5 C 1446.61,915.542 1453.61,923.709 1460.5,932C 1468.97,935.064 1477.3,939.064 1485.5,944C 1487.61,945.264 1488.61,947.097 1488.5,949.5C 1470.09,957.205 1452.42,966.205 1435.5,976.5C 1433.28,975.797 1431.45,974.464 1430,972.5C 1423.87,964.705 1417.37,957.205 1410.5,950C 1399.3,943.881 1398.64,945.214 1408.5,954C 1406.72,953.956 1405.05,953.289 1403.5,952C 1398.93,946.935 1394.59,941.769 1390.5,936.5C 1405.67,925.073 1422,915.406 1439.5,907.5 Z"/></g>
<g><path style="opacity:0.745" fill="#1b99ef" d="M 801.5,938.5 C 788.656,964.525 778.323,991.525 770.5,1019.5C 768.446,1020.61 766.279,1021.61 764,1022.5C 762.105,1020.82 759.938,1020.32 757.5,1021C 754.42,1023.29 751.253,1025.46 748,1027.5C 747.312,1026.67 747.479,1026 748.5,1025.5C 754.667,1020.51 761,1015.67 767.5,1011C 763.417,1012.96 759.25,1015.13 755,1017.5C 753.274,1017.05 751.774,1016.22 750.5,1015C 753.328,1012.75 756.328,1010.75 759.5,1009C 760.451,1008.28 760.617,1007.45 760,1006.5C 756.333,1009.17 752.667,1011.83 749,1014.5C 748.275,1013.94 747.442,1013.61 746.5,1013.5C 744.306,1014.94 741.973,1015.77 739.5,1016C 742.866,1011.97 746.866,1008.64 751.5,1006C 748.246,1006.7 745.246,1008.2 742.5,1010.5C 740.587,1009.63 738.753,1008.63 737,1007.5C 736.163,1009.01 734.996,1009.51 733.5,1009C 736.536,1005.3 740.203,1002.3 744.5,1000C 745.696,999.346 745.696,998.846 744.5,998.5C 740.996,1000.42 737.663,1002.58 734.5,1005C 732.874,1004.8 731.207,1004.8 729.5,1005C 727.209,1007.34 724.542,1008.67 721.5,1009C 726.167,1005.33 730.833,1001.67 735.5,998C 736.696,997.346 736.696,996.846 735.5,996.5C 732.733,998.299 729.899,999.966 727,1001.5C 724.861,1000.76 722.861,999.764 721,998.5C 718,1000.5 715,1002.5 712,1004.5C 711.722,1003.58 711.222,1002.92 710.5,1002.5C 718.217,976.337 727.884,951.004 739.5,926.5C 740.458,926.953 741.292,927.619 742,928.5C 746,925.833 750,923.167 754,920.5C 758.333,923.167 762.667,925.833 767,928.5C 770.253,926.457 773.42,924.29 776.5,922C 777.833,921.333 779.167,921.333 780.5,922C 776.833,924.333 773.167,926.667 769.5,929C 771.833,930.667 774.167,932.333 776.5,934C 772.833,936.333 769.167,938.667 765.5,941C 766.833,941.667 768.167,941.667 769.5,941C 772.58,938.71 775.747,936.543 779,934.5C 781.251,936.377 783.751,937.877 786.5,939C 782.833,941.333 779.167,943.667 775.5,946C 776,946.5 776.5,947 777,947.5C 780.253,945.457 783.42,943.29 786.5,941C 788.701,940.175 790.534,940.675 792,942.5C 795,940.5 798,938.5 801,936.5C 801.464,937.094 801.631,937.761 801.5,938.5 Z"/></g>
<g><path style="opacity:0.225" fill="#28b2e8" d="M 1390.5,936.5 C 1394.59,941.769 1398.93,946.935 1403.5,952C 1405.05,953.289 1406.72,953.956 1408.5,954C 1398.64,945.214 1399.3,943.881 1410.5,950C 1417.37,957.205 1423.87,964.705 1430,972.5C 1431.45,974.464 1433.28,975.797 1435.5,976.5C 1424.19,984.802 1412.86,993.135 1401.5,1001.5C 1400.5,1001.41 1399.67,1001.75 1399,1002.5C 1392.87,994.705 1386.37,987.205 1379.5,980C 1373.5,976.667 1367.5,973.333 1361.5,970C 1359.64,967.312 1357.64,964.812 1355.5,962.5C 1364.31,955.197 1373.31,948.031 1382.5,941C 1385.06,939.223 1387.73,937.723 1390.5,936.5 Z"/></g>
<g><path style="opacity:0.139" fill="#26afe9" d="M 1355.5,962.5 C 1357.64,964.812 1359.64,967.312 1361.5,970C 1367.5,973.333 1373.5,976.667 1379.5,980C 1386.37,987.205 1392.87,994.705 1399,1002.5C 1399.67,1001.75 1400.5,1001.41 1401.5,1001.5C 1389.53,1011.8 1378.2,1022.8 1367.5,1034.5C 1354.4,1019.56 1341.07,1004.73 1327.5,990C 1328.25,989.329 1328.59,988.496 1328.5,987.5C 1337.17,978.827 1346.17,970.494 1355.5,962.5 Z"/></g>
<g><path style="opacity:0.097" fill="#26ace9" d="M 1328.5,987.5 C 1328.59,988.496 1328.25,989.329 1327.5,990C 1341.07,1004.73 1354.4,1019.56 1367.5,1034.5C 1361.47,1041.53 1355.47,1048.53 1349.5,1055.5C 1335.13,1040.79 1321.46,1025.46 1308.5,1009.5C 1314.83,1001.84 1321.49,994.508 1328.5,987.5 Z"/></g>
<g><path style="opacity:0.004" fill="#00fffe" d="M 700.5,1043.5 C 700.5,1045.17 700.5,1046.83 700.5,1048.5C 691.524,1035.23 683.024,1021.57 675,1007.5C 674.092,1005.56 672.592,1004.56 670.5,1004.5C 672.171,1002.99 674.004,1002.66 676,1003.5C 683.941,1017.06 692.108,1030.4 700.5,1043.5 Z"/></g>
<g><path style="opacity:0.008" fill="#007fff" d="M 668.5,1004.5 C 669.167,1004.5 669.833,1004.5 670.5,1004.5C 672.592,1004.56 674.092,1005.56 675,1007.5C 683.024,1021.57 691.524,1035.23 700.5,1048.5C 699.766,1049.71 699.433,1051.04 699.5,1052.5C 689.775,1037.4 680.275,1022.07 671,1006.5C 670.005,1005.93 669.172,1005.27 668.5,1004.5 Z"/></g>
<g><path style="opacity:0.016" fill="#0481ff" d="M 667.5,1005.5 C 677.083,1023.01 687.416,1040.01 698.5,1056.5C 698.5,1056.83 698.5,1057.17 698.5,1057.5C 696.883,1058.04 695.216,1058.37 693.5,1058.5C 694.686,1056.81 694.519,1055.14 693,1053.5C 683.603,1039.1 674.603,1024.43 666,1009.5C 664.855,1008.36 663.688,1007.36 662.5,1006.5C 664.117,1005.96 665.784,1005.63 667.5,1005.5 Z"/></g>
<g><path style="opacity:0.012" fill="#00aaff" d="M 668.5,1004.5 C 669.172,1005.27 670.005,1005.93 671,1006.5C 680.275,1022.07 689.775,1037.4 699.5,1052.5C 699.167,1053.83 698.833,1055.17 698.5,1056.5C 687.416,1040.01 677.083,1023.01 667.5,1005.5C 667.5,1004.83 667.833,1004.5 668.5,1004.5 Z"/></g>
<g><path style="opacity:0.02" fill="#039aff" d="M 662.5,1006.5 C 663.688,1007.36 664.855,1008.36 666,1009.5C 674.603,1024.43 683.603,1039.1 693,1053.5C 694.519,1055.14 694.686,1056.81 693.5,1058.5C 692.791,1059.4 691.791,1059.74 690.5,1059.5C 690.918,1058.78 691.584,1058.28 692.5,1058C 682.124,1042.08 672.124,1025.92 662.5,1009.5C 661.311,1008.57 659.978,1008.24 658.5,1008.5C 659.671,1007.66 661.005,1006.99 662.5,1006.5 Z"/></g>
<g><path style="opacity:0.024" fill="#2980ff" d="M 656.5,1009.5 C 656.842,1008.66 657.508,1008.33 658.5,1008.5C 659.978,1008.24 661.311,1008.57 662.5,1009.5C 672.124,1025.92 682.124,1042.08 692.5,1058C 691.584,1058.28 690.918,1058.78 690.5,1059.5C 680.191,1044.23 670.358,1028.57 661,1012.5C 660.092,1010.56 658.592,1009.56 656.5,1009.5 Z"/></g>
<g><path style="opacity:0.584" fill="#1892f1" d="M 770.5,1019.5 C 763.355,1044.7 758.688,1070.37 756.5,1096.5C 754.956,1096.7 753.622,1097.37 752.5,1098.5C 750.833,1097.17 749.167,1097.17 747.5,1098.5C 747.089,1097.74 746.923,1096.74 747,1095.5C 743.333,1098.17 739.667,1100.83 736,1103.5C 735.383,1102.55 735.549,1101.72 736.5,1101C 742.626,1096.13 748.959,1091.46 755.5,1087C 751.016,1088.74 746.683,1090.74 742.5,1093C 745.36,1090.64 748.36,1088.47 751.5,1086.5C 752.521,1086 752.688,1085.33 752,1084.5C 747.586,1087.62 743.086,1090.62 738.5,1093.5C 738.089,1092.74 737.923,1091.74 738,1090.5C 734.333,1093.17 730.667,1095.83 727,1098.5C 726.383,1097.55 726.549,1096.72 727.5,1096C 730.672,1094.25 733.672,1092.25 736.5,1090C 735.672,1089.09 734.672,1088.42 733.5,1088C 736.36,1085.64 739.36,1083.47 742.5,1081.5C 743.521,1081 743.688,1080.33 743,1079.5C 739.747,1081.54 736.58,1083.71 733.5,1086C 731.888,1086.72 730.388,1086.55 729,1085.5C 727.511,1087.33 725.678,1088.17 723.5,1088C 724.833,1087 726.167,1086 727.5,1085C 725.24,1084.96 723.24,1085.79 721.5,1087.5C 721.167,1087.33 720.833,1087.17 720.5,1087C 724.575,1082.46 729.242,1078.63 734.5,1075.5C 734.333,1075.17 734.167,1074.83 734,1074.5C 730.323,1076.85 726.656,1079.18 723,1081.5C 722.5,1081.33 722,1081.17 721.5,1081C 724.167,1079.33 726.833,1077.67 729.5,1076C 730.696,1075.35 730.696,1074.85 729.5,1074.5C 725.996,1076.42 722.663,1078.58 719.5,1081C 718.833,1081.67 718.167,1081.67 717.5,1081C 718.696,1080.35 718.696,1079.85 717.5,1079.5C 713.567,1081.71 709.734,1084.05 706,1086.5C 705.5,1086.33 705,1086.17 704.5,1086C 707.968,1084.03 711.301,1081.86 714.5,1079.5C 715.386,1078.68 715.719,1077.68 715.5,1076.5C 714.448,1076.65 713.448,1076.48 712.5,1076C 716.167,1073.67 719.833,1071.33 723.5,1069C 723,1068.83 722.5,1068.67 722,1068.5C 718.266,1070.95 714.433,1073.29 710.5,1075.5C 709.833,1075.17 709.167,1074.83 708.5,1074.5C 706.922,1075.64 705.256,1076.14 703.5,1076C 705.255,1075.28 706.089,1074.11 706,1072.5C 703,1074.5 700,1076.5 697,1078.5C 698.509,1075.59 701.009,1073.43 704.5,1072C 704.167,1071.67 703.833,1071.33 703.5,1071C 707.167,1068.67 710.833,1066.33 714.5,1064C 713.5,1063.33 712.5,1063.33 711.5,1064C 708.337,1066.42 705.004,1068.58 701.5,1070.5C 700.099,1069.48 698.765,1068.48 697.5,1067.5C 697.46,1064.12 697.793,1060.79 698.5,1057.5C 698.5,1057.17 698.5,1056.83 698.5,1056.5C 698.833,1055.17 699.167,1053.83 699.5,1052.5C 699.433,1051.04 699.766,1049.71 700.5,1048.5C 700.5,1046.83 700.5,1045.17 700.5,1043.5C 703.648,1029.9 706.982,1016.24 710.5,1002.5C 711.222,1002.92 711.722,1003.58 712,1004.5C 715,1002.5 718,1000.5 721,998.5C 722.861,999.764 724.861,1000.76 727,1001.5C 729.899,999.966 732.733,998.299 735.5,996.5C 736.696,996.846 736.696,997.346 735.5,998C 730.833,1001.67 726.167,1005.33 721.5,1009C 724.542,1008.67 727.209,1007.34 729.5,1005C 731.207,1004.8 732.874,1004.8 734.5,1005C 737.663,1002.58 740.996,1000.42 744.5,998.5C 745.696,998.846 745.696,999.346 744.5,1000C 740.203,1002.3 736.536,1005.3 733.5,1009C 734.996,1009.51 736.163,1009.01 737,1007.5C 738.753,1008.63 740.587,1009.63 742.5,1010.5C 745.246,1008.2 748.246,1006.7 751.5,1006C 746.866,1008.64 742.866,1011.97 739.5,1016C 741.973,1015.77 744.306,1014.94 746.5,1013.5C 747.442,1013.61 748.275,1013.94 749,1014.5C 752.667,1011.83 756.333,1009.17 760,1006.5C 760.617,1007.45 760.451,1008.28 759.5,1009C 756.328,1010.75 753.328,1012.75 750.5,1015C 751.774,1016.22 753.274,1017.05 755,1017.5C 759.25,1015.13 763.417,1012.96 767.5,1011C 761,1015.67 754.667,1020.51 748.5,1025.5C 747.479,1026 747.312,1026.67 748,1027.5C 751.253,1025.46 754.42,1023.29 757.5,1021C 759.938,1020.32 762.105,1020.82 764,1022.5C 766.279,1021.61 768.446,1020.61 770.5,1019.5 Z"/></g>
<g><path style="opacity:0.027" fill="#2492ff" d="M 654.5,1009.5 C 655.167,1009.5 655.833,1009.5 656.5,1009.5C 658.592,1009.56 660.092,1010.56 661,1012.5C 670.358,1028.57 680.191,1044.23 690.5,1059.5C 689.329,1060.34 687.995,1061.01 686.5,1061.5C 676.819,1043.45 666.152,1026.12 654.5,1009.5 Z"/></g>
<g><path style="opacity:0.031" fill="#209fff" d="M 654.5,1009.5 C 666.152,1026.12 676.819,1043.45 686.5,1061.5C 685.833,1061.5 685.167,1061.5 684.5,1061.5C 673.402,1044.97 663.069,1027.97 653.5,1010.5C 653.5,1009.83 653.833,1009.5 654.5,1009.5 Z"/></g>
<g><path style="opacity:0.035" fill="#1c8eff" d="M 653.5,1010.5 C 663.069,1027.97 673.402,1044.97 684.5,1061.5C 683.22,1062.93 681.553,1063.6 679.5,1063.5C 680.686,1061.81 680.519,1060.14 679,1058.5C 669.156,1042.81 659.322,1027.14 649.5,1011.5C 650.833,1011.17 652.167,1010.83 653.5,1010.5 Z"/></g>
<g><path style="opacity:0.039" fill="#1a99e6" d="M 649.5,1011.5 C 659.322,1027.14 669.156,1042.81 679,1058.5C 680.519,1060.14 680.686,1061.81 679.5,1063.5C 678.542,1063.05 677.708,1062.38 677,1061.5C 669.251,1048.33 661.251,1035.33 653,1022.5C 650.78,1019.46 649.28,1016.13 648.5,1012.5C 648.5,1011.83 648.833,1011.5 649.5,1011.5 Z"/></g>
<g><path style="opacity:0.067" fill="#21a6f0" d="M 1308.5,1009.5 C 1321.46,1025.46 1335.13,1040.79 1349.5,1055.5C 1347.18,1059.15 1344.52,1062.48 1341.5,1065.5C 1328.18,1049.51 1314.51,1033.85 1300.5,1018.5C 1302.94,1015.27 1305.61,1012.27 1308.5,1009.5 Z"/></g>
<g><path style="opacity:0.055" fill="#1490ed" d="M 648.5,1012.5 C 649.28,1016.13 650.78,1019.46 653,1022.5C 661.251,1035.33 669.251,1048.33 677,1061.5C 677.708,1062.38 678.542,1063.05 679.5,1063.5C 674.14,1066.4 668.473,1068.74 662.5,1070.5C 659.775,1066.73 657.275,1062.73 655,1058.5C 651.394,1057.23 648.727,1054.89 647,1051.5C 641.667,1042.83 636.333,1034.17 631,1025.5C 629.991,1023.98 629.491,1022.31 629.5,1020.5C 635.665,1017.44 641.999,1014.78 648.5,1012.5 Z"/></g>
<g><path style="opacity:0.059" fill="#21acee" d="M 1300.5,1018.5 C 1314.51,1033.85 1328.18,1049.51 1341.5,1065.5C 1339.22,1069.78 1336.55,1073.78 1333.5,1077.5C 1319.5,1061.83 1305.5,1046.17 1291.5,1030.5C 1294.51,1026.46 1297.51,1022.46 1300.5,1018.5 Z"/></g>
<g><path style="opacity:0.992" fill="#30c2e3" d="M 1914.5,1024.5 C 1914.83,1025.83 1915.17,1025.83 1915.5,1024.5C 1915.83,1024.5 1916.17,1024.5 1916.5,1024.5C 1947.67,1042.92 1979.34,1060.59 2011.5,1077.5C 2019.25,1091.67 2025.92,1106.33 2031.5,1121.5C 2000.1,1104.61 1968.43,1087.28 1936.5,1069.5C 1935.7,1069.96 1935.37,1070.62 1935.5,1071.5C 1926.95,1060.11 1917.78,1049.11 1908,1038.5C 1906.56,1036.73 1905.56,1034.73 1905,1032.5C 1894.57,1021.57 1883.74,1011.24 1872.5,1001.5C 1873.85,1002.03 1875.18,1002.19 1876.5,1002C 1874.67,1000.89 1873.84,999.387 1874,997.5C 1879.23,1004.71 1886.06,1009.87 1894.5,1013C 1897.3,1016.8 1900.46,1020.3 1904,1023.5C 1903.45,1020.91 1901.95,1018.74 1899.5,1017C 1904.66,1018.91 1909.66,1021.41 1914.5,1024.5 Z"/></g>
<g><path style="opacity:0.136" fill="#168df2" d="M 629.5,1020.5 C 629.491,1022.31 629.991,1023.98 631,1025.5C 636.333,1034.17 641.667,1042.83 647,1051.5C 648.727,1054.89 651.394,1057.23 655,1058.5C 657.275,1062.73 659.775,1066.73 662.5,1070.5C 651.545,1075.98 640.878,1081.98 630.5,1088.5C 629.559,1086.53 628.559,1084.53 627.5,1082.5C 628.167,1082.17 628.833,1081.83 629.5,1081.5C 623.104,1067.77 615.437,1054.77 606.5,1042.5C 604.974,1044.66 603.474,1044.32 602,1041.5C 600.991,1039.98 600.491,1038.31 600.5,1036.5C 609.649,1030.42 619.316,1025.09 629.5,1020.5 Z"/></g>
<g><path style="opacity:0.055" fill="#24a4ed" d="M 1291.5,1030.5 C 1305.5,1046.17 1319.5,1061.83 1333.5,1077.5C 1332.75,1079.33 1331.75,1081 1330.5,1082.5C 1327.04,1081.56 1324.21,1079.56 1322,1076.5C 1310.99,1062.66 1299.16,1049.66 1286.5,1037.5C 1287.81,1034.86 1289.48,1032.53 1291.5,1030.5 Z"/></g>
<g><path style="opacity:0.191" fill="#148bf3" d="M 600.5,1036.5 C 600.491,1038.31 600.991,1039.98 602,1041.5C 603.474,1044.32 604.974,1044.66 606.5,1042.5C 615.437,1054.77 623.104,1067.77 629.5,1081.5C 628.833,1081.83 628.167,1082.17 627.5,1082.5C 628.559,1084.53 629.559,1086.53 630.5,1088.5C 621.805,1094.18 613.138,1099.84 604.5,1105.5C 602.685,1101.23 602.018,1100.9 602.5,1104.5C 602.154,1105.7 601.654,1105.7 601,1104.5C 598.611,1099.45 595.445,1094.95 591.5,1091C 590.5,1090.33 589.5,1090.33 588.5,1091C 589.451,1091.72 589.617,1092.55 589,1093.5C 586.582,1089.96 583.915,1086.63 581,1083.5C 580.667,1084.17 580.333,1084.83 580,1085.5C 577.005,1080.43 576.339,1080.43 578,1085.5C 582.209,1091.41 586.042,1097.58 589.5,1104C 589.018,1105.01 588.852,1106.18 589,1107.5C 586,1103.5 583,1099.5 580,1095.5C 579.508,1096.55 579.674,1097.55 580.5,1098.5C 580.154,1099.7 579.654,1099.7 579,1098.5C 577.333,1095.83 575.667,1093.17 574,1090.5C 574,1091.83 574,1093.17 574,1094.5C 572.667,1092.5 571.333,1090.5 570,1088.5C 570,1089.83 570,1091.17 570,1092.5C 564.424,1084.68 559.924,1076.34 556.5,1067.5C 561.349,1062.49 566.683,1057.99 572.5,1054C 581.385,1047.39 590.718,1041.56 600.5,1036.5 Z"/></g>
<g><path style="opacity:0.051" fill="#27b1eb" d="M 1286.5,1037.5 C 1299.16,1049.66 1310.99,1062.66 1322,1076.5C 1324.21,1079.56 1327.04,1081.56 1330.5,1082.5C 1328.47,1085.52 1326.47,1088.52 1324.5,1091.5C 1311.44,1074.74 1297.44,1058.74 1282.5,1043.5C 1283.34,1041.15 1284.67,1039.15 1286.5,1037.5 Z"/></g>
<g><path style="opacity:0.047" fill="#2aaaea" d="M 1282.5,1043.5 C 1297.44,1058.74 1311.44,1074.74 1324.5,1091.5C 1323.89,1093.43 1322.89,1095.1 1321.5,1096.5C 1306.85,1081.18 1292.51,1065.51 1278.5,1049.5C 1279.34,1047.15 1280.67,1045.15 1282.5,1043.5 Z"/></g>
<g><path style="opacity:0.043" fill="#29a2e8" d="M 1278.5,1049.5 C 1292.51,1065.51 1306.85,1081.18 1321.5,1096.5C 1320.18,1099.14 1318.85,1101.81 1317.5,1104.5C 1304.2,1089.69 1291.03,1074.69 1278,1059.5C 1276.87,1057.86 1275.37,1056.86 1273.5,1056.5C 1274.81,1053.86 1276.48,1051.53 1278.5,1049.5 Z"/></g>
<g><path style="opacity:0.039" fill="#1ab3e6" d="M 1273.5,1056.5 C 1275.37,1056.86 1276.87,1057.86 1278,1059.5C 1291.03,1074.69 1304.2,1089.69 1317.5,1104.5C 1316.74,1106.37 1315.74,1108.04 1314.5,1109.5C 1309.93,1106.44 1305.77,1102.78 1302,1098.5C 1291.38,1086.24 1280.55,1074.24 1269.5,1062.5C 1270.85,1060.46 1272.18,1058.46 1273.5,1056.5 Z"/></g>
<g><path style="opacity:0.035" fill="#1caae3" d="M 1269.5,1062.5 C 1280.55,1074.24 1291.38,1086.24 1302,1098.5C 1305.77,1102.78 1309.93,1106.44 1314.5,1109.5C 1313.68,1112.48 1312.34,1115.15 1310.5,1117.5C 1295.86,1102.35 1281.69,1086.69 1268,1070.5C 1267.33,1069.75 1266.5,1069.41 1265.5,1069.5C 1266.83,1067.17 1268.17,1064.83 1269.5,1062.5 Z"/></g>
<g><path style="opacity:0.031" fill="#209fdf" d="M 1265.5,1069.5 C 1266.5,1069.41 1267.33,1069.75 1268,1070.5C 1281.69,1086.69 1295.86,1102.35 1310.5,1117.5C 1309.77,1119.95 1308.77,1122.29 1307.5,1124.5C 1304.94,1123.46 1302.78,1121.79 1301,1119.5C 1288.33,1104.67 1275.5,1090 1262.5,1075.5C 1263.47,1073.52 1264.47,1071.52 1265.5,1069.5 Z"/></g>
<g><path style="opacity:0.989" fill="#2ebee4" d="M 2031.5,1121.5 C 2044.33,1151.83 2052.33,1183.5 2055.5,1216.5C 2055.44,1217.04 2055.11,1217.38 2054.5,1217.5C 2032.1,1204.63 2009.43,1192.3 1986.5,1180.5C 1975.7,1141.23 1958.7,1104.9 1935.5,1071.5C 1935.37,1070.62 1935.7,1069.96 1936.5,1069.5C 1968.43,1087.28 2000.1,1104.61 2031.5,1121.5 Z"/></g>
<g><path style="opacity:0.027" fill="#24b6db" d="M 1262.5,1075.5 C 1275.5,1090 1288.33,1104.67 1301,1119.5C 1302.78,1121.79 1304.94,1123.46 1307.5,1124.5C 1307.07,1125.71 1306.4,1126.71 1305.5,1127.5C 1301.08,1125.59 1296.74,1123.43 1292.5,1121C 1281.67,1108.83 1270.83,1096.67 1260,1084.5C 1259.52,1083.55 1259.35,1082.55 1259.5,1081.5C 1259.99,1079.18 1260.99,1077.18 1262.5,1075.5 Z"/></g>
<g><path style="opacity:0.462" fill="#1186f5" d="M 556.5,1067.5 C 559.924,1076.34 564.424,1084.68 570,1092.5C 570,1091.17 570,1089.83 570,1088.5C 571.333,1090.5 572.667,1092.5 574,1094.5C 574,1093.17 574,1091.83 574,1090.5C 575.667,1093.17 577.333,1095.83 579,1098.5C 579.654,1099.7 580.154,1099.7 580.5,1098.5C 579.674,1097.55 579.508,1096.55 580,1095.5C 583,1099.5 586,1103.5 589,1107.5C 588.852,1106.18 589.018,1105.01 589.5,1104C 586.042,1097.58 582.209,1091.41 578,1085.5C 576.339,1080.43 577.005,1080.43 580,1085.5C 580.333,1084.83 580.667,1084.17 581,1083.5C 583.915,1086.63 586.582,1089.96 589,1093.5C 589.617,1092.55 589.451,1091.72 588.5,1091C 589.5,1090.33 590.5,1090.33 591.5,1091C 595.445,1094.95 598.611,1099.45 601,1104.5C 601.654,1105.7 602.154,1105.7 602.5,1104.5C 602.018,1100.9 602.685,1101.23 604.5,1105.5C 586.867,1120.13 570.534,1136.13 555.5,1153.5C 553.983,1153.49 552.816,1152.82 552,1151.5C 551.252,1149.67 550.252,1148 549,1146.5C 549,1147.83 549,1149.17 549,1150.5C 548,1149.17 547,1147.83 546,1146.5C 545.667,1147.17 545.333,1147.83 545,1148.5C 544,1147.17 543,1145.83 542,1144.5C 541.667,1145.17 541.333,1145.83 541,1146.5C 540,1145.17 539,1143.83 538,1142.5C 537.586,1142.96 537.086,1143.29 536.5,1143.5C 535.655,1141.24 534.322,1140.57 532.5,1141.5C 530.808,1139.64 529.308,1137.64 528,1135.5C 528.077,1136.74 527.911,1137.74 527.5,1138.5C 526.333,1136.83 525.167,1135.17 524,1133.5C 524.077,1134.74 523.911,1135.74 523.5,1136.5C 520.439,1134.13 517.106,1132.63 513.5,1132C 516.293,1136.42 518.959,1140.92 521.5,1145.5C 520.282,1145.11 519.448,1145.78 519,1147.5C 518,1146.17 517,1144.83 516,1143.5C 515.667,1144.17 515.333,1144.83 515,1145.5C 514,1144.17 513,1142.83 512,1141.5C 511.667,1142.17 511.333,1142.83 511,1143.5C 509.333,1141.17 507.667,1138.83 506,1136.5C 506,1137.83 506,1139.17 506,1140.5C 504.667,1138.5 503.333,1136.5 502,1134.5C 502,1135.83 502,1137.17 502,1138.5C 500.667,1136.5 499.333,1134.5 498,1132.5C 498.275,1136.41 497.442,1136.41 495.5,1132.5C 510.127,1111.36 527.127,1092.2 546.5,1075C 549.729,1072.26 553.062,1069.76 556.5,1067.5 Z"/></g>
<g><path style="opacity:0.024" fill="#29aaff" d="M 1259.5,1081.5 C 1259.35,1082.55 1259.52,1083.55 1260,1084.5C 1270.83,1096.67 1281.67,1108.83 1292.5,1121C 1296.74,1123.43 1301.08,1125.59 1305.5,1127.5C 1304.11,1131.95 1302.44,1136.28 1300.5,1140.5C 1285.17,1123.5 1269.83,1106.5 1254.5,1089.5C 1256.18,1086.8 1257.85,1084.13 1259.5,1081.5 Z"/></g>
<g><path style="opacity:0.02" fill="#3399ff" d="M 1254.5,1089.5 C 1269.83,1106.5 1285.17,1123.5 1300.5,1140.5C 1299.5,1143.17 1298.5,1145.83 1297.5,1148.5C 1282.17,1131.5 1266.83,1114.5 1251.5,1097.5C 1251.94,1094.62 1252.94,1091.95 1254.5,1089.5 Z"/></g>
<g><path style="opacity:0.016" fill="#3fbfff" d="M 1251.5,1097.5 C 1266.83,1114.5 1282.17,1131.5 1297.5,1148.5C 1296.68,1150.99 1295.68,1153.32 1294.5,1155.5C 1279.2,1138.2 1263.53,1121.2 1247.5,1104.5C 1248.6,1101.97 1249.93,1099.64 1251.5,1097.5 Z"/></g>
<g><path style="opacity:0.012" fill="#03aaff" d="M 1247.5,1104.5 C 1263.53,1121.2 1279.2,1138.2 1294.5,1155.5C 1294.07,1158.78 1293.07,1161.78 1291.5,1164.5C 1276.18,1146.51 1260.51,1128.84 1244.5,1111.5C 1245.69,1109.25 1246.69,1106.92 1247.5,1104.5 Z"/></g>
<g><path style="opacity:0.409" fill="#158cf2" d="M 756.5,1096.5 C 755.266,1107.12 754.599,1117.78 754.5,1128.5C 747.018,1132.16 739.851,1136.5 733,1141.5C 729.517,1138.86 725.684,1136.86 721.5,1135.5C 716.974,1137.93 712.64,1140.59 708.5,1143.5C 707.577,1144.3 706.577,1144.47 705.5,1144C 706.451,1143.28 706.617,1142.45 706,1141.5C 702.333,1144.17 698.667,1146.83 695,1149.5C 694.383,1148.55 694.549,1147.72 695.5,1147C 698.672,1145.25 701.672,1143.25 704.5,1141C 700.785,1142.11 697.285,1143.94 694,1146.5C 693.809,1144.29 693.309,1142.29 692.5,1140.5C 691.782,1115.85 693.448,1091.52 697.5,1067.5C 698.765,1068.48 700.099,1069.48 701.5,1070.5C 705.004,1068.58 708.337,1066.42 711.5,1064C 712.5,1063.33 713.5,1063.33 714.5,1064C 710.833,1066.33 707.167,1068.67 703.5,1071C 703.833,1071.33 704.167,1071.67 704.5,1072C 701.009,1073.43 698.509,1075.59 697,1078.5C 700,1076.5 703,1074.5 706,1072.5C 706.089,1074.11 705.255,1075.28 703.5,1076C 705.256,1076.14 706.922,1075.64 708.5,1074.5C 709.167,1074.83 709.833,1075.17 710.5,1075.5C 714.433,1073.29 718.266,1070.95 722,1068.5C 722.5,1068.67 723,1068.83 723.5,1069C 719.833,1071.33 716.167,1073.67 712.5,1076C 713.448,1076.48 714.448,1076.65 715.5,1076.5C 715.719,1077.68 715.386,1078.68 714.5,1079.5C 711.301,1081.86 707.968,1084.03 704.5,1086C 705,1086.17 705.5,1086.33 706,1086.5C 709.734,1084.05 713.567,1081.71 717.5,1079.5C 718.696,1079.85 718.696,1080.35 717.5,1081C 718.167,1081.67 718.833,1081.67 719.5,1081C 722.663,1078.58 725.996,1076.42 729.5,1074.5C 730.696,1074.85 730.696,1075.35 729.5,1076C 726.833,1077.67 724.167,1079.33 721.5,1081C 722,1081.17 722.5,1081.33 723,1081.5C 726.656,1079.18 730.323,1076.85 734,1074.5C 734.167,1074.83 734.333,1075.17 734.5,1075.5C 729.242,1078.63 724.575,1082.46 720.5,1087C 720.833,1087.17 721.167,1087.33 721.5,1087.5C 723.24,1085.79 725.24,1084.96 727.5,1085C 726.167,1086 724.833,1087 723.5,1088C 725.678,1088.17 727.511,1087.33 729,1085.5C 730.388,1086.55 731.888,1086.72 733.5,1086C 736.58,1083.71 739.747,1081.54 743,1079.5C 743.688,1080.33 743.521,1081 742.5,1081.5C 739.36,1083.47 736.36,1085.64 733.5,1088C 734.672,1088.42 735.672,1089.09 736.5,1090C 733.672,1092.25 730.672,1094.25 727.5,1096C 726.549,1096.72 726.383,1097.55 727,1098.5C 730.667,1095.83 734.333,1093.17 738,1090.5C 737.923,1091.74 738.089,1092.74 738.5,1093.5C 743.086,1090.62 747.586,1087.62 752,1084.5C 752.688,1085.33 752.521,1086 751.5,1086.5C 748.36,1088.47 745.36,1090.64 742.5,1093C 746.683,1090.74 751.016,1088.74 755.5,1087C 748.959,1091.46 742.626,1096.13 736.5,1101C 735.549,1101.72 735.383,1102.55 736,1103.5C 739.667,1100.83 743.333,1098.17 747,1095.5C 746.923,1096.74 747.089,1097.74 747.5,1098.5C 749.167,1097.17 750.833,1097.17 752.5,1098.5C 753.622,1097.37 754.956,1096.7 756.5,1096.5 Z"/></g>
<g><path style="opacity:0.008" fill="#0481ff" d="M 1244.5,1111.5 C 1260.51,1128.84 1276.18,1146.51 1291.5,1164.5C 1291.04,1167.22 1290.37,1169.89 1289.5,1172.5C 1273.87,1155.36 1258.37,1138.03 1243,1120.5C 1242.52,1119.55 1242.35,1118.55 1242.5,1117.5C 1242.97,1115.42 1243.64,1113.42 1244.5,1111.5 Z"/></g>
<g><path style="opacity:0.004" fill="#00fffe" d="M 1242.5,1117.5 C 1242.35,1118.55 1242.52,1119.55 1243,1120.5C 1258.37,1138.03 1273.87,1155.36 1289.5,1172.5C 1288.57,1175.45 1287.74,1178.45 1287,1181.5C 1271,1163.5 1255,1145.5 1239,1127.5C 1239.32,1123.87 1240.48,1120.54 1242.5,1117.5 Z"/></g>
<g><path style="opacity:0.374" fill="#148bf4" d="M 754.5,1128.5 C 754.251,1145.88 754.918,1163.21 756.5,1180.5C 751.03,1185.19 745.03,1188.69 738.5,1191C 742.334,1188.73 742.001,1188.07 737.5,1189C 741.833,1186 746.167,1183 750.5,1180C 749.377,1178.96 748.044,1178.29 746.5,1178C 749.991,1176.57 752.491,1174.41 754,1171.5C 747.398,1176.37 740.565,1180.54 733.5,1184C 736.557,1181.28 739.89,1178.94 743.5,1177C 744.696,1176.35 744.696,1175.85 743.5,1175.5C 742.549,1176.33 741.549,1176.49 740.5,1176C 744.5,1173.33 748.5,1170.67 752.5,1168C 752,1167.83 751.5,1167.67 751,1167.5C 743.926,1171.62 737.093,1176.12 730.5,1181C 729.5,1181.67 728.5,1181.67 727.5,1181C 731.167,1178.67 734.833,1176.33 738.5,1174C 737.5,1173.67 736.5,1173.33 735.5,1173C 736.696,1172.35 736.696,1171.85 735.5,1171.5C 727.995,1176.08 720.662,1180.92 713.5,1186C 712.833,1186.67 712.167,1186.67 711.5,1186C 722.782,1178.26 733.448,1170.6 743.5,1163C 742.5,1162.33 741.5,1162.33 740.5,1163C 737.42,1165.29 734.253,1167.46 731,1169.5C 730.312,1168.67 730.479,1168 731.5,1167.5C 734.699,1165.14 738.032,1162.97 741.5,1161C 740.5,1160.33 739.5,1160.33 738.5,1161C 731.42,1165.96 724.253,1170.79 717,1175.5C 715.992,1175.02 714.825,1174.85 713.5,1175C 714.833,1174.33 714.833,1173.67 713.5,1173C 718.167,1170 722.833,1167 727.5,1164C 726.5,1163.33 725.5,1163.33 724.5,1164C 720.333,1166.83 716.167,1169.67 712,1172.5C 711.228,1171.15 710.061,1170.32 708.5,1170C 712.167,1167.67 715.833,1165.33 719.5,1163C 718.5,1162.33 717.5,1162.33 716.5,1163C 713.249,1165.78 709.916,1167.61 706.5,1168.5C 713.061,1163.23 719.728,1158.07 726.5,1153C 722.487,1154.78 718.487,1156.94 714.5,1159.5C 714.167,1158.83 713.833,1158.17 713.5,1157.5C 712.549,1158.33 711.549,1158.49 710.5,1158C 714.344,1155.58 718.01,1152.91 721.5,1150C 713.518,1154.26 705.684,1159.09 698,1164.5C 697.312,1163.67 697.479,1163 698.5,1162.5C 703.303,1159.53 707.97,1156.36 712.5,1153C 711.451,1152.51 710.451,1152.67 709.5,1153.5C 707.167,1150.83 704.833,1150.83 702.5,1153.5C 701.354,1152.86 700.354,1152.02 699.5,1151C 702.328,1148.75 705.328,1146.75 708.5,1145C 709.738,1144.31 709.738,1143.81 708.5,1143.5C 712.64,1140.59 716.974,1137.93 721.5,1135.5C 725.684,1136.86 729.517,1138.86 733,1141.5C 739.851,1136.5 747.018,1132.16 754.5,1128.5 Z"/></g>
<g><path style="opacity:0.659" fill="#0e7ff6" d="M 555.5,1153.5 C 538.498,1175.83 524.831,1200.16 514.5,1226.5C 502.613,1220.89 490.947,1214.72 479.5,1208C 474.637,1200.32 469.637,1192.82 464.5,1185.5C 472.539,1166.41 482.872,1148.75 495.5,1132.5C 497.442,1136.41 498.275,1136.41 498,1132.5C 499.333,1134.5 500.667,1136.5 502,1138.5C 502,1137.17 502,1135.83 502,1134.5C 503.333,1136.5 504.667,1138.5 506,1140.5C 506,1139.17 506,1137.83 506,1136.5C 507.667,1138.83 509.333,1141.17 511,1143.5C 511.333,1142.83 511.667,1142.17 512,1141.5C 513,1142.83 514,1144.17 515,1145.5C 515.333,1144.83 515.667,1144.17 516,1143.5C 517,1144.83 518,1146.17 519,1147.5C 519.448,1145.78 520.282,1145.11 521.5,1145.5C 518.959,1140.92 516.293,1136.42 513.5,1132C 517.106,1132.63 520.439,1134.13 523.5,1136.5C 523.911,1135.74 524.077,1134.74 524,1133.5C 525.167,1135.17 526.333,1136.83 527.5,1138.5C 527.911,1137.74 528.077,1136.74 528,1135.5C 529.308,1137.64 530.808,1139.64 532.5,1141.5C 534.322,1140.57 535.655,1141.24 536.5,1143.5C 537.086,1143.29 537.586,1142.96 538,1142.5C 539,1143.83 540,1145.17 541,1146.5C 541.333,1145.83 541.667,1145.17 542,1144.5C 543,1145.83 544,1147.17 545,1148.5C 545.333,1147.83 545.667,1147.17 546,1146.5C 547,1147.83 548,1149.17 549,1150.5C 549,1149.17 549,1147.83 549,1146.5C 550.252,1148 551.252,1149.67 552,1151.5C 552.816,1152.82 553.983,1153.49 555.5,1153.5 Z"/></g>
<g><path style="opacity:0.991" fill="#2cb9e6" d="M 1986.5,1180.5 C 2009.43,1192.3 2032.1,1204.63 2054.5,1217.5C 2055.11,1217.38 2055.44,1217.04 2055.5,1216.5C 2057.85,1231.93 2058.85,1247.59 2058.5,1263.5C 2038.57,1253.2 2018.9,1242.37 1999.5,1231C 1997.98,1229.99 1996.31,1229.49 1994.5,1229.5C 1993.02,1212.97 1990.36,1196.63 1986.5,1180.5 Z"/></g>
<g><path style="opacity:0.852" fill="#0b7af8" d="M 464.5,1185.5 C 469.637,1192.82 474.637,1200.32 479.5,1208C 490.947,1214.72 502.613,1220.89 514.5,1226.5C 505.145,1249.94 499.478,1274.27 497.5,1299.5C 496.209,1299.74 495.209,1299.4 494.5,1298.5C 479.941,1273.72 465.107,1249.06 450,1224.5C 449.617,1225.06 449.117,1225.39 448.5,1225.5C 452.484,1211.53 457.817,1198.2 464.5,1185.5 Z"/></g>
<g><path style="opacity:0.188" fill="#1186f4" d="M 692.5,1140.5 C 693.309,1142.29 693.809,1144.29 694,1146.5C 697.285,1143.94 700.785,1142.11 704.5,1141C 701.672,1143.25 698.672,1145.25 695.5,1147C 694.549,1147.72 694.383,1148.55 695,1149.5C 698.667,1146.83 702.333,1144.17 706,1141.5C 706.617,1142.45 706.451,1143.28 705.5,1144C 706.577,1144.47 707.577,1144.3 708.5,1143.5C 709.738,1143.81 709.738,1144.31 708.5,1145C 705.328,1146.75 702.328,1148.75 699.5,1151C 700.354,1152.02 701.354,1152.86 702.5,1153.5C 704.833,1150.83 707.167,1150.83 709.5,1153.5C 710.451,1152.67 711.451,1152.51 712.5,1153C 707.97,1156.36 703.303,1159.53 698.5,1162.5C 697.479,1163 697.312,1163.67 698,1164.5C 705.684,1159.09 713.518,1154.26 721.5,1150C 718.01,1152.91 714.344,1155.58 710.5,1158C 711.549,1158.49 712.549,1158.33 713.5,1157.5C 713.833,1158.17 714.167,1158.83 714.5,1159.5C 718.487,1156.94 722.487,1154.78 726.5,1153C 719.728,1158.07 713.061,1163.23 706.5,1168.5C 709.916,1167.61 713.249,1165.78 716.5,1163C 717.5,1162.33 718.5,1162.33 719.5,1163C 715.833,1165.33 712.167,1167.67 708.5,1170C 710.061,1170.32 711.228,1171.15 712,1172.5C 716.167,1169.67 720.333,1166.83 724.5,1164C 725.5,1163.33 726.5,1163.33 727.5,1164C 722.833,1167 718.167,1170 713.5,1173C 714.833,1173.67 714.833,1174.33 713.5,1175C 714.825,1174.85 715.992,1175.02 717,1175.5C 724.253,1170.79 731.42,1165.96 738.5,1161C 739.5,1160.33 740.5,1160.33 741.5,1161C 738.032,1162.97 734.699,1165.14 731.5,1167.5C 730.479,1168 730.312,1168.67 731,1169.5C 734.253,1167.46 737.42,1165.29 740.5,1163C 741.5,1162.33 742.5,1162.33 743.5,1163C 733.448,1170.6 722.782,1178.26 711.5,1186C 712.167,1186.67 712.833,1186.67 713.5,1186C 720.662,1180.92 727.995,1176.08 735.5,1171.5C 736.696,1171.85 736.696,1172.35 735.5,1173C 736.5,1173.33 737.5,1173.67 738.5,1174C 734.833,1176.33 731.167,1178.67 727.5,1181C 728.5,1181.67 729.5,1181.67 730.5,1181C 737.093,1176.12 743.926,1171.62 751,1167.5C 751.5,1167.67 752,1167.83 752.5,1168C 748.5,1170.67 744.5,1173.33 740.5,1176C 741.549,1176.49 742.549,1176.33 743.5,1175.5C 744.696,1175.85 744.696,1176.35 743.5,1177C 739.89,1178.94 736.557,1181.28 733.5,1184C 740.565,1180.54 747.398,1176.37 754,1171.5C 752.491,1174.41 749.991,1176.57 746.5,1178C 748.044,1178.29 749.377,1178.96 750.5,1180C 746.167,1183 741.833,1186 737.5,1189C 742.001,1188.07 742.334,1188.73 738.5,1191C 745.03,1188.69 751.03,1185.19 756.5,1180.5C 758.537,1200.72 761.87,1220.72 766.5,1240.5C 765.883,1240.39 765.383,1240.06 765,1239.5C 753.051,1247.89 740.885,1255.89 728.5,1263.5C 726.431,1263.18 726.098,1262.34 727.5,1261C 735.167,1256 742.833,1251 750.5,1246C 748.586,1244.17 746.586,1244.17 744.5,1246C 737.338,1251.08 730.005,1255.92 722.5,1260.5C 721.5,1260 720.5,1259.5 719.5,1259C 728.007,1253.58 736.34,1247.91 744.5,1242C 742.5,1241 740.5,1240 738.5,1239C 741.672,1237.25 744.672,1235.25 747.5,1233C 746.241,1232.02 744.908,1231.68 743.5,1232C 732.402,1239.3 721.235,1246.46 710,1253.5C 708.941,1253.37 708.108,1252.87 707.5,1252C 718.833,1244.67 730.167,1237.33 741.5,1230C 738.725,1228.35 736.058,1228.68 733.5,1231C 724.42,1237.29 715.253,1243.46 706,1249.5C 705.219,1248.06 705.386,1246.72 706.5,1245.5C 712.167,1241.67 717.833,1237.83 723.5,1234C 722.407,1232.63 721.074,1232.3 719.5,1233C 714.563,1236.96 709.229,1240.13 703.5,1242.5C 695.886,1208.97 692.219,1174.97 692.5,1140.5 Z"/></g>
<g><path style="opacity:0.934" fill="#0a77f9" d="M 494.5,1298.5 C 488.787,1295.89 483.287,1292.89 478,1289.5C 477.667,1290.17 477.333,1290.83 477,1291.5C 475.954,1289.91 474.787,1288.41 473.5,1287C 462.096,1280.3 450.429,1274.13 438.5,1268.5C 440.737,1253.89 444.071,1239.55 448.5,1225.5C 449.117,1225.39 449.617,1225.06 450,1224.5C 465.107,1249.06 479.941,1273.72 494.5,1298.5 Z"/></g>
<g><path style="opacity:0.992" fill="#2ab6e7" d="M 1994.5,1229.5 C 1996.31,1229.49 1997.98,1229.99 1999.5,1231C 2018.9,1242.37 2038.57,1253.2 2058.5,1263.5C 2058.81,1278.4 2057.81,1293.07 2055.5,1307.5C 2035.7,1297.1 2016.03,1286.43 1996.5,1275.5C 1996.84,1260.06 1996.17,1244.73 1994.5,1229.5 Z"/></g>
<g><path style="opacity:0.138" fill="#0f82f5" d="M 766.5,1240.5 C 772.565,1264.36 780.231,1287.69 789.5,1310.5C 788.883,1310.39 788.383,1310.06 788,1309.5C 780.223,1314.64 772.39,1319.64 764.5,1324.5C 763.417,1324.46 762.417,1324.13 761.5,1323.5C 755.167,1327.5 748.833,1331.5 742.5,1335.5C 740.5,1334.5 738.5,1333.5 736.5,1332.5C 735.378,1333.63 734.044,1334.3 732.5,1334.5C 720.024,1304.74 710.358,1274.07 703.5,1242.5C 709.229,1240.13 714.563,1236.96 719.5,1233C 721.074,1232.3 722.407,1232.63 723.5,1234C 717.833,1237.83 712.167,1241.67 706.5,1245.5C 705.386,1246.72 705.219,1248.06 706,1249.5C 715.253,1243.46 724.42,1237.29 733.5,1231C 736.058,1228.68 738.725,1228.35 741.5,1230C 730.167,1237.33 718.833,1244.67 707.5,1252C 708.108,1252.87 708.941,1253.37 710,1253.5C 721.235,1246.46 732.402,1239.3 743.5,1232C 744.908,1231.68 746.241,1232.02 747.5,1233C 744.672,1235.25 741.672,1237.25 738.5,1239C 740.5,1240 742.5,1241 744.5,1242C 736.34,1247.91 728.007,1253.58 719.5,1259C 720.5,1259.5 721.5,1260 722.5,1260.5C 730.005,1255.92 737.338,1251.08 744.5,1246C 746.586,1244.17 748.586,1244.17 750.5,1246C 742.833,1251 735.167,1256 727.5,1261C 726.098,1262.34 726.431,1263.18 728.5,1263.5C 740.885,1255.89 753.051,1247.89 765,1239.5C 765.383,1240.06 765.883,1240.39 766.5,1240.5 Z"/></g>
<g><path style="opacity:0.978" fill="#0873fa" d="M 438.5,1268.5 C 450.429,1274.13 462.096,1280.3 473.5,1287C 474.787,1288.41 475.954,1289.91 477,1291.5C 477.333,1290.83 477.667,1290.17 478,1289.5C 483.287,1292.89 488.787,1295.89 494.5,1298.5C 495.209,1299.4 496.209,1299.74 497.5,1299.5C 495.563,1328.84 497.896,1357.84 504.5,1386.5C 482.033,1374.43 459.7,1362.1 437.5,1349.5C 436.817,1349.86 436.15,1350.2 435.5,1350.5C 433.48,1323.03 434.48,1295.69 438.5,1268.5 Z"/></g>
<g><path style="opacity:0.989" fill="#28b1e8" d="M 1996.5,1275.5 C 2016.03,1286.43 2035.7,1297.1 2055.5,1307.5C 2052.49,1334.55 2046.49,1360.88 2037.5,1386.5C 2018.97,1376.4 2000.64,1366.07 1982.5,1355.5C 1989.97,1329.34 1994.64,1302.67 1996.5,1275.5 Z"/></g>
<g><path style="opacity:0.047" fill="#1682ff" d="M 789.5,1310.5 C 791.403,1313.98 793.07,1317.65 794.5,1321.5C 794.489,1323.02 793.823,1324.18 792.5,1325C 788.258,1327.61 784.258,1330.44 780.5,1333.5C 767.999,1340.92 755.665,1348.58 743.5,1356.5C 742.599,1355.71 741.932,1354.71 741.5,1353.5C 742.552,1353.65 743.552,1353.48 744.5,1353C 754.896,1345.61 765.563,1338.61 776.5,1332C 773.761,1330.33 771.095,1330.66 768.5,1333C 759.571,1339.62 750.237,1345.46 740.5,1350.5C 738.707,1348.57 737.707,1346.24 737.5,1343.5C 746.325,1336.92 755.325,1330.59 764.5,1324.5C 772.39,1319.64 780.223,1314.64 788,1309.5C 788.383,1310.06 788.883,1310.39 789.5,1310.5 Z"/></g>
<g><path style="opacity:0.059" fill="#1177ff" d="M 764.5,1324.5 C 755.325,1330.59 746.325,1336.92 737.5,1343.5C 735.595,1340.7 733.929,1337.7 732.5,1334.5C 734.044,1334.3 735.378,1333.63 736.5,1332.5C 738.5,1333.5 740.5,1334.5 742.5,1335.5C 748.833,1331.5 755.167,1327.5 761.5,1323.5C 762.417,1324.13 763.417,1324.46 764.5,1324.5 Z"/></g>
<g><path style="opacity:0.035" fill="#1a92ff" d="M 794.5,1321.5 C 795.401,1322.29 796.068,1323.29 796.5,1324.5C 792.584,1328.8 787.918,1332.13 782.5,1334.5C 781.508,1334.67 780.842,1334.34 780.5,1333.5C 784.258,1330.44 788.258,1327.61 792.5,1325C 793.823,1324.18 794.489,1323.02 794.5,1321.5 Z"/></g>
<g><path style="opacity:0.031" fill="#0180ff" d="M 796.5,1324.5 C 797.363,1326.42 798.029,1328.42 798.5,1330.5C 797.883,1330.39 797.383,1330.06 797,1329.5C 793.342,1332.07 789.842,1334.73 786.5,1337.5C 773.167,1345.83 759.833,1354.17 746.5,1362.5C 745.599,1361.71 744.932,1360.71 744.5,1359.5C 757.517,1351.66 770.184,1343.33 782.5,1334.5C 787.918,1332.13 792.584,1328.8 796.5,1324.5 Z"/></g>
<g><path style="opacity:0.051" fill="#1475ff" d="M 766.5,1326.5 C 768.645,1326.92 769.312,1327.92 768.5,1329.5C 759.236,1336.29 749.569,1342.29 739.5,1347.5C 739.281,1346.32 739.614,1345.32 740.5,1344.5C 749.483,1338.83 758.15,1332.83 766.5,1326.5 Z"/></g>
<g><path style="opacity:0.027" fill="#0091ff" d="M 798.5,1330.5 C 800.008,1332.18 801.008,1334.18 801.5,1336.5C 798.605,1337.4 795.938,1338.73 793.5,1340.5C 791.046,1339.77 788.713,1338.77 786.5,1337.5C 789.842,1334.73 793.342,1332.07 797,1329.5C 797.383,1330.06 797.883,1330.39 798.5,1330.5 Z"/></g>
<g><path style="opacity:0.043" fill="#1673ff" d="M 741.5,1353.5 C 740.89,1352.61 740.557,1351.61 740.5,1350.5C 750.237,1345.46 759.571,1339.62 768.5,1333C 771.095,1330.66 773.761,1330.33 776.5,1332C 765.563,1338.61 754.896,1345.61 744.5,1353C 743.552,1353.48 742.552,1353.65 741.5,1353.5 Z"/></g>
<g><path style="opacity:0.035" fill="#0071ff" d="M 780.5,1333.5 C 780.842,1334.34 781.508,1334.67 782.5,1334.5C 770.184,1343.33 757.517,1351.66 744.5,1359.5C 743.89,1358.61 743.557,1357.61 743.5,1356.5C 755.665,1348.58 767.999,1340.92 780.5,1333.5 Z"/></g>
<g><path style="opacity:0.023" fill="#017fff" d="M 801.5,1336.5 C 802.737,1337.96 803.737,1339.63 804.5,1341.5C 803.167,1342.5 801.833,1343.5 800.5,1344.5C 785.653,1354.5 770.653,1364.34 755.5,1374C 754.663,1375.01 754.33,1376.18 754.5,1377.5C 752.076,1374.99 750.41,1371.99 749.5,1368.5C 750.552,1368.65 751.552,1368.48 752.5,1368C 766.232,1358.81 779.899,1349.64 793.5,1340.5C 795.938,1338.73 798.605,1337.4 801.5,1336.5 Z"/></g>
<g><path style="opacity:0.027" fill="#016cff" d="M 786.5,1337.5 C 788.713,1338.77 791.046,1339.77 793.5,1340.5C 779.899,1349.64 766.232,1358.81 752.5,1368C 751.552,1368.48 750.552,1368.65 749.5,1368.5C 747.992,1366.82 746.992,1364.82 746.5,1362.5C 759.833,1354.17 773.167,1345.83 786.5,1337.5 Z"/></g>
<g><path style="opacity:0.02" fill="#0fa1ff" d="M 804.5,1341.5 C 806.358,1343.88 807.692,1346.55 808.5,1349.5C 807.833,1349.17 807.167,1348.83 806.5,1348.5C 804.205,1347.53 802.205,1346.19 800.5,1344.5C 801.833,1343.5 803.167,1342.5 804.5,1341.5 Z"/></g>
<g><path style="opacity:0.02" fill="#0065ff" d="M 800.5,1344.5 C 802.205,1346.19 804.205,1347.53 806.5,1348.5C 790.184,1359.99 773.518,1370.99 756.5,1381.5C 755.326,1380.49 754.66,1379.15 754.5,1377.5C 754.33,1376.18 754.663,1375.01 755.5,1374C 770.653,1364.34 785.653,1354.5 800.5,1344.5 Z"/></g>
<g><path style="opacity:0.016" fill="#027eff" d="M 806.5,1348.5 C 807.167,1348.83 807.833,1349.17 808.5,1349.5C 809.737,1350.96 810.737,1352.63 811.5,1354.5C 797.049,1363.78 782.715,1373.28 768.5,1383C 765.589,1384.76 762.589,1386.26 759.5,1387.5C 758.471,1385.48 757.471,1383.48 756.5,1381.5C 773.518,1370.99 790.184,1359.99 806.5,1348.5 Z"/></g>
<g><path style="opacity:0.99" fill="#046dfc" d="M 504.5,1386.5 C 516.63,1430.1 537.63,1468.77 567.5,1502.5C 567.44,1503.04 567.107,1503.38 566.5,1503.5C 530.473,1483.49 494.473,1463.49 458.5,1443.5C 446,1413.83 438.333,1382.83 435.5,1350.5C 436.15,1350.2 436.817,1349.86 437.5,1349.5C 459.7,1362.1 482.033,1374.43 504.5,1386.5 Z"/></g>
<g><path style="opacity:0.012" fill="#0154ff" d="M 811.5,1354.5 C 813.071,1356.64 814.404,1358.97 815.5,1361.5C 814.448,1361.35 813.448,1361.52 812.5,1362C 796.45,1373.02 780.116,1383.52 763.5,1393.5C 762.18,1391.54 760.846,1389.54 759.5,1387.5C 762.589,1386.26 765.589,1384.76 768.5,1383C 782.715,1373.28 797.049,1363.78 811.5,1354.5 Z"/></g>
<g><path style="opacity:0.008" fill="#027eff" d="M 815.5,1361.5 C 816.6,1362.6 817.267,1363.94 817.5,1365.5C 817.586,1366.5 817.252,1367.33 816.5,1368C 800.635,1378.7 784.635,1389.2 768.5,1399.5C 767.817,1399.14 767.15,1398.8 766.5,1398.5C 765.11,1397.1 764.11,1395.43 763.5,1393.5C 780.116,1383.52 796.45,1373.02 812.5,1362C 813.448,1361.52 814.448,1361.35 815.5,1361.5 Z"/></g>
<g><path style="opacity:0.004" fill="#0000ff" d="M 817.5,1365.5 C 819.268,1367.51 820.934,1369.67 822.5,1372C 805.419,1383.62 788.253,1395.12 771,1406.5C 769.223,1403.94 767.723,1401.27 766.5,1398.5C 767.15,1398.8 767.817,1399.14 768.5,1399.5C 784.635,1389.2 800.635,1378.7 816.5,1368C 817.252,1367.33 817.586,1366.5 817.5,1365.5 Z"/></g>
<g><path style="opacity:0.992" fill="#24abea" d="M 1982.5,1355.5 C 2000.64,1366.07 2018.97,1376.4 2037.5,1386.5C 2029.42,1409.08 2019.42,1430.75 2007.5,1451.5C 1989.05,1442.11 1970.72,1432.44 1952.5,1422.5C 1964.45,1400.95 1974.45,1378.62 1982.5,1355.5 Z"/></g>
<g><path style="opacity:0.991" fill="#21a5ec" d="M 1952.5,1422.5 C 1970.72,1432.44 1989.05,1442.11 2007.5,1451.5C 1995.7,1472.79 1981.7,1492.45 1965.5,1510.5C 1946.83,1500.83 1928.17,1491.17 1909.5,1481.5C 1925.77,1463.23 1940.1,1443.57 1952.5,1422.5 Z"/></g>
<g><path style="opacity:0.986" fill="#0267fd" d="M 458.5,1443.5 C 494.473,1463.49 530.473,1483.49 566.5,1503.5C 567.107,1503.38 567.44,1503.04 567.5,1502.5C 612.343,1550.27 667.01,1580.93 731.5,1594.5C 767.666,1615.14 803.999,1635.64 840.5,1656C 849.676,1656.17 858.676,1656.67 867.5,1657.5C 833.498,1657.67 799.498,1657.5 765.5,1657C 670.716,1649.85 590.216,1612.68 524,1545.5C 495.886,1515.62 474.052,1481.62 458.5,1443.5 Z"/></g>
<g><path style="opacity:0.994" fill="#1fa1ed" d="M 1909.5,1481.5 C 1928.17,1491.17 1946.83,1500.83 1965.5,1510.5C 1959.84,1517.49 1953.84,1524.16 1947.5,1530.5C 1946.13,1530.66 1944.79,1530.49 1943.5,1530C 1926.5,1520.5 1909.5,1511 1892.5,1501.5C 1891.7,1501.04 1891.37,1500.38 1891.5,1499.5C 1897.14,1493.19 1903.14,1487.19 1909.5,1481.5 Z"/></g>
<g><path style="opacity:0.993" fill="#1e9eee" d="M 1891.5,1499.5 C 1891.37,1500.38 1891.7,1501.04 1892.5,1501.5C 1909.5,1511 1926.5,1520.5 1943.5,1530C 1944.79,1530.49 1946.13,1530.66 1947.5,1530.5C 1936.11,1542.56 1923.78,1553.56 1910.5,1563.5C 1891.5,1552.83 1872.5,1542.17 1853.5,1531.5C 1866.43,1521.24 1879.1,1510.57 1891.5,1499.5 Z"/></g>
<g><path style="opacity:0.991" fill="#1b98ef" d="M 1853.5,1531.5 C 1872.5,1542.17 1891.5,1552.83 1910.5,1563.5C 1886.2,1583.67 1859.53,1600.33 1830.5,1613.5C 1828.35,1613.63 1826.35,1613.13 1824.5,1612C 1804.1,1600.47 1783.77,1588.97 1763.5,1577.5C 1795.61,1566.01 1825.61,1550.67 1853.5,1531.5 Z"/></g>
<g><path style="opacity:0.991" fill="#1994f1" d="M 1763.5,1577.5 C 1783.77,1588.97 1804.1,1600.47 1824.5,1612C 1826.35,1613.13 1828.35,1613.63 1830.5,1613.5C 1820.35,1618.41 1810.02,1623.07 1799.5,1627.5C 1799.59,1626.5 1799.25,1625.67 1798.5,1625C 1775.78,1612.98 1753.45,1600.48 1731.5,1587.5C 1742.37,1584.77 1753.03,1581.43 1763.5,1577.5 Z"/></g>
<g><path style="opacity:0.992" fill="#1791f1" d="M 1731.5,1587.5 C 1753.45,1600.48 1775.78,1612.98 1798.5,1625C 1799.25,1625.67 1799.59,1626.5 1799.5,1627.5C 1778.67,1635.44 1757.34,1641.78 1735.5,1646.5C 1735.59,1645.5 1735.25,1644.67 1734.5,1644C 1707.61,1629.39 1680.94,1614.56 1654.5,1599.5C 1680.57,1597.99 1706.24,1593.99 1731.5,1587.5 Z"/></g>
<g><path style="opacity:0.988" fill="#056dfc" d="M 731.5,1594.5 C 744.139,1596.16 756.806,1597.66 769.5,1599C 817.499,1599.5 865.499,1599.67 913.5,1599.5C 906.655,1600.17 899.655,1600.83 892.5,1601.5C 925.465,1620.48 958.465,1639.14 991.5,1657.5C 950.167,1657.5 908.833,1657.5 867.5,1657.5C 858.676,1656.67 849.676,1656.17 840.5,1656C 803.999,1635.64 767.666,1615.14 731.5,1594.5 Z"/></g>
<g><path style="opacity:0.986" fill="#0873fa" d="M 913.5,1599.5 C 946.5,1599.5 979.5,1599.5 1012.5,1599.5C 1020.99,1600.33 1029.66,1600.83 1038.5,1601C 1071.5,1619.33 1104.5,1637.67 1137.5,1656C 1113.33,1656.17 1089.33,1656.67 1065.5,1657.5C 1040.83,1657.5 1016.17,1657.5 991.5,1657.5C 958.465,1639.14 925.465,1620.48 892.5,1601.5C 899.655,1600.83 906.655,1600.17 913.5,1599.5 Z"/></g>
<g><path style="opacity:0.96" fill="#0a76f9" d="M 1012.5,1599.5 C 1024.17,1599.5 1035.83,1599.5 1047.5,1599.5C 1081.1,1618.31 1114.77,1637.14 1148.5,1656C 1154.02,1656.17 1159.35,1656.67 1164.5,1657.5C 1131.5,1657.5 1098.5,1657.5 1065.5,1657.5C 1089.33,1656.67 1113.33,1656.17 1137.5,1656C 1104.5,1637.67 1071.5,1619.33 1038.5,1601C 1029.66,1600.83 1020.99,1600.33 1012.5,1599.5 Z"/></g>
<g><path style="opacity:0.976" fill="#0b79f8" d="M 1047.5,1599.5 C 1101.5,1599.5 1155.5,1599.5 1209.5,1599.5C 1202.01,1600.33 1194.34,1600.83 1186.5,1601C 1219.66,1619.08 1252.66,1637.41 1285.5,1656C 1283.62,1656.2 1281.95,1656.7 1280.5,1657.5C 1241.83,1657.5 1203.17,1657.5 1164.5,1657.5C 1159.35,1656.67 1154.02,1656.17 1148.5,1656C 1114.77,1637.14 1081.1,1618.31 1047.5,1599.5 Z"/></g>
<g><path style="opacity:0.979" fill="#0e80f6" d="M 1209.5,1599.5 C 1269.17,1599.5 1328.83,1599.5 1388.5,1599.5C 1379.34,1600.33 1370.01,1600.83 1360.5,1601C 1393.34,1619.59 1426.34,1637.92 1459.5,1656C 1451.66,1656.17 1443.99,1656.67 1436.5,1657.5C 1384.5,1657.5 1332.5,1657.5 1280.5,1657.5C 1281.95,1656.7 1283.62,1656.2 1285.5,1656C 1252.66,1637.41 1219.66,1619.08 1186.5,1601C 1194.34,1600.83 1202.01,1600.33 1209.5,1599.5 Z"/></g>
<g><path style="opacity:0.976" fill="#158df2" d="M 1506.5,1599.5 C 1555.83,1599.5 1605.17,1599.5 1654.5,1599.5C 1680.94,1614.56 1707.61,1629.39 1734.5,1644C 1735.25,1644.67 1735.59,1645.5 1735.5,1646.5C 1710.46,1652.22 1685.13,1655.89 1659.5,1657.5C 1659.06,1655.93 1658.06,1654.76 1656.5,1654C 1624.5,1636.33 1592.5,1618.67 1560.5,1601C 1542.33,1600.83 1524.33,1600.33 1506.5,1599.5 Z"/></g>
<g><path style="opacity:0.997" fill="#1185f5" d="M 1388.5,1599.5 C 1394.83,1599.5 1401.17,1599.5 1407.5,1599.5C 1427.33,1600.33 1447.33,1600.83 1467.5,1601C 1500.5,1619.33 1533.5,1637.67 1566.5,1656C 1541.33,1656.17 1516.33,1656.67 1491.5,1657.5C 1473.17,1657.5 1454.83,1657.5 1436.5,1657.5C 1443.99,1656.67 1451.66,1656.17 1459.5,1656C 1426.34,1637.92 1393.34,1619.59 1360.5,1601C 1370.01,1600.83 1379.34,1600.33 1388.5,1599.5 Z"/></g>
<g><path style="opacity:0.996" fill="#1389f4" d="M 1407.5,1599.5 C 1440.5,1599.5 1473.5,1599.5 1506.5,1599.5C 1524.33,1600.33 1542.33,1600.83 1560.5,1601C 1592.5,1618.67 1624.5,1636.33 1656.5,1654C 1658.06,1654.76 1659.06,1655.93 1659.5,1657.5C 1603.5,1657.5 1547.5,1657.5 1491.5,1657.5C 1516.33,1656.67 1541.33,1656.17 1566.5,1656C 1533.5,1637.67 1500.5,1619.33 1467.5,1601C 1447.33,1600.83 1427.33,1600.33 1407.5,1599.5 Z"/></g>
</svg>
