<svg id="Layer_1" data-name="Layer 1" xmlns="http://www.w3.org/2000/svg" viewBox="0 0 100 75"><defs><style>.cls-1{fill:#1ebbee;}</style></defs><path class="cls-1" d="M78,39.3a26.19,26.19,0,0,0-3.2-12.51C83.55,7.1,65.46,10,64.39,10a46.7,46.7,0,0,0-10.64,3.45c-12.24-.14-22.88,6.39-26.34,20C33.79,26.26,38.32,23.33,41,22.27c-.56.5-1.12,1-1.68,1.57a77.86,77.86,0,0,0-10.64,13c-2.27,4-4.79,7.45-6.12,12C15.35,74.93,38,64,41.16,62.16a25.39,25.39,0,0,0,11.45,2.63,25.73,25.73,0,0,0,24.21-17H63.25c-6.39,10.11-21.55,5.59-22.09-5.32H77.89a27.55,27.55,0,0,0,.21-3.2ZM73.18,14c2.2,1.49,4,3.72.93,11.71A24,24,0,0,0,61.6,15.35C64,14.2,69.85,11.89,73.31,14ZM26.08,62.18C24.27,60.35,24,55.8,27.94,47.55A25.2,25.2,0,0,0,39.11,61.12c-2.58,1.41-9.31,4.52-13,.88ZM41,35.57c.2-5.85,5.32-10.64,11.71-10.64a11.45,11.45,0,0,1,11.7,10.64H41Z"/></svg>