<svg id="Layer_1" data-name="Layer 1" xmlns="http://www.w3.org/2000/svg" viewBox="0 0 100 75"><path d="M58.59,40.91a7,7,0,0,0-5.28,2.4L50,41a9,9,0,0,0,.56-3.09,9.27,9.27,0,0,0-.54-3l3.3-2.32a7,7,0,1,0-1.77-4.65,7.44,7.44,0,0,0,.29,2l-3.3,2.32a9.14,9.14,0,0,0-5.63-3.28v-4a7,7,0,1,0-3,0v4.05A9.07,9.07,0,0,0,40,46.83v4.26a7,7,0,1,0,3,0V46.83a9.07,9.07,0,0,0,5.54-3.22L51.84,46a7,7,0,0,0-.29,2,7,7,0,1,0,7-7Zm0-16.46a3.41,3.41,0,1,1-3.41,3.41A3.41,3.41,0,0,1,58.59,24.45ZM38.05,18a3.41,3.41,0,1,1,3.41,3.41A3.42,3.42,0,0,1,38.05,18ZM44.87,58a3.42,3.42,0,1,1-3.41-3.42A3.41,3.41,0,0,1,44.87,58ZM41.46,42.64a4.76,4.76,0,1,1,4.76-4.76A4.76,4.76,0,0,1,41.46,42.64Zm17.13,8.73A3.42,3.42,0,1,1,62,48,3.42,3.42,0,0,1,58.59,51.37Z"/></svg>