<svg id="Layer_1" data-name="Layer 1" xmlns="http://www.w3.org/2000/svg" viewBox="0 0 100 75"><defs><style>.cls-1{fill-rule:evenodd;}</style></defs><g id="svgg"><path id="path0" class="cls-1" d="M60.58,8.8a16.47,16.47,0,0,1-3.38.85,8.85,8.85,0,0,0-2.21.48c-1.14.41-1.45.37-2.75-.38-1.88-1.08-1.75-1.1-4.12.68l-2,1.52L44.8,10.62c-1.79-1.84-2.09-1.71-2,.86a8,8,0,0,1-1.1,4.64A28.67,28.67,0,0,0,39.5,28.79c.36,5.49-1,5.27-4.21-.7-1-1.87-2.6-3-5.8-4a6.42,6.42,0,0,1-2.58-2A4,4,0,0,0,25,20.65a2.28,2.28,0,0,1-1.37-.76c-1.07-1.18-1.29-.92-1.21,1.41l.07,2.17L19.68,25l-2.84,1.53v4.64L13.34,35c-4.07,4.45-4.23,5-1.63,5a3.47,3.47,0,0,1,1.64.76c1.15.9,2,1,2.31.17A6.07,6.07,0,0,1,18,39.36c7.8-3.45,11.34,1.52,9.53,13.38L27,56.24H70.87l-.24-1.42C68.44,41.5,74.94,33,82.78,39c1.54,1.18,2.26,1.18,4,0,2-1.36,1.9-1.58-3.41-7.36-1.93-2.1-2-2.21-1.75-3.89L81.87,26l-2.6-1.52C75,22,75.2,22.23,76.09,20.38c1.27-2.63,1.25-2.65-1.82-1.77-2.41.69-3.37,1.37-3.54,2.52-.09.61-.56.89-2,1.21-4.48,1-7.07,3.21-8.73,7.43C58.94,32.45,57.36,35,56.77,35c-.21,0-1.36-2-2.55-4.43-4.15-8.5-2.6-13,5.87-17,2.94-1.4,3.3-1.91,3.07-4.37L63,8l-2.46.84M50.35,12c0,.87-2.33,2.65-2.88,2.19-1.13-.93-.45-1.56,2.79-2.58.05,0,.09.16.09.39M76.57,25.36c1.36,1.7,1.36,2.2,0,1.69-1.71-.65-2.41-1.46-2-2.29s.77-.9,2,.6M23,26.78c.12.67-1.64,1.82-2.79,1.82-.49,0-.39-.28.46-1.31,1.13-1.36,2.12-1.58,2.33-.51"/></g><rect x="26.46" y="65.13" width="45.13" height="2.21"/><path d="M27.19,58.09h1.1v2.79h0c.15-.23.3-.45.45-.65l1.59-2.14h1.36l-2.09,2.58,2.23,3.49h-1.3l-1.72-2.78-.54.65v2.13h-1.1Z"/><path d="M36.3,61.46H34v1.78h2.55v.92H32.91V58.09h3.53V59H34v1.56H36.3Z"/><path d="M38,58.17A9.63,9.63,0,0,1,39.71,58a2.83,2.83,0,0,1,1.87.49,1.55,1.55,0,0,1,.52,1.22A1.6,1.6,0,0,1,41,61.26v0a1.57,1.57,0,0,1,.85,1.17,13.89,13.89,0,0,0,.47,1.7H41.19a7.5,7.5,0,0,1-.41-1.44c-.18-.79-.46-1-1.09-1.06h-.56v2.5H38Zm1.1,2.68h.65c.76,0,1.22-.4,1.22-1s-.47-1-1.18-1a3.9,3.9,0,0,0-.69,0Z"/><path d="M43.63,58.17A9.61,9.61,0,0,1,45.25,58a3,3,0,0,1,1.74.39,1.3,1.3,0,0,1,.62,1.14,1.42,1.42,0,0,1-1,1.31v0a1.53,1.53,0,0,1,1.23,1.5,1.61,1.61,0,0,1-.58,1.26,3.42,3.42,0,0,1-2.25.55,13,13,0,0,1-1.37-.07Zm1.1,2.4h.57c.77,0,1.2-.36,1.2-.88s-.44-.83-1.13-.83a2.81,2.81,0,0,0-.64,0Zm0,2.78a3.22,3.22,0,0,0,.59,0c.71,0,1.35-.26,1.35-1s-.63-1-1.39-1h-.55Z"/><path d="M52.7,61.46H50.41v1.78H53v.92H49.3V58.09h3.53V59H50.41v1.56H52.7Z"/><path d="M54.42,58.17A9.71,9.71,0,0,1,56.1,58a2.83,2.83,0,0,1,1.87.49,1.51,1.51,0,0,1,.52,1.22,1.6,1.6,0,0,1-1.1,1.51v0a1.55,1.55,0,0,1,.85,1.17,11.87,11.87,0,0,0,.48,1.7H57.58a7.5,7.5,0,0,1-.41-1.44c-.18-.79-.46-1-1.09-1.06h-.56v2.5h-1.1Zm1.1,2.68h.65c.76,0,1.22-.4,1.22-1s-.47-1-1.18-1a4,4,0,0,0-.69,0Z"/><path d="M65.4,61.06a2.86,2.86,0,0,1-2.9,3.19,2.8,2.8,0,0,1-2.8-3.08A2.92,2.92,0,0,1,62.59,58,2.8,2.8,0,0,1,65.4,61.06Zm-4.53.09c0,1.23.63,2.22,1.68,2.22s1.68-1,1.68-2.27-.57-2.22-1.67-2.22S60.87,59.9,60.87,61.15Z"/><path d="M66.81,63a3.15,3.15,0,0,0,1.47.38c.71,0,1.1-.33,1.1-.82s-.3-.73-1.07-1c-1-.36-1.65-.89-1.65-1.76S67.5,58,68.81,58a3.26,3.26,0,0,1,1.46.3l-.27.9a2.55,2.55,0,0,0-1.21-.29c-.7,0-1,.37-1,.73s.35.69,1.16,1c1,.41,1.56.94,1.56,1.81s-.74,1.82-2.3,1.82a3.57,3.57,0,0,1-1.64-.38Z"/></svg>