<svg version="1.1" id="Layer_1" xmlns="http://www.w3.org/2000/svg" xmlns:xlink="http://www.w3.org/1999/xlink" x="0px" y="0px"
	 width="100%" viewBox="0 0 640 621" enable-background="new 0 0 640 621" xml:space="preserve">
<path fill="#000000" opacity="1.000000" stroke="none" 
	d="
M374.000000,622.000000 
	C249.333359,622.000000 125.166710,622.000000 1.000050,622.000000 
	C1.000033,415.000061 1.000033,208.000122 1.000017,1.000133 
	C214.333237,1.000089 427.666473,1.000089 640.999756,1.000044 
	C640.999878,207.999863 640.999878,414.999725 640.999939,621.999756 
	C552.166687,622.000000 463.333344,622.000000 374.000000,622.000000 
M628.906860,364.701782 
	C625.594666,350.122681 622.312195,335.536804 618.964172,320.965912 
	C611.274658,287.499084 603.592773,254.030426 595.831543,220.580215 
	C590.284241,196.671967 584.314026,172.857483 579.103577,148.877060 
	C575.697937,133.203018 567.477661,122.029762 552.799622,115.283501 
	C532.785522,106.084702 512.959900,96.475258 493.071442,87.004013 
	C478.482635,80.056534 463.929626,73.033867 449.348450,66.070290 
	C426.519165,55.167614 403.686310,44.272377 380.841888,33.401459 
	C366.396423,26.527330 351.980103,19.588345 337.451019,12.894767 
	C326.857208,8.014178 315.939423,8.030314 305.237793,12.432261 
	C296.959320,15.837471 288.901489,19.791004 280.809601,23.635624 
	C257.946442,34.498402 235.115417,45.428848 212.273270,56.335857 
	C190.904922,66.539124 169.522232,76.712555 148.175888,86.961617 
	C126.671837,97.286407 105.177177,107.631866 83.753990,118.122620 
	C80.857391,119.541046 78.239388,121.670349 75.769348,123.792816 
	C66.187538,132.026337 63.793724,143.759735 61.102924,155.190979 
	C54.952217,181.320770 49.104641,207.521805 43.094055,233.684738 
	C39.449680,249.547974 35.694038,265.385651 32.053284,281.249695 
	C25.065414,311.698364 18.261131,342.189972 11.103131,372.598419 
	C7.684295,387.122284 9.186932,400.445862 18.735680,412.341187 
	C23.048201,417.713531 27.456949,423.008698 31.758720,428.389496 
	C43.415138,442.969788 54.987541,457.617523 66.688652,472.161713 
	C76.968681,484.939484 87.425018,497.575348 97.717552,510.343140 
	C109.646973,525.141479 121.488426,540.010742 133.357208,554.857910 
	C143.682205,567.773926 154.389755,580.408691 164.198090,593.706360 
	C174.252426,607.337341 187.499741,613.989990 204.058563,613.946533 
	C284.991486,613.733887 365.924561,613.430908 446.855713,612.880859 
	C457.366913,612.809448 466.093079,607.025879 472.713135,599.408569 
	C483.651855,586.822083 493.646698,573.417542 504.107513,560.412598 
	C512.936157,549.436768 521.905579,538.574097 530.733398,527.597656 
	C542.529236,512.930847 554.209229,498.170715 566.013672,483.510895 
	C574.862732,472.521454 583.883606,461.670319 592.729553,450.678406 
	C601.757385,439.460571 610.460205,427.974945 619.687134,416.925476 
	C627.751038,407.268768 633.475281,396.923737 631.950684,383.886230 
	C631.232361,377.743134 629.990540,371.661255 628.906860,364.701782 
z"/>
<path fill="#326CE5" opacity="1.000000" stroke="none" 
	d="
M628.946411,365.126709 
	C629.990540,371.661255 631.232361,377.743134 631.950684,383.886230 
	C633.475281,396.923737 627.751038,407.268768 619.687134,416.925476 
	C610.460205,427.974945 601.757385,439.460571 592.729553,450.678406 
	C583.883606,461.670319 574.862732,472.521454 566.013672,483.510895 
	C554.209229,498.170715 542.529236,512.930847 530.733398,527.597656 
	C521.905579,538.574097 512.936157,549.436768 504.107513,560.412598 
	C493.646698,573.417542 483.651855,586.822083 472.713135,599.408569 
	C466.093079,607.025879 457.366913,612.809448 446.855713,612.880859 
	C365.924561,613.430908 284.991486,613.733887 204.058563,613.946533 
	C187.499741,613.989990 174.252426,607.337341 164.198090,593.706360 
	C154.389755,580.408691 143.682205,567.773926 133.357208,554.857910 
	C121.488426,540.010742 109.646973,525.141479 97.717552,510.343140 
	C87.425018,497.575348 76.968681,484.939484 66.688652,472.161713 
	C54.987541,457.617523 43.415138,442.969788 31.758720,428.389496 
	C27.456949,423.008698 23.048201,417.713531 18.735680,412.341187 
	C9.186932,400.445862 7.684295,387.122284 11.103131,372.598419 
	C18.261131,342.189972 25.065414,311.698364 32.053284,281.249695 
	C35.694038,265.385651 39.449680,249.547974 43.094055,233.684738 
	C49.104641,207.521805 54.952217,181.320770 61.102924,155.190979 
	C63.793724,143.759735 66.187538,132.026337 75.769348,123.792816 
	C78.239388,121.670349 80.857391,119.541046 83.753990,118.122620 
	C105.177177,107.631866 126.671837,97.286407 148.175888,86.961617 
	C169.522232,76.712555 190.904922,66.539124 212.273270,56.335857 
	C235.115417,45.428848 257.946442,34.498402 280.809601,23.635624 
	C288.901489,19.791004 296.959320,15.837471 305.237793,12.432261 
	C315.939423,8.030314 326.857208,8.014178 337.451019,12.894767 
	C351.980103,19.588345 366.396423,26.527330 380.841888,33.401459 
	C403.686310,44.272377 426.519165,55.167614 449.348450,66.070290 
	C463.929626,73.033867 478.482635,80.056534 493.071442,87.004013 
	C512.959900,96.475258 532.785522,106.084702 552.799622,115.283501 
	C567.477661,122.029762 575.697937,133.203018 579.103577,148.877060 
	C584.314026,172.857483 590.284241,196.671967 595.831543,220.580215 
	C603.592773,254.030426 611.274658,287.499084 618.964172,320.965912 
	C622.312195,335.536804 625.594666,350.122681 628.946411,365.126709 
M157.730042,175.650146 
	C149.677368,170.451920 142.093674,171.030289 137.739426,177.174744 
	C133.424652,183.263489 135.238510,191.019775 142.450256,196.809189 
	C144.389069,198.365631 146.498901,199.735504 148.636185,201.013885 
	C161.027344,208.425507 175.051498,214.003540 179.871399,230.344452 
	C157.614960,264.946991 148.879349,303.608734 154.176208,344.893951 
	C151.666107,346.480072 149.654755,347.824219 147.573044,349.048798 
	C144.653229,350.766327 141.857574,353.026947 138.689453,353.911682 
	C134.075912,355.200073 129.182587,355.502563 124.400505,356.167664 
	C117.001396,357.196808 109.430061,357.528870 102.239761,359.363556 
	C95.279381,361.139648 91.697975,368.202850 93.157425,374.572906 
	C94.539146,380.603668 100.734169,385.021667 107.687782,384.087524 
	C112.244316,383.475433 116.674805,381.790771 121.105721,380.407074 
	C129.355774,377.830811 137.536850,375.029877 145.815216,372.551483 
	C147.437592,372.065796 149.405518,372.421814 151.152679,372.733643 
	C154.294815,373.294403 157.390457,374.115692 161.245499,374.997375 
	C167.415039,393.390167 176.843292,411.071533 189.575516,426.945160 
	C202.398026,442.931366 217.736526,456.071167 234.900970,466.523224 
	C234.405182,469.323792 233.974167,471.543304 233.625717,473.775726 
	C233.056351,477.423401 233.401199,481.512451 231.825851,484.643127 
	C228.397446,491.456512 223.976913,497.768158 220.011444,504.314911 
	C217.946793,507.723572 215.653061,511.047943 214.049728,514.670227 
	C210.671631,522.301941 213.250427,530.062012 219.789383,533.097168 
	C226.063675,536.009460 233.513412,533.102905 237.350021,525.894165 
	C239.056442,522.687927 240.016846,519.093323 241.466385,515.740112 
	C246.317856,504.516846 245.769958,490.339172 258.951965,483.650909 
	C259.079712,483.586121 259.169373,483.389984 259.219299,483.236450 
	C260.535858,479.190521 263.075836,479.884827 266.267395,481.001312 
	C293.224365,490.431549 320.856689,493.022736 348.991119,488.017853 
	C359.726501,486.108154 370.253143,483.025116 380.839783,480.485199 
	C381.997681,481.852417 382.994019,484.169067 384.577026,484.684692 
	C389.361176,486.242981 391.283936,490.040375 392.855957,494.068787 
	C395.455078,500.729279 397.646271,507.547638 400.127625,514.255737 
	C401.681580,518.456848 403.056671,522.797180 405.214111,526.685486 
	C408.848755,533.236145 416.303406,535.657227 422.312103,532.807922 
	C428.290863,529.972839 431.161804,522.629639 428.343231,515.684387 
	C426.611115,511.416321 423.883209,507.543945 421.521637,503.541595 
	C417.380829,496.523834 413.083191,489.596344 409.071838,482.506226 
	C408.140503,480.860107 407.836792,478.729797 407.703308,476.790680 
	C407.485291,473.623993 407.644379,470.431335 407.644379,466.751068 
	C443.186371,444.994263 467.804932,413.726410 481.190216,374.160583 
	C483.899567,373.911407 486.002686,373.717865 488.105804,373.524567 
	C491.458099,373.216461 495.051270,371.983337 498.115601,372.781219 
	C505.982971,374.829803 513.579468,377.895386 521.355774,380.325775 
	C525.928894,381.754974 530.583435,383.367493 535.300049,383.786530 
	C541.861450,384.369446 547.468323,379.874420 548.751892,374.142670 
	C550.082825,368.199341 546.712524,361.658325 540.433533,359.302002 
	C536.750427,357.919830 532.706116,357.398224 528.777832,356.789795 
	C515.954712,354.803650 502.095612,357.392609 491.261230,346.813568 
	C489.162506,344.764343 487.771484,343.858093 488.104614,340.860199 
	C491.240143,312.641571 487.517487,285.292053 476.560486,259.127869 
	C472.221710,248.767410 466.589783,238.948517 461.657562,229.104416 
	C462.878204,227.161575 464.165131,225.117462 465.447815,223.070694 
	C466.984833,220.618149 467.988312,217.449356 470.152374,215.843155 
	C476.686218,210.993759 483.701111,206.796982 490.467041,202.254288 
	C494.458984,199.574036 498.721527,197.127518 502.170868,193.848450 
	C507.222656,189.046051 507.580780,181.443909 503.741547,176.537354 
	C499.789185,171.486130 492.010803,170.119766 486.133636,174.130417 
	C482.192719,176.819733 478.841644,180.402878 475.353424,183.719406 
	C469.804779,188.994949 464.450867,194.478378 458.819061,199.661392 
	C457.172272,201.176941 454.975372,202.322968 452.829590,203.015335 
	C449.484589,204.094666 445.967865,204.641907 441.831818,205.569916 
	C441.687225,205.441132 440.791168,204.709900 439.970245,203.902374 
	C412.843872,177.219543 380.512115,161.032547 342.802155,155.670731 
	C338.921539,155.118973 333.913300,155.971848 334.740509,149.327454 
	C334.799164,148.856033 333.860596,148.334381 333.638184,147.741379 
	C332.623993,145.037292 331.074036,142.341583 330.886719,139.563950 
	C330.586456,135.111038 331.045654,130.579758 331.481171,126.110573 
	C332.174774,118.992645 333.556366,111.916054 333.837860,104.790016 
	C334.211823,95.323349 328.713287,88.911339 321.064117,88.832321 
	C313.362091,88.752762 307.840179,95.116447 308.002380,104.511650 
	C308.085236,109.310631 309.256012,114.083153 309.481720,118.888924 
	C309.967438,129.231903 314.777191,139.961487 307.046997,149.677414 
	C306.776093,150.017899 306.762299,150.648163 306.795776,151.131790 
	C307.009094,154.212509 305.363251,154.866959 302.566376,155.182312 
	C263.611389,159.574707 230.093658,175.467926 202.139847,203.006561 
	C200.989456,204.139862 199.790649,205.224030 198.726196,206.225876 
	C196.739517,205.154480 195.009003,203.375854 193.561813,203.582413 
	C186.000183,204.661682 181.957565,199.265671 177.439499,195.099518 
	C170.836121,189.010483 164.663651,182.454132 157.730042,175.650146 
z"/>
<path fill="#FDFEFF" opacity="1.000000" stroke="none" 
	d="
M158.018768,175.873566 
	C164.663651,182.454132 170.836121,189.010483 177.439499,195.099518 
	C181.957565,199.265671 186.000183,204.661682 193.561813,203.582413 
	C195.009003,203.375854 196.739517,205.154480 198.726196,206.225876 
	C199.790649,205.224030 200.989456,204.139862 202.139847,203.006561 
	C230.093658,175.467926 263.611389,159.574707 302.566376,155.182312 
	C305.363251,154.866959 307.009094,154.212509 306.795776,151.131790 
	C306.762299,150.648163 306.776093,150.017899 307.046997,149.677414 
	C314.777191,139.961487 309.967438,129.231903 309.481720,118.888924 
	C309.256012,114.083153 308.085236,109.310631 308.002380,104.511650 
	C307.840179,95.116447 313.362091,88.752762 321.064117,88.832321 
	C328.713287,88.911339 334.211823,95.323349 333.837860,104.790016 
	C333.556366,111.916054 332.174774,118.992645 331.481171,126.110573 
	C331.045654,130.579758 330.586456,135.111038 330.886719,139.563950 
	C331.074036,142.341583 332.623993,145.037292 333.638184,147.741379 
	C333.860596,148.334381 334.799164,148.856033 334.740509,149.327454 
	C333.913300,155.971848 338.921539,155.118973 342.802155,155.670731 
	C380.512115,161.032547 412.843872,177.219543 439.970245,203.902374 
	C440.791168,204.709900 441.687225,205.441132 441.831818,205.569916 
	C445.967865,204.641907 449.484589,204.094666 452.829590,203.015335 
	C454.975372,202.322968 457.172272,201.176941 458.819061,199.661392 
	C464.450867,194.478378 469.804779,188.994949 475.353424,183.719406 
	C478.841644,180.402878 482.192719,176.819733 486.133636,174.130417 
	C492.010803,170.119766 499.789185,171.486130 503.741547,176.537354 
	C507.580780,181.443909 507.222656,189.046051 502.170868,193.848450 
	C498.721527,197.127518 494.458984,199.574036 490.467041,202.254288 
	C483.701111,206.796982 476.686218,210.993759 470.152374,215.843155 
	C467.988312,217.449356 466.984833,220.618149 465.447815,223.070694 
	C464.165131,225.117462 462.878204,227.161575 461.657562,229.104416 
	C466.589783,238.948517 472.221710,248.767410 476.560486,259.127869 
	C487.517487,285.292053 491.240143,312.641571 488.104614,340.860199 
	C487.771484,343.858093 489.162506,344.764343 491.261230,346.813568 
	C502.095612,357.392609 515.954712,354.803650 528.777832,356.789795 
	C532.706116,357.398224 536.750427,357.919830 540.433533,359.302002 
	C546.712524,361.658325 550.082825,368.199341 548.751892,374.142670 
	C547.468323,379.874420 541.861450,384.369446 535.300049,383.786530 
	C530.583435,383.367493 525.928894,381.754974 521.355774,380.325775 
	C513.579468,377.895386 505.982971,374.829803 498.115601,372.781219 
	C495.051270,371.983337 491.458099,373.216461 488.105804,373.524567 
	C486.002686,373.717865 483.899567,373.911407 481.190216,374.160583 
	C467.804932,413.726410 443.186371,444.994263 407.644379,466.751068 
	C407.644379,470.431335 407.485291,473.623993 407.703308,476.790680 
	C407.836792,478.729797 408.140503,480.860107 409.071838,482.506226 
	C413.083191,489.596344 417.380829,496.523834 421.521637,503.541595 
	C423.883209,507.543945 426.611115,511.416321 428.343231,515.684387 
	C431.161804,522.629639 428.290863,529.972839 422.312103,532.807922 
	C416.303406,535.657227 408.848755,533.236145 405.214111,526.685486 
	C403.056671,522.797180 401.681580,518.456848 400.127625,514.255737 
	C397.646271,507.547638 395.455078,500.729279 392.855957,494.068787 
	C391.283936,490.040375 389.361176,486.242981 384.577026,484.684692 
	C382.994019,484.169067 381.997681,481.852417 380.839783,480.485199 
	C370.253143,483.025116 359.726501,486.108154 348.991119,488.017853 
	C320.856689,493.022736 293.224365,490.431549 266.267395,481.001312 
	C263.075836,479.884827 260.535858,479.190521 259.219299,483.236450 
	C259.169373,483.389984 259.079712,483.586121 258.951965,483.650909 
	C245.769958,490.339172 246.317856,504.516846 241.466385,515.740112 
	C240.016846,519.093323 239.056442,522.687927 237.350021,525.894165 
	C233.513412,533.102905 226.063675,536.009460 219.789383,533.097168 
	C213.250427,530.062012 210.671631,522.301941 214.049728,514.670227 
	C215.653061,511.047943 217.946793,507.723572 220.011444,504.314911 
	C223.976913,497.768158 228.397446,491.456512 231.825851,484.643127 
	C233.401199,481.512451 233.056351,477.423401 233.625717,473.775726 
	C233.974167,471.543304 234.405182,469.323792 234.900970,466.523224 
	C217.736526,456.071167 202.398026,442.931366 189.575516,426.945160 
	C176.843292,411.071533 167.415039,393.390167 161.245499,374.997375 
	C157.390457,374.115692 154.294815,373.294403 151.152679,372.733643 
	C149.405518,372.421814 147.437592,372.065796 145.815216,372.551483 
	C137.536850,375.029877 129.355774,377.830811 121.105721,380.407074 
	C116.674805,381.790771 112.244316,383.475433 107.687782,384.087524 
	C100.734169,385.021667 94.539146,380.603668 93.157425,374.572906 
	C91.697975,368.202850 95.279381,361.139648 102.239761,359.363556 
	C109.430061,357.528870 117.001396,357.196808 124.400505,356.167664 
	C129.182587,355.502563 134.075912,355.200073 138.689453,353.911682 
	C141.857574,353.026947 144.653229,350.766327 147.573044,349.048798 
	C149.654755,347.824219 151.666107,346.480072 154.176208,344.893951 
	C148.879349,303.608734 157.614960,264.946991 179.871399,230.344452 
	C175.051498,214.003540 161.027344,208.425507 148.636185,201.013885 
	C146.498901,199.735504 144.389069,198.365631 142.450256,196.809189 
	C135.238510,191.019775 133.424652,183.263489 137.739426,177.174744 
	C142.093674,171.030289 149.677368,170.451920 158.018768,175.873566 
M445.039368,373.510803 
	C445.669952,371.714294 446.300568,369.917816 447.077728,367.703766 
	C425.169220,364.011169 403.869965,360.283020 382.519714,356.874237 
	C369.571564,354.806915 363.555878,362.734467 368.558319,374.943512 
	C375.057495,390.805634 381.644257,406.631897 388.206665,422.468079 
	C389.906525,426.570007 391.656036,430.651337 393.562134,435.167145 
	C417.082794,419.807587 433.936584,399.559814 445.039368,373.510803 
M201.850113,260.370941 
	C189.736099,284.075531 184.900085,309.082123 187.701187,336.078278 
	C196.127762,333.650085 203.782501,331.445618 211.436478,329.238525 
	C224.712296,325.410309 238.057709,321.804474 251.241516,317.681885 
	C262.213226,314.250977 264.288300,304.635284 256.174438,296.474548 
	C255.705109,296.002502 255.198578,295.566895 254.701660,295.122955 
	C239.545471,281.581299 224.392685,268.035889 209.219116,254.513763 
	C208.410980,253.793564 207.426239,253.271561 206.286179,252.495621 
	C204.803513,255.096329 203.490540,257.399384 201.850113,260.370941 
M266.733704,254.772049 
	C272.198578,258.580292 277.481354,262.690735 283.174072,266.120850 
	C290.412750,270.482452 298.220520,266.915985 300.168091,258.740082 
	C300.589813,256.969666 300.874756,255.141815 300.984528,253.326019 
	C301.688446,241.683548 302.346161,230.038193 302.978973,218.391586 
	C303.490753,208.972321 303.946228,199.549973 304.463593,189.404633 
	C274.066589,193.413773 248.664566,205.630142 226.857132,226.513443 
	C240.341293,236.061691 253.249344,245.201981 266.733704,254.772049 
M414.964050,324.497864 
	C427.850311,328.188690 440.736542,331.879517 454.395905,335.791779 
	C456.913757,305.463104 450.434418,278.148743 435.114899,252.314102 
	C433.384735,253.717545 432.080566,254.688416 430.873444,255.767838 
	C416.107056,268.972076 401.388947,282.230621 386.576416,295.382843 
	C382.602936,298.910919 379.791748,302.810333 381.026245,308.398163 
	C382.269653,314.026550 386.657166,316.347198 391.640533,317.810608 
	C399.141449,320.013336 406.672424,322.113647 414.964050,324.497864 
M323.476074,456.209808 
	C337.134064,455.908020 350.473297,453.924591 363.530212,449.193542 
	C363.079132,448.027649 362.911896,447.384277 362.600342,446.820740 
	C352.451721,428.464630 342.414612,410.045258 332.081268,391.793549 
	C326.000763,381.053619 315.782379,381.274292 309.758331,392.075500 
	C299.865417,409.813690 290.054718,427.597748 280.230255,445.374054 
	C279.621216,446.475983 279.193970,447.678345 278.503662,449.237030 
	C293.051147,454.220428 307.570007,456.413422 323.476074,456.209808 
M409.001831,230.511353 
	C410.713135,229.254272 412.424438,227.997177 414.478394,226.488373 
	C392.653168,205.756165 367.434052,193.419617 337.243896,189.407654 
	C338.636108,212.906189 339.835754,235.484436 341.411835,258.036377 
	C341.782837,263.344757 345.928864,267.499878 350.889496,267.346130 
	C354.608307,267.230804 358.771393,265.828339 361.862701,263.718475 
	C377.538391,253.019440 392.928619,241.902176 409.001831,230.511353 
M213.348404,364.859894 
	C207.393799,365.903595 201.439178,366.947296 195.061249,368.065186 
	C205.853256,396.490540 223.398941,418.358093 248.268890,434.711761 
	C248.844299,433.796448 249.268188,433.293518 249.508820,432.714508 
	C257.619537,413.199188 265.907135,393.754089 273.733032,374.124939 
	C278.163055,363.013489 271.533905,355.165466 259.501129,357.043549 
	C244.369675,359.405304 229.299805,362.161621 213.348404,364.859894 
M300.010651,327.434418 
	C301.291412,332.413422 301.909637,336.855713 307.711609,340.122864 
	C317.180939,345.455109 325.199127,345.833252 334.263916,339.911377 
	C337.693512,337.670898 339.586639,335.515778 341.020599,331.607941 
	C344.808472,321.285339 343.448517,312.708344 334.936066,305.483276 
	C333.326569,304.117218 332.008636,301.360535 330.395966,301.230408 
	C324.109528,300.723145 317.576447,300.131439 311.509491,301.384308 
	C308.522308,302.001160 306.559509,306.808868 303.770142,309.316376 
	C298.286804,314.245636 296.864349,319.879333 300.010651,327.434418 
z"/>
<path fill="#346DE5" opacity="1.000000" stroke="none" 
	d="
M444.895111,373.860199 
	C433.936584,399.559814 417.082794,419.807587 393.562134,435.167145 
	C391.656036,430.651337 389.906525,426.570007 388.206665,422.468079 
	C381.644257,406.631897 375.057495,390.805634 368.558319,374.943512 
	C363.555878,362.734467 369.571564,354.806915 382.519714,356.874237 
	C403.869965,360.283020 425.169220,364.011169 447.077728,367.703766 
	C446.300568,369.917816 445.669952,371.714294 444.895111,373.860199 
z"/>
<path fill="#346DE5" opacity="1.000000" stroke="none" 
	d="
M202.013840,260.036682 
	C203.490540,257.399384 204.803513,255.096329 206.286179,252.495621 
	C207.426239,253.271561 208.410980,253.793564 209.219116,254.513763 
	C224.392685,268.035889 239.545471,281.581299 254.701660,295.122955 
	C255.198578,295.566895 255.705109,296.002502 256.174438,296.474548 
	C264.288300,304.635284 262.213226,314.250977 251.241516,317.681885 
	C238.057709,321.804474 224.712296,325.410309 211.436478,329.238525 
	C203.782501,331.445618 196.127762,333.650085 187.701187,336.078278 
	C184.900085,309.082123 189.736099,284.075531 202.013840,260.036682 
z"/>
<path fill="#346DE5" opacity="1.000000" stroke="none" 
	d="
M266.445557,254.557159 
	C253.249344,245.201981 240.341293,236.061691 226.857132,226.513443 
	C248.664566,205.630142 274.066589,193.413773 304.463593,189.404633 
	C303.946228,199.549973 303.490753,208.972321 302.978973,218.391586 
	C302.346161,230.038193 301.688446,241.683548 300.984528,253.326019 
	C300.874756,255.141815 300.589813,256.969666 300.168091,258.740082 
	C298.220520,266.915985 290.412750,270.482452 283.174072,266.120850 
	C277.481354,262.690735 272.198578,258.580292 266.445557,254.557159 
z"/>
<path fill="#346DE5" opacity="1.000000" stroke="none" 
	d="
M414.577332,324.377686 
	C406.672424,322.113647 399.141449,320.013336 391.640533,317.810608 
	C386.657166,316.347198 382.269653,314.026550 381.026245,308.398163 
	C379.791748,302.810333 382.602936,298.910919 386.576416,295.382843 
	C401.388947,282.230621 416.107056,268.972076 430.873444,255.767838 
	C432.080566,254.688416 433.384735,253.717545 435.114899,252.314102 
	C450.434418,278.148743 456.913757,305.463104 454.395905,335.791779 
	C440.736542,331.879517 427.850311,328.188690 414.577332,324.377686 
z"/>
<path fill="#346DE5" opacity="1.000000" stroke="none" 
	d="
M322.981171,456.214600 
	C307.570007,456.413422 293.051147,454.220428 278.503662,449.237030 
	C279.193970,447.678345 279.621216,446.475983 280.230255,445.374054 
	C290.054718,427.597748 299.865417,409.813690 309.758331,392.075500 
	C315.782379,381.274292 326.000763,381.053619 332.081268,391.793549 
	C342.414612,410.045258 352.451721,428.464630 362.600342,446.820740 
	C362.911896,447.384277 363.079132,448.027649 363.530212,449.193542 
	C350.473297,453.924591 337.134064,455.908020 322.981171,456.214600 
z"/>
<path fill="#346DE5" opacity="1.000000" stroke="none" 
	d="
M408.710327,230.721405 
	C392.928619,241.902176 377.538391,253.019440 361.862701,263.718475 
	C358.771393,265.828339 354.608307,267.230804 350.889496,267.346130 
	C345.928864,267.499878 341.782837,263.344757 341.411835,258.036377 
	C339.835754,235.484436 338.636108,212.906189 337.243896,189.407654 
	C367.434052,193.419617 392.653168,205.756165 414.478394,226.488373 
	C412.424438,227.997177 410.713135,229.254272 408.710327,230.721405 
z"/>
<path fill="#346DE5" opacity="1.000000" stroke="none" 
	d="
M213.775879,364.803772 
	C229.299805,362.161621 244.369675,359.405304 259.501129,357.043549 
	C271.533905,355.165466 278.163055,363.013489 273.733032,374.124939 
	C265.907135,393.754089 257.619537,413.199188 249.508820,432.714508 
	C249.268188,433.293518 248.844299,433.796448 248.268890,434.711761 
	C223.398941,418.358093 205.853256,396.490540 195.061249,368.065186 
	C201.439178,366.947296 207.393799,365.903595 213.775879,364.803772 
z"/>
<path fill="#346DE5" opacity="1.000000" stroke="none" 
	d="
M299.939758,327.026215 
	C296.864349,319.879333 298.286804,314.245636 303.770142,309.316376 
	C306.559509,306.808868 308.522308,302.001160 311.509491,301.384308 
	C317.576447,300.131439 324.109528,300.723145 330.395966,301.230408 
	C332.008636,301.360535 333.326569,304.117218 334.936066,305.483276 
	C343.448517,312.708344 344.808472,321.285339 341.020599,331.607941 
	C339.586639,335.515778 337.693512,337.670898 334.263916,339.911377 
	C325.199127,345.833252 317.180939,345.455109 307.711609,340.122864 
	C301.909637,336.855713 301.291412,332.413422 299.939758,327.026215 
z"/>
</svg>