<?xml version="1.0" encoding="UTF-8"?>
<svg xmlns="http://www.w3.org/2000/svg" xmlns:xlink="http://www.w3.org/1999/xlink" width="100px" height="75px" viewBox="0 0 100 75" version="1.1">
<g id="surface1">
<path style=" stroke:none;fill-rule:nonzero;fill:rgb(19.607843%,42.352941%,89.803922%);fill-opacity:1;" d="M 49.652344 1.074219 C 48.792969 1.109375 47.949219 1.273438 47.175781 1.558594 L 13.378906 14.03125 C 11.609375 14.6875 10.320312 15.921875 9.882812 17.390625 L 1.546875 45.410156 C 1.15625 46.714844 1.472656 48.082031 2.421875 49.207031 C 2.535156 49.339844 2.660156 49.472656 2.789062 49.597656 L 26.183594 72.066406 C 27.410156 73.242188 29.269531 73.929688 31.234375 73.929688 L 68.75 73.921875 C 70.714844 73.921875 72.574219 73.238281 73.800781 72.0625 L 97.183594 49.59375 C 98.410156 48.414062 98.871094 46.871094 98.433594 45.402344 L 90.082031 17.382812 C 89.644531 15.914062 88.359375 14.679688 86.585938 14.027344 L 52.785156 1.558594 C 51.8125 1.199219 50.734375 1.03125 49.652344 1.074219 Z M 49.652344 1.074219 "/>
<path style="fill-rule:nonzero;fill:rgb(100%,100%,100%);fill-opacity:1;stroke-width:0.25;stroke-linecap:butt;stroke-linejoin:miter;stroke:rgb(100%,100%,100%);stroke-opacity:1;stroke-miterlimit:4;" d="M 367.741368 274.05615 C 359.664102 274.05615 353.111915 281.332088 353.111915 290.326463 C 353.111915 290.43615 353.140157 290.5824 353.140157 290.72865 C 353.140157 291.935213 353.05543 293.397713 353.111915 294.458025 C 353.30961 299.6499 354.439297 303.59865 355.11711 308.388338 C 356.331524 318.589275 357.376485 327.035213 356.726915 334.89615 C 356.105586 337.857713 353.930938 340.563338 351.982227 342.464588 L 351.643321 348.64365 C 342.86 349.3749 334.020196 350.727713 325.208633 352.702088 C 287.222891 361.330838 254.518438 380.891775 229.637071 407.326463 C 228.027266 406.193025 225.203047 404.182088 224.355782 403.560525 C 221.7575 403.92615 219.102735 404.730525 215.657188 402.719588 C 209.133243 398.295525 203.174141 392.22615 195.944141 384.91365 C 192.639805 381.40365 190.267461 378.076463 186.313555 374.67615 C 185.438047 373.908338 184.082422 372.884588 183.065704 372.080213 C 180.015547 369.630525 176.400547 368.350838 172.898516 368.24115 C 168.408008 368.0949 164.058711 369.8499 161.234493 373.396463 C 156.207383 379.721775 157.817188 389.374275 164.82125 394.968338 C 164.905977 395.0049 164.962461 395.078025 165.047188 395.114588 C 166.007422 395.918963 167.193594 396.90615 168.069102 397.564275 C 172.248946 400.635525 176.061641 402.207713 180.213243 404.6574 C 188.940079 410.06865 196.198321 414.529275 201.959727 419.940525 C 204.19086 422.317088 204.58625 426.558338 204.896915 428.386463 L 209.585118 432.554588 C 184.477813 470.32365 172.870274 516.9774 179.733125 564.50865 L 173.604571 566.26365 C 171.994766 568.347713 169.707149 571.638338 167.334805 572.625525 C 159.794141 575.002088 151.321485 575.879588 141.097813 576.9399 C 136.296641 577.342088 132.173282 577.08615 127.089688 578.073338 C 125.96 578.25615 124.40668 578.6949 123.164024 578.950838 C 123.135782 578.9874 123.079297 578.9874 123.051055 578.9874 C 122.966329 579.023963 122.881602 579.060525 122.825118 579.060525 C 114.21125 581.144588 108.675782 589.07865 110.45504 596.866463 C 112.234297 604.690838 120.650469 609.443962 129.320821 607.542713 C 129.377305 607.542713 129.490274 607.542713 129.546758 607.542713 C 129.631485 607.50615 129.716211 607.469588 129.82918 607.433025 C 131.043594 607.177088 132.54043 606.884588 133.613633 606.592088 C 138.6125 605.239275 142.2275 603.2649 146.74625 601.546463 C 156.405079 598.073025 164.42586 595.184588 172.220704 594.05115 C 175.496797 593.795213 178.942344 596.062088 180.636875 597.012713 L 187.01961 595.9524 C 201.677305 641.399588 232.433047 678.181463 271.350782 701.2524 L 268.696016 707.614275 C 269.65625 710.100525 270.729454 713.464275 269.995157 715.8774 C 267.170938 723.263025 262.313282 731.014275 256.777813 739.679588 C 254.094805 743.701463 251.327071 746.809275 248.926485 751.379588 C 248.333399 752.476463 247.599102 754.158338 247.034258 755.291775 C 243.278047 763.335525 246.045782 772.6224 253.275782 776.095838 C 260.534024 779.605838 269.543282 775.913025 273.440704 767.832713 C 273.468946 767.832713 273.468946 767.832713 273.497188 767.79615 C 273.497188 767.79615 273.468946 767.79615 273.497188 767.79615 C 274.03379 766.62615 274.824571 765.127088 275.304688 764.066775 C 277.366368 759.31365 278.04418 755.255213 279.512774 750.648338 C 283.381954 740.922712 285.500118 730.721775 290.837891 724.396463 C 292.306485 722.641462 294.678829 721.983338 297.135899 721.325213 L 300.440235 715.2924 C 334.387344 728.345213 372.373086 731.81865 410.330586 723.226463 C 418.972696 721.252088 427.332383 718.692713 435.409649 715.658025 C 436.341641 717.303337 438.092657 720.484275 438.544532 721.28865 C 441.058086 722.093025 443.797579 722.531775 446.028711 725.8224 C 450.01086 732.623025 452.72211 740.666775 456.054688 750.3924 C 457.49504 754.999275 458.229336 759.057713 460.291016 763.810838 C 460.771133 764.907713 461.561915 766.406775 462.098516 767.576775 C 465.995938 775.657087 475.06168 779.3499 482.319922 775.8399 C 489.549922 772.366463 492.317657 763.11615 488.533204 755.0724 C 487.996602 753.9024 487.205821 752.220525 486.640977 751.12365 C 484.212149 746.553337 481.472657 743.482088 478.789649 739.460213 C 473.25418 730.7949 468.678946 723.592088 465.826485 716.243025 C 464.640313 712.440525 466.02418 710.100525 466.956172 707.614275 C 466.391329 706.992713 465.205157 703.409588 464.527344 701.727713 C 504.970157 677.815838 534.822149 639.68115 548.830274 595.6599 C 550.7225 595.9524 553.998594 596.5374 555.071797 596.756775 C 557.274688 595.294275 559.308125 593.393025 563.262032 593.722088 C 571.085118 594.855525 579.077657 597.743963 588.764727 601.2174 C 593.255235 602.935838 596.898477 604.946775 601.897344 606.263025 C 602.942305 606.555525 604.467383 606.811463 605.681797 607.103963 C 605.766524 607.103963 605.85125 607.177088 605.964219 607.177088 C 606.020704 607.21365 606.10543 607.21365 606.161915 607.21365 C 614.832266 609.078338 623.27668 604.325213 625.055938 596.5374 C 626.835196 588.713025 621.299727 580.778963 612.657618 578.731463 C 611.414961 578.438963 609.635704 577.96365 608.42129 577.707713 C 603.337696 576.757088 599.186094 576.976463 594.384922 576.574275 C 584.16125 575.513963 575.688594 574.636463 568.176172 572.296463 C 565.097774 571.0899 562.923125 567.43365 561.849922 565.934588 L 555.947305 564.21615 C 559.025704 542.059275 558.178438 518.988338 552.897149 495.9174 C 547.531133 472.66365 538.098243 451.347713 525.473985 432.59115 C 526.999063 431.201775 529.851524 428.678963 530.670547 427.947713 C 530.896485 425.315213 530.69879 422.573025 533.41004 419.648025 C 539.171446 414.236775 546.429688 409.77615 555.184766 404.3649 C 559.336368 401.915213 563.149063 400.343025 567.328907 397.271775 C 568.260899 396.577088 569.56004 395.480213 570.548516 394.675838 C 577.552579 389.081775 579.190625 379.429275 574.135274 373.103963 C 569.108165 366.815213 559.336368 366.230213 552.332305 371.824275 C 551.315586 372.592088 549.959961 373.615838 549.084454 374.420213 C 545.15879 377.783963 542.729961 381.11115 539.425625 384.62115 C 532.195625 391.93365 526.236524 398.07615 519.712579 402.46365 C 516.860118 404.108963 512.708516 403.560525 510.81629 403.450838 L 505.252579 407.399588 C 473.536602 374.127713 430.354297 352.8849 383.867657 348.753338 C 383.726446 346.815525 383.556993 343.268963 383.52875 342.20865 C 381.608282 340.380525 379.320665 338.8449 378.727579 334.89615 C 378.10625 327.035213 379.151211 318.589275 380.393868 308.388338 C 381.07168 303.59865 382.201368 299.6499 382.399063 294.458025 C 382.427305 293.288025 382.370821 291.569588 382.370821 290.326463 C 382.370821 281.332088 375.818633 274.05615 367.741368 274.05615 Z M 349.412188 387.509588 L 345.091133 464.217713 L 344.752227 464.363963 C 344.469805 471.237713 338.821368 476.722088 331.902032 476.722088 C 329.049571 476.722088 326.423047 475.808025 324.304883 474.235838 L 324.163672 474.308963 L 261.268321 429.702713 C 280.585977 410.690213 305.326133 396.650213 333.8225 390.17865 C 339.047305 389.00865 344.243868 388.13115 349.412188 387.509588 Z M 386.070547 387.509588 C 419.339844 391.604588 450.123829 406.668338 473.706055 429.739275 L 411.206094 474.053025 L 410.980157 473.9799 C 405.444688 478.001775 397.621602 477.014588 393.300547 471.603338 C 391.52129 469.373025 390.589297 466.740525 390.476329 464.108025 L 390.419844 464.108025 Z M 238.448633 458.367713 L 295.893243 509.738025 L 295.836758 510.067088 C 301.005079 514.564275 301.767618 522.38865 297.446563 527.7999 C 295.667305 530.030213 293.323204 531.529275 290.753165 532.223963 L 290.69668 532.4799 L 217.069297 553.722713 C 213.341329 519.46365 221.418594 486.155213 238.448633 458.367713 Z M 496.610469 458.404275 C 505.13961 472.2249 511.607071 487.690838 515.448008 504.436463 C 519.260704 520.999275 520.220938 537.488963 518.639375 553.466775 L 444.644844 532.150838 L 444.58836 531.858338 C 437.951446 530.030213 433.884571 523.302713 435.409649 516.53865 C 436.059219 513.7599 437.527813 511.4199 439.504766 509.701463 L 439.476524 509.51865 Z M 355.964375 513.723338 L 379.490118 513.723338 L 394.119571 532.004588 L 388.866524 554.819588 L 367.741368 564.983963 L 346.559727 554.783025 L 341.30668 531.968025 Z M 431.399258 576.281775 C 432.387735 576.245213 433.376211 576.318338 434.364688 576.50115 L 434.477657 576.3549 L 510.646836 589.2249 C 499.491172 620.5224 478.168321 647.651775 449.671954 665.823338 L 420.102383 594.416775 L 420.215352 594.270525 C 417.47586 587.981775 420.215352 580.559588 426.456875 577.561463 C 428.038438 576.79365 429.732969 576.3549 431.399258 576.281775 Z M 303.490391 576.574275 C 309.308282 576.683963 314.504844 580.705838 315.860469 586.628963 C 316.481797 589.407713 316.171133 592.1499 315.126172 594.563025 L 315.35211 594.855525 L 286.121446 665.530838 C 258.754766 647.980838 236.98004 621.6924 225.316016 589.480838 L 300.835625 576.6474 L 300.948594 576.79365 C 301.79586 576.6474 302.643125 576.574275 303.490391 576.574275 Z M 367.26125 607.542713 C 369.294688 607.469588 371.356368 607.908338 373.305079 608.858963 C 375.846875 610.065525 377.823829 612.003338 379.066485 614.343338 L 379.348907 614.343338 L 416.57211 681.581775 C 411.742696 683.227088 406.772071 684.5799 401.688477 685.7499 C 373.248594 692.221463 344.865196 690.247088 319.164805 681.50865 L 356.303282 614.3799 L 356.359766 614.3799 C 358.590899 610.211775 362.798985 607.725525 367.26125 607.542713 Z M 367.26125 607.542713 " transform="matrix(0.138313,0,0,0.106838,-0.874978,-18.670128)"/>
</g>
</svg>
