<svg id="Layer_1" data-name="Layer 1" xmlns="http://www.w3.org/2000/svg" xmlns:xlink="http://www.w3.org/1999/xlink" viewBox="0 0 100 75"><defs><style>.cls-1{fill:url(#linear-gradient);}.cls-2{fill:url(#linear-gradient-2);}.cls-3{fill:url(#linear-gradient-3);}.cls-4{fill:url(#linear-gradient-4);}.cls-5{fill:url(#linear-gradient-5);}</style><linearGradient id="linear-gradient" x1="-208.96" y1="-386.02" x2="-208.96" y2="-386.34" gradientTransform="matrix(32.25, 0, 0, -81.09, 6773.22, -31287.97)" gradientUnits="userSpaceOnUse"><stop offset="0" stop-color="#ff7bff"/><stop offset="0.07" stop-color="#f46bff"/><stop offset="0.27" stop-color="#d945ff"/><stop offset="0.46" stop-color="#c527ff"/><stop offset="0.65" stop-color="#b611ff"/><stop offset="0.83" stop-color="#ad04ff"/><stop offset="1" stop-color="#a0f"/></linearGradient><linearGradient id="linear-gradient-2" x1="-208.68" y1="-386.02" x2="-208.68" y2="-386.34" gradientTransform="matrix(43.76, 0, 0, -81.1, 9190.41, -31291.58)" xlink:href="#linear-gradient"/><linearGradient id="linear-gradient-3" x1="-213.64" y1="-393.61" x2="-213.64" y2="-392.74" gradientTransform="matrix(20.96, 0, 0, -30.33, 4530.76, -11896.06)" xlink:href="#linear-gradient"/><linearGradient id="linear-gradient-4" x1="-209.74" y1="-395.28" x2="-209.74" y2="-394.41" gradientTransform="matrix(30.54, 0, 0, -30.33, 6448.36, -11949.62)" xlink:href="#linear-gradient"/><linearGradient id="linear-gradient-5" x1="-206.93" y1="-386.34" x2="-206.93" y2="-386.02" gradientTransform="matrix(58.29, 0, 0, -81.09, 12107.76, -31289.27)" xlink:href="#linear-gradient"/></defs><path d="M15.06,50.34a4.26,4.26,0,0,1,3.49-1.59,3.44,3.44,0,0,1,2.69,1c.64.73.9,1.44.9,3.68v5.77H19.7V54c0-1.84-.13-3.12-2-3.12-1.52,0-2.2,1.17-2.2,2.82v5.45H13.09V54c0-1.84-.13-3.12-2-3.12-1.5,0-2.2,1.17-2.2,2.82v5.45H6.49V49H8.93v1.3a3.52,3.52,0,0,1,3.18-1.55,3.26,3.26,0,0,1,2.52,1A3.55,3.55,0,0,1,15.06,50.34Zm18.46,6.54a5.44,5.44,0,0,1-4.8,2.56c-3,0-5.06-2.14-5.06-5.43a4.93,4.93,0,0,1,5-5.24c3.25,0,4.81,2.25,4.81,5.37,0,.18,0,.45,0,.62H26a2.71,2.71,0,0,0,2.83,2.59,3.35,3.35,0,0,0,3-1.75ZM26.1,52.94h5a2.26,2.26,0,0,0-2.4-2.22A2.47,2.47,0,0,0,26.1,52.94Zm17.51-2.6a4.25,4.25,0,0,1,3.48-1.59,3.46,3.46,0,0,1,2.7,1c.64.73.9,1.44.9,3.68v5.77H48.25V54c0-1.84-.13-3.12-2-3.12-1.52,0-2.2,1.17-2.2,2.82v5.45H41.64V54c0-1.84-.13-3.12-2-3.12-1.5,0-2.21,1.17-2.21,2.82v5.45H35V49h2.45v1.3a3.53,3.53,0,0,1,3.19-1.55,3.28,3.28,0,0,1,2.52,1A4.21,4.21,0,0,1,43.61,50.34Zm19-2.2a5.66,5.66,0,0,0-3.94-1.66c-1.41,0-2.4.58-2.4,1.55s.7,1.39,2.08,1.65l2.47.49c2.82.56,4.59,1.69,4.59,4.37,0,3.15-2.8,4.9-6.41,4.9a8.65,8.65,0,0,1-6.88-3.18l2.36-2a5.74,5.74,0,0,0,4.61,2.37c1.77,0,2.8-.7,2.8-1.81s-.89-1.35-2.28-1.59l-2-.38c-2.78-.54-4.88-1.55-4.88-4.53,0-2.73,2.53-4.63,5.87-4.63a8.28,8.28,0,0,1,6.13,2.4ZM87.42,44V56.13h6.09v3H84V44ZM81.31,57.42a3.6,3.6,0,0,0-1.59-.86,8.6,8.6,0,0,0,1.46-5.06c0-4.64-2.84-7.81-7.3-7.81s-7.3,3.17-7.3,7.81,2.67,7.81,7.36,7.81c4,0,6.28-.16,7.92.84A2.75,2.75,0,0,0,81.31,57.42Zm-7.44-1c-2.54,0-3.9-1.82-3.9-4.93s1.4-5,3.9-5,3.91,1.89,3.91,5S76.42,56.41,73.87,56.41Z"/><path class="cls-1" d="M40.14,15.87a4.66,4.66,0,0,0-3.12-2,3.11,3.11,0,0,0-.43,0c-4.43.7-6.84,6.94-7,13.18.11,6.23,2.52,12.47,7,13.17l.43,0a4.68,4.68,0,0,0,3.12-2c-2.31-2.56-3.43-7.08-3.51-11.19C36.71,23,37.83,18.43,40.14,15.87Z"/><path class="cls-2" d="M59.57,13.89a3.15,3.15,0,0,0-.44,0H52.26a5.12,5.12,0,0,1,2.27.77A6.92,6.92,0,0,1,56,15.87c2.32,2.56,3.44,7.08,3.52,11.2-.08,4.11-1.2,8.63-3.52,11.19a7,7,0,0,1-1.48,1.25,5.24,5.24,0,0,1-2.27.77h6.87l.44,0c4.42-.7,6.84-6.94,6.95-13.17C66.41,20.83,64,14.59,59.57,13.89Z"/><path class="cls-3" d="M50.19,36.45a18,18,0,0,1-1,1.82.24.24,0,0,0,0,.29,4.64,4.64,0,0,0,2.56,1.66,3.62,3.62,0,0,0,.46.06,5.24,5.24,0,0,0,2.27-.77A7,7,0,0,0,56,38.26c-1.38-1.79-2.43-4.59-3.42-7.78a.12.12,0,0,0-.23,0A45.26,45.26,0,0,1,50.19,36.45Z"/><path class="cls-4" d="M40.14,15.87c1.38,1.79,2.43,4.59,3.42,7.78a.12.12,0,0,0,.24,0,43.88,43.88,0,0,1,2.16-6,18,18,0,0,1,1-1.82.24.24,0,0,0,0-.28,4.58,4.58,0,0,0-2.55-1.67,2.5,2.5,0,0,0-.47-.05H37A4.66,4.66,0,0,1,40.14,15.87Z"/><path class="cls-5" d="M54.53,14.63a5.12,5.12,0,0,0-2.27-.77,2.4,2.4,0,0,0-.46.05c-3.73.77-5.53,7.32-7.22,13.16-1.32,4.54-2.58,8.79-4.44,11.19a4.71,4.71,0,0,1-3.12,2h6.87a3.78,3.78,0,0,0,.47-.06c3.73-.76,5.53-7.32,7.22-13.15,1.31-4.55,2.58-8.79,4.43-11.2A6.92,6.92,0,0,0,54.53,14.63Z"/></svg>