<svg id="Layer_1" data-name="Layer 1" xmlns="http://www.w3.org/2000/svg" viewBox="0 0 100 75"><defs><style>.cls-1{fill:none;}.cls-2{fill:#5d87a1;}.cls-3{fill:#f8981d;}</style></defs><path class="cls-1" d="M1.76,3.56H98.24V70.44H1.76Z"/><path class="cls-2" d="M31.29,57.57H28.68q-.13-6.62-.76-12.44h0l-4,12.44h-2L18,45.13h0q-.43,5.59-.55,12.44H15q.23-8.32,1.15-15.6h3.24l3.77,11.46h0L27,42h3.1c.68,5.68,1.08,10.89,1.2,15.6M42.62,46.06Q41,54.72,38.41,58.64q-2,3-4.46,3a4.34,4.34,0,0,1-1.59-.39V59.88a6.82,6.82,0,0,0,1.08.07,2.65,2.65,0,0,0,1.83-.62,2.3,2.3,0,0,0,.83-1.71A11.42,11.42,0,0,0,35.45,55l-2.86-8.9h2.56l2.06,6.65a9,9,0,0,1,.58,3.17,43.84,43.84,0,0,0,2.36-9.82Z"/><path class="cls-3" d="M77.39,57.57H70V42h2.49V55.65h4.93ZM68,58l-2.87-1.42a5.14,5.14,0,0,0,.71-.69q1.83-2.16,1.83-6.36,0-7.74-6.08-7.75a5.75,5.75,0,0,0-4.64,2Q55.15,45.85,55.15,50t1.62,6a5.54,5.54,0,0,0,4.46,1.73,7.3,7.3,0,0,0,2-.27L67,59.7Zm-9.3-3.5a9.66,9.66,0,0,1-.94-4.9q0-5.89,3.58-5.9a3,3,0,0,1,2.75,1.41,9.55,9.55,0,0,1,.95,4.86q0,5.94-3.59,5.94a3,3,0,0,1-2.75-1.41m-4.67-1.2a4.15,4.15,0,0,1-1.45,3.26,5.78,5.78,0,0,1-3.91,1.27,7.84,7.84,0,0,1-4.44-1.46L44.93,55a7.58,7.58,0,0,0,3.35.92,3.54,3.54,0,0,0,2.21-.62,2.12,2.12,0,0,0,.85-1.73c0-.93-.64-1.72-1.83-2.38l-3.28-1.86A3.73,3.73,0,0,1,44.45,46a3.84,3.84,0,0,1,1.33-3.06,5,5,0,0,1,3.43-1.17,7.16,7.16,0,0,1,3.95,1.15l-.6,1.34a7.64,7.64,0,0,0-3-.64,2.67,2.67,0,0,0-1.85.58,1.93,1.93,0,0,0-.7,1.48c0,.92.66,1.72,1.88,2.4S52.24,50,52.24,50a3.69,3.69,0,0,1,1.82,3.3"/><path class="cls-2" d="M80.52,36.74a8.61,8.61,0,0,0-3.66.53c-.28.11-.73.11-.77.47.15.15.17.39.3.6a4.34,4.34,0,0,0,1,1.15c.4.3.8.6,1.21.87.74.45,1.57.72,2.28,1.17.42.26.83.6,1.25.88.2.16.33.4.6.49v0c-.13-.17-.17-.42-.3-.61l-.57-.54a8.66,8.66,0,0,0-2-1.91c-.6-.41-1.92-1-2.17-1.67l0,0A7.34,7.34,0,0,0,79,37.77c.64-.16,1.22-.13,1.88-.3.3-.07.6-.17.91-.26V37c-.34-.34-.59-.79-1-1.11a24.64,24.64,0,0,0-3.11-2.32c-.58-.38-1.34-.62-2-.94-.22-.12-.6-.17-.73-.36a8.06,8.06,0,0,1-.78-1.45c-.54-1-1.07-2.19-1.54-3.29a21.76,21.76,0,0,0-1-2.14,19.12,19.12,0,0,0-7.3-7.06A9.46,9.46,0,0,0,62,17.6l-1.42-.07c-.3-.14-.6-.5-.87-.66-1.07-.68-3.84-2.15-4.63-.21-.51,1.22.75,2.43,1.18,3.05a8.24,8.24,0,0,1,1,1.42c.14.32.17.66.31,1a21.22,21.22,0,0,0,1,2.52,7.7,7.7,0,0,0,.7,1.17c.15.21.41.3.47.64a5.24,5.24,0,0,0-.44,1.42,8.29,8.29,0,0,0,.55,6.33c.3.47,1,1.51,2,1.11s.66-1.41.91-2.35c0-.23,0-.38.13-.53v0c.26.53.53,1,.77,1.56a10.52,10.52,0,0,0,2.45,2.53c.45.34.81.92,1.38,1.13v-.06h0a1.91,1.91,0,0,0-.43-.37,9.32,9.32,0,0,1-1-1.13,24.35,24.35,0,0,1-2.11-3.44,19.29,19.29,0,0,1-.81-1.81c-.12-.22-.12-.56-.31-.68a7.59,7.59,0,0,0-.9,1.29,10.47,10.47,0,0,0-.53,2.85l-.08,0c-.6-.15-.81-.77-1-1.3a8.11,8.11,0,0,1-.17-5c.13-.4.7-1.64.47-2s-.49-.57-.7-.85A8,8,0,0,1,59.14,24c-.45-1-.68-2.22-1.16-3.28A10.32,10.32,0,0,0,57,19.24a9.92,9.92,0,0,1-1-1.47c-.09-.21-.22-.55-.07-.77a.31.31,0,0,1,.26-.25c.25-.2,1,.06,1.19.17a9.91,9.91,0,0,1,1.87.94c.26.19.54.55.88.65h.4c.6.13,1.28,0,1.85.2A12.36,12.36,0,0,1,65.08,20,16.77,16.77,0,0,1,71,26.46c.23.44.33.83.53,1.28.4.93.89,1.87,1.28,2.78A12.86,12.86,0,0,0,74.11,33c.29.4,1.42.61,1.93.81a13.59,13.59,0,0,1,1.3.53c.64.4,1.28.85,1.88,1.28.3.23,1.25.7,1.3,1.08M61.29,20.35a2.86,2.86,0,0,0-.77.1v0h0a6.66,6.66,0,0,0,.61.77c.15.3.28.6.43.9l0,0a1.08,1.08,0,0,0,.39-.95,3.84,3.84,0,0,1-.22-.39c-.11-.19-.36-.28-.51-.44"/><path class="cls-3" d="M82.32,57.57h.39V55.66h-.59L81.64,57l-.52-1.3h-.56v1.91h.37V56.11h0l.54,1.46h.29l.54-1.46v1.46Zm-3.15,0h.41V56h.54v-.32H78.61V56h.56v1.59Z"/></svg>