<svg id="Layer_1" data-name="Layer 1" xmlns="http://www.w3.org/2000/svg" viewBox="0 0 100 75"><defs><style>.cls-1{fill:none;stroke:#b4ba02;stroke-miterlimit:10;stroke-width:5.22px;}.cls-2{fill:#146770;}</style></defs><circle class="cls-1" cx="53" cy="37" r="24"/><path class="cls-2" d="M57.93,24.66a.4.4,0,0,1,.29-.12h4a.41.41,0,0,1,.41.41V48.23a.42.42,0,0,1-.12.3.4.4,0,0,1-.29.12H58.36a.5.5,0,0,1-.48-.28L49,33.63c-.05-.07-.09-.1-.14-.08s-.07.06-.07.15l.07,14.53a.42.42,0,0,1-.12.3.4.4,0,0,1-.29.12h-4a.38.38,0,0,1-.29-.12.39.39,0,0,1-.13-.3V25a.37.37,0,0,1,.13-.29.38.38,0,0,1,.29-.12h3.89a.48.48,0,0,1,.48.28l8.89,14.67c0,.06.09.09.13.08s.07-.06.07-.15l0-14.47A.4.4,0,0,1,57.93,24.66Z"/></svg>