<?xml version="1.0" encoding="UTF-8"?>
<svg xmlns="http://www.w3.org/2000/svg" xmlns:xlink="http://www.w3.org/1999/xlink" width="100px" height="75px" viewBox="0 0 100 75" version="1.1">
<g id="surface1">
<path style=" stroke:none;fill-rule:nonzero;fill:rgb(100%,100%,100%);fill-opacity:1;" d="M 46.824219 4.078125 C 66.640625 3.050781 79.777344 10.296875 87.289062 19.128906 C 91.054688 23.558594 94.75 30.28125 94.769531 37.191406 C 94.785156 44.699219 91.53125 51.199219 87.289062 55.972656 C 82.925781 60.875 77.285156 64.921875 70.222656 67.582031 C 58.410156 72.027344 41.910156 72.148438 31.097656 67.871094 C 19.058594 63.101562 9.804688 56.300781 6.359375 44.503906 C 4.980469 39.78125 4.824219 33.679688 6.742188 28.449219 C 7.195312 27.21875 8.011719 25.925781 8.660156 24.71875 C 11.777344 18.917969 17.078125 13.875 23.621094 10.386719 C 26.246094 8.984375 29.4375 7.589844 32.25 6.65625 C 35.75 5.5 41.644531 4.347656 46.824219 4.078125 Z M 46.824219 4.078125 "/>
<path style=" stroke:none;fill-rule:nonzero;fill:rgb(0%,0%,0%);fill-opacity:1;" d="M 84.410156 38.027344 C 84.410156 52.023438 69.230469 63.371094 50.503906 63.371094 C 31.777344 63.371094 16.59375 52.023438 16.59375 38.027344 C 16.59375 24.027344 31.777344 12.679688 50.503906 12.679688 C 69.230469 12.679688 84.410156 24.027344 84.410156 38.027344 Z M 84.410156 38.027344 "/>
<path style=" stroke:none;fill-rule:nonzero;fill:rgb(0%,0%,0%);fill-opacity:1;" d="M 46.824219 4.078125 C 66.640625 3.050781 79.777344 10.296875 87.289062 19.128906 C 91.054688 23.558594 94.75 30.28125 94.769531 37.191406 C 94.785156 44.699219 91.53125 51.199219 87.289062 55.972656 C 82.925781 60.875 77.285156 64.921875 70.222656 67.582031 C 58.410156 72.027344 41.910156 72.148438 31.097656 67.871094 C 19.058594 63.101562 9.804688 56.300781 6.359375 44.503906 C 4.980469 39.78125 4.824219 33.679688 6.742188 28.449219 C 7.195312 27.21875 8.011719 25.925781 8.660156 24.71875 C 11.777344 18.917969 17.078125 13.875 23.621094 10.386719 C 26.246094 8.984375 29.4375 7.589844 32.25 6.65625 C 35.75 5.5 41.644531 4.347656 46.824219 4.078125 Z M 40.113281 6.515625 C 32.753906 7.941406 27.355469 10.496094 22.660156 13.253906 C 15.890625 17.226562 11.574219 22.773438 9.042969 29.449219 C 6.230469 36.882812 8.039062 45.875 11.921875 51.527344 C 15.949219 57.390625 21.355469 61.941406 28.988281 65.144531 C 36.417969 68.265625 46.863281 70.265625 57.753906 68.730469 C 67.433594 67.363281 74.78125 64.214844 80.769531 59.554688 C 88.777344 53.320312 95.21875 41.84375 90.933594 29.738281 C 89.789062 26.503906 88.289062 23.128906 85.945312 20.277344 C 84.679688 18.734375 82.820312 17.21875 80.960938 15.6875 C 73.933594 9.921875 62.578125 4.953125 47.976562 5.65625 C 45.195312 5.789062 42.753906 6.003906 40.113281 6.515625 Z M 40.113281 6.515625 "/>
<path style="fill:none;stroke-width:2;stroke-linecap:butt;stroke-linejoin:miter;stroke:rgb(100%,100%,100%);stroke-opacity:1;stroke-miterlimit:4;" d="M 316.036984 576.8027 L 578.187383 314.658332 " transform="matrix(0.14947,0,0,0.111729,5.312765,3.980337)"/>
<path style="fill:none;stroke-width:2;stroke-linecap:butt;stroke-linejoin:miter;stroke:rgb(100%,100%,100%);stroke-opacity:1;stroke-miterlimit:4;" d="M 293.143579 556.035328 L 556.417741 292.737217 " transform="matrix(0.14947,0,0,0.111729,5.312765,3.980337)"/>
<path style="fill:none;stroke-width:2;stroke-linecap:butt;stroke-linejoin:miter;stroke:rgb(100%,100%,100%);stroke-opacity:1;stroke-miterlimit:4;" d="M 270.224039 535.267956 L 534.648098 270.851064 " transform="matrix(0.14947,0,0,0.111729,5.312765,3.980337)"/>
<path style="fill:none;stroke-width:2;stroke-linecap:butt;stroke-linejoin:miter;stroke:rgb(100%,100%,100%);stroke-opacity:1;stroke-miterlimit:4;" d="M 247.3045 514.500584 L 512.878456 248.964911 " transform="matrix(0.14947,0,0,0.111729,5.312765,3.980337)"/>
<path style="fill:none;stroke-width:2;stroke-linecap:butt;stroke-linejoin:miter;stroke:rgb(100%,100%,100%);stroke-opacity:1;stroke-miterlimit:4;" d="M 224.384961 493.768174 L 491.108814 227.043796 " transform="matrix(0.14947,0,0,0.111729,5.312765,3.980337)"/>
<path style="fill:none;stroke-width:2;stroke-linecap:butt;stroke-linejoin:miter;stroke:rgb(100%,100%,100%);stroke-opacity:1;stroke-miterlimit:4;" d="M 201.465421 473.000802 L 469.313037 205.157644 " transform="matrix(0.14947,0,0,0.111729,5.312765,3.980337)"/>
<path style="fill:none;stroke-width:2;stroke-linecap:butt;stroke-linejoin:miter;stroke:rgb(100%,100%,100%);stroke-opacity:1;stroke-miterlimit:4;" d="M 178.545882 452.23343 L 447.543395 183.236529 " transform="matrix(0.14947,0,0,0.111729,5.312765,3.980337)"/>
<path style="fill:none;stroke-width:2;stroke-linecap:butt;stroke-linejoin:miter;stroke:rgb(100%,100%,100%);stroke-opacity:1;stroke-miterlimit:4;" d="M 155.626342 431.466058 L 425.773753 161.350376 " transform="matrix(0.14947,0,0,0.111729,5.312765,3.980337)"/>
<path style="fill:none;stroke-width:2;stroke-linecap:butt;stroke-linejoin:miter;stroke:rgb(100%,100%,100%);stroke-opacity:1;stroke-miterlimit:4;" d="M 132.706803 410.733648 L 404.00411 139.429261 " transform="matrix(0.14947,0,0,0.111729,5.312765,3.980337)"/>
<path style="fill:none;stroke-width:2;stroke-linecap:butt;stroke-linejoin:miter;stroke:rgb(100%,100%,100%);stroke-opacity:1;stroke-miterlimit:4;" d="M 109.787264 389.966276 L 382.234468 117.543108 " transform="matrix(0.14947,0,0,0.111729,5.312765,3.980337)"/>
<path style="fill:none;stroke-width:2;stroke-linecap:butt;stroke-linejoin:miter;stroke:rgb(100%,100%,100%);stroke-opacity:1;stroke-miterlimit:4;" d="M 86.893858 369.198904 L 360.464826 95.621993 " transform="matrix(0.14947,0,0,0.111729,5.312765,3.980337)"/>
<path style="fill:none;stroke-width:2;stroke-linecap:butt;stroke-linejoin:miter;stroke:rgb(100%,100%,100%);stroke-opacity:1;stroke-miterlimit:4;" d="M 63.974319 348.431533 L 338.695183 73.735841 " transform="matrix(0.14947,0,0,0.111729,5.312765,3.980337)"/>
<path style="fill:none;stroke-width:2;stroke-linecap:butt;stroke-linejoin:miter;stroke:rgb(100%,100%,100%);stroke-opacity:1;stroke-miterlimit:4;" d="M 41.054779 327.664161 L 316.925541 51.814726 " transform="matrix(0.14947,0,0,0.111729,5.312765,3.980337)"/>
<path style="fill:none;stroke-width:2;stroke-linecap:butt;stroke-linejoin:miter;stroke:rgb(100%,100%,100%);stroke-opacity:1;stroke-miterlimit:4;" d="M 18.13524 306.931751 L 295.129765 29.928573 " transform="matrix(0.14947,0,0,0.111729,5.312765,3.980337)"/>
<path style="fill:none;stroke-width:2;stroke-linecap:butt;stroke-linejoin:miter;stroke:rgb(100%,100%,100%);stroke-opacity:1;stroke-miterlimit:4;" d="M 18.030704 309.588855 L 285.407908 576.942547 " transform="matrix(0.14947,0,0,0.111729,5.312765,3.980337)"/>
<path style="fill:none;stroke-width:2;stroke-linecap:butt;stroke-linejoin:miter;stroke:rgb(100%,100%,100%);stroke-opacity:1;stroke-miterlimit:4;" d="M 39.721944 287.562855 L 307.621828 555.475937 " transform="matrix(0.14947,0,0,0.111729,5.312765,3.980337)"/>
<path style="fill:none;stroke-width:2;stroke-linecap:butt;stroke-linejoin:miter;stroke:rgb(100%,100%,100%);stroke-opacity:1;stroke-miterlimit:4;" d="M 61.413184 265.571816 L 329.835749 534.009327 " transform="matrix(0.14947,0,0,0.111729,5.312765,3.980337)"/>
<path style="fill:none;stroke-width:2;stroke-linecap:butt;stroke-linejoin:miter;stroke:rgb(100%,100%,100%);stroke-opacity:1;stroke-miterlimit:4;" d="M 83.104425 243.580778 L 352.023536 512.542717 " transform="matrix(0.14947,0,0,0.111729,5.312765,3.980337)"/>
<path style="fill:none;stroke-width:2;stroke-linecap:butt;stroke-linejoin:miter;stroke:rgb(100%,100%,100%);stroke-opacity:1;stroke-miterlimit:4;" d="M 104.769531 221.589739 L 374.237457 491.076107 " transform="matrix(0.14947,0,0,0.111729,5.312765,3.980337)"/>
<path style="fill:none;stroke-width:2;stroke-linecap:butt;stroke-linejoin:miter;stroke:rgb(100%,100%,100%);stroke-opacity:1;stroke-miterlimit:4;" d="M 126.460771 199.598701 L 396.425243 469.609497 " transform="matrix(0.14947,0,0,0.111729,5.312765,3.980337)"/>
<path style="fill:none;stroke-width:2;stroke-linecap:butt;stroke-linejoin:miter;stroke:rgb(100%,100%,100%);stroke-opacity:1;stroke-miterlimit:4;" d="M 148.152011 177.607662 L 418.639164 448.107925 " transform="matrix(0.14947,0,0,0.111729,5.312765,3.980337)"/>
<path style="fill:none;stroke-width:2;stroke-linecap:butt;stroke-linejoin:miter;stroke:rgb(100%,100%,100%);stroke-opacity:1;stroke-miterlimit:4;" d="M 169.817118 155.616623 L 440.853085 426.641315 " transform="matrix(0.14947,0,0,0.111729,5.312765,3.980337)"/>
<path style="fill:none;stroke-width:2;stroke-linecap:butt;stroke-linejoin:miter;stroke:rgb(100%,100%,100%);stroke-opacity:1;stroke-miterlimit:4;" d="M 191.508358 133.625585 L 463.040871 405.174705 " transform="matrix(0.14947,0,0,0.111729,5.312765,3.980337)"/>
<path style="fill:none;stroke-width:2;stroke-linecap:butt;stroke-linejoin:miter;stroke:rgb(100%,100%,100%);stroke-opacity:1;stroke-miterlimit:4;" d="M 213.199598 111.634546 L 485.254792 383.708095 " transform="matrix(0.14947,0,0,0.111729,5.312765,3.980337)"/>
<path style="fill:none;stroke-width:2;stroke-linecap:butt;stroke-linejoin:miter;stroke:rgb(100%,100%,100%);stroke-opacity:1;stroke-miterlimit:4;" d="M 234.864704 89.643508 L 507.442579 362.241485 " transform="matrix(0.14947,0,0,0.111729,5.312765,3.980337)"/>
<path style="fill:none;stroke-width:2;stroke-linecap:butt;stroke-linejoin:miter;stroke:rgb(100%,100%,100%);stroke-opacity:1;stroke-miterlimit:4;" d="M 256.555945 67.652469 L 529.6565 340.739913 " transform="matrix(0.14947,0,0,0.111729,5.312765,3.980337)"/>
<path style="fill:none;stroke-width:2;stroke-linecap:butt;stroke-linejoin:miter;stroke:rgb(100%,100%,100%);stroke-opacity:1;stroke-miterlimit:4;" d="M 278.247185 45.66143 L 551.87042 319.273303 " transform="matrix(0.14947,0,0,0.111729,5.312765,3.980337)"/>
<path style="fill:none;stroke-width:2;stroke-linecap:butt;stroke-linejoin:miter;stroke:rgb(100%,100%,100%);stroke-opacity:1;stroke-miterlimit:4;" d="M 299.912291 23.670392 L 574.058207 297.806693 " transform="matrix(0.14947,0,0,0.111729,5.312765,3.980337)"/>
<path style=" stroke:none;fill-rule:nonzero;fill:rgb(0%,0%,0%);fill-opacity:1;" d="M 78.660156 15.832031 C 75.132812 13.195312 70.796875 10.820312 65.617188 9.382812 C 60.25 7.890625 54.179688 6.632812 47.015625 7.089844 C 35.609375 7.816406 27.597656 11.640625 21.507812 16.121094 C 17.246094 19.253906 14.039062 23.097656 11.921875 27.585938 C 8.8125 34.175781 9 41.957031 12.496094 48.660156 C 15.476562 54.378906 20.359375 58.992188 27.261719 62.566406 C 33.753906 65.925781 43.070312 68.53125 53.535156 67.871094 C 66.28125 67.066406 75.609375 62.175781 81.726562 56.542969 C 83.292969 55.105469 84.851562 53.476562 85.753906 51.527344 C 86.640625 50.125 87.074219 49.167969 87.480469 48.660156 C 89.179688 45.8125 90.082031 42.808594 90.355469 39.484375 C 91.207031 29.261719 85.945312 21.277344 78.660156 15.832031 Z M 74.902344 46.976562 C 74.878906 47.015625 74.855469 47.050781 74.832031 47.09375 C 74.199219 48.445312 73.109375 49.574219 72.015625 50.574219 C 67.734375 54.488281 61.214844 57.882812 52.300781 58.441406 C 44.984375 58.898438 38.46875 57.089844 33.925781 54.757812 C 29.984375 52.730469 26.984375 50.21875 24.882812 47.203125 C 24.753906 47.023438 23.53125 44.921875 23.527344 44.828125 C 21.863281 40.964844 21.71875 34.753906 23.425781 31.027344 C 24.570312 28.539062 26.46875 25.847656 28.988281 23.71875 C 32.464844 20.773438 35.945312 18.886719 41.453125 17.554688 C 43.96875 16.945312 46.222656 16.324219 49.316406 16.261719 C 56.867188 16.113281 64.558594 18.648438 68.6875 21.421875 C 72.480469 23.976562 76.804688 28.945312 77.890625 33.609375 C 79.011719 38.40625 77.816406 43.09375 74.902344 46.976562 Z M 74.902344 46.976562 "/>
<path style="fill-rule:nonzero;fill:rgb(100%,100%,100%);fill-opacity:1;stroke-width:6;stroke-linecap:butt;stroke-linejoin:miter;stroke:rgb(0%,0%,0%);stroke-opacity:1;stroke-miterlimit:4;" d="M 377.76555 426.046963 C 365.325754 426.046963 354.401732 418.145572 350.612298 406.433334 L 336.735132 364.199352 L 267.427699 364.199352 L 254.543625 406.048753 C 250.675789 418.005725 239.673365 426.012001 227.155167 426.012001 C 224.175888 426.012001 221.170476 425.522534 218.295733 424.578563 C 203.347071 420.103439 194.879647 404.020962 199.453101 388.74261 L 257.967182 203.44451 C 261.756616 191.627386 272.941978 183.411338 285.146567 183.411338 L 316.27219 183.411338 C 328.555182 183.411338 339.740544 191.487539 343.451576 203.059929 L 404.997203 388.323067 C 409.9104 403.461572 401.756584 419.718858 386.834056 424.578563 C 383.880912 425.557496 380.849365 426.046963 377.76555 426.046963 Z M 377.76555 426.046963 " transform="matrix(0.14947,0,0,0.111729,5.312765,3.980337)"/>
<path style=" stroke:none;fill-rule:nonzero;fill:rgb(100%,100%,100%);fill-opacity:1;" d="M 27.433594 17.875 L 27.421875 17.863281 C 26.332031 16.746094 26.652344 15.183594 28.257812 14.308594 C 29.863281 13.429688 31.929688 13.675781 33.019531 14.792969 L 33.03125 14.804688 C 34.121094 15.921875 33.800781 17.484375 32.195312 18.359375 C 30.589844 19.238281 28.523438 18.992188 27.433594 17.875 Z M 31.566406 15.621094 L 31.558594 15.609375 C 31.007812 15.046875 29.988281 14.855469 29.195312 15.289062 C 28.40625 15.71875 28.34375 16.484375 28.890625 17.046875 L 28.902344 17.054688 C 29.453125 17.617188 30.472656 17.808594 31.257812 17.378906 C 32.054688 16.945312 32.117188 16.179688 31.566406 15.621094 Z M 31.566406 15.621094 "/>
<path style=" stroke:none;fill-rule:nonzero;fill:rgb(100%,100%,100%);fill-opacity:1;" d="M 37.949219 10.550781 L 39.585938 10.160156 L 44.183594 14.152344 L 42.359375 14.589844 L 41.5625 13.875 L 39.195312 14.445312 L 39.105469 15.367188 L 37.320312 15.796875 Z M 40.644531 13.003906 L 39.402344 11.867188 L 39.269531 13.335938 Z M 40.644531 13.003906 "/>
<path style=" stroke:none;fill-rule:nonzero;fill:rgb(100%,100%,100%);fill-opacity:1;" d="M 47.132812 11.753906 L 47.148438 9.046875 L 48.960938 9.054688 L 48.945312 11.730469 C 48.945312 12.425781 49.410156 12.757812 50.128906 12.757812 C 50.847656 12.761719 51.320312 12.445312 51.320312 11.773438 L 51.335938 9.0625 L 53.148438 9.066406 L 53.136719 11.738281 C 53.128906 13.292969 51.9375 13.96875 50.105469 13.964844 C 48.273438 13.957031 47.125 13.261719 47.132812 11.753906 Z M 47.132812 11.753906 "/>
<path style=" stroke:none;fill-rule:nonzero;fill:rgb(100%,100%,100%);fill-opacity:1;" d="M 59.699219 11.28125 L 57.851562 10.859375 L 58.308594 9.738281 L 63.710938 10.972656 L 63.253906 12.09375 L 61.40625 11.671875 L 59.984375 15.15625 L 58.273438 14.769531 Z M 59.699219 11.28125 "/>
<path style=" stroke:none;fill-rule:nonzero;fill:rgb(100%,100%,100%);fill-opacity:1;" d="M 68.539062 12.535156 L 70.027344 13.273438 L 68.691406 14.773438 L 70.597656 15.722656 L 71.933594 14.222656 L 73.421875 14.960938 L 69.851562 18.972656 L 68.367188 18.234375 L 69.722656 16.707031 L 67.8125 15.757812 L 66.457031 17.285156 L 64.96875 16.542969 Z M 68.539062 12.535156 "/>
<path style=" stroke:none;fill-rule:nonzero;fill:rgb(100%,100%,100%);fill-opacity:1;" d="M 73.792969 56.367188 L 73.804688 56.378906 C 74.949219 57.464844 74.710938 59.035156 73.148438 59.957031 C 71.589844 60.878906 69.515625 60.691406 68.367188 59.605469 L 68.355469 59.59375 C 67.210938 58.507812 67.449219 56.9375 69.011719 56.015625 C 70.570312 55.097656 72.644531 55.28125 73.792969 56.367188 Z M 69.777344 58.738281 L 69.785156 58.75 C 70.363281 59.296875 71.394531 59.460938 72.164062 59.003906 C 72.929688 58.550781 72.953125 57.785156 72.378906 57.238281 L 72.367188 57.226562 C 71.789062 56.683594 70.761719 56.519531 69.996094 56.972656 C 69.222656 57.425781 69.199219 58.195312 69.777344 58.738281 Z M 69.777344 58.738281 "/>
<path style=" stroke:none;fill-rule:nonzero;fill:rgb(100%,100%,100%);fill-opacity:1;" d="M 63.710938 64 L 62.097656 64.445312 L 57.273438 60.609375 L 59.066406 60.109375 L 59.90625 60.796875 L 62.238281 60.152344 L 62.269531 59.226562 L 64.03125 58.738281 Z M 60.875 61.636719 L 62.183594 62.734375 L 62.230469 61.261719 Z M 60.875 61.636719 "/>
<path style=" stroke:none;fill-rule:nonzero;fill:rgb(100%,100%,100%);fill-opacity:1;" d="M 54.472656 63.082031 L 54.632812 65.785156 L 52.820312 65.84375 L 52.660156 63.171875 C 52.621094 62.476562 52.132812 62.160156 51.414062 62.183594 C 50.699219 62.210938 50.246094 62.539062 50.285156 63.214844 L 50.445312 65.921875 L 48.636719 65.984375 L 48.476562 63.316406 C 48.386719 61.761719 49.53125 61.042969 51.363281 60.980469 C 53.191406 60.921875 54.382812 61.578125 54.472656 63.082031 Z M 54.472656 63.082031 "/>
<path style=" stroke:none;fill-rule:nonzero;fill:rgb(100%,100%,100%);fill-opacity:1;" d="M 41.882812 63.964844 L 43.75 64.34375 L 43.34375 65.472656 L 37.886719 64.371094 L 38.292969 63.242188 L 40.160156 63.617188 L 41.429688 60.097656 L 43.15625 60.445312 Z M 41.882812 63.964844 "/>
<path style=" stroke:none;fill-rule:nonzero;fill:rgb(100%,100%,100%);fill-opacity:1;" d="M 33.0625 62.984375 L 31.53125 62.300781 L 32.769531 60.753906 L 30.804688 59.871094 L 29.5625 61.417969 L 28.03125 60.730469 L 31.34375 56.601562 L 32.875 57.285156 L 31.617188 58.855469 L 33.585938 59.738281 L 34.84375 58.167969 L 36.375 58.855469 Z M 33.0625 62.984375 "/>
</g>
</svg>
