<?xml version="1.0" standalone="no"?>
<!DOCTYPE svg PUBLIC "-//W3C//DTD SVG 20010904//EN"
 "http://www.w3.org/TR/2001/REC-SVG-20010904/DTD/svg10.dtd">
<svg version="1.0" xmlns="http://www.w3.org/2000/svg"
 width="124.000000pt" height="123.000000pt" viewBox="0 0 124.000000 123.000000"
 preserveAspectRatio="xMidYMid meet">

<g transform="translate(0.000000,123.000000) scale(0.100000,-0.100000)"
fill="#000000" stroke="none">
<path d="M552 1201 c-60 -15 -47 -21 49 -21 53 0 121 -7 153 -15 223 -58 399
-261 423 -489 3 -34 2 -57 -3 -55 -5 2 -41 22 -80 44 -64 35 -72 44 -82 81
-29 108 -157 234 -274 269 -57 16 -173 20 -183 6 -3 -5 -27 -17 -54 -26 -27
-8 -74 -31 -105 -50 -31 -18 -56 -31 -56 -28 0 10 -50 -39 -73 -71 -11 -16
-30 -56 -42 -89 -21 -57 -24 -60 -96 -97 -86 -44 -88 -49 -65 -158 24 -116 68
-196 155 -282 121 -121 245 -167 451 -171 109 -2 141 6 229 51 46 23 131 96
131 112 0 5 13 28 29 51 39 58 86 153 102 207 7 25 19 51 28 58 12 10 16 31
15 96 -3 252 -168 475 -404 550 -85 27 -198 39 -248 27z m166 -345 c64 -33 96
-117 73 -189 -15 -44 -79 -108 -155 -155 l-60 -37 118 -3 118 -3 -6 -31 c-3
-17 -6 -39 -6 -49 0 -18 -11 -19 -190 -19 l-190 0 0 49 0 49 83 60 c164 119
211 194 150 242 -44 35 -105 8 -118 -51 -6 -28 -9 -29 -43 -23 -71 13 -72 14
-57 58 17 50 60 93 111 112 47 17 129 12 172 -10z m-469 -390 c67 -152 210
-246 372 -246 42 0 58 -3 53 -11 -4 -8 -35 -10 -89 -7 -68 3 -95 10 -147 36
-135 66 -227 198 -236 337 -7 109 10 130 19 23 4 -50 16 -105 28 -132z m748
-19 c-23 -50 -75 -122 -83 -114 -3 2 12 30 31 63 19 32 43 83 53 114 16 52 17
53 20 22 2 -19 -7 -54 -21 -85z m-147 48 c14 -19 14 -19 -2 -6 -10 7 -18 18
-18 24 0 6 1 8 3 6 1 -2 9 -13 17 -24z m35 -23 l-39 -37 35 41 c19 22 36 39
39 37 2 -2 -13 -20 -35 -41z m-475 34 c0 -2 -8 -10 -17 -17 -16 -13 -17 -12
-4 4 13 16 21 21 21 13z m-40 -39 c0 -2 -12 -14 -27 -28 l-28 -24 24 28 c23
25 31 32 31 24z m210 -130 c0 -2 -12 -14 -27 -28 l-28 -24 24 28 c23 25 31 32
31 24z m130 -42 c-24 -25 -46 -45 -49 -45 -3 0 15 20 39 45 24 25 46 45 49 45
3 0 -15 -20 -39 -45z m-120 -35 c0 -5 -5 -10 -11 -10 -5 0 -7 5 -4 10 3 6 8
10 11 10 2 0 4 -4 4 -10z m-120 -110 c-10 -18 -9 -24 1 -31 7 -4 10 -11 6 -15
-10 -10 -59 8 -65 24 -2 7 2 10 11 6 10 -3 18 5 26 27 8 24 14 30 22 22 8 -8
7 -17 -1 -33z m180 -1 c13 -24 10 -61 -7 -66 -7 -3 -13 9 -15 29 -4 42 -22 43
-26 1 -2 -21 -9 -33 -18 -33 -17 0 -19 42 -4 71 14 25 56 25 70 -2z"/>
<path d="M570 1112 c0 -34 16 -52 47 -52 24 0 43 26 43 59 0 31 -28 26 -32 -6
-4 -39 -28 -42 -28 -4 0 21 -5 31 -15 31 -10 0 -15 -10 -15 -28z"/>
<path d="M753 1085 c-2 -50 11 -59 29 -20 6 14 17 25 25 25 22 0 14 20 -13 30
-38 15 -39 14 -41 -35z"/>
<path d="M433 1113 c-8 -3 -13 -23 -13 -49 0 -44 0 -44 24 -29 13 8 31 13 40
9 23 -9 19 7 -12 42 -15 18 -33 30 -39 27z m22 -43 c3 -5 1 -10 -4 -10 -6 0
-11 5 -11 10 0 6 2 10 4 10 3 0 8 -4 11 -10z"/>
<path d="M210 1035 c-63 -34 -157 -203 -166 -296 -5 -61 4 -49 31 41 22 72 73
164 125 223 23 26 40 47 38 47 -1 -1 -14 -7 -28 -15z"/>
<path d="M292 1043 c-22 -9 -34 -41 -22 -63 16 -30 67 -27 82 5 9 21 8 28 -7
45 -18 20 -29 23 -53 13z m34 -34 c10 -17 -13 -36 -27 -22 -12 12 -4 33 11 33
5 0 12 -5 16 -11z"/>
<path d="M886 1021 c-17 -18 -24 -31 -17 -35 6 -4 16 -4 21 -1 17 10 32 -5 20
-20 -23 -28 12 -27 41 1 22 21 26 30 17 41 -8 10 -13 11 -18 2 -4 -6 -13 -8
-19 -4 -8 5 -9 11 -2 19 10 12 5 26 -9 26 -3 0 -19 -13 -34 -29z"/>
</g>
</svg>
