<svg id="Layer_1" data-name="Layer 1" xmlns="http://www.w3.org/2000/svg" viewBox="0 0 100 75"><defs><style>.cls-1{fill:#b21e25;}.cls-1,.cls-2{fill-rule:evenodd;}.cls-2{fill:#9ca3a4;}</style></defs><path id="path0" class="cls-1" d="M5.49,38.13v8.79H26.87l21.38,0V29.34H5.49v8.79m11.44-6.46a6.37,6.37,0,0,1,2,.64,5.29,5.29,0,0,1,.77.48c3.41,2.53,3.15,9.2-.44,11.36C15.19,46.6,10.37,44,10,39.07c-.36-4.72,2.71-8,6.93-7.4m9.27.57.53.8.95,1.46.93,1.42c.15.22.55.84.9,1.38s.74,1.12.85,1.3l1.73,2.63.43.65v-10h.82l.81,0V44.79h-.86l-.86,0-.13-.19c-.12-.18-.9-1.35-1.51-2.3L29.91,41l-2.48-3.81-1-1.48-.59-.9,0,5,0,5H24.2V38.38c0-3.53,0-6.44,0-6.48s.23-.06.89,0l.86,0,.25.37m20,.37c0,.66,0,.78-.08.8s-1.72,0-3.73,0H38.7V37.3h3.48c3.12,0,3.48,0,3.51.08a12.4,12.4,0,0,1,0,1.49l-3.49,0-3.48,0v2.14l0,2.14h3.87l3.87,0,0,.79v.78H37v-13h9.17v.77m-31,.61q-3.4.73-3.4,5.22c0,3.09,1.66,5.07,4.25,5.07,3,0,4.72-2.6,4.23-6.28-.37-2.84-2.54-4.55-5.08-4"/><path id="path1" class="cls-2" d="M48.32,29.4c0,.05,0,2.36,0,8.68v8.68c0,.05,4.65.06,23.07.06H94.51V29.34H71.38c-19.48,0-23.11,0-23.06.06m25,2.31A4.86,4.86,0,0,1,77.13,35c.09.27.12.46.07.46l-.71.17c-.91.23-.93.23-1,0a3.24,3.24,0,0,0-3.29-2.45,4.91,4.91,0,0,0-1.4.2l-.23.08c-2.14.59-3.2,4.48-2.08,7.64a3.76,3.76,0,0,0,6.68.75,4.48,4.48,0,0,0,.56-1.46c0-.13,0-.12.84.09l.8.2c.14,0,.14,0,0,.52A5.1,5.1,0,0,1,72.19,45c-3,0-4.81-1.42-5.65-4.47a10.1,10.1,0,0,1,0-4.64,5.51,5.51,0,0,1,3.6-4,7.53,7.53,0,0,1,1.65-.35,9.09,9.09,0,0,1,1.56.09m-13.17.83c0,.37,0,.73,0,.79l0,.11H56V44.82l-.87,0h-.86V39.23c0-3.06,0-5.61,0-5.67v-.12h-4.1v-1.6h5l5,0v.67m3.66,5.8v6.48l-.86,0h-.87V38.38c0-3.53,0-6.44,0-6.48s.22-.06.86,0l.84,0,0,6.47M81.13,35c0,1.73,0,3.15,0,3.15s.59-.57,1.27-1.26l2.27-2.32,1.85-1.89.82-.84h1.12a4.89,4.89,0,0,1,1.12.05S88.44,33.1,87,34.51s-2.58,2.58-2.58,2.61a3.9,3.9,0,0,0,.36.56l.57.8.66.91c.73,1,1.78,2.47,2,2.77l.38.51c.1.13.26.35.35.49l.62.86.49.7c.05.09,0,.09-1.07.09H87.66l-1-1.51-1.43-2.09-.66-1-.8-1.17-.55-.8-1,1-1,1v4.49l-.86,0H79.4v-.28c0-.15,0-3.06,0-6.47v-6.2h1.7V35"/></svg>