<svg id="Layer_1" data-name="Layer 1" xmlns="http://www.w3.org/2000/svg" viewBox="0 0 100 75"><defs><style>.cls-1{fill:#4f4dff;fill-rule:evenodd;}</style></defs><path id="path4" class="cls-1" d="M48.32,10.4c-.19,0-.28.09-.21.13s-.08.09-.33.09c-2.28.06-6.33,3.92-6.39,6.08,0,.24,0,.37-.1.29s-.08-.08-.09,0-.07.62-.16,1.24a9.19,9.19,0,0,0,.47,4.43c.05.17.08.18.17.05s.09-.09,0,.08c-.13.45,1.48,2.89,1.78,2.7.07,0,.08,0,0,.05s1.17,1.31,1.36,1.23.14,0,.13.07,1.4.9,1.67.82.19,0,.07.05-.05.14.29.24a10.36,10.36,0,0,0,2.89.46,9.29,9.29,0,0,1,5.28,1.76,9,9,0,0,1,.25,14.21c-.39.3-.69.58-.67.64s0,.08-.07,0a2.42,2.42,0,0,0-.89.32,9,9,0,0,1-9.46-1,3.24,3.24,0,0,0-.85-.55s0,0,0,0-.12-.3-.34-.57a13,13,0,0,1-.89-1.28c-.27-.44-.53-.76-.58-.72s-.06,0,0-.05a1,1,0,0,0-.09-.57,10.56,10.56,0,0,1-.56-3.11,8.94,8.94,0,0,0-1.61-5.17c-.67-1-1.68-2-1.89-1.91s-.1,0-.06,0c.14-.22-1.39-1.12-2.7-1.59a9.56,9.56,0,0,0-6.34.26c-1.32.56-3.28,2.07-3.18,2.45,0,.06,0,.09-.08.05s-.94,1-.86,1.16,0,.12-.06.08c-.23-.14-1,1.83-1.25,3.19s.06,4.38.35,3.91c.05-.09.08,0,.08.26,0,.45.66,2,.83,1.84s.08,0,0,.09.72,1.25.88,1.15.09,0,.05,0,.69,1,.85.88.1,0,.06,0,1.66,1.4,2.16,1.43c.13,0,.22,0,.19.09-.16.26,2.41.75,4.18.8a6.52,6.52,0,0,1,1.28.1s.19.13.47.21a9.12,9.12,0,0,1,6.09,6.08c.07.28.16.49.2.47a5.7,5.7,0,0,1,.1,1.28c0,1.84.58,4.5.82,4.12,0-.08.08,0,.08.18,0,.68,2,3.36,2.32,3.15.08,0,.11,0,.06,0s.94,1,1.15.88.12,0,.09,0,1.39.85,1.84.83c.24,0,.35,0,.26.08-.47.29,2.67.57,3.91.35,1.43-.26,3.34-1,3.18-1.26,0-.06,0-.08.1,0,1,.38,4.45-4.61,4.12-5.93,0-.16,0-.27,0-.23s.25-.75.25-1.76a9.28,9.28,0,0,1,2.38-5.82c.25-.27.42-.54.37-.59s0-.06.05,0,.31-.07.51-.25a8.49,8.49,0,0,1,3-1.58,1.5,1.5,0,0,0,.59-.25,5.61,5.61,0,0,1,1.28-.1c1.93,0,4.34-.54,4.15-.85,0-.07,0-.09,0,0s1.18-.36,1.09-.52,0-.09,0,0c.27.17,2.27-1.5,2.11-1.76,0-.08,0-.1,0-.06s1-.94.88-1.15,0-.12,0-.09c.42.26,1.37-2.91,1.37-4.59,0-1.85-1.13-5.27-1.7-5.14-.07,0-.11,0-.07-.08.21-.33-2.34-2.66-2.68-2.44-.08,0-.1,0-.06,0,.25-.4-2.52-1.25-4.4-1.35A9.68,9.68,0,0,1,63.42,27a2.16,2.16,0,0,0-.6-.28c-.07,0-.11,0-.09-.05s-.2-.25-.51-.49a9.23,9.23,0,0,1-3.17-6.63c0-1.13-.12-1.94-.25-1.75s-.09,0,0-.19c.11-.55-.64-2.63-.89-2.48-.06,0-.07,0,0-.06s-.36-.95-.51-.86-.07,0,0-.09-1.41-1.82-1.62-1.74-.13,0-.1,0-.24-.39-.4-.29-.11,0-.06,0-.68-.63-.85-.53-.1,0-.06,0c.15-.24-1.83-1-2.31-.88-.18.05-.23,0-.14,0,.31-.21-2.3-.33-3.43-.17M40.83,36.66c0,.1,0,0,0-.2s0-.31,0-.2a.9.9,0,0,1,0,.4m36,1.13c0,.24,0,0,0-.42s0-.66,0-.43a6,6,0,0,1,0,.85m-44,8.52a.9.9,0,0,1-.4,0c-.1,0,0-.06.2-.06s.31,0,.2.06m34.55,0a.9.9,0,0,1-.4,0c-.11,0,0-.06.2-.06s.31,0,.2.06M41.06,54.84c0,.11-.05,0-.05-.2s0-.31.05-.2a.9.9,0,0,1,0,.4"/></svg>