<svg id="Layer_1" data-name="Layer 1" xmlns="http://www.w3.org/2000/svg" viewBox="0 0 100 75"><defs><style>.cls-1{fill:#404040;}</style></defs><path class="cls-1" d="M29.55,29.51a21.86,21.86,0,0,1,1.4-3L29.22,25c6.77-8.11,15.59-10.55,23.4-9.13A22.63,22.63,0,0,1,57.39,17,21.31,21.31,0,0,1,70,44.55a22,22,0,0,1-1.5,3.13,18.74,18.74,0,0,1,1.9,1.62c-7.51,8.88-17.52,11-25.85,8.47-.8-.2-1.6-.44-2.39-.72A21.34,21.34,0,0,1,29.55,29.51Zm38.15-19-4,3.73a29.05,29.05,0,0,0-4.22-2c-12.7-4.72-26.08.62-33.45,10.55a31.41,31.41,0,0,0-5.57,19.91A27.38,27.38,0,0,0,33.05,64.32L36.23,60a29.51,29.51,0,0,0,4.43,2.09C55,67.4,71,60.58,76.19,46.86a35.69,35.69,0,0,0,2.56-17.52s-1-12.34-11-18.81Z"/></svg>