<svg id="Layer_1" data-name="Layer 1" xmlns="http://www.w3.org/2000/svg" xmlns:xlink="http://www.w3.org/1999/xlink" viewBox="0 0 100 75"><defs><style>.cls-1{fill:url(#linear-gradient);}.cls-2{fill:url(#linear-gradient-2);}.cls-3{fill:url(#linear-gradient-3);}.cls-4{fill:url(#linear-gradient-4);}</style><linearGradient id="linear-gradient" x1="3093.06" y1="28.54" x2="3100.61" y2="28.54" gradientTransform="matrix(-1, 0.04, 0.04, 1, 3148.75, -135.11)" gradientUnits="userSpaceOnUse"><stop offset="0" stop-color="#f6921e"/><stop offset="0.02" stop-color="#f68f1e"/><stop offset="0.23" stop-color="#f26620"/><stop offset="0.44" stop-color="#f04622"/><stop offset="0.64" stop-color="#ee2f23"/><stop offset="0.83" stop-color="#ec2124"/><stop offset="1" stop-color="#ec1c24"/></linearGradient><linearGradient id="linear-gradient-2" x1="3094.87" y1="31.45" x2="3105.12" y2="31.45" xlink:href="#linear-gradient"/><linearGradient id="linear-gradient-3" x1="3095.49" y1="37.13" x2="3107.46" y2="37.13" xlink:href="#linear-gradient"/><linearGradient id="linear-gradient-4" x1="30.65" y1="36.59" x2="69" y2="36.59" gradientTransform="matrix(1, 0, 0, 1, 0, 0)" xlink:href="#linear-gradient"/></defs><path class="cls-1" d="M59.58,50.37a26.89,26.89,0,0,0-.51-16.31c-2.26-6.64-5-7.65-.14-23.52,0,0-9.43,8.26-5.94,17.73a19.28,19.28,0,0,0,2.77,5.59C58.06,37.51,60,41.93,59.58,50.37Z"/><path class="cls-2" d="M58.91,51.67s1.63-7.77-5.54-18.59a18.47,18.47,0,0,1-1-17.7s-9.14,13-1.32,21.69c0,0,.94,1,1.77,2C53.27,39.51,59.64,48.09,58.91,51.67Z"/><path class="cls-3" d="M58.57,51.85a10.74,10.74,0,0,0-.72-2.45c-.92-2.29-3.49-7.45-7.2-10.78-5.25-4.72-4.21-11.77-4.21-11.77-2,11.77,1.18,14.65,3.39,16.13C54.59,46.18,57.36,48.63,58.57,51.85Z"/><path class="cls-4" d="M68.3,39.14c-2.49-9.43-8.2-17.35-.16-31.34,0,0-15.46,5.24-8.53,24.85,4.23,12,3.08,18.8-.89,22.64a10.49,10.49,0,0,1-8.9,3,12.73,12.73,0,0,1-9.09-5.39c-2.9-3.86-3.92-9-.13-16.82,2.22-5,3.64-9.25,3.63-9.24a16.81,16.81,0,0,0,.66-2.22,2.19,2.19,0,0,0,2.48-1.15.73.73,0,0,1-1-.33,1.77,1.77,0,0,0,1.15-2.07,2.82,2.82,0,0,1-1.77.35s-1.85-.08-1.93-.12c-3.41-2.53-5.69-1.94-7-1A3.1,3.1,0,0,0,36,21a4.75,4.75,0,0,0-.67.94s-3.38.54-4.43,2.67a6.06,6.06,0,0,1,4.35-.84,9.71,9.71,0,0,1,2.12,3.08,7.09,7.09,0,0,1-.54,4.38c-2.84,5.3-6.2,9-6.2,14.37a19.73,19.73,0,0,0,4.54,12.61c5.83,7.15,15.15,7.15,15.22,7.15C61.33,65.39,69,56.54,69,45.63A34.28,34.28,0,0,0,68.3,39.14Z"/></svg>