<svg id="Layer_1" data-name="Layer 1" xmlns="http://www.w3.org/2000/svg" xmlns:xlink="http://www.w3.org/1999/xlink" viewBox="0 0 100 75"><defs><style>.cls-1{fill:url(#linear-gradient);}.cls-2{fill:#2165b6;}</style><linearGradient id="linear-gradient" x1="-908.62" y1="245.48" x2="-908.61" y2="245.46" gradientTransform="matrix(2500, 0, 0, -1643.57, 2271591, 403485.38)" gradientUnits="userSpaceOnUse"><stop offset="0" stop-color="#c9cbce"/><stop offset="1" stop-color="#7b7a81"/></linearGradient></defs><path class="cls-1" d="M56,52.75c-14.88,0-27.53-7.45-27.53-16.38S39.58,20,54.46,20C73.26,20,82,27.24,82,36.17s-9.6,16.58-26,16.58M50,11.08c-19.35,0-35.72,10.42-35.72,23.81C14.28,47.54,30.56,58,49.9,58s35.82-9.75,35.82-23.15S69.35,11.08,50,11.08"/><path class="cls-2" d="M43.85,25.54V64.92H55.74V49.61c3,0,4.75-.65,6.7,2.91,3,5.11,6.69,12.4,6.69,12.4H83.26s-8.92-14.59-9.67-15.31c-1.37-1.46-3-1.46-5.2-2.19,4.46-.73,8.62-2.58,10.06-6.55,1.27-3.64,1.12-8.28-1.59-11.39-2.35-2.46-4.75-3.94-10.7-3.94Zm11.89,8.2h7.81a3.66,3.66,0,0,1,0,7.3H55.74v-7.3Z"/></svg>