<svg id="Layer_1" data-name="Layer 1" xmlns="http://www.w3.org/2000/svg" viewBox="0 0 100 75"><defs><style>.cls-1{fill:#f60;}</style></defs><path class="cls-1" d="M72.14,31.89h-16a1.45,1.45,0,0,1-1.45-1.45h0V13.72a2.24,2.24,0,0,0-2.25-2.25H46.67a2.24,2.24,0,0,0-2.24,2.25V30.33a1.56,1.56,0,0,1-1.57,1.56l-5.26,0A1.55,1.55,0,0,1,36,30.35l0-16.63a2.23,2.23,0,0,0-2.25-2.24H28.1a2.23,2.23,0,0,0-2.24,2.24V60.53a2,2,0,0,0,2,2H72.14a2,2,0,0,0,2-2V33.89a2,2,0,0,0-2-2ZM64.62,49.46a2.6,2.6,0,0,1-2.6,2.6H57.49a2.61,2.61,0,0,1-2.6-2.6V44.94a2.61,2.61,0,0,1,2.6-2.6H62a2.6,2.6,0,0,1,2.6,2.6Z"/></svg>