<svg id="Layer_1" data-name="Layer 1" xmlns="http://www.w3.org/2000/svg" viewBox="0 0 100 75"><defs><style>.cls-1{fill:#c40022;}</style></defs><path class="cls-1" d="M49.69,26.33c-1,2-.51,3.72.84,3.72s3.38-1.52,4.4-3.55.5-3.71-.85-3.71C52.73,22.62,50.7,24.31,49.69,26.33Zm11.66-7.26a27.2,27.2,0,0,1-3.72,7.26c-3,4.4-7.27,7.1-9.46,6.26-2.37-1-1.69-5.41,1.18-9.8a16.55,16.55,0,0,1,2.21-2.71c-.85.17-1.86.34-2.88.51C38.7,32.92,34.48,48.81,35.16,63,29.24,60.63,25,54.89,24.51,47.62c-.84-12.84,9.29-26,22.81-29.4a23,23,0,0,1,14,.85Z"/><path d="M57.63,53.71l-3,1.86a23.91,23.91,0,0,0-2-8.62c-3-6.59-8.45-7.1-12-1.19-2.2,3.72-3.21,9-2.87,14A23,23,0,0,0,50.36,60C63.71,56.58,74,43.4,73.17,30.56,72.67,19.24,63.71,12,52.56,12.65c-1,1.18-2,2.2-3,3.38,6.59-.85,11.82.5,15.2,3.21C52.9,36.13,54.42,45.6,57.63,53.71Z"/></svg>