<svg id="Layer_1" data-name="Layer 1" xmlns="http://www.w3.org/2000/svg" xmlns:xlink="http://www.w3.org/1999/xlink" viewBox="0 0 100 75"><defs><style>.cls-1{fill:url(#linear-gradient);}.cls-2{fill:url(#radial-gradient);}.cls-3{fill:none;stroke:#dededd;stroke-linecap:round;stroke-miterlimit:2.68;stroke-width:0.57px;}.cls-4{fill:#dededd;}.cls-5{fill:#ee4544;}.cls-6{fill:#cb2026;}.cls-7{fill:#ababab;}</style><linearGradient id="linear-gradient" x1="147.63" y1="-3074.96" x2="147.63" y2="-3154.69" gradientTransform="matrix(0.67, 0, 0, -0.67, -48.71, -2051.62)" gradientUnits="userSpaceOnUse"><stop offset="0" stop-color="#f7f8f8"/><stop offset="1" stop-color="#cdcccc"/></linearGradient><radialGradient id="radial-gradient" cx="-1377.44" cy="-1564.13" r="0.03" gradientTransform="translate(1118201.82 1269738.38) scale(811.76)" gradientUnits="userSpaceOnUse"><stop offset="0" stop-color="#69cce3"/><stop offset="1" stop-color="#396fb6"/></radialGradient></defs><circle class="cls-1" cx="50.37" cy="37.2" r="27.63"/><circle class="cls-2" cx="50.37" cy="37.2" r="25.33"/><path class="cls-3" d="M50.37,13.5v4m0,43.39v-4m2.32-43.27-.17,1.72M48,60.8l.18-1.72M74.08,37.2h-4m-43.4,0h4M74,39.53l-1.72-.17M26.76,34.87l1.72.18M67.14,20.44l-2.85,2.84M33.6,54l2.85-2.84m32.25-29-1.33,1.09M32,52.25l1.34-1.1M67.14,54l-2.85-2.84M33.6,20.44l2.85,2.84m29,32.25L64.32,54.2m-29-35.33,1.09,1.33m23-4.9L57.9,19M41.29,59.11l1.55-3.72m18.71-39.1-.82,1.52M39.19,58.12,40,56.6M72.28,46.28l-3.72-1.54M28.46,28.13l3.72,1.54m39.1,18.72-1.52-.82M29.46,26l1.52.82m41.29,1.29-3.72,1.54M28.46,46.28l3.72-1.54M73.06,30.32l-1.65.51M27.68,44.09l1.65-.51M59.44,59.11,57.9,55.39M41.29,15.3,42.84,19M57.25,59.89l-.5-1.64M43.48,14.52,44,16.16M55,14l-.78,3.95M45.75,60.46l.78-4m10.73-42-.5,1.64M43.48,59.89,44,58.25M73.63,41.83l-4-.79M27.11,32.58l4,.79m42,10.72-1.65-.5M27.68,30.32l1.65.51M70.08,24l-3.35,2.24M30.65,50.38,34,48.14M71.28,26l-1.52.83M29.46,48.39,31,47.57m32.57,9.36-2.24-3.35M37.19,17.48l2.24,3.36M61.55,58.12l-.82-1.52M39.19,16.29,40,17.81m23.55-.33-2.24,3.36M37.19,56.92l2.24-3.35m26-34.7L64.32,20.2m-29,35.33,1.09-1.33m33.66-3.82-3.35-2.24M30.65,24,34,26.27m34.69,26-1.33-1.1M32,22.16l1.34,1.09m40.26,9.33-4,.79M27.11,41.83l4-.79M74,34.88l-1.72.17M26.76,39.54l1.72-.18M55,60.47l-.78-3.95M45.75,14l.78,3.95m6.17,42.9-.18-1.72M48.05,13.61l.17,1.72"/><path class="cls-4" d="M47.85,34.68l2.52,2.52L33,54.59Z"/><path class="cls-5" d="M67.74,19.83,50.37,37.21l-2.52-2.52Z"/><path class="cls-6" d="M52.89,39.73,50.37,37.2,67.74,19.82Z"/><path class="cls-7" d="M52.89,39.73,50.37,37.2,33,54.59Z"/></svg>