<svg id="Layer_1" data-name="Layer 1" xmlns="http://www.w3.org/2000/svg" viewBox="0 0 100 75"><defs><style>.cls-1{fill-rule:evenodd;}</style></defs><g id="svgg"><path id="path0" class="cls-1" d="M13.45,26.51C1.24,29.25,2.31,46.34,14.8,48l.84.12V45l-1.14-.19a7.72,7.72,0,1,1,8.85-8.57l.1.93h3.12v-.48c0-6.32-6.83-11.58-13.12-10.18m13.12,1.27v1.59l1,.11A7.79,7.79,0,0,1,32.86,41.7c-4.25,5.76-12.83,3.39-14-3.87l-.1-.66h-3l.09,1.19c.59,7.86,9.93,12.32,16.66,8,8.62-5.59,5.41-18.82-4.85-20l-1.1-.13v1.58m19.35,2.77A4,4,0,0,0,43,34.47c0,2.23.87,3,5,4.18,2,.59,2.45,1,2.45,1.88,0,1.66-2.79,1.88-5.55.45l-1.19-.6a5.16,5.16,0,0,0-1.09,2.28,10.2,10.2,0,0,0,3.57,1.5c4.61,1,8.06-1.41,7.1-5C52.79,37.59,51.94,37,48.71,36,46.31,35.33,45.8,35,45.8,34c0-1.52,2.39-1.92,4.67-.78l1.18.59c.07,0,.37-.43.67-1l.54-1.07-.58-.35a9.28,9.28,0,0,0-6.36-.8m12,3.14c-.74,1.86-2,5-2.75,7l-1.4,3.58h2.89l.61-1.68.61-1.68,2.46,0,2.47.05.62,1.63.62,1.64h2.86l-2.71-6.9c-1.49-3.79-2.71-6.93-2.71-7a4.46,4.46,0,0,0-1.12-.07H59.25l-1.33,3.4m10.27,3.57v7H71l0-4.44,0-4.43,1.71,3.24,1.7,3.24H76l1.7-3.22,1.7-3.23,0,4.42,0,4.42H82.3V30.29H79.39l-2,3.88c-1.11,2.13-2.07,3.88-2.11,3.88s-1-1.74-2.11-3.88l-2-3.88H68.19v7m16.93,0v7H95v-2.3H88V30.29H85.12v7M61.31,36.12c1.09,3.12,1.2,2.84-1.08,2.78l-1.85,0,1-2.69c.53-1.48,1-2.69,1-2.69s.45,1.19,1,2.65"/></g></svg>