<svg id="Layer_1" data-name="Layer 1" xmlns="http://www.w3.org/2000/svg" xmlns:xlink="http://www.w3.org/1999/xlink" viewBox="0 0 100 75"><defs><style>.cls-1,.cls-2{fill-rule:evenodd;}.cls-1{fill:url(#linear-gradient);}.cls-2{fill:#fff;}.cls-3{fill:none;}.cls-4{fill:#3094d8;}</style><linearGradient id="linear-gradient" x1="39.38" y1="21" x2="39.38" y2="55" gradientUnits="userSpaceOnUse"><stop offset="0" stop-color="#00aeef"/><stop offset="0.21" stop-color="#0097dc"/><stop offset="0.52" stop-color="#007cc5"/><stop offset="0.79" stop-color="#006cb8"/><stop offset="1" stop-color="#0066b3"/></linearGradient></defs><path class="cls-1" d="M5,55H39.75l34-34H5V55"/><path class="cls-2" d="M45.8,27.8H39l0,16-5.91-16H27.27L22.22,41.13c-.54-3.39-4-4.56-6.81-5.44-1.82-.59-3.75-1.45-3.73-2.4,0-.78,1-1.5,3.06-1.4a11.23,11.23,0,0,1,5,1.34L22,29.14a18.38,18.38,0,0,0-7.66-1.82h0a9.35,9.35,0,0,0-6.77,2.47,5.73,5.73,0,0,0-1.61,4A5.3,5.3,0,0,0,8.3,38.47a15.78,15.78,0,0,0,4.6,2.1c1.88.58,3.41,1.09,3.39,2.16a1.58,1.58,0,0,1-.44,1.06,3,3,0,0,1-2.18.69,9.44,9.44,0,0,1-5.61-1.6L6,47A14.54,14.54,0,0,0,13.36,49H14a9.21,9.21,0,0,0,5.83-1.84l.25-.22-.26,1.33,5.73,0,1-2.63a11.76,11.76,0,0,0,7.14,0l.72,2.6H44.69l0-6H46.9c5.28,0,8.41-2.69,8.41-7.2C55.3,30,52.27,27.8,45.8,27.8ZM30.17,41.45A6.21,6.21,0,0,1,28,41.07l2.14-6.77h0l2.11,6.79a6.5,6.5,0,0,1-2.12.36Zm16-3.89H44.71V32.11H46.2c2,0,3.57.66,3.57,2.69s-1.58,2.76-3.57,2.76"/><path class="cls-3" d="M5,21H74.53V55H5Z"/><path class="cls-4" d="M70.73,49.68a.37.37,0,0,1-.11-.27V27.78a.41.41,0,0,1,.11-.28.4.4,0,0,1,.27-.11h3a.4.4,0,0,1,.27.11.41.41,0,0,1,.11.28V49.41a.37.37,0,0,1-.11.27.36.36,0,0,1-.27.11H71A.36.36,0,0,1,70.73,49.68Z"/><path class="cls-4" d="M90.17,28.1A6.83,6.83,0,0,1,93,30.82a8.11,8.11,0,0,1,1,4.06v7.68a7.35,7.35,0,0,1-1.59,4.78,7.1,7.1,0,0,1-4.3,2.52c-.09,0-.13.08-.13.19v2.69a.38.38,0,0,1-.38.38h-3a.38.38,0,0,1-.38-.38V50.05c0-.09,0-.15-.16-.19a7.1,7.1,0,0,1-5.89-7.3V34.88a8.11,8.11,0,0,1,1-4.06,6.84,6.84,0,0,1,2.77-2.72,9.32,9.32,0,0,1,8.24,0Zm.07,6.59a4.35,4.35,0,0,0-1.16-3.15,4,4,0,0,0-3-1.2,4,4,0,0,0-3,1.2,4.35,4.35,0,0,0-1.16,3.15V42.5A4.35,4.35,0,0,0,83,45.65a4,4,0,0,0,3,1.2,4,4,0,0,0,3-1.2,4.35,4.35,0,0,0,1.16-3.15Z"/></svg>