<svg id="Layer_1" data-name="Layer 1" xmlns="http://www.w3.org/2000/svg" viewBox="0 0 100 75"><defs><style>.cls-1{fill:#0e91bb;}.cls-2{fill:#f16900;}.cls-3{fill:#77cefa;}.cls-4{fill:#ecf0f1;}</style></defs><g id="Page-1"><g id="Group"><g id="_3forge" data-name=" 3forge"><path class="cls-1" d="M43.52,60.28a4.84,4.84,0,0,1-.33,1.81,3.66,3.66,0,0,1-1.47,1.82,4.72,4.72,0,0,1-4.83,0A3.84,3.84,0,0,1,35.41,62a5.05,5.05,0,0,1-.29-1.44.28.28,0,0,1,.23-.31h2a.31.31,0,0,1,.33.27v0a2.73,2.73,0,0,0,.18.8,1.37,1.37,0,0,0,.54.73,1.48,1.48,0,0,0,.88.27,1.41,1.41,0,0,0,1.4-.89A3.06,3.06,0,0,0,41,60.21a3.23,3.23,0,0,0-.29-1.4,1.41,1.41,0,0,0-1.4-.83,1.6,1.6,0,0,0-.83.34.41.41,0,0,1-.18,0,.3.3,0,0,1-.25-.12L37,57a.41.41,0,0,1-.07-.22.29.29,0,0,1,.11-.21l2.83-2.47a.07.07,0,0,0,0-.09s0,0-.09,0H35.66a.28.28,0,0,1-.31-.23V52a.28.28,0,0,1,.24-.31h7.46a.27.27,0,0,1,.31.23V53.8a.5.5,0,0,1-.17.38l-2.38,2.18c-.07.08,0,.13.08.15a3,3,0,0,1,2.27,1.87A4.76,4.76,0,0,1,43.52,60.28Z"/><path class="cls-1" d="M49.61,55.38V56.9a.27.27,0,0,1-.23.31H47.65a.09.09,0,0,0-.1.09v6.81a.27.27,0,0,1-.22.31.21.21,0,0,1-.11,0H45.3a.27.27,0,0,1-.31-.23V57.34a.1.1,0,0,0-.08-.11h-1a.27.27,0,0,1-.31-.23V55.38a.27.27,0,0,1,.23-.3h1S45,55,45,55v-.41a3.66,3.66,0,0,1,.35-1.75A1.88,1.88,0,0,1,46.45,52a6.26,6.26,0,0,1,2.15-.23h.6a.28.28,0,0,1,.31.23v1.36a.28.28,0,0,1-.24.31h-.58a1,1,0,0,0-1.13,1.17V55a.09.09,0,0,0,.08.11h1.68a.27.27,0,0,1,.3.24A.13.13,0,0,1,49.61,55.38Z"/><path class="cls-1" d="M50.89,63.76a3.93,3.93,0,0,1-1.49-2.17,6.46,6.46,0,0,1-.26-1.85,6.06,6.06,0,0,1,.28-1.93,3.87,3.87,0,0,1,1.49-2.1A4.37,4.37,0,0,1,53.53,55a4.21,4.21,0,0,1,2.55.76,3.86,3.86,0,0,1,1.48,2.09,6.07,6.07,0,0,1,.28,1.9,7.15,7.15,0,0,1-.24,1.84,4.06,4.06,0,0,1-4.08,3A4.26,4.26,0,0,1,50.89,63.76ZM54.52,62a2,2,0,0,0,.59-1,4.22,4.22,0,0,0,.16-1.27,5.05,5.05,0,0,0-.14-1.29,1.9,1.9,0,0,0-.6-1,1.55,1.55,0,0,0-1-.35,1.53,1.53,0,0,0-1,.35,1.9,1.9,0,0,0-.6,1,5.05,5.05,0,0,0-.14,1.29A5,5,0,0,0,51.88,61a2,2,0,0,0,.61,1,1.61,1.61,0,0,0,2,0Z"/><path class="cls-1" d="M63.93,55.18a.31.31,0,0,1,.17.38l-.35,1.91a.22.22,0,0,1-.1.2.57.57,0,0,1-.26,0,2.52,2.52,0,0,0-.54-.08,1.9,1.9,0,0,0-.42,0,1.81,1.81,0,0,0-1.1.48,1.49,1.49,0,0,0-.46,1.14v4.86a.27.27,0,0,1-.23.31h-2a.29.29,0,0,1-.32-.23V55.4a.27.27,0,0,1,.23-.31h2a.27.27,0,0,1,.31.23.11.11,0,0,1,0,.08v.54c0,.05,0,.08,0,.09S61,56,61,56a2.28,2.28,0,0,1,2-1.07A1.89,1.89,0,0,1,63.93,55.18Z"/><path class="cls-1" d="M69.7,55.09h2a.27.27,0,0,1,.3.24s0,.05,0,.07v8.19A3.92,3.92,0,0,1,70.59,67a5.6,5.6,0,0,1-3.5,1,10.24,10.24,0,0,1-1.36-.09c-.18,0-.28-.12-.28-.32l.08-1.69a.29.29,0,0,1,.1-.23.24.24,0,0,1,.24,0,10.38,10.38,0,0,0,1.11.09,2.78,2.78,0,0,0,1.79-.51,2,2,0,0,0,.63-1.61s0-.06,0-.07a.08.08,0,0,0-.09,0,2.56,2.56,0,0,1-2,.72,4.26,4.26,0,0,1-2.15-.56,3.21,3.21,0,0,1-1.4-1.85,7,7,0,0,1-.27-2.14,6.73,6.73,0,0,1,.32-2.31,3.64,3.64,0,0,1,1.29-1.77A3.48,3.48,0,0,1,67.17,55a2.76,2.76,0,0,1,2.14.82s.07.05.1,0a.1.1,0,0,0,0-.09V55.4a.29.29,0,0,1,.24-.31Zm-.3,4.59a8.44,8.44,0,0,0,0-.87,4,4,0,0,0-.13-.58,1.59,1.59,0,0,0-.53-.79,1.48,1.48,0,0,0-1-.3,1.44,1.44,0,0,0-.93.3,1.68,1.68,0,0,0-.54.79A3.49,3.49,0,0,0,66,59.7a3.42,3.42,0,0,0,.22,1.45,1.57,1.57,0,0,0,1.54,1.08,1.49,1.49,0,0,0,1.46-1A6,6,0,0,0,69.4,59.68Z"/><path class="cls-1" d="M79,61.57a.38.38,0,0,1,.24-.13.26.26,0,0,1,.2.1l1,1a.28.28,0,0,1,.11.22.34.34,0,0,1-.07.22,4.18,4.18,0,0,1-1.53,1.17,5,5,0,0,1-2,.42,4.36,4.36,0,0,1-2.77-.85,4.21,4.21,0,0,1-1.48-2.34,6.43,6.43,0,0,1-.22-1.69,7,7,0,0,1,.2-1.77,3.85,3.85,0,0,1,1.46-2.15,4.22,4.22,0,0,1,2.61-.82A3.76,3.76,0,0,1,79.51,56,5.25,5.25,0,0,1,80.86,59c0,.4.09.84.11,1.32a.28.28,0,0,1-.24.32H75.09c-.07,0-.11,0-.11.1a2.77,2.77,0,0,0,.13.57,1.46,1.46,0,0,0,.72.86,2.63,2.63,0,0,0,1.29.3A2.36,2.36,0,0,0,79,61.57Zm-3.27-4.13a1.37,1.37,0,0,0-.54.79c-.06.23-.1.38-.11.45s0,.11.09.11h3.09c.06,0,.09,0,.09-.07a1.25,1.25,0,0,0-.08-.42,1.52,1.52,0,0,0-1.58-1.14A1.57,1.57,0,0,0,75.68,57.44Z"/></g><rect id="Rectangle" class="cls-2" x="19.84" y="51.85" width="3.75" height="3.75" rx="0.83"/><rect id="Rectangle-2" class="cls-2" x="24.42" y="51.85" width="3.75" height="3.75" rx="0.83"/><rect id="Rectangle-3" class="cls-1" x="19.84" y="56.44" width="3.75" height="3.75" rx="0.83"/><rect id="Rectangle-4" class="cls-3" x="19.84" y="61.02" width="3.75" height="3.75" rx="0.83"/><rect id="Rectangle-5" class="cls-1" x="24.42" y="56.44" width="3.75" height="3.75" rx="0.83"/><rect id="Rectangle-6" class="cls-2" x="29" y="51.85" width="3.75" height="3.75" rx="0.83"/></g></g><rect id="Rectangle-path" class="cls-1" x="29.32" y="12.62" width="41.24" height="33.38" rx="3.93"/><rect id="Rectangle-path-2" data-name="Rectangle-path" class="cls-3" x="33.24" y="16.54" width="33.38" height="25.53" rx="0.98"/><path id="Shape" class="cls-4" d="M37.17,27.35a1,1,0,0,1-.93-.68,1,1,0,0,1,.34-1.09l2.88-2.16-2.88-2.16a1,1,0,0,1,1.18-1.57l3.93,2.94a1,1,0,0,1,.39.79,1,1,0,0,1-.39.78l-3.93,2.95A1,1,0,0,1,37.17,27.35Z"/><path id="Shape-2" data-name="Shape" class="cls-4" d="M46,27.35H43.06a1,1,0,0,1,0-2H46a1,1,0,0,1,0,2Z"/></svg>