<?xml version="1.0" encoding="UTF-8"?>
<svg xmlns="http://www.w3.org/2000/svg" xmlns:xlink="http://www.w3.org/1999/xlink" width="100px" height="75px" viewBox="0 0 100 75" version="1.1">
<defs>
<linearGradient id="linear0" gradientUnits="userSpaceOnUse" x1="74.42" y1="56.03" x2="21.23" y2="9.21" gradientTransform="matrix(0.303159,0,0,-1.027833,-0.951919,70.483171)">
<stop offset="0" style="stop-color:rgb(100%,0%,100%);stop-opacity:1;"/>
<stop offset="0.4" style="stop-color:rgb(66.666667%,0%,100%);stop-opacity:1;"/>
<stop offset="1" style="stop-color:rgb(11.764706%,3.921569%,47.058824%);stop-opacity:1;"/>
</linearGradient>
<linearGradient id="linear1" gradientUnits="userSpaceOnUse" x1="8.83" y1="56.94" x2="41.16" y2="24.13" gradientTransform="matrix(0.303159,0,0,-1.027833,-0.951919,70.483171)">
<stop offset="0.04" style="stop-color:rgb(100%,0%,100%);stop-opacity:1;"/>
<stop offset="0.51" style="stop-color:rgb(53.333333%,0%,80%);stop-opacity:1;"/>
<stop offset="1" style="stop-color:rgb(19.215686%,10.588235%,57.254902%);stop-opacity:1;"/>
</linearGradient>
</defs>
<g id="surface1">
<path style=" stroke:none;fill-rule:nonzero;fill:rgb(10.588235%,10.196078%,12.941176%);fill-opacity:1;" d="M 26.558594 60.75 C 26.09375 60.511719 25.636719 60.121094 25.195312 59.589844 L 25.195312 53.679688 C 26.085938 54.699219 27.019531 55.234375 27.960938 55.269531 C 28.722656 55.269531 29.28125 54.777344 29.65625 53.78125 C 30.039062 52.710938 30.246094 51.085938 30.210938 49.414062 C 30.222656 48.476562 30.164062 47.542969 30.042969 46.699219 C 29.90625 45.886719 29.710938 45.207031 29.476562 44.726562 C 29.132812 44.03125 28.769531 43.476562 28.390625 43.070312 L 27.652344 42.226562 C 25.84375 40.171875 24.941406 36.289062 24.9375 30.582031 C 24.914062 28.296875 25.082031 26.035156 25.421875 24.054688 C 25.769531 22.175781 26.28125 20.710938 26.886719 19.863281 C 27.652344 18.835938 28.46875 18.34375 29.292969 18.421875 C 29.722656 18.417969 30.152344 18.511719 30.578125 18.699219 C 30.957031 18.859375 31.328125 19.125 31.695312 19.492188 L 31.695312 25.382812 C 30.972656 24.652344 30.222656 24.308594 29.46875 24.355469 C 27.816406 24.355469 26.992188 26.269531 26.992188 30.097656 C 26.980469 30.988281 27.035156 31.871094 27.144531 32.679688 C 27.265625 33.433594 27.445312 34.066406 27.664062 34.507812 C 27.976562 35.171875 28.3125 35.691406 28.664062 36.0625 L 29.402344 36.902344 C 30.222656 37.714844 30.960938 39.257812 31.542969 41.375 C 32.050781 43.464844 32.308594 46.117188 32.273438 48.816406 C 32.292969 51.144531 32.121094 53.449219 31.769531 55.457031 C 31.421875 57.339844 30.910156 58.820312 30.308594 59.703125 C 29.574219 60.746094 28.78125 61.246094 27.988281 61.171875 C 27.507812 61.164062 27.03125 61.023438 26.558594 60.75 Z M 26.558594 60.75 "/>
<path style=" stroke:none;fill-rule:nonzero;fill:rgb(10.588235%,10.196078%,12.941176%);fill-opacity:1;" d="M 33.644531 25.792969 C 33.453125 25.132812 33.351562 24.222656 33.367188 23.296875 C 33.351562 22.363281 33.453125 21.457031 33.644531 20.789062 C 34.132812 19.589844 34.792969 19.589844 35.277344 20.789062 C 35.46875 21.449219 35.570312 22.355469 35.558594 23.285156 C 35.578125 24.214844 35.476562 25.125 35.28125 25.78125 C 34.792969 26.960938 34.136719 26.960938 33.644531 25.78125 Z M 33.644531 25.792969 "/>
<path style=" stroke:none;fill-rule:nonzero;fill:rgb(10.588235%,10.196078%,12.941176%);fill-opacity:1;" d="M 35.539062 29.90625 L 33.519531 29.90625 L 33.519531 60.625 L 35.539062 60.625 Z M 35.539062 29.90625 "/>
<path style=" stroke:none;fill-rule:nonzero;fill:rgb(10.588235%,10.196078%,12.941176%);fill-opacity:1;" d="M 37.332031 29.90625 L 39.003906 29.90625 L 39.15625 33.195312 L 39.265625 33.195312 C 39.539062 32.023438 39.882812 31.070312 40.277344 30.398438 C 40.679688 29.742188 41.121094 29.414062 41.570312 29.429688 C 42.25 29.324219 42.914062 30.21875 43.386719 31.886719 C 43.839844 33.523438 44.0625 36.175781 44.0625 39.8125 L 44.0625 60.617188 L 42.058594 60.617188 L 42.058594 40.328125 C 42.09375 39.011719 41.988281 37.695312 41.753906 36.636719 C 41.523438 35.867188 41.207031 35.46875 40.882812 35.535156 C 40.582031 35.550781 40.289062 35.796875 40.019531 36.257812 C 39.730469 36.734375 39.488281 37.496094 39.328125 38.445312 L 39.328125 60.636719 L 37.320312 60.636719 Z M 37.332031 29.90625 "/>
<path style=" stroke:none;fill-rule:nonzero;fill:rgb(10.588235%,10.196078%,12.941176%);fill-opacity:1;" d="M 48.21875 68.097656 C 48.992188 68.097656 49.554688 67.503906 49.921875 66.300781 C 50.289062 65.097656 50.46875 63.074219 50.46875 60.214844 L 50.46875 57.511719 L 50.371094 57.511719 C 50.175781 58.589844 49.902344 59.472656 49.574219 60.070312 C 49.222656 60.730469 48.824219 61.066406 48.421875 61.039062 C 47.890625 61.050781 47.371094 60.511719 46.933594 59.496094 C 46.433594 58.253906 46.054688 56.535156 45.847656 54.5625 C 45.542969 51.765625 45.402344 48.792969 45.429688 45.816406 C 45.429688 40.335938 45.792969 36.226562 46.515625 33.480469 C 47.234375 30.738281 48.332031 29.371094 49.800781 29.371094 C 50.269531 29.371094 50.738281 29.503906 51.203125 29.769531 C 51.636719 29.976562 52.0625 30.320312 52.476562 30.796875 L 52.476562 59.105469 C 52.476562 64.183594 52.136719 67.882812 51.464844 70.175781 C 50.792969 72.46875 49.765625 73.566406 48.390625 73.566406 L 48.21875 73.566406 Z M 49.929688 54.738281 C 50.148438 54.386719 50.335938 53.839844 50.472656 53.152344 L 50.472656 35.085938 C 50.199219 34.878906 49.921875 34.777344 49.640625 34.777344 C 49.023438 34.632812 48.421875 35.527344 48.035156 37.171875 C 47.675781 38.773438 47.5 41.445312 47.5 45.230469 C 47.476562 47.308594 47.546875 49.386719 47.707031 51.394531 C 47.839844 53.828125 48.496094 55.519531 49.222656 55.300781 C 49.46875 55.296875 49.710938 55.085938 49.929688 54.695312 Z M 49.929688 54.738281 "/>
<path style=" stroke:none;fill-rule:nonzero;fill:rgb(10.588235%,10.196078%,12.941176%);fill-opacity:1;" d="M 54.273438 60.636719 L 54.273438 15.113281 L 56.285156 15.113281 L 56.285156 60.625 L 54.273438 60.625 Z M 54.273438 60.636719 "/>
<path style=" stroke:none;fill-rule:nonzero;fill:rgb(10.588235%,10.196078%,12.941176%);fill-opacity:1;" d="M 64.484375 47.449219 L 59.742188 47.449219 C 59.738281 49.128906 59.832031 50.792969 60.019531 52.351562 C 60.164062 53.480469 60.429688 54.386719 60.757812 54.890625 C 61.179688 55.457031 61.632812 55.71875 62.085938 55.652344 C 62.757812 55.613281 63.421875 55.269531 64.066406 54.625 L 64.066406 60.164062 C 63.695312 60.519531 63.316406 60.792969 62.933594 60.984375 C 62.574219 61.15625 62.210938 61.242188 61.851562 61.242188 C 61.039062 61.355469 60.230469 60.800781 59.496094 59.617188 C 58.878906 58.5 58.398438 56.679688 58.144531 54.480469 C 57.816406 51.523438 57.667969 48.382812 57.699219 45.230469 C 57.699219 39.980469 58.003906 36.042969 58.609375 33.417969 C 59.238281 30.769531 60.207031 29.308594 61.207031 29.492188 C 63.386719 29.492188 64.476562 34.804688 64.480469 45.425781 L 64.480469 47.480469 Z M 60.425781 34.898438 C 60.179688 35.625 60.007812 36.589844 59.929688 37.664062 C 59.792969 39.4375 59.730469 41.269531 59.742188 43.101562 L 62.589844 43.101562 C 62.601562 41.273438 62.542969 39.445312 62.417969 37.664062 C 62.351562 36.601562 62.1875 35.632812 61.949219 34.898438 C 61.734375 34.347656 61.46875 34.0625 61.195312 34.097656 C 60.921875 34.078125 60.648438 34.359375 60.425781 34.898438 Z M 60.425781 34.898438 "/>
<path style=" stroke:none;fill-rule:nonzero;fill:rgb(10.588235%,10.196078%,12.941176%);fill-opacity:1;" d="M 67.164062 60.75 C 66.699219 60.511719 66.242188 60.121094 65.796875 59.589844 L 65.796875 53.679688 C 66.691406 54.695312 67.625 55.234375 68.566406 55.269531 C 69.328125 55.269531 69.886719 54.777344 70.261719 53.78125 C 70.644531 52.710938 70.851562 51.085938 70.816406 49.414062 C 70.828125 48.476562 70.769531 47.542969 70.648438 46.699219 C 70.511719 45.886719 70.316406 45.207031 70.082031 44.726562 C 69.738281 44.03125 69.375 43.476562 68.996094 43.070312 L 68.257812 42.226562 C 66.4375 40.171875 65.542969 36.234375 65.542969 30.574219 C 65.527344 28.277344 65.699219 26.011719 66.046875 24.035156 C 66.394531 22.160156 66.90625 20.699219 67.511719 19.851562 C 68.273438 18.820312 69.09375 18.324219 69.914062 18.402344 C 70.34375 18.402344 70.773438 18.496094 71.199219 18.691406 C 71.578125 18.847656 71.949219 19.109375 72.316406 19.480469 L 72.316406 25.371094 C 71.59375 24.625 70.84375 24.261719 70.085938 24.292969 C 68.4375 24.292969 67.613281 26.210938 67.609375 30.046875 C 67.601562 30.9375 67.65625 31.820312 67.769531 32.628906 C 67.882812 33.390625 68.054688 34.039062 68.269531 34.507812 C 68.582031 35.167969 68.917969 35.683594 69.269531 36.050781 L 70.007812 36.902344 C 70.828125 37.714844 71.566406 39.253906 72.148438 41.363281 C 72.652344 43.460938 72.914062 46.113281 72.878906 48.816406 C 72.898438 51.144531 72.726562 53.441406 72.375 55.445312 C 72.027344 57.335938 71.515625 58.820312 70.910156 59.703125 C 70.179688 60.746094 69.386719 61.246094 68.59375 61.171875 C 68.113281 61.171875 67.636719 61.03125 67.164062 60.75 Z M 67.164062 60.75 "/>
<path style=" stroke:none;fill-rule:nonzero;fill:rgb(10.588235%,10.196078%,12.941176%);fill-opacity:1;" d="M 78.777344 54.941406 L 78.777344 60.625 C 78.332031 60.988281 77.875 61.167969 77.414062 61.160156 C 76.46875 61.160156 75.75 60.316406 75.257812 58.621094 C 74.761719 56.929688 74.523438 54.230469 74.535156 50.523438 L 74.535156 35.339844 L 73.148438 35.339844 L 73.148438 29.90625 L 74.535156 29.90625 L 74.890625 18.949219 L 76.546875 18.949219 L 76.546875 29.90625 L 78.722656 29.90625 L 78.722656 35.339844 L 76.546875 35.339844 L 76.546875 49.730469 C 76.535156 50.855469 76.582031 51.984375 76.6875 53.050781 C 76.765625 53.796875 76.921875 54.417969 77.128906 54.789062 C 77.382812 55.167969 77.65625 55.347656 77.933594 55.3125 C 78.21875 55.265625 78.5 55.140625 78.777344 54.941406 Z M 78.777344 54.941406 "/>
<path style=" stroke:none;fill-rule:nonzero;fill:rgb(10.588235%,10.196078%,12.941176%);fill-opacity:1;" d="M 80.316406 57.347656 C 79.695312 54.792969 79.386719 50.808594 79.386719 45.394531 C 79.386719 34.746094 80.597656 29.425781 83.023438 29.429688 C 84.1875 29.429688 85.082031 30.738281 85.710938 33.347656 C 86.339844 35.957031 86.65625 39.957031 86.65625 45.34375 C 86.644531 55.9375 85.433594 61.234375 83.023438 61.234375 C 81.839844 61.234375 80.945312 59.90625 80.316406 57.347656 Z M 83.867188 55.066406 C 84.136719 54.203125 84.320312 53.078125 84.390625 51.847656 C 84.53125 49.742188 84.59375 47.582031 84.570312 45.425781 C 84.589844 43.207031 84.527344 40.992188 84.390625 38.824219 C 84.324219 37.570312 84.140625 36.417969 83.867188 35.535156 C 83.351562 34.296875 82.660156 34.296875 82.144531 35.535156 C 81.875 36.40625 81.691406 37.542969 81.621094 38.785156 C 81.484375 40.914062 81.421875 43.089844 81.441406 45.269531 C 81.421875 47.464844 81.484375 49.65625 81.621094 51.796875 C 81.691406 53.046875 81.871094 54.191406 82.144531 55.066406 C 82.664062 56.28125 83.351562 56.28125 83.867188 55.066406 Z M 83.867188 55.066406 "/>
<path style=" stroke:none;fill-rule:nonzero;fill:rgb(10.588235%,10.196078%,12.941176%);fill-opacity:1;" d="M 88.039062 29.90625 L 89.691406 29.90625 L 89.851562 34.128906 L 89.949219 34.128906 C 90.140625 32.675781 90.457031 31.460938 90.859375 30.644531 C 91.253906 29.890625 91.699219 29.503906 92.152344 29.535156 C 92.34375 29.53125 92.535156 29.585938 92.722656 29.699219 L 92.722656 36.0625 C 92.492188 35.9375 92.261719 35.882812 92.027344 35.898438 C 91.628906 35.894531 91.234375 36.21875 90.878906 36.84375 C 90.535156 37.425781 90.246094 38.332031 90.046875 39.453125 L 90.046875 60.625 L 88.039062 60.625 Z M 88.039062 29.90625 "/>
<path style=" stroke:none;fill-rule:nonzero;fill:rgb(10.588235%,10.196078%,12.941176%);fill-opacity:1;" d="M 100 47.449219 L 95.253906 47.449219 C 95.253906 49.128906 95.34375 50.792969 95.527344 52.351562 C 95.675781 53.476562 95.9375 54.378906 96.269531 54.890625 C 96.691406 55.457031 97.144531 55.714844 97.597656 55.652344 C 98.269531 55.613281 98.9375 55.269531 99.578125 54.625 L 99.578125 60.164062 C 99.207031 60.515625 98.828125 60.792969 98.445312 60.984375 C 98.085938 61.15625 97.722656 61.242188 97.359375 61.242188 C 96.546875 61.355469 95.738281 60.796875 95.003906 59.617188 C 94.390625 58.5 93.910156 56.679688 93.652344 54.480469 C 93.328125 51.523438 93.179688 48.378906 93.210938 45.230469 C 93.210938 39.980469 93.515625 36.042969 94.121094 33.417969 C 94.75 30.769531 95.71875 29.308594 96.71875 29.492188 C 98.902344 29.492188 99.992188 34.804688 99.992188 45.425781 L 99.992188 47.480469 Z M 95.9375 34.898438 C 95.695312 35.625 95.523438 36.59375 95.453125 37.664062 C 95.3125 39.4375 95.25 41.269531 95.257812 43.101562 L 98.109375 43.101562 C 98.121094 41.269531 98.0625 39.445312 97.933594 37.664062 C 97.871094 36.601562 97.707031 35.632812 97.472656 34.898438 C 97.257812 34.351562 96.992188 34.070312 96.722656 34.097656 C 96.441406 34.0625 96.164062 34.34375 95.9375 34.898438 Z M 95.9375 34.898438 "/>
<path style=" stroke:none;fill-rule:nonzero;fill:url(#linear0);" d="M 11.542969 0.0546875 C 13.902344 2.285156 16.066406 7.917969 16.960938 14.785156 C 18.328125 25.945312 18.015625 40.050781 16.511719 48.4375 C 15.25 55.3125 13.296875 58.972656 11.070312 58.878906 C 7.589844 58.878906 4.765625 49.308594 4.765625 37.5 C 4.765625 25.691406 7.589844 16.121094 11.070312 16.121094 C 11.882812 16.121094 12.683594 16.671875 13.429688 17.734375 C 13.429688 17.734375 12.75 16.367188 11.003906 15.453125 C 5.980469 13.222656 0.0546875 26.121094 1.421875 55.847656 C 3.886719 70.722656 9.007812 78.066406 13.875 73.695312 C 18.742188 69.324219 22.117188 54.347656 22.089844 37.285156 C 22.089844 17.46875 17.328125 0.589844 11.542969 0.0546875 Z M 11.542969 0.0546875 "/>
<path style=" stroke:none;fill-rule:nonzero;fill:url(#linear1);" d="M 15.671875 15.855469 C 14.71875 9.53125 13 4.9375 10.964844 3.273438 C 10.46875 2.847656 9.960938 2.605469 9.449219 2.554688 C 8.632812 2.539062 7.816406 2.886719 7.023438 3.582031 C 5.375 5.289062 3.894531 8.480469 2.738281 12.820312 C 1.75 16.585938 1 20.984375 0.527344 25.761719 C 0.527344 25.855469 0.5 25.945312 0.5 26.121094 C 0.476562 26.480469 0.371094 27.550781 0.371094 27.816406 C 0.371094 28.085938 0.34375 28.261719 0.316406 28.445312 C 0.292969 28.804688 0.265625 29.152344 0.238281 29.472656 C 0.242188 29.570312 0.234375 29.671875 0.210938 29.738281 C -0.472656 41.25 0.664062 51.589844 1.347656 55.4375 C 1.519531 56.390625 1.652344 57.191406 1.800781 57.933594 C 0.261719 29.371094 4.707031 15.773438 9.78125 15.410156 C 12.4375 15.238281 15.09375 18.894531 16.382812 26.214844 C 16.371094 22.628906 16.128906 19.09375 15.671875 15.855469 Z M 15.671875 15.855469 "/>
</g>
</svg>
