<?xml version="1.0" encoding="UTF-8"?>
<svg xmlns="http://www.w3.org/2000/svg" xmlns:xlink="http://www.w3.org/1999/xlink" width="100px" height="75px" viewBox="0 0 100 75" version="1.1">
<defs>
<linearGradient id="linear0" gradientUnits="userSpaceOnUse" x1="0.673449" y1="-0.260045" x2="-0.185228" y2="0.229878" gradientTransform="matrix(94.417969,0,0,75,5.582031,0)">
<stop offset="0" style="stop-color:rgb(100%,48.235294%,100%);stop-opacity:1;"/>
<stop offset="0.350158" style="stop-color:rgb(66.666667%,0%,100%);stop-opacity:1;"/>
<stop offset="1" style="stop-color:rgb(53.333333%,0%,80%);stop-opacity:1;"/>
</linearGradient>
<linearGradient id="linear1" gradientUnits="userSpaceOnUse" x1="0.362592" y1="-0.193629" x2="1.11722" y2="0.449975" gradientTransform="matrix(74.148438,0,0,55.484375,0.015625,2.503906)">
<stop offset="0.0354358" style="stop-color:rgb(100%,48.235294%,100%);stop-opacity:1;"/>
<stop offset="0.576537" style="stop-color:rgb(53.333333%,0%,80%);stop-opacity:1;"/>
<stop offset="1" style="stop-color:rgb(19.215686%,10.588235%,57.254902%);stop-opacity:1;"/>
</linearGradient>
</defs>
<g id="surface1">
<path style=" stroke:none;fill-rule:nonzero;fill:url(#linear0);" d="M 52.261719 0 C 62.976562 2.234375 72.738281 7.867188 76.785156 14.75 C 82.976562 25.921875 81.546875 40.046875 74.761719 48.449219 C 69.046875 55.332031 60.238281 59 50.121094 58.910156 C 34.40625 58.820312 21.671875 49.433594 21.550781 37.632812 C 21.550781 25.835938 33.929688 16.089844 50.121094 16.089844 C 52.738281 16.089844 56.515625 16.363281 60.800781 17.703125 C 60.800781 17.703125 57.71875 16.335938 49.808594 15.414062 C 27.070312 13.179688 0.242188 26.101562 6.433594 55.871094 C 15.003906 67.3125 31.429688 75.089844 50.121094 75 C 77.617188 74.910156 100.117188 58.015625 100 37.277344 C 100 17.429688 78.453125 0.535156 52.261719 0 Z M 52.261719 0 "/>
<path style=" stroke:none;fill-rule:nonzero;fill:url(#linear1);" d="M 70.953125 15.820312 C 67.140625 9.832031 59.285156 5.09375 49.644531 3.21875 C 47.5 2.769531 45.238281 2.589844 42.738281 2.503906 C 39.050781 2.503906 35.476562 2.859375 31.789062 3.574219 C 22.621094 5.628906 16.195312 9.652344 12.382812 12.78125 C 7.503906 16.984375 4.289062 21.363281 2.386719 25.742188 C 2.386719 25.832031 2.265625 25.921875 2.265625 26.101562 C 2.148438 26.457031 1.671875 27.53125 1.671875 27.800781 C 1.550781 27.980469 1.550781 28.246094 1.433594 28.425781 C 1.3125 28.78125 1.195312 29.140625 1.074219 29.5 C 1.074219 29.585938 1.074219 29.675781 0.957031 29.765625 C -2.136719 41.296875 3.003906 51.644531 6.097656 55.488281 C 6.871094 56.453125 7.507812 57.253906 8.144531 57.988281 C 1.121094 29.382812 21.3125 15.730469 44.285156 15.375 C 56.308594 15.195312 68.332031 18.859375 74.164062 26.191406 C 73.808594 22.167969 73.453125 19.933594 70.953125 15.820312 Z M 70.953125 15.820312 "/>
</g>
</svg>
