<svg id="Layer_1" data-name="Layer 1" xmlns="http://www.w3.org/2000/svg" viewBox="0 0 100 75"><defs><style>.cls-1{fill:#29b5e8;}</style></defs><path id="Path" class="cls-1" d="M68,50.13,57.38,44a3.12,3.12,0,0,0-4.24,1.14,3.15,3.15,0,0,0-.4,1.85V59a3.1,3.1,0,0,0,6.19,0V52.09l5.92,3.42A3.11,3.11,0,1,0,68,50.13"/><path id="Path-2" data-name="Path" class="cls-1" d="M41.66,37a3,3,0,0,0-1.52-2.68L29.57,28.25a3.07,3.07,0,0,0-1.51-.4,3,3,0,0,0-1.52,5.66L32.63,37l-6.09,3.52a3,3,0,0,0-1.11,4.14,3,3,0,0,0,2.62,1.52,3,3,0,0,0,1.52-.41l10.57-6.1A3,3,0,0,0,41.66,37"/><path id="Path-3" data-name="Path" class="cls-1" d="M32,23.93,42.54,30a3.1,3.1,0,0,0,3.73-.47,3,3,0,0,0,1-2.27V15.05a3.1,3.1,0,0,0-6.19,0v7l-6-3.47A3.11,3.11,0,1,0,32,23.93"/><path id="Combined-Shape" class="cls-1" d="M55.74,37.54a1.16,1.16,0,0,1-.3.72l-4.19,4.2a1.2,1.2,0,0,1-.73.3H49.46a1.2,1.2,0,0,1-.73-.3l-4.2-4.2a1.22,1.22,0,0,1-.3-.72V36.47a1.22,1.22,0,0,1,.3-.73l4.2-4.2a1.2,1.2,0,0,1,.73-.3h1.06a1.2,1.2,0,0,1,.73.3l4.19,4.2a1.16,1.16,0,0,1,.3.73ZM52,37v0a.86.86,0,0,0-.22-.54l-1.23-1.23A.85.85,0,0,0,50,35h0a.85.85,0,0,0-.54.23L48.2,36.44A.87.87,0,0,0,48,37v0a.87.87,0,0,0,.22.54l1.23,1.24A.9.9,0,0,0,50,39h0a.9.9,0,0,0,.54-.22l1.23-1.24A.82.82,0,0,0,52,37Z"/><path id="Path-4" data-name="Path" class="cls-1" d="M57.38,30,68,23.93a3.11,3.11,0,1,0-3.11-5.38L58.93,22V15.05a3.1,3.1,0,0,0-6.19,0V27a3.1,3.1,0,0,0,4.64,3"/><path id="Path-5" data-name="Path" class="cls-1" d="M44.66,43.66a3.13,3.13,0,0,0-2.12.36L32,50.13a3.11,3.11,0,1,0,3.11,5.38l6-3.47V59a3.1,3.1,0,0,0,6.19,0V46.72a3.1,3.1,0,0,0-2.61-3.06"/><path id="Path-6" data-name="Path" class="cls-1" d="M74.56,29.33a3.1,3.1,0,0,0-4.24-1.14l-10.57,6.1A3.13,3.13,0,0,0,58.19,37a3.09,3.09,0,0,0,1.56,2.72l10.57,6.11a3.11,3.11,0,0,0,3.11-5.39l-6-3.45,6-3.46a3.1,3.1,0,0,0,1.13-4.24"/></svg>