<svg xmlns="http://www.w3.org/2000/svg" xmlns:xlink="http://www.w3.org/1999/xlink" width="100" zoomAndPan="magnify" viewBox="0 0 75 74.999997" height="100" preserveAspectRatio="xMidYMid meet" version="1.0"><defs><g/><clipPath id="7bfb964224"><path d="M 10.648438 10.648438 L 64.648438 10.648438 L 64.648438 64.648438 L 10.648438 64.648438 Z M 10.648438 10.648438 " clip-rule="nonzero"/></clipPath><clipPath id="e05e5b927a"><path d="M 15.945312 15.945312 L 58.695312 15.945312 L 58.695312 58.695312 L 15.945312 58.695312 Z M 15.945312 15.945312 " clip-rule="nonzero"/></clipPath></defs><g clip-path="url(#7bfb964224)"><path fill="#4d99dc" d="M 64.648438 37.648438 C 64.648438 38.535156 64.605469 39.417969 64.519531 40.296875 C 64.433594 41.175781 64.304688 42.050781 64.132812 42.917969 C 63.957031 43.785156 63.742188 44.640625 63.488281 45.488281 C 63.230469 46.332031 62.933594 47.164062 62.59375 47.984375 C 62.257812 48.800781 61.878906 49.597656 61.460938 50.378906 C 61.046875 51.15625 60.589844 51.914062 60.101562 52.648438 C 59.609375 53.386719 59.082031 54.09375 58.519531 54.777344 C 57.960938 55.460938 57.367188 56.117188 56.742188 56.742188 C 56.117188 57.367188 55.460938 57.960938 54.777344 58.519531 C 54.09375 59.082031 53.386719 59.609375 52.648438 60.101562 C 51.914062 60.589844 51.15625 61.046875 50.378906 61.460938 C 49.597656 61.878906 48.800781 62.257812 47.984375 62.59375 C 47.164062 62.933594 46.332031 63.230469 45.488281 63.488281 C 44.640625 63.742188 43.785156 63.957031 42.917969 64.132812 C 42.050781 64.304688 41.175781 64.433594 40.296875 64.519531 C 39.417969 64.605469 38.535156 64.648438 37.648438 64.648438 C 36.765625 64.648438 35.882812 64.605469 35.003906 64.519531 C 34.125 64.433594 33.25 64.304688 32.382812 64.132812 C 31.515625 63.957031 30.660156 63.742188 29.8125 63.488281 C 28.964844 63.230469 28.132812 62.933594 27.316406 62.59375 C 26.5 62.257812 25.703125 61.878906 24.921875 61.460938 C 24.140625 61.046875 23.386719 60.589844 22.648438 60.101562 C 21.914062 59.609375 21.203125 59.082031 20.519531 58.519531 C 19.835938 57.960938 19.183594 57.367188 18.558594 56.742188 C 17.933594 56.117188 17.339844 55.460938 16.777344 54.777344 C 16.21875 54.09375 15.691406 53.386719 15.199219 52.648438 C 14.710938 51.914062 14.253906 51.15625 13.839844 50.378906 C 13.421875 49.597656 13.042969 48.800781 12.707031 47.984375 C 12.367188 47.164062 12.070312 46.332031 11.8125 45.488281 C 11.554688 44.640625 11.339844 43.785156 11.167969 42.917969 C 10.996094 42.050781 10.867188 41.175781 10.78125 40.296875 C 10.691406 39.417969 10.648438 38.535156 10.648438 37.648438 C 10.648438 36.765625 10.691406 35.882812 10.78125 35.003906 C 10.867188 34.125 10.996094 33.25 11.167969 32.382812 C 11.339844 31.515625 11.554688 30.660156 11.8125 29.8125 C 12.070312 28.964844 12.367188 28.132812 12.707031 27.316406 C 13.042969 26.5 13.421875 25.703125 13.839844 24.921875 C 14.253906 24.140625 14.710938 23.386719 15.199219 22.648438 C 15.691406 21.914062 16.21875 21.203125 16.777344 20.519531 C 17.339844 19.835938 17.933594 19.183594 18.558594 18.558594 C 19.183594 17.933594 19.835938 17.339844 20.519531 16.777344 C 21.203125 16.21875 21.914062 15.691406 22.648438 15.199219 C 23.386719 14.710938 24.140625 14.253906 24.921875 13.839844 C 25.703125 13.421875 26.5 13.042969 27.316406 12.707031 C 28.132812 12.367188 28.964844 12.070312 29.8125 11.8125 C 30.660156 11.554688 31.515625 11.339844 32.382812 11.167969 C 33.25 10.996094 34.125 10.867188 35.003906 10.78125 C 35.882812 10.691406 36.765625 10.648438 37.648438 10.648438 C 38.535156 10.648438 39.417969 10.691406 40.296875 10.78125 C 41.175781 10.867188 42.050781 10.996094 42.917969 11.167969 C 43.785156 11.339844 44.640625 11.554688 45.488281 11.8125 C 46.332031 12.070312 47.164062 12.367188 47.984375 12.707031 C 48.800781 13.042969 49.597656 13.421875 50.378906 13.839844 C 51.15625 14.253906 51.914062 14.710938 52.648438 15.199219 C 53.386719 15.691406 54.09375 16.21875 54.777344 16.777344 C 55.460938 17.339844 56.117188 17.933594 56.742188 18.558594 C 57.367188 19.183594 57.960938 19.835938 58.519531 20.519531 C 59.082031 21.203125 59.609375 21.914062 60.101562 22.648438 C 60.589844 23.386719 61.046875 24.140625 61.460938 24.921875 C 61.878906 25.703125 62.257812 26.5 62.59375 27.316406 C 62.933594 28.132812 63.230469 28.964844 63.488281 29.8125 C 63.742188 30.660156 63.957031 31.515625 64.132812 32.382812 C 64.304688 33.25 64.433594 34.125 64.519531 35.003906 C 64.605469 35.882812 64.648438 36.765625 64.648438 37.648438 Z M 64.648438 37.648438 " fill-opacity="1" fill-rule="nonzero"/></g><g clip-path="url(#e05e5b927a)"><path fill="#3683c6" d="M 58.695312 37.320312 C 58.695312 38.023438 58.664062 38.71875 58.59375 39.417969 C 58.523438 40.113281 58.421875 40.804688 58.285156 41.492188 C 58.148438 42.179688 57.980469 42.855469 57.777344 43.527344 C 57.574219 44.195312 57.335938 44.855469 57.070312 45.5 C 56.800781 46.148438 56.503906 46.78125 56.171875 47.398438 C 55.84375 48.015625 55.484375 48.613281 55.09375 49.195312 C 54.707031 49.78125 54.289062 50.339844 53.84375 50.882812 C 53.402344 51.421875 52.929688 51.941406 52.4375 52.4375 C 51.941406 52.929688 51.421875 53.402344 50.882812 53.84375 C 50.339844 54.289062 49.78125 54.707031 49.195312 55.09375 C 48.613281 55.484375 48.015625 55.84375 47.398438 56.171875 C 46.78125 56.503906 46.148438 56.800781 45.5 57.070312 C 44.855469 57.335938 44.195312 57.574219 43.527344 57.777344 C 42.855469 57.980469 42.179688 58.148438 41.492188 58.285156 C 40.804688 58.421875 40.113281 58.523438 39.417969 58.59375 C 38.71875 58.664062 38.023438 58.695312 37.320312 58.695312 C 36.621094 58.695312 35.921875 58.664062 35.226562 58.59375 C 34.53125 58.523438 33.839844 58.421875 33.152344 58.285156 C 32.464844 58.148438 31.785156 57.980469 31.117188 57.777344 C 30.445312 57.574219 29.789062 57.335938 29.140625 57.070312 C 28.496094 56.800781 27.863281 56.503906 27.246094 56.171875 C 26.628906 55.84375 26.027344 55.484375 25.445312 55.09375 C 24.863281 54.707031 24.304688 54.289062 23.761719 53.84375 C 23.21875 53.402344 22.703125 52.929688 22.207031 52.4375 C 21.710938 51.941406 21.242188 51.421875 20.800781 50.882812 C 20.355469 50.339844 19.9375 49.78125 19.550781 49.195312 C 19.160156 48.613281 18.800781 48.015625 18.472656 47.398438 C 18.140625 46.78125 17.84375 46.148438 17.574219 45.5 C 17.304688 44.855469 17.070312 44.195312 16.867188 43.527344 C 16.664062 42.855469 16.496094 42.179688 16.359375 41.492188 C 16.222656 40.804688 16.117188 40.113281 16.050781 39.417969 C 15.980469 38.71875 15.945312 38.023438 15.945312 37.320312 C 15.945312 36.621094 15.980469 35.921875 16.050781 35.226562 C 16.117188 34.53125 16.222656 33.839844 16.359375 33.152344 C 16.496094 32.464844 16.664062 31.785156 16.867188 31.117188 C 17.070312 30.445312 17.304688 29.789062 17.574219 29.140625 C 17.84375 28.496094 18.140625 27.863281 18.472656 27.246094 C 18.800781 26.628906 19.160156 26.027344 19.550781 25.445312 C 19.9375 24.863281 20.355469 24.304688 20.800781 23.761719 C 21.242188 23.21875 21.710938 22.703125 22.207031 22.207031 C 22.703125 21.710938 23.21875 21.242188 23.761719 20.800781 C 24.304688 20.355469 24.863281 19.9375 25.445312 19.550781 C 26.027344 19.160156 26.628906 18.800781 27.246094 18.472656 C 27.863281 18.140625 28.496094 17.84375 29.140625 17.574219 C 29.789062 17.304688 30.445312 17.070312 31.117188 16.867188 C 31.785156 16.664062 32.464844 16.496094 33.152344 16.359375 C 33.839844 16.222656 34.53125 16.117188 35.226562 16.050781 C 35.921875 15.980469 36.621094 15.945312 37.320312 15.945312 C 38.023438 15.945312 38.71875 15.980469 39.417969 16.050781 C 40.113281 16.117188 40.804688 16.222656 41.492188 16.359375 C 42.179688 16.496094 42.855469 16.664062 43.527344 16.867188 C 44.195312 17.070312 44.855469 17.304688 45.5 17.574219 C 46.148438 17.84375 46.78125 18.140625 47.398438 18.472656 C 48.015625 18.800781 48.613281 19.160156 49.195312 19.550781 C 49.78125 19.9375 50.339844 20.355469 50.882812 20.800781 C 51.421875 21.242188 51.941406 21.710938 52.4375 22.207031 C 52.929688 22.703125 53.402344 23.21875 53.84375 23.761719 C 54.289062 24.304688 54.707031 24.863281 55.09375 25.445312 C 55.484375 26.027344 55.84375 26.628906 56.171875 27.246094 C 56.503906 27.863281 56.800781 28.496094 57.070312 29.140625 C 57.335938 29.789062 57.574219 30.445312 57.777344 31.117188 C 57.980469 31.785156 58.148438 32.464844 58.285156 33.152344 C 58.421875 33.839844 58.523438 34.53125 58.59375 35.226562 C 58.664062 35.921875 58.695312 36.621094 58.695312 37.320312 Z M 58.695312 37.320312 " fill-opacity="1" fill-rule="nonzero"/></g><g fill="#ffffff" fill-opacity="1"><g transform="translate(27.910671, 26.632682)"><g><path d="M 3.59375 0 C 3.539062 0 3.503906 -0.0234375 3.484375 -0.078125 L 3.234375 -0.875 C 3.222656 -0.894531 3.210938 -0.90625 3.203125 -0.90625 L 1.234375 -0.90625 C 1.222656 -0.90625 1.210938 -0.894531 1.203125 -0.875 L 0.953125 -0.078125 C 0.929688 -0.0234375 0.890625 0 0.828125 0 L 0.328125 0 C 0.253906 0 0.226562 -0.0390625 0.25 -0.125 L 1.765625 -4.84375 C 1.785156 -4.90625 1.828125 -4.9375 1.890625 -4.9375 L 2.53125 -4.9375 C 2.59375 -4.9375 2.632812 -4.90625 2.65625 -4.84375 L 4.1875 -0.125 C 4.195312 -0.113281 4.203125 -0.0976562 4.203125 -0.078125 C 4.203125 -0.0234375 4.171875 0 4.109375 0 Z M 1.375 -1.484375 C 1.375 -1.453125 1.382812 -1.4375 1.40625 -1.4375 L 3.015625 -1.4375 C 3.046875 -1.4375 3.054688 -1.453125 3.046875 -1.484375 L 2.234375 -4.109375 C 2.234375 -4.128906 2.226562 -4.140625 2.21875 -4.140625 C 2.207031 -4.140625 2.195312 -4.128906 2.1875 -4.109375 Z M 1.375 -1.484375 "/></g></g></g><g fill="#ffffff" fill-opacity="1"><g transform="translate(32.35218, 26.632682)"><g><path d="M 0.6875 0 C 0.65625 0 0.628906 -0.0078125 0.609375 -0.03125 C 0.585938 -0.0507812 0.578125 -0.078125 0.578125 -0.109375 L 0.578125 -4.828125 C 0.578125 -4.859375 0.585938 -4.882812 0.609375 -4.90625 C 0.628906 -4.925781 0.65625 -4.9375 0.6875 -4.9375 L 1.15625 -4.9375 C 1.1875 -4.9375 1.207031 -4.925781 1.21875 -4.90625 C 1.238281 -4.882812 1.25 -4.859375 1.25 -4.828125 L 1.25 -0.109375 C 1.25 -0.078125 1.238281 -0.0507812 1.21875 -0.03125 C 1.207031 -0.0078125 1.1875 0 1.15625 0 Z M 0.6875 0 "/></g></g></g><g fill="#ffffff" fill-opacity="1"><g transform="translate(34.185185, 26.632682)"><g><path d="M 2.15625 0.0625 C 1.820312 0.0625 1.523438 -0.00390625 1.265625 -0.140625 C 1.003906 -0.273438 0.800781 -0.460938 0.65625 -0.703125 C 0.507812 -0.953125 0.4375 -1.238281 0.4375 -1.5625 L 0.4375 -3.375 C 0.4375 -3.695312 0.507812 -3.976562 0.65625 -4.21875 C 0.800781 -4.46875 1.003906 -4.65625 1.265625 -4.78125 C 1.523438 -4.914062 1.820312 -4.984375 2.15625 -4.984375 C 2.5 -4.984375 2.800781 -4.921875 3.0625 -4.796875 C 3.320312 -4.671875 3.519531 -4.488281 3.65625 -4.25 C 3.800781 -4.007812 3.875 -3.738281 3.875 -3.4375 C 3.875 -3.382812 3.835938 -3.351562 3.765625 -3.34375 L 3.3125 -3.3125 L 3.28125 -3.3125 C 3.25 -3.3125 3.226562 -3.316406 3.21875 -3.328125 C 3.207031 -3.335938 3.203125 -3.347656 3.203125 -3.359375 L 3.203125 -3.40625 C 3.203125 -3.707031 3.109375 -3.945312 2.921875 -4.125 C 2.734375 -4.3125 2.476562 -4.40625 2.15625 -4.40625 C 1.84375 -4.40625 1.59375 -4.3125 1.40625 -4.125 C 1.21875 -3.945312 1.125 -3.707031 1.125 -3.40625 L 1.125 -1.53125 C 1.125 -1.226562 1.21875 -0.984375 1.40625 -0.796875 C 1.59375 -0.617188 1.84375 -0.53125 2.15625 -0.53125 C 2.476562 -0.53125 2.734375 -0.617188 2.921875 -0.796875 C 3.109375 -0.984375 3.203125 -1.226562 3.203125 -1.53125 C 3.203125 -1.5625 3.207031 -1.582031 3.21875 -1.59375 C 3.238281 -1.601562 3.269531 -1.609375 3.3125 -1.609375 L 3.765625 -1.578125 C 3.835938 -1.566406 3.875 -1.554688 3.875 -1.546875 L 3.875 -1.515625 C 3.875 -1.203125 3.800781 -0.925781 3.65625 -0.6875 C 3.519531 -0.445312 3.320312 -0.257812 3.0625 -0.125 C 2.800781 0 2.5 0.0625 2.15625 0.0625 Z M 2.15625 0.0625 "/></g></g></g><g fill="#ffffff" fill-opacity="1"><g transform="translate(38.464543, 26.632682)"><g><path d="M 2.515625 -4.9375 C 2.796875 -4.9375 3.046875 -4.875 3.265625 -4.75 C 3.484375 -4.632812 3.648438 -4.46875 3.765625 -4.25 C 3.890625 -4.039062 3.953125 -3.796875 3.953125 -3.515625 C 3.953125 -3.234375 3.890625 -2.984375 3.765625 -2.765625 C 3.648438 -2.554688 3.476562 -2.390625 3.25 -2.265625 C 3.03125 -2.148438 2.773438 -2.09375 2.484375 -2.09375 L 1.25 -2.09375 C 1.226562 -2.09375 1.21875 -2.082031 1.21875 -2.0625 L 1.21875 -0.109375 C 1.21875 -0.078125 1.207031 -0.0507812 1.1875 -0.03125 C 1.164062 -0.0078125 1.140625 0 1.109375 0 L 0.640625 0 C 0.609375 0 0.582031 -0.0078125 0.5625 -0.03125 C 0.539062 -0.0507812 0.53125 -0.078125 0.53125 -0.109375 L 0.53125 -4.828125 C 0.53125 -4.867188 0.539062 -4.894531 0.5625 -4.90625 C 0.582031 -4.925781 0.609375 -4.9375 0.640625 -4.9375 Z M 2.421875 -2.65625 C 2.671875 -2.65625 2.875 -2.726562 3.03125 -2.875 C 3.195312 -3.03125 3.28125 -3.238281 3.28125 -3.5 C 3.28125 -3.757812 3.195312 -3.96875 3.03125 -4.125 C 2.875 -4.28125 2.671875 -4.359375 2.421875 -4.359375 L 1.25 -4.359375 C 1.226562 -4.359375 1.21875 -4.34375 1.21875 -4.3125 L 1.21875 -2.6875 C 1.21875 -2.664062 1.226562 -2.65625 1.25 -2.65625 Z M 2.421875 -2.65625 "/></g></g></g><g fill="#ffffff" fill-opacity="1"><g transform="translate(42.6452, 26.632682)"><g><path d="M 3.59375 0 C 3.539062 0 3.503906 -0.0234375 3.484375 -0.078125 L 3.234375 -0.875 C 3.222656 -0.894531 3.210938 -0.90625 3.203125 -0.90625 L 1.234375 -0.90625 C 1.222656 -0.90625 1.210938 -0.894531 1.203125 -0.875 L 0.953125 -0.078125 C 0.929688 -0.0234375 0.890625 0 0.828125 0 L 0.328125 0 C 0.253906 0 0.226562 -0.0390625 0.25 -0.125 L 1.765625 -4.84375 C 1.785156 -4.90625 1.828125 -4.9375 1.890625 -4.9375 L 2.53125 -4.9375 C 2.59375 -4.9375 2.632812 -4.90625 2.65625 -4.84375 L 4.1875 -0.125 C 4.195312 -0.113281 4.203125 -0.0976562 4.203125 -0.078125 C 4.203125 -0.0234375 4.171875 0 4.109375 0 Z M 1.375 -1.484375 C 1.375 -1.453125 1.382812 -1.4375 1.40625 -1.4375 L 3.015625 -1.4375 C 3.046875 -1.4375 3.054688 -1.453125 3.046875 -1.484375 L 2.234375 -4.109375 C 2.234375 -4.128906 2.226562 -4.140625 2.21875 -4.140625 C 2.207031 -4.140625 2.195312 -4.128906 2.1875 -4.109375 Z M 1.375 -1.484375 "/></g></g></g><path stroke-linecap="butt" transform="matrix(0.76237, 0.000000000000000212, -0.000000000000000208, 0.75, 27.908036, 28.513781)" fill="none" stroke-linejoin="miter" d="M -0.0023422 0.502459 L 25.58091 0.502459 " stroke="#ffffff" stroke-width="1" stroke-opacity="1" stroke-miterlimit="4"/><g fill="#ffffff" fill-opacity="1"><g transform="translate(20.525953, 43.229257)"><g><path d="M 3.921875 0.109375 C 3.234375 0.109375 2.628906 -0.00390625 2.109375 -0.234375 C 1.597656 -0.460938 1.203125 -0.78125 0.921875 -1.1875 C 0.640625 -1.601562 0.5 -2.085938 0.5 -2.640625 L 0.5 -2.875 C 0.5 -3.019531 0.570312 -3.09375 0.71875 -3.09375 L 2.109375 -3.09375 C 2.253906 -3.09375 2.328125 -3.035156 2.328125 -2.921875 L 2.328125 -2.734375 C 2.328125 -2.378906 2.484375 -2.082031 2.796875 -1.84375 C 3.117188 -1.601562 3.539062 -1.484375 4.0625 -1.484375 C 4.53125 -1.484375 4.875 -1.582031 5.09375 -1.78125 C 5.320312 -1.976562 5.4375 -2.222656 5.4375 -2.515625 C 5.4375 -2.722656 5.363281 -2.898438 5.21875 -3.046875 C 5.082031 -3.191406 4.894531 -3.316406 4.65625 -3.421875 C 4.414062 -3.535156 4.035156 -3.6875 3.515625 -3.875 C 2.921875 -4.082031 2.421875 -4.289062 2.015625 -4.5 C 1.609375 -4.707031 1.265625 -4.992188 0.984375 -5.359375 C 0.703125 -5.722656 0.5625 -6.171875 0.5625 -6.703125 C 0.5625 -7.234375 0.695312 -7.695312 0.96875 -8.09375 C 1.238281 -8.488281 1.617188 -8.789062 2.109375 -9 C 2.597656 -9.207031 3.15625 -9.3125 3.78125 -9.3125 C 4.445312 -9.3125 5.039062 -9.191406 5.5625 -8.953125 C 6.09375 -8.722656 6.503906 -8.394531 6.796875 -7.96875 C 7.085938 -7.539062 7.234375 -7.046875 7.234375 -6.484375 L 7.234375 -6.359375 C 7.234375 -6.203125 7.160156 -6.125 7.015625 -6.125 L 5.625 -6.125 C 5.476562 -6.125 5.40625 -6.171875 5.40625 -6.265625 L 5.40625 -6.390625 C 5.40625 -6.765625 5.253906 -7.078125 4.953125 -7.328125 C 4.648438 -7.585938 4.234375 -7.71875 3.703125 -7.71875 C 3.285156 -7.71875 2.960938 -7.628906 2.734375 -7.453125 C 2.503906 -7.285156 2.390625 -7.046875 2.390625 -6.734375 C 2.390625 -6.515625 2.457031 -6.328125 2.59375 -6.171875 C 2.726562 -6.023438 2.925781 -5.890625 3.1875 -5.765625 C 3.457031 -5.648438 3.875 -5.492188 4.4375 -5.296875 C 5.050781 -5.066406 5.535156 -4.867188 5.890625 -4.703125 C 6.253906 -4.535156 6.578125 -4.273438 6.859375 -3.921875 C 7.140625 -3.566406 7.28125 -3.113281 7.28125 -2.5625 C 7.28125 -2.03125 7.140625 -1.5625 6.859375 -1.15625 C 6.585938 -0.75 6.203125 -0.4375 5.703125 -0.21875 C 5.203125 0 4.609375 0.109375 3.921875 0.109375 Z M 3.921875 0.109375 "/></g></g></g><g fill="#ffffff" fill-opacity="1"><g transform="translate(28.313037, 43.229257)"><g><path d="M 4.078125 0.140625 C 3.390625 0.140625 2.785156 0 2.265625 -0.28125 C 1.742188 -0.5625 1.335938 -0.953125 1.046875 -1.453125 C 0.765625 -1.953125 0.625 -2.535156 0.625 -3.203125 L 0.625 -6.015625 C 0.625 -6.660156 0.765625 -7.234375 1.046875 -7.734375 C 1.335938 -8.234375 1.742188 -8.617188 2.265625 -8.890625 C 2.785156 -9.171875 3.390625 -9.3125 4.078125 -9.3125 C 4.773438 -9.3125 5.382812 -9.171875 5.90625 -8.890625 C 6.425781 -8.617188 6.828125 -8.234375 7.109375 -7.734375 C 7.398438 -7.234375 7.546875 -6.660156 7.546875 -6.015625 L 7.546875 -3.203125 C 7.546875 -2.535156 7.398438 -1.945312 7.109375 -1.4375 C 6.828125 -0.9375 6.425781 -0.546875 5.90625 -0.265625 C 5.382812 0.00390625 4.773438 0.140625 4.078125 0.140625 Z M 4.078125 -1.453125 C 4.554688 -1.453125 4.945312 -1.601562 5.25 -1.90625 C 5.550781 -2.21875 5.703125 -2.625 5.703125 -3.125 L 5.703125 -6.03125 C 5.703125 -6.53125 5.550781 -6.9375 5.25 -7.25 C 4.957031 -7.5625 4.566406 -7.71875 4.078125 -7.71875 C 3.597656 -7.71875 3.207031 -7.5625 2.90625 -7.25 C 2.613281 -6.9375 2.46875 -6.53125 2.46875 -6.03125 L 2.46875 -3.125 C 2.46875 -2.625 2.613281 -2.21875 2.90625 -1.90625 C 3.207031 -1.601562 3.597656 -1.453125 4.078125 -1.453125 Z M 4.078125 -1.453125 "/></g></g></g><g fill="#ffffff" fill-opacity="1"><g transform="translate(36.481581, 43.229257)"><g><path d="M 4.03125 0.109375 C 3.351562 0.109375 2.753906 -0.0234375 2.234375 -0.296875 C 1.710938 -0.566406 1.3125 -0.941406 1.03125 -1.421875 C 0.757812 -1.898438 0.625 -2.457031 0.625 -3.09375 L 0.625 -6.125 C 0.625 -6.757812 0.757812 -7.316406 1.03125 -7.796875 C 1.3125 -8.285156 1.710938 -8.660156 2.234375 -8.921875 C 2.753906 -9.179688 3.351562 -9.3125 4.03125 -9.3125 C 4.707031 -9.3125 5.300781 -9.1875 5.8125 -8.9375 C 6.332031 -8.6875 6.734375 -8.332031 7.015625 -7.875 C 7.304688 -7.414062 7.453125 -6.882812 7.453125 -6.28125 C 7.453125 -6.195312 7.378906 -6.144531 7.234375 -6.125 L 5.828125 -6.03125 L 5.78125 -6.03125 C 5.65625 -6.03125 5.59375 -6.054688 5.59375 -6.109375 L 5.59375 -6.1875 C 5.59375 -6.644531 5.445312 -7.015625 5.15625 -7.296875 C 4.875 -7.578125 4.5 -7.71875 4.03125 -7.71875 C 3.5625 -7.71875 3.179688 -7.578125 2.890625 -7.296875 C 2.609375 -7.015625 2.46875 -6.644531 2.46875 -6.1875 L 2.46875 -3.015625 C 2.46875 -2.554688 2.609375 -2.1875 2.890625 -1.90625 C 3.179688 -1.625 3.5625 -1.484375 4.03125 -1.484375 C 4.5 -1.484375 4.875 -1.625 5.15625 -1.90625 C 5.445312 -2.1875 5.59375 -2.554688 5.59375 -3.015625 C 5.59375 -3.054688 5.609375 -3.09375 5.640625 -3.125 C 5.679688 -3.15625 5.738281 -3.164062 5.8125 -3.15625 L 7.21875 -3.09375 C 7.375 -3.070312 7.453125 -3.050781 7.453125 -3.03125 L 7.453125 -2.953125 C 7.453125 -2.347656 7.304688 -1.8125 7.015625 -1.34375 C 6.734375 -0.882812 6.332031 -0.523438 5.8125 -0.265625 C 5.300781 -0.015625 4.707031 0.109375 4.03125 0.109375 Z M 4.03125 0.109375 "/></g></g></g><g fill="#ffffff" fill-opacity="1"><g transform="translate(44.479125, 43.229257)"><g/></g></g><g fill="#ffffff" fill-opacity="1"><g transform="translate(47.109895, 43.229257)"><g><path d="M 0.8125 0 C 0.664062 0 0.59375 -0.0703125 0.59375 -0.21875 L 0.59375 -1.328125 C 0.59375 -1.421875 0.628906 -1.515625 0.703125 -1.609375 C 1.066406 -1.960938 1.445312 -2.359375 1.84375 -2.796875 C 2.25 -3.242188 2.523438 -3.546875 2.671875 -3.703125 C 3.078125 -4.148438 3.378906 -4.484375 3.578125 -4.703125 C 4.378906 -5.585938 4.78125 -6.242188 4.78125 -6.671875 C 4.78125 -6.972656 4.671875 -7.222656 4.453125 -7.421875 C 4.234375 -7.617188 3.945312 -7.71875 3.59375 -7.71875 C 3.238281 -7.71875 2.953125 -7.617188 2.734375 -7.421875 C 2.515625 -7.222656 2.40625 -6.960938 2.40625 -6.640625 L 2.40625 -6.375 C 2.40625 -6.226562 2.332031 -6.15625 2.1875 -6.15625 L 0.765625 -6.15625 C 0.617188 -6.15625 0.546875 -6.226562 0.546875 -6.375 L 0.546875 -6.9375 C 0.566406 -7.40625 0.710938 -7.820312 0.984375 -8.1875 C 1.253906 -8.550781 1.613281 -8.828125 2.0625 -9.015625 C 2.519531 -9.210938 3.03125 -9.3125 3.59375 -9.3125 C 4.21875 -9.3125 4.757812 -9.195312 5.21875 -8.96875 C 5.675781 -8.738281 6.03125 -8.425781 6.28125 -8.03125 C 6.53125 -7.632812 6.65625 -7.191406 6.65625 -6.703125 C 6.65625 -6.335938 6.5625 -5.960938 6.375 -5.578125 C 6.195312 -5.191406 5.921875 -4.773438 5.546875 -4.328125 C 5.203125 -3.898438 4.597656 -3.238281 3.734375 -2.34375 C 3.722656 -2.332031 3.519531 -2.113281 3.125 -1.6875 C 3.09375 -1.664062 3.082031 -1.644531 3.09375 -1.625 C 3.101562 -1.601562 3.125 -1.59375 3.15625 -1.59375 L 6.609375 -1.59375 C 6.753906 -1.59375 6.828125 -1.519531 6.828125 -1.375 L 6.828125 -0.21875 C 6.828125 -0.0703125 6.753906 0 6.609375 0 Z M 0.8125 0 "/></g></g></g><g fill="#ffffff" fill-opacity="1"><g transform="translate(27.303187, 52.719782)"><g><path d="M 3.671875 -4.9375 C 3.710938 -4.9375 3.738281 -4.925781 3.75 -4.90625 C 3.769531 -4.882812 3.78125 -4.859375 3.78125 -4.828125 L 3.78125 -4.453125 C 3.78125 -4.410156 3.769531 -4.378906 3.75 -4.359375 C 3.738281 -4.347656 3.710938 -4.34375 3.671875 -4.34375 L 2.375 -4.34375 C 2.34375 -4.34375 2.328125 -4.332031 2.328125 -4.3125 L 2.328125 -0.109375 C 2.328125 -0.078125 2.316406 -0.0507812 2.296875 -0.03125 C 2.285156 -0.0078125 2.265625 0 2.234375 0 L 1.765625 0 C 1.734375 0 1.707031 -0.0078125 1.6875 -0.03125 C 1.664062 -0.0507812 1.65625 -0.078125 1.65625 -0.109375 L 1.65625 -4.3125 C 1.65625 -4.332031 1.644531 -4.34375 1.625 -4.34375 L 0.375 -4.34375 C 0.34375 -4.34375 0.316406 -4.347656 0.296875 -4.359375 C 0.273438 -4.378906 0.265625 -4.410156 0.265625 -4.453125 L 0.265625 -4.828125 C 0.265625 -4.859375 0.273438 -4.882812 0.296875 -4.90625 C 0.316406 -4.925781 0.34375 -4.9375 0.375 -4.9375 Z M 3.671875 -4.9375 "/></g></g></g><g fill="#ffffff" fill-opacity="1"><g transform="translate(31.349896, 52.719782)"><g><path d="M 1.828125 0 C 1.796875 0 1.769531 -0.0078125 1.75 -0.03125 C 1.726562 -0.0507812 1.71875 -0.078125 1.71875 -0.109375 L 1.71875 -2.0625 C 1.71875 -2.070312 1.710938 -2.082031 1.703125 -2.09375 L 0.265625 -4.8125 C 0.253906 -4.832031 0.25 -4.847656 0.25 -4.859375 C 0.25 -4.910156 0.28125 -4.9375 0.34375 -4.9375 L 0.84375 -4.9375 C 0.90625 -4.9375 0.945312 -4.910156 0.96875 -4.859375 L 2.03125 -2.828125 C 2.050781 -2.804688 2.066406 -2.804688 2.078125 -2.828125 L 3.140625 -4.859375 C 3.171875 -4.910156 3.210938 -4.9375 3.265625 -4.9375 L 3.78125 -4.9375 C 3.832031 -4.9375 3.859375 -4.910156 3.859375 -4.859375 L 3.84375 -4.8125 L 2.40625 -2.09375 C 2.394531 -2.082031 2.390625 -2.070312 2.390625 -2.0625 L 2.390625 -0.109375 C 2.390625 -0.078125 2.378906 -0.0507812 2.359375 -0.03125 C 2.347656 -0.0078125 2.328125 0 2.296875 0 Z M 1.828125 0 "/></g></g></g><g fill="#ffffff" fill-opacity="1"><g transform="translate(35.474155, 52.719782)"><g><path d="M 2.515625 -4.9375 C 2.796875 -4.9375 3.046875 -4.875 3.265625 -4.75 C 3.484375 -4.632812 3.648438 -4.46875 3.765625 -4.25 C 3.890625 -4.039062 3.953125 -3.796875 3.953125 -3.515625 C 3.953125 -3.234375 3.890625 -2.984375 3.765625 -2.765625 C 3.648438 -2.554688 3.476562 -2.390625 3.25 -2.265625 C 3.03125 -2.148438 2.773438 -2.09375 2.484375 -2.09375 L 1.25 -2.09375 C 1.226562 -2.09375 1.21875 -2.082031 1.21875 -2.0625 L 1.21875 -0.109375 C 1.21875 -0.078125 1.207031 -0.0507812 1.1875 -0.03125 C 1.164062 -0.0078125 1.140625 0 1.109375 0 L 0.640625 0 C 0.609375 0 0.582031 -0.0078125 0.5625 -0.03125 C 0.539062 -0.0507812 0.53125 -0.078125 0.53125 -0.109375 L 0.53125 -4.828125 C 0.53125 -4.867188 0.539062 -4.894531 0.5625 -4.90625 C 0.582031 -4.925781 0.609375 -4.9375 0.640625 -4.9375 Z M 2.421875 -2.65625 C 2.671875 -2.65625 2.875 -2.726562 3.03125 -2.875 C 3.195312 -3.03125 3.28125 -3.238281 3.28125 -3.5 C 3.28125 -3.757812 3.195312 -3.96875 3.03125 -4.125 C 2.875 -4.28125 2.671875 -4.359375 2.421875 -4.359375 L 1.25 -4.359375 C 1.226562 -4.359375 1.21875 -4.34375 1.21875 -4.3125 L 1.21875 -2.6875 C 1.21875 -2.664062 1.226562 -2.65625 1.25 -2.65625 Z M 2.421875 -2.65625 "/></g></g></g><g fill="#ffffff" fill-opacity="1"><g transform="translate(39.654812, 52.719782)"><g><path d="M 3.859375 -4.453125 C 3.859375 -4.421875 3.847656 -4.394531 3.828125 -4.375 C 3.804688 -4.351562 3.78125 -4.34375 3.75 -4.34375 L 1.296875 -4.34375 C 1.265625 -4.34375 1.25 -4.332031 1.25 -4.3125 L 1.25 -2.8125 C 1.25 -2.789062 1.265625 -2.78125 1.296875 -2.78125 L 2.96875 -2.78125 C 3 -2.78125 3.023438 -2.769531 3.046875 -2.75 C 3.066406 -2.726562 3.078125 -2.703125 3.078125 -2.671875 L 3.078125 -2.296875 C 3.078125 -2.265625 3.066406 -2.238281 3.046875 -2.21875 C 3.023438 -2.195312 3 -2.1875 2.96875 -2.1875 L 1.296875 -2.1875 C 1.265625 -2.1875 1.25 -2.175781 1.25 -2.15625 L 1.25 -0.625 C 1.25 -0.59375 1.265625 -0.578125 1.296875 -0.578125 L 3.75 -0.578125 C 3.78125 -0.578125 3.804688 -0.566406 3.828125 -0.546875 C 3.847656 -0.535156 3.859375 -0.515625 3.859375 -0.484375 L 3.859375 -0.109375 C 3.859375 -0.078125 3.847656 -0.0507812 3.828125 -0.03125 C 3.804688 -0.0078125 3.78125 0 3.75 0 L 0.6875 0 C 0.65625 0 0.628906 -0.0078125 0.609375 -0.03125 C 0.585938 -0.0507812 0.578125 -0.078125 0.578125 -0.109375 L 0.578125 -4.828125 C 0.578125 -4.859375 0.585938 -4.882812 0.609375 -4.90625 C 0.628906 -4.925781 0.65625 -4.9375 0.6875 -4.9375 L 3.75 -4.9375 C 3.78125 -4.9375 3.804688 -4.925781 3.828125 -4.90625 C 3.847656 -4.882812 3.859375 -4.859375 3.859375 -4.828125 Z M 3.859375 -4.453125 "/></g></g></g><g fill="#ffffff" fill-opacity="1"><g transform="translate(43.87072, 52.719782)"><g/></g></g><g fill="#ffffff" fill-opacity="1"><g transform="translate(45.280724, 52.719782)"><g><path d="M 1.109375 -4.90625 C 1.148438 -4.925781 1.195312 -4.9375 1.25 -4.9375 L 1.75 -4.9375 C 1.78125 -4.9375 1.804688 -4.925781 1.828125 -4.90625 C 1.847656 -4.882812 1.859375 -4.859375 1.859375 -4.828125 L 1.859375 -0.109375 C 1.859375 -0.078125 1.847656 -0.0507812 1.828125 -0.03125 C 1.804688 -0.0078125 1.78125 0 1.75 0 L 1.28125 0 C 1.25 0 1.222656 -0.0078125 1.203125 -0.03125 C 1.179688 -0.0507812 1.171875 -0.078125 1.171875 -0.109375 L 1.171875 -4.234375 C 1.171875 -4.242188 1.164062 -4.25 1.15625 -4.25 C 1.15625 -4.257812 1.148438 -4.265625 1.140625 -4.265625 L 0.4375 -4.03125 C 0.425781 -4.019531 0.410156 -4.015625 0.390625 -4.015625 C 0.335938 -4.015625 0.3125 -4.046875 0.3125 -4.109375 L 0.3125 -4.4375 C 0.3125 -4.488281 0.335938 -4.523438 0.390625 -4.546875 Z M 1.109375 -4.90625 "/></g></g></g></svg>