<svg id="Layer_1" data-name="Layer 1" xmlns="http://www.w3.org/2000/svg" viewBox="0 0 100 75"><defs><style>.cls-1{fill:#06c795;}.cls-2{fill:#06c895;}.cls-3{fill:#07c895;}.cls-4{fill:#03c894;}.cls-5{fill:#04c895;}</style></defs><path class="cls-1" d="M55.11,43.34c.59.59.58.59,0,1.12a4.27,4.27,0,0,1-2.77,1.26,2.37,2.37,0,0,1-2.83-2.06c-.13.1-.24.17-.34.26a6.65,6.65,0,0,1-4.83,1.78,3.09,3.09,0,0,1-3-2.15,3.56,3.56,0,0,1,1-3.87,10.92,10.92,0,0,1,3.66-2c1-.38,2-.7,3.08-1,.34-.11.52-.25.49-.64-.06-.89,0-1.79-.11-2.67a1.8,1.8,0,0,0-1.84-1.73,5.79,5.79,0,0,0-1.86.16c-.83.24-1,.86-.42,1.52a2,2,0,0,1,.31,2.34,2.25,2.25,0,0,1-2.39.78,1.89,1.89,0,0,1-1.5-1.9,3.26,3.26,0,0,1,2-3.1,8.14,8.14,0,0,1,5-.83,13,13,0,0,1,2.46.54c1.92.63,2.63,2.12,2.64,4,0,2.44,0,4.87,0,7.31a1.34,1.34,0,0,0,0,.53c.09.24.21.55.41.65s.45-.13.68-.21A1.27,1.27,0,0,0,55.11,43.34Zm-5.63-5.73c-.5.18-.92.31-1.31.49a3.63,3.63,0,0,0-2.46,3.68,1.64,1.64,0,0,0,2.41,1.53c.58-.25,1.27-.62,1.32-1.25C49.56,40.63,49.48,39.18,49.48,37.61Z"/><path class="cls-2" d="M17.64,38.17A7.65,7.65,0,0,1,21,31.56a6.81,6.81,0,0,1,4.75-1,7.11,7.11,0,0,1,5.9,6.23A8,8,0,0,1,29.35,44a6.55,6.55,0,0,1-5.13,1.75,7.08,7.08,0,0,1-6.49-6.5C17.69,38.83,17.66,38.41,17.64,38.17Zm4.51.08h.17c0,.78,0,1.56,0,2.34a7.79,7.79,0,0,0,.56,2.9A2,2,0,0,0,25,44.72a1.75,1.75,0,0,0,1.67-1.38A11.53,11.53,0,0,0,27,41.25a26.23,26.23,0,0,0-.26-7.76,2.12,2.12,0,0,0-1.43-1.86,2,2,0,0,0-2.63,1.75C22.43,35,22.33,36.62,22.15,38.25Z"/><path class="cls-3" d="M82.12,41.87a7.76,7.76,0,0,1-3.84,3.47,6.36,6.36,0,0,1-8.42-4.54,10.57,10.57,0,0,1,.36-6.27,6.11,6.11,0,0,1,5.13-3.92,5.53,5.53,0,0,1,5.91,3.3A9.24,9.24,0,0,1,82,37.66H74A7.75,7.75,0,0,0,74.17,39a13.27,13.27,0,0,0,.88,2.76,3.22,3.22,0,0,0,5,.91,8,8,0,0,0,.86-.78C81.47,41.32,81.47,41.32,82.12,41.87ZM74,36.49c1.35,0,2.63,0,3.91,0,.09,0,.27-.23.26-.34-.08-1-.13-2.07-.3-3.09a1.6,1.6,0,0,0-1.58-1.5,1.64,1.64,0,0,0-1.68,1A10.71,10.71,0,0,0,74,36.49Z"/><path class="cls-4" d="M40,45.27H32.67v-.69a.18.18,0,0,1,.07,0c1.27-.48,1.39-.64,1.4-2V26.9c0-1.33-.17-1.54-1.46-1.94v-.69h5.87c0,.16,0,.32,0,.47V42.29c0,.24,0,.49,0,.73a1.23,1.23,0,0,0,1,1.33C40.09,44.47,40.16,44.79,40,45.27Z"/><path class="cls-3" d="M68.16,41.89c.74.47.74.5.29,1.07a6.79,6.79,0,0,1-8.07,2.32,6.4,6.4,0,0,1-3.92-4.55,8.18,8.18,0,0,1,1.91-8.13,6.94,6.94,0,0,1,6.37-2,5,5,0,0,1,3,1.49,2.36,2.36,0,0,1-.22,3.55,1.9,1.9,0,0,1-3-1.5c0-.37,0-.74,0-1.12,0-.55,0-1.09-.62-1.36a1.57,1.57,0,0,0-1.75.18,3.14,3.14,0,0,0-1,1.35,10.54,10.54,0,0,0,.45,8.22,3.66,3.66,0,0,0,6.52.46Z"/><path class="cls-3" d="M15.9,35.11h-.77a5.57,5.57,0,0,0-1.78-2.79,3.17,3.17,0,0,0-2.56-.65,1.75,1.75,0,0,0-1.47,1.44,1.6,1.6,0,0,0,.78,1.75c.83.55,1.74,1,2.62,1.45.52.28,1,.52,1.55.81a4.41,4.41,0,0,1,1.51,6.62,4.69,4.69,0,0,1-4.34,2A10,10,0,0,1,8.29,45c-.61-.21-.94-.16-1.19.34s-.55.48-1,.37V40.6c.82-.12.82-.12,1,.57a4.35,4.35,0,0,0,4.35,3.46c1.67-.07,2.6-1.42,1.87-2.82a2.74,2.74,0,0,0-1.08-1c-1-.57-2.11-1-3.11-1.59A8.57,8.57,0,0,1,7,37.57a4.32,4.32,0,0,1,2-6.71,7,7,0,0,1,4.35.09c.31.09.63.17.94.23a.8.8,0,0,0,.85-.32c.13-.16.43-.17.65-.25a1.94,1.94,0,0,1,.16.5c0,1.17,0,2.34,0,3.51C15.93,34.78,15.91,34.94,15.9,35.11Z"/><path class="cls-5" d="M88.78,35.35a5.21,5.21,0,1,1-5.24,5.21A5.25,5.25,0,0,1,88.78,35.35Z"/></svg>