<svg id="Layer_1" data-name="Layer 1" xmlns="http://www.w3.org/2000/svg" xmlns:xlink="http://www.w3.org/1999/xlink" viewBox="0 0 100 75"><defs><style>.cls-1{fill:url(#linear-gradient);}.cls-2{fill:url(#linear-gradient-2);}.cls-3{fill:url(#radial-gradient);}.cls-4{fill:#231f1f;}</style><linearGradient id="linear-gradient" x1="-13637.1" y1="-9882.85" x2="-13614.32" y2="-9896.31" gradientTransform="translate(1664.36 1217.74) scale(0.12)" gradientUnits="userSpaceOnUse"><stop offset="0" stop-color="#909ca9"/><stop offset="1" stop-color="#ededee"/></linearGradient><linearGradient id="linear-gradient-2" x1="-13636.59" y1="-10136.48" x2="-13618.26" y2="-10136.48" gradientTransform="translate(1664.36 1217.74) scale(0.12)" gradientUnits="userSpaceOnUse"><stop offset="0" stop-color="#939fab"/><stop offset="1" stop-color="#dcdee1"/></linearGradient><radialGradient id="radial-gradient" cx="1031.64" cy="-7014.46" r="24.33" gradientTransform="matrix(-0.11, -0.02, 0.03, -0.23, 416.79, -1557.81)" gradientUnits="userSpaceOnUse"><stop offset="0" stop-color="#ee352c"/><stop offset="1" stop-color="#a91d22"/></radialGradient></defs><path class="cls-1" d="M61.05,28.06,53.57,30.5l-6.5,2.87-1.82.48c-.47.44-1,.89-1.48,1.34s-1.11,1-1.52,1.28a11.51,11.51,0,0,0-1.49,1.47,6.61,6.61,0,0,0-1.09,1.85,3.12,3.12,0,0,0,.44,2.8,10,10,0,0,0,4.09,3.07,25.15,25.15,0,0,0,3.59,1.2A47.4,47.4,0,0,0,55.46,48h1a11.74,11.74,0,0,0,.73-1.39,35.28,35.28,0,0,0,2.66-7,33.68,33.68,0,0,0,.67-4.87c0-.54.06-2.38,0-3A23.09,23.09,0,0,0,60.24,29c0-.12,0-.23,0-.24l1-.3-.19-.44Zm-1.71,1a18.26,18.26,0,0,1,.3,2.83,1.59,1.59,0,0,1,0,.39s-1-.54-1.6-1-1.64-1.07-1.81-1.2,0-.05.41-.21C57.42,29.66,59.28,29.06,59.34,29.06Zm-3.81,1.25a1.86,1.86,0,0,1,.5.27,33.21,33.21,0,0,0,3.42,1.9c.21.1.23.06-.25.39A24.37,24.37,0,0,1,55.32,35l-.51.23a1.07,1.07,0,0,1,.06-.32,16.49,16.49,0,0,0,.61-4c0-.56,0-.56.05-.58Zm-.78.3a13.84,13.84,0,0,1,0,1.65,15.46,15.46,0,0,1-.52,2.46c-.07.21-.12.38-.13.39a9.76,9.76,0,0,1-1.06-1,8.19,8.19,0,0,1-1-1.51,4.69,4.69,0,0,1-.31-.77c.09-.07,3.07-1.22,3.09-1.2Zm-3.7,1.46h0a.89.89,0,0,1,.08.21A7.54,7.54,0,0,0,52.09,34a9.45,9.45,0,0,0,1.31,1.41l.28.24s0,0-.88.38-2.23.81-3.57,1.24l-.95.31c-.05,0,0,0,.11-.24a31.45,31.45,0,0,0,2.23-4.5c.1-.25.19-.5.21-.55a.2.2,0,0,1,.13-.15l.09,0Zm-1.13.47a12.91,12.91,0,0,1-.55,1.17c-.55,1.06-1.15,2.12-1.95,3.39l-.28.45s0,0-.13-.15a4.7,4.7,0,0,1-.44-1.31,5.28,5.28,0,0,1,0-1.68c.07-.35.07-.35.24-.43.72-.37,3.06-1.47,3.08-1.44Zm9.75.39v.24a30.41,30.41,0,0,1-.33,4.25c0,.22-.06.4-.07.41l-.36-.11a14.51,14.51,0,0,1-2.6-1.11A13.41,13.41,0,0,1,55,35.8l.52-.28a35.05,35.05,0,0,0,3.09-1.81c.35-.24.87-.61,1-.71l.09-.07Zm-14,1.67s0,0,0,.25a5.25,5.25,0,0,0-.06.61,4.2,4.2,0,0,0,.49,2.27,2.51,2.51,0,0,1,.2.43s-3.78,1.13-5,1.45l-.68.19s0,0,0-.09a5.91,5.91,0,0,1,1.64-2.83,7.47,7.47,0,0,1,1.86-1.43c.58-.33,1.47-.82,1.53-.84Zm8.82,1.58.31.17A16.87,16.87,0,0,0,59.11,38l.13,0-.18.1c-.76.42-3.23,1.45-5.75,2.39l-.8.3-.13,0,.23-.45a27.15,27.15,0,0,0,1.78-4,1.31,1.31,0,0,0,.08-.21Zm-.9.3a1.92,1.92,0,0,1-.09.26,36.78,36.78,0,0,1-2,3.95l-.39.67-.38-.23a11.72,11.72,0,0,1-3-2.51l-.1-.13.51-.14a36.11,36.11,0,0,0,5-1.71Zm5.59,2h0c0,.13-.28,1.29-.52,2.13s-.37,1.26-.68,2.24c-.14.43-.25.79-.26.79l-.07,0a23.58,23.58,0,0,1-4.6-1.3,10,10,0,0,1-1-.44,5.12,5.12,0,0,1,.75-.35c2.58-1.13,5.24-2.4,6.16-2.95a.65.65,0,0,1,.21-.1Zm-12.9.44s-.7,1-1.71,2.45l-.91,1.28-.51.76-.24.37-.25-.22a10.7,10.7,0,0,1-1.06-1.07,4.71,4.71,0,0,1-.94-1.83c-.06-.27-.06-.4,0-.42l3-.71,2-.47.59-.14Zm.73.27.18.21a10.52,10.52,0,0,0,2.65,2.17,1.37,1.37,0,0,1,.31.2S46.63,43,45,43.52l-1.64.57L43.27,44l-.1-.07.17-.24c.53-.77,1.2-1.61,2.65-3.36l1-1.21Zm4.51,3.23.56.2a17.68,17.68,0,0,0,2.1.65,24,24,0,0,0,3.17.55c.12,0,.19,0,.17,0s-.87.3-1.48.49c-1,.3-3.94,1.18-6.36,1.88l-.86.24a.5.5,0,0,1-.24-.06,3.36,3.36,0,0,1,.3-.38,34.69,34.69,0,0,0,2.29-3.09c.19-.28.35-.51.35-.52Zm-1,0s-.39.65-1.09,1.76l-.75,1.18c-.12.18-.29.47-.38.63l-.17.28-.08,0c-.21,0-1.64-.56-2-.71a12.74,12.74,0,0,1-1.32-.61,5.36,5.36,0,0,1-1-.61l1.71-.47c2.48-.67,3.85-1.06,4.75-1.35l.31-.08Zm7,1.65h0c0,.06-.9,2.6-1.23,3.4-.07.18-.1.23-.14.22s-1.43-.19-2.23-.31c-1.41-.21-3.77-.63-4.37-.76l-.13,0,.84-.19c1.81-.41,2.68-.63,3.56-.9a25.28,25.28,0,0,0,3.33-1.28l.36-.15Z"/><path class="cls-2" d="M53.34,10.63a33.69,33.69,0,0,0-3.42,1.23,20.78,20.78,0,0,0-3.94,2,3.23,3.23,0,0,0-.77.76.58.58,0,0,0,0,.19l.76.72,1.8.58,4.29.77,4.91.84.05-.43h-.05l-.64-.1-.13-.24c-.67-1.17-1.4-2.63-1.83-3.61A19.11,19.11,0,0,1,53.51,11c-.09-.39-.11-.41-.17-.41Zm-.09.28h0s0,.17.05.35a11,11,0,0,0,.55,2.38c.21.63.21.59,0,.52-.57-.16-3.16-.61-5-.87l-.55-.08s1.35-.74,1.95-1c.78-.36,2.9-1.25,3.06-1.28ZM47.8,13.45l.22.07a33.79,33.79,0,0,0,5.88,1.12l.35,0-.36.19c-.8.4-1.68.89-2.3,1.27a3.54,3.54,0,0,1-.36.21l-.27,0-.22,0-.57-.55c-1-1-1.77-1.71-2.07-2Zm-.22.17.79,1c.44.55.88,1.08,1,1.2a2,2,0,0,1,.16.22s-1.15-.2-1.75-.34-.87-.21-1.25-.33l-.31-.1v-.08c0-.38.49-.94,1.3-1.52l.08-.05ZM54.35,15s0,0,.12.2c.19.43.79,1.57.93,1.79s.13.08-.67,0c-1.91-.31-2.53-.42-2.53-.43l.13-.08a11.73,11.73,0,0,0,1.72-1.19l.28-.23s0,0,0,0Z"/><path class="cls-3" d="M45.25,14.52a.57.57,0,0,0,0,.49,2.29,2.29,0,0,0,.53.63s2.51,2.45,2.82,2.8a7.89,7.89,0,0,1,2,5.37,8.76,8.76,0,0,1-.89,4.07c-1.18,2.56-3.66,5.4-7.49,8.54l.56-.19a19.22,19.22,0,0,1,2-1.19,71.48,71.48,0,0,1,9.33-4.18,115.59,115.59,0,0,1,18.94-5.07l.52-.08-.08-.13A16.71,16.71,0,0,0,72.41,24a13.68,13.68,0,0,0-4-3.34,29.79,29.79,0,0,0-8.71-2.92c-.68-.14-2.19-.4-3.41-.58-2.59-.4-4.26-.68-6.1-1-.67-.11-1.65-.28-2.31-.42a15.09,15.09,0,0,1-1.5-.4c-.4-.16-1-.32-1.12-.8Zm1.46,1.41.22.07c.21.08.49.16.82.25l.74.2.63.16s.61,1.87.8,2.57c.08.26.13.49.13.49s-.07-.09-.15-.22A11.79,11.79,0,0,0,47,16.15a1.77,1.77,0,0,1-.28-.22Zm2.78.77.31.05c1,.22,2.68.55,3.78.73a1.42,1.42,0,0,1,.34.08.58.58,0,0,1-.15.09c-.19.1-.94.54-1.19.71A11.46,11.46,0,0,0,51,19.64l-.31.3s0-.09-.06-.21a18.26,18.26,0,0,0-1-2.77,2.73,2.73,0,0,1-.11-.26Zm4.9.94a2.21,2.21,0,0,1,.2.62,9,9,0,0,1,.27,2.59c0,.24,0,.46,0,.49l0,.05-.29-.09-2.43-.72c-.48-.13-.87-.25-.87-.26s.7-.73,1-1a26,26,0,0,1,2.17-1.68Zm.39.05s2.34.39,3.39.59c.79.15,1.93.39,2,.42s-.08.08-.46.25A24,24,0,0,0,56,21l-.53.35a2.3,2.3,0,0,1,0-.36,8,8,0,0,0-.61-3.08A.62.62,0,0,1,54.78,17.69Zm6,1.19a5.22,5.22,0,0,1-.13.75,14,14,0,0,1-1.42,3.26c-.12.21-.23.38-.24.39l-.34-.18A17.67,17.67,0,0,0,56.44,22a3.41,3.41,0,0,1-.42-.19S57.8,20.59,58.76,20c.76-.46,2-1.15,2-1.13Zm.43.07c.05,0,1.08.28,1.61.44a30.62,30.62,0,0,1,3.85,1.41l.41.18-.28.07a41.69,41.69,0,0,0-6.52,2l-.32.12a1.22,1.22,0,0,1,.12-.29,11.63,11.63,0,0,0,1.09-3.76c0-.11,0-.19,0-.19ZM51,21.3a11.23,11.23,0,0,1,1.23.29c.64.18,2,.64,2,.67l-.33.29c-.74.62-1.45,1.27-2.31,2.09-.25.25-.47.45-.48.45s0,0,0-.08A12.8,12.8,0,0,0,51,21.6C51,21.44,51,21.3,51,21.3Zm16.51,0a10.86,10.86,0,0,1-.59.93c-.34.48-.84,1.13-2,2.54l-1.48,1.87a6.63,6.63,0,0,1-.42.52L62.87,27a11.93,11.93,0,0,0-2.29-2.53l-.42-.34a.37.37,0,0,1-.11-.1s1-.43,1.69-.72c1.27-.52,3-1.14,4.32-1.54a14.18,14.18,0,0,1,1.42-.41Zm.44.11a1,1,0,0,1,.32.16A18.66,18.66,0,0,1,72,24.42c.3.3,1,1.07,1,1.07l-.56.05a55.25,55.25,0,0,0-8.36,1.39l-.38.08s.21-.22.48-.48A14.63,14.63,0,0,0,67.67,22l.25-.53ZM55.33,22.72c.08,0,.82.36,1.37.64S58,24,58,24.05a5.54,5.54,0,0,1-.6.31c-1.06.53-2,1-2.92,1.61l-.5.3s0,0,.13-.3a11.58,11.58,0,0,0,1.15-3.11c0-.09,0-.14.06-.14Zm-.73.13s-.18.71-.3,1.09a13.69,13.69,0,0,1-1,2.3l-.3.52-.14.22-.32-.3a3.92,3.92,0,0,0-1-.78,1.33,1.33,0,0,1-.27-.15c0-.05,1-.92,1.71-1.56.53-.46,1.65-1.35,1.67-1.34Zm4.49,1.85.28.18a21.32,21.32,0,0,1,2,1.44c.32.27.94.83,1.07,1l.06.08-.45.13c-2.59.72-4.59,1.35-6.93,2.21l-.5.18s-.06,0,.52-.51A24.42,24.42,0,0,0,58.89,25l.2-.31Zm-1.18.3s-.76,1.1-1.23,1.71-1.54,2-2.21,2.77l-.54.62s0-.08,0-.21a4.8,4.8,0,0,0-.48-2c-.13-.26-.16-.33-.13-.36s1.75-1,2.79-1.59c.71-.37,1.8-.93,1.82-.91Zm-7.15,1.75.3.14a6.34,6.34,0,0,1,1,.66,1.93,1.93,0,0,1-.33.27c-.53.39-1.35,1-1.82,1.38s-.52.41-.46.32a11.32,11.32,0,0,0,.76-1.3A11.58,11.58,0,0,0,50.65,27a1.16,1.16,0,0,1,.11-.29Zm1.91,1.49s.06,0,.21.27a4.11,4.11,0,0,1,.64,1.65v.11l-.78.3c-1.38.54-2.66,1.07-3.52,1.46l-.95.45c-.27.15-.5.25-.5.25l.39-.3a22.83,22.83,0,0,0,4.25-3.91l.24-.28Zm-.88.21a9.7,9.7,0,0,1-1.06,1.2,18.15,18.15,0,0,1-3.51,2.83l-.34.22s0,0,.6-.67a15.05,15.05,0,0,0,1-1.16,1.81,1.81,0,0,1,.56-.54C49.85,29.73,51.77,28.43,51.79,28.45Z"/><path class="cls-4" d="M27.32,51.86H27a4.65,4.65,0,0,0-4.35,2.85,7.51,7.51,0,0,0,0,5.42,4.71,4.71,0,0,0,4,2.78c.43.07.71.31,1.54,1.27l1,1.18H31l-1.22-1.23a12.89,12.89,0,0,1-1.23-1.31s.26-.17.58-.26a4.22,4.22,0,0,0,2.48-2.33,4.87,4.87,0,0,0,.63-2.51c.18-3.63-1.74-5.9-4.92-5.87Zm1.61,9.49a4.3,4.3,0,0,1-3,.21,3.9,3.9,0,0,1-2.11-2.26,6.48,6.48,0,0,1,.12-4.14A3.49,3.49,0,0,1,27.22,53c2.24,0,3.51,1.36,3.67,3.94.13,2.14-.59,3.76-2,4.42ZM60.67,55a1.94,1.94,0,0,0-1.75.93l-.32.48V55.11H57.27V62.7H58.6V60.27c0-2.22,0-2.47.34-3.08a1.67,1.67,0,0,1,1.87-1l.48.14V55Zm-7.83-.07A4,4,0,0,0,52,55a3.81,3.81,0,0,0-2.73,3.93,3.81,3.81,0,0,0,1,3,4.12,4.12,0,0,0,4.55.65l.63-.28V61.08l-.63.33c-1.44.62-2.52.62-3.39-.12a3.39,3.39,0,0,1-.91-2h5.38v-1c0-2.08-1.26-3.4-3.08-3.37Zm-2.18,3.33a3.1,3.1,0,0,1,.94-1.81A2,2,0,0,1,52.76,56a1.85,1.85,0,0,1,1.12.38,2.93,2.93,0,0,1,.79,1.79h-4ZM18.5,56.85c-1.45-.88-2.09-1.51-2-2.25.22-2.06,2.77-1.78,4.18-1V52.21a5.59,5.59,0,0,0-1.9-.35c-1.71,0-2.82.54-3.34,1.68-.76,1.69-.09,3,2.35,4.38,1.37.8,2,1.49,2,2.25,0,1.56-1.88,2.1-3.82,1.12l-.75-.36a12.27,12.27,0,0,0,0,1.5,8.32,8.32,0,0,0,1.49.42c2.22.44,4.24-.6,4.43-2.29s-.41-2.41-2.58-3.71Zm54-2a4.07,4.07,0,0,0-.82.1,3.8,3.8,0,0,0-2.72,3.93,3.78,3.78,0,0,0,1,3,4.12,4.12,0,0,0,4.56.65l.63-.27v-1.2l-.63.33C73.05,62,72,62,71.1,61.27a3.39,3.39,0,0,1-.91-2h5.37v-1c0-2.08-1.25-3.4-3.08-3.36ZM70.31,58.2a3.17,3.17,0,0,1,.93-1.82A2,2,0,0,1,72.4,56a1.88,1.88,0,0,1,1.13.38,3,3,0,0,1,.79,1.8h-4ZM45.85,56.87c-1.44-.88-2.08-1.51-2-2.26.23-2.06,2.78-1.77,4.19-1V52.23a5.31,5.31,0,0,0-1.9-.35c-1.72,0-2.82.53-3.34,1.68-.77,1.69-.08,3,2.35,4.38,1.37.8,2,1.48,2,2.24,0,1.56-1.88,2.11-3.82,1.12-.4-.2-.74-.36-.76-.36a11.68,11.68,0,0,0,0,1.5,9.12,9.12,0,0,0,1.48.42c2.22.45,4.24-.59,4.43-2.28s-.41-2.41-2.58-3.71Zm34.47-1.93a2,2,0,0,0-1.76.93l-.31.49V55.09H76.92v7.59h1.33V60.25c0-2.21,0-2.47.34-3.08a1.66,1.66,0,0,1,1.87-1.05l.48.14V54.94ZM35.24,56.82V52H33.9V62.7h5.65V61.43H35.24V56.82Zm31.11,1.51-1.11,2.89-1.07-2.91L63.09,55.1H61.71c.9,2.53,1.87,5.1,2.85,7.6h1.27l1.5-3.76,1.52-3.84H67.53s-.58,1.53-1.18,3.23Zm-28-9.26a.74.74,0,0,0,.55-.22.76.76,0,0,0,0-1.07.75.75,0,0,0-.54-.21.7.7,0,0,0-.54.22.73.73,0,0,0-.22.54.69.69,0,0,0,.22.53.72.72,0,0,0,.53.21Zm-.47-1.23a.62.62,0,0,1,.48-.19.65.65,0,0,1,.48.19.68.68,0,0,1,0,1,.65.65,0,0,1-.48.19.61.61,0,0,1-.47-.19.66.66,0,0,1-.2-.48A.65.65,0,0,1,37.87,47.84Zm.32.55h.08c.07,0,.13.06.18.17l.1.23h.17l-.13-.26c-.06-.1-.11-.16-.17-.18a.31.31,0,0,0,.18-.09.23.23,0,0,0,.06-.18.19.19,0,0,0-.08-.18.4.4,0,0,0-.27-.08H38v1h.14v-.4Zm0-.45h.12a.26.26,0,0,1,.18,0,.15.15,0,0,1,0,.12c0,.11-.07.17-.2.17h-.15v-.33ZM16,48.3c0-.34,0-.59,0-.74h0a2,2,0,0,0,.11.39l1.29,2.89h.22l1.29-2.91a3,3,0,0,0,.11-.37h0c0,.29,0,.54,0,.74v2.55h.44V47.06h-.56L17.66,49.7a4.46,4.46,0,0,0-.18.46h0c0-.1-.09-.26-.17-.45l-1.17-2.66h-.58v3.79H16V48.3Zm4.4,0h.38v2.35h-.38Zm.19-.87a.24.24,0,0,0,.2-.08.28.28,0,0,0,.08-.2.24.24,0,0,0-.08-.19.26.26,0,0,0-.2-.08.24.24,0,0,0-.2.08.28.28,0,0,0-.09.19.24.24,0,0,0,.09.2.26.26,0,0,0,.2.08Zm2.91,3.28V50.3a1.07,1.07,0,0,1-.67.23.89.89,0,0,1-.67-.27,1.11,1.11,0,0,1-.25-.75,1.13,1.13,0,0,1,.27-.79.88.88,0,0,1,.68-.28,1.11,1.11,0,0,1,.64.21v-.44a1.26,1.26,0,0,0-.62-.14,1.36,1.36,0,0,0-1,.4,1.55,1.55,0,0,0-.38,1.08,1.35,1.35,0,0,0,.35,1,1.21,1.21,0,0,0,.93.39,1.57,1.57,0,0,0,.75-.19Zm1.09-1.26a1.25,1.25,0,0,1,.2-.74.55.55,0,0,1,.44-.23.52.52,0,0,1,.33.09v-.45a.62.62,0,0,0-.26,0,.68.68,0,0,0-.42.15.89.89,0,0,0-.29.46h0v-.56h-.43v2.71h.43V49.46Zm2.49,1.44a1.3,1.3,0,0,0,1-.39,1.48,1.48,0,0,0,.36-1,1.46,1.46,0,0,0-.34-1,1.18,1.18,0,0,0-.94-.37,1.37,1.37,0,0,0-1,.35,1.47,1.47,0,0,0-.4,1.09,1.39,1.39,0,0,0,.35,1,1.25,1.25,0,0,0,1,.39Zm-.62-2.2a.84.84,0,0,1,.65-.26.78.78,0,0,1,.64.26,1.15,1.15,0,0,1,.24.79,1.13,1.13,0,0,1-.22.76.8.8,0,0,1-.65.28.86.86,0,0,1-.66-.28,1.1,1.1,0,0,1-.24-.76,1.06,1.06,0,0,1,.24-.79Zm3.86,2a.7.7,0,0,0,.25-.55.66.66,0,0,0-.2-.49,1.6,1.6,0,0,0-.5-.3,1.43,1.43,0,0,1-.41-.22.38.38,0,0,1-.11-.28.32.32,0,0,1,.13-.27.49.49,0,0,1,.34-.1,1,1,0,0,1,.62.19v-.43a1.27,1.27,0,0,0-.58-.13,1,1,0,0,0-.69.22.71.71,0,0,0-.27.56.67.67,0,0,0,.18.49,1.37,1.37,0,0,0,.48.3,1.71,1.71,0,0,1,.44.25.34.34,0,0,1,.12.26c0,.25-.18.38-.51.38a1.1,1.1,0,0,1-.71-.25v.46a1.24,1.24,0,0,0,.67.17,1.21,1.21,0,0,0,.74-.25Zm2.06-2.59a1.37,1.37,0,0,0-1,.35,1.47,1.47,0,0,0-.4,1.09,1.39,1.39,0,0,0,.35,1,1.25,1.25,0,0,0,1,.39,1.27,1.27,0,0,0,1-.39,1.48,1.48,0,0,0,.36-1,1.46,1.46,0,0,0-.34-1,1.21,1.21,0,0,0-.94-.38Zm.84,1.42a1.13,1.13,0,0,1-.22.76.78.78,0,0,1-.65.28.86.86,0,0,1-.66-.28,1.1,1.1,0,0,1-.24-.76,1.13,1.13,0,0,1,.26-.8.87.87,0,0,1,.65-.26.82.82,0,0,1,.64.26,1.31,1.31,0,0,1,.22.8Zm1.17,1.35h.43V48.5h.63v-.36h-.63v-.42q0-.57.45-.57a.57.57,0,0,1,.29.07v-.39a.74.74,0,0,0-.32,0,.81.81,0,0,0-.58.22.91.91,0,0,0-.27.7v.45H33.9v.36h.46v2.33Zm1.77-.74c0,.53.24.8.71.8a.78.78,0,0,0,.41-.09v-.37a.45.45,0,0,1-.28.09.37.37,0,0,1-.31-.12.66.66,0,0,1-.09-.39V48.5h.68v-.37h-.68v-.79l-.44.14v.65h-.46v.37h.46v1.6Zm46.5,5a.76.76,0,0,0-.54-.21.74.74,0,0,0-.55.22.76.76,0,0,0-.21.54.73.73,0,0,0,.21.54.81.81,0,0,0,.55.2.75.75,0,0,0,.54-.21.73.73,0,0,0,.23-.54.76.76,0,0,0-.24-.54Zm-.07,1a.73.73,0,0,1-1,0,.7.7,0,0,1-.2-.49.65.65,0,0,1,.19-.48.66.66,0,0,1,.49-.19.65.65,0,0,1,.67.67A.63.63,0,0,1,82.56,56.11Zm-.39-.45a.34.34,0,0,0,.18-.09.28.28,0,0,0,.06-.18.23.23,0,0,0-.08-.18.44.44,0,0,0-.28-.08h-.27v1h.14v-.4H82c.06,0,.12.06.17.17l.11.23h.16l-.13-.26a.27.27,0,0,0-.14-.18Zm-.1-.08h-.15v-.33H82a.32.32,0,0,1,.19,0,.15.15,0,0,1,0,.12c0,.11-.07.17-.2.17ZM57.9,48H58v-1h.32v-.12h-.76v.12h.32v1Zm.74-.73a1.16,1.16,0,0,0,0-.21,1,1,0,0,1,0,.11L59,48h.06l.37-.84,0-.1a1.62,1.62,0,0,0,0,.21V48h.13V46.93h-.16l-.34.75-.05.14h0a.79.79,0,0,0,0-.13l-.34-.76h-.17V48h.12V47.3Z"/></svg>