<svg id="Layer_1" data-name="Layer 1" xmlns="http://www.w3.org/2000/svg" viewBox="0 0 100 75"><defs><style>.cls-1{fill:#059afd;}</style></defs><path class="cls-1" d="M38,57c-4.73-2.24-7.09-5.71-6.66-11,.12-1.42,0-2.84,0-4.75A67.15,67.15,0,0,1,38,43.31c.5.21.79,1.59.7,2.37-.27,2.5,1.06,3.55,3,4.88,5.17,3.57,9.94,3.69,15.09,0,2.4-1.72,4.11-5.27,2.87-8.07-.23-.53-1.13-.88-1.8-1.08-8.05-2.37-16.11-4.73-24.2-7-2-.56-2.7-1.32-2-4.53a17.77,17.77,0,0,0,0-7c-.67-3.44.14-6,2.88-7.28,9.78-4.72,19.62-4.78,29.35,0a5.91,5.91,0,0,1,3,3.71c.45,3.1.14,6.3.14,9.77a53.71,53.71,0,0,1-6.37-2c-.54-.23-.9-1.69-.79-2.51.43-3.11-1.38-3.88-4.78-4.44a35.52,35.52,0,0,0-10.94,0c-3.77.56-5.49,1-5.39,3.86.15,4.47,0,4.49,4.23,5.7,7.34,2.11,14.68,4.26,22,6.3,1.88.52,2.6,1.3,2.13,3.88a13.76,13.76,0,0,0-.14,4.57c.89,5.64-1,9.55-5.47,11.89-4.11,2.14-8.19,4.35-12.28,6.53C45.45,61,41.83,58.77,38,57Z"/></svg>