<svg id="Layer_1" data-name="Layer 1" xmlns="http://www.w3.org/2000/svg" viewBox="0 0 100 75"><defs><style>.cls-1{fill:#3e8ede;}</style></defs><path class="cls-1" d="M14.82,30.62V48.87H12V30.62H4.67V27.94H22.15v2.68ZM25.5,48.87V27.94h2.81V48.87Zm22.66-5.93c0,3.55-2.38,5.93-7.77,5.93H33.26V27.94h6.93c5.05,0,7.3,2.27,7.3,5.56,0,2.14-1.24,3.72-3.59,4.61C46.7,38.79,48.16,40.59,48.16,42.94ZM40.42,30.55H36.1v6.56H40c3,0,4.65-1.33,4.65-3.38s-1.47-3.18-4.22-3.18Zm-.2,9.14H36.13v6.57h4.53c3.11,0,4.66-1.11,4.66-3.29,0-2.4-2.15-3.28-5.1-3.28Zm26.49-7.91A9.83,9.83,0,0,0,61,30c-4.56,0-7.63,3.15-7.63,8.34s3.07,8.51,7.68,8.51a10.15,10.15,0,0,0,5.93-2l.47,2.85A12.65,12.65,0,0,1,61,49.37c-6.15,0-10.49-4.25-10.49-10.92s4.4-11,10.5-11a13.23,13.23,0,0,1,6.62,1.74Zm18.15-2.86c-.32-.19-.64-.36-1-.52-2.74,5.25-7.68,11.49-14.28,15A9.58,9.58,0,0,0,71,45.74,43.25,43.25,0,0,0,84.86,28.92Z"/><path class="cls-1" d="M83.64,28.28a11.22,11.22,0,0,0-4.54-.9c-6.15,0-10.5,4.74-10.5,11a14.16,14.16,0,0,0,.32,3c6.29-2.56,11.89-8.22,14.72-13.07Zm1.48.78A51,51,0,0,1,72.93,47.45a10.75,10.75,0,0,0,6.19,1.83c6.14,0,10.49-4.78,10.49-11,0-4.14-1.73-7.36-4.49-9.18Zm4.47-.69A2.71,2.71,0,1,1,95,28.14v.23a2.71,2.71,0,0,1-5.41.24Zm5.1,0a2.39,2.39,0,0,0-4.78,0h0a2.39,2.39,0,1,0,4.78,0Zm-3.45-1.43h1.25c.6,0,1.05.3,1.05.87a.83.83,0,0,1-.63.84l.73,1H93l-.67-1h-.56v1h-.51V26.92Zm1.2,1.37a.47.47,0,0,0,.55-.39.13.13,0,0,0,0-.06.46.46,0,0,0-.46-.47l-.1,0h-.66v.88h.67Z"/></svg>