<svg id="Layer_1" data-name="Layer 1" xmlns="http://www.w3.org/2000/svg" viewBox="0 0 100 75"><path d="M16.6,25.94v8.48H14.23V23.52h70v2.42Z"/><path d="M83.14,42.87v-1.3h2.39V52.48H15.47V50.12H83.1Z"/><path d="M83.91,30.26H84q5,8.27,10,16.56v0c-1,0-2,0-3.08,0-.26-.38-.49-.79-.73-1.18q-3.07-5.13-6.14-10.25c-.24.33-.43.69-.64,1l-3.82,6.38a8.7,8.7,0,0,1-1.49,1.87,8.11,8.11,0,0,1-11.49-.42,8,8,0,0,1-2.08-4.57,8.08,8.08,0,0,1,4.68-8.28A8.25,8.25,0,0,1,74.53,31a8,8,0,0,1,4,2.34c-.48.81-1,1.6-1.45,2.41a5.8,5.8,0,0,0-2-1.74,5.45,5.45,0,1,0-4.63,9.85,5.38,5.38,0,0,0,3.79.17,5.48,5.48,0,0,0,3.13-2.66C79.59,37.65,81.8,34,84,30.27Z"/><path d="M5.76,30.88c1,0,2.06,0,3.09,0,2.13,3.75,4.24,7.52,6.36,11.27q3.2-5.64,6.38-11.27H33v2.65H23.18c-2.65,4.68-5.28,9.37-7.93,14h0q-4.7-8.32-9.41-16.66h0Z"/><path d="M34.08,30.87h8.67a4.45,4.45,0,0,1,3,1.14,4.59,4.59,0,0,1,1.48,4,4.54,4.54,0,0,1-2.79,3.6c1.28,2.41,2.62,4.79,3.9,7.19H45.69C44.44,44.56,43.21,42.27,42,40H36.73c0,2.28,0,4.57,0,6.85H34.09C34.08,41.52,34.09,36.19,34.08,30.87Zm2.65,2.65v3.82h6a1.92,1.92,0,0,0,1.86-1.58,1.87,1.87,0,0,0-.57-1.7,2,2,0,0,0-1.48-.54C40.61,33.51,38.67,33.52,36.73,33.52Z"/><path d="M46.32,30.87c4.52,0,9,0,13.57,0v2.65H54.46c0,4.44,0,8.88,0,13.32-.89,0-1.79,0-2.68,0,0-4.43,0-8.87,0-13.31H48.17A6.35,6.35,0,0,0,46.32,30.87Z"/><path d="M60.91,30.87c.89,0,1.79,0,2.68,0,0,5.32,0,10.64,0,16H60.91C60.9,41.52,60.91,36.19,60.91,30.87Z"/><path d="M21.67,37.6H33v2.65H24.35v3.93c2.88,0,5.76,0,8.64,0,0,.89,0,1.77,0,2.66-3.77,0-7.55,0-11.32,0C21.67,43.76,21.68,40.68,21.67,37.6Z"/></svg>